<svg xmlns="http://www.w3.org/2000/svg" xmlns:xlink="http://www.w3.org/1999/xlink" width="483.141" height="123.894" viewBox="0 0 483.141 123.894"><defs><clipPath id="a"><rect width="483.141" height="123.894" fill="none"/></clipPath></defs><g clip-path="url(#a)"><path d="M207.94,1.021h61.71a5.662,5.662,0,0,1-.93,1.41,7.646,7.646,0,0,1-1.59.7c-7.43,3.33-9.96,8.989-6.67,16.349,8.69,19.4,17.63,38.7,26.47,58.03.05.11.23.161.58.381,1.67-3.991,3.31-7.94,4.97-11.87,3.79-8.99,7.65-17.96,11.33-26.99a5.714,5.714,0,0,0,.03-3.89c-2.3-5.75-4.89-11.39-7.24-17.131-2.33-5.67-6.23-10.129-10.58-14.3-.67-.64-1.2-1.421-2.17-2.58h61.31c.1.18.2.37.3.55a16.945,16.945,0,0,1-2.14,1.159c-4.4,1.661-7.4,4.63-7.78,9.39a17.869,17.869,0,0,0,1.01,7.28c6.5,18.04,13.16,36.021,19.79,54.011a4.708,4.708,0,0,0,.62.83c2.33-6.591,4.58-12.92,6.82-19.261,3.99-11.3,7.74-22.69,12.04-33.86,3.38-8.779-.52-14.26-6.09-17.93a4.421,4.421,0,0,1-1.83-2.2h24.85a10.123,10.123,0,0,1-1.69,1.769,21.652,21.652,0,0,0-9.79,12.091q-18.42,52.5-37,104.939a3.771,3.771,0,0,1-.45,1.15c-.52.621-1.14,1.591-1.74,1.61s-1.51-.83-1.81-1.51c-3.71-8.579-7.33-17.189-10.97-25.8q-11.01-26.056-22.01-52.1c-.21-.5-.49-.961-.95-1.86-.78,1.789-1.4,3.2-2,4.619q-15.495,37.2-31.03,74.39a10.425,10.425,0,0,1-2.07,2.381c-.75-.741-1.8-1.341-2.22-2.231Q244.255,68.14,219.61,15.671c-2.24-4.771-5.72-8.511-9.5-12.051a31.78,31.78,0,0,1-2.2-2.64Z"/><path d="M475.22,35.01c-2.07-3.64-3.7-6.89-5.68-9.91-5.21-7.92-11.41-14.9-19.86-19.56a22.4,22.4,0,0,0-16.11-2.519C419.6,6.11,418.12,21.68,425.01,29.16a50.984,50.984,0,0,0,11.47,9.011c6.55,3.879,13.54,7.019,20.27,10.6,8.2,4.369,15.91,9.4,21,17.479a36.354,36.354,0,0,1-17.41,52.84c-9.61,3.99-19.64,5.23-29.97,4.681a99.8,99.8,0,0,1-31.05-6.231,63.966,63.966,0,0,1-7.76-3.9,2.4,2.4,0,0,1-1.11-1.86c1.06-6.7,2.25-13.38,3.43-20.07a7.077,7.077,0,0,1,.76-1.44c2.35,2.96,4.5,5.74,6.72,8.45,5.4,6.57,11.24,12.67,18.3,17.53a27.012,27.012,0,0,0,24.12,3.87c6.37-1.89,10.02-6.94,10.47-13.59.56-8.39-3.54-14.26-10.17-18.37-7.3-4.53-15.01-8.41-22.54-12.57-7.08-3.91-13.92-8.14-19.17-14.47-6.06-7.32-8.24-15.75-7.78-25.18.95-19.269,16.35-32.18,34.88-35.01a72.656,72.656,0,0,1,48.42,8.93c1.56.9,1.94,1.74,1.57,3.54-1.39,6.71-2.53,13.46-3.78,20.2a14.74,14.74,0,0,1-.47,1.43Z"/><path d="M119.18,1.03h83.76q2.13,13.815,4.27,27.64l-.68.5C198.41,9.86,182.49,3.9,163.17,3.23V54.78c3.23,0,6.53.14,9.81-.04,3.4-.18,6.99,1,10.12-1.36a28.985,28.985,0,0,0,9.53-12.21,5.144,5.144,0,0,1,1.56-2.27V73.81c-.61-.95-.94-1.4-1.21-1.88a84.858,84.858,0,0,0-4.45-7.71c-3.33-4.58-7.5-7.56-13.72-6.81-3.76.45-7.63.08-11.63.08V120.9c4.72-.44,9.43-.61,14.04-1.35,8.79-1.4,17.04-4.24,23.97-10.14a36.617,36.617,0,0,0,9.22-12.52c.25-.52.46-1.06.73-1.57.06-.11.27-.14,1.16-.57-1.51,9.54-2.95,18.61-4.41,27.85H119.35c.35-.57.44-.9.66-1.06,4.84-3.39,6.92-8.4,6.95-13.94q.24-45.63,0-91.26a16.636,16.636,0,0,0-6.71-13.82,7.908,7.908,0,0,1-1.06-1.49Z"/><path d="M10.62,33.25v3.3c0,20.7.05,41.39-.02,62.09-.03,8.57,1.68,16.45,7.77,22.91.15.16.15.45.31.99H0c.19-.56.22-1.11.51-1.41,5.61-5.8,7.47-13.05,7.52-20.75.14-23.27.19-46.54-.06-69.81A136.293,136.293,0,0,0,5.88,11.09C5.36,7.76,3.94,4.55.78,2.58.46,2.38.36,1.82.03,1.16c.89-.1,1.52-.22,2.14-.22C9.66.93,17.15.88,24.64.99a4.745,4.745,0,0,1,3,1.23Q61.84,35.4,95.95,68.69c.87.84,1.77,1.65,3.1,2.9V68.87q0-22.815,0-45.63c0-7.63-2.03-14.55-7.27-20.33a8.72,8.72,0,0,1-.93-1.8h19.12A9.76,9.76,0,0,1,108.96,3c-5.61,6.04-7.29,13.5-7.31,21.36-.09,31.75-.04,63.5-.04,95.25v3.78a25.842,25.842,0,0,1-2.88-2.08Q69.8,92.39,40.89,63.42,26.61,49.125,12.32,34.82c-.4-.4-.83-.77-1.69-1.56Z"/></g></svg>