<svg xmlns="http://www.w3.org/2000/svg" width="512" height="512" viewBox="0 0 512 512"><g transform="translate(-386 644)"><rect width="512" height="512" transform="translate(386 -644)" fill="#fff"/><g transform="translate(442 -439.019)"><g transform="translate(0 0.019)"><path d="M207.935,1.033h51.091a4.688,4.688,0,0,1-.77,1.167,6.287,6.287,0,0,1-1.316.58c-6.151,2.757-8.246,7.443-5.522,13.536,7.195,16.062,14.6,32.04,21.915,48.044.041.091.19.132.48.315,1.383-3.3,2.74-6.574,4.115-9.827,3.138-7.443,6.334-14.869,9.38-22.345a4.731,4.731,0,0,0,.025-3.221c-1.9-4.761-4.049-9.43-5.994-14.182-1.929-4.694-5.158-8.387-8.759-11.839-.555-.53-.993-1.176-1.8-2.136h50.76c.083.149.166.306.248.455a14.141,14.141,0,0,1-1.772.96c-3.643,1.374-6.127,3.833-6.441,7.774a14.8,14.8,0,0,0,.836,6.027c5.381,14.936,10.9,29.822,16.384,44.716a3.866,3.866,0,0,0,.513.687c1.929-5.456,3.792-10.7,5.646-15.946,3.3-9.355,6.408-18.785,9.968-28.033,2.8-7.269-.431-11.806-5.042-14.845A3.666,3.666,0,0,1,340.368,1.1h20.574a8.361,8.361,0,0,1-1.4,1.465,17.924,17.924,0,0,0-8.105,10.01Q336.187,56.04,320.8,99.456a3.131,3.131,0,0,1-.373.952c-.431.513-.944,1.316-1.441,1.333s-1.25-.687-1.5-1.25c-3.072-7.1-6.069-14.232-9.082-21.36Q299.3,57.559,290.188,36c-.174-.414-.406-.795-.787-1.54-.646,1.482-1.159,2.649-1.656,3.825q-12.829,30.8-25.69,61.589a8.646,8.646,0,0,1-1.714,1.97c-.621-.613-1.49-1.109-1.838-1.846Q238,56.6,217.6,13.162c-1.855-3.949-4.736-7.046-7.865-9.976A26.455,26.455,0,0,1,207.91,1Z" transform="translate(-35.778 -0.188)"/><path d="M460.631,29.005c-1.714-3.014-3.063-5.7-4.7-8.2-4.313-6.557-9.447-12.336-16.442-16.194A18.547,18.547,0,0,0,426.148,2.52c-11.566,2.558-12.791,15.449-7.087,21.642a42.231,42.231,0,0,0,9.5,7.46c5.423,3.212,11.21,5.812,16.782,8.776,6.789,3.618,13.172,7.782,17.386,14.472a30.1,30.1,0,0,1-14.414,43.747,55.954,55.954,0,0,1-24.813,3.875,82.622,82.622,0,0,1-25.707-5.158,52.961,52.961,0,0,1-6.425-3.229,1.99,1.99,0,0,1-.919-1.54c.878-5.547,1.863-11.078,2.84-16.616a5.861,5.861,0,0,1,.629-1.192c1.946,2.451,3.726,4.752,5.564,7a74.737,74.737,0,0,0,15.151,14.513,22.364,22.364,0,0,0,19.969,3.2c5.274-1.565,8.3-5.746,8.668-11.251.464-6.946-2.931-11.806-8.42-15.209-6.044-3.75-12.427-6.963-18.661-10.407-5.862-3.237-11.525-6.739-15.871-11.98-5.017-6.06-6.822-13.04-6.441-20.847C394.663,13.821,407.412,3.133,422.754.79a60.143,60.143,0,0,1,40.088,7.393,2.274,2.274,0,0,1,1.3,2.931c-1.151,5.555-2.095,11.144-3.13,16.724a12.19,12.19,0,0,1-.389,1.184Z" transform="translate(-67.189 -0.019)"/><path d="M119.18,1.05h69.346q1.763,11.438,3.535,22.884l-.563.414C184.776,8.36,171.6,3.426,155.6,2.871V45.55c2.674,0,5.406.116,8.122-.033,2.815-.149,5.787.828,8.379-1.126a24,24,0,0,0,7.89-10.109,4.259,4.259,0,0,1,1.292-1.879v28.9c-.505-.787-.778-1.159-1-1.556a70.254,70.254,0,0,0-3.684-6.383c-2.757-3.792-6.209-6.259-11.359-5.638a82.7,82.7,0,0,1-9.629.066v52.5c3.908-.364,7.807-.505,11.624-1.118,7.277-1.159,14.108-3.51,19.845-8.4a30.315,30.315,0,0,0,7.633-10.366c.207-.431.381-.878.6-1.3.05-.091.224-.116.96-.472-1.25,7.9-2.442,15.408-3.651,23.057h-73.3c.29-.472.364-.745.546-.878a13.536,13.536,0,0,0,5.754-11.541q.2-37.778,0-75.556a13.773,13.773,0,0,0-5.555-11.442,6.547,6.547,0,0,1-.878-1.234Z" transform="translate(-20.509 -0.196)"/><path d="M8.792,27.707v2.732c0,17.138.041,34.267-.017,51.405-.025,7.1,1.391,13.619,6.433,18.968.124.132.124.373.257.82H0c.157-.464.182-.919.422-1.167,4.645-4.8,6.185-10.8,6.226-17.179.116-19.266.157-38.531-.05-57.8A112.839,112.839,0,0,0,4.868,9.36,9.624,9.624,0,0,0,.646,2.314C.381,2.149.3,1.685.025,1.139A17.616,17.616,0,0,1,1.8.957C8,.948,14.2.907,20.4,1a3.928,3.928,0,0,1,2.484,1.018Q51.2,29.487,79.439,57.048c.72.7,1.465,1.366,2.567,2.4V57.2q0-18.889,0-37.778c0-6.317-1.681-12.046-6.019-16.832a7.219,7.219,0,0,1-.77-1.49h15.83a8.106,8.106,0,0,1-.836,1.565c-4.645,5-6.036,11.177-6.052,17.684-.075,26.286-.033,52.573-.033,78.859v3.13a21.4,21.4,0,0,1-2.384-1.722Q57.784,76.669,33.853,52.685,22.031,40.85,10.2,29.006c-.331-.331-.687-.637-1.4-1.292Z" transform="translate(0 -0.178)"/></g></g></g></svg>