<?xml version="1.0" encoding="UTF-8"?>
<svg id="Layer_2" data-name="Layer 2" xmlns="http://www.w3.org/2000/svg" viewBox="0 0 483.14 123.91">
  <defs>
    <style>
      .cls-1 {
        fill: #fff;
        stroke-width: 0px;
      }
    </style>
  </defs>
  <g id="Layer_1-2" data-name="Layer 1">
    <g id="H5Y4km.tif">
      <g>
        <path class="cls-1" d="M207.94,1.04h61.71c-.41.65-.58,1.15-.93,1.41-.45.34-1.06.47-1.59.7-7.43,3.33-9.96,8.99-6.67,16.35,8.69,19.4,17.63,38.7,26.47,58.03.05.11.23.16.58.38,1.67-3.99,3.31-7.94,4.97-11.87,3.79-8.99,7.65-17.96,11.33-26.99.46-1.13.48-2.76.03-3.89-2.3-5.75-4.89-11.39-7.24-17.13-2.33-5.67-6.23-10.13-10.58-14.3-.67-.64-1.2-1.42-2.17-2.58h61.31c.1.18.2.37.3.55-.71.39-1.39.88-2.14,1.16-4.4,1.66-7.4,4.63-7.78,9.39-.19,2.4.19,5.01,1.01,7.28,6.5,18.04,13.16,36.02,19.79,54.01.07.2.26.36.62.83,2.33-6.59,4.58-12.92,6.82-19.26,3.99-11.3,7.74-22.69,12.04-33.86,3.38-8.78-.52-14.26-6.09-17.93-.75-.49-1.41-1.12-1.83-2.2h24.85c-.74.8-1.13,1.44-1.69,1.77-4.81,2.79-7.94,6.83-9.79,12.09-12.28,35-24.66,69.96-37,104.94-.14.39-.2.85-.45,1.15-.52.62-1.14,1.59-1.74,1.61-.61.01-1.51-.83-1.81-1.51-3.71-8.58-7.33-17.19-10.97-25.8-7.34-17.37-14.67-34.74-22.01-52.1-.21-.5-.49-.96-.95-1.86-.78,1.79-1.4,3.2-2,4.62-10.33,24.8-20.65,49.61-31.03,74.39-.39.92-1.37,1.59-2.07,2.38-.75-.74-1.8-1.34-2.22-2.23-16.51-34.94-32.97-69.9-49.41-104.88-2.24-4.77-5.72-8.51-9.5-12.05-.66-.62-1.18-1.4-2.2-2.64Z"/>
        <path class="cls-1" d="M475.22,35.03c-2.07-3.64-3.7-6.89-5.68-9.91-5.21-7.92-11.41-14.9-19.86-19.56-5.04-2.78-10.39-3.78-16.11-2.52-13.97,3.09-15.45,18.66-8.56,26.14,3.26,3.54,7.31,6.54,11.47,9.01,6.55,3.88,13.54,7.02,20.27,10.6,8.2,4.37,15.91,9.4,21,17.48,10.74,17.05,5.68,43.25-17.41,52.84-9.61,3.99-19.64,5.23-29.97,4.68-10.66-.58-21.08-2.35-31.05-6.23-2.69-1.04-5.23-2.5-7.76-3.9-.56-.31-1.2-1.3-1.11-1.86,1.06-6.7,2.25-13.38,3.43-20.07.07-.37.36-.7.76-1.44,2.35,2.96,4.5,5.74,6.72,8.45,5.4,6.57,11.24,12.67,18.3,17.53,7.44,5.12,15.47,6.44,24.12,3.87,6.37-1.89,10.02-6.94,10.47-13.59.56-8.39-3.54-14.26-10.17-18.37-7.3-4.53-15.01-8.41-22.54-12.57-7.08-3.91-13.92-8.14-19.17-14.47-6.06-7.32-8.24-15.75-7.78-25.18.95-19.27,16.35-32.18,34.88-35.01,17.14-2.62,33.32.27,48.42,8.93,1.56.9,1.94,1.74,1.57,3.54-1.39,6.71-2.53,13.46-3.78,20.2-.05.3-.19.58-.47,1.43Z"/>
        <path class="cls-1" d="M119.18,1.05h83.76c1.42,9.21,2.84,18.42,4.27,27.64l-.68.5c-8.12-19.31-24.04-25.27-43.36-25.94v51.55c3.23,0,6.53.14,9.81-.04,3.4-.18,6.99,1,10.12-1.36,4.28-3.23,7.48-7.27,9.53-12.21.33-.8.7-1.58,1.56-2.27v34.91c-.61-.95-.94-1.4-1.21-1.88-1.48-2.58-2.72-5.32-4.45-7.71-3.33-4.58-7.5-7.56-13.72-6.81-3.76.45-7.63.08-11.63.08v63.41c4.72-.44,9.43-.61,14.04-1.35,8.79-1.4,17.04-4.24,23.97-10.14,4.06-3.46,6.96-7.75,9.22-12.52.25-.52.46-1.06.73-1.57.06-.11.27-.14,1.16-.57-1.51,9.54-2.95,18.61-4.41,27.85h-88.54c.35-.57.44-.9.66-1.06,4.84-3.39,6.92-8.4,6.95-13.94.16-30.42.16-60.84,0-91.26-.03-5.45-2.08-10.37-6.71-13.82-.33-.25-.51-.7-1.06-1.49Z"/>
        <path class="cls-1" d="M10.62,33.27v3.3c0,20.7.05,41.39-.02,62.09-.03,8.57,1.68,16.45,7.77,22.91.15.16.15.45.31.99H0c.19-.56.22-1.11.51-1.41,5.61-5.8,7.47-13.05,7.52-20.75.14-23.27.19-46.54-.06-69.81-.07-6.5-1.08-13.03-2.09-19.48-.52-3.33-1.94-6.54-5.1-8.51-.32-.2-.42-.76-.75-1.42.89-.1,1.52-.22,2.14-.22,7.49-.01,14.98-.06,22.47.05,1.02.01,2.28.52,3,1.23,22.8,22.12,45.55,44.3,68.31,66.47.87.84,1.77,1.65,3.1,2.9,0-1.3,0-2.01,0-2.72,0-15.21.01-30.42,0-45.63,0-7.63-2.03-14.55-7.27-20.33-.39-.43-.55-1.05-.93-1.8h19.12c-.44.84-.62,1.47-1.01,1.89-5.61,6.04-7.29,13.5-7.31,21.36-.09,31.75-.04,63.5-.04,95.25v3.78c-1.33-.95-2.21-1.41-2.88-2.08-19.29-19.28-38.57-38.59-57.84-57.89-9.52-9.53-19.04-19.07-28.57-28.6-.4-.4-.83-.77-1.69-1.56Z"/>
      </g>
    </g>
  </g>
</svg>