<?xml version="1.0" encoding="UTF-8"?>
<svg id="Layer_2" data-name="Layer 2" xmlns="http://www.w3.org/2000/svg" xmlns:xlink="http://www.w3.org/1999/xlink" viewBox="0 0 493.51 499.74">
  <defs>
    <style>
      .cls-1 {
        fill: url(#linear-gradient);
      }

      .cls-1, .cls-2, .cls-3, .cls-4, .cls-5, .cls-6, .cls-7, .cls-8, .cls-9, .cls-10, .cls-11, .cls-12, .cls-13, .cls-14, .cls-15, .cls-16, .cls-17, .cls-18, .cls-19, .cls-20, .cls-21, .cls-22, .cls-23, .cls-24, .cls-25, .cls-26, .cls-27, .cls-28, .cls-29, .cls-30, .cls-31, .cls-32, .cls-33, .cls-34, .cls-35, .cls-36, .cls-37, .cls-38, .cls-39, .cls-40, .cls-41, .cls-42, .cls-43, .cls-44, .cls-45, .cls-46, .cls-47, .cls-48, .cls-49, .cls-50, .cls-51, .cls-52, .cls-53, .cls-54, .cls-55, .cls-56, .cls-57, .cls-58, .cls-59, .cls-60, .cls-61, .cls-62, .cls-63, .cls-64, .cls-65, .cls-66, .cls-67, .cls-68, .cls-69, .cls-70, .cls-71, .cls-72, .cls-73, .cls-74, .cls-75, .cls-76, .cls-77, .cls-78, .cls-79, .cls-80, .cls-81, .cls-82 {
        stroke-width: 0px;
      }

      .cls-2 {
        fill: url(#radial-gradient);
      }

      .cls-3 {
        fill: url(#linear-gradient-29);
      }

      .cls-4 {
        fill: url(#linear-gradient-30);
      }

      .cls-5 {
        fill: url(#linear-gradient-28);
      }

      .cls-6 {
        fill: url(#linear-gradient-25);
      }

      .cls-7 {
        fill: url(#linear-gradient-11);
      }

      .cls-8 {
        fill: url(#linear-gradient-12);
      }

      .cls-9 {
        fill: url(#linear-gradient-13);
      }

      .cls-10 {
        fill: url(#linear-gradient-10);
      }

      .cls-11 {
        fill: url(#linear-gradient-17);
      }

      .cls-12 {
        fill: url(#linear-gradient-16);
      }

      .cls-13 {
        fill: url(#linear-gradient-19);
      }

      .cls-14 {
        fill: url(#linear-gradient-15);
      }

      .cls-15 {
        fill: url(#linear-gradient-23);
      }

      .cls-16 {
        fill: url(#linear-gradient-21);
      }

      .cls-17 {
        fill: url(#linear-gradient-18);
      }

      .cls-18 {
        fill: url(#linear-gradient-14);
      }

      .cls-19 {
        fill: url(#linear-gradient-22);
      }

      .cls-20 {
        fill: url(#linear-gradient-20);
      }

      .cls-21 {
        fill: url(#linear-gradient-27);
      }

      .cls-22 {
        fill: url(#linear-gradient-24);
      }

      .cls-23 {
        fill: url(#linear-gradient-26);
      }

      .cls-24 {
        fill: url(#_ÂÁ_Ï_ÌÌ_È_ËÂÌÚ_1204-10);
      }

      .cls-25 {
        fill: url(#_ÂÁ_Ï_ÌÌ_È_ËÂÌÚ_146);
      }

      .cls-26 {
        fill: url(#_ÂÁ_Ï_ÌÌ_È_ËÂÌÚ_106);
      }

      .cls-27 {
        fill: url(#_ÂÁ_Ï_ÌÌ_È_ËÂÌÚ_70-2);
      }

      .cls-28 {
        fill: url(#_ÂÁ_Ï_ÌÌ_È_ËÂÌÚ_2141);
      }

      .cls-29 {
        fill: url(#_ÂÁ_Ï_ÌÌ_È_ËÂÌÚ_2143);
      }

      .cls-30 {
        fill: url(#_ÂÁ_Ï_ÌÌ_È_ËÂÌÚ_2144);
      }

      .cls-31 {
        fill: url(#_ÂÁ_Ï_ÌÌ_È_ËÂÌÚ_2146);
      }

      .cls-32 {
        fill: url(#_ÂÁ_Ï_ÌÌ_È_ËÂÌÚ_44-4);
      }

      .cls-33 {
        fill: url(#_ÂÁ_Ï_ÌÌ_È_ËÂÌÚ_44-2);
      }

      .cls-34 {
        fill: url(#_ÂÁ_Ï_ÌÌ_È_ËÂÌÚ_44-3);
      }

      .cls-35 {
        fill: url(#_ÂÁ_Ï_ÌÌ_È_ËÂÌÚ_42-2);
      }

      .cls-36 {
        fill: url(#_ÂÁ_Ï_ÌÌ_È_ËÂÌÚ_42-3);
      }

      .cls-37 {
        fill: url(#_ÂÁ_Ï_ÌÌ_È_ËÂÌÚ_42-5);
      }

      .cls-38 {
        fill: url(#_ÂÁ_Ï_ÌÌ_È_ËÂÌÚ_42-6);
      }

      .cls-39 {
        fill: url(#_ÂÁ_Ï_ÌÌ_È_ËÂÌÚ_42-4);
      }

      .cls-40 {
        fill: url(#_ÂÁ_Ï_ÌÌ_È_ËÂÌÚ_1655);
      }

      .cls-41 {
        fill: url(#_ÂÁ_Ï_ÌÌ_È_ËÂÌÚ_1049);
      }

      .cls-42 {
        fill: url(#_ÂÁ_Ï_ÌÌ_È_ËÂÌÚ_1061);
      }

      .cls-43 {
        fill: url(#_ÂÁ_Ï_ÌÌ_È_ËÂÌÚ_1050);
      }

      .cls-44 {
        fill: url(#_ÂÁ_Ï_ÌÌ_È_ËÂÌÚ_1048);
      }

      .cls-45 {
        fill: url(#_ÂÁ_Ï_ÌÌ_È_ËÂÌÚ_1047);
      }

      .cls-46 {
        fill: url(#_ÂÁ_Ï_ÌÌ_È_ËÂÌÚ_1204);
      }

      .cls-47 {
        fill: url(#_ÂÁ_Ï_ÌÌ_È_ËÂÌÚ_106-2);
      }

      .cls-48 {
        fill: url(#radial-gradient-2);
      }

      .cls-49 {
        fill: url(#linear-gradient-4);
      }

      .cls-50 {
        fill: url(#linear-gradient-2);
      }

      .cls-51 {
        fill: url(#linear-gradient-3);
      }

      .cls-52 {
        fill: url(#linear-gradient-8);
      }

      .cls-53 {
        fill: url(#linear-gradient-9);
      }

      .cls-54 {
        fill: url(#linear-gradient-7);
      }

      .cls-55 {
        fill: url(#linear-gradient-5);
      }

      .cls-56 {
        fill: url(#linear-gradient-6);
      }

      .cls-57 {
        fill: url(#_ÂÁ_Ï_ÌÌ_È_ËÂÌÚ_1061-2);
      }

      .cls-58 {
        fill: url(#_ÂÁ_Ï_ÌÌ_È_ËÂÌÚ_1061-3);
      }

      .cls-59 {
        fill: url(#_ÂÁ_Ï_ÌÌ_È_ËÂÌÚ_1204-7);
      }

      .cls-60 {
        fill: url(#_ÂÁ_Ï_ÌÌ_È_ËÂÌÚ_1204-9);
      }

      .cls-61 {
        fill: url(#_ÂÁ_Ï_ÌÌ_È_ËÂÌÚ_1204-2);
      }

      .cls-62 {
        fill: url(#_ÂÁ_Ï_ÌÌ_È_ËÂÌÚ_1204-4);
      }

      .cls-63 {
        fill: url(#_ÂÁ_Ï_ÌÌ_È_ËÂÌÚ_1204-3);
      }

      .cls-64 {
        fill: url(#_ÂÁ_Ï_ÌÌ_È_ËÂÌÚ_1204-6);
      }

      .cls-65 {
        fill: url(#_ÂÁ_Ï_ÌÌ_È_ËÂÌÚ_1204-5);
      }

      .cls-66 {
        fill: url(#_ÂÁ_Ï_ÌÌ_È_ËÂÌÚ_1204-8);
      }

      .cls-67 {
        fill: #f86d78;
      }

      .cls-68 {
        fill: #f6ece6;
      }

      .cls-69 {
        fill: #f7d4ab;
      }

      .cls-70 {
        fill: #961b27;
      }

      .cls-71 {
        fill: #1e1412;
      }

      .cls-72 {
        fill: #ddd;
      }

      .cls-73 {
        fill: #fff;
      }

      .cls-74 {
        fill: #ff9aa2;
      }

      .cls-75 {
        fill: #f0c499;
      }

      .cls-76 {
        fill: #00856e;
      }

      .cls-77 {
        fill: url(#_ÂÁ_Ï_ÌÌ_È_ËÂÌÚ_42);
      }

      .cls-78 {
        fill: url(#_ÂÁ_Ï_ÌÌ_È_ËÂÌÚ_34);
      }

      .cls-79 {
        fill: url(#_ÂÁ_Ï_ÌÌ_È_ËÂÌÚ_44);
      }

      .cls-80 {
        fill: url(#_ÂÁ_Ï_ÌÌ_È_ËÂÌÚ_70);
      }

      .cls-81 {
        fill: url(#_ÂÁ_Ï_ÌÌ_È_ËÂÌÚ_33);
      }

      .cls-82 {
        fill: url(#_ÂÁ_Ï_ÌÌ_È_ËÂÌÚ_2141-2);
      }
    </style>
    <linearGradient id="linear-gradient" x1="258.49" y1="522.6" x2="253.99" y2="383.15" gradientUnits="userSpaceOnUse">
      <stop offset="0" stop-color="#f0c499"/>
      <stop offset=".52" stop-color="#f1c69b"/>
      <stop offset=".85" stop-color="#f4cea4"/>
      <stop offset="1" stop-color="#f7d4ab"/>
    </linearGradient>
    <linearGradient id="linear-gradient-2" x1="158.45" y1="403.23" x2="158.51" y2="403.24" xlink:href="#linear-gradient"/>
    <linearGradient id="linear-gradient-3" x1="212.27" y1="343.61" x2="334.06" y2="378.12" xlink:href="#linear-gradient"/>
    <linearGradient id="linear-gradient-4" x1="245.02" y1="507.01" x2="258.08" y2="384.76" gradientUnits="userSpaceOnUse">
      <stop offset="0" stop-color="#f7d4ab"/>
      <stop offset=".52" stop-color="#f5d1a8"/>
      <stop offset=".85" stop-color="#f2c99f"/>
      <stop offset="1" stop-color="#f0c499"/>
    </linearGradient>
    <linearGradient id="_ÂÁ_Ï_ÌÌ_È_ËÂÌÚ_1204" data-name="¡ÂÁ˚ÏˇÌÌ˚È „‡‰ËÂÌÚ 1204" x1="188.45" y1="500.97" x2="201.51" y2="378.71" gradientUnits="userSpaceOnUse">
      <stop offset="0" stop-color="#dba379"/>
      <stop offset=".49" stop-color="#e3b086"/>
      <stop offset="1" stop-color="#f0c499"/>
    </linearGradient>
    <linearGradient id="_ÂÁ_Ï_ÌÌ_È_ËÂÌÚ_1204-2" data-name="¡ÂÁ˚ÏˇÌÌ˚È „‡‰ËÂÌÚ 1204" x1="53.26" y1="249.15" x2="296.07" y2="340.06" xlink:href="#_ÂÁ_Ï_ÌÌ_È_ËÂÌÚ_1204"/>
    <linearGradient id="linear-gradient-5" x1="102.96" y1="329.85" x2="111.38" y2="459.87" xlink:href="#linear-gradient-4"/>
    <linearGradient id="linear-gradient-6" x1="384.7" y1="325.94" x2="392.39" y2="444.84" xlink:href="#linear-gradient-4"/>
    <linearGradient id="_ÂÁ_Ï_ÌÌ_È_ËÂÌÚ_146" data-name="¡ÂÁ˚ÏˇÌÌ˚È „‡‰ËÂÌÚ 146" x1="310.85" y1="469.66" x2="238.29" y2="370.15" gradientUnits="userSpaceOnUse">
      <stop offset="0" stop-color="#f7d4ab"/>
      <stop offset=".15" stop-color="#f4cea4"/>
      <stop offset=".48" stop-color="#f1c69b"/>
      <stop offset="1" stop-color="#f0c499"/>
    </linearGradient>
    <linearGradient id="_ÂÁ_Ï_ÌÌ_È_ËÂÌÚ_1204-3" data-name="¡ÂÁ˚ÏˇÌÌ˚È „‡‰ËÂÌÚ 1204" x1="368.71" y1="395.61" x2="287.73" y2="398.22" xlink:href="#_ÂÁ_Ï_ÌÌ_È_ËÂÌÚ_1204"/>
    <linearGradient id="linear-gradient-7" x1="157.18" y1="487.47" x2="159.5" y2="568.81" gradientUnits="userSpaceOnUse">
      <stop offset="0" stop-color="#dba379"/>
      <stop offset=".49" stop-color="#e3b086"/>
      <stop offset="1" stop-color="#f0c499"/>
    </linearGradient>
    <linearGradient id="linear-gradient-8" x1="349.23" y1="483.69" x2="351.52" y2="563.84" xlink:href="#linear-gradient-7"/>
    <linearGradient id="_ÂÁ_Ï_ÌÌ_È_ËÂÌÚ_34" data-name="¡ÂÁ˚ÏˇÌÌ˚È „‡‰ËÂÌÚ 34" x1="245.47" y1="122.67" x2="245.15" y2="341.03" gradientUnits="userSpaceOnUse">
      <stop offset="0" stop-color="#ffd9b3"/>
      <stop offset=".32" stop-color="#f9d5ad"/>
      <stop offset="1" stop-color="#f7d4ab"/>
    </linearGradient>
    <linearGradient id="linear-gradient-9" x1="205.22" y1="262.28" x2="194.93" y2="198.56" xlink:href="#linear-gradient-4"/>
    <radialGradient id="_ÂÁ_Ï_ÌÌ_È_ËÂÌÚ_1048" data-name="¡ÂÁ˚ÏˇÌÌ˚È „‡‰ËÂÌÚ 1048" cx="191.5" cy="-1374.6" fx="191.5" fy="-1374.6" r="41.87" gradientTransform="translate(0 1943.86) scale(1 1.22)" gradientUnits="userSpaceOnUse">
      <stop offset="0" stop-color="#f9b38e"/>
      <stop offset=".48" stop-color="#f7c59e"/>
      <stop offset=".8" stop-color="#f7d4ab"/>
    </radialGradient>
    <linearGradient id="linear-gradient-10" x1="224.18" y1="318.77" x2="261.26" y2="318.77" gradientUnits="userSpaceOnUse">
      <stop offset="0" stop-color="#ffd9b3"/>
      <stop offset=".68" stop-color="#fcd7b0"/>
      <stop offset="1" stop-color="#f7d4ab"/>
    </linearGradient>
    <linearGradient id="_ÂÁ_Ï_ÌÌ_È_ËÂÌÚ_33" data-name="¡ÂÁ˚ÏˇÌÌ˚È „‡‰ËÂÌÚ 33" x1="307.96" y1="131.88" x2="204.25" y2="216.69" gradientUnits="userSpaceOnUse">
      <stop offset="0" stop-color="#f7d4ab"/>
      <stop offset=".97" stop-color="#f0c499"/>
      <stop offset="1" stop-color="#f0c499"/>
    </linearGradient>
    <linearGradient id="linear-gradient-11" x1="294.09" y1="252.76" x2="284.68" y2="200.59" xlink:href="#linear-gradient-4"/>
    <radialGradient id="_ÂÁ_Ï_ÌÌ_È_ËÂÌÚ_1047" data-name="¡ÂÁ˚ÏˇÌÌ˚È „‡‰ËÂÌÚ 1047" cx="298.08" cy="-1511.72" fx="298.08" fy="-1511.72" r="41.87" gradientTransform="translate(0 2146.31) scale(1 1.24)" gradientUnits="userSpaceOnUse">
      <stop offset="0" stop-color="#f9b38e"/>
      <stop offset=".44" stop-color="#f7c59e"/>
      <stop offset=".72" stop-color="#f7d4ab"/>
    </radialGradient>
    <linearGradient id="_ÂÁ_Ï_ÌÌ_È_ËÂÌÚ_2143" data-name="¡ÂÁ˚ÏˇÌÌ˚È „‡‰ËÂÌÚ 2143" x1="169.85" y1="319.82" x2="169.06" y2="178.07" gradientUnits="userSpaceOnUse">
      <stop offset="0" stop-color="#f9b38e"/>
      <stop offset="1" stop-color="#f0c499"/>
    </linearGradient>
    <linearGradient id="_ÂÁ_Ï_ÌÌ_È_ËÂÌÚ_2144" data-name="¡ÂÁ˚ÏˇÌÌ˚È „‡‰ËÂÌÚ 2144" x1="325.03" y1="318.95" x2="324.24" y2="177.2" gradientUnits="userSpaceOnUse">
      <stop offset="0" stop-color="#f9b38e"/>
      <stop offset="1" stop-color="#f0c499"/>
    </linearGradient>
    <linearGradient id="_ÂÁ_Ï_ÌÌ_È_ËÂÌÚ_1204-4" data-name="¡ÂÁ˚ÏˇÌÌ˚È „‡‰ËÂÌÚ 1204" x1="245.65" y1="319.69" x2="242.35" y2="367.67" xlink:href="#_ÂÁ_Ï_ÌÌ_È_ËÂÌÚ_1204"/>
    <linearGradient id="_ÂÁ_Ï_ÌÌ_È_ËÂÌÚ_44" data-name="¡ÂÁ˚ÏˇÌÌ˚È „‡‰ËÂÌÚ 44" x1="269.24" y1="196.18" x2="324.15" y2="196.18" gradientUnits="userSpaceOnUse">
      <stop offset="0" stop-color="#38221e"/>
      <stop offset=".77" stop-color="#291915"/>
    </linearGradient>
    <linearGradient id="_ÂÁ_Ï_ÌÌ_È_ËÂÌÚ_44-2" data-name="¡ÂÁ˚ÏˇÌÌ˚È „‡‰ËÂÌÚ 44" x1="166.24" y1="196.18" x2="221.15" y2="196.18" xlink:href="#_ÂÁ_Ï_ÌÌ_È_ËÂÌÚ_44"/>
    <linearGradient id="_ÂÁ_Ï_ÌÌ_È_ËÂÌÚ_1204-5" data-name="¡ÂÁ˚ÏˇÌÌ˚È „‡‰ËÂÌÚ 1204" x1="157.61" y1="267.85" x2="201.94" y2="267.85" xlink:href="#_ÂÁ_Ï_ÌÌ_È_ËÂÌÚ_1204"/>
    <linearGradient id="_ÂÁ_Ï_ÌÌ_È_ËÂÌÚ_1204-6" data-name="¡ÂÁ˚ÏˇÌÌ˚È „‡‰ËÂÌÚ 1204" x1="290.38" y1="268.18" x2="335.38" y2="268.18" xlink:href="#_ÂÁ_Ï_ÌÌ_È_ËÂÌÚ_1204"/>
    <linearGradient id="_ÂÁ_Ï_ÌÌ_È_ËÂÌÚ_106" data-name="¡ÂÁ˚ÏˇÌÌ˚È „‡‰ËÂÌÚ 106" x1="246.63" y1="317.16" x2="246.98" y2="290.86" gradientUnits="userSpaceOnUse">
      <stop offset="0" stop-color="#f7d4ab"/>
      <stop offset="1" stop-color="#ffd9b3"/>
    </linearGradient>
    <linearGradient id="linear-gradient-12" x1="247.9" y1="282.64" x2="244.78" y2="267.06" xlink:href="#linear-gradient-4"/>
    <linearGradient id="linear-gradient-13" x1="245.45" y1="265.82" x2="245.36" y2="278.05" xlink:href="#linear-gradient-7"/>
    <linearGradient id="_ÂÁ_Ï_ÌÌ_È_ËÂÌÚ_106-2" data-name="¡ÂÁ˚ÏˇÌÌ˚È „‡‰ËÂÌÚ 106" x1="244.7" y1="249.17" x2="244.87" y2="261.72" xlink:href="#_ÂÁ_Ï_ÌÌ_È_ËÂÌÚ_106"/>
    <linearGradient id="_ÂÁ_Ï_ÌÌ_È_ËÂÌÚ_1204-7" data-name="¡ÂÁ˚ÏˇÌÌ˚È „‡‰ËÂÌÚ 1204" x1="314.05" y1="216.64" x2="265.93" y2="235.33" xlink:href="#_ÂÁ_Ï_ÌÌ_È_ËÂÌÚ_1204"/>
    <linearGradient id="linear-gradient-14" x1="267.41" y1="227.58" x2="281.2" y2="227.58" gradientUnits="userSpaceOnUse">
      <stop offset="0" stop-color="#fff"/>
      <stop offset=".47" stop-color="#fcfcfc"/>
      <stop offset=".77" stop-color="#f5f3f3"/>
      <stop offset="1" stop-color="#ece7e7"/>
    </linearGradient>
    <linearGradient id="linear-gradient-15" x1="298.62" y1="226.02" x2="310.85" y2="226.02" xlink:href="#linear-gradient-14"/>
    <linearGradient id="linear-gradient-16" x1="307.22" y1="239.19" x2="273.46" y2="218.09" gradientUnits="userSpaceOnUse">
      <stop offset="0" stop-color="#b89c8c"/>
      <stop offset="1" stop-color="#715241"/>
    </linearGradient>
    <linearGradient id="linear-gradient-17" x1="336.32" y1="227.64" x2="291.15" y2="222.28" xlink:href="#linear-gradient-16"/>
    <radialGradient id="radial-gradient" cx="287.12" cy="228.49" fx="287.12" fy="228.49" r="10.12" gradientUnits="userSpaceOnUse">
      <stop offset="0" stop-color="#2a3a3b"/>
      <stop offset="1" stop-color="#1c2727"/>
    </radialGradient>
    <linearGradient id="_ÂÁ_Ï_ÌÌ_È_ËÂÌÚ_1655" data-name="¡ÂÁ˚ÏˇÌÌ˚È „‡‰ËÂÌÚ 1655" x1="267.38" y1="225.06" x2="319.42" y2="225.06" gradientUnits="userSpaceOnUse">
      <stop offset="0" stop-color="#4d322e"/>
      <stop offset=".06" stop-color="#4a302c"/>
      <stop offset=".55" stop-color="#3d2622"/>
      <stop offset="1" stop-color="#39231f"/>
    </linearGradient>
    <linearGradient id="_ÂÁ_Ï_ÌÌ_È_ËÂÌÚ_1204-8" data-name="¡ÂÁ˚ÏˇÌÌ˚È „‡‰ËÂÌÚ 1204" x1="291.14" y1="214.45" x2="250.58" y2="266.07" xlink:href="#_ÂÁ_Ï_ÌÌ_È_ËÂÌÚ_1204"/>
    <linearGradient id="_ÂÁ_Ï_ÌÌ_È_ËÂÌÚ_44-3" data-name="¡ÂÁ˚ÏˇÌÌ˚È „‡‰ËÂÌÚ 44" x1="267.71" y1="226.61" x2="311.3" y2="226.61" xlink:href="#_ÂÁ_Ï_ÌÌ_È_ËÂÌÚ_44"/>
    <linearGradient id="_ÂÁ_Ï_ÌÌ_È_ËÂÌÚ_1204-9" data-name="¡ÂÁ˚ÏˇÌÌ˚È „‡‰ËÂÌÚ 1204" x1="304.6" y1="228.77" x2="270.14" y2="242.15" xlink:href="#_ÂÁ_Ï_ÌÌ_È_ËÂÌÚ_1204"/>
    <linearGradient id="_ÂÁ_Ï_ÌÌ_È_ËÂÌÚ_1061" data-name="¡ÂÁ˚ÏˇÌÌ˚È „‡‰ËÂÌÚ 1061" x1="221.18" y1="218.65" x2="180.94" y2="234.28" gradientUnits="userSpaceOnUse">
      <stop offset="0" stop-color="#f0c499"/>
      <stop offset=".51" stop-color="#e3b086"/>
      <stop offset="1" stop-color="#dba379"/>
    </linearGradient>
    <linearGradient id="linear-gradient-18" x1="211.12" x2="224.91" xlink:href="#linear-gradient-14"/>
    <linearGradient id="linear-gradient-19" x1="184.96" y1="226.02" x2="197.19" y2="226.02" xlink:href="#linear-gradient-14"/>
    <linearGradient id="_ÂÁ_Ï_ÌÌ_È_ËÂÌÚ_1050" data-name="¡ÂÁ˚ÏˇÌÌ˚È „‡‰ËÂÌÚ 1050" x1="220.32" y1="241.12" x2="184.26" y2="218.58" gradientUnits="userSpaceOnUse">
      <stop offset="0" stop-color="#b89c8c"/>
      <stop offset="1" stop-color="#715241"/>
    </linearGradient>
    <linearGradient id="_ÂÁ_Ï_ÌÌ_È_ËÂÌÚ_2146" data-name="¡ÂÁ˚ÏˇÌÌ˚È „‡‰ËÂÌÚ 2146" x1="202.02" y1="221.96" x2="222.46" y2="249.1" gradientUnits="userSpaceOnUse">
      <stop offset="0" stop-color="#715241"/>
      <stop offset="1" stop-color="#b89c8c"/>
    </linearGradient>
    <radialGradient id="radial-gradient-2" cx="200.9" fx="200.9" r="10.12" xlink:href="#radial-gradient"/>
    <linearGradient id="_ÂÁ_Ï_ÌÌ_È_ËÂÌÚ_1049" data-name="¡ÂÁ˚ÏˇÌÌ˚È „‡‰ËÂÌÚ 1049" x1="172.93" y1="225.06" x2="224.96" y2="225.06" gradientUnits="userSpaceOnUse">
      <stop offset="0" stop-color="#39231f"/>
      <stop offset=".45" stop-color="#3d2622"/>
      <stop offset=".94" stop-color="#4a302c"/>
      <stop offset="1" stop-color="#4d322e"/>
    </linearGradient>
    <linearGradient id="_ÂÁ_Ï_ÌÌ_È_ËÂÌÚ_1204-10" data-name="¡ÂÁ˚ÏˇÌÌ˚È „‡‰ËÂÌÚ 1204" x1="206.35" y1="215.25" x2="183.32" y2="244.55" xlink:href="#_ÂÁ_Ï_ÌÌ_È_ËÂÌÚ_1204"/>
    <linearGradient id="_ÂÁ_Ï_ÌÌ_È_ËÂÌÚ_44-4" data-name="¡ÂÁ˚ÏˇÌÌ˚È „‡‰ËÂÌÚ 44" x1="181.63" y1="226.61" x2="225.22" y2="226.61" xlink:href="#_ÂÁ_Ï_ÌÌ_È_ËÂÌÚ_44"/>
    <linearGradient id="_ÂÁ_Ï_ÌÌ_È_ËÂÌÚ_1061-2" data-name="¡ÂÁ˚ÏˇÌÌ˚È „‡‰ËÂÌÚ 1061" x1="221.93" y1="228.6" x2="188.05" y2="241.76" xlink:href="#_ÂÁ_Ï_ÌÌ_È_ËÂÌÚ_1061"/>
    <linearGradient id="_ÂÁ_Ï_ÌÌ_È_ËÂÌÚ_1061-3" data-name="¡ÂÁ˚ÏˇÌÌ˚È „‡‰ËÂÌÚ 1061" x1="198.91" y1="284.6" x2="220.62" y2="284.6" xlink:href="#_ÂÁ_Ï_ÌÌ_È_ËÂÌÚ_1061"/>
    <linearGradient id="linear-gradient-20" x1="271.39" y1="284.61" x2="292.95" y2="284.61" xlink:href="#linear-gradient-7"/>
    <linearGradient id="linear-gradient-21" x1="246.16" y1="285.03" x2="246.04" y2="290.77" gradientUnits="userSpaceOnUse">
      <stop offset="0" stop-color="#f96e7e"/>
      <stop offset=".03" stop-color="#f9707f"/>
      <stop offset=".25" stop-color="#fd7985"/>
      <stop offset=".53" stop-color="#ff7d88"/>
      <stop offset=".76" stop-color="#fd7985"/>
      <stop offset="1" stop-color="#f86d7d"/>
      <stop offset="1" stop-color="#f86d7d"/>
    </linearGradient>
    <linearGradient id="linear-gradient-22" x1="219.99" y1="298.14" x2="272.84" y2="298.14" xlink:href="#linear-gradient-7"/>
    <linearGradient id="linear-gradient-23" x1="244.29" y1="303.97" x2="245.62" y2="292.38" xlink:href="#linear-gradient-21"/>
    <linearGradient id="linear-gradient-24" x1="220.19" y1="160.3" x2="220.18" y2="166.81" gradientUnits="userSpaceOnUse">
      <stop offset="0" stop-color="#3c2a25"/>
      <stop offset=".16" stop-color="#352520"/>
      <stop offset=".54" stop-color="#2b1d1a"/>
      <stop offset="1" stop-color="#281b18"/>
    </linearGradient>
    <linearGradient id="linear-gradient-25" x1="244.61" y1="156.07" x2="244.61" y2="159.2" xlink:href="#linear-gradient-24"/>
    <linearGradient id="linear-gradient-26" x1="246.09" y1="73.59" x2="245.58" y2="340.11" xlink:href="#linear-gradient-24"/>
    <linearGradient id="linear-gradient-27" x1="349.78" y1="315.26" x2="308.75" y2="150.63" xlink:href="#linear-gradient-24"/>
    <linearGradient id="linear-gradient-28" x1="191.61" y1="153.97" x2="173.15" y2="216.51" xlink:href="#linear-gradient-24"/>
    <linearGradient id="linear-gradient-29" x1="307.2" y1="331.45" x2="264.71" y2="160.91" xlink:href="#linear-gradient-24"/>
    <linearGradient id="_ÂÁ_Ï_ÌÌ_È_ËÂÌÚ_42" data-name="¡ÂÁ˚ÏˇÌÌ˚È „‡‰ËÂÌÚ 42" x1="225.36" y1="205.97" x2="288.67" y2="92.09" gradientUnits="userSpaceOnUse">
      <stop offset="0" stop-color="#281b18"/>
      <stop offset=".46" stop-color="#2b1d1a"/>
      <stop offset=".84" stop-color="#352520"/>
      <stop offset="1" stop-color="#3c2a25"/>
    </linearGradient>
    <linearGradient id="_ÂÁ_Ï_ÌÌ_È_ËÂÌÚ_42-2" data-name="¡ÂÁ˚ÏˇÌÌ˚È „‡‰ËÂÌÚ 42" x1="207.72" y1="201.27" x2="262.53" y2="102.68" xlink:href="#_ÂÁ_Ï_ÌÌ_È_ËÂÌÚ_42"/>
    <linearGradient id="_ÂÁ_Ï_ÌÌ_È_ËÂÌÚ_42-3" data-name="¡ÂÁ˚ÏˇÌÌ˚È „‡‰ËÂÌÚ 42" x1="189.88" y1="194.72" x2="250.63" y2="85.45" xlink:href="#_ÂÁ_Ï_ÌÌ_È_ËÂÌÚ_42"/>
    <linearGradient id="_ÂÁ_Ï_ÌÌ_È_ËÂÌÚ_42-4" data-name="¡ÂÁ˚ÏˇÌÌ˚È „‡‰ËÂÌÚ 42" x1="185.32" y1="180.14" x2="248.15" y2="67.12" xlink:href="#_ÂÁ_Ï_ÌÌ_È_ËÂÌÚ_42"/>
    <linearGradient id="_ÂÁ_Ï_ÌÌ_È_ËÂÌÚ_42-5" data-name="¡ÂÁ˚ÏˇÌÌ˚È „‡‰ËÂÌÚ 42" x1="217.89" y1="296.09" x2="200.1" y2="118.97" xlink:href="#_ÂÁ_Ï_ÌÌ_È_ËÂÌÚ_42"/>
    <linearGradient id="_ÂÁ_Ï_ÌÌ_È_ËÂÌÚ_70" data-name="¡ÂÁ˚ÏˇÌÌ˚È „‡‰ËÂÌÚ 70" x1="211.07" y1="79.84" x2="204.13" y2="141.66" gradientUnits="userSpaceOnUse">
      <stop offset="0" stop-color="#4c3633"/>
      <stop offset=".5" stop-color="#402d28"/>
      <stop offset="1" stop-color="#3c2a25"/>
    </linearGradient>
    <linearGradient id="_ÂÁ_Ï_ÌÌ_È_ËÂÌÚ_42-6" data-name="¡ÂÁ˚ÏˇÌÌ˚È „‡‰ËÂÌÚ 42" x1="335.8" y1="278.41" x2="323.87" y2="131.85" xlink:href="#_ÂÁ_Ï_ÌÌ_È_ËÂÌÚ_42"/>
    <linearGradient id="_ÂÁ_Ï_ÌÌ_È_ËÂÌÚ_70-2" data-name="¡ÂÁ˚ÏˇÌÌ˚È „‡‰ËÂÌÚ 70" x1="329.93" y1="89.84" x2="323.95" y2="143.19" xlink:href="#_ÂÁ_Ï_ÌÌ_È_ËÂÌÚ_70"/>
    <linearGradient id="linear-gradient-30" x1="338.96" y1="317.95" x2="297.94" y2="153.33" xlink:href="#linear-gradient-24"/>
    <linearGradient id="_ÂÁ_Ï_ÌÌ_È_ËÂÌÚ_2141" data-name="¡ÂÁ˚ÏˇÌÌ˚È „‡‰ËÂÌÚ 2141" x1="163.44" y1="335.98" x2="139" y2="222.69" gradientUnits="userSpaceOnUse">
      <stop offset="0" stop-color="#3c2a25"/>
      <stop offset=".81" stop-color="#2c1e1a"/>
      <stop offset="1" stop-color="#281b18"/>
    </linearGradient>
    <linearGradient id="_ÂÁ_Ï_ÌÌ_È_ËÂÌÚ_2141-2" data-name="¡ÂÁ˚ÏˇÌÌ˚È „‡‰ËÂÌÚ 2141" x1="332.54" y1="329.59" x2="312.28" y2="235.7" xlink:href="#_ÂÁ_Ï_ÌÌ_È_ËÂÌÚ_2141"/>
  </defs>
  <g id="Layer_1-2" data-name="Layer 1">
    <g>
      <ellipse class="cls-68" cx="246.75" cy="249.87" rx="246.75" ry="249.87"/>
      <path class="cls-71" d="m150.22,194.78c-23.52,84.37,41.75,134.25,41.75,134.25l112.97-1.17s45.38-24.29,48.39-147.04c1.22-49.7-188.91-36.96-203.11,13.97Z"/>
      <path class="cls-69" d="m417.24,430.5c-1.52-4.96-3.19-9.64-5.05-13.9-11.28-25.82-37.91-28.43-41.88-28.82-13.91-1.34-69.54.53-75.34-18.04-7.22-23.11-7.13-78.03-7.13-78.03l-86.06-3.22c9.77,16.28,10.66,76.5-5.43,89.61-12.37,10.08-41.21,10.99-61.27,13.21-10.97,1.21-43.31,6.89-52.27,39.72-.4,1.48-.78,3-1.14,4.54,43.73,39.89,101.61,64.17,165.09,64.17s126.18-26.35,170.49-69.23Z"/>
      <path class="cls-1" d="m373.07,387.84s-5.34-.79-10.92-.53c-9.75,27.91-90.77,50.54-119.24,50.53-38.32,0-92.11-20.3-100.74-47.34-6.87.81-6.85.68-6.85.68,0,0,7.26,66.13,47.46,100.05,20.4,5.53,41.84,8.5,63.97,8.5,14.84,0,29.37-1.33,43.49-3.87,55.69-32.76,82.82-108.02,82.82-108.02Z"/>
      <path class="cls-50" d="m158.54,402.95c-.31.65-.05.88,0,0h0Z"/>
      <path class="cls-51" d="m301.32,367.91c-1.99-2.58-12.99-14.89-10.88-76.7-1.18,1.45-90.37,3.66-90.37,3.66,0,0,10.14,53.93,0,71.06-12.62,21.32-44.9,24.06-44.9,24.06,3.09,8.08,3.44,11.68,3.37,12.96.37-.8,1.6-2.22,5.11-2.93,40.04-8.15,52.44-28.98,52.44-28.98,50.29,2.29,62.51-15.78,62.51-15.78-5.15,30.17,35.83,35.77,53.02,39.07,18.3,3.52,34.87-6.82,34.87-6.82-46.1-3.93-60.24-13.21-65.17-19.6Z"/>
      <path class="cls-49" d="m244.91,409.77s15.96,2.83,20.16,7.77c0,0-4.62-12.72-20.16-7.77Z"/>
      <path class="cls-46" d="m231.72,395.15c-7.65-2.57-66.04-6.19-76.55-5.16,0,0,73.69,7.39,88.5,16.58,0,0-4.3-8.85-11.94-11.42Z"/>
      <path class="cls-61" d="m197.67,281.22c1.56,8.36,6.9,64.7,6.9,64.7,54.78,41.65,85.81-21.81,85.81-21.81l-.27-30.15-92.44-12.74Z"/>
      <path class="cls-55" d="m95.91,408.26c6.82,10.29,11.48,31.81,14.6,49.95,4.38,2.95,8.86,5.77,13.43,8.43-6.39-39.46-17.87-66.62-17.87-66.62-4.52,1.15-10.16,8.24-10.16,8.24Z"/>
      <path class="cls-56" d="m397.2,397s-10.37,29.22-17.6,63.47c3.39-2.2,6.73-4.48,10.01-6.84,3.31-20.35,8.05-43.11,13.9-50.3l-6.31-6.33Z"/>
      <path class="cls-25" d="m253.03,419.6c-84.23.84-96.92-31.26-96.92-31.26l-19.9,3.38s22.92,67.9,112.95,66.26c90.02-1.64,123.87-69.59,123.87-69.59l-27.75-3.37s-.12,33.66-92.24,34.57Z"/>
      <path class="cls-63" d="m265.61,406.67c13.85-10.79,27.71-7.71,45.39-9.77,17.67-2.05,48.25-8.73,48.25-8.73-8.05,1.57-76.76,3.87-82.97,5.42-6.21,1.54-10.67,13.08-10.67,13.08Z"/>
      <path class="cls-76" d="m347.74,384.72c2.21,18.86-38.33,40.48-108.69,37.62-61.96-2.52-76.64-14.52-84.45-34.08-37.86,0-55.49,14.22-55.49,14.22,7.87,14.02,13.23,39.29,16.61,59.14,37.97,24.15,82.89,38.13,131.04,38.13,50.94,0,98.26-15.63,137.57-42.41,7.01-46.92,15.29-59.52,15.29-59.52,0,0-15.89-14.49-51.88-13.08Z"/>
      <path class="cls-75" d="m150.79,212.84c-16.69.95-12.36,18.73-5.03,35.31,4.8,10.85,9.3,23.15,21.58,23.15,0,0-3.17-21.84-6.94-50.55,0,0-6.35-8.1-9.6-7.91Z"/>
      <path class="cls-54" d="m154.02,242.78c4.39-29.52-15.61-31.54-11.07-11.39,0,0,2.76-9.5,5.3-6.66,3.11,3.49-3.34,5.41-.04,20.65,1.71,7.92,9.96,16.27,9.96,16.27,0,0-6.01-6.36-4.15-18.86Z"/>
      <path class="cls-75" d="m341.8,212.84c-3.25-.19-9.6,7.91-9.6,7.91-3.78,28.71-6.94,50.55-6.94,50.55,12.28,0,16.78-12.31,21.58-23.15,7.33-16.58,11.66-34.36-5.03-35.31Z"/>
      <path class="cls-52" d="m338.57,242.78c1.87,12.51-4.15,18.86-4.15,18.86,0,0,8.25-8.35,9.96-16.27,3.29-15.24-3.15-17.16-.04-20.65,2.53-2.84,5.3,6.66,5.3,6.66,4.54-20.14-15.46-18.12-11.07,11.39Z"/>
      <path class="cls-78" d="m257.76,90.42s-84.9,11.08-95.6,35.53c-11.65,26.63-8.32,64.03-4.99,88.5,3.33,24.47,9.99,64.14,16.09,75.37,6.1,11.23,36.98,35.25,43.63,40.24,6.23,4.67,14.21,12.58,29.65,12.58,13.73,0,24.57-8.34,30.64-13.1,6.55-5.13,36.23-29.66,42.34-40.89,6.1-11.23,12.88-49.73,16.2-74.2,3.33-24.47-1.96-55.44-13.61-82.07-10.7-24.45-27.19-39.6-64.35-41.96Z"/>
      <path class="cls-53" d="m198.61,191.95c-12.18-.78-23.57,2.26-29.74,7.07-14.37,11.22-3.84,40.17-3.84,40.17,0,0,28.09,31.85,75.79,12.28-3.81-20.85-3.21-57.05-42.21-59.52Z"/>
      <path class="cls-44" d="m211.2,225.18c-10.94-3.28-53.35-12.19-51.33,1.89,4.47,31.14,8.54,52.55,13.96,62.25,5.67,10.16,22.35,26.14,29.55,27.36,11.14,1.89,22.96-39.12,23.22-53.17.37-19.67-4.45-35.05-15.39-38.32Z"/>
      <path class="cls-10" d="m247.1,313.15c-7.81.37-14.09,3.18-14.05,6.27.04,3.1,6.39,5.33,14.19,4.97,7.8-.37,14.07-3.17,14.04-6.28-.05-3.1-6.41-5.33-14.18-4.96Z"/>
      <path class="cls-81" d="m238.92,98.15c-110.59,6.8-71.43,104.92-71.43,104.92,0,0,86.71,10.05,119-34.69,0,0,6.89,1.5,45.88,61.76,0,0,1.05-3.79,2.05-8.81,5.82-29.14,12.03-129.8-95.51-123.18Z"/>
      <path class="cls-7" d="m320.06,199.39c-6.21-4.65-13.79-8.79-25.95-7.61-38.98,3.78-38.39,36.99-42.03,58.11,47.84,18.12,75.68-14.88,75.68-14.88,0,0,6.77-24.8-7.69-35.62Z"/>
      <path class="cls-45" d="m281.79,225.18c-10.94,3.27-15.76,18.65-15.39,38.32.27,14.05,12.08,55.07,23.22,53.17,7.2-1.21,23.88-17.2,29.55-27.36,5.41-9.69,9.48-31.1,13.96-62.25,2.02-14.08-40.39-5.17-51.33-1.89Z"/>
      <path class="cls-29" d="m157.61,217.55c3.55,41.37,20.35,72.66,20.35,72.66-14.84-81.28,3.05-113.41,3.05-113.41,0,0-26.95-.62-23.4,40.75Z"/>
      <path class="cls-30" d="m312.47,176.8s17.89,32.13,3.05,113.41c0,0,16.8-31.29,20.35-72.66,3.55-41.37-23.4-40.75-23.4-40.75Z"/>
      <path class="cls-62" d="m246.25,342.25c-11.82-.39-16.48-3.75-21.03-6.32-2.28-1.29-25.07-19.19-25.07-19.19,0,0,17.66,18.95,25.07,23.13,6.8,3.84,13.31,8.71,21.24,8.71,6.3,0,16.38-3.74,24.94-10.8,5.25-4.33,20.12-20.18,20.12-20.18-1.65,1.58-20.08,15.8-23.48,18.08-3.24,2.17-10.27,6.96-21.79,6.58Z"/>
      <path class="cls-79" d="m276.41,191.05c-2.66.74-4.44,3.99-4.8,8.09-.69-2.59.14-5.55,1.45-6.96-4.74,2.66-5.32,9.85-.35,9.14,5.65-.81,27.57-2.12,31.93-2.04,3.3.05,17.23.8,19.5,2.96,0,0-10.42-8.67-17.6-10.83-6.59-1.99-24.56-1.25-30.15-.35Z"/>
      <path class="cls-33" d="m217.33,192.17c1.32,1.41,2.15,4.37,1.46,6.96-.36-4.1-2.14-7.34-4.8-8.09-5.59-.9-23.55-1.64-30.15.35-7.18,2.16-17.6,10.83-17.6,10.83,2.28-2.16,16.2-2.9,19.51-2.96,4.36-.07,26.29,1.23,31.93,2.04,4.96.71,4.39-6.48-.35-9.14Z"/>
      <path class="cls-65" d="m175.59,284.3c-6.05-15.51-17.98-66.75-17.98-66.75,0,0,8.36,55.38,14.71,71.52,2.24,5.7,16.09,18.78,29.62,29.08,0,0-19.32-15.79-26.36-33.85Z"/>
      <path class="cls-64" d="m290.38,318.8c15.67-12.61,30.15-26.11,32.13-32.36,5.8-18.27,12.87-68.9,12.87-68.9,0,0-11.29,51.51-17.98,66.75-6.26,14.27-27.02,34.5-27.02,34.5Z"/>
      <path class="cls-26" d="m245.8,283.43c-1.7-.22-5.14-.65-6.54-.77-1.4-.12-25.22.77-25.22.77,0,0,20.84,3.56,32.72,4.3,11.88.74,33.37-4.38,33.37-4.38,0,0-24.04-.57-25.36-.68-1.32-.12-7.27.99-8.97.77Z"/>
      <g>
        <polygon class="cls-8" points="244.96 267.8 230.73 267.8 229.13 269.82 245.81 281.3 261.48 269.49 259.25 267.62 244.96 267.8"/>
        <path class="cls-9" d="m244.96,268.19l-10.41-2.87-5.43.63.5,3.57s6.32-1.96,11.87.38h6.79s6.74-2.6,13.2-.41l.28-3.08-5.41-1.09-11.39,2.87Z"/>
        <path class="cls-75" d="m261.28,256.3s2.5,4.17,1.44,6.83c-1.06,2.66-8.17.36-11.08,2.19-5.36,3.36-8.61,2.53-13.94,0-3.5-1.66-8.42.42-10.39-2.46-.68-1-.85-4.57.14-6.56,0,0-2.94,1.64-3.38,6.11-.51,5.12,4.79,7.91,5.6,7.38s-.67-4.39,4.21-3.71c4.88.69,4.63,3.15,5.43,3.99.79.84,9.39,1.04,10.84.13,1.45-.91,1.06-4.26,5.68-4.12,4.62.15,4.75,3.3,5.41,3.71.66.41,3.4-2.05,4.19-6.75.79-4.69-4.15-6.74-4.15-6.74Z"/>
        <path class="cls-47" d="m233.95,253.99c-.09,3.26.3,4.65,1.69,6.78,2.12,3.25,17.03,5.9,19.59-1.55.51-1.48.49-3.81.23-6.74-.3-3.35-21.41-1.75-21.5,1.51Z"/>
      </g>
      <g>
        <g>
          <path class="cls-59" d="m293.25,210.6c-26.08,2.28-26.09,17.94-26.64,25.88,2.01.27,4.12.47,8.1,1.32,5.38,1.16,11.35,1.92,20.19,1.06,6.96-.67,20.87-3.79,20.99-18.83.06-7.19-16.29-9.45-22.64-9.42Z"/>
          <path class="cls-18" d="m275.99,228.45c-.15-4.07,2.55-8.76,4.97-11.43-8.76,6.26-13.25,18.46-13.25,18.46,5.77.31,9.74,1.93,13.79,2.66-3.33-2.57-5.33-4.98-5.51-9.68Z"/>
          <path class="cls-72" d="m267.71,235.48c1.74-3.9,4.81-6,8.41-8.34.29-3.21,1.84-6.16,4.23-8.36-12.63,4.85-12.63,16.69-12.63,16.69Z"/>
          <path class="cls-14" d="m302.22,227.5c.18,4.89-2.12,8.16-5.48,10.83,15.06-3.31,18.33-15.78,18.33-15.78-10.1-6.99-17.08-8.84-23.55-8.85,5.9,1.43,10.45,7.02,10.7,13.79Z"/>
          <path class="cls-72" d="m302.81,224.44c5.87,1.36,9.67,2.69,9.67,2.69l1.88-5.17c-4.12-4.38-11.33-5.09-18.21-5.76,3.07,1.37,5.37,5.19,6.66,8.23Z"/>
          <path class="cls-12" d="m276.06,226.81c-.06.59-.07,1.01-.07,1.64.05,4.56,2.06,7.23,5.51,9.68,1.12.43,10.84,1.54,16.6.06,3.53-2.63,5.97-5.8,5.84-10.54-.07-2.47-.78-4.78-1.97-6.76-7.63-1.91-17.38-1-25.91,5.92Z"/>
          <path class="cls-11" d="m296.15,216.21c-4.16-.4-8.41-.08-12.28,1.02-1.24.35-2.42.89-3.52,1.56-2.39,2.19-4.09,5.12-4.32,8.36,9.15-5.48,23.41-3.84,27.48-2.55-.81-4.92-4.3-7.03-7.37-8.4Z"/>
          <path class="cls-2" d="m289.46,219.01c-4.86.06-8.75,3.91-8.68,8.6.05,4.69,4.04,8.44,8.89,8.38,4.86-.06,8.75-3.92,8.69-8.61-.06-4.69-4.04-8.44-8.9-8.38Z"/>
          <path class="cls-73" d="m291.41,223.86c-1.21-.56-2.67,0-3.27,1.23-.6,1.24-.11,2.69,1.09,3.25,1.2.56,2.66,0,3.27-1.23.61-1.23.12-2.68-1.08-3.25Z"/>
          <path class="cls-73" d="m299.59,226.68c-1.65-.79-3.61-.11-4.37,1.53-.77,1.64-.05,3.6,1.59,4.38,1.65.8,3.6.11,4.37-1.52.77-1.63.06-3.6-1.59-4.39Z"/>
          <path class="cls-40" d="m315.82,223.83s5.13-3.81,3.24-10.12c0,0-1.25,3.69-14.38.22-30.74-4.79-37.62,8.33-36.96,21.55,0,0,1.41-14.77,19.89-16.34,8.51-.72,16.03,1.27,23.7,4.61.48,5.89-8.62,12.74-16.02,13.45,4.97-.39,11.85-1.23,17.5-5.6,2.56-1.98,6.38-4.22,6.92-8.69-.38.8-1.87,1.46-3.89.92Z"/>
          <path class="cls-66" d="m280.79,212.6c-9.5,4.09-11.33,10.46-11.33,10.46,0,0,3.39-5.37,12.28-8.9,9.22-3.66,26.31-1.21,26.31-1.21-5.99-2.2-18.97-3.92-27.26-.35Z"/>
          <path class="cls-34" d="m286.47,217.96c-18.8,2.07-18.75,17.52-18.75,17.52,0,0-.04-11.84,19.29-15.41,8.25-1.52,17.76,1.05,24.29,3.68,0,0-10.31-7.39-24.83-5.79Z"/>
        </g>
        <path class="cls-60" d="m267.71,235.48c28.85,8.7,39.78-.86,39.78-.86-14.24,5.12-39.78.86-39.78.86Z"/>
      </g>
      <g>
        <g>
          <path class="cls-42" d="m199.68,210.6c-6.35-.03-22.7,2.23-22.64,9.42.12,15.04,14.03,18.16,20.99,18.83,8.84.86,14.81.1,20.19-1.06,3.98-.86,6.09-1.06,8.1-1.32-.55-7.93-.56-23.59-26.64-25.88Z"/>
          <path class="cls-17" d="m211.97,217.02c2.42,2.67,5.11,7.37,4.97,11.43-.18,4.7-2.18,7.11-5.51,9.68,4.05-.72,8.02-2.34,13.79-2.66,0,0-4.49-12.2-13.25-18.46Z"/>
          <path class="cls-72" d="m212.58,218.79c2.39,2.19,3.94,5.14,4.23,8.36,3.6,2.34,6.67,4.44,8.41,8.34,0,0,0-11.84-12.63-16.69Z"/>
          <path class="cls-13" d="m201.41,213.71c-6.48.01-13.46,1.86-23.55,8.85,0,0,3.27,12.46,18.33,15.78-3.36-2.67-5.66-5.94-5.48-10.83.25-6.77,4.8-12.36,10.7-13.79Z"/>
          <path class="cls-72" d="m180.46,227.13s3.79-1.34,9.67-2.69c1.29-3.04,3.59-6.86,6.66-8.23-6.88.67-14.08,1.38-18.21,5.76l1.88,5.17Z"/>
          <path class="cls-43" d="m191.42,220.89c-1.19,1.99-1.9,4.29-1.97,6.76-.14,4.74,2.3,7.91,5.84,10.54,5.76,1.48,15.48.37,16.6-.06,3.45-2.45,5.45-5.12,5.51-9.68,0-.63,0-1.05-.07-1.64-8.53-6.92-18.28-7.82-25.91-5.92Z"/>
          <path class="cls-31" d="m213.38,218.79c-1.1-.67-3.08-1.21-4.32-1.56-3.86-1.1-6.63-1.82-10.78-1.42-3.07,1.37-7.55,3.73-8.36,8.65,4.08-1.3,18.29-2.44,27.44,3.04-.22-3.25-1.58-6.52-3.97-8.71Z"/>
          <path class="cls-48" d="m203.47,219.01c-4.86-.07-8.84,3.69-8.9,8.38-.06,4.69,3.83,8.54,8.69,8.61,4.85.05,8.85-3.69,8.89-8.38.07-4.69-3.82-8.55-8.68-8.6Z"/>
          <path class="cls-73" d="m202.9,223.86c-1.2.56-1.69,2.01-1.08,3.25.6,1.23,2.07,1.78,3.27,1.23,1.2-.55,1.69-2.01,1.09-3.25-.6-1.23-2.06-1.79-3.27-1.23Z"/>
          <path class="cls-73" d="m209.82,226.68c-1.65.8-2.36,2.76-1.59,4.39.77,1.63,2.72,2.32,4.37,1.52,1.65-.78,2.36-2.75,1.59-4.38-.77-1.63-2.72-2.31-4.37-1.53Z"/>
          <path class="cls-41" d="m188.25,213.93c-13.12,3.47-14.38-.22-14.38-.22-1.89,6.32,3.24,10.12,3.24,10.12-2.02.55-3.51-.12-3.89-.92.54,4.46,4.36,6.7,6.92,8.69,5.65,4.37,12.52,5.21,17.5,5.6-7.39-.72-16.49-7.56-16.02-13.45,7.66-3.33,15.19-5.33,23.7-4.61,18.48,1.57,19.89,16.34,19.89,16.34.65-13.22-6.23-26.34-36.96-21.55Z"/>
          <path class="cls-24" d="m212.14,212.6c-8.29-3.57-21.26-1.85-27.26.35,0,0,17.09-2.45,26.31,1.21,8.88,3.53,12.28,8.9,12.28,8.9,0,0-1.83-6.37-11.33-10.46Z"/>
          <path class="cls-32" d="m206.46,217.96c-14.52-1.6-24.83,5.79-24.83,5.79,6.53-2.63,16.05-5.2,24.29-3.68,19.33,3.57,19.29,15.41,19.29,15.41,0,0,.04-15.46-18.75-17.52Z"/>
        </g>
        <path class="cls-57" d="m185.44,234.62s10.93,9.56,39.77.86c0,0-25.54,4.26-39.77-.86Z"/>
      </g>
      <g>
        <path class="cls-58" d="m204.18,279.89c-2.32,6.72,11.11,5.75,21.44,10.22-8.1-3.23-20.13-14.03-21.44-10.22Z"/>
        <path class="cls-20" d="m267.18,290.11c10.33-4.47,22.9-3.49,21.44-10.22-.81-3.76-13.34,6.99-21.44,10.22Z"/>
        <path class="cls-70" d="m283.3,281.97c-7.1,3.09-12.79,5.63-19.88,6-2.3-.14-31.47-.52-33.32-.43-4.48-.39-13.05-1.95-18.13-4.26-2.58-1.21-5.75-3.09-6.14-2.86-.55.32.26,4,4.23,3.77,9.35,1.24,11.92,7.95,17.43,8.54,1.62.23,33.76.1,35.05,0,7.78.15,10.81-7.51,20.25-8.84,4.47.16,4.5-3.47,4.5-3.47-.38-.22-1.69.38-3.99,1.55Z"/>
        <path class="cls-67" d="m256.71,284.83c-3.64-.02-6.64,1.24-11.16,1.28-2.07.02-6.76-1.24-9.69-1.28-.71-.01-15.87.44-25.18-2.17.41.15,9.6,7.62,35.78,8.06,19.77.33,30.73-5.42,33.66-7.38-9.01,2.56-22.4,1.49-23.42,1.49Z"/>
        <path class="cls-16" d="m254.76,285.43c-1.72.56-7.22,1.4-9.21,1.46-1.17.04-4.21-.65-8.19-1.46-.67-.14-14.07-.05-14.32.31-.26.39,21.18,4.35,23.09,4.35,2.6,0,22.1-3.47,23.03-3.96,1.11-.58-13.7-.94-14.41-.71Z"/>
        <path class="cls-19" d="m219.99,290.09c5.39,8.33,14.56,16.47,27.31,16.08,6.3-.19,15.47-4.55,25.54-15.46,0,0-27.19,5.74-52.85-.63Z"/>
        <path class="cls-67" d="m246.14,291.68c-25.62-.62-29.57-6.32-33.07-6.85,5.12,3.1,11.09,9.89,13.57,12.09,4.11,3.65,12.58,6.98,19.99,6.71,9.38-.34,15.38-4.23,18.25-6.32,3.88-2.49,12.36-11.16,16.65-13.21-3.9-.1-11.26,8.15-35.38,7.57Z"/>
        <path class="cls-15" d="m244.47,291.92c-14.97-.48-22.49-3.68-22.05-2.64.84,1.96,3.59,6.04,7.6,8.36,3.77,2.18,9.67,3.21,16.28,3.2,8.15,0,10.03-.32,14.79-2.87,4.01-2.16,8.36-7.45,8.4-8.17.01-.75-9.51,2.61-25.03,2.12Z"/>
        <path class="cls-74" d="m247.01,294.8c-1.66,1.15,5.09,1.7,8.06,1.53s8.19-2.16,7.66-2.98c-.53-.82-15.72,1.45-15.72,1.45Z"/>
      </g>
      <path class="cls-22" d="m218.74,166.66c2-3.89,2.89-6.38,2.89-6.38-.86,2.16-1.84,4.29-2.89,6.38Z"/>
      <path class="cls-6" d="m243.85,159.13c1.05-1.93,1.53-3.06,1.53-3.06-.5,1.05-1.01,2.06-1.53,3.06Z"/>
      <path class="cls-23" d="m337.12,110.84c-19.89-29.54-53.27-26.35-53.27-26.35,0,0-9.01-16.47-57.24-10.33-48.23,6.15-80.63,56.44-94.09,92.28-13.46,35.84-5.83,85.96-5.83,85.96,1.22-10.22,5.83-21.02,5.83-21.02-6.63,57.64,40.08,98.72,40.08,98.72-12.83-18.25-11.3-30.56-11.3-30.56,5.86,19.04,36.37,34.46,36.37,34.46-22.37-26.8-32.31-50.61-37.87-97.21-3.09-25.87,20.81-55.98,20.81-55.98-5.73,17.43-13.27,28.68-13.27,28.68,30.43-8.55,45.61-31.57,51.41-42.83,1.05-2.09,2.02-4.22,2.89-6.38,0,0-.89,2.49-2.89,6.38-9.89,19.69-26.73,35.57-26.73,35.57,32.23-11.4,47.32-34.74,51.84-43.1.52-1,1.03-2.02,1.53-3.06,0,0-.48,1.13-1.53,3.06-13.04,25.25-31.38,36.5-31.38,36.5,40.7-7.31,56.67-42.52,56.67-42.52-11.14,26.55-30.31,38.47-30.31,38.47,54.55-16.67,51.87-61.67,51.87-61.67,6.22,30.04,13.6,24.89,24.88,46.88s21.31,24.28,23.33,71.77c1.98,46.55-40.36,85.12-40.36,85.12,36.83-13.45,43.83-37.6,43.83-37.6-4.37,20.67-9.84,30.07-9.84,30.07,31.85-27.99,28.09-94.61,28.09-94.61,3.2,6.26,5.86,18.34,5.86,18.34,1.18-10.64.55-47.27-2.1-73.08-1.74-16.91-7.38-36.41-27.27-65.95Z"/>
      <path class="cls-21" d="m287.56,126.42s4.34,11.42,13.61,29.08c18.22,34.71,33.25,76.04,28.16,118.62,0,0,12.87-33.13,9.96-59.92-2.91-26.79-33.81-68.31-51.73-87.78Z"/>
      <path class="cls-5" d="m155.17,220.55c-6.5,25.45,17.43,54.89,17.43,54.89-17.43-35.56,4.44-95.68,4.44-95.68,0,0-16.28,18.92-21.87,40.78Z"/>
      <path class="cls-3" d="m286.39,138.04c-6.35,25.94-26.02,41.36-47.56,53.53,0,0,47.03-6.15,53.65-53.73,0,0-4.72-5.4-6.09.2Z"/>
      <path class="cls-77" d="m212.47,195.63s52.29-4.37,66.36-57.79c0,0-20.89,38.94-66.36,57.79Z"/>
      <path class="cls-35" d="m192.01,202.23c51.18-15.7,57.35-52.82,57.35-52.82-18.46,29.84-57.35,52.82-57.35,52.82Z"/>
      <path class="cls-36" d="m167.34,209.49s42.2-9.82,58.36-56.38c0,0-21.71,37.02-58.36,56.38Z"/>
      <path class="cls-39" d="m164.87,207.45c11.55-25.56,43.06-51.61,43.06-51.61-37.92,15.43-43.06,51.61-43.06,51.61Z"/>
      <path class="cls-37" d="m163.65,112.51c-54.39,46.78-37.24,137.77-37.24,137.77,2.15-76.28,49.19-110.22,49.19-110.22-11.47,16.1-11.96,36.74-11.96,36.74,34.03-38.96,60.04-52.16,77.17-59.02,1.38-.55-12.01,12.89-36.11,29.07,43.79-18.01,67.68-44.35,67.68-44.35-6.06,12.29-28.36,35.34-28.36,35.34,0,0,15.74-4.44,29.6-17.91,13.86-13.47,10.22-35.45,10.22-35.45-21.69-16.83-65.81-18.75-120.2,28.03Z"/>
      <path class="cls-80" d="m216.28,72.06c-87.65,17.25-91.63,126.63-91.63,126.63,0,0,25.57-102.85,91.43-115.12,54.88-10.23,67.77.92,67.77.92,0,0-9.22-23.91-67.57-12.43Z"/>
      <path class="cls-38" d="m337.12,113.42c-37.29-32.31-53.27-28.93-53.27-28.93,0,0-6.39,11.79.43,23.22,20.66,34.61,49.33,59.02,60.34,66.29l-5.33-27.14s22.16,35.41,27.2,103.01c0,0,16.43-96.76-29.37-136.45Z"/>
      <path class="cls-27" d="m283.85,84.48c54.7,5.87,83.21,90.55,83.21,90.55-16.36-113.01-83.21-90.55-83.21-90.55Z"/>
      <path class="cls-4" d="m314.75,189.33l-32.41-86.82s0,65.87,32.41,86.82Z"/>
      <path class="cls-28" d="m172.6,330.09s-28.77-43.84-33.34-93.95c0,0-11.15,61.34,33.34,93.95Z"/>
      <path class="cls-82" d="m298.55,333.68c68.94-21.68,49.33-94.46,49.33-94.46,2.58,64.35-49.33,94.46-49.33,94.46Z"/>
    </g>
  </g>
</svg>