<?xml version="1.0" encoding="UTF-8"?>
<svg id="Layer_2" data-name="Layer 2" xmlns="http://www.w3.org/2000/svg" xmlns:xlink="http://www.w3.org/1999/xlink" viewBox="0 0 493.51 499.74">
  <defs>
    <style>
      .cls-1 {
        fill: url(#_ÂÁ_Ï_ÌÌ_È_ËÂÌÚ_8);
      }

      .cls-1, .cls-2, .cls-3, .cls-4, .cls-5, .cls-6, .cls-7, .cls-8, .cls-9, .cls-10, .cls-11, .cls-12, .cls-13, .cls-14, .cls-15, .cls-16, .cls-17, .cls-18, .cls-19, .cls-20, .cls-21, .cls-22, .cls-23, .cls-24, .cls-25, .cls-26, .cls-27, .cls-28, .cls-29, .cls-30, .cls-31, .cls-32, .cls-33, .cls-34, .cls-35, .cls-36, .cls-37, .cls-38, .cls-39, .cls-40, .cls-41, .cls-42, .cls-43, .cls-44, .cls-45, .cls-46, .cls-47, .cls-48, .cls-49, .cls-50, .cls-51, .cls-52, .cls-53, .cls-54, .cls-55, .cls-56, .cls-57, .cls-58, .cls-59, .cls-60, .cls-61, .cls-62, .cls-63, .cls-64, .cls-65, .cls-66, .cls-67, .cls-68, .cls-69, .cls-70, .cls-71, .cls-72, .cls-73, .cls-74, .cls-75, .cls-76, .cls-77, .cls-78, .cls-79, .cls-80, .cls-81, .cls-82, .cls-83, .cls-84, .cls-85, .cls-86 {
        stroke-width: 0px;
      }

      .cls-2 {
        fill: url(#linear-gradient);
      }

      .cls-3 {
        fill: url(#radial-gradient);
      }

      .cls-4 {
        fill: url(#linear-gradient-11);
      }

      .cls-5 {
        fill: url(#linear-gradient-12);
      }

      .cls-6 {
        fill: url(#linear-gradient-13);
      }

      .cls-7 {
        fill: url(#linear-gradient-10);
      }

      .cls-8 {
        fill: url(#linear-gradient-17);
      }

      .cls-9 {
        fill: url(#linear-gradient-16);
      }

      .cls-10 {
        fill: url(#linear-gradient-19);
      }

      .cls-11 {
        fill: url(#linear-gradient-15);
      }

      .cls-12 {
        fill: url(#linear-gradient-23);
      }

      .cls-13 {
        fill: url(#linear-gradient-21);
      }

      .cls-14 {
        fill: url(#linear-gradient-18);
      }

      .cls-15 {
        fill: url(#linear-gradient-14);
      }

      .cls-16 {
        fill: url(#linear-gradient-22);
      }

      .cls-17 {
        fill: url(#linear-gradient-20);
      }

      .cls-18 {
        fill: url(#linear-gradient-24);
      }

      .cls-19 {
        fill: url(#_ÂÁ_Ï_ÌÌ_È_ËÂÌÚ_735);
      }

      .cls-20 {
        fill: url(#_ÂÁ_Ï_ÌÌ_È_ËÂÌÚ_8-4);
      }

      .cls-21 {
        fill: url(#_ÂÁ_Ï_ÌÌ_È_ËÂÌÚ_8-3);
      }

      .cls-22 {
        fill: url(#_ÂÁ_Ï_ÌÌ_È_ËÂÌÚ_8-2);
      }

      .cls-23 {
        fill: url(#_ÂÁ_Ï_ÌÌ_È_ËÂÌÚ_331);
      }

      .cls-24 {
        fill: url(#_ÂÁ_Ï_ÌÌ_È_ËÂÌÚ_978);
      }

      .cls-25 {
        fill: url(#_ÂÁ_Ï_ÌÌ_È_ËÂÌÚ_66-9);
      }

      .cls-26 {
        fill: url(#_ÂÁ_Ï_ÌÌ_È_ËÂÌÚ_66-8);
      }

      .cls-27 {
        fill: url(#_ÂÁ_Ï_ÌÌ_È_ËÂÌÚ_66-7);
      }

      .cls-28 {
        fill: url(#_ÂÁ_Ï_ÌÌ_È_ËÂÌÚ_66-5);
      }

      .cls-29 {
        fill: url(#_ÂÁ_Ï_ÌÌ_È_ËÂÌÚ_66-6);
      }

      .cls-30 {
        fill: url(#_ÂÁ_Ï_ÌÌ_È_ËÂÌÚ_66-4);
      }

      .cls-31 {
        fill: url(#_ÂÁ_Ï_ÌÌ_È_ËÂÌÚ_66-2);
      }

      .cls-32 {
        fill: url(#_ÂÁ_Ï_ÌÌ_È_ËÂÌÚ_66-3);
      }

      .cls-33 {
        fill: url(#_ÂÁ_Ï_ÌÌ_È_ËÂÌÚ_1931);
      }

      .cls-34 {
        fill: url(#_ÂÁ_Ï_ÌÌ_È_ËÂÌÚ_67-5);
      }

      .cls-35 {
        fill: url(#_ÂÁ_Ï_ÌÌ_È_ËÂÌÚ_67-3);
      }

      .cls-36 {
        fill: url(#_ÂÁ_Ï_ÌÌ_È_ËÂÌÚ_67-4);
      }

      .cls-37 {
        fill: url(#_ÂÁ_Ï_ÌÌ_È_ËÂÌÚ_67-6);
      }

      .cls-38 {
        fill: url(#_ÂÁ_Ï_ÌÌ_È_ËÂÌÚ_67-2);
      }

      .cls-39 {
        fill: url(#_ÂÁ_Ï_ÌÌ_È_ËÂÌÚ_67-7);
      }

      .cls-40 {
        fill: url(#_ÂÁ_Ï_ÌÌ_È_ËÂÌÚ_7689);
      }

      .cls-41 {
        fill: url(#_ÂÁ_Ï_ÌÌ_È_ËÂÌÚ_1009);
      }

      .cls-42 {
        fill: url(#_ÂÁ_Ï_ÌÌ_È_ËÂÌÚ_1010);
      }

      .cls-43 {
        fill: url(#_ÂÁ_Ï_ÌÌ_È_ËÂÌÚ_1011);
      }

      .cls-44 {
        fill: url(#_ÂÁ_Ï_ÌÌ_È_ËÂÌÚ_1166);
      }

      .cls-45 {
        fill: url(#_ÂÁ_Ï_ÌÌ_È_ËÂÌÚ_66-12);
      }

      .cls-46 {
        fill: url(#_ÂÁ_Ï_ÌÌ_È_ËÂÌÚ_66-11);
      }

      .cls-47 {
        fill: url(#_ÂÁ_Ï_ÌÌ_È_ËÂÌÚ_66-10);
      }

      .cls-48 {
        fill: url(#_ÂÁ_Ï_ÌÌ_È_ËÂÌÚ_66-13);
      }

      .cls-49 {
        fill: url(#_ÂÁ_Ï_ÌÌ_È_ËÂÌÚ_978-2);
      }

      .cls-50 {
        fill: url(#_ÂÁ_Ï_ÌÌ_È_ËÂÌÚ_735-2);
      }

      .cls-51 {
        fill: url(#radial-gradient-2);
      }

      .cls-52 {
        fill: url(#radial-gradient-3);
      }

      .cls-53 {
        fill: url(#radial-gradient-4);
      }

      .cls-54 {
        fill: url(#linear-gradient-4);
      }

      .cls-55 {
        fill: url(#linear-gradient-2);
      }

      .cls-56 {
        fill: url(#linear-gradient-3);
      }

      .cls-57 {
        fill: url(#linear-gradient-8);
      }

      .cls-58 {
        fill: url(#linear-gradient-9);
      }

      .cls-59 {
        fill: url(#linear-gradient-7);
      }

      .cls-60 {
        fill: url(#linear-gradient-5);
      }

      .cls-61 {
        fill: url(#linear-gradient-6);
      }

      .cls-62 {
        fill: url(#_ÂÁ_Ï_ÌÌ_È_ËÂÌÚ_1166-8);
      }

      .cls-63 {
        fill: url(#_ÂÁ_Ï_ÌÌ_È_ËÂÌÚ_1166-7);
      }

      .cls-64 {
        fill: url(#_ÂÁ_Ï_ÌÌ_È_ËÂÌÚ_1166-6);
      }

      .cls-65 {
        fill: url(#_ÂÁ_Ï_ÌÌ_È_ËÂÌÚ_1166-9);
      }

      .cls-66 {
        fill: url(#_ÂÁ_Ï_ÌÌ_È_ËÂÌÚ_1166-4);
      }

      .cls-67 {
        fill: url(#_ÂÁ_Ï_ÌÌ_È_ËÂÌÚ_1166-5);
      }

      .cls-68 {
        fill: url(#_ÂÁ_Ï_ÌÌ_È_ËÂÌÚ_1166-2);
      }

      .cls-69 {
        fill: url(#_ÂÁ_Ï_ÌÌ_È_ËÂÌÚ_1166-3);
      }

      .cls-70 {
        fill: url(#_ÂÁ_Ï_ÌÌ_È_ËÂÌÚ_7689-2);
      }

      .cls-71 {
        fill: url(#_ÂÁ_Ï_ÌÌ_È_ËÂÌÚ_7689-3);
      }

      .cls-72 {
        fill: url(#_ÂÁ_Ï_ÌÌ_È_ËÂÌÚ_1931-2);
      }

      .cls-73 {
        fill: #f6ece6;
      }

      .cls-74 {
        fill: #78000a;
      }

      .cls-75 {
        fill: #391b13;
      }

      .cls-76 {
        fill: #c57d4e;
      }

      .cls-77 {
        fill: #ddd;
      }

      .cls-78 {
        fill: #d23f4c;
      }

      .cls-79 {
        fill: #d9646f;
      }

      .cls-80 {
        fill: #fe7337;
      }

      .cls-81 {
        fill: #fff;
      }

      .cls-82 {
        fill: url(#_ÂÁ_Ï_ÌÌ_È_ËÂÌÚ_90);
      }

      .cls-83 {
        fill: url(#_ÂÁ_Ï_ÌÌ_È_ËÂÌÚ_75);
      }

      .cls-84 {
        fill: url(#_ÂÁ_Ï_ÌÌ_È_ËÂÌÚ_83);
      }

      .cls-85 {
        fill: url(#_ÂÁ_Ï_ÌÌ_È_ËÂÌÚ_66);
      }

      .cls-86 {
        fill: url(#_ÂÁ_Ï_ÌÌ_È_ËÂÌÚ_67);
      }
    </style>
    <linearGradient id="_ÂÁ_Ï_ÌÌ_È_ËÂÌÚ_1166" data-name="¡ÂÁ˚ÏˇÌÌ˚È „‡‰ËÂÌÚ 1166" x1="105.45" y1="444.93" x2="91.13" y2="435.19" gradientUnits="userSpaceOnUse">
      <stop offset="0" stop-color="#a9563f"/>
      <stop offset="1" stop-color="#c57d4e"/>
    </linearGradient>
    <linearGradient id="_ÂÁ_Ï_ÌÌ_È_ËÂÌÚ_1166-2" data-name="¡ÂÁ˚ÏˇÌÌ˚È „‡‰ËÂÌÚ 1166" x1="164.89" y1="285.44" x2="265.68" y2="397.72" xlink:href="#_ÂÁ_Ï_ÌÌ_È_ËÂÌÚ_1166"/>
    <linearGradient id="_ÂÁ_Ï_ÌÌ_È_ËÂÌÚ_1166-3" data-name="¡ÂÁ˚ÏˇÌÌ˚È „‡‰ËÂÌÚ 1166" x1="301.42" y1="403.96" x2="241.73" y2="412.76" xlink:href="#_ÂÁ_Ï_ÌÌ_È_ËÂÌÚ_1166"/>
    <linearGradient id="_ÂÁ_Ï_ÌÌ_È_ËÂÌÚ_1166-4" data-name="¡ÂÁ˚ÏˇÌÌ˚È „‡‰ËÂÌÚ 1166" x1="227.97" y1="305.68" x2="316.82" y2="404.82" xlink:href="#_ÂÁ_Ï_ÌÌ_È_ËÂÌÚ_1166"/>
    <linearGradient id="_ÂÁ_Ï_ÌÌ_È_ËÂÌÚ_7689" data-name="¡ÂÁ˚ÏˇÌÌ˚È „‡‰ËÂÌÚ 7689" x1="256.51" y1="399.68" x2="340.34" y2="386.6" gradientUnits="userSpaceOnUse">
      <stop offset="0" stop-color="#c57d4e"/>
      <stop offset="1" stop-color="#a9563f"/>
    </linearGradient>
    <linearGradient id="_ÂÁ_Ï_ÌÌ_È_ËÂÌÚ_7689-2" data-name="¡ÂÁ˚ÏˇÌÌ˚È „‡‰ËÂÌÚ 7689" x1="250.01" y1="404.65" x2="166.77" y2="382.8" xlink:href="#_ÂÁ_Ï_ÌÌ_È_ËÂÌÚ_7689"/>
    <linearGradient id="_ÂÁ_Ï_ÌÌ_È_ËÂÌÚ_90" data-name="¡ÂÁ˚ÏˇÌÌ˚È „‡‰ËÂÌÚ 90" x1="251.41" y1="403.63" x2="242.74" y2="510.34" gradientUnits="userSpaceOnUse">
      <stop offset="0" stop-color="#fe7337"/>
      <stop offset=".38" stop-color="#fe783f"/>
      <stop offset=".98" stop-color="#fe8855"/>
      <stop offset="1" stop-color="#ff8956"/>
    </linearGradient>
    <linearGradient id="_ÂÁ_Ï_ÌÌ_È_ËÂÌÚ_83" data-name="¡ÂÁ˚ÏˇÌÌ˚È „‡‰ËÂÌÚ 83" x1="257.27" y1="463.92" x2="248.64" y2="335.74" gradientUnits="userSpaceOnUse">
      <stop offset="0" stop-color="#fe7337"/>
      <stop offset="1" stop-color="#f75f1d"/>
    </linearGradient>
    <linearGradient id="_ÂÁ_Ï_ÌÌ_È_ËÂÌÚ_1931" data-name="¡ÂÁ˚ÏˇÌÌ˚È „‡‰ËÂÌÚ 1931" x1="115.97" y1="371.42" x2="109.82" y2="447.25" gradientUnits="userSpaceOnUse">
      <stop offset="0" stop-color="#ff8956"/>
      <stop offset=".02" stop-color="#fe8855"/>
      <stop offset=".62" stop-color="#fe783f"/>
      <stop offset="1" stop-color="#fe7337"/>
    </linearGradient>
    <linearGradient id="_ÂÁ_Ï_ÌÌ_È_ËÂÌÚ_1166-5" data-name="¡ÂÁ˚ÏˇÌÌ˚È „‡‰ËÂÌÚ 1166" x1="410.3" y1="438.65" x2="405.85" y2="435.62" xlink:href="#_ÂÁ_Ï_ÌÌ_È_ËÂÌÚ_1166"/>
    <linearGradient id="_ÂÁ_Ï_ÌÌ_È_ËÂÌÚ_1931-2" data-name="¡ÂÁ˚ÏˇÌÌ˚È „‡‰ËÂÌÚ 1931" x1="387.62" y1="380.5" x2="382.96" y2="437.84" xlink:href="#_ÂÁ_Ï_ÌÌ_È_ËÂÌÚ_1931"/>
    <linearGradient id="_ÂÁ_Ï_ÌÌ_È_ËÂÌÚ_66" data-name="¡ÂÁ˚ÏˇÌÌ˚È „‡‰ËÂÌÚ 66" x1="248.21" y1="284.42" x2="248.21" y2="100.95" gradientUnits="userSpaceOnUse">
      <stop offset="0" stop-color="#1e100c"/>
      <stop offset=".49" stop-color="#2d1712"/>
      <stop offset="1" stop-color="#42231c"/>
    </linearGradient>
    <linearGradient id="linear-gradient" x1="251.26" y1="153.5" x2="237.83" y2="-35.69" gradientUnits="userSpaceOnUse">
      <stop offset="0" stop-color="#1e100c"/>
      <stop offset=".49" stop-color="#2d1712"/>
      <stop offset="1" stop-color="#42231c"/>
    </linearGradient>
    <linearGradient id="_ÂÁ_Ï_ÌÌ_È_ËÂÌÚ_66-2" data-name="¡ÂÁ˚ÏˇÌÌ˚È „‡‰ËÂÌÚ 66" x1="269.48" y1="197.48" x2="276.77" y2="59.4" xlink:href="#_ÂÁ_Ï_ÌÌ_È_ËÂÌÚ_66"/>
    <linearGradient id="_ÂÁ_Ï_ÌÌ_È_ËÂÌÚ_66-3" data-name="¡ÂÁ˚ÏˇÌÌ˚È „‡‰ËÂÌÚ 66" x1="172.89" y1="159.34" x2="179.17" y2="40.28" xlink:href="#_ÂÁ_Ï_ÌÌ_È_ËÂÌÚ_66"/>
    <linearGradient id="_ÂÁ_Ï_ÌÌ_È_ËÂÌÚ_66-4" data-name="¡ÂÁ˚ÏˇÌÌ˚È „‡‰ËÂÌÚ 66" x1="221.82" y1="147.36" x2="227.71" y2="36.02" xlink:href="#_ÂÁ_Ï_ÌÌ_È_ËÂÌÚ_66"/>
    <linearGradient id="_ÂÁ_Ï_ÌÌ_È_ËÂÌÚ_66-5" data-name="¡ÂÁ˚ÏˇÌÌ˚È „‡‰ËÂÌÚ 66" x1="311.05" y1="176.58" x2="316.93" y2="65.24" xlink:href="#_ÂÁ_Ï_ÌÌ_È_ËÂÌÚ_66"/>
    <linearGradient id="linear-gradient-2" x1="150.42" y1="221.96" x2="169.84" y2="295.07" gradientUnits="userSpaceOnUse">
      <stop offset="0" stop-color="#c57d4e"/>
      <stop offset=".3" stop-color="#c1774b"/>
      <stop offset=".68" stop-color="#b66846"/>
      <stop offset="1" stop-color="#a9563f"/>
    </linearGradient>
    <linearGradient id="_ÂÁ_Ï_ÌÌ_È_ËÂÌÚ_67" data-name="¡ÂÁ˚ÏˇÌÌ˚È „‡‰ËÂÌÚ 67" x1="150.3" y1="232.83" x2="180.59" y2="317.84" gradientUnits="userSpaceOnUse">
      <stop offset="0" stop-color="#a9563f"/>
      <stop offset=".32" stop-color="#b66846"/>
      <stop offset=".7" stop-color="#c1774b"/>
      <stop offset="1" stop-color="#c57d4e"/>
    </linearGradient>
    <linearGradient id="linear-gradient-3" x1="337.94" y1="227.7" x2="328.51" y2="307.5" xlink:href="#linear-gradient-2"/>
    <linearGradient id="_ÂÁ_Ï_ÌÌ_È_ËÂÌÚ_67-2" data-name="¡ÂÁ˚ÏˇÌÌ˚È „‡‰ËÂÌÚ 67" x1="340.91" y1="230.74" x2="330.05" y2="306.99" xlink:href="#_ÂÁ_Ï_ÌÌ_È_ËÂÌÚ_67"/>
    <linearGradient id="linear-gradient-4" x1="288.34" y1="248.5" x2="287.79" y2="184.72" xlink:href="#linear-gradient-2"/>
    <linearGradient id="linear-gradient-5" x1="202.72" y1="242.61" x2="206.06" y2="182.73" xlink:href="#linear-gradient-2"/>
    <radialGradient id="radial-gradient" cx="193.63" cy="273.07" fx="193.63" fy="273.07" r="39.81" gradientUnits="userSpaceOnUse">
      <stop offset="0" stop-color="#d1744d"/>
      <stop offset="1" stop-color="#c57d4e"/>
    </radialGradient>
    <radialGradient id="radial-gradient-2" cx="294.96" cy="273.07" fx="294.96" fy="273.07" r="39.81" xlink:href="#radial-gradient"/>
    <linearGradient id="linear-gradient-6" x1="248.5" y1="350.36" x2="247.45" y2="319.03" gradientUnits="userSpaceOnUse">
      <stop offset="0" stop-color="#c57d4e"/>
      <stop offset="1" stop-color="#cd8653"/>
    </linearGradient>
    <linearGradient id="_ÂÁ_Ï_ÌÌ_È_ËÂÌÚ_7689-3" data-name="¡ÂÁ˚ÏˇÌÌ˚È „‡‰ËÂÌÚ 7689" x1="161.41" y1="281.55" x2="210.22" y2="281.55" xlink:href="#_ÂÁ_Ï_ÌÌ_È_ËÂÌÚ_7689"/>
    <linearGradient id="linear-gradient-7" x1="281.43" y1="281.55" x2="330.43" y2="281.55" xlink:href="#linear-gradient-6"/>
    <linearGradient id="linear-gradient-8" x1="254.47" y1="435.24" x2="250.58" y2="388.73" gradientUnits="userSpaceOnUse">
      <stop offset="0" stop-color="#c57d4e"/>
      <stop offset="1" stop-color="#a9563f"/>
    </linearGradient>
    <linearGradient id="_ÂÁ_Ï_ÌÌ_È_ËÂÌÚ_75" data-name="¡ÂÁ˚ÏˇÌÌ˚È „‡‰ËÂÌÚ 75" x1="297.01" y1="256.12" x2="327.49" y2="248.68" gradientUnits="userSpaceOnUse">
      <stop offset="0" stop-color="#cd8653"/>
      <stop offset="1" stop-color="#c57d4e"/>
    </linearGradient>
    <linearGradient id="linear-gradient-9" x1="169.37" y1="244.54" x2="190.34" y2="258.69" xlink:href="#linear-gradient-6"/>
    <linearGradient id="_ÂÁ_Ï_ÌÌ_È_ËÂÌÚ_1166-6" data-name="¡ÂÁ˚ÏˇÌÌ˚È „‡‰ËÂÌÚ 1166" x1="244.01" y1="343.96" x2="249.86" y2="90.51" xlink:href="#_ÂÁ_Ï_ÌÌ_È_ËÂÌÚ_1166"/>
    <linearGradient id="linear-gradient-10" x1="248.17" y1="160.21" x2="252.55" y2="6.1" xlink:href="#linear-gradient"/>
    <linearGradient id="linear-gradient-11" x1="245.85" y1="250.86" x2="245.85" y2="59.99" xlink:href="#linear-gradient"/>
    <linearGradient id="_ÂÁ_Ï_ÌÌ_È_ËÂÌÚ_978" data-name="¡ÂÁ˚ÏˇÌÌ˚È „‡‰ËÂÌÚ 978" x1="153.97" y1="91.38" x2="159.29" y2="201.93" gradientUnits="userSpaceOnUse">
      <stop offset="0" stop-color="#42231c"/>
      <stop offset=".51" stop-color="#2d1712"/>
      <stop offset="1" stop-color="#1e100c"/>
    </linearGradient>
    <linearGradient id="_ÂÁ_Ï_ÌÌ_È_ËÂÌÚ_978-2" data-name="¡ÂÁ˚ÏˇÌÌ˚È „‡‰ËÂÌÚ 978" x1="328.51" y1="88.31" x2="333.5" y2="191.96" xlink:href="#_ÂÁ_Ï_ÌÌ_È_ËÂÌÚ_978"/>
    <linearGradient id="_ÂÁ_Ï_ÌÌ_È_ËÂÌÚ_1166-7" data-name="¡ÂÁ˚ÏˇÌÌ˚È „‡‰ËÂÌÚ 1166" x1="246.75" y1="221.3" x2="247.33" y2="77.49" xlink:href="#_ÂÁ_Ï_ÌÌ_È_ËÂÌÚ_1166"/>
    <linearGradient id="linear-gradient-12" x1="171.5" y1="202.57" x2="222.53" y2="202.57" gradientUnits="userSpaceOnUse">
      <stop offset="0" stop-color="#673024"/>
      <stop offset=".34" stop-color="#52261c"/>
      <stop offset=".68" stop-color="#462017"/>
      <stop offset="1" stop-color="#421f16"/>
    </linearGradient>
    <linearGradient id="_ÂÁ_Ï_ÌÌ_È_ËÂÌÚ_1010" data-name="¡ÂÁ˚ÏˇÌÌ˚È „‡‰ËÂÌÚ 1010" x1="266.71" y1="202.57" x2="317.82" y2="202.57" gradientUnits="userSpaceOnUse">
      <stop offset="0" stop-color="#421f16"/>
      <stop offset=".32" stop-color="#462017"/>
      <stop offset=".66" stop-color="#52261c"/>
      <stop offset="1" stop-color="#673024"/>
    </linearGradient>
    <linearGradient id="_ÂÁ_Ï_ÌÌ_È_ËÂÌÚ_67-3" data-name="¡ÂÁ˚ÏˇÌÌ˚È „‡‰ËÂÌÚ 67" x1="309.39" y1="223.44" x2="263.49" y2="241.26" xlink:href="#_ÂÁ_Ï_ÌÌ_È_ËÂÌÚ_67"/>
    <linearGradient id="linear-gradient-13" x1="264.56" y1="234.13" x2="278.64" y2="234.13" gradientUnits="userSpaceOnUse">
      <stop offset="0" stop-color="#fff"/>
      <stop offset=".47" stop-color="#fcfcfc"/>
      <stop offset=".77" stop-color="#f5f3f3"/>
      <stop offset="1" stop-color="#ece7e7"/>
    </linearGradient>
    <linearGradient id="linear-gradient-14" x1="295.73" y1="233.72" x2="306.93" y2="233.72" xlink:href="#linear-gradient-13"/>
    <linearGradient id="_ÂÁ_Ï_ÌÌ_È_ËÂÌÚ_8" data-name="¡ÂÁ˚ÏˇÌÌ˚È „‡‰ËÂÌÚ 8" x1="303.11" y1="246.2" x2="270.23" y2="225.65" gradientUnits="userSpaceOnUse">
      <stop offset="0" stop-color="#936655"/>
      <stop offset="1" stop-color="#5a3d32"/>
    </linearGradient>
    <linearGradient id="_ÂÁ_Ï_ÌÌ_È_ËÂÌÚ_8-2" data-name="¡ÂÁ˚ÏˇÌÌ˚È „‡‰ËÂÌÚ 8" x1="330.37" y1="234.48" x2="287.66" y2="229.41" xlink:href="#_ÂÁ_Ï_ÌÌ_È_ËÂÌÚ_8"/>
    <radialGradient id="radial-gradient-3" cx="284.02" cy="234.39" fx="284.02" fy="234.39" r="9.62" gradientUnits="userSpaceOnUse">
      <stop offset="0" stop-color="#2a3a3b"/>
      <stop offset="1" stop-color="#1c2727"/>
    </radialGradient>
    <linearGradient id="_ÂÁ_Ï_ÌÌ_È_ËÂÌÚ_331" data-name="¡ÂÁ˚ÏˇÌÌ˚È „‡‰ËÂÌÚ 331" x1="264.58" y1="232.73" x2="316.32" y2="232.73" gradientUnits="userSpaceOnUse">
      <stop offset="0" stop-color="#5a2a1f"/>
      <stop offset=".29" stop-color="#492219"/>
      <stop offset=".66" stop-color="#3d1c14"/>
      <stop offset="1" stop-color="#391b13"/>
    </linearGradient>
    <linearGradient id="_ÂÁ_Ï_ÌÌ_È_ËÂÌÚ_1166-8" data-name="¡ÂÁ˚ÏˇÌÌ˚È „‡‰ËÂÌÚ 1166" x1="287.04" y1="218.37" x2="252.81" y2="261.93" xlink:href="#_ÂÁ_Ï_ÌÌ_È_ËÂÌÚ_1166"/>
    <linearGradient id="_ÂÁ_Ï_ÌÌ_È_ËÂÌÚ_1009" data-name="¡ÂÁ˚ÏˇÌÌ˚È „‡‰ËÂÌÚ 1009" x1="221.86" y1="223.91" x2="181.06" y2="239.75" gradientUnits="userSpaceOnUse">
      <stop offset="0" stop-color="#c57d4e"/>
      <stop offset=".3" stop-color="#c1774b"/>
      <stop offset=".68" stop-color="#b66846"/>
      <stop offset="1" stop-color="#a9563f"/>
    </linearGradient>
    <linearGradient id="linear-gradient-15" x1="211.18" x2="225.26" xlink:href="#linear-gradient-13"/>
    <linearGradient id="linear-gradient-16" x1="186.16" y1="233.72" x2="197.36" y2="233.72" xlink:href="#linear-gradient-13"/>
    <linearGradient id="_ÂÁ_Ï_ÌÌ_È_ËÂÌÚ_8-3" data-name="¡ÂÁ˚ÏˇÌÌ˚È „‡‰ËÂÌÚ 8" x1="219.95" y1="247.37" x2="185.93" y2="226.11" xlink:href="#_ÂÁ_Ï_ÌÌ_È_ËÂÌÚ_8"/>
    <linearGradient id="_ÂÁ_Ï_ÌÌ_È_ËÂÌÚ_8-4" data-name="¡ÂÁ˚ÏˇÌÌ˚È „‡‰ËÂÌÚ 8" x1="214.93" y1="294.67" x2="209.09" y2="261.25" xlink:href="#_ÂÁ_Ï_ÌÌ_È_ËÂÌÚ_8"/>
    <radialGradient id="radial-gradient-4" cx="201.76" fx="201.76" r="9.62" xlink:href="#radial-gradient-3"/>
    <linearGradient id="_ÂÁ_Ï_ÌÌ_È_ËÂÌÚ_1011" data-name="¡ÂÁ˚ÏˇÌÌ˚È „‡‰ËÂÌÚ 1011" x1="173.54" y1="232.73" x2="225.28" y2="232.73" gradientUnits="userSpaceOnUse">
      <stop offset="0" stop-color="#391b13"/>
      <stop offset=".34" stop-color="#3d1c14"/>
      <stop offset=".71" stop-color="#492219"/>
      <stop offset="1" stop-color="#5a2a1f"/>
    </linearGradient>
    <linearGradient id="_ÂÁ_Ï_ÌÌ_È_ËÂÌÚ_1166-9" data-name="¡ÂÁ˚ÏˇÌÌ˚È „‡‰ËÂÌÚ 1166" x1="207.24" y1="219.15" x2="186.79" y2="245.18" xlink:href="#_ÂÁ_Ï_ÌÌ_È_ËÂÌÚ_1166"/>
    <linearGradient id="linear-gradient-17" x1="244.32" y1="288.27" x2="242.63" y2="262.93" xlink:href="#linear-gradient-2"/>
    <linearGradient id="_ÂÁ_Ï_ÌÌ_È_ËÂÌÚ_67-4" data-name="¡ÂÁ˚ÏˇÌÌ˚È „‡‰ËÂÌÚ 67" x1="243.77" y1="274.11" x2="243.69" y2="285.78" xlink:href="#_ÂÁ_Ï_ÌÌ_È_ËÂÌÚ_67"/>
    <linearGradient id="_ÂÁ_Ï_ÌÌ_È_ËÂÌÚ_67-5" data-name="¡ÂÁ˚ÏˇÌÌ˚È „‡‰ËÂÌÚ 67" x1="243.54" y1="287.33" x2="242.49" y2="253.49" xlink:href="#_ÂÁ_Ï_ÌÌ_È_ËÂÌÚ_67"/>
    <linearGradient id="linear-gradient-18" x1="242.97" y1="258.3" x2="243.13" y2="270.23" xlink:href="#linear-gradient-6"/>
    <linearGradient id="linear-gradient-19" x1="211.22" y1="277.28" x2="255.94" y2="316.33" xlink:href="#linear-gradient-2"/>
    <linearGradient id="_ÂÁ_Ï_ÌÌ_È_ËÂÌÚ_67-6" data-name="¡ÂÁ˚ÏˇÌÌ˚È „‡‰ËÂÌÚ 67" x1="194.74" y1="283.47" x2="212.61" y2="299.06" xlink:href="#_ÂÁ_Ï_ÌÌ_È_ËÂÌÚ_67"/>
    <linearGradient id="_ÂÁ_Ï_ÌÌ_È_ËÂÌÚ_67-7" data-name="¡ÂÁ˚ÏˇÌÌ˚È „‡‰ËÂÌÚ 67" x1="287.7" y1="287.13" x2="277.79" y2="299.37" xlink:href="#_ÂÁ_Ï_ÌÌ_È_ËÂÌÚ_67"/>
    <linearGradient id="linear-gradient-20" x1="221.57" y1="306.25" x2="268.37" y2="306.25" gradientUnits="userSpaceOnUse">
      <stop offset="0" stop-color="#e8d8d7"/>
      <stop offset=".04" stop-color="#ebdddc"/>
      <stop offset=".21" stop-color="#f6f0ef"/>
      <stop offset=".38" stop-color="#fcfbfb"/>
      <stop offset=".57" stop-color="#fff"/>
      <stop offset=".69" stop-color="#fbf7f7"/>
      <stop offset=".87" stop-color="#f1e3e3"/>
      <stop offset="1" stop-color="#e8d2d1"/>
    </linearGradient>
    <linearGradient id="linear-gradient-21" x1="211.12" y1="299.2" x2="277.57" y2="298.58" xlink:href="#linear-gradient-20"/>
    <linearGradient id="_ÂÁ_Ï_ÌÌ_È_ËÂÌÚ_735" data-name="¡ÂÁ˚ÏˇÌÌ˚È „‡‰ËÂÌÚ 735" x1="229.25" y1="314.98" x2="261.6" y2="314.65" gradientUnits="userSpaceOnUse">
      <stop offset="0" stop-color="#d23f50"/>
      <stop offset=".21" stop-color="#d64856"/>
      <stop offset=".47" stop-color="#d94c59"/>
      <stop offset=".78" stop-color="#d74856"/>
      <stop offset="1" stop-color="#d34051"/>
    </linearGradient>
    <linearGradient id="linear-gradient-22" x1="244.15" y1="292.94" x2="243.96" y2="280.42" xlink:href="#linear-gradient-6"/>
    <linearGradient id="linear-gradient-23" x1="211.07" y1="296.36" x2="277.55" y2="295.74" gradientUnits="userSpaceOnUse">
      <stop offset="0" stop-color="#e8d8d7"/>
      <stop offset=".05" stop-color="#eadcdb"/>
      <stop offset=".31" stop-color="#f6efee"/>
      <stop offset=".48" stop-color="#fbf6f6"/>
      <stop offset="1" stop-color="#e8d2d1"/>
    </linearGradient>
    <linearGradient id="_ÂÁ_Ï_ÌÌ_È_ËÂÌÚ_735-2" data-name="¡ÂÁ˚ÏˇÌÌ˚È „‡‰ËÂÌÚ 735" x1="219.07" y1="292.95" x2="276.92" y2="292.37" xlink:href="#_ÂÁ_Ï_ÌÌ_È_ËÂÌÚ_735"/>
    <linearGradient id="_ÂÁ_Ï_ÌÌ_È_ËÂÌÚ_66-6" data-name="¡ÂÁ˚ÏˇÌÌ˚È „‡‰ËÂÌÚ 66" x1="277.39" y1="274.6" x2="276.8" y2="103.93" xlink:href="#_ÂÁ_Ï_ÌÌ_È_ËÂÌÚ_66"/>
    <linearGradient id="_ÂÁ_Ï_ÌÌ_È_ËÂÌÚ_66-7" data-name="¡ÂÁ˚ÏˇÌÌ˚È „‡‰ËÂÌÚ 66" x1="310.69" y1="274.48" x2="310.1" y2="103.82" xlink:href="#_ÂÁ_Ï_ÌÌ_È_ËÂÌÚ_66"/>
    <linearGradient id="_ÂÁ_Ï_ÌÌ_È_ËÂÌÚ_66-8" data-name="¡ÂÁ˚ÏˇÌÌ˚È „‡‰ËÂÌÚ 66" x1="232.77" y1="274.75" x2="232.18" y2="104.09" xlink:href="#_ÂÁ_Ï_ÌÌ_È_ËÂÌÚ_66"/>
    <linearGradient id="_ÂÁ_Ï_ÌÌ_È_ËÂÌÚ_66-9" data-name="¡ÂÁ˚ÏˇÌÌ˚È „‡‰ËÂÌÚ 66" x1="196.27" y1="274.88" x2="195.68" y2="104.21" xlink:href="#_ÂÁ_Ï_ÌÌ_È_ËÂÌÚ_66"/>
    <linearGradient id="_ÂÁ_Ï_ÌÌ_È_ËÂÌÚ_66-10" data-name="¡ÂÁ˚ÏˇÌÌ˚È „‡‰ËÂÌÚ 66" x1="169.57" y1="274.97" x2="168.97" y2="104.31" xlink:href="#_ÂÁ_Ï_ÌÌ_È_ËÂÌÚ_66"/>
    <linearGradient id="_ÂÁ_Ï_ÌÌ_È_ËÂÌÚ_66-11" data-name="¡ÂÁ˚ÏˇÌÌ˚È „‡‰ËÂÌÚ 66" x1="337.31" y1="274.49" x2="338.79" y2="156.18" xlink:href="#_ÂÁ_Ï_ÌÌ_È_ËÂÌÚ_66"/>
    <linearGradient id="_ÂÁ_Ï_ÌÌ_È_ËÂÌÚ_66-12" data-name="¡ÂÁ˚ÏˇÌÌ˚È „‡‰ËÂÌÚ 66" x1="155.62" y1="272.22" x2="157.1" y2="153.91" xlink:href="#_ÂÁ_Ï_ÌÌ_È_ËÂÌÚ_66"/>
    <linearGradient id="_ÂÁ_Ï_ÌÌ_È_ËÂÌÚ_66-13" data-name="¡ÂÁ˚ÏˇÌÌ˚È „‡‰ËÂÌÚ 66" x1="245.98" y1="199.47" x2="246.27" y2="142.39" xlink:href="#_ÂÁ_Ï_ÌÌ_È_ËÂÌÚ_66"/>
    <linearGradient id="linear-gradient-24" x1="249.18" y1="214.59" x2="260.42" y2="340.4" xlink:href="#linear-gradient"/>
  </defs>
  <g id="Layer_1-2" data-name="Layer 1">
    <g>
      <ellipse class="cls-73" cx="246.76" cy="249.87" rx="246.76" ry="249.87"/>
      <g>
        <g>
          <path class="cls-76" d="m415.18,432.46c-1.27-4.37-2.74-8-4.45-10.68-8.32-13.03-42.21-27.49-46.06-28.44-13.84-3.4-67.41-5.68-73.17-24.1-3.43-10.98-3.26-23.44-2.15-33.44h-74.55c1.33,9.04,1.13,18.27.91,27.57-.44,19.12-15.06,16.72-18.25,17.78-12.45,4.15-41.2,10.34-61.09,12.54-10.88,1.2-48.35,21.49-53.64,40.21-.19.68-.38,1.4-.57,2.14,43.67,39.61,101.34,63.71,164.57,63.71s124.33-25.55,168.42-67.28Z"/>
          <path class="cls-44" d="m81.91,435.78c6.6,6.01,13.53,11.66,20.75,16.93-7.61-17.78-14.06-28.92-14.06-28.92-2.81,2.73-4.99,6.91-6.68,12Z"/>
          <g>
            <path class="cls-68" d="m292.59,350.66c-.4-4.28-1.03-15.02-1.18-20.63-1.18,1.45-75.24-1.25-78.1-5.47l-8.61.08s2.54,27.25-1.5,46.77c-.82,3.97-24.82,9.6-40.57,12.88,1.13.87,5.17,3.6,6.07,4.08,13.48,1.33,25.08,2.91,30.58,1.96,6.73-1.17,18.06-6.31,26.25-10.06,44.41-20.35,58.27-27.08,58.27-27.08,2.09,18.93,16.08,36.06,15.32,35.88,11.17,2.72,24.78,3.23,36.86,2.9,3.02-1.23,7.69-3.5,10.72-5.32-29.14-5.2-47.11-14.66-47.89-15.23-2.56-1.85-5.31-10.91-6.24-20.75Z"/>
            <path class="cls-69" d="m245.08,407.06s15.98,2.83,20.18,7.78c0,0-4.62-12.73-20.18-7.78Z"/>
            <path class="cls-66" d="m202.55,312.96c2.8,11.94,2.39,45.88,2.39,45.88,51,16.21,86.84-20.37,86.84-20.37,0,0,.83-27.96,2.44-37.74-3.95-.35-91.67,12.23-91.67,12.23Z"/>
            <path class="cls-40" d="m265.8,403.96c13.87-10.8,27.74-7.72,45.43-9.78,17.69-2.06,37.53-5.96,37.53-5.96-8.06,1.57-66.07,1.09-72.28,2.64-6.22,1.54-10.68,13.1-10.68,13.1Z"/>
            <path class="cls-70" d="m231.88,392.42c-7.65-2.57-66.11-6.19-76.63-5.16,0,0,73.76,7.4,88.59,16.6,0,0-4.3-8.86-11.96-11.43Z"/>
          </g>
          <path class="cls-80" d="m344.8,385.87c-16.34,14.27-55.79,27.53-90.29,27.65-1.7,0-3.51.02-5.44.02,0,.1.01.2.02.3-1.4,0-2.74-.01-4.01-.02-34.5-.12-73.95-13.39-90.29-27.65-64.79,18.19-71.01,39.27-73.51,45.8,2.48,2.58,5.01,5.95,7.52,9.85,42.8,36.15,97.86,57.91,157.96,57.91,66.26,0,126.41-26.45,170.74-69.48-4.29-7.82-21.47-26.05-72.69-44.38Z"/>
          <path class="cls-82" d="m124.13,432.92s1.58,16.03,4.26,36.24c35.14,19.49,75.47,30.58,118.36,30.58,45.24,0,87.63-12.34,124.09-33.86,2-18.7,3.08-32.96,3.08-32.96H124.13Z"/>
          <path class="cls-84" d="m246.9,408.18c-47.95-.82-79.29-26.28-79.29-26.28l-12.82,4.27s26.2,32.04,92.08,33.75c76.76,1.99,102.49-32.38,102.49-32.38l-11.96-4.19c-17.8,16.01-47.41,25.57-90.51,24.83Z"/>
          <path class="cls-80" d="m81.67,425.01c-1.28,2.25-2.55,4.6-3.79,7.02,13.13,12.49,27.62,23.54,43.21,32.9l-9.6-63.48s-15.84-.96-29.81,23.56Z"/>
          <path class="cls-33" d="m149.02,387.84s-45.66,13.97-49.82,15.72c-2.17.91-12.18,5.99-18.39,18.3-1.04,2.07-2.45,5.25-4.05,9.1,2.49,2.4,5.03,4.73,7.62,7.03,5.06-7.71,9.82-14.35,13.27-17.97,9.33-9.78,51.38-32.18,51.38-32.18Z"/>
          <path class="cls-67" d="m410.56,423.79s-4.92,8.49-11.22,22.46c5.58-4.45,10.96-9.15,16.13-14.07-1.36-3.54-2.98-6.44-4.91-8.39Z"/>
          <path class="cls-80" d="m417.49,425.01c-13.98-24.52-29.81-23.56-29.81-23.56l-9.02,59.61c14.7-9.43,28.34-20.39,40.71-32.66-.62-1.15-1.25-2.29-1.88-3.39Z"/>
          <path class="cls-72" d="m418.35,421.87c-6.21-12.32-16.23-17.39-18.39-18.3-4.17-1.75-49.82-15.72-49.82-15.72,0,0,42.05,22.4,51.38,32.18,2.97,3.11,6.9,8.46,11.16,14.79,2.75-2.53,5.43-5.12,8.06-7.77-.91-2.09-1.72-3.87-2.38-5.18Z"/>
        </g>
        <g>
          <g>
            <path class="cls-85" d="m256.59,9.64c2.07,1.18,0,5.03-1.18,7.44-.38.83-.75,1.65-1.11,2.48-.05.12-.1.23-.15.35-2.11.67-2.35.48-3.92,1.63-.06-.95-.14-1.84-.25-2.67-.49-8.63-9.06-17.21-17.89-13.02-.69.37-1.33.81-1.92,1.33-1.76,1.54-2.99,3.7-3.33,6.21-.35,2.63.57,7.94,2.57,9.71,1.7,1.5,5.44,2.78,7.01.79-1.77.5-5.32-1.64-5.02-5.57.14-1.88.03-3.8,1.3-5.13.55-.57,1.22-.97,1.95-1.17.72-.2,1.5-.22,2.26-.03,1.65.03,2.54,1.51,3.06,2.7.4.75.7,1.56.94,2.39.24.83.41,1.67.55,2.52.28,1.75.41,3.55.24,5.32-.16,1.63-.58,3.25-1.48,4.61-.82,1.23-1.95,2.17-3.2,2.91-3.94,0-9.77-.68-15.51-.78.31-2,1.05-3.97,2.53-5.3,1.92-1.73,5.12-.19,7.46.68-1.23-2.05-3.22-4.6-6.48-4.95-2.45-.26-4.79.97-6.59,2.67-1.46,1.38-2.55,3.14-3.28,5.03-.26.69-.49,1.41-.66,2.14-1.02.11-.6.18-1.54.38-.43.09-.85.2-1.26.32.1-.34.19-.68.26-1.02.59-2.99-1.57-6.1-3.27-8.58-1.67-2.42-4.24-4.04-7.07-4.56-5.81-1.08-11.74,2.28-13.86,7.97-1.13,3.03-.75,7.18-1.04,4.8-.39-3.19-1.15-6.31-3.79-8.33-2.5-1.92-5.93-2.54-8.97-2.72-1.65-.1-3.31-.02-4.94.23-1.58.24-3.18.66-4.5,1.61-2.61,1.86-2.94,8.31-1.27,11.01,1.57,2.54,4.56,3.39,7.33,3.55-.64-.34-5.3-2.58-4.81-7.09.12-1.14-.53-2.79.68-3.36,1.12-.53,2.6-.34,3.78-.23,1.48.13,2.94.41,4.37.83,1.23.36,2.59.77,3.65,1.54.95.69.94,2.05,1.04,3.14.07.73.13,1.46.12,2.19,0,.45,0,1.07-.21,1.48-.17.34-.71.45-1.04.58-.7.28-1.39.57-2.06.92-4.31,2.25-7.69,6.29-9.14,11.04-.98.49-1.99.97-3.03,1.45-.39-.1-.79-.2-1.19-.27-2.75-.53-5.65-.59-8.43-.21-5.27.71-10.35,3.35-12.94,8.32-1.16,2.23-1.74,4.75-1.75,7.28,0,1.98,1.18,4.92,1.9,6.59.52-4.08,1.23-9.14,4.38-11.86,1.45-1.25,3.14-2.02,4.93-2.47-4.7,3.77-8.29,8.99-8.8,17.24-2.46-.04-4.91.62-7.12,1.7-4.24,2.07-8.66,5.83-8.25,11.14.18,2.34,1.12,4.67,2.33,6.64.91,1.47,2.06,2.84,3.44,3.87-.93-2.45-1.44-5.08-1.43-7.71,0-1.16.03-2.45.57-3.5.48-.93,1.38-1.59,2.25-2.1,1.8-1.08,3.88-1.89,5.94-2.23.99-.16,1.88-.08,2.87.01.37.04.25.14.19.5-.67,3.99.88,7.94,3.88,10.5-1.96-.08-3.93.05-5.85.48-3.19.72-6.79,2.49-7.87,5.93-.86,2.73.82,7.72,3.38,9.31-.98.63-1.92,1.34-2.79,2.14-4.48,4.1-7.82,10.74-6.31,16.99.74,3.08,2.5,5.81,4.56,8.13,1.78,2,3.93,3.73,6.37,4.78.11.43.24.85.37,1.28-1.38.83-2.65,1.84-3.68,3.11-1.48,1.84-2.27,6.46-2.23,8.85.03,2.32,1.46,5.05,2.68,6.97,1.25,1.97,3.36,2.77,5.59,2.85,1.97.07,4.46-.41,5.57-2.29,1.12-1.9,1.03-3.81-.26-5.27-2.25,7.17-9.39-3.22-6.49-5.48.65-.5,1.12-1.2,1.79-1.63.11-.07.23-.13.34-.2,2.58,3.56,6.59,6.31,13.02,6.82,15.1,1.22,113.55,15.79,156.96,16.79,3.13-4.52,39.85-8.4,44.14-24.53,1.3-4.88,1.54-13.18-6.86-18.38,4.24,1.36,9.04,1.14,12.97-1.07,3.79-2.14,7.73-3.45,7.81-8.15.13-8.51-7.19-10.48-11.43-10.8-1.96-.15-4.03.3-5.57,1.6-.28-1.17-.6-2.46-.95-3.9,3.92-2.62,6.74-6.98,8.38-11.37,1.08-2.88,3.24-4.22,3.14-7.31-.09-2.98-2.47-8.02-4.92-9.86-1.94-1.46-4.58-1.84-6.92-1.73-1.08.05-2.16.23-3.2.5.24-.17.48-.35.72-.54,2.12-1.69,4.95-7.93,2.92-9.7-1.66-1.44-2.11-2.3-5.1-3.68,1.03.82,2.44,2,2.16,4.68-.13,1.26-1.44,3.44-3.61,4.37-2.26.97-5.22,1.01-7.64.67-1.1-.15-1.99-.46-1.99-.46,2.27-4.76,2.35-9.53.41-12.97-1.02-1.81-3.7-4.65-5.45-4.41.48-.75-.8-4.9-.59-5.8,1.26-5.34-.68-11.09-4.25-15.04-3.8-4.21-9.21-6.43-14.78-6.09-3.02.19-5.97,1.08-8.63,2.53.85-1.32,1.47-2.78,1.79-4.36.52-2.59,1.65-3.59,1.09-6.16-.56-2.56-2.53-7.42-4.78-8.74-9.8-5.75-14.44,4.77-15.83,7.17-1.95-.6-5.24-2.59-7.24-2.54.48-.32.94-.66,1.38-1.03,1.33-1.12,2.45-2.37,3.48-3.78,2.04-2.79,3.47-5.28,4.01-7.92-2.71-.44-5.44-.86-8.18-1.21-.33,2.35-1.36,4.66-3.02,6.44-3.25,3.25-7.69,4.14-11.83,5.62.44-.94.69-1.87.77-2.79.08-.92-.01-1.82-.24-2.7-1.42-5.54-6.44-6.71-11.14-8.5-2-.05-4.01-.08-6.03-.08-2.24,0-4.48.03-6.71.09,3.29,4.53,10.56,6.03,16.55,9.54Zm-110.08,95.51c-3.32-.05-6.6.91-9.51,2.61-.93-1.93-1.72-5.68-.59-6.87,1.25-1.32,3.57-1.34,5.22-1.33,3.77.03,7.38,1.07,11.1,1.54-1.78,1.23-3.97,2.57-6.22,4.05Zm53.47-66.01c-.45-.27-.89-.55-1.31-.85-1.55-1.1-2.93-2.48-3.73-4.26-.83-1.85-.84-4.06-.04-5.92,1.66-3.88,6.75-5.14,10.19-3.1,2.8,1.66,5.69,4.57,6.1,7.75-4.51,1.38-9.11,4.06-11.2,6.39Zm153.89,78.44c.03-1.17-.04-1.03-.33-2.58.18-.07.37-.13.55-.18,1.62-.39,3.18-1.1,4.5-.2.68.47,1.34.99,1.9,1.61.34.38.82.9.73,1.46-.17,1.09-1.05,2.16-1.83,2.86-1.84,1.63-4.45,2.36-6.94,2.5,1.76-2.55,1.31-1.97,1.41-5.47Zm-8.26-33.96c1.94-.61,4.04-.88,6.05-.56.7.11,1.4.29,2.05.58.13.06.32.11.39.23.11.17.16.57.2.78.43,1.98,0,4.24-.48,6.17-.49,2.01-1.21,3.98-2.12,5.84-.46.95-.99,1.88-1.58,2.75-.45-2.02-.92-4.24-1.4-6.7-.88-4.57-1.96-7.2-3.44-8.98.11-.04.22-.08.33-.11Zm-19.24-10.36c-4-4.78-1.06-9.37-.4-15.4.2.1.4.22.58.36,1.04.78,1.3,2.17,1.32,3.42.06,2.89-1.25,5.46-1.56,8.28-.12,1.11-.11,2.24.05,3.34Zm-14.68-37.8c3.83.23,7.37,2.02,9.93,4.94,1.19,1.36,4.76,5.02,5.33,6.75.29.88-.34,4.92-.44,5.38-.37-1.34-2.57-6.85-3.67-8.12-5.92-6.84-11.64-2.09-19.03-4.02.91-3.05,4.62-5.14,7.87-4.94Zm-17.5-21.41c1.35.54,2.06,1.83,2.47,3.19.52,1.76.6,3.67.52,5.5-.09,1.78-.51,3.34-1.71,4.68-.12.13-.24.25-.36.37-3.41-6.61-5.75-7.18-9.93-8.48.58-.62,7.29-5.95,9.01-5.26Z"/>
            <path class="cls-2" d="m258.96,13.18c.3.3,0,1.18-.07,2.18-.2.81-.52,1.6-.79,2.28-.68,1.68-1.48,3.31-2.2,4.98-.05.12-.1.23-.15.35-2.11.67-3.92,1.63-5.48,2.78.2-2.13.09-4.3-.29-6.35-.13-.68-.28-1.35-.46-2.01-1.2-5.97-7.41-11.59-13.64-9.34-.77.2-1.5.49-2.19.86-2.75,1.47-4.8,4.2-5.25,7.54-.35,2.63.43,5.52,2.42,7.29,1.69,1.5,4.64,2.03,6.21.04-1.77.5-3.54-.65-4.08-2.4-.55-1.8.02-3.8,1.3-5.13,1.1-1.14,2.69-1.58,4.2-1.21,1.4.34,2.39,1.44,3.06,2.7.8,1.51,1.21,3.22,1.49,4.9.28,1.75.41,3.55.24,5.32-.16,1.63-.58,3.25-1.48,4.61-.82,1.23-1.95,2.17-3.2,2.91-3.94,0-9.77-.68-15.51-.78.31-2,1.05-3.97,2.53-5.3,1.92-1.73,4.5-2.03,6.85-1.16-1.23-2.05-3.6-3.05-5.87-3.11-2.47-.06-4.79.97-6.59,2.67-1.46,1.38-2.55,3.14-3.27,5.03-.26.69-.49,1.41-.66,2.14-1.02.11-2.01.27-2.95.47-.43.09-.85.2-1.26.32.1-.34.19-.68.26-1.02.59-2.99-.16-6.19-1.86-8.67-1.67-2.42-4.24-4.04-7.07-4.56-5.81-1.08-11.74,2.28-13.86,7.97-1.13,3.03-1.23,6.44-.18,9.51.44,1.28,1.06,2.46,1.8,3.55-1.08-.46-2.23-.86-3.4-1.14.97-2.18,1.02-4.75.73-7.13-.39-3.19-1.16-6.31-3.79-8.33-2.5-1.92-5.93-2.54-8.97-2.72-1.65-.1-3.31-.02-4.94.23-1.58.24-3.18.66-4.5,1.61-2.61,1.86-3.12,5.4-1.44,8.1,1.57,2.54,4.56,3.39,7.33,3.55-.64-.34-1.27-.7-1.87-1.11-1.12-.76-2.26-1.76-2.77-3.07-.41-1.07-.53-2.79.68-3.36,1.12-.53,2.6-.34,3.78-.23,1.48.13,2.95.41,4.37.83,1.23.36,2.59.77,3.65,1.54.95.69.94,2.05,1.04,3.14.07.73.13,1.46.11,2.19,0,.45,0,1.07-.21,1.48-.17.34-.71.45-1.04.58-.7.28-1.39.57-2.06.92-4.31,2.25-7.69,6.29-9.14,11.04-.98.49-1.99.97-3.03,1.45-.39-.1-.79-.2-1.19-.27-2.75-.53-5.65-.59-8.43-.21-5.27.71-10.35,3.35-12.94,8.32-1.16,2.23-1.73,4.75-1.75,7.28-.02,1.95.23,4.08.99,5.89.52-4.08,2.13-8.44,5.28-11.16,1.45-1.25,3.14-2.02,4.93-2.47-4.7,3.77-8.29,8.99-8.8,17.24-2.46-.04-4.91.62-7.12,1.7-4.24,2.07-8.66,5.83-8.25,11.14.18,2.34,1.12,4.67,2.33,6.64.91,1.47,2.06,2.84,3.44,3.87-.93-2.45-1.44-5.08-1.43-7.71,0-1.16.03-2.45.57-3.5.48-.93,1.38-1.59,2.25-2.1,1.8-1.08,3.88-1.89,5.94-2.23.99-.16,1.88-.08,2.87.01.37.03.25.14.19.5-.67,3.99.88,7.94,3.88,10.5-1.96-.08-3.93.05-5.85.48-3.19.72-6.79,2.49-7.87,5.93-.99,3.15.95,6.6,4.19,7.03-1.1-1.24-2.05-3.58-.7-5.01,1.25-1.32,3.57-1.34,5.23-1.33,3.77.03,7.38,1.07,11.1,1.54-1.78,1.23-3.97,2.57-6.22,4.05-4.74-.07-9.42,1.89-13.01,5.17-4.48,4.1-7.82,10.74-6.3,16.99.74,3.08,2.5,5.81,4.56,8.13,1.78,2.01,3.93,3.73,6.37,4.78.11.43.24.85.37,1.28-1.38.83-2.65,1.84-3.68,3.11-1.48,1.84-2.3,4.14-2.26,6.54.03,2.32.85,4.49,2.07,6.41,1.25,1.97,3.36,2.77,5.59,2.85,1.97.07,4.46-.41,5.57-2.29,1.12-1.9.08-3.99-1.22-5.45.15,1.01.32,2.28-.33,3.15-.55.74-1.47.76-2.26.51-.72-.23-2.64-1.1-2.82-3.45-.07-.9.03-1.86.53-2.63.44-.69,1.12-1.2,1.79-1.63.11-.07.22-.13.34-.2,2.58,3.56,6.59,6.31,13.02,6.82,19.03,1.53,183.49,5.15,183.49,5.15,0,0,21.59-11.34,10.75-31.27,4.24,1.36,9.04,1.14,12.98-1.07,3.79-2.14,6.94-6.57,6.21-11.21-.73-4.65-5.59-7.42-9.83-7.74-1.96-.15-4.03.3-5.57,1.6-.28-1.17-.6-2.47-.95-3.9,3.92-2.62,6.74-6.98,8.38-11.37,1.07-2.88,1.73-5.98,1.63-9.07-.09-2.98-.97-6.26-3.41-8.1-1.94-1.46-4.58-1.84-6.92-1.73-1.08.05-2.16.23-3.2.5.24-.17.48-.35.72-.54,2.12-1.69,3.97-4.03,4.52-6.78.54-2.69-.37-5.35-2.41-7.11-1.66-1.44-3.78-2.18-5.9-2.54,1.93,1.45,4.51,3.59,4.61,6.27.11,2.75-2.69,4.58-4.85,5.51-2.26.97-4.82,1.33-7.25.99-1.1-.15-2.16-.46-3.17-.92-.73-.33-1.22-.74-1.41-1.59-.49-2.13.46-4.32.69-6.43.28-2.57.13-5.28-.85-7.68-.79-1.93-2.13-3.55-3.91-4.53.49-.75.82-1.6,1.03-2.5,1.26-5.34-.68-11.09-4.25-15.04-3.8-4.21-9.21-6.43-14.78-6.09-3.02.19-5.97,1.08-8.63,2.53.85-1.32,1.47-2.78,1.79-4.36.52-2.59.37-5.38-.19-7.95-.56-2.56-1.65-5.09-3.5-6.94-1.82-1.81-4.28-2.79-6.82-2.56-2.33.21-4.47,1.4-6.27,2.88-.99.81-1.92,1.72-2.77,2.69-.58.66-1.2,1.44-1.26,2.37-1.95-.6-3.95-.8-5.95-.75.47-.32.94-.66,1.38-1.03,1.33-1.12,2.45-2.37,3.48-3.78,2.27-3.1,3.2-6.99,3.1-10.87-2.42-.4-4.86-.78-7.31-1.11.06,1.84-.26,3.75-.74,5.33-1.48,3.55-4.73,6.21-8.28,7.44-.65.27-1.3.51-1.96.75-1.32.48-2.64.92-3.95,1.43.12-.32.23-.63.32-.96.2-.69.34-1.39.42-2.1.24-1.99-.25-3.68-1.18-5.13-.46-.72-1.04-1.39-1.69-2-3.5-3.28-8.23-4.17-12.37-6.24-.42-.21-.82-.46-1.22-.73-.8,0-1.6-.03-2.41-.03-2.06,0-4.12.03-6.17.08,3.62,5.68,12.88,8.84,18.37,13.11Zm-57.38,29.01c-.45-.27-.89-.55-1.31-.85-1.55-1.1-2.93-2.48-3.73-4.26-.83-1.85-.84-4.06-.04-5.92,1.66-3.88,6.75-5.14,10.19-3.1,2.8,1.66,4.28,4.66,4.68,7.84-4.51,1.38-7.7,3.97-9.79,6.29Zm153.48,74.41c.18-.07.37-.13.56-.18,1.62-.39,3.26.35,4.59,1.26.68.47,1.34.99,1.9,1.61.34.38.82.9.73,1.46-.17,1.09-1.05,2.16-1.83,2.86-1.84,1.63-4.46,2.36-6.94,2.5,1.76-2.55,1.28-7.96.99-9.5Zm-7.84-29.93c1.94-.61,4.04-.88,6.05-.56.7.11,1.4.29,2.05.58.13.06.32.11.39.23.11.17.16.57.2.78.43,1.98,0,4.24-.48,6.17-.49,2.01-1.21,3.98-2.12,5.84-.46.95-.99,1.88-1.58,2.75.44-1.51.08-4.41-.39-6.87-.88-4.57-2.96-7.03-4.44-8.81.11-.04.22-.08.33-.11Zm-19.65-27.31c1.04.78,1.3,2.17,1.32,3.42.06,2.89-1.25,5.46-1.56,8.28-.12,1.11-.11,2.24.05,3.34-4-4.78-1.06-9.37-.4-15.4.2.1.4.22.58.36Zm-14.28-20.84c3.83.23,7.36,2.02,9.93,4.94,1.19,1.36,2.15,2.94,2.73,4.67.29.88.45,1.79.56,2.71.05.48.1.99,0,1.45-.37-1.34-.92-2.75-1.72-4.24-5.77-10.73-13.27-2.43-20.96-7.65,2.98-1.34,6.22-2.08,9.47-1.88Zm-25.99-19.97c1-.38,1.99-.75,3.01-1.06,1.7-.52,3.75-1.06,5.48-.37,1.35.54,2.06,1.83,2.47,3.19.52,1.76.61,3.67.52,5.5-.09,1.78-.51,3.34-1.71,4.68-.12.13-.24.25-.36.37-3.41-6.61-7.4-9.78-11.58-11.08.58-.62,1.4-.93,2.17-1.22Z"/>
            <path class="cls-31" d="m299.53,51.19c-.48-.76-1.2-1.52-2.13-2.01-1.87-1.02-4.06-1-5.98-.59-.98.21-1.93.51-2.88.89-.97.39-1.85.85-2.66,1.23-.81.38-1.63.74-2.27.87-.72.12-.52,0-.61-.04-.04-.16-.09-.27-.14-.39-.03-.17-.07-.34-.12-.5l-.09-.6c-.08-.83-.03-1.76.03-2.94.04-1.18.15-2.72-.46-4.43-.57-1.72-1.81-3.1-3.02-4.01-1.2-.96-2.56-1.63-3.97-2.18-1.42-.5-2.9-.81-4.4-.95-3-.24-6.08.18-9,1.38-2.87,1.24-5.75,3.2-7.29,6.53-.37.83-.64,1.75-.68,2.74-.05.98.15,2.01.58,2.9.43.9,1.06,1.64,1.75,2.23.73.58,1.38.98,2.13,1.37.74.38,1.53.72,2.4.91.86.2,1.85.24,2.78-.09.89-.32,1.64-.88,2.18-1.65.55-.75.73-1.86.31-2.7-.02,0,.06.35-.12.97-.18.62-.83,1.39-1.97,1.73-1.14.41-2.43-.02-4-1.25-.39-.3-.78-.66-1.18-1.05-.34-.37-.66-.73-.86-1.14-.42-.81-.46-1.6-.05-2.57.41-.96,1.31-2.02,2.56-2.9,1.24-.89,2.84-1.59,4.66-2.02,1.82-.44,3.88-.58,5.97-.27,1.04.16,2.1.41,3.09.85.96.4,2,1.02,2.68,1.68.65.69.98,1.2,1.08,2.4.12,1.18-.08,2.88.21,4.8.17.96.34,1.91.93,3.01.6,1.18,1.88,2.29,3.33,2.41,1.53.14,2.54-.3,3.46-.69.91-.42,1.71-.91,2.48-1.39.78-.49,1.46-.92,2.22-1.3.75-.38,1.54-.71,2.35-.94,1.61-.46,3.35-.48,4.6.67.62.57,1.12,1.37,1.34,2.26.23.89.19,1.9-.07,2.89-.51,1.99-1.68,3.87-2.92,5.68,0,0,.43-.38,1.21-1.18.75-.83,1.96-2,2.95-4.15.47-1.07.83-2.5.55-4.13-.19-.8-.45-1.62-.96-2.37Z"/>
            <path class="cls-32" d="m192.44,51.2c-1.16-.54-2.51-.82-3.86-.78-1.36.03-2.69.35-3.95.84-1.28.5-2.67,1.32-3.78,2.62-1.14,1.29-1.8,2.97-2.1,4.55-.56,3.18-.07,6.1.04,8.88.07,1.38.06,2.73-.2,3.87-.13.57-.31,1.08-.56,1.53-.34.55-.42.58-.56.68-.13.08-.53.17-1.16.05-.61-.1-1.33-.32-2.1-.6-.81-.32-1.64-.65-2.48-.98-.91-.35-1.84-.73-3.11-.97-1.2-.17-2.29-.21-3.5-.02-1.19.18-2.4.58-3.49,1.26-1.09.68-2.04,1.65-2.69,2.77-.66,1.12-1.02,2.36-1.16,3.59-.14,1.25-.01,2.45.14,3.55.16,1.13.4,2.26.71,3.38.63,2.24,1.53,4.45,2.82,6.52,1.25,2.08,3.08,3.94,5.28,5.13,1.1.59,2.32,1.05,3.58,1.07,1.25.03,2.46-.44,3.32-1.3-.01-.04-.53.42-1.64.65-1.1.24-2.84-.13-4.62-1.54-.89-.69-1.8-1.61-2.58-2.73-.75-1.08-1.44-2.51-1.99-4.05-.55-1.56-.98-3.3-1.23-5.17-.21-1.84-.4-3.99.08-5.5.47-1.6,1.56-2.69,3.19-3.08.81-.2,1.77-.2,2.76-.03.69.14,1.87.66,3.08,1.22,1.25.56,2.59,1.2,4.33,1.63.9.18,1.88.38,3.12.16,1.18-.19,2.57-.87,3.34-1.85,1.46-1.66,2.04-3.58,2.3-5.39.24-1.81.15-3.49.03-5.09-.12-1.6-.31-3.12-.35-4.56-.06-1.44.06-2.75.48-3.76.4-1.01,1.18-1.77,2.38-2.39,1.25-.63,2.54-.95,3.77-.79,1.23.13,2.41.84,3.29,1.94.89,1.09,1.44,2.58,1.46,4.09.03,1.5-.52,3.02-1.71,4.08-1.2,1.06-2.95,1.57-4.75,1.7,0,0,.29.1,1,.25.7.08,1.85.3,3.51-.21.82-.26,1.77-.72,2.63-1.6.85-.87,1.56-2.14,1.88-3.67.29-1.53.21-3.32-.5-5.14-.71-1.79-2.1-3.72-4.45-4.82Z"/>
            <path class="cls-30" d="m238.91,54.55c-1.01-1.74-2.37-3.43-4.31-4.82-2.03-1.38-4.25-2.11-6.65-2.5-2.39-.34-5.01-.39-7.71.56-1.36.48-2.64,1.38-3.59,2.39-.97,1.02-1.77,2.16-2.46,3.38-1.34,2.43-2.4,5.27-2.38,8.18,0,0,.03-.09.1-.26.07-.17.14-.43.29-.76.27-.66.74-1.61,1.49-2.75.75-1.13,1.75-2.49,3.09-3.81.66-.66,1.42-1.32,2.23-1.84.84-.55,1.58-.81,2.6-.96,2-.29,4.63.02,7.12.94.63.22,1.22.51,1.8.8.57.32,1.04.63,1.54,1.06.98.86,1.92,1.98,2.63,3.28,1.44,2.59,2.18,5.79.58,8.5-.76,1.37-2.09,2.54-3.75,3.23-1.66.69-3.67.8-5.64.13.03-.05.31.78,2.1,1.71.89.43,2.22.83,3.98.71.88-.06,1.86-.27,2.88-.7,1.03-.42,2.1-1.08,3.07-2.06.97-.97,1.85-2.24,2.4-3.82.55-1.59.72-3.4.46-5.2-.26-1.81-.87-3.63-1.87-5.38Z"/>
            <path class="cls-28" d="m328.14,83.77c-1.01-1.74-2.37-3.43-4.31-4.82-2.03-1.38-4.25-2.11-6.65-2.5-2.39-.34-5.01-.39-7.71.56-1.36.48-2.64,1.38-3.59,2.39-.97,1.02-1.77,2.16-2.46,3.38-1.34,2.43-2.4,5.27-2.38,8.18,0,0,.03-.09.1-.26.07-.17.14-.43.29-.76.27-.66.74-1.61,1.49-2.75.75-1.13,1.75-2.49,3.09-3.81.66-.66,1.42-1.32,2.23-1.84.84-.55,1.58-.81,2.59-.96,2-.29,4.63.02,7.12.94.63.22,1.22.51,1.8.8.57.32,1.04.63,1.54,1.06.98.86,1.92,1.98,2.63,3.28,1.44,2.59,2.18,5.79.58,8.5-.76,1.37-2.09,2.54-3.75,3.23-1.66.69-3.67.8-5.64.13.03-.05.31.78,2.1,1.71.89.43,2.22.83,3.98.71.88-.06,1.86-.27,2.88-.7,1.03-.42,2.1-1.08,3.07-2.06.97-.97,1.85-2.24,2.4-3.82.55-1.59.72-3.4.46-5.2-.26-1.81-.87-3.63-1.87-5.38Z"/>
          </g>
          <g>
            <g>
              <path class="cls-55" d="m154.93,224.08c-15.87.91-11.75,17.81-4.78,33.57,4.56,10.31,8.84,22.01,20.51,22.01,0,0-3.01-20.77-6.6-48.06,0,0-6.04-7.7-9.13-7.52Z"/>
              <path class="cls-86" d="m158,252.54c4.18-28.06-14.84-29.98-10.53-10.83,0,0,2.63-9.03,5.04-6.33,2.96,3.32-3.17,5.15-.04,19.63,1.63,7.53,9.47,15.47,9.47,15.47,0,0-5.71-6.05-3.94-17.94Z"/>
            </g>
            <g>
              <path class="cls-56" d="m337.37,224.08c-3.09-.18-9.13,7.52-9.13,7.52-3.59,27.29-7.92,48.06-7.92,48.06,11.67,0,17.27-11.7,21.83-22.01,6.97-15.76,11.08-32.67-4.78-33.57Z"/>
              <path class="cls-38" d="m334.3,252.54c1.77,11.89-3.94,17.94-3.94,17.94,0,0,7.84-7.94,9.47-15.47,3.13-14.49-3-16.31-.04-19.63,2.41-2.7,5.04,6.33,5.04,6.33,4.32-19.15-14.7-17.23-10.53,10.83Z"/>
            </g>
            <path class="cls-76" d="m256.63,107.68s-80.72,10.53-90.89,33.78c-11.08,25.32-7.91,60.88-4.74,84.15s9.49,60.98,15.3,71.66c5.8,10.68,35.16,38.74,41.49,43.49,5.92,4.44,13.51,11.96,28.19,11.96,13.06,0,23.36-7.93,29.13-12.45,6.23-4.88,34.45-33.42,40.25-44.1,5.8-10.68,12.24-47.29,15.41-70.55,3.16-23.26,6.33-58.83-4.74-84.15-10.17-23.24-34.05-31.54-69.39-33.78Z"/>
            <path class="cls-54" d="m317.2,204.48c-5.9-4.62-14.46-8.47-26.02-7.29-37.06,3.77-36.5,40.74-39.96,61.76,45.49,18.04,71.96-14.81,71.96-14.81,0,0,7.78-28.89-5.97-39.66Z"/>
            <path class="cls-60" d="m197.24,198.79c-11.58-.78-19.25,2.12-25.13,6.92-13.66,11.16-3.65,42.59-3.65,42.59,0,0,26.7,31.71,72.06,12.22-3.62-20.76-6.2-59.27-43.28-61.73Z"/>
            <path class="cls-3" d="m212.36,235.81c-10.4-3.11-50.73-11.59-48.8,1.8,4.25,29.61,8.12,49.97,13.27,59.18,5.39,9.65,21.25,24.86,28.09,26.01,10.59,1.8,21.83-37.19,22.08-50.56.35-18.7-4.23-33.33-14.63-36.44Z"/>
            <path class="cls-51" d="m279.48,235.81c-10.4,3.11-14.99,17.74-14.64,36.44.25,13.36,11.48,52.36,22.08,50.56,6.84-1.15,22.7-16.36,28.09-26.01,5.14-9.22,9.02-29.57,13.27-59.18,1.92-13.39-38.4-4.91-48.8-1.8Z"/>
            <path class="cls-61" d="m247.8,325.97c-7.43.35-13.4,3.03-13.36,5.96.04,2.95,6.07,5.07,13.49,4.72,7.41-.35,13.38-3.02,13.35-5.97-.04-2.95-6.09-5.06-13.48-4.71Z"/>
            <path class="cls-71" d="m161.41,228.55s7.43,53.87,14.33,68.84c2.24,4.87,21.86,25.43,34.48,37.15,0,0-25.03-25.36-31.72-42.53-5.75-14.75-17.09-63.47-17.09-63.47Z"/>
            <path class="cls-59" d="m281.43,334.55c12.62-11.72,32.42-32.28,34.66-37.15,6.9-14.98,14.33-68.84,14.33-68.84,0,0-11.35,48.72-17.09,63.47-6.69,17.17-31.9,42.53-31.9,42.53Z"/>
            <path class="cls-57" d="m245.68,352.34c-11.24-.37-15.67-3.56-20-6.01-2.17-1.23-22.31-18.33-22.31-18.33,0,0,15.26,18.1,22.31,22.08,6.47,3.65,12.65,8.28,20.19,8.28,5.99,0,15.57-3.55,23.71-10.27,4.99-4.11,18.05-19.46,18.05-19.46-1.57,1.5-18.01,15.3-21.25,17.46-3.08,2.06-9.77,6.62-20.71,6.25Z"/>
            <path class="cls-83" d="m302.16,249.83c-4.39,1.17-7.46,4.25-6.89,6.89.58,2.63,4.59,3.83,8.96,2.66,4.37-1.17,7.46-4.24,6.88-6.89-.57-2.63-4.6-3.82-8.96-2.66Z"/>
            <path class="cls-58" d="m185.08,249.51c-4.6-1.02-8.74.4-9.24,3.16-.51,2.78,2.81,5.84,7.41,6.88,4.61,1.01,8.75-.4,9.26-3.16.5-2.78-2.82-5.86-7.42-6.89Z"/>
            <path class="cls-64" d="m267.9,107.61c-35.04-3.17-81.53,18.36-94.94,61.87-9.42,30.56-12.03,46.27-10.39,65.32.7,8.08,3.07,20.24,4.53,28.73,0,0-.59-23.04,16.09-31.84,0,0-3.36-38.27,15.25-67.61,11.34-17.87,33.2-23.1,45.78-23.98,13.24-.92,30.81,2.55,41.89,13.95,15.73,16.19,20.22,44.61,21.13,77.64,20.19.13,18.12,17.55,17.73,30.53,0,0,3.66-16.97,5.62-34.23,1.71-15.09,2.24-29.11-3.73-49.09-8.4-28.09-23.91-68.14-58.95-71.3Z"/>
            <path class="cls-7" d="m236.51,92.78c-77.07,8.1-82.07,113.57-78.67,130.63.96,4.83,7.86,6.4,7.86,6.4,0,0,2.07-18.68,4.36-23.31,4.17-8.45,13.62-40.38,20.7-52.87,3.83-6.74,13.67-16.46,25.45-20.46,18.44-6.26,36.16-5.66,54.56,1.12,4.83,1.78,20.24,3.61,32.4,23.32,3.97,6.43,18.66,32.69,24.09,72.95,4.47-7.83,7.43-6.63,8.7-13.37,1.26-6.66,6.58-135.55-99.46-124.41Z"/>
            <path class="cls-4" d="m334.46,123.76c-2.02-3.42-5.96-4.98-8.01-8.79-2.2-4.1-4.65-7.97-7.87-10.63-3.08-2.55-7.96-.68-11.84-3.38-2.13-1.48-4.4-3.02-6.83-4.65-1.95-1.31-10.84-10.69-26.47-13.32-8.41-1.41-15.34-1.91-32.54-.79-8.58.56-27.78,3.32-34.47,4.53-9.12,1.66-5.62,4.13-10.69,8.42-9.02,7.65-21.82,8.33-26.33,12.14-4.24,3.59-3.01,5.68-2.64,8.49,1.46,10.97-8.86,13.05-12.56,19.92-3.78,7.01-1.17,15.06-6.73,22.47-2.66,3.55-1.67,8.95-1.59,14.7.25,16.23,2.21,40.33,11.95,50.53,0,0,1.2-13.58,1.21-28.41.01-14.83,8.68-29.42,15.07-45.73,8-20.4,35.31-34.78,68.12-34.82,7.09,0,35.45-2.21,42.97-1.32,33.24,3.94,38.24,35.56,40.79,44.03,4.85,16.13,7.35,65.83,7.35,65.83,0,0,10.67-16.98,10.95-22.55,1.5-29.93,5.6-37.02-8.08-66.75-1.25-2.73-.42-7.64-1.77-9.93Z"/>
            <path class="cls-24" d="m145.7,167.99c.04,2.79-.7,21.88,5.78,56.61,6.37-1.2,8.54,3.1,9.93,3.96,0,0,1.81,13.94,4.62,28.85,0,0,4.39-54.9,5.31-60.69,0,0-23.26-9.38-25.64-28.73Z"/>
            <path class="cls-49" d="m319.52,196.98c4.65,18.52,5.67,36.44,7.27,55.97,0,0,3.48-22.28,5.32-24.71,1.56-2.05,4.32-4.84,9.34-3.46,0,0,9.17-26.37,4.33-60.27,0,0-10.65,27.75-26.26,32.47Z"/>
            <path class="cls-63" d="m283.1,134.63c-36.77-14.79-74.99-1.72-82.82,6.03-19.4,19.18-28.48,37.57-30.8,75.25,0,0,14.37-42.45,18.88-49.74,4.59-7.44,12.05-19.88,25.85-25.98,12.53-5.54,37.66-11.09,65.17-.76,29.89,11.22,44.67,82.91,44.67,82.91,0,0-3.7-72.74-40.94-87.72Z"/>
            <path class="cls-5" d="m219.85,202.14c.98,1.55,1.48,3.18.37,5.48.39-3.89-.94-5.95-3.29-7.12-5.06-1.82-21.68-5.69-28.18-4.99-7.08.75-17.25,10.2-17.25,10.2,2.5-1.61,11.45-3.94,17.88-3.79,4.14.1,24.3,5.79,29.43,7.55,4.51,1.54,5-4,1.04-7.32Z"/>
            <path class="cls-76" d="m317.82,205.7c-15.7-11.51-31.43-2.07-31.43-2.07,36.3-9.33,30.22,27.55,30.22,27.55,0,0,6.69-21.46,1.21-25.48Z"/>
            <path class="cls-42" d="m272.32,200.49c-2.35,1.16-3.69,3.22-3.29,7.12-1.11-2.3-.61-3.93.37-5.48-3.96,3.32-3.47,8.86,1.04,7.32,5.13-1.76,25.33-7.45,29.47-7.55,6.43-.15,15.4,2.18,17.91,3.79,0,0-10.19-9.45-17.27-10.2-6.51-.7-23.16,3.17-28.23,4.99Z"/>
            <g>
              <g>
                <path class="cls-35" d="m291.46,215.15c-24.9,0-27.2,15.22-27.72,26.2,1.88.42,3.86.78,7.57,1.92,5,1.54,10.85,4.02,19.3,3.94,6.65-.06,20.97-3.06,21.17-17.36.16-11.31-14.31-14.21-20.32-14.7Z"/>
                <path class="cls-6" d="m264.87,240.49c5.44.78,9.07,2.64,12.84,3.66-2.94-2.71-4.64-5.16-4.42-9.63.2-3.86,3.14-8.08,5.65-10.42-8.81,5.21-14.08,16.39-14.08,16.39Z"/>
                <path class="cls-77" d="m264.87,240.49c1.56-1.52,4.33-4.62,8.65-7.2.54-3.02,2.25-5.68,4.7-7.56-8.06,3.92-13.35,14.76-13.35,14.76Z"/>
                <path class="cls-15" d="m298.21,235.8c-.24,4.65-2.68,7.55-6.09,9.81,14.54-1.89,18.67-13.43,18.67-13.43-8.98-7.46-15.44-9.78-21.58-10.33,5.47,1.84,9.31,7.52,8.99,13.95Z"/>
                <path class="cls-1" d="m273.49,232.98c-.1.55-.15.96-.2,1.55-.33,4.32,1.35,7.02,4.42,9.63,1.03.5,10.14,2.36,15.72,1.43,3.56-2.2,6.14-5,6.4-9.5.14-2.35-.34-4.59-1.3-6.57-7.07-2.44-16.38-2.39-25.03,3.46Z"/>
                <path class="cls-77" d="m293.4,224.6c2.79,1.55,4.91,4.04,5.88,7.03,5.09,2.12,8.44,4.88,8.44,4.88l2.45-4.95c-3.54-4.49-10.31-5.76-16.77-6.96Z"/>
                <path class="cls-22" d="m293.4,224.6c-3.9-.72-7.96-.77-11.71-.05-1.21.23-2.37.64-3.47,1.18-2.45,1.88-4.3,4.51-4.78,7.56,3.19-1.9,7.31-3.51,12.36-3.99,5.03-.47,9.8.79,13.55,2.35-.88-3.06-3.16-5.51-5.95-7.06Z"/>
                <path class="cls-52" d="m286.95,225.39c-4.61-.35-8.61,2.98-8.93,7.43-.35,4.45,3.13,8.33,7.73,8.68,4.61.34,8.61-2.99,8.94-7.43.33-4.45-3.13-8.33-7.74-8.67Z"/>
                <path class="cls-81" d="m288.39,230.15c-1.1-.63-2.53-.22-3.2.89-.67,1.12-.33,2.54.76,3.16,1.09.63,2.52.23,3.19-.89.68-1.12.33-2.53-.76-3.16Z"/>
                <path class="cls-81" d="m295.9,233.5c-1.5-.88-3.41-.4-4.27,1.08-.86,1.49-.35,3.41,1.15,4.28,1.5.89,3.41.4,4.27-1.07.86-1.48.35-3.4-1.15-4.29Z"/>
                <path class="cls-23" d="m316.35,221.12s-2.43,5.1-14.57.73c-23.39-7.56-36.43,6.07-36.91,18.65,0,0,7.04-13.82,20.31-15.13,8.08-.8,15.08,2.54,22.06,6.33.08,5.61-7.38,12.46-15.44,14.09,6.9.06,22.24-7.05,23.36-12.88-.43.73-1.9,1.23-3.76.55,0,0,6.58-2.63,4.96-12.33Z"/>
                <path class="cls-62" d="m279.52,216.32c-8.12,2.78-11.63,8.65-11.63,8.65,0,0,3.66-4.81,12.36-7.41,9.04-2.7,21.53-.08,21.53-.08-5.49-2.58-14.15-3.94-22.26-1.16Z"/>
                <path class="cls-75" d="m284.2,224.15c-15.21,2.56-19.33,16.34-19.33,16.34,0,0,5.85-11.83,19.66-14.3,7.85-1.4,16.74,2.46,22.71,5.5,0,0-9.34-9.85-23.04-7.54Z"/>
              </g>
              <g>
                <path class="cls-41" d="m198.98,215.15c-6.01.5-20.49,3.39-20.32,14.7.21,14.3,14.53,17.31,21.17,17.36,8.44.08,14.3-2.39,19.3-3.94,3.7-1.14,5.68-1.5,7.57-1.92-.51-10.98-2.82-26.2-27.72-26.2Z"/>
                <path class="cls-11" d="m211.49,224.11c2.51,2.33,5.45,6.55,5.65,10.42.22,4.47-1.48,6.92-4.42,9.63,3.77-1.02,7.4-2.88,12.84-3.66,0,0-5.27-11.18-14.08-16.39Z"/>
                <path class="cls-77" d="m212.22,225.73c2.45,1.88,4.16,4.55,4.7,7.56,4.32,2.58,7.09,5.68,8.65,7.2,0,0-5.29-10.84-13.35-14.76Z"/>
                <path class="cls-9" d="m201.22,221.84c-6.13.55-12.59,2.88-21.58,10.33,0,0,4.13,11.53,18.67,13.43-3.4-2.25-5.85-5.16-6.09-9.81-.32-6.43,3.52-12.11,8.99-13.95Z"/>
                <path class="cls-21" d="m216.95,232.98c-8.65-5.84-17.96-5.9-25.03-3.46-.96,1.98-1.44,4.22-1.3,6.57.26,4.5,2.84,7.3,6.4,9.5,5.58.93,14.69-.93,15.72-1.43,3.07-2.61,4.74-5.3,4.42-9.63-.05-.59-.1-.99-.2-1.55Z"/>
                <path class="cls-77" d="m180.28,231.56l2.46,4.95s3.34-2.75,8.44-4.88c.97-2.99,3.08-5.48,5.88-7.03-6.46,1.2-13.23,2.47-16.77,6.96Z"/>
                <path class="cls-20" d="m212.22,225.73c-1.1-.54-2.26-.95-3.47-1.18-3.75-.72-7.81-.67-11.71.05-2.79,1.55-5.07,4.01-5.95,7.06,3.75-1.56,8.52-2.82,13.55-2.35,5.05.47,9.16,2.09,12.36,3.99-.48-3.06-2.34-5.68-4.78-7.56Z"/>
                <path class="cls-53" d="m203.49,225.39c-4.6.34-8.07,4.23-7.74,8.67.33,4.44,4.33,7.78,8.94,7.43,4.6-.35,8.07-4.23,7.73-8.68-.32-4.45-4.33-7.78-8.93-7.43Z"/>
                <path class="cls-81" d="m205.32,230.15c-1.1-.63-2.53-.22-3.2.89-.67,1.12-.33,2.54.76,3.16,1.09.63,2.52.23,3.19-.89.68-1.12.33-2.53-.76-3.16Z"/>
                <path class="cls-81" d="m212.83,233.5c-1.5-.88-3.41-.4-4.27,1.08-.86,1.49-.35,3.41,1.15,4.28,1.5.89,3.41.4,4.27-1.07.86-1.48.35-3.4-1.15-4.29Z"/>
                <path class="cls-43" d="m188.66,221.84c-12.14,4.37-14.57-.73-14.57-.73-1.62,9.7,4.96,12.33,4.96,12.33-1.87.68-3.33.18-3.76-.55,1.12,5.83,16.46,12.94,23.36,12.88-8.06-1.63-15.53-8.48-15.44-14.09,6.98-3.79,13.98-7.12,22.06-6.33,13.27,1.31,20.31,15.13,20.31,15.13-.48-12.58-13.52-26.21-36.91-18.65Z"/>
                <path class="cls-65" d="m210.92,216.32c-8.12-2.78-16.77-1.43-22.26,1.16,0,0,12.49-2.63,21.53.08,8.71,2.6,12.37,7.41,12.37,7.41,0,0-3.52-5.87-11.63-8.65Z"/>
                <path class="cls-75" d="m206.24,224.15c-13.7-2.31-23.04,7.54-23.04,7.54,5.97-3.03,14.85-6.9,22.71-5.5,13.81,2.46,19.66,14.3,19.66,14.3,0,0-4.12-13.78-19.33-16.34Z"/>
              </g>
              <g>
                <polygon class="cls-8" points="243.24 276 227.54 276 225.78 277.93 244.18 288.84 261.46 277.61 259 275.83 243.24 276"/>
                <path class="cls-36" d="m243.24,276.38l-11.48-2.73-5.99.6.55,3.39s6.97-1.87,13.09.36h7.49s7.43-2.47,14.56-.39l.31-2.92-5.96-1.04-12.56,2.73Z"/>
                <path class="cls-34" d="m261.23,265.07s2.76,3.96,1.59,6.5c-1.16,2.53-9.01.35-12.22,2.08-5.91,3.19-9.5,2.4-15.38,0-3.86-1.58-9.29.4-11.46-2.34-.75-.95-.94-4.35.15-6.24,0,0-3.24,1.56-3.73,5.81-.56,4.87,5.28,7.52,6.18,7.01.9-.5-.74-4.18,4.64-3.52,5.39.65,5.11,2.99,5.99,3.79s10.36.99,11.96.12c1.6-.86,1.16-4.05,6.26-3.91,5.1.14,5.24,3.14,5.97,3.53.73.39,3.75-1.95,4.62-6.41.87-4.46-4.58-6.41-4.58-6.41Z"/>
                <path class="cls-14" d="m231.1,262.87c-.1,3.1.33,4.42,1.86,6.45,2.34,3.09,18.79,5.61,21.6-1.47.56-1.41.54-3.62.25-6.41-.33-3.18-23.61-1.67-23.71,1.44Z"/>
              </g>
              <g>
                <path class="cls-10" d="m229.19,319.66c7.81,4.77,28.66,3.57,32.46.51,5.58-4.51,11.98-15.18,11.98-15.18h-56.68s9.26,12.86,12.24,14.67Z"/>
                <path class="cls-37" d="m201.85,289.05c-.74,1.69-.34,4.8,1.82,5.33,2.18.52,7.68,1.84,12.6,4.87-3.83-4.63-13.76-11.71-14.42-10.2Z"/>
                <path class="cls-39" d="m273.21,299.65c4.84-3.15,9.26-3.91,11.42-4.49,3.13-1.4,3.56-3.89,2.77-5.57-.69-1.49-10.49,5.33-14.2,10.05Z"/>
                <path class="cls-74" d="m207,291.99s11.96,12.39,14.57,14.26c2.61,1.87,18.24,8.35,21.22,8.91,2.98.56,21.27-3.86,23.08-5.88,1.81-2.02,17.23-17.29,17.23-17.29,0,0-38.19.69-39.89.8-1.7.11-36.21-.8-36.21-.8Z"/>
                <path class="cls-17" d="m223.57,298.72l-2,6.11s15.2,8.95,23.48,8.95,23.32-7.53,23.32-7.53l-3.07-7.53h-41.73Z"/>
                <path class="cls-78" d="m232.11,309.17c-4.6-.61-25.11-17.18-25.11-17.18,0,0,13.89,19.25,20.34,24.46,6.44,5.22,29.05,5.57,36.35,0,4.8-3.66,19.42-24.46,19.42-24.46,0,0-18.49,16.06-23.4,17.29-4.91,1.23-22.99.51-27.59-.1Z"/>
                <path class="cls-13" d="m221.15,294.04s-1.28,7.15,6.2,9c7.48,1.84,32.32.78,35.67.36,8.17-1.02,7.53-9.95,7.53-9.95l-49.39.59Z"/>
                <path class="cls-19" d="m246.06,310.55c-5.13-.32-15.38.55-16.34,1.81-2.35,3.09,4.03,6.69,16.34,6.79,12.31.1,17.24-5.09,15.01-6.79-2.23-1.7-9.88-1.49-15.01-1.81Z"/>
                <path class="cls-79" d="m248.8,312.68c-2.14.74,9.52,1.81,12.02.64s5.59-5.76,5.59-5.76c0,0-2.71,1.18-5,2.46-2.29,1.28-10.46,1.92-12.6,2.66Z"/>
                <path class="cls-16" d="m209.84,291.81s27.07-1.54,36.44-1.35c9.38.19,32.14,1.26,32.14,1.26,0,0-14.08-5.18-32.36-5.18s-36.23,5.28-36.23,5.28Z"/>
                <path class="cls-12" d="m221.15,296.48s3.81,1.3,24.66,1.67c20.85.37,24.44-1.52,24.44-1.52,0,0,.32-2.2.31-2.69l-49.41.1s-.23,1.32,0,2.44Z"/>
                <path class="cls-78" d="m207,291.99s12.5,4.11,38.05,4.6c28.8.56,38.05-4.6,38.05-4.6,0,0-24.57-3.21-36.82-3.21-16.47,0-39.28,3.21-39.28,3.21Z"/>
                <path class="cls-50" d="m219.07,292.89s12.55,2.34,27.97,2.85c15.42.51,29.89-2.29,29.89-2.29,0,0-17.34-3.83-31.38-3.93-14.04-.11-26.48,3.37-26.48,3.37Z"/>
                <path class="cls-74" d="m205.11,292.61c1.18.53,2.08-.36,6.74,1.33,0,0-7.94-4.13-8.47-3.9-.37.16-.01,1.77,1.72,2.57Z"/>
                <path class="cls-74" d="m277.78,294.62c4.07-1.83,5.37-.97,6.54-1.54,1.72-.82,2.01-2.37,1.67-2.6-.65-.44-8.21,4.14-8.21,4.14Z"/>
              </g>
            </g>
          </g>
          <path class="cls-29" d="m278.88,115.13c-.5-.58-1.82-1.64-1.8-2.53.02-.92,1.23-2.34,1.72-3.06,2.51-3.71,9.73-8.83,4.45-13.31-4.08-3.46-9.81-6.06-14.83-7.84,2.37,1.97,4.72,3.97,7.03,6.01,1.23,1.08,2.46,2.17,3.68,3.26.51.45,1.94,1.35,1.92,2.09-.02,1-2.43,2.62-3.07,3.28-1.73,1.79-3.29,3.85-4.44,6.06-2.86,5.5,2.18,8.83,5.96,12.09.79.68,1.94,1.36,2.59,2.16.66.8.63.84.32,1.77-.62,1.82-1.6,3.53-2.25,5.35,1.52-1.67,3.7-3.49,4.72-5.56.75-1.51-.04-2.49-.96-3.66-1.65-2.07-3.31-4.13-5.03-6.14Z"/>
          <path class="cls-27" d="m309.2,126.5c4.59-2.52,10.49-6.02,10.01-12.14-.34-4.27-4.14-7.79-6.95-10.71,2.27,4.9,6.45,10.58,1.28,15.05-3.38,2.92-9.18,3.52-11.69,7.4-2.86,4.43,3.24,10.33,5.96,13.38,3.15,3.54,8.81,7.19,7.87,12.65,3.24-5.54-2.87-11.81-5.66-16.11-.85-1.3-1.67-2.63-2.47-3.96-.32-.54-1.93-2.51-1.78-3.23.2-.96,2.68-1.92,3.44-2.34Z"/>
          <path class="cls-26" d="m235.89,104.72c-1.79-.92-4.55-1.61-5.32-3.73-.84-2.31,1.25-4.57,2.59-6.22,1.37-1.68,2.49-3.68.63-5.5-1.42-1.39-3.87-2.1-5.76-2.53,1.46,1.04,5.21,3.18,3.84,5.13-.87,1.25-2.7,2.1-3.7,3.34-.99,1.22-1.77,2.64-2.01,4.2-.54,3.46,1.59,6.29,4.42,8,.52.31,1.57.73,1.91,1.06-5.37,4.68-5.39,14.97,2.13,17.57-3.95-3.84-3.98-10.34.35-13.9,1.58-1.29,3.71-2.47,3.22-4.9-.27-1.34-1.22-1.95-2.31-2.51Z"/>
          <path class="cls-25" d="m202.57,122.88c1.26-2.77,1.01-4.43-1.56-6.29-3.01-2.18-6.61-4.33-9.07-7.13-2.3-2.62-1.36-5.47-.57-8.51-3.37,3.53-4.64,7.54-1.61,11.79,1.2,1.69,2.76,3.17,4.33,4.51.89.76,1.81,1.48,2.77,2.16.42.29,1.53.74,1.8,1.18.14.24.13.11.19.39.14.68-.61,2.25-.65,3.06-.03.79.03,1.58.19,2.35.56,2.66,2.37,5.28,5.04,6.14-2.28-2.9-2.33-6.41-.86-9.64Z"/>
          <path class="cls-47" d="m171.05,150.01c1.31-2.97,2.94-5.76,2.22-9.12-1.11-5.19-10.09-10.31-6.62-16.01-3.13,2.03-2.76,6.28-1.5,9.27,1.28,3.04,4.09,6,3.48,9.52-.61,3.47-2.85,6.42-1.75,10.1.88,2.93,3.87,5.73,7.13,5.23-3.55-1.73-4.46-5.58-2.96-8.99Z"/>
          <path class="cls-46" d="m344.55,167.22c-2.73,2.74-5.39,5.83-6.48,9.62-1.12,3.88.44,6.63.94,10.37.83,6.26-10.27,12.3-5.5,18.7-.37-3.76,3.08-6.46,5.47-8.8,2.66-2.61,5.07-5.76,4.79-9.7-.26-3.71-2.54-6.63-2.12-10.48.37-3.38,1.85-6.51,2.9-9.71Z"/>
          <path class="cls-45" d="m153.2,193.82c-2.32-3.97,2.47-5.76,3-9.37.48-3.3-2.58-7.2-5.05-9.07,1.05,2.02,1.85,4.32,2.07,6.59.19,1.98-.89,2.45-2.19,3.75-3.24,3.24-4.04,7.1-1.55,11.04,2.48,3.93,5.88,6.47,9.71,8.98,2.71,1.78,5.68,4.75,4.08,8.28,3.46-3.05,1.04-8.01-1.51-10.68-2.98-3.12-6.33-5.72-8.55-9.53Z"/>
          <path class="cls-48" d="m338.61,132.93c-.25-2.42.11-4.78,0-7.19-.32-6.75-7.19-6.89-11.15-10.83-1.46-1.45-2.19-3.16-1.83-5.19.42-2.31,1.17-4.36-.19-6.56-2.36-3.82-8.02-2.29-11.71-3.75-5.09-2.01-9.31-5.72-14.49-7.56-2.27-.81-5.26-.83-7.28-2.18-1.53-1.03-2.13-3.12-3.42-4.45-4.02-4.16-9.65-3.41-14.83-4.42-4.49-.88-7.29-4.99-11.7-6.15-3.07-.8-6.04-.03-8.65,1.66-1.33.86-3.37,3.28-5.06,3.27-2.06-.01-4.47-2.41-6.5-3.01-2.83-.84-5.82-.67-8.65.12-4.91,1.37-8.79,4.53-13.29,6.75-2.48,1.23-4.93,1.9-7.69,1.38-2.33-.43-4.57-1.28-6.95-1.5-5.01-.47-10.39,1.88-11.35,7.24-.27,1.49.36,4-.38,5.34-.65,1.18-3.7,2.02-4.85,2.54-5.47,2.47-13.8,1.39-19.17,4.08-5.23,2.62-7.15,9.94-4.84,15.55,1.13,2.74,1.59,4.11-.78,6.16-2.07,1.8-4.69,2.83-6.78,4.61-2.29,1.96-5.24,4.04-6.55,6.8-1.33,2.82.06,6.2.12,9.2.1,5.14-.82,10.25-3.73,14.22,2.41-2.6,5.18-6.25,6.56-9.56,1.25-3.01-1.65-6-1.01-9.09,1.5-7.19,9.93-9.85,14.86-14.16,1.86-1.63,2.73-3.68,2.42-6.16-.26-2.04-.92-7.19-.35-9.24.69-2.48,4.51-3,6.66-3.16,4.93-.38,9.11-1.29,12.86-2.75,3.89-1.52,9.13-2.64,10.77-6.98.71-1.87-.06-5.13,1.04-6.68.89-1.25,3.11-.97,4.41-.73,2.81.52,5.42,1.71,8.31,1.9,2.86.19,5.69-.45,8.33-1.54,5.09-2.09,10.77-7.63,16.61-6.95,2.01.23,3.57,1.6,5.35,2.46,2.26,1.1,4.7,1.48,7.14.77,2.47-.72,4.27-2.4,6.33-3.83,1.1-.77,1.97-1.25,3.29-.8,3.26,1.11,5.61,4.15,8.98,5.27,2.96.99,6.06.96,9.14,1.27,2.78.28,4.26.94,5.82,3.28,3.32,4.95,8.35,4.67,13.41,6.51,5.85,2.13,10.75,6.4,17.03,7.43.97.16,4.61-.38,5.31.5.38.49-.04,1.58-.12,2.13-.86,6.09,3.74,10.3,8.8,12.65,2.04.95,5.01,1.43,5.66,3.87.61,2.31.2,4.94.6,7.32,1.9,11.18,9.59,20.61,10.21,32.1.6-7.54-2.21-14.72-4.4-21.79-1.03-3.31-1.98-6.69-2.34-10.15Z"/>
          <path class="cls-18" d="m324.67,191.11c.41-3.2-.27-5-2.89-6.88-8.08-5.79-2.17-17.73-9.56-24.53-3.57-3.28-3.92-4.86-5.08-9.78-1.31-5.58-4.17-9.32-9.53-11.59-7.3-3.08-12.74-10.46-20.9-11.35-5.01-.55-9.97.93-14.93,1.31-3.81.29-6.13-.7-9.65-1.8-10.18-3.18-20.2-2.77-30.43.09-5.48,1.53-11.94,2.57-16.1,6.75-2.44,2.45-3.99,5.83-7.38,7.08-3.44,1.27-7.83.83-9.88,4.59-1.54,2.81.41,5.47,0,8.32-.69,4.86-7.61,7.16-9.97,11.17-2.17,3.7-2.22,7.92-2.72,12.03-.42,3.38-1.16,6.07-3.52,8.53-1.85,1.92-2.79,2.69-2.73,5.49.09,3.95,1.95,7.18.75,11.23,1.93-4.3-.85-8.74.86-12.75.42-.97.82-1.15,1.53-1.84,2.06-2.02,3.7-2.9,4.85-5.79,1.57-3.95,1.53-8.27,3.16-12.18,2.19-5.28,8.07-6.59,11.26-11.08.72-1.01,1.36-2.18,1.67-3.4.46-1.79-.69-4.65-.06-6.19.25-.62.36-.58.9-.98,1.05-.79,3.57-.57,4.8-.83,2.33-.5,4.32-1.38,6.16-2.92,1.89-1.59,3.18-3.74,5.02-5.36,1.9-1.67,3.86-2.15,6.28-2.77,11.52-2.96,21.76-5.23,33.41-1.48,5.58,1.79,10.04,2.44,15.97,1.59,3.43-.49,7.23-1.61,10.71-.97,5.05.92,8.8,5.56,13.15,7.97,2.56,1.42,6.63,1.96,8.73,4.03,2.45,2.41,2.58,6.57,3.68,9.61,1.23,3.39,2.7,4.87,5.53,7.07,3.27,2.54,3.85,5.84,4.52,9.92.97,5.97,1.97,10.05,7.1,13.43,2.71,1.78,2.6,2.31,2.39,5.58-.18,2.83-.08,5.67.3,8.48.55,4.06,1.7,8.02,3.42,11.74-2.15-7.29-1.78-14.11-.82-21.51Z"/>
        </g>
      </g>
    </g>
  </g>
</svg>