<?xml version="1.0" encoding="UTF-8"?>
<svg id="Layer_2" data-name="Layer 2" xmlns="http://www.w3.org/2000/svg" xmlns:xlink="http://www.w3.org/1999/xlink" viewBox="0 0 493.51 499.74">
  <defs>
    <style>
      .cls-1 {
        fill: url(#linear-gradient);
      }

      .cls-1, .cls-2, .cls-3, .cls-4, .cls-5, .cls-6, .cls-7, .cls-8, .cls-9, .cls-10, .cls-11, .cls-12, .cls-13, .cls-14, .cls-15, .cls-16, .cls-17, .cls-18, .cls-19, .cls-20, .cls-21, .cls-22, .cls-23, .cls-24, .cls-25, .cls-26, .cls-27, .cls-28, .cls-29, .cls-30, .cls-31, .cls-32, .cls-33, .cls-34, .cls-35, .cls-36, .cls-37, .cls-38, .cls-39, .cls-40, .cls-41, .cls-42, .cls-43, .cls-44, .cls-45, .cls-46, .cls-47, .cls-48, .cls-49, .cls-50, .cls-51, .cls-52, .cls-53, .cls-54, .cls-55, .cls-56, .cls-57, .cls-58, .cls-59, .cls-60, .cls-61, .cls-62, .cls-63, .cls-64, .cls-65, .cls-66, .cls-67, .cls-68, .cls-69, .cls-70, .cls-71, .cls-72 {
        stroke-width: 0px;
      }

      .cls-2 {
        fill: url(#radial-gradient);
      }

      .cls-3 {
        fill: url(#linear-gradient-25);
      }

      .cls-4 {
        fill: url(#linear-gradient-11);
      }

      .cls-5 {
        fill: url(#linear-gradient-12);
      }

      .cls-6 {
        fill: url(#linear-gradient-13);
      }

      .cls-7 {
        fill: url(#linear-gradient-10);
      }

      .cls-8 {
        fill: url(#linear-gradient-17);
      }

      .cls-9 {
        fill: url(#linear-gradient-16);
      }

      .cls-10 {
        fill: url(#linear-gradient-19);
      }

      .cls-11 {
        fill: url(#linear-gradient-15);
      }

      .cls-12 {
        fill: url(#linear-gradient-23);
      }

      .cls-13 {
        fill: url(#linear-gradient-21);
      }

      .cls-14 {
        fill: url(#linear-gradient-18);
      }

      .cls-15 {
        fill: url(#linear-gradient-14);
      }

      .cls-16 {
        fill: url(#linear-gradient-22);
      }

      .cls-17 {
        fill: url(#linear-gradient-20);
      }

      .cls-18 {
        fill: url(#linear-gradient-27);
      }

      .cls-19 {
        fill: url(#linear-gradient-24);
      }

      .cls-20 {
        fill: url(#linear-gradient-26);
      }

      .cls-21 {
        fill: url(#_ÂÁ_Ï_ÌÌ_È_ËÂÌÚ_359);
      }

      .cls-22 {
        fill: url(#_ÂÁ_Ï_ÌÌ_È_ËÂÌÚ_152);
      }

      .cls-23 {
        fill: url(#_ÂÁ_Ï_ÌÌ_È_ËÂÌÚ_148);
      }

      .cls-24 {
        fill: url(#_ÂÁ_Ï_ÌÌ_È_ËÂÌÚ_149);
      }

      .cls-25 {
        fill: url(#_ÂÁ_Ï_ÌÌ_È_ËÂÌÚ_122);
      }

      .cls-26 {
        fill: url(#_ÂÁ_Ï_ÌÌ_È_ËÂÌÚ_124);
      }

      .cls-27 {
        fill: url(#_ÂÁ_Ï_ÌÌ_È_ËÂÌÚ_45-2);
      }

      .cls-28 {
        fill: url(#_ÂÁ_Ï_ÌÌ_È_ËÂÌÚ_1008);
      }

      .cls-29 {
        fill: url(#_ÂÁ_Ï_ÌÌ_È_ËÂÌÚ_1057);
      }

      .cls-30 {
        fill: url(#_ÂÁ_Ï_ÌÌ_È_ËÂÌÚ_1204);
      }

      .cls-31 {
        fill: url(#_ÂÁ_Ï_ÌÌ_È_ËÂÌÚ_1005);
      }

      .cls-32 {
        fill: url(#_ÂÁ_Ï_ÌÌ_È_ËÂÌÚ_1006);
      }

      .cls-33 {
        fill: url(#_ÂÁ_Ï_ÌÌ_È_ËÂÌÚ_148-2);
      }

      .cls-34 {
        fill: url(#_ÂÁ_Ï_ÌÌ_È_ËÂÌÚ_148-3);
      }

      .cls-35 {
        fill: url(#_ÂÁ_Ï_ÌÌ_È_ËÂÌÚ_122-2);
      }

      .cls-36 {
        fill: url(#_ÂÁ_Ï_ÌÌ_È_ËÂÌÚ_122-3);
      }

      .cls-37 {
        fill: url(#_ÂÁ_Ï_ÌÌ_È_ËÂÌÚ_122-5);
      }

      .cls-38 {
        fill: url(#_ÂÁ_Ï_ÌÌ_È_ËÂÌÚ_122-4);
      }

      .cls-39 {
        fill: url(#_ÂÁ_Ï_ÌÌ_È_ËÂÌÚ_122-6);
      }

      .cls-40 {
        fill: url(#radial-gradient-2);
      }

      .cls-41 {
        fill: url(#radial-gradient-3);
      }

      .cls-42 {
        fill: url(#radial-gradient-4);
      }

      .cls-43 {
        fill: url(#linear-gradient-4);
      }

      .cls-44 {
        fill: url(#linear-gradient-2);
      }

      .cls-45 {
        fill: url(#linear-gradient-3);
      }

      .cls-46 {
        fill: url(#linear-gradient-8);
      }

      .cls-47 {
        fill: url(#linear-gradient-9);
      }

      .cls-48 {
        fill: url(#linear-gradient-7);
      }

      .cls-49 {
        fill: url(#linear-gradient-5);
      }

      .cls-50 {
        fill: url(#linear-gradient-6);
      }

      .cls-51 {
        fill: url(#_ÂÁ_Ï_ÌÌ_È_ËÂÌÚ_1008-2);
      }

      .cls-52 {
        fill: url(#_ÂÁ_Ï_ÌÌ_È_ËÂÌÚ_1057-3);
      }

      .cls-53 {
        fill: url(#_ÂÁ_Ï_ÌÌ_È_ËÂÌÚ_1057-2);
      }

      .cls-54 {
        fill: url(#_ÂÁ_Ï_ÌÌ_È_ËÂÌÚ_1057-4);
      }

      .cls-55 {
        fill: url(#_ÂÁ_Ï_ÌÌ_È_ËÂÌÚ_1204-2);
      }

      .cls-56 {
        fill: url(#_ÂÁ_Ï_ÌÌ_È_ËÂÌÚ_1204-4);
      }

      .cls-57 {
        fill: url(#_ÂÁ_Ï_ÌÌ_È_ËÂÌÚ_1204-3);
      }

      .cls-58 {
        fill: url(#_ÂÁ_Ï_ÌÌ_È_ËÂÌÚ_1204-6);
      }

      .cls-59 {
        fill: url(#_ÂÁ_Ï_ÌÌ_È_ËÂÌÚ_1204-5);
      }

      .cls-60 {
        fill: #f3eceb;
      }

      .cls-61 {
        fill: #f6ece6;
      }

      .cls-62 {
        fill: #f7d4ab;
      }

      .cls-63 {
        fill: #711e22;
      }

      .cls-64 {
        fill: #ddd;
      }

      .cls-65 {
        fill: #e1b18c;
      }

      .cls-66 {
        fill: #dca57b;
      }

      .cls-67 {
        fill: #feb621;
      }

      .cls-68 {
        fill: #f1f0f4;
      }

      .cls-69 {
        fill: #fff;
      }

      .cls-70 {
        fill: #f0c499;
      }

      .cls-71 {
        fill: #fdd8b3;
      }

      .cls-72 {
        fill: url(#_ÂÁ_Ï_ÌÌ_È_ËÂÌÚ_45);
      }
    </style>
    <linearGradient id="linear-gradient" x1="199.41" y1="228.88" x2="173.2" y2="498.39" gradientUnits="userSpaceOnUse">
      <stop offset="0" stop-color="#ed9d2b"/>
      <stop offset=".4" stop-color="#f0a228"/>
      <stop offset=".93" stop-color="#fcb322"/>
      <stop offset="1" stop-color="#feb621"/>
    </linearGradient>
    <linearGradient id="linear-gradient-2" x1="302.7" y1="238.35" x2="276.86" y2="504.12" xlink:href="#linear-gradient"/>
    <linearGradient id="linear-gradient-3" x1="204.76" y1="354.69" x2="330.09" y2="379.8" gradientUnits="userSpaceOnUse">
      <stop offset="0" stop-color="#f0c499"/>
      <stop offset="1" stop-color="#f7d4ab"/>
    </linearGradient>
    <linearGradient id="linear-gradient-4" x1="251.61" y1="518.72" x2="242.61" y2="372.74" gradientUnits="userSpaceOnUse">
      <stop offset="0" stop-color="#feb621"/>
      <stop offset=".59" stop-color="#fec042"/>
      <stop offset="1" stop-color="#ffc755"/>
    </linearGradient>
    <linearGradient id="linear-gradient-5" x1="241.83" y1="342.2" x2="253.84" y2="445.04" xlink:href="#linear-gradient"/>
    <linearGradient id="linear-gradient-6" x1="333.83" y1="219" x2="348.2" y2="253.85" gradientUnits="userSpaceOnUse">
      <stop offset="0" stop-color="#dba379"/>
      <stop offset=".49" stop-color="#e3b086"/>
      <stop offset="1" stop-color="#f0c499"/>
    </linearGradient>
    <linearGradient id="linear-gradient-7" x1="143.11" y1="214.41" x2="162.19" y2="260.7" xlink:href="#linear-gradient-6"/>
    <linearGradient id="linear-gradient-8" x1="245.5" y1="117.96" x2="243.62" y2="218.09" gradientUnits="userSpaceOnUse">
      <stop offset="0" stop-color="#ffd9b3"/>
      <stop offset=".28" stop-color="#fbd6af"/>
      <stop offset="1" stop-color="#f7d4ab"/>
    </linearGradient>
    <linearGradient id="linear-gradient-9" x1="292.25" y1="241.14" x2="289.36" y2="207.18" gradientUnits="userSpaceOnUse">
      <stop offset="0" stop-color="#f7d4ab"/>
      <stop offset=".52" stop-color="#f5d1a8"/>
      <stop offset=".85" stop-color="#f2c99f"/>
      <stop offset="1" stop-color="#f0c499"/>
    </linearGradient>
    <radialGradient id="radial-gradient" cx="101.47" cy="-364.32" fx="101.47" fy="-364.32" r="44.35" gradientTransform="translate(426.58 511.81) rotate(177.91) scale(1.02 -.71) skewX(-1.54)" gradientUnits="userSpaceOnUse">
      <stop offset="0" stop-color="#f8c39c"/>
      <stop offset="1" stop-color="#f7d4ab"/>
    </radialGradient>
    <linearGradient id="linear-gradient-10" x1="199.65" y1="242.32" x2="196.79" y2="208.75" xlink:href="#linear-gradient-9"/>
    <linearGradient id="linear-gradient-11" x1="246.03" y1="316.14" x2="248.17" y2="354.03" gradientUnits="userSpaceOnUse">
      <stop offset="0" stop-color="#ffd9b3"/>
      <stop offset="1" stop-color="#f7d4ab"/>
    </linearGradient>
    <radialGradient id="radial-gradient-2" cx="320.3" cy="-445.65" fx="320.3" fy="-445.65" r="45.48" gradientTransform="translate(-91.59 581.58) rotate(-3.55) scale(1.02 .69) skewX(2.86)" xlink:href="#radial-gradient"/>
    <linearGradient id="linear-gradient-12" x1="185.09" y1="80.97" x2="175.15" y2="309.22" gradientUnits="userSpaceOnUse">
      <stop offset="0" stop-color="#f7d4ab"/>
      <stop offset=".45" stop-color="#f3caa0"/>
      <stop offset="1" stop-color="#f0c499"/>
    </linearGradient>
    <linearGradient id="linear-gradient-13" x1="317.98" y1="80.9" x2="307.56" y2="320.22" xlink:href="#linear-gradient-12"/>
    <linearGradient id="_ÂÁ_Ï_ÌÌ_È_ËÂÌÚ_1005" data-name="¡ÂÁ˚ÏˇÌÌ˚È „‡‰ËÂÌÚ 1005" x1="265.83" y1="189.93" x2="316.41" y2="189.93" gradientUnits="userSpaceOnUse">
      <stop offset="0" stop-color="#704b25"/>
      <stop offset=".32" stop-color="#744d26"/>
      <stop offset=".66" stop-color="#80552b"/>
      <stop offset="1" stop-color="#956134"/>
    </linearGradient>
    <linearGradient id="_ÂÁ_Ï_ÌÌ_È_ËÂÌÚ_359" data-name="¡ÂÁ˚ÏˇÌÌ˚È „‡‰ËÂÌÚ 359" x1="172.85" y1="190.05" x2="225.33" y2="190.05" gradientUnits="userSpaceOnUse">
      <stop offset="0" stop-color="#956134"/>
      <stop offset=".34" stop-color="#80552b"/>
      <stop offset=".68" stop-color="#744d26"/>
      <stop offset="1" stop-color="#704b25"/>
    </linearGradient>
    <linearGradient id="linear-gradient-14" x1="238.2" y1="102.56" x2="247.7" y2="216.84" xlink:href="#linear-gradient-12"/>
    <linearGradient id="linear-gradient-15" x1="242.05" y1="188.51" x2="243.88" y2="265.15" gradientUnits="userSpaceOnUse">
      <stop offset="0" stop-color="#ffd9b3"/>
      <stop offset=".2" stop-color="#fcd7b0"/>
      <stop offset="1" stop-color="#f7d4ab"/>
    </linearGradient>
    <linearGradient id="linear-gradient-16" x1="242.8" y1="227.07" x2="243.7" y2="258.62" xlink:href="#linear-gradient-9"/>
    <linearGradient id="linear-gradient-17" x1="242.08" y1="269.12" x2="245.1" y2="246.88" xlink:href="#linear-gradient-8"/>
    <linearGradient id="_ÂÁ_Ï_ÌÌ_È_ËÂÌÚ_1008" data-name="¡ÂÁ˚ÏˇÌÌ˚È „‡‰ËÂÌÚ 1008" x1="176.71" y1="212.8" x2="228.06" y2="227.26" gradientUnits="userSpaceOnUse">
      <stop offset="0" stop-color="#f0c499"/>
      <stop offset=".51" stop-color="#e3b086"/>
      <stop offset="1" stop-color="#dba379"/>
    </linearGradient>
    <linearGradient id="_ÂÁ_Ï_ÌÌ_È_ËÂÌÚ_45" data-name="¡ÂÁ˚ÏˇÌÌ˚È „‡‰ËÂÌÚ 45" x1="221.21" y1="227.15" x2="186.91" y2="218.87" gradientUnits="userSpaceOnUse">
      <stop offset="0" stop-color="#fff"/>
      <stop offset=".47" stop-color="#fcfcfc"/>
      <stop offset=".77" stop-color="#f5f3f3"/>
      <stop offset="1" stop-color="#ece7e7"/>
    </linearGradient>
    <linearGradient id="_ÂÁ_Ï_ÌÌ_È_ËÂÌÚ_1057" data-name="¡ÂÁ˚ÏˇÌÌ˚È „‡‰ËÂÌÚ 1057" x1="214.75" y1="223.04" x2="180.22" y2="224.42" gradientUnits="userSpaceOnUse">
      <stop offset="0" stop-color="#b89c8c"/>
      <stop offset="1" stop-color="#715241"/>
    </linearGradient>
    <linearGradient id="_ÂÁ_Ï_ÌÌ_È_ËÂÌÚ_1057-2" data-name="¡ÂÁ˚ÏˇÌÌ˚È „‡‰ËÂÌÚ 1057" x1="201.19" y1="263.83" x2="201.44" y2="223.03" xlink:href="#_ÂÁ_Ï_ÌÌ_È_ËÂÌÚ_1057"/>
    <radialGradient id="radial-gradient-3" cx="208.85" cy="228.15" fx="208.85" fy="228.15" r="23.08" gradientUnits="userSpaceOnUse">
      <stop offset="0" stop-color="#2a3a3b"/>
      <stop offset="1" stop-color="#1c2727"/>
    </radialGradient>
    <linearGradient id="_ÂÁ_Ï_ÌÌ_È_ËÂÌÚ_1006" data-name="¡ÂÁ˚ÏˇÌÌ˚È „‡‰ËÂÌÚ 1006" x1="180.45" y1="215.64" x2="218.17" y2="213.85" gradientUnits="userSpaceOnUse">
      <stop offset="0" stop-color="#372512"/>
      <stop offset=".32" stop-color="#3b2713"/>
      <stop offset=".66" stop-color="#472f18"/>
      <stop offset="1" stop-color="#5c3c20"/>
    </linearGradient>
    <linearGradient id="_ÂÁ_Ï_ÌÌ_È_ËÂÌÚ_1008-2" data-name="¡ÂÁ˚ÏˇÌÌ˚È „‡‰ËÂÌÚ 1008" x1="178.3" y1="226.06" x2="213.14" y2="235.87" xlink:href="#_ÂÁ_Ï_ÌÌ_È_ËÂÌÚ_1008"/>
    <linearGradient id="_ÂÁ_Ï_ÌÌ_È_ËÂÌÚ_1204" data-name="¡ÂÁ˚ÏˇÌÌ˚È „‡‰ËÂÌÚ 1204" x1="265.77" y1="214.38" x2="315.91" y2="228.5" gradientUnits="userSpaceOnUse">
      <stop offset="0" stop-color="#dba379"/>
      <stop offset=".49" stop-color="#e3b086"/>
      <stop offset="1" stop-color="#f0c499"/>
    </linearGradient>
    <linearGradient id="_ÂÁ_Ï_ÌÌ_È_ËÂÌÚ_45-2" data-name="¡ÂÁ˚ÏˇÌÌ˚È „‡‰ËÂÌÚ 45" x1="309.3" y1="227.34" x2="275.88" y2="219.27" xlink:href="#_ÂÁ_Ï_ÌÌ_È_ËÂÌÚ_45"/>
    <linearGradient id="_ÂÁ_Ï_ÌÌ_È_ËÂÌÚ_1057-3" data-name="¡ÂÁ˚ÏˇÌÌ˚È „‡‰ËÂÌÚ 1057" x1="300.54" y1="222.98" x2="266.02" y2="224.37" xlink:href="#_ÂÁ_Ï_ÌÌ_È_ËÂÌÚ_1057"/>
    <linearGradient id="_ÂÁ_Ï_ÌÌ_È_ËÂÌÚ_1057-4" data-name="¡ÂÁ˚ÏˇÌÌ˚È „‡‰ËÂÌÚ 1057" x1="288.35" y1="263.02" x2="288.6" y2="222.87" xlink:href="#_ÂÁ_Ï_ÌÌ_È_ËÂÌÚ_1057"/>
    <radialGradient id="radial-gradient-4" cx="294.79" fx="294.79" r="23.08" xlink:href="#radial-gradient-3"/>
    <linearGradient id="_ÂÁ_Ï_ÌÌ_È_ËÂÌÚ_124" data-name="¡ÂÁ˚ÏˇÌÌ˚È „‡‰ËÂÌÚ 124" x1="269.74" y1="216.1" x2="307.38" y2="214.31" gradientUnits="userSpaceOnUse">
      <stop offset="0" stop-color="#5c3c20"/>
      <stop offset=".34" stop-color="#472f18"/>
      <stop offset=".68" stop-color="#3b2713"/>
      <stop offset="1" stop-color="#372512"/>
    </linearGradient>
    <linearGradient id="_ÂÁ_Ï_ÌÌ_È_ËÂÌÚ_1204-2" data-name="¡ÂÁ˚ÏˇÌÌ˚È „‡‰ËÂÌÚ 1204" x1="279.42" y1="223.84" x2="309.36" y2="232.27" xlink:href="#_ÂÁ_Ï_ÌÌ_È_ËÂÌÚ_1204"/>
    <linearGradient id="linear-gradient-18" x1="322.19" y1="236.21" x2="294.91" y2="245.61" gradientUnits="userSpaceOnUse">
      <stop offset="0" stop-color="#fbd6af"/>
      <stop offset="1" stop-color="#f7d4ab"/>
    </linearGradient>
    <linearGradient id="linear-gradient-19" x1="199.19" y1="245.63" x2="158.71" y2="235.74" xlink:href="#linear-gradient-18"/>
    <linearGradient id="_ÂÁ_Ï_ÌÌ_È_ËÂÌÚ_1204-3" data-name="¡ÂÁ˚ÏˇÌÌ˚È „‡‰ËÂÌÚ 1204" x1="246.18" y1="331.79" x2="252.84" y2="381.06" xlink:href="#_ÂÁ_Ï_ÌÌ_È_ËÂÌÚ_1204"/>
    <linearGradient id="linear-gradient-20" x1="288.81" y1="348.12" x2="287.49" y2="267.98" gradientUnits="userSpaceOnUse">
      <stop offset="0" stop-color="#f7d4ab"/>
      <stop offset=".53" stop-color="#f6d1a8"/>
      <stop offset=".87" stop-color="#f2c99f"/>
      <stop offset="1" stop-color="#f1c59a"/>
    </linearGradient>
    <linearGradient id="linear-gradient-21" x1="201.29" y1="337.84" x2="200.14" y2="268.18" xlink:href="#linear-gradient-20"/>
    <linearGradient id="_ÂÁ_Ï_ÌÌ_È_ËÂÌÚ_1204-4" data-name="¡ÂÁ˚ÏˇÌÌ˚È „‡‰ËÂÌÚ 1204" x1="248.04" y1="358.99" x2="246.29" y2="308.43" xlink:href="#_ÂÁ_Ï_ÌÌ_È_ËÂÌÚ_1204"/>
    <linearGradient id="linear-gradient-22" x1="214.76" y1="297.96" x2="278.12" y2="299.04" gradientUnits="userSpaceOnUse">
      <stop offset="0" stop-color="#e8d9d7"/>
      <stop offset=".14" stop-color="#efe5e4"/>
      <stop offset=".39" stop-color="#faf8f7"/>
      <stop offset=".57" stop-color="#fff"/>
      <stop offset="1" stop-color="#e8d3d1"/>
    </linearGradient>
    <linearGradient id="_ÂÁ_Ï_ÌÌ_È_ËÂÌÚ_1204-5" data-name="¡ÂÁ˚ÏˇÌÌ˚È „‡‰ËÂÌÚ 1204" x1="248.06" y1="357.93" x2="246.36" y2="308.84" xlink:href="#_ÂÁ_Ï_ÌÌ_È_ËÂÌÚ_1204"/>
    <linearGradient id="linear-gradient-23" x1="244.15" y1="273.98" x2="245.16" y2="297.69" gradientUnits="userSpaceOnUse">
      <stop offset="0" stop-color="#e8d9d7"/>
      <stop offset=".4" stop-color="#efe5e3"/>
      <stop offset="1" stop-color="#fff"/>
    </linearGradient>
    <linearGradient id="_ÂÁ_Ï_ÌÌ_È_ËÂÌÚ_1204-6" data-name="¡ÂÁ˚ÏˇÌÌ˚È „‡‰ËÂÌÚ 1204" x1="246.71" y1="367.34" x2="245.03" y2="265.61" xlink:href="#_ÂÁ_Ï_ÌÌ_È_ËÂÌÚ_1204"/>
    <linearGradient id="_ÂÁ_Ï_ÌÌ_È_ËÂÌÚ_122" data-name="¡ÂÁ˚ÏˇÌÌ˚È „‡‰ËÂÌÚ 122" x1="251.81" y1="70.13" x2="239.85" y2="255.55" gradientUnits="userSpaceOnUse">
      <stop offset="0" stop-color="#a3763d"/>
      <stop offset=".14" stop-color="#966b36"/>
      <stop offset=".44" stop-color="#80592c"/>
      <stop offset=".73" stop-color="#744e27"/>
      <stop offset="1" stop-color="#704b25"/>
    </linearGradient>
    <linearGradient id="_ÂÁ_Ï_ÌÌ_È_ËÂÌÚ_148" data-name="¡ÂÁ˚ÏˇÌÌ˚È „‡‰ËÂÌÚ 148" x1="279.98" y1="135.95" x2="418.62" y2="81.1" gradientUnits="userSpaceOnUse">
      <stop offset="0" stop-color="#704b25"/>
      <stop offset=".27" stop-color="#744e27"/>
      <stop offset=".56" stop-color="#80592c"/>
      <stop offset=".86" stop-color="#966b36"/>
      <stop offset="1" stop-color="#a3763d"/>
    </linearGradient>
    <linearGradient id="_ÂÁ_Ï_ÌÌ_È_ËÂÌÚ_148-2" data-name="¡ÂÁ˚ÏˇÌÌ˚È „‡‰ËÂÌÚ 148" x1="273.47" y1="123.11" x2="331.77" y2="61.39" xlink:href="#_ÂÁ_Ï_ÌÌ_È_ËÂÌÚ_148"/>
    <linearGradient id="_ÂÁ_Ï_ÌÌ_È_ËÂÌÚ_122-2" data-name="¡ÂÁ˚ÏˇÌÌ˚È „‡‰ËÂÌÚ 122" x1="151.27" y1="112.88" x2="163.72" y2="224.91" xlink:href="#_ÂÁ_Ï_ÌÌ_È_ËÂÌÚ_122"/>
    <linearGradient id="_ÂÁ_Ï_ÌÌ_È_ËÂÌÚ_152" data-name="¡ÂÁ˚ÏˇÌÌ˚È „‡‰ËÂÌÚ 152" x1="221.14" y1="118.44" x2="274.32" y2="43.48" gradientUnits="userSpaceOnUse">
      <stop offset="0" stop-color="#e0b163"/>
      <stop offset=".22" stop-color="#d1a35a"/>
      <stop offset="1" stop-color="#a3753d"/>
    </linearGradient>
    <linearGradient id="_ÂÁ_Ï_ÌÌ_È_ËÂÌÚ_122-3" data-name="¡ÂÁ˚ÏˇÌÌ˚È „‡‰ËÂÌÚ 122" x1="342.24" y1="100.26" x2="352.72" y2="167.03" xlink:href="#_ÂÁ_Ï_ÌÌ_È_ËÂÌÚ_122"/>
    <linearGradient id="_ÂÁ_Ï_ÌÌ_È_ËÂÌÚ_148-3" data-name="¡ÂÁ˚ÏˇÌÌ˚È „‡‰ËÂÌÚ 148" x1="243.89" y1="223.85" x2="265.31" y2="-193.21" xlink:href="#_ÂÁ_Ï_ÌÌ_È_ËÂÌÚ_148"/>
    <linearGradient id="_ÂÁ_Ï_ÌÌ_È_ËÂÌÚ_122-4" data-name="¡ÂÁ˚ÏˇÌÌ˚È „‡‰ËÂÌÚ 122" x1="324.93" y1="70.45" x2="171.8" y2="112.32" xlink:href="#_ÂÁ_Ï_ÌÌ_È_ËÂÌÚ_122"/>
    <linearGradient id="_ÂÁ_Ï_ÌÌ_È_ËÂÌÚ_149" data-name="¡ÂÁ˚ÏˇÌÌ˚È „‡‰ËÂÌÚ 149" x1="172.81" y1="111.85" x2="401.57" y2="110.95" gradientUnits="userSpaceOnUse">
      <stop offset="0" stop-color="#a3753d"/>
      <stop offset=".78" stop-color="#d1a35a"/>
      <stop offset="1" stop-color="#e0b163"/>
    </linearGradient>
    <linearGradient id="_ÂÁ_Ï_ÌÌ_È_ËÂÌÚ_122-5" data-name="¡ÂÁ˚ÏˇÌÌ˚È „‡‰ËÂÌÚ 122" x1="354.21" y1="113.94" x2="345.95" y2="220.25" xlink:href="#_ÂÁ_Ï_ÌÌ_È_ËÂÌÚ_122"/>
    <linearGradient id="_ÂÁ_Ï_ÌÌ_È_ËÂÌÚ_122-6" data-name="¡ÂÁ˚ÏˇÌÌ˚È „‡‰ËÂÌÚ 122" x1="338.93" y1="79.02" x2="332.54" y2="165.97" xlink:href="#_ÂÁ_Ï_ÌÌ_È_ËÂÌÚ_122"/>
    <linearGradient id="linear-gradient-24" x1="178.58" y1="429.63" x2="160.01" y2="128.57" xlink:href="#linear-gradient-4"/>
    <linearGradient id="linear-gradient-25" x1="324" y1="419.4" x2="306.7" y2="139.08" xlink:href="#linear-gradient-4"/>
    <linearGradient id="linear-gradient-26" x1="278.19" y1="401.45" x2="278.47" y2="423.38" xlink:href="#linear-gradient"/>
    <linearGradient id="linear-gradient-27" x1="213.97" y1="401.74" x2="214.26" y2="424.31" xlink:href="#linear-gradient"/>
  </defs>
  <g id="Layer_1-2" data-name="Layer 1">
    <g>
      <ellipse class="cls-61" cx="246.76" cy="249.87" rx="246.76" ry="249.87"/>
      <path class="cls-1" d="m150.07,288.53c-22.67,47.74,9.78,85.58,28.2,100.59,18.42,15,51.67,23.86,51.67,23.86l13.22-183.64s-77.35,26.05-93.09,59.19Z"/>
      <path class="cls-44" d="m248.51,229.34l13.22,183.64s33.26-8.86,51.67-23.86c18.42-15,50.87-52.84,28.2-100.59-15.74-33.14-93.09-59.19-93.09-59.19Z"/>
      <path class="cls-45" d="m303.3,355.65c-.89-4.13-4.16-46.56-4.16-46.56l-106.16-4.55-.2,50.6c-9.88,7.03-31.57,13.95-31.57,13.95-1.47,16.49,36.6,57.9,83.2,55.7,60.18-2.84,88.4-55.7,88.4-55.7,0,0-28.61-9.32-29.5-13.45Z"/>
      <path class="cls-62" d="m189.49,367.31c32.79,33.31,54.39,47.83,59.66,45.67,17.05-6.97,53.94-49.04,53.94-49.04,0,0-27.85,22.32-52.39,32.75-18.96-1.43-61.21-29.38-61.21-29.38Z"/>
      <path class="cls-67" d="m246.76,499.74c68.55,0,130.56-28.31,175.27-74,.09-11.78.08-19.62.08-19.62-25.98-18.71-92.96-44.16-92.96-44.16,0,0-50.55,57.23-81.94,59.67-36.74,2.86-84.96-59.67-84.96-59.67-64.79,22.76-94.77,42.82-94.77,42.82.64,1.28.84,7.96.93,17.77,44.93,47.56,108.22,77.19,178.35,77.19Z"/>
      <path class="cls-43" d="m248.73,449.85c-61.91-1.75-84.88-9.01-124.6,14.35-.7.41-1.38.86-2.04,1.33,36.59,21.73,79.19,34.21,124.67,34.21s90.45-13.17,127.71-36.03c-.6-.78-1.23-1.52-1.89-2.17-22.2-22.2-61.94-9.94-123.85-11.69Z"/>
      <path class="cls-67" d="m58.64,411.56c5.14,6.13,10.57,12,16.26,17.59-4.15-13.7-7.42-24.38-7.42-24.38-3.15,1.97-6.08,4.25-8.84,6.78Z"/>
      <path class="cls-67" d="m432.62,414.21c-3.22-2.82-6.69-5.53-10.52-8.09,0,0-3.95,12.64-8.67,27.99,6.75-6.27,13.16-12.91,19.19-19.89Z"/>
      <path class="cls-49" d="m247.21,421.62c-16.74,0-92.6-58.43-92.6-58.43l-28.94,12.73s2.26,5.39,8.64,12.65c13.37,15.21,85.27,36.71,111.53,37.68,27.26,1.01,101.64-29.75,110.01-35.83,8.65-6.28,10.16-13.34,10.16-13.34l-28.79-12.36c-3.57,7.8-86.31,56.91-90.01,56.91Z"/>
      <path class="cls-70" d="m343.42,209.74c-13.23.63-25.95,59.35-13.71,59.3,4.29-.02,13.34-4.1,20.32-35.8,0,0,11.92-24.39-6.61-23.5Z"/>
      <path class="cls-50" d="m338.11,237.92c.38,11.91-5.45,17.39-5.45,17.39,0,0,7.96-7.18,10.23-14.48,4.33-14.05-1.05-16.39,1.98-19.41,2.47-2.46,3.93,6.69,3.93,6.69,5.91-18.56-11.58-18.29-10.69,9.81Z"/>
      <path class="cls-70" d="m148.59,209.74c-18.52-.89-6.61,23.5-6.61,23.5,6.97,31.7,16.08,36.41,20.32,35.8,15.94-2.28-.48-58.67-13.71-59.3Z"/>
      <path class="cls-48" d="m153.89,237.92c.89-28.1-16.6-28.37-10.69-9.81,0,0,1.46-9.15,3.93-6.69,3.03,3.02-2.35,5.36,1.98,19.41,2.27,7.3,10.23,14.48,10.23,14.48,0,0-5.83-5.48-5.45-17.39Z"/>
      <path class="cls-46" d="m229.1,78.84c-67.85,2.9-75.14,61.03-75.14,61.03,0,0,.51,75.26,1.44,83.02.94,7.77,7.98,63.04,11.56,71.3,3.58,8.26,49.57,58.52,62.14,62.19,12.57,3.67,29.03,3.28,38.78,0,9.35-3.15,52.76-57.79,54.62-64.9,2.24-8.59,10-47.61,11.87-68.28,1.87-20.67-1.9-90.85-3.77-96.15-1.87-5.3-7.34-52.23-101.5-48.21Z"/>
      <path class="cls-47" d="m313.5,191.73c-17.23-13.08-47.81,3.29-47.81,3.29-1.19,6.87-11.1,36.79-6.6,39.17,28.13,14.84,65.35-4.13,65.35-4.13.27-19.52-7.89-36.02-10.94-38.33Z"/>
      <path class="cls-2" d="m294.33,287.76c15.76,1.04,33.37-.93,36.67-32.97,1.88-18.26-.11-27.78-7.91-29.21-16.54-3.04-40.26,4.07-50.13,9.12-20.87,10.67-6.55,51.21,21.37,53.06Z"/>
      <path class="cls-7" d="m174.18,195.39c-3.03,2.31-8.97,15.16-8.71,34.67,0,0,36.96,18.97,64.9,4.13,4.47-2.38-4.48-33.57-5.67-40.44,0,0-33.41-11.44-50.52,1.63Z"/>
      <path class="cls-4" d="m248.05,329.58c-6.62.03-23.2,4.42-22.72,6.79,1.45,7.19,16.81,8.39,23.42,8.36,6.62-.03,20.01-1.68,20.29-7.82.11-2.41-14.38-7.37-21-7.34Z"/>
      <path class="cls-40" d="m215.65,232c-4.51-1.62-38.8-9.29-49.02-6.36-5.83,1.67-3.39,14.53-2.41,26.75.47,5.86.39,15.24,1.74,18.92,6.6,18.07,31.77,18.86,46.29,13.82,24.8-8.6,26.25-44.95,3.4-53.14Z"/>
      <path class="cls-5" d="m162.41,191.98l-8.43,2.37.06,19.42s8.94,75.37,12.94,81.5c4,6.13,17.9,23.75,33.32,37.6,0,0-26.11-36.55-27.76-42.47-1.65-5.92-10.13-98.41-10.13-98.41Z"/>
      <path class="cls-6" d="m317.76,290.4c-1.65,5.92-35.06,52.94-35.06,52.94,15.42-13.84,36.63-43.01,40.63-49.14,4-6.13,12.43-74.21,12.43-74.21l.55-25.63-8.43-2.37s-8.48,92.49-10.13,98.41Z"/>
      <path class="cls-31" d="m308.77,185.88c-15.97-6.13-30.87-2.74-33.98-2.3-3.74,2.69-5.44,6.71-6.59,8.82.61-2.1-.68-3.31,3.15-7.18-7.99,3.36-4.97,10.69-4.97,10.69,3.55-1.41,17.38-3.14,28.31-2.71,12.51.49,21.72,4.43,21.72,4.43,0,0-2.88-9.91-7.64-11.74Z"/>
      <path class="cls-21" d="m219.62,185.22c3.97,3.86,2.62,5.08,3.25,7.17-1.19-2.1-2.94-6.12-6.81-8.8-3.22-.42-18.65-3.77-35.24,2.42-4.94,1.84-7.96,11.77-7.96,11.77,0,0,9.56-3.98,22.54-4.5,11.34-.46,25.68,1.23,29.35,2.62,0,0,3.15-7.34-5.12-10.68Z"/>
      <path class="cls-15" d="m320.55,127.26c-45.93-3.44-148.57-5.22-159.22-4.99-10.65.23-.91,100.62-.91,100.62,0,0,6.09-37.65,8.59-49.14.61-2.81,13.65-28.46,17.36-32.74,3.67-4.24,26.37,2.25,58.3,1.57,21.54-.46,45.95-3.9,52.67-2.59,2.26.44,21.33,27.95,22.37,32.01,3.16,12.38,15.28,53.25,15.28,53.25,0,0-2.64-97.12-14.43-98Z"/>
      <path class="cls-11" d="m249.72,239.36c.76-16.84-4.48-19.26-8.35-19.11-3.77.15-5.85,5.98-5.09,18.83.76,12.79-1.46,17.7-.96,23.69.24,2.73,1.36,4.51,7.5,4.57,6.75.06,9.09-1.74,9.38-4.29.79-6.98-3.03-11.55-2.49-23.69Z"/>
      <path class="cls-66" d="m249.14,272.1c9.12-2.55,13.94-3.51,13.94-3.51-8.17-6.49-13.94,3.51-13.94,3.51Z"/>
      <path class="cls-66" d="m224.62,267.71s6.73,1.75,13.9,4.48c0,0-5.41-9.96-13.9-4.48Z"/>
      <path class="cls-9" d="m258.28,262.23c-2.54,5.34-13.01,7-14.66,7.02-1.98-.09-12.8-1.25-16.05-6.86-1.32-2.29.08-10.47.83-14.66,0,0-9.86,19.6-3.78,19.97,0,0,1.59-1.34,5.95-.9,4.36.45,2.52,7.16,13.48,7.16,8.73,0,5.95-5.82,11.5-6.72,5.55-.89,6.27.72,7.53,1.34,4.79-.61.48-12.63-6.03-21.83,1.7,4.65,2.37,13.06,1.23,15.46Z"/>
      <path class="cls-8" d="m231.57,260.56c-.38,2.74,5.84,7.36,11.98,7.42,6.75.06,11.92-5.76,11.36-8.28-3.33-14.95-21.93-9.35-23.34.86Z"/>
      <g>
        <path class="cls-28" d="m207.37,205.93c-4.67-.27-21.38,1.26-24.72,4.01-5.95,4.89-8.05,9.33-7.53,14.94.15,1.65,6.51,8,20.03,9.09,10.12.83,26.19.03,30.08-4.47,1.87-2.16-.54-10.78-1.29-13.83-1.42-5.77-2.35-8.92-16.56-9.74Z"/>
        <path class="cls-72" d="m210.06,211.91c-22.66-2.75-21.3.67-30.48,11.33,0,0,.16,1.68,1.39,3.58,1.27,1.96,4.91,4.68,9.44,5.55,14.55,2.8,19.19.73,25.39-.55,2.64-.54,5.57-3.09,5.5-4.23,0,0,.48-4.73-1.41-8.93-1.45-3.23-4.3-6.07-9.84-6.74Z"/>
        <path class="cls-64" d="m179.58,223.24c.03.69.47,2.17,1.3,3.43,16.28-10.22,33.85-7.86,39.02-8.02-9.2-5.96-22.67-4.63-29.31-5.37-8.46-.93-11,9.96-11,9.96Z"/>
        <path class="cls-29" d="m201.73,213.23c-7.07.37-12.93,6.17-12.07,13.55.19,1.58.37,3.54,2.07,5.6,1.27.39,6.45,1.46,10.18,1.39,5.01.22,9.62-.75,10.79-1.16.3-.32,1.81-3.51,1.97-6.4.41-7.6-4.52-13.42-12.94-12.98Z"/>
        <path class="cls-53" d="m201.46,212.84c-7.09.49-10.5,5.8-11.45,9.34,0,0,8.26-3.7,22.9-3.65,0,0-3.36-6.25-11.45-5.69Z"/>
        <path class="cls-41" d="m201.96,215.36c-4.21.07-7.58,3.66-7.52,8.01.06,4.35,3.53,7.81,7.74,7.74,4.21-.09,7.57-3.67,7.51-8.02-.06-4.35-3.53-7.81-7.74-7.73Z"/>
        <path class="cls-32" d="m215.27,213.23c-7.99-4.52-20.1-4.34-27.88-.64-4.31,2.05-6.45,7.03-6.45,7.03,0,0,2.73-1.09,16.13-2.95,13.4-1.85,22.82,1.98,22.82,1.98,0,0-1.16-3.46-4.63-5.42Z"/>
        <g>
          <path class="cls-69" d="m210.33,223.49c-1.8-.24-3.43,1.16-3.62,3.09-.21,1.95,1.08,3.72,2.89,3.95,1.8.24,3.42-1.15,3.62-3.09.2-1.94-1.1-3.71-2.89-3.95Z"/>
          <path class="cls-69" d="m202.88,220.24c-1.42-.18-2.71.92-2.87,2.45-.16,1.53.85,2.92,2.28,3.1,1.42.18,2.7-.92,2.87-2.45.16-1.53-.86-2.92-2.28-3.1Z"/>
        </g>
        <path class="cls-51" d="m179.58,223.24c.19,10.55,22.49,12.53,33.12,9.37-28.78,2.7-33.12-9.37-33.12-9.37Z"/>
      </g>
      <g>
        <path class="cls-30" d="m307.43,209.93c-3.34-2.75-20.05-4.28-24.72-4.01-14.21.82-15.14,3.98-16.56,9.74-.76,3.05-3.16,11.67-1.29,13.83,3.89,4.49,19.96,5.29,30.08,4.47,13.52-1.1,19.88-7.45,20.03-9.09.51-5.61-1.58-10.05-7.53-14.94Z"/>
        <path class="cls-27" d="m280.01,211.91c-5.54.67-8.39,3.51-9.84,6.74-1.89,4.21-1.41,8.93-1.41,8.93-.07,1.14,2.86,3.69,5.5,4.23,6.2,1.27,10.84,3.34,25.39.55,4.53-.87,8.17-3.59,9.44-5.55,1.23-1.91,1.39-3.58,1.39-3.58-9.18-10.66-7.82-14.08-30.48-11.33Z"/>
        <path class="cls-64" d="m299.49,213.28c-6.64.74-20.12-.59-29.31,5.37,5.17.15,22.73-2.2,39.02,8.02.83-1.27,1.27-2.75,1.3-3.43,0,0-2.54-10.89-11-9.96Z"/>
        <path class="cls-52" d="m288.34,213.23c-8.42-.44-13.35,5.38-12.94,12.98.16,2.89,1.66,6.08,1.97,6.4,1.18.4,5.78,1.37,10.79,1.16,3.73.06,8.91-1,10.18-1.39,1.69-2.06,1.88-4.02,2.07-5.6.86-7.37-5-13.17-12.07-13.55Z"/>
        <path class="cls-54" d="m288.62,212.84c-8.09-.56-11.45,5.69-11.45,5.69,14.63-.04,22.9,3.65,22.9,3.65-.95-3.55-4.36-8.85-11.45-9.34Z"/>
        <path class="cls-42" d="m288.11,215.36c-4.21-.08-7.67,3.38-7.74,7.73-.06,4.35,3.3,7.93,7.51,8.02,4.21.07,7.68-3.39,7.74-7.74.06-4.35-3.3-7.94-7.52-8.01Z"/>
        <path class="cls-26" d="m302.68,212.59c-7.77-3.7-19.89-3.88-27.88.64-3.47,1.96-4.63,5.42-4.63,5.42,0,0,9.42-3.83,22.82-1.98,13.4,1.85,16.13,2.95,16.13,2.95,0,0-2.14-4.98-6.45-7.03Z"/>
        <g>
          <path class="cls-69" d="m294.35,223.49c-1.79.24-3.09,2.01-2.89,3.95.2,1.94,1.83,3.32,3.62,3.09,1.81-.23,3.1-1.99,2.89-3.95-.2-1.93-1.82-3.32-3.62-3.09Z"/>
          <path class="cls-69" d="m287.2,220.24c-1.42.18-2.44,1.56-2.28,3.1.18,1.53,1.45,2.63,2.87,2.45,1.42-.18,2.44-1.56,2.28-3.1-.16-1.53-1.45-2.63-2.87-2.45Z"/>
        </g>
        <path class="cls-55" d="m277.37,232.61c10.63,3.16,32.93,1.19,33.12-9.37,0,0-4.34,12.07-33.12,9.37Z"/>
      </g>
      <path class="cls-14" d="m321.42,233.32c-2.84-1.56-4.96.7-10.86,2.61-5.8,1.87-21.62,4.8-14.18,8.76,8.22,4.39,19.71-1.62,21.11-2.75,1.39-1.13,7.45-6.69,3.94-8.63Z"/>
      <path class="cls-10" d="m181.46,237.12c-6-1.61-8.23-3.77-10.98-2.06-3.4,2.11,2.93,7.36,4.38,8.41,1.45,1.06,13.24,6.48,21.22,1.69,7.23-4.34-8.73-6.46-14.62-8.04Z"/>
      <path class="cls-57" d="m261.75,357.3c-7.11,1.36-25.23.25-30.2-.31-4.97-.56-20.24-13.66-20.24-13.66,0,0,15.66,16.46,18.34,17.96,2.68,1.5,23.48,2.71,34.08.69,6.85-1.31,20.24-20.22,20.24-20.22,0,0-13.69,13.9-22.22,15.53Z"/>
      <path class="cls-17" d="m275.53,269.59c19.14,15.17,16.01,27.48,12.04,31.31,7.36-6.05,13.35-14.48,12.01-16.88-2.24-4.03-24.05-14.43-24.05-14.43Z"/>
      <path class="cls-13" d="m190.1,283.75c-.53,2.95,2.56,7.16,8.17,12.85,0,0-8.55-12.67,12.28-26.89,0,0-19.72,10.02-20.45,14.05Z"/>
      <path class="cls-65" d="m280.71,286.98s9.17-2.13,9.98-2.79c.81-.65,1.54-2.99,1.54-2.99l-5.83,1.77-5.7,4Z"/>
      <path class="cls-65" d="m197.72,281.8s.73,2.34,1.54,2.99c.81.65,9.98,2.79,9.98,2.79l-5.7-4-5.83-1.77Z"/>
      <path class="cls-56" d="m226.4,321.77c24.3-2.69,40.71.31,40.71.31-18.44-11.47-40.71-.31-40.71-.31Z"/>
      <path class="cls-63" d="m199.89,282.94c.49.51.85,1.22,1.49,1.5,11.67,5.17,11.83,10.1,16.83,12.8,17.73,9.56,38.41,7.24,52.33-.45,8.01-4.42,9.03-9.57,18.61-13.3,1.28-.5,1.53-1.5,1.53-1.5-51.19,12.52-90.8.95-90.8.95Z"/>
      <path class="cls-71" d="m245.76,307.31c-6.9,0-13.72-1.35-13.72,0s6,4.35,12.91,4.35c6.91,0,13.73-3,13.73-4.35s-6.01,0-12.92,0Z"/>
      <path class="cls-16" d="m265.68,293.59c-4.7.95-13.53,2.72-21.64,2.72-8.94,0-17.99-1.64-22.94-2.53-2.16-.39-3.09,3.38-3.09,3.38,6.5,4.75,14.33,6.54,26.84,6.63,16.71.12,25.92-7.11,25.92-7.11,0,0-2.35-3.63-5.1-3.08Z"/>
      <path class="cls-59" d="m220.26,309.06c26.66,21.2,52.16-1.45,52.16-1.45-26.94,14.34-52.16,1.45-52.16,1.45Z"/>
      <path class="cls-12" d="m211.47,285.38s.17,4.38,4.63,6.31c2.59,1.12,8.38,5.52,30.9,4.83,22.52-.68,26.97-6.13,28-7.08,1.91-1.77,2.78-4.76,2.78-4.76,0,0-33.92,6.63-66.3.7Z"/>
      <path class="cls-60" d="m211.39,284.97s.15,1.99.88,3.17c.62.98,18.61,3.61,32.2,3.69,13.58.08,31.32-3.42,31.94-4.2.98-1.22,1.52-3.38,1.52-3.38,0,0-15.29,5.14-66.54.72Z"/>
      <path class="cls-58" d="m197.11,281.55s3.27,1.9,2.78,1.39c0,0,39.61,11.57,90.8-.95l2.78-1.39c-27.8,4.64-96.35.96-96.35.96Z"/>
      <path class="cls-25" d="m329.83,136.4c30.25-12.98,23.01-50.03,23.01-50.03-2.08,19.49-16.52,15.16-16.52,15.16,9.34-16.73-5.07-44.11-5.07-44.11-4.81,46.22-90.81,10.28-140.02,19.77-17.81,3.43-26.96,28.1-26.72,32.29,0,0-19.55,6.68-22.53,12.77-2.75,5.63-3.08,21.96,0,36.17,3.04,14.06,6.61,51.32,6.61,51.32,0,0,6.41,1.38,10.76,12.82-.84-9.61,1.43-42.63,2.25-50.68.82-8.05,19.32-43.83,28.44-42.16,7.27,1.33,45.21,5.33,114.74.3,8.72-.63,22.67,35.01,23.27,37.58,1.44,6.15,5.09,42.88,6.32,54.96,5.03-13.48,10.51-12.82,10.51-12.82,0,0,13.02-43.6,8.91-84.87-1.28,15.13-23.96,11.53-23.96,11.53Z"/>
      <path class="cls-23" d="m303.35,122.56c10.41,13.8,20.34,15.89,29.32,13.16,23.93-7.29,25.38-32.88,20.18-49.36,4.08,26.78-23.99,46.66-49.5,36.2Z"/>
      <path class="cls-33" d="m225.32,127.02c59.01,16.49,140.59-8.31,107.34-66.64,1.5,59.98-62.32,72.72-107.34,66.64Z"/>
      <path class="cls-35" d="m141.98,120.68c-5.41,8.14-4.04,16-3.77,21.91.26,5.9,7.37,39.65,7.37,39.65-2.13-33.83-2.11-44.17,2.39-54.3,4.5-10.13,20.11-11.38,20.11-11.38l-3.57-7.08s-13.85-1.85-22.53,11.2Z"/>
      <path class="cls-22" d="m175.24,80.4c-15.9,13.68-18.53,37.28,2.59,44.47-20.17-16.61,6.64-43.71,26.76-41.73,46.66-3.15,117.91,36.72,126.66-25.71-22.79,59.29-107.31-18.93-156.01,22.97Z"/>
      <path class="cls-36" d="m339.28,100.41l-8.68,7.23c25-1.23,22.24-21.27,22.24-21.27-3.39,13.56-13.57,14.04-13.57,14.04Z"/>
      <path class="cls-34" d="m348.41,152.21c-9.21-1.94-18.63-5.82-26.8-11.01-3.66-5.83-7.47-11.66-10.3-15.48,16.71-6.93,33.82-20.79,28.37-47.13-.4,27.6-13.83,35.25-32.38,43.21-11.6,3.07-34.88,5.89-63.51,5.89-34.54,0-58.67-7.14-62.43-6.52-.77.13-2.4,2.19-4.49,5.37-8.78,9.79-17.31,15.65-27.78,20.91,7.52.9,14.44-2.61,19.9-7.8-6.43,11.27-13.16,23.9-14.61,26.05-2.53,3.09-5.39,6.01-8.79,8.72,3.15-.77,5.94-2.09,8.43-3.81.5,12.96,5.33,51.96,5.33,51.96,0,0,1.28-46.83,2.25-50.68.97-3.84,13.82-29.3,25.55-40.34,0,0,16.61,5.22,53.45,5.22s57.8-4.12,59.17-4.74c1.38-.62,23.79,25.56,26.67,36.72,1.3,5.04,7.94,53.82,7.94,53.82,0,0-.16-33.79-.71-50.51,3.22,3.23,7.01,5.49,11.39,6.12-4.38-3.62-8.21-12.37-11.7-17.31-.02-.25-3.03-5.46-7.02-12.02,6.97,3.8,14.73,5.28,22.08,3.36Z"/>
      <path class="cls-38" d="m197.11,80.48c-24.08,4.87-37.6,27.02-16.61,46.2-8.08-9.98-2.31-27.24,12.76-32.06,28.89-9.24,89.33,5.84,105.74,7.94-46.68-14.32-70.34-28.47-101.89-22.09Z"/>
      <path class="cls-24" d="m209.24,100.13c-26.53-7.25-36.81,9.27-31.02,25.09,6.37-45.62,74.1,28.29,114.42-18.91-16.28,13.65-41.53,5.26-83.4-6.19Z"/>
      <path class="cls-37" d="m348.41,134.44c1.61,11.38,2.58,47.71,2.58,47.71,8.42-36.71,2.81-57.28,2.81-57.28-.75,9.19-5.39,9.57-5.39,9.57Z"/>
      <path class="cls-39" d="m316.12,134.24c12.87,12.02,40.63,12.81,37.67-9.37-2.95,15.3-22.37,11.53-37.67,9.37Z"/>
      <path class="cls-67" d="m150.07,288.53s-8.1,13.01-18.55,36.58c-10.45,23.57-6.57,34.58,8.92,53.76,15.49,19.18,105.66,42.81,105.66,42.81l-44.42-32.27s-51.99-53.73-51.61-100.89Z"/>
      <path class="cls-67" d="m341.61,288.53c.38,47.16-51.61,100.89-51.61,100.89l-42.79,32.2s88.53-23.57,104.02-42.75c15.49-19.18,19.37-30.19,8.92-53.76-10.45-23.57-18.55-36.58-18.55-36.58Z"/>
      <path class="cls-19" d="m160.28,274.72s-13.67,11.26-15.01,22.23c-1.34,10.97,3.45,46.85,56.41,92.47,0,0-68.32-75.45-41.4-114.7Z"/>
      <path class="cls-3" d="m330.38,273.72s6.57,7.31,6.84,23.31c.32,19.07-43.3,88.11-43.3,88.11,29.08-21.5,49.16-72.19,50.45-86.62,1.01-11.28-13.98-24.8-13.98-24.8Z"/>
      <path class="cls-20" d="m285.56,402.68c-6.2-3.27-16.64,8.02-16.64,8.02,14.46,2.81,22.84-4.74,16.64-8.02Z"/>
      <path class="cls-18" d="m206.87,401.96c-6.27,3.14,1.95,10.87,16.47,8.37,0,0-10.2-11.51-16.47-8.37Z"/>
      <path class="cls-68" d="m277.37,408.24v89.59c1.72-.21,3.42-.45,5.13-.71v-89.84s-3.02-3.16-5.13.96Z"/>
      <path class="cls-68" d="m210.36,406.91v80.77s4.98.93,4.98.93v-82.37s-2.94-2.2-4.98.67Z"/>
    </g>
  </g>
</svg>