<?xml version="1.0" encoding="UTF-8"?>
<svg id="Layer_2" data-name="Layer 2" xmlns="http://www.w3.org/2000/svg" xmlns:xlink="http://www.w3.org/1999/xlink" viewBox="0 0 493.51 499.74">
  <defs>
    <style>
      .cls-1 {
        fill: url(#linear-gradient);
      }

      .cls-1, .cls-2, .cls-3, .cls-4, .cls-5, .cls-6, .cls-7, .cls-8, .cls-9, .cls-10, .cls-11, .cls-12, .cls-13, .cls-14, .cls-15, .cls-16, .cls-17, .cls-18, .cls-19, .cls-20, .cls-21, .cls-22, .cls-23, .cls-24, .cls-25, .cls-26, .cls-27, .cls-28, .cls-29, .cls-30, .cls-31, .cls-32, .cls-33, .cls-34, .cls-35, .cls-36, .cls-37, .cls-38, .cls-39, .cls-40, .cls-41, .cls-42, .cls-43, .cls-44, .cls-45, .cls-46, .cls-47, .cls-48, .cls-49, .cls-50, .cls-51, .cls-52, .cls-53, .cls-54, .cls-55, .cls-56, .cls-57, .cls-58, .cls-59, .cls-60, .cls-61, .cls-62, .cls-63, .cls-64, .cls-65, .cls-66, .cls-67, .cls-68, .cls-69, .cls-70, .cls-71, .cls-72, .cls-73, .cls-74, .cls-75, .cls-76, .cls-77, .cls-78, .cls-79, .cls-80, .cls-81, .cls-82, .cls-83, .cls-84, .cls-85, .cls-86, .cls-87, .cls-88, .cls-89, .cls-90, .cls-91, .cls-92, .cls-93, .cls-94, .cls-95, .cls-96, .cls-97, .cls-98, .cls-99, .cls-100, .cls-101, .cls-102, .cls-103, .cls-104, .cls-105, .cls-106, .cls-107, .cls-108, .cls-109, .cls-110, .cls-111, .cls-112, .cls-113, .cls-114, .cls-115, .cls-116 {
        stroke-width: 0px;
      }

      .cls-2 {
        fill: url(#radial-gradient);
      }

      .cls-3 {
        fill: url(#linear-gradient-38);
      }

      .cls-4 {
        fill: url(#linear-gradient-33);
      }

      .cls-5 {
        fill: url(#linear-gradient-29);
      }

      .cls-6 {
        fill: url(#linear-gradient-32);
      }

      .cls-7 {
        fill: url(#linear-gradient-30);
      }

      .cls-8 {
        fill: url(#linear-gradient-31);
      }

      .cls-9 {
        fill: url(#linear-gradient-36);
      }

      .cls-10 {
        fill: url(#linear-gradient-39);
      }

      .cls-11 {
        fill: url(#linear-gradient-34);
      }

      .cls-12 {
        fill: url(#linear-gradient-37);
      }

      .cls-13 {
        fill: url(#linear-gradient-35);
      }

      .cls-14 {
        fill: url(#linear-gradient-28);
      }

      .cls-15 {
        fill: url(#linear-gradient-25);
      }

      .cls-16 {
        fill: url(#linear-gradient-11);
      }

      .cls-17 {
        fill: url(#linear-gradient-12);
      }

      .cls-18 {
        fill: url(#linear-gradient-13);
      }

      .cls-19 {
        fill: url(#linear-gradient-10);
      }

      .cls-20 {
        fill: url(#linear-gradient-17);
      }

      .cls-21 {
        fill: url(#linear-gradient-16);
      }

      .cls-22 {
        fill: url(#linear-gradient-19);
      }

      .cls-23 {
        fill: url(#linear-gradient-15);
      }

      .cls-24 {
        fill: url(#linear-gradient-23);
      }

      .cls-25 {
        fill: url(#linear-gradient-21);
      }

      .cls-26 {
        fill: url(#linear-gradient-18);
      }

      .cls-27 {
        fill: url(#linear-gradient-14);
      }

      .cls-28 {
        fill: url(#linear-gradient-22);
      }

      .cls-29 {
        fill: url(#linear-gradient-20);
      }

      .cls-30 {
        fill: url(#linear-gradient-27);
      }

      .cls-31 {
        fill: url(#linear-gradient-24);
      }

      .cls-32 {
        fill: url(#linear-gradient-26);
      }

      .cls-33 {
        fill: url(#linear-gradient-42);
      }

      .cls-34 {
        fill: url(#linear-gradient-40);
      }

      .cls-35 {
        fill: url(#linear-gradient-41);
      }

      .cls-36 {
        fill: url(#_ÂÁ_Ï_ÌÌ_È_ËÂÌÚ_536);
      }

      .cls-37 {
        fill: url(#_ÂÁ_Ï_ÌÌ_È_ËÂÌÚ_298);
      }

      .cls-38 {
        fill: url(#_ÂÁ_Ï_ÌÌ_È_ËÂÌÚ_360);
      }

      .cls-39 {
        fill: url(#_ÂÁ_Ï_ÌÌ_È_ËÂÌÚ_361);
      }

      .cls-40 {
        fill: url(#_ÂÁ_Ï_ÌÌ_È_ËÂÌÚ_153);
      }

      .cls-41 {
        fill: url(#_ÂÁ_Ï_ÌÌ_È_ËÂÌÚ_100);
      }

      .cls-42 {
        fill: url(#_ÂÁ_Ï_ÌÌ_È_ËÂÌÚ_106);
      }

      .cls-43 {
        fill: url(#_ÂÁ_Ï_ÌÌ_È_ËÂÌÚ_104);
      }

      .cls-44 {
        fill: url(#_ÂÁ_Ï_ÌÌ_È_ËÂÌÚ_126);
      }

      .cls-45 {
        fill: url(#_ÂÁ_Ï_ÌÌ_È_ËÂÌÚ_331);
      }

      .cls-46 {
        fill: url(#_ÂÁ_Ï_ÌÌ_È_ËÂÌÚ_491);
      }

      .cls-47 {
        fill: url(#_ÂÁ_Ï_ÌÌ_È_ËÂÌÚ_98-4);
      }

      .cls-48 {
        fill: url(#_ÂÁ_Ï_ÌÌ_È_ËÂÌÚ_98-2);
      }

      .cls-49 {
        fill: url(#_ÂÁ_Ï_ÌÌ_È_ËÂÌÚ_98-3);
      }

      .cls-50 {
        fill: url(#_ÂÁ_Ï_ÌÌ_È_ËÂÌÚ_99-3);
      }

      .cls-51 {
        fill: url(#_ÂÁ_Ï_ÌÌ_È_ËÂÌÚ_99-2);
      }

      .cls-52 {
        fill: url(#_ÂÁ_Ï_ÌÌ_È_ËÂÌÚ_1061);
      }

      .cls-53 {
        fill: url(#_ÂÁ_Ï_ÌÌ_È_ËÂÌÚ_1056);
      }

      .cls-54 {
        fill: url(#_ÂÁ_Ï_ÌÌ_È_ËÂÌÚ_1204);
      }

      .cls-55 {
        fill: url(#_ÂÁ_Ï_ÌÌ_È_ËÂÌÚ_298-3);
      }

      .cls-56 {
        fill: url(#_ÂÁ_Ï_ÌÌ_È_ËÂÌÚ_298-4);
      }

      .cls-57 {
        fill: url(#_ÂÁ_Ï_ÌÌ_È_ËÂÌÚ_298-5);
      }

      .cls-58 {
        fill: url(#_ÂÁ_Ï_ÌÌ_È_ËÂÌÚ_298-8);
      }

      .cls-59 {
        fill: url(#_ÂÁ_Ï_ÌÌ_È_ËÂÌÚ_298-7);
      }

      .cls-60 {
        fill: url(#_ÂÁ_Ï_ÌÌ_È_ËÂÌÚ_298-9);
      }

      .cls-61 {
        fill: url(#_ÂÁ_Ï_ÌÌ_È_ËÂÌÚ_298-6);
      }

      .cls-62 {
        fill: url(#_ÂÁ_Ï_ÌÌ_È_ËÂÌÚ_298-2);
      }

      .cls-63 {
        fill: url(#_ÂÁ_Ï_ÌÌ_È_ËÂÌÚ_100-2);
      }

      .cls-64 {
        fill: url(#_ÂÁ_Ï_ÌÌ_È_ËÂÌÚ_331-2);
      }

      .cls-65 {
        fill: url(#radial-gradient-2);
      }

      .cls-66 {
        fill: url(#radial-gradient-3);
      }

      .cls-67 {
        fill: url(#radial-gradient-4);
      }

      .cls-68 {
        fill: url(#linear-gradient-4);
      }

      .cls-69 {
        fill: url(#linear-gradient-2);
      }

      .cls-70 {
        fill: url(#linear-gradient-3);
      }

      .cls-71 {
        fill: url(#linear-gradient-8);
      }

      .cls-72 {
        fill: url(#linear-gradient-9);
      }

      .cls-73 {
        fill: url(#linear-gradient-7);
      }

      .cls-74 {
        fill: url(#linear-gradient-5);
      }

      .cls-75 {
        fill: url(#linear-gradient-6);
      }

      .cls-76 {
        fill: url(#_ÂÁ_Ï_ÌÌ_È_ËÂÌÚ_1061-2);
      }

      .cls-77 {
        fill: url(#_ÂÁ_Ï_ÌÌ_È_ËÂÌÚ_1204-2);
      }

      .cls-78 {
        fill: url(#_ÂÁ_Ï_ÌÌ_È_ËÂÌÚ_1204-4);
      }

      .cls-79 {
        fill: url(#_ÂÁ_Ï_ÌÌ_È_ËÂÌÚ_1204-3);
      }

      .cls-80 {
        fill: url(#_ÂÁ_Ï_ÌÌ_È_ËÂÌÚ_1204-5);
      }

      .cls-81 {
        fill: #f86d78;
      }

      .cls-82 {
        fill: #f6ece6;
      }

      .cls-83 {
        fill: #f7d4ab;
      }

      .cls-84 {
        fill: #961b27;
      }

      .cls-85 {
        fill: #391b13;
      }

      .cls-86 {
        fill: #ddd;
      }

      .cls-87 {
        fill: #feb8ba;
      }

      .cls-88 {
        fill: #fff;
      }

      .cls-89 {
        fill: #ff9aa2;
      }

      .cls-90 {
        fill: #f0c499;
      }

      .cls-91 {
        fill: url(#_ÂÁ_Ï_ÌÌ_È_ËÂÌÚ_34);
      }

      .cls-92 {
        fill: url(#_ÂÁ_Ï_ÌÌ_È_ËÂÌÚ_98);
      }

      .cls-93 {
        fill: url(#_ÂÁ_Ï_ÌÌ_È_ËÂÌÚ_33);
      }

      .cls-94 {
        fill: url(#_ÂÁ_Ï_ÌÌ_È_ËÂÌÚ_99);
      }

      .cls-95 {
        fill: url(#_ÂÁ_Ï_ÌÌ_È_ËÂÌÚ_298-31);
      }

      .cls-96 {
        fill: url(#_ÂÁ_Ï_ÌÌ_È_ËÂÌÚ_298-26);
      }

      .cls-97 {
        fill: url(#_ÂÁ_Ï_ÌÌ_È_ËÂÌÚ_298-23);
      }

      .cls-98 {
        fill: url(#_ÂÁ_Ï_ÌÌ_È_ËÂÌÚ_298-22);
      }

      .cls-99 {
        fill: url(#_ÂÁ_Ï_ÌÌ_È_ËÂÌÚ_298-21);
      }

      .cls-100 {
        fill: url(#_ÂÁ_Ï_ÌÌ_È_ËÂÌÚ_298-24);
      }

      .cls-101 {
        fill: url(#_ÂÁ_Ï_ÌÌ_È_ËÂÌÚ_298-30);
      }

      .cls-102 {
        fill: url(#_ÂÁ_Ï_ÌÌ_È_ËÂÌÚ_298-25);
      }

      .cls-103 {
        fill: url(#_ÂÁ_Ï_ÌÌ_È_ËÂÌÚ_298-28);
      }

      .cls-104 {
        fill: url(#_ÂÁ_Ï_ÌÌ_È_ËÂÌÚ_298-20);
      }

      .cls-105 {
        fill: url(#_ÂÁ_Ï_ÌÌ_È_ËÂÌÚ_298-27);
      }

      .cls-106 {
        fill: url(#_ÂÁ_Ï_ÌÌ_È_ËÂÌÚ_298-29);
      }

      .cls-107 {
        fill: url(#_ÂÁ_Ï_ÌÌ_È_ËÂÌÚ_298-10);
      }

      .cls-108 {
        fill: url(#_ÂÁ_Ï_ÌÌ_È_ËÂÌÚ_298-13);
      }

      .cls-109 {
        fill: url(#_ÂÁ_Ï_ÌÌ_È_ËÂÌÚ_298-11);
      }

      .cls-110 {
        fill: url(#_ÂÁ_Ï_ÌÌ_È_ËÂÌÚ_298-12);
      }

      .cls-111 {
        fill: url(#_ÂÁ_Ï_ÌÌ_È_ËÂÌÚ_298-15);
      }

      .cls-112 {
        fill: url(#_ÂÁ_Ï_ÌÌ_È_ËÂÌÚ_298-18);
      }

      .cls-113 {
        fill: url(#_ÂÁ_Ï_ÌÌ_È_ËÂÌÚ_298-16);
      }

      .cls-114 {
        fill: url(#_ÂÁ_Ï_ÌÌ_È_ËÂÌÚ_298-19);
      }

      .cls-115 {
        fill: url(#_ÂÁ_Ï_ÌÌ_È_ËÂÌÚ_298-14);
      }

      .cls-116 {
        fill: url(#_ÂÁ_Ï_ÌÌ_È_ËÂÌÚ_298-17);
      }
    </style>
    <linearGradient id="_ÂÁ_Ï_ÌÌ_È_ËÂÌÚ_99" data-name="¡ÂÁ˚ÏˇÌÌ˚È „‡‰ËÂÌÚ 99" x1="243.31" y1="225.69" x2="249.29" y2="354.23" gradientUnits="userSpaceOnUse">
      <stop offset="0" stop-color="#652f23"/>
      <stop offset=".77" stop-color="#492219"/>
    </linearGradient>
    <linearGradient id="linear-gradient" x1="100.46" y1="467.49" x2="98.92" y2="419.87" gradientUnits="userSpaceOnUse">
      <stop offset="0" stop-color="#dba379"/>
      <stop offset=".49" stop-color="#e3b086"/>
      <stop offset="1" stop-color="#f0c499"/>
    </linearGradient>
    <linearGradient id="linear-gradient-2" x1="405.56" y1="456.81" x2="404.06" y2="410.44" xlink:href="#linear-gradient"/>
    <linearGradient id="linear-gradient-3" x1="218.38" y1="339.44" x2="292.61" y2="420.25" gradientUnits="userSpaceOnUse">
      <stop offset="0" stop-color="#f0c499"/>
      <stop offset=".52" stop-color="#f1c69b"/>
      <stop offset=".85" stop-color="#f4cea4"/>
      <stop offset="1" stop-color="#f7d4ab"/>
    </linearGradient>
    <linearGradient id="linear-gradient-4" x1="303.9" y1="401.77" x2="245.12" y2="410.44" xlink:href="#linear-gradient-3"/>
    <linearGradient id="linear-gradient-5" x1="258.81" y1="397.69" x2="349.84" y2="383.48" xlink:href="#linear-gradient-3"/>
    <linearGradient id="linear-gradient-6" x1="253.27" y1="402.46" x2="171.29" y2="380.93" xlink:href="#linear-gradient-3"/>
    <linearGradient id="linear-gradient-7" x1="249.37" y1="314.02" x2="260.11" y2="359.52" xlink:href="#linear-gradient"/>
    <linearGradient id="linear-gradient-8" x1="269.32" y1="272.38" x2="298.21" y2="397.15" xlink:href="#linear-gradient"/>
    <linearGradient id="linear-gradient-9" x1="198.46" y1="285.6" x2="228.4" y2="414.92" xlink:href="#linear-gradient"/>
    <linearGradient id="_ÂÁ_Ï_ÌÌ_È_ËÂÌÚ_360" data-name="¡ÂÁ˚ÏˇÌÌ˚È „‡‰ËÂÌÚ 360" x1="244.73" y1="402.31" x2="236" y2="509.87" gradientUnits="userSpaceOnUse">
      <stop offset="0" stop-color="#feb8ba"/>
      <stop offset=".71" stop-color="#fec0c1"/>
      <stop offset="1" stop-color="#ffc5c6"/>
    </linearGradient>
    <linearGradient id="_ÂÁ_Ï_ÌÌ_È_ËÂÌÚ_536" data-name="¡ÂÁ˚ÏˇÌÌ˚È „‡‰ËÂÌÚ 536" x1="266.69" y1="254.65" x2="309.07" y2="478.24" gradientUnits="userSpaceOnUse">
      <stop offset="0" stop-color="#efa3a6"/>
      <stop offset=".43" stop-color="#f2a7aa"/>
      <stop offset=".9" stop-color="#fbb4b6"/>
      <stop offset="1" stop-color="#feb8ba"/>
    </linearGradient>
    <linearGradient id="_ÂÁ_Ï_ÌÌ_È_ËÂÌÚ_104" data-name="¡ÂÁ˚ÏˇÌÌ˚È „‡‰ËÂÌÚ 104" x1="229.29" y1="278.72" x2="211.07" y2="486.89" gradientUnits="userSpaceOnUse">
      <stop offset="0" stop-color="#efa3a6"/>
      <stop offset="1" stop-color="#feb8ba"/>
    </linearGradient>
    <linearGradient id="_ÂÁ_Ï_ÌÌ_È_ËÂÌÚ_491" data-name="¡ÂÁ˚ÏˇÌÌ˚È „‡‰ËÂÌÚ 491" x1="261.87" y1="461.04" x2="253.34" y2="334.35" gradientUnits="userSpaceOnUse">
      <stop offset="0" stop-color="#feb8ba"/>
      <stop offset="1" stop-color="#efa3a6"/>
    </linearGradient>
    <linearGradient id="linear-gradient-10" x1="162.62" y1="472.67" x2="164.85" y2="550.84" xlink:href="#linear-gradient"/>
    <linearGradient id="linear-gradient-11" x1="347.18" y1="469.04" x2="349.38" y2="546.06" xlink:href="#linear-gradient"/>
    <linearGradient id="_ÂÁ_Ï_ÌÌ_È_ËÂÌÚ_34" data-name="¡ÂÁ˚ÏˇÌÌ˚È „‡‰ËÂÌÚ 34" x1="248.48" y1="122.77" x2="248.17" y2="337.18" gradientUnits="userSpaceOnUse">
      <stop offset="0" stop-color="#ffd9b3"/>
      <stop offset=".32" stop-color="#f9d5ad"/>
      <stop offset="1" stop-color="#f7d4ab"/>
    </linearGradient>
    <linearGradient id="linear-gradient-12" x1="295.11" y1="246.66" x2="285.04" y2="190.89" gradientUnits="userSpaceOnUse">
      <stop offset="0" stop-color="#f7d4ab"/>
      <stop offset=".52" stop-color="#f5d1a8"/>
      <stop offset=".85" stop-color="#f2c99f"/>
      <stop offset="1" stop-color="#f0c499"/>
    </linearGradient>
    <linearGradient id="linear-gradient-13" x1="208.95" y1="256.41" x2="198.2" y2="189.9" xlink:href="#linear-gradient-12"/>
    <radialGradient id="radial-gradient" cx="195.6" cy="258.27" fx="195.6" fy="258.27" r="40.24" gradientUnits="userSpaceOnUse">
      <stop offset="0" stop-color="#f9b38e"/>
      <stop offset=".61" stop-color="#f7c59e"/>
      <stop offset="1" stop-color="#f7d4ab"/>
    </radialGradient>
    <radialGradient id="radial-gradient-2" cx="298.02" fx="298.02" r="40.24" xlink:href="#radial-gradient"/>
    <linearGradient id="linear-gradient-14" x1="228.32" y1="317.14" x2="263.96" y2="317.14" gradientUnits="userSpaceOnUse">
      <stop offset="0" stop-color="#ffd9b3"/>
      <stop offset=".68" stop-color="#fcd7b0"/>
      <stop offset="1" stop-color="#f7d4ab"/>
    </linearGradient>
    <linearGradient id="_ÂÁ_Ï_ÌÌ_È_ËÂÌÚ_33" data-name="¡ÂÁ˚ÏˇÌÌ˚È „‡‰ËÂÌÚ 33" x1="247.32" y1="105.7" x2="247.07" y2="193.16" gradientUnits="userSpaceOnUse">
      <stop offset="0" stop-color="#f7d4ab"/>
      <stop offset=".97" stop-color="#f0c499"/>
      <stop offset="1" stop-color="#f0c499"/>
    </linearGradient>
    <linearGradient id="_ÂÁ_Ï_ÌÌ_È_ËÂÌÚ_100" data-name="¡ÂÁ˚ÏˇÌÌ˚È „‡‰ËÂÌÚ 100" x1="334.08" y1="162.07" x2="301.61" y2="323.74" gradientUnits="userSpaceOnUse">
      <stop offset="0" stop-color="#f9b38e"/>
      <stop offset=".5" stop-color="#f7b690"/>
      <stop offset=".9" stop-color="#f2c096"/>
      <stop offset="1" stop-color="#f0c499"/>
    </linearGradient>
    <linearGradient id="_ÂÁ_Ï_ÌÌ_È_ËÂÌÚ_100-2" data-name="¡ÂÁ˚ÏˇÌÌ˚È „‡‰ËÂÌÚ 100" x1="205.64" y1="167.59" x2="176.45" y2="312.96" xlink:href="#_ÂÁ_Ï_ÌÌ_È_ËÂÌÚ_100"/>
    <linearGradient id="linear-gradient-15" x1="295.7" y1="200.86" x2="328.15" y2="200.86" xlink:href="#linear-gradient-14"/>
    <linearGradient id="_ÂÁ_Ï_ÌÌ_È_ËÂÌÚ_1204" data-name="¡ÂÁ˚ÏˇÌÌ˚È „‡‰ËÂÌÚ 1204" x1="312.61" y1="208.1" x2="266.21" y2="226.12" gradientUnits="userSpaceOnUse">
      <stop offset="0" stop-color="#dba379"/>
      <stop offset=".49" stop-color="#e3b086"/>
      <stop offset="1" stop-color="#f0c499"/>
    </linearGradient>
    <linearGradient id="linear-gradient-16" x1="267.29" y1="218.91" x2="281.52" y2="218.91" gradientUnits="userSpaceOnUse">
      <stop offset="0" stop-color="#fff"/>
      <stop offset=".47" stop-color="#fcfcfc"/>
      <stop offset=".77" stop-color="#f5f3f3"/>
      <stop offset="1" stop-color="#ece7e7"/>
    </linearGradient>
    <linearGradient id="linear-gradient-17" x1="298.79" y1="218.5" x2="310.11" y2="218.5" xlink:href="#linear-gradient-16"/>
    <linearGradient id="linear-gradient-18" x1="306.25" y1="231.11" x2="273.02" y2="210.34" gradientUnits="userSpaceOnUse">
      <stop offset="0" stop-color="#b89c8c"/>
      <stop offset="1" stop-color="#715241"/>
    </linearGradient>
    <linearGradient id="linear-gradient-19" x1="333.81" y1="219.26" x2="290.64" y2="214.14" xlink:href="#linear-gradient-18"/>
    <radialGradient id="radial-gradient-3" cx="286.96" cy="219.17" fx="286.96" fy="219.17" r="9.72" gradientUnits="userSpaceOnUse">
      <stop offset="0" stop-color="#2a3a3b"/>
      <stop offset="1" stop-color="#1c2727"/>
    </radialGradient>
    <linearGradient id="_ÂÁ_Ï_ÌÌ_È_ËÂÌÚ_331" data-name="¡ÂÁ˚ÏˇÌÌ˚È „‡‰ËÂÌÚ 331" x1="267.31" y1="217.49" x2="319.61" y2="217.49" gradientUnits="userSpaceOnUse">
      <stop offset="0" stop-color="#5a2a1f"/>
      <stop offset=".29" stop-color="#492219"/>
      <stop offset=".66" stop-color="#3d1c14"/>
      <stop offset="1" stop-color="#391b13"/>
    </linearGradient>
    <linearGradient id="_ÂÁ_Ï_ÌÌ_È_ËÂÌÚ_1204-2" data-name="¡ÂÁ˚ÏˇÌÌ˚È „‡‰ËÂÌÚ 1204" x1="290.01" y1="202.98" x2="255.41" y2="247.01" xlink:href="#_ÂÁ_Ï_ÌÌ_È_ËÂÌÚ_1204"/>
    <linearGradient id="_ÂÁ_Ï_ÌÌ_È_ËÂÌÚ_1204-3" data-name="¡ÂÁ˚ÏˇÌÌ˚È „‡‰ËÂÌÚ 1204" x1="224.13" y1="208.58" x2="182.9" y2="224.59" xlink:href="#_ÂÁ_Ï_ÌÌ_È_ËÂÌÚ_1204"/>
    <linearGradient id="linear-gradient-20" x1="213.34" x2="227.57" xlink:href="#linear-gradient-16"/>
    <linearGradient id="linear-gradient-21" x1="188.04" y1="218.5" x2="199.37" y2="218.5" xlink:href="#linear-gradient-16"/>
    <linearGradient id="_ÂÁ_Ï_ÌÌ_È_ËÂÌÚ_1056" data-name="¡ÂÁ˚ÏˇÌÌ˚È „‡‰ËÂÌÚ 1056" x1="222.2" y1="232.29" x2="187.82" y2="210.8" gradientUnits="userSpaceOnUse">
      <stop offset="0" stop-color="#715241"/>
      <stop offset="1" stop-color="#b89c8c"/>
    </linearGradient>
    <linearGradient id="linear-gradient-22" x1="251.33" y1="218.63" x2="207.51" y2="213.44" xlink:href="#linear-gradient-18"/>
    <radialGradient id="radial-gradient-4" cx="203.81" fx="203.81" r="9.72" xlink:href="#radial-gradient-3"/>
    <linearGradient id="_ÂÁ_Ï_ÌÌ_È_ËÂÌÚ_331-2" data-name="¡ÂÁ˚ÏˇÌÌ˚È „‡‰ËÂÌÚ 331" x1="175.29" y1="217.49" x2="227.59" y2="217.49" xlink:href="#_ÂÁ_Ï_ÌÌ_È_ËÂÌÚ_331"/>
    <linearGradient id="_ÂÁ_Ï_ÌÌ_È_ËÂÌÚ_1204-4" data-name="¡ÂÁ˚ÏˇÌÌ˚È „‡‰ËÂÌÚ 1204" x1="209.36" y1="203.77" x2="188.68" y2="230.08" xlink:href="#_ÂÁ_Ï_ÌÌ_È_ËÂÌÚ_1204"/>
    <linearGradient id="linear-gradient-23" x1="249.5" y1="275.49" x2="246.5" y2="260.52" xlink:href="#linear-gradient-12"/>
    <linearGradient id="linear-gradient-24" x1="247.14" y1="259.33" x2="247.06" y2="271.09" xlink:href="#linear-gradient"/>
    <linearGradient id="_ÂÁ_Ï_ÌÌ_È_ËÂÌÚ_106" data-name="¡ÂÁ˚ÏˇÌÌ˚È „‡‰ËÂÌÚ 106" x1="246.42" y1="243.34" x2="246.59" y2="255.39" gradientUnits="userSpaceOnUse">
      <stop offset="0" stop-color="#f7d4ab"/>
      <stop offset="1" stop-color="#ffd9b3"/>
    </linearGradient>
    <linearGradient id="_ÂÁ_Ï_ÌÌ_È_ËÂÌÚ_1061" data-name="¡ÂÁ˚ÏˇÌÌ˚È „‡‰ËÂÌÚ 1061" x1="216.98" y1="265.41" x2="257.44" y2="300.74" gradientUnits="userSpaceOnUse">
      <stop offset="0" stop-color="#f0c499"/>
      <stop offset=".51" stop-color="#e3b086"/>
      <stop offset="1" stop-color="#dba379"/>
    </linearGradient>
    <linearGradient id="_ÂÁ_Ï_ÌÌ_È_ËÂÌÚ_1061-2" data-name="¡ÂÁ˚ÏˇÌÌ˚È „‡‰ËÂÌÚ 1061" x1="199.36" y1="268.98" x2="216.47" y2="283.92" xlink:href="#_ÂÁ_Ï_ÌÌ_È_ËÂÌÚ_1061"/>
    <linearGradient id="linear-gradient-25" x1="288.41" y1="272.49" x2="278.91" y2="284.21" xlink:href="#linear-gradient"/>
    <linearGradient id="linear-gradient-26" x1="225.06" y1="290.81" x2="269.89" y2="290.81" gradientUnits="userSpaceOnUse">
      <stop offset="0" stop-color="#e8d8d7"/>
      <stop offset=".04" stop-color="#ebdddc"/>
      <stop offset=".21" stop-color="#f6f0ef"/>
      <stop offset=".38" stop-color="#fcfbfb"/>
      <stop offset=".57" stop-color="#fff"/>
      <stop offset=".69" stop-color="#fbf7f7"/>
      <stop offset=".87" stop-color="#f1e3e3"/>
      <stop offset="1" stop-color="#e8d2d1"/>
    </linearGradient>
    <linearGradient id="linear-gradient-27" x1="215.04" y1="284.06" x2="278.71" y2="283.46" xlink:href="#linear-gradient-26"/>
    <linearGradient id="linear-gradient-28" x1="233.17" y1="298.77" x2="262.66" y2="298.46" gradientUnits="userSpaceOnUse">
      <stop offset="0" stop-color="#f96e7e"/>
      <stop offset=".03" stop-color="#f9707f"/>
      <stop offset=".25" stop-color="#fd7985"/>
      <stop offset=".53" stop-color="#ff7d88"/>
      <stop offset=".76" stop-color="#fd7985"/>
      <stop offset="1" stop-color="#f86d7d"/>
      <stop offset="1" stop-color="#f86d7d"/>
    </linearGradient>
    <linearGradient id="linear-gradient-29" x1="246.68" y1="277.96" x2="246.53" y2="267.74" gradientUnits="userSpaceOnUse">
      <stop offset="0" stop-color="#ffd9b3"/>
      <stop offset="1" stop-color="#f7d4ab"/>
    </linearGradient>
    <linearGradient id="linear-gradient-30" x1="215" y1="281.34" x2="278.68" y2="280.74" gradientUnits="userSpaceOnUse">
      <stop offset="0" stop-color="#e8d8d7"/>
      <stop offset=".05" stop-color="#eadcdb"/>
      <stop offset=".31" stop-color="#f6efee"/>
      <stop offset=".48" stop-color="#fbf6f6"/>
      <stop offset="1" stop-color="#e8d2d1"/>
    </linearGradient>
    <linearGradient id="linear-gradient-31" x1="222.67" y1="278.87" x2="278.09" y2="278.3" xlink:href="#linear-gradient-28"/>
    <linearGradient id="_ÂÁ_Ï_ÌÌ_È_ËÂÌÚ_1204-5" data-name="¡ÂÁ˚ÏˇÌÌ˚È „‡‰ËÂÌÚ 1204" x1="247.05" y1="328.48" x2="243.86" y2="374.87" xlink:href="#_ÂÁ_Ï_ÌÌ_È_ËÂÌÚ_1204"/>
    <linearGradient id="linear-gradient-32" x1="269.47" y1="187.01" x2="321.12" y2="187.01" gradientUnits="userSpaceOnUse">
      <stop offset="0" stop-color="#673024"/>
      <stop offset=".34" stop-color="#52261c"/>
      <stop offset=".68" stop-color="#462017"/>
      <stop offset="1" stop-color="#421f16"/>
    </linearGradient>
    <linearGradient id="linear-gradient-33" x1="173.23" x2="224.81" xlink:href="#linear-gradient-32"/>
    <linearGradient id="linear-gradient-34" x1="186.45" y1="83.71" x2="172.35" y2="512.09" gradientUnits="userSpaceOnUse">
      <stop offset=".23" stop-color="#492219"/>
      <stop offset="1" stop-color="#652f23"/>
    </linearGradient>
    <linearGradient id="_ÂÁ_Ï_ÌÌ_È_ËÂÌÚ_98" data-name="¡ÂÁ˚ÏˇÌÌ˚È „‡‰ËÂÌÚ 98" x1="330.76" y1="104.33" x2="319.39" y2="468.14" gradientUnits="userSpaceOnUse">
      <stop offset=".23" stop-color="#492219"/>
      <stop offset="1" stop-color="#652f23"/>
    </linearGradient>
    <linearGradient id="linear-gradient-35" x1="199.47" y1="333.89" x2="179.33" y2="525.04" xlink:href="#linear-gradient-34"/>
    <linearGradient id="linear-gradient-36" x1="191.38" y1="406.85" x2="166.27" y2="19.26" xlink:href="#linear-gradient-34"/>
    <linearGradient id="_ÂÁ_Ï_ÌÌ_È_ËÂÌÚ_98-2" data-name="¡ÂÁ˚ÏˇÌÌ˚È „‡‰ËÂÌÚ 98" x1="331.03" y1="377.04" x2="307.5" y2="13.7" xlink:href="#_ÂÁ_Ï_ÌÌ_È_ËÂÌÚ_98"/>
    <linearGradient id="linear-gradient-37" x1="157.87" y1="490.39" x2="158.67" y2="186.11" xlink:href="#linear-gradient-34"/>
    <linearGradient id="linear-gradient-38" x1="84.72" y1="351.7" x2="157.84" y2="351.7" xlink:href="#linear-gradient-34"/>
    <linearGradient id="linear-gradient-39" x1="355.48" y1="323.76" x2="321.11" y2="487.68" xlink:href="#linear-gradient-34"/>
    <linearGradient id="linear-gradient-40" x1="354.4" y1="280.33" x2="378.2" y2="498.97" xlink:href="#linear-gradient-34"/>
    <linearGradient id="linear-gradient-41" x1="397.25" y1="575.62" x2="325.87" y2="243.63" xlink:href="#linear-gradient-34"/>
    <linearGradient id="_ÂÁ_Ï_ÌÌ_È_ËÂÌÚ_298" data-name="¡ÂÁ˚ÏˇÌÌ˚È „‡‰ËÂÌÚ 298" x1="333.38" y1="293.84" x2="356.56" y2="696.23" gradientUnits="userSpaceOnUse">
      <stop offset="0" stop-color="#70362b"/>
      <stop offset=".31" stop-color="#6b3328"/>
      <stop offset=".66" stop-color="#5e2b22"/>
      <stop offset="1" stop-color="#4a2019"/>
    </linearGradient>
    <linearGradient id="_ÂÁ_Ï_ÌÌ_È_ËÂÌÚ_298-2" data-name="¡ÂÁ˚ÏˇÌÌ˚È „‡‰ËÂÌÚ 298" x1="198.58" y1="386.34" x2="210.43" y2="592.01" xlink:href="#_ÂÁ_Ï_ÌÌ_È_ËÂÌÚ_298"/>
    <linearGradient id="_ÂÁ_Ï_ÌÌ_È_ËÂÌÚ_298-3" data-name="¡ÂÁ˚ÏˇÌÌ˚È „‡‰ËÂÌÚ 298" x1="305.51" y1="294.01" x2="332.53" y2="762.99" xlink:href="#_ÂÁ_Ï_ÌÌ_È_ËÂÌÚ_298"/>
    <linearGradient id="_ÂÁ_Ï_ÌÌ_È_ËÂÌÚ_298-4" data-name="¡ÂÁ˚ÏˇÌÌ˚È „‡‰ËÂÌÚ 298" x1="319.53" y1="380.1" x2="330.99" y2="579.08" xlink:href="#_ÂÁ_Ï_ÌÌ_È_ËÂÌÚ_298"/>
    <linearGradient id="_ÂÁ_Ï_ÌÌ_È_ËÂÌÚ_298-5" data-name="¡ÂÁ˚ÏˇÌÌ˚È „‡‰ËÂÌÚ 298" x1="183.62" y1="79.51" x2="173.55" y2="286.95" xlink:href="#_ÂÁ_Ï_ÌÌ_È_ËÂÌÚ_298"/>
    <linearGradient id="_ÂÁ_Ï_ÌÌ_È_ËÂÌÚ_298-6" data-name="¡ÂÁ˚ÏˇÌÌ˚È „‡‰ËÂÌÚ 298" x1="138.74" y1="77.77" x2="128.7" y2="284.62" xlink:href="#_ÂÁ_Ï_ÌÌ_È_ËÂÌÚ_298"/>
    <linearGradient id="_ÂÁ_Ï_ÌÌ_È_ËÂÌÚ_298-7" data-name="¡ÂÁ˚ÏˇÌÌ˚È „‡‰ËÂÌÚ 298" x1="103.51" y1="307.85" x2="130.12" y2="769.76" xlink:href="#_ÂÁ_Ï_ÌÌ_È_ËÂÌÚ_298"/>
    <linearGradient id="_ÂÁ_Ï_ÌÌ_È_ËÂÌÚ_298-8" data-name="¡ÂÁ˚ÏˇÌÌ˚È „‡‰ËÂÌÚ 298" x1="383.6" y1="308.22" x2="411.9" y2="799.43" xlink:href="#_ÂÁ_Ï_ÌÌ_È_ËÂÌÚ_298"/>
    <linearGradient id="_ÂÁ_Ï_ÌÌ_È_ËÂÌÚ_298-9" data-name="¡ÂÁ˚ÏˇÌÌ˚È „‡‰ËÂÌÚ 298" x1="138.16" y1="211.15" x2="145.7" y2="446.62" xlink:href="#_ÂÁ_Ï_ÌÌ_È_ËÂÌÚ_298"/>
    <linearGradient id="_ÂÁ_Ï_ÌÌ_È_ËÂÌÚ_298-10" data-name="¡ÂÁ˚ÏˇÌÌ˚È „‡‰ËÂÌÚ 298" x1="357.55" y1="197.47" x2="342.99" y2="557.46" xlink:href="#_ÂÁ_Ï_ÌÌ_È_ËÂÌÚ_298"/>
    <linearGradient id="linear-gradient-42" x1="190.85" y1="132.71" x2="247.2" y2="132.71" xlink:href="#linear-gradient-34"/>
    <linearGradient id="_ÂÁ_Ï_ÌÌ_È_ËÂÌÚ_99-2" data-name="¡ÂÁ˚ÏˇÌÌ˚È „‡‰ËÂÌÚ 99" x1="252.09" y1="125.61" x2="295.7" y2="125.61" xlink:href="#_ÂÁ_Ï_ÌÌ_È_ËÂÌÚ_99"/>
    <linearGradient id="_ÂÁ_Ï_ÌÌ_È_ËÂÌÚ_298-11" data-name="¡ÂÁ˚ÏˇÌÌ˚È „‡‰ËÂÌÚ 298" x1="118.16" y1="341.09" x2="106.33" y2="388.9" xlink:href="#_ÂÁ_Ï_ÌÌ_È_ËÂÌÚ_298"/>
    <linearGradient id="_ÂÁ_Ï_ÌÌ_È_ËÂÌÚ_298-12" data-name="¡ÂÁ˚ÏˇÌÌ˚È „‡‰ËÂÌÚ 298" x1="125.23" y1="467.25" x2="125.21" y2="467.37" xlink:href="#_ÂÁ_Ï_ÌÌ_È_ËÂÌÚ_298"/>
    <linearGradient id="_ÂÁ_Ï_ÌÌ_È_ËÂÌÚ_298-13" data-name="¡ÂÁ˚ÏˇÌÌ˚È „‡‰ËÂÌÚ 298" x1="161.53" y1="116.46" x2="193.73" y2="553.34" xlink:href="#_ÂÁ_Ï_ÌÌ_È_ËÂÌÚ_298"/>
    <linearGradient id="_ÂÁ_Ï_ÌÌ_È_ËÂÌÚ_298-14" data-name="¡ÂÁ˚ÏˇÌÌ˚È „‡‰ËÂÌÚ 298" x1="185.7" y1="80.15" x2="175.66" y2="286.87" xlink:href="#_ÂÁ_Ï_ÌÌ_È_ËÂÌÚ_298"/>
    <linearGradient id="_ÂÁ_Ï_ÌÌ_È_ËÂÌÚ_298-15" data-name="¡ÂÁ˚ÏˇÌÌ˚È „‡‰ËÂÌÚ 298" x1="308.19" y1="85.99" x2="298.15" y2="292.84" xlink:href="#_ÂÁ_Ï_ÌÌ_È_ËÂÌÚ_298"/>
    <linearGradient id="_ÂÁ_Ï_ÌÌ_È_ËÂÌÚ_298-16" data-name="¡ÂÁ˚ÏˇÌÌ˚È „‡‰ËÂÌÚ 298" x1="322.09" y1="89.04" x2="311.26" y2="312.07" xlink:href="#_ÂÁ_Ï_ÌÌ_È_ËÂÌÚ_298"/>
    <linearGradient id="_ÂÁ_Ï_ÌÌ_È_ËÂÌÚ_298-17" data-name="¡ÂÁ˚ÏˇÌÌ˚È „‡‰ËÂÌÚ 298" x1="293.09" y1="330.43" x2="311.48" y2="649.62" xlink:href="#_ÂÁ_Ï_ÌÌ_È_ËÂÌÚ_298"/>
    <linearGradient id="_ÂÁ_Ï_ÌÌ_È_ËÂÌÚ_298-18" data-name="¡ÂÁ˚ÏˇÌÌ˚È „‡‰ËÂÌÚ 298" x1="409.95" y1="128.18" x2="398.47" y2="495.63" xlink:href="#_ÂÁ_Ï_ÌÌ_È_ËÂÌÚ_298"/>
    <linearGradient id="_ÂÁ_Ï_ÌÌ_È_ËÂÌÚ_298-19" data-name="¡ÂÁ˚ÏˇÌÌ˚È „‡‰ËÂÌÚ 298" x1="370.79" y1="398.54" x2="379.04" y2="541.69" xlink:href="#_ÂÁ_Ï_ÌÌ_È_ËÂÌÚ_298"/>
    <linearGradient id="_ÂÁ_Ï_ÌÌ_È_ËÂÌÚ_98-3" data-name="¡ÂÁ˚ÏˇÌÌ˚È „‡‰ËÂÌÚ 98" x1="227.66" y1="337.32" x2="206.19" y2="541.06" xlink:href="#_ÂÁ_Ï_ÌÌ_È_ËÂÌÚ_98"/>
    <linearGradient id="_ÂÁ_Ï_ÌÌ_È_ËÂÌÚ_298-20" data-name="¡ÂÁ˚ÏˇÌÌ˚È „‡‰ËÂÌÚ 298" x1="192.86" y1="303.57" x2="218.94" y2="756.27" xlink:href="#_ÂÁ_Ï_ÌÌ_È_ËÂÌÚ_298"/>
    <linearGradient id="_ÂÁ_Ï_ÌÌ_È_ËÂÌÚ_298-21" data-name="¡ÂÁ˚ÏˇÌÌ˚È „‡‰ËÂÌÚ 298" x1="399.9" y1="385.25" x2="406.23" y2="495.08" xlink:href="#_ÂÁ_Ï_ÌÌ_È_ËÂÌÚ_298"/>
    <linearGradient id="_ÂÁ_Ï_ÌÌ_È_ËÂÌÚ_153" data-name="¡ÂÁ˚ÏˇÌÌ˚È „‡‰ËÂÌÚ 153" x1="288.92" y1="354.28" x2="254.03" y2="165.97" gradientUnits="userSpaceOnUse">
      <stop offset="0" stop-color="#421f16"/>
      <stop offset=".45" stop-color="#51261d"/>
      <stop offset="1" stop-color="#6b3329"/>
    </linearGradient>
    <linearGradient id="_ÂÁ_Ï_ÌÌ_È_ËÂÌÚ_298-22" data-name="¡ÂÁ˚ÏˇÌÌ˚È „‡‰ËÂÌÚ 298" x1="138.48" y1="302.31" x2="159.05" y2="659.3" xlink:href="#_ÂÁ_Ï_ÌÌ_È_ËÂÌÚ_298"/>
    <linearGradient id="_ÂÁ_Ï_ÌÌ_È_ËÂÌÚ_298-23" data-name="¡ÂÁ˚ÏˇÌÌ˚È „‡‰ËÂÌÚ 298" x1="371.79" y1="291.61" x2="398.33" y2="752.25" xlink:href="#_ÂÁ_Ï_ÌÌ_È_ËÂÌÚ_298"/>
    <linearGradient id="_ÂÁ_Ï_ÌÌ_È_ËÂÌÚ_298-24" data-name="¡ÂÁ˚ÏˇÌÌ˚È „‡‰ËÂÌÚ 298" x1="109.28" y1="308.01" x2="136.45" y2="779.59" xlink:href="#_ÂÁ_Ï_ÌÌ_È_ËÂÌÚ_298"/>
    <linearGradient id="_ÂÁ_Ï_ÌÌ_È_ËÂÌÚ_298-25" data-name="¡ÂÁ˚ÏˇÌÌ˚È „‡‰ËÂÌÚ 298" x1="208.12" y1="302.47" x2="234.6" y2="762.22" xlink:href="#_ÂÁ_Ï_ÌÌ_È_ËÂÌÚ_298"/>
    <linearGradient id="_ÂÁ_Ï_ÌÌ_È_ËÂÌÚ_298-26" data-name="¡ÂÁ˚ÏˇÌÌ˚È „‡‰ËÂÌÚ 298" x1="160.12" y1="224.37" x2="164.8" y2="501.18" xlink:href="#_ÂÁ_Ï_ÌÌ_È_ËÂÌÚ_298"/>
    <linearGradient id="_ÂÁ_Ï_ÌÌ_È_ËÂÌÚ_298-27" data-name="¡ÂÁ˚ÏˇÌÌ˚È „‡‰ËÂÌÚ 298" x1="148.53" y1="482.47" x2="217.5" y2="422.25" xlink:href="#_ÂÁ_Ï_ÌÌ_È_ËÂÌÚ_298"/>
    <linearGradient id="_ÂÁ_Ï_ÌÌ_È_ËÂÌÚ_99-3" data-name="¡ÂÁ˚ÏˇÌÌ˚È „‡‰ËÂÌÚ 99" x1="162.96" y1="93.6" x2="308.23" y2="85.23" xlink:href="#_ÂÁ_Ï_ÌÌ_È_ËÂÌÚ_99"/>
    <linearGradient id="_ÂÁ_Ï_ÌÌ_È_ËÂÌÚ_298-28" data-name="¡ÂÁ˚ÏˇÌÌ˚È „‡‰ËÂÌÚ 298" x1="328.59" y1="86.72" x2="318.54" y2="293.85" xlink:href="#_ÂÁ_Ï_ÌÌ_È_ËÂÌÚ_298"/>
    <linearGradient id="_ÂÁ_Ï_ÌÌ_È_ËÂÌÚ_98-4" data-name="¡ÂÁ˚ÏˇÌÌ˚È „‡‰ËÂÌÚ 98" x1="193.26" y1="109.67" x2="372.5" y2="102.81" xlink:href="#_ÂÁ_Ï_ÌÌ_È_ËÂÌÚ_98"/>
    <linearGradient id="_ÂÁ_Ï_ÌÌ_È_ËÂÌÚ_298-29" data-name="¡ÂÁ˚ÏˇÌÌ˚È „‡‰ËÂÌÚ 298" x1="219" y1="108.36" x2="227.03" y2="188.69" xlink:href="#_ÂÁ_Ï_ÌÌ_È_ËÂÌÚ_298"/>
    <linearGradient id="_ÂÁ_Ï_ÌÌ_È_ËÂÌÚ_298-30" data-name="¡ÂÁ˚ÏˇÌÌ˚È „‡‰ËÂÌÚ 298" x1="177.83" y1="303.57" x2="204.44" y2="765.48" xlink:href="#_ÂÁ_Ï_ÌÌ_È_ËÂÌÚ_298"/>
    <linearGradient id="_ÂÁ_Ï_ÌÌ_È_ËÂÌÚ_298-31" data-name="¡ÂÁ˚ÏˇÌÌ˚È „‡‰ËÂÌÚ 298" x1="324.66" y1="113.64" x2="355.45" y2="531.37" xlink:href="#_ÂÁ_Ï_ÌÌ_È_ËÂÌÚ_298"/>
    <linearGradient id="_ÂÁ_Ï_ÌÌ_È_ËÂÌÚ_361" data-name="¡ÂÁ˚ÏˇÌÌ˚È „‡‰ËÂÌÚ 361" x1="298.31" y1="240.36" x2="312.37" y2="240.36" gradientUnits="userSpaceOnUse">
      <stop offset="0" stop-color="#f8c39c"/>
      <stop offset=".48" stop-color="#fccfa9"/>
      <stop offset="1" stop-color="#ffd9b3"/>
    </linearGradient>
    <linearGradient id="_ÂÁ_Ï_ÌÌ_È_ËÂÌÚ_126" data-name="¡ÂÁ˚ÏˇÌÌ˚È „‡‰ËÂÌÚ 126" x1="180.78" y1="240.36" x2="194.8" y2="240.36" gradientUnits="userSpaceOnUse">
      <stop offset="0" stop-color="#ffd9b3"/>
      <stop offset=".52" stop-color="#fccfa9"/>
      <stop offset="1" stop-color="#f8c39c"/>
    </linearGradient>
  </defs>
  <g id="Layer_1-2" data-name="Layer 1">
    <g>
      <ellipse class="cls-82" cx="246.76" cy="249.87" rx="246.76" ry="249.87"/>
      <polygon class="cls-94" points="141.68 180.7 149.97 386.96 351.95 393.25 333.04 173.65 141.68 180.7"/>
      <path class="cls-83" d="m416.47,431.24c-1.72-7.27-3.71-13.21-6.01-17.2-7.59-13.19-37.03-27.77-40.91-28.15-13.59-1.31-69.75-.17-75.43-18.31-3.38-10.81-3.21-23.08-2.11-32.94h-73.42c1.31,8.9,1.11,17.99.9,27.15-.44,18.83-14.83,16.46-17.97,17.51-12.26,4.09-42.14,7.87-61.73,10.03-10.71,1.18-46.05,23.48-51.26,41.91-.71,2.52-1.35,5.45-1.94,8.71,43.1,37.27,99.02,59.78,160.14,59.78,65.75,0,125.49-26.05,169.72-68.5Z"/>
      <path class="cls-1" d="m87.57,435.14c2.48,2.65,4.99,6.78,7.44,11.77,5.49,4.34,11.17,8.45,17.02,12.31-9.04-22.93-17.73-37.92-17.73-37.92-5.87,8.08-6.02,10.93-6.73,13.84Z"/>
      <path class="cls-69" d="m410.15,411.49c-.72,1.26-7.38,16.69-14.93,37.97,5.45-4.16,10.71-8.55,15.79-13.14,1.42-4.65,2.65-8.78,3.59-12.1,0,0-1.25-4.55-4.45-12.73Z"/>
      <path class="cls-87" d="m367.04,385.18c-16.21,27.31-96.54,26.39-118.63,26.31-33.98-.12-96.9-8.01-104.91-23.78-41.44,8.89-53.93,35.52-56.4,41.96,4.88,5.07,9.93,13.21,14.73,22.45,40.69,29.95,90.76,47.63,144.92,47.63,59.16,0,113.45-21.09,155.96-56.25,6.03-15.28,10.63-26.67,10.63-26.67,0,0-13.82-31.63-46.31-31.64Z"/>
      <path class="cls-70" d="m295.2,349.29c-.4-4.22-1.02-14.79-1.16-20.32-1.16,1.43-74.1-1.23-76.91-5.39l-8.47.08s2.5,26.83-1.47,46.06c-.81,3.91-24.44,9.45-39.96,12.69,1.11.86,5.09,3.54,5.98,4.02,13.28,1.31,24.7,2.87,30.12,1.93,6.63-1.15,17.79-6.21,25.86-9.91,43.74-20.04,57.38-26.67,57.38-26.67,2.05,18.64,15.83,30.97,15.09,30.79,11,2.68,24.41,3.18,36.3,2.85,2.97-1.21,5.89-3,8.88-4.78-33.25-4.31-43.27-9.98-45.67-11.61-2.57-1.75-5.04-10.04-5.95-19.72Z"/>
      <path class="cls-68" d="m248.41,404.83s15.74,2.79,19.87,7.66c0,0-4.55-12.53-19.87-7.66Z"/>
      <path class="cls-74" d="m268.82,401.77c13.66-10.64,27.32-7.6,44.74-9.63,17.42-2.02,45.33-7.46,45.33-7.46-7.93,1.55-73.44,2.67-79.56,4.19-6.12,1.52-10.52,12.9-10.52,12.9Z"/>
      <path class="cls-75" d="m235.41,390.41c-7.54-2.53-65.11-6.1-75.47-5.09,0,0,72.64,7.28,87.24,16.34,0,0-4.24-8.72-11.77-11.26Z"/>
      <path class="cls-73" d="m206.53,312.16c2.76,11.76,2.35,45.18,2.35,45.18,50.23,15.96,85.61-20.09,85.61-20.09,0,0,.72-27.52,2.31-37.14-3.89-.34-90.28,12.04-90.28,12.04Z"/>
      <path class="cls-71" d="m280.87,363.98c-4.61,26.51,7.62,43.07,7.62,43.07l25.53-6.93-19.03-76.54s-9.51,13.88-14.12,40.4Z"/>
      <path class="cls-72" d="m208.53,347.3l-4.96,54.37,35.77,14.71s7.85-14.71,3.67-32.43c-4.19-17.71-34.47-36.66-34.47-36.66Z"/>
      <path class="cls-38" d="m129.31,430.29s1.9,19.27,5.06,42.08c33.71,17.49,71.91,27.36,112.38,27.36,37.61,0,73.25-8.53,105.15-23.77-1-24.46-2.59-45.67-2.59-45.67h-220Z"/>
      <path class="cls-36" d="m291.28,410.52s-18.49,22.62-10.41,59.63c2.23,10.22,6.09,18.5,10.68,25.46,15.58-2.89,30.65-7.26,45.06-12.97-11.1-37.61-20.8-79.73-20.8-79.73l-24.54,7.61Z"/>
      <path class="cls-43" d="m221.14,435.72c10.32-5.44,19.86-23.23,19.86-23.23l-40.75-11.12-16.69,90.08c16.35,4.37,33.36,7.1,50.86,7.97.58-1.46,1.12-2.95,1.58-4.47,11.5-37.86-14.86-59.23-14.86-59.23Z"/>
      <path class="cls-46" d="m253.93,406.05c-47.22-.81-81.81-26-81.81-26l-12.62,4.2s30.65,31.47,95.53,33.15c75.59,1.96,98.73-35.26,98.73-35.26l-12.28-3.03c-17,17.47-45.11,27.65-87.55,26.93Z"/>
      <path class="cls-90" d="m156.48,208.75c-16.04.91-11.88,18-4.83,33.93,4.61,10.42,8.94,22.25,20.73,22.25,0,0-3.04-20.99-6.67-48.58,0,0-6.1-7.78-9.23-7.61Z"/>
      <path class="cls-19" d="m159.58,237.52c4.22-28.36-15-30.31-10.64-10.95,0,0,2.66-9.13,5.09-6.4,2.99,3.35-3.21,5.2-.04,19.84,1.65,7.61,9.57,15.63,9.57,15.63,0,0-5.78-6.11-3.98-18.13Z"/>
      <path class="cls-90" d="m340.04,208.75c-3.13-.18-9.23,7.61-9.23,7.61-3.63,27.59-6.67,48.58-6.67,48.58,11.8,0,16.13-11.83,20.73-22.25,7.05-15.93,11.2-33.02-4.83-33.93Z"/>
      <path class="cls-16" d="m336.94,237.52c1.79,12.02-3.98,18.13-3.98,18.13,0,0,7.93-8.03,9.57-15.63,3.17-14.64-3.03-16.49-.04-19.84,2.43-2.73,5.09,6.4,5.09,6.4,4.37-19.36-14.86-17.42-10.64,10.95Z"/>
      <path class="cls-91" d="m259.28,91.1s-81.59,10.65-91.87,34.14c-11.2,25.59-7.99,61.54-4.79,85.05,3.2,23.51,9.6,61.64,15.46,72.43,5.86,10.79,35.54,39.16,41.93,43.95,5.99,4.49,13.65,12.09,28.49,12.08,13.2,0,23.61-8.02,29.45-12.59,6.3-4.93,34.82-33.78,40.68-44.58,5.87-10.79,12.37-47.79,15.57-71.31,3.2-23.51,6.4-59.46-4.79-85.05-10.28-23.49-34.42-31.88-70.13-34.14Z"/>
      <path class="cls-17" d="m320.5,188.94c-5.97-4.67-14.62-8.56-26.3-7.37-37.46,3.81-36.89,41.18-40.4,62.42,45.98,18.23,72.73-14.97,72.73-14.97,0,0,7.86-29.2-6.04-40.09Z"/>
      <path class="cls-18" d="m199.25,183.19c-11.7-.78-19.46,2.14-25.4,6.99-13.81,11.28-3.69,43.05-3.69,43.05,0,0,26.99,32.05,72.84,12.36-3.66-20.98-6.27-59.91-43.75-62.4Z"/>
      <path class="cls-2" d="m214.53,220.61c-10.52-3.15-51.27-11.72-49.33,1.82,4.3,29.93,8.21,50.5,13.41,59.82,5.45,9.76,21.48,25.12,28.39,26.29,10.71,1.82,22.06-37.59,22.32-51.1.36-18.9-4.28-33.69-14.79-36.83Z"/>
      <path class="cls-65" d="m282.37,220.61c-10.52,3.14-15.15,17.93-14.79,36.83.25,13.51,11.61,52.92,22.32,51.1,6.92-1.17,22.95-16.53,28.39-26.29,5.2-9.32,9.11-29.89,13.41-59.82,1.94-13.53-38.81-4.97-49.33-1.82Z"/>
      <path class="cls-27" d="m250.35,311.74c-7.51.36-13.55,3.06-13.5,6.03.04,2.98,6.14,5.13,13.63,4.77,7.49-.36,13.52-3.05,13.5-6.04-.05-2.98-6.16-5.12-13.63-4.76Z"/>
      <path class="cls-90" d="m163.03,213.27s7.51,54.45,14.49,69.59c2.27,4.93,22.1,25.7,34.85,37.55,0,0-25.3-25.63-32.06-42.99-5.81-14.91-17.28-64.15-17.28-64.15Z"/>
      <path class="cls-90" d="m284.35,320.41c12.75-11.85,32.76-32.62,35.03-37.55,6.97-15.14,14.49-69.59,14.49-69.59,0,0-11.47,49.24-17.28,64.15-6.76,17.36-32.24,42.99-32.24,42.99Z"/>
      <path class="cls-93" d="m247,98.53c-120.55.03-54.59,100.83-54.59,100.83,0,0,15.2-84.97,57.57-83.63,0,0,20.68,1.17,52.48,84,0,0,65.1-101.22-55.45-101.2Z"/>
      <path class="cls-41" d="m316.01,216.91l-7.66,9.74s5.64,15.49,5.67,23.54c.07,18.99-24.72,65.53-24.72,65.53,0,0,34.84-34.91,34.43-36.82-.41-1.9,8.03-35.96,8.03-35.96l-15.76-26.04Z"/>
      <path class="cls-63" d="m185.23,224.26l-7.66-9.74-15.76,26.04s8.44,34.05,8.03,35.96c-.41,1.9,35.6,37.28,35.6,37.28,0,0-25.96-47-25.89-65.99.03-8.06,5.67-23.54,5.67-23.54Z"/>
      <path class="cls-23" d="m323.55,190.22c-16.61-10.55-27.85-3.37-27.85-3.37,34.05-2.39,30.04,30.42,30.04,30.42,0,0,6.66-21.43-2.19-27.05Z"/>
      <g>
        <path class="cls-54" d="m294.48,199.72c-25.16,0-27.5,15.38-28.02,26.49,1.9.42,3.91.79,7.65,1.94,5.05,1.56,10.97,4.06,19.51,3.98,6.72-.06,21.19-3.1,21.4-17.55.17-11.43-14.46-14.36-20.54-14.86Z"/>
        <path class="cls-21" d="m267.61,225.34c5.5.78,9.16,2.67,12.98,3.7-2.97-2.74-4.69-5.22-4.46-9.73.2-3.91,3.18-8.17,5.71-10.53-8.91,5.26-14.23,16.56-14.23,16.56Z"/>
        <path class="cls-86" d="m267.61,225.34c1.58-1.53,4.37-4.67,8.75-7.28.55-3.05,2.28-5.75,4.75-7.65-8.15,3.96-13.49,14.92-13.49,14.92Z"/>
        <path class="cls-20" d="m301.31,220.59c-.24,4.7-2.71,7.64-6.15,9.91,14.7-1.91,18.87-13.57,18.87-13.57-9.08-7.54-15.61-9.89-21.81-10.44,5.53,1.86,9.42,7.6,9.09,14.1Z"/>
        <path class="cls-26" d="m276.32,217.74c-.11.56-.15.97-.2,1.57-.33,4.37,1.36,7.1,4.46,9.73,1.04.5,10.25,2.38,15.89,1.44,3.6-2.22,6.21-5.05,6.47-9.6.14-2.38-.34-4.64-1.32-6.64-7.14-2.46-16.56-2.41-25.3,3.5Z"/>
        <path class="cls-86" d="m296.44,209.27c2.82,1.57,4.96,4.09,5.94,7.11,5.15,2.15,8.53,4.93,8.53,4.93l2.48-5c-3.58-4.54-10.42-5.82-16.95-7.04Z"/>
        <path class="cls-22" d="m296.44,209.27c-3.95-.73-8.05-.78-11.84-.05-1.22.23-2.39.65-3.5,1.2-2.47,1.9-4.35,4.55-4.83,7.65,3.23-1.92,7.39-3.55,12.49-4.03,5.09-.47,9.9.79,13.7,2.38-.89-3.09-3.19-5.57-6.01-7.14Z"/>
        <path class="cls-66" d="m289.92,210.08c-4.66-.35-8.7,3.01-9.03,7.51-.35,4.5,3.16,8.42,7.81,8.77,4.66.35,8.7-3.02,9.04-7.51.34-4.49-3.16-8.42-7.82-8.77Z"/>
        <path class="cls-88" d="m291.38,214.89c-1.11-.64-2.55-.23-3.24.9-.68,1.13-.33,2.57.77,3.2,1.1.63,2.55.23,3.23-.9.69-1.13.34-2.56-.77-3.2Z"/>
        <path class="cls-88" d="m298.97,218.28c-1.52-.89-3.44-.41-4.31,1.09-.87,1.5-.35,3.45,1.16,4.33,1.51.9,3.44.41,4.31-1.09.87-1.5.35-3.44-1.16-4.34Z"/>
        <path class="cls-45" d="m319.64,205.76s-2.45,5.15-14.73.73c-23.64-7.64-36.83,6.14-37.31,18.85,0,0,7.11-13.97,20.52-15.29,8.17-.8,15.24,2.56,22.3,6.39.08,5.67-7.46,12.59-15.61,14.24,6.97.06,22.48-7.12,23.61-13.02-.43.73-1.92,1.24-3.8.55,0,0,6.65-2.66,5.01-12.46Z"/>
        <path class="cls-77" d="m282.41,200.91c-8.2,2.81-11.76,8.74-11.76,8.74,0,0,3.7-4.86,12.5-7.49,9.14-2.73,21.76-.08,21.76-.08-5.55-2.61-14.3-3.98-22.5-1.17Z"/>
        <path class="cls-85" d="m287.14,208.82c-15.37,2.59-19.54,16.52-19.54,16.52,0,0,5.91-11.96,19.87-14.45,7.94-1.42,16.91,2.49,22.95,5.55,0,0-9.44-9.96-23.29-7.62Z"/>
      </g>
      <g>
        <path class="cls-79" d="m201.01,199.72c-6.08.5-20.71,3.43-20.54,14.86.21,14.45,14.68,17.49,21.4,17.55,8.54.08,14.46-2.42,19.51-3.98,3.74-1.15,5.75-1.52,7.65-1.94-.52-11.1-2.85-26.49-28.02-26.49Z"/>
        <path class="cls-29" d="m213.66,208.78c2.54,2.36,5.51,6.62,5.71,10.53.22,4.52-1.49,6.99-4.46,9.73,3.82-1.03,7.48-2.91,12.98-3.7,0,0-5.32-11.3-14.23-16.56Z"/>
        <path class="cls-86" d="m214.39,210.42c2.47,1.9,4.2,4.59,4.75,7.65,4.37,2.61,7.17,5.74,8.75,7.28,0,0-5.34-10.96-13.49-14.92Z"/>
        <path class="cls-25" d="m203.28,206.49c-6.2.55-12.73,2.91-21.81,10.44,0,0,4.17,11.66,18.87,13.57-3.44-2.28-5.91-5.22-6.15-9.91-.33-6.5,3.56-12.24,9.09-14.1Z"/>
        <path class="cls-53" d="m219.17,217.74c-8.75-5.91-18.16-5.96-25.3-3.5-.97,2-1.46,4.26-1.32,6.64.27,4.55,2.87,7.38,6.47,9.6,5.64.94,14.85-.94,15.89-1.44,3.1-2.64,4.79-5.36,4.46-9.73-.05-.6-.1-1.01-.2-1.57Z"/>
        <path class="cls-86" d="m182.1,216.31l2.48,5s3.38-2.78,8.53-4.93c.98-3.02,3.12-5.54,5.94-7.11-6.53,1.21-13.37,2.5-16.95,7.04Z"/>
        <path class="cls-28" d="m214.39,210.42c-1.11-.55-2.28-.96-3.5-1.2-3.79-.73-7.89-.68-11.84.05-2.82,1.57-5.12,4.05-6.01,7.14,3.79-1.58,8.61-2.85,13.7-2.38,5.1.48,9.26,2.11,12.49,4.03-.49-3.09-2.36-5.75-4.83-7.65Z"/>
        <path class="cls-67" d="m205.57,210.08c-4.65.34-8.16,4.27-7.82,8.77.34,4.49,4.38,7.86,9.04,7.51,4.65-.35,8.16-4.28,7.81-8.77-.33-4.5-4.37-7.86-9.03-7.51Z"/>
        <path class="cls-88" d="m207.41,214.89c-1.11-.64-2.55-.23-3.24.9-.68,1.13-.33,2.57.77,3.2,1.1.63,2.55.23,3.23-.9.69-1.13.34-2.56-.77-3.2Z"/>
        <path class="cls-88" d="m215,218.28c-1.52-.89-3.44-.41-4.31,1.09-.87,1.5-.35,3.45,1.16,4.33,1.51.9,3.44.41,4.31-1.09.87-1.5.35-3.44-1.16-4.34Z"/>
        <path class="cls-64" d="m190.58,206.49c-12.27,4.42-14.73-.73-14.73-.73-1.64,9.81,5.01,12.46,5.01,12.46-1.89.69-3.37.18-3.8-.55,1.13,5.9,16.64,13.08,23.61,13.02-8.14-1.65-15.69-8.57-15.61-14.24,7.06-3.83,14.13-7.2,22.3-6.39,13.41,1.32,20.52,15.29,20.52,15.29-.48-12.71-13.67-26.49-37.31-18.85Z"/>
        <path class="cls-78" d="m213.08,200.91c-8.2-2.81-16.95-1.44-22.5,1.17,0,0,12.62-2.66,21.76.08,8.8,2.63,12.5,7.49,12.5,7.49,0,0-3.56-5.93-11.76-8.74Z"/>
        <path class="cls-85" d="m208.35,208.82c-13.84-2.33-23.29,7.62-23.29,7.62,6.04-3.06,15.01-6.97,22.95-5.55,13.96,2.49,19.87,14.45,19.87,14.45,0,0-4.16-13.93-19.54-16.52Z"/>
      </g>
      <g>
        <polygon class="cls-24" points="246.68 261.23 233 261.23 231.46 263.18 247.49 274.21 262.55 262.86 260.4 261.06 246.68 261.23"/>
        <path class="cls-31" d="m246.68,261.61l-10-2.76-5.22.61.48,3.43s6.08-1.89,11.4.37h6.53s6.47-2.5,12.68-.4l.27-2.96-5.19-1.05-10.95,2.76Z"/>
        <path class="cls-90" d="m262.35,250.19s2.4,4.01,1.39,6.57c-1.02,2.56-7.85.35-10.65,2.1-5.15,3.23-8.28,2.43-13.4,0-3.37-1.6-8.09.41-9.98-2.36-.66-.96-.82-4.39.13-6.3,0,0-2.82,1.58-3.25,5.87-.49,4.92,4.6,7.6,5.38,7.09s-.65-4.22,4.05-3.56c4.69.66,4.45,3.03,5.21,3.83.76.8,9.02,1,10.42.13,1.4-.87,1.02-4.1,5.46-3.96,4.44.14,4.57,3.17,5.2,3.56.63.39,3.27-1.97,4.03-6.48.76-4.51-3.99-6.48-3.99-6.48Z"/>
        <path class="cls-42" d="m236.09,247.96c-.09,3.14.28,4.47,1.62,6.52,2.04,3.12,16.37,5.67,18.82-1.49.49-1.43.47-3.66.22-6.48-.29-3.22-20.57-1.68-20.66,1.45Z"/>
      </g>
      <g>
        <path class="cls-52" d="m233.16,303.66c7.49,4.57,25.86,3.42,29.49.49,5.35-4.32,10.68-13.74,10.68-13.74h-51.1s8.07,11.52,10.93,13.26Z"/>
        <path class="cls-76" d="m206.16,274.33c-.71,1.62-.33,4.6,1.75,5.11,2.08.5,7.36,1.76,12.07,4.66-3.67-4.44-13.19-11.22-13.82-9.77Z"/>
        <path class="cls-15" d="m274.52,284.49c4.63-3.02,8.87-3.74,10.94-4.3,3-1.34,3.41-3.73,2.66-5.33-.66-1.43-10.05,5.1-13.6,9.63Z"/>
        <path class="cls-84" d="m211.1,277.15s11.46,11.87,13.96,13.66c2.5,1.79,17.48,7.99,20.33,8.53,2.85.54,20.38-3.7,22.11-5.63,1.73-1.94,16.51-16.56,16.51-16.56,0,0-36.58.66-38.21.77s-34.69-.77-34.69-.77Z"/>
        <path class="cls-32" d="m226.97,283.59l-1.92,5.85s14.56,8.58,22.5,8.58,22.34-7.21,22.34-7.21l-2.94-7.21h-39.98Z"/>
        <path class="cls-81" d="m235.16,293.61c-4.41-.59-24.06-16.46-24.06-16.46,0,0,14.11,17.64,20.28,22.64,6.17,5,26.23,5.34,33.22,0,4.6-3.51,19.4-22.64,19.4-22.64,0,0-17.72,15.38-22.42,16.56-4.7,1.18-22.02.49-26.43-.1Z"/>
        <path class="cls-30" d="m224.65,279.11s-1.23,6.85,5.94,8.62c7.16,1.76,30.97.75,34.17.35,7.82-.98,7.22-9.53,7.22-9.53l-47.32.56Z"/>
        <path class="cls-14" d="m248.52,294.93c-4.92-.31-13.94.53-14.85,1.73-2.25,2.96,3.06,5.61,14.85,5.71,11.79.1,15.72-4.08,13.58-5.71-2.14-1.63-8.66-1.43-13.58-1.73Z"/>
        <path class="cls-89" d="m251.14,296.97c-2.05.71,9.12,1.73,11.51.61,2.39-1.12,5.35-5.52,5.35-5.52,0,0-2.59,1.13-4.79,2.36-2.19,1.22-10.03,1.84-12.08,2.55Z"/>
        <path class="cls-5" d="m248.52,272.72c-11.59.2-34.71,4.26-34.71,4.26,0,0,25.93-1.48,34.91-1.3,8.98.18,30.79,1.2,30.79,1.2,0,0-19.41-4.37-31-4.17Z"/>
        <path class="cls-7" d="m224.65,281.45s3.65,1.25,23.63,1.6c19.97.36,23.41-1.46,23.41-1.46,0,0,.3-2.11.29-2.58l-47.33.09s-.22,1.27,0,2.34Z"/>
        <path class="cls-81" d="m211.1,277.15s11.98,3.94,36.45,4.41c27.59.53,36.45-4.41,36.45-4.41,0,0-23.54-1.47-35.28-1.47-15.78,0-37.63,1.47-37.63,1.47Z"/>
        <path class="cls-8" d="m222.66,278.01s12.02,2.24,26.8,2.73c14.78.49,28.63-2.19,28.63-2.19,0,0-16.61-2.06-30.06-2.17-13.45-.1-25.37,1.63-25.37,1.63Z"/>
        <path class="cls-84" d="m209.29,277.74c1.13.51,1.99-.34,6.46,1.27,0,0-7.61-3.96-8.11-3.73-.35.16-.01,1.7,1.65,2.46Z"/>
        <path class="cls-84" d="m278.91,279.67c3.9-1.75,5.14-.93,6.26-1.47,1.65-.79,1.92-2.27,1.6-2.49-.62-.42-7.86,3.96-7.86,3.96Z"/>
      </g>
      <path class="cls-80" d="m248.21,338.39c-11.36-.38-15.84-3.6-20.21-6.08-2.19-1.24-22.55-18.53-22.55-18.53,0,0,15.43,18.3,22.55,22.31,6.54,3.69,12.79,8.37,20.41,8.37,6.06,0,15.74-3.59,23.97-10.38,5.04-4.16,18.25-19.67,18.25-19.67-1.58,1.51-18.21,15.46-21.48,17.65-3.11,2.08-9.87,6.69-20.94,6.32Z"/>
      <path class="cls-6" d="m275.13,184.91c-2.38,1.18-3.73,3.26-3.33,7.2-1.12-2.32-.62-3.97.38-5.54-4.01,3.36-3.51,8.96,1.05,7.4,5.19-1.78,25.6-7.53,29.79-7.63,6.5-.15,15.56,2.2,18.1,3.83,0,0-10.3-9.55-17.46-10.31-6.58-.7-23.41,3.2-28.53,5.05Z"/>
      <path class="cls-4" d="m222.1,186.57c.99,1.56,1.49,3.21.38,5.54.4-3.94-.95-6.02-3.33-7.2-5.11-1.84-21.92-5.75-28.49-5.05-7.15.76-17.43,10.31-17.43,10.31,2.53-1.63,11.58-3.98,18.07-3.83,4.18.11,24.57,5.85,29.75,7.63,4.56,1.56,5.05-4.04,1.05-7.4Z"/>
      <path class="cls-11" d="m190.22,434.2s47.53-11.08,30.12-60.41c-17.41-49.33-37.22-64.39-37.22-64.39,0,0-19.53-70.7-14.37-80.36,38.67-72.42-8.66-128.88,75.69-118.53l9.65-38.42s-12.2-3.94-33.74,0c-34.78,6.35-72.42,59.27-80.21,76.27-7.78,16.99-19.53,71.35-18.87,81.56.67,10.2-4.73,75.68-7.5,94.48-2.77,18.81-8.25,50.19,3.31,94.75,0,0-5.76,18.18-4.28,40.59,27.62,18.11,59.03,30.78,92.78,36.52,1.72-15.97-2.12-36.27-15.35-62.05Z"/>
      <path class="cls-92" d="m395.6,387.32s7.86-26.77,3.74-46.85c-4.11-20.08-28.22-70.43-28.22-70.43,0,0-3.54-83.98-10.91-102.85-7.36-18.88-31.7-79.08-62.59-89.79-30.9-10.71-43.53-3.3-43.53-3.3v24.59c43.12-10.22,72.42,137.44,72.42,137.44-2.37,39.43-29.19,95.8-32.61,118.02-3.43,22.22,27.32,71.9,27.32,71.9-8.98,32.27-2.57,48.32,6.5,59.92,21.01-7.39,40.73-17.57,58.73-30.11-.77-8.03-1.86-15.31-1.86-21.39,0-21.38,11.02-47.14,11.02-47.14Z"/>
      <path class="cls-13" d="m187.61,398.6l-31.98,23.95s13.93,7.5,20.18,47.61c1.12,7.18,1.18,13.57.54,19.25,11.32,3.41,22.98,6.01,34.92,7.75,1.17-1.69,2.33-3.44,3.48-5.32,17.47-28.67-27.15-93.23-27.15-93.23Z"/>
      <path class="cls-9" d="m171.04,96.62c-25.81,24.45-32.36,46.43-38.97,62.74-6.62,16.31-8.78,58-10.74,73.92-1.96,15.92-22.19,52.48-22.19,52.48,6.44-10.89,52.32-30.63,77.03-59.38,24.71-28.74,7.51-74.21,20.26-102.27,12.75-28.06,50.78-10.92,50.78-10.92l6.89-41.1c-37.97-10.09-66.4,8.75-83.06,24.53Z"/>
      <path class="cls-48" d="m311.92,80.81c-28.53-17.13-57.83-8.72-57.83-8.72l-4.67,23.21,2.73,16.87c33.49-8.73,43.17,22.18,45.13,32.43,1.97,10.26,18.3,58.25,22.61,76.39,4.31,18.14,54.89,44.45,68.38,61.68-17.16-37.95-16.16-71.57-26.54-118.31-5.71-25.71-21.15-66.34-49.82-83.55Z"/>
      <path class="cls-12" d="m154.21,438.03c6.14-16.87,50.74-52.65,49.17-87.76-1.57-35.12-41.79-92.03-41.79-92.03l-28.77,14.89s11.88,50.68,8.43,79.33c-3.45,28.65-19.05,71.69-24.18,87.76-2.23,6.99-3.62,13.47-4.32,19.5,10.72,7.03,22.01,13.24,33.78,18.55-.08-11.44,2.05-24.78,7.67-40.23Z"/>
      <path class="cls-3" d="m145.33,260.97l-26.87,17.31s-7.1,33.48-20.22,63.26c-13.12,29.78-28.11,65.56,15.53,100.89,0,0-12.27-19.53,0-60.88,6.34-21.37,48.73-39.73,43.65-68.36-5.08-28.62-12.09-52.23-12.09-52.23Z"/>
      <path class="cls-10" d="m374.41,399.8l-36.79-38s-44.79,45.66-43.39,101.83c.22,8.64,6.19,18.59,13.35,28.44,15.25-3.91,29.92-9.27,43.89-15.91-.57-2.15-.95-3.32-.95-3.32l23.89-73.05Z"/>
      <path class="cls-34" d="m362.93,351.35s-10.12,50.03-11.31,54.08c-1,3.41-12.05,38.57-10.37,75.31,23.98-10.07,46.04-23.87,65.5-40.67-2.32-7.49-5.17-15.35-7.41-23.33-6.4-22.76-36.42-65.39-36.42-65.39Z"/>
      <path class="cls-35" d="m369.77,448.98c1.2-23.74,30.19-45.24,29.75-63.79-.44-18.55-58.94-73.59-50.21-109.82l-17.55-14.31s-36.06,52.73-30.07,71.78c8.32,26.45,54.34,55.53,49.43,77.8-4.92,22.27-9.78,32.96-1.54,55.62,1.16,3.18,2.6,6.09,4.24,8.8,5.78-2.82,11.44-5.88,16.96-9.14-.91-5.02-1.32-10.61-1-16.94Z"/>
      <path class="cls-37" d="m354.28,433.02c.98-8.75,3.71-17.37,4.3-26.13,1.63-24.01-20.42-39.67-29.07-59.93-8.31-19.47,1.27-40.48,8.6-58.64-15.14,19.57-27.76,43.25-17.26,67.99,7.23,17.02,26.2,33.49,23.32,53.26-3.22,22.04-6.6,46.4,5.96,66.4.14.22.29.4.43.62,2.79-1.31,5.56-2.66,8.3-4.08-.92-1.73-1.71-3.46-2.3-5.16-3.79-10.93-3.56-22.96-2.29-34.32Z"/>
      <path class="cls-62" d="m199.18,495.08c4.27.84,8.57,1.58,12.92,2.19-1.76-15.15-9.71-30.26-16.57-43.35-.11,13.74,3.58,27.73,3.65,41.16Z"/>
      <path class="cls-55" d="m301.02,355.77c1.01-16.87,7.67-32.06,13.76-47.56,5.22-13.29,7.26-29.8,7.12-44.1-3.08,8.15-5.48,18.97-9.27,26.82-3.91,8.07-8.94,15.5-13.21,23.37-8.42,15.52-13.58,32.77-12.34,50.54,2.12,30.37,23.06,59.07,49.28,73.75-20.47-22.38-37.21-51.56-35.33-82.82Z"/>
      <path class="cls-56" d="m319.21,444.21c-3.76,10.3-4.32,21.67-2.05,32.37.87,4.1,2.26,7.91,3.89,11.62,4.42-1.41,8.78-2.95,13.08-4.6-2.73-5.06-5.45-10.12-7.55-15.52-3.03-7.8-5.13-15.82-7.37-23.86Z"/>
      <path class="cls-57" d="m160.72,116.89c-13.03,16.2-23.49,37.39-34.95,54.7-5.35,8.08-12.87,16.13-15.49,25.63-2.94,10.69.38,21.92,3.59,32.12-1.46-7.33-2.97-14.92-2.38-22.43.75-9.63,5.68-15.98,11.6-23.2,12.64-15.44,23.8-32.06,36.03-47.82,21.58-27.81,52.88-66.12,92.62-51.54-32.38-24.88-71.76,8.58-91.02,32.54Z"/>
      <path class="cls-61" d="m135.11,235.3c-14.53,13.26-53.76,29.14-42.64,55.13-5.33-24.23,27.23-33.55,41.84-44.39,19.49-14.46,34.63-36.67,37.6-61.1-4.97,6.89-8.44,14.94-13.08,22.08-6.73,10.34-14.61,19.96-23.72,28.29Z"/>
      <path class="cls-59" d="m105.38,317.39c-8.99,13.17-21.61,26.24-22.1,43.12,4.91-13.88,15.96-23.18,25.13-34.21,4.75-5.72,8.68-11.87,11.47-18.77,2.82-6.96,7-17.66,5.17-25.28-6.49,11.67-12.14,24.11-19.67,35.14Z"/>
      <path class="cls-58" d="m363.89,283.45c-1.82,7.62,2.36,18.32,5.17,25.28,2.79,6.9,6.72,13.06,11.47,18.77,9.16,11.03,20.22,20.33,25.13,34.21-.49-16.89-13.11-29.95-22.1-43.12-7.53-11.03-13.18-23.47-19.67-35.14Z"/>
      <path class="cls-60" d="m149.47,315.51c-13.25,13.18-17.43,35.33-17.24,53.23.26,23.93,8.78,47.3,24.08,65.73-8.28-16.47-13.92-33.42-15.56-51.9-2.07-23.29,2.54-44.8,8.71-67.06Z"/>
      <path class="cls-107" d="m342.08,328.77c-5.23-13.65,1.05-27.7,5.65-40.57-7.04,7.02-12.43,17.31-14.04,27.11-2.53,15.43,6.81,26.99,14.86,39,14.93,22.27,19.98,50.19,13.2,76.21,9.5-22.65,9.51-48.17-1.01-70.56-5.16-10.99-14.33-19.85-18.68-31.19Z"/>
      <path class="cls-33" d="m209.78,108.24c-19.2,7.32-18.93,53.17-18.93,53.17,17.25-54.76,56.35-48.22,56.35-48.22-9.37-13.35-25.51-9.49-37.42-4.95Z"/>
      <path class="cls-51" d="m254.09,106.21c-2.55,4.66-1.94,5.97-1.94,5.97,0,0,33.2-.68,43.55,35.9-1.82-44.74-37.33-49.7-41.61-41.87Z"/>
      <path class="cls-109" d="m108.98,390.42c-10.99,6.69-17.14,23.51-18.7,35.5-.76,5.86-.48,11.97.84,17.83,2.46,2.03,4.95,4.01,7.49,5.94-4.03-19.18,4.5-40.5,10.37-59.28Z"/>
      <path class="cls-110" d="m125.19,467.34s.03.01.04.02c0-.02.01-.04.02-.07-.02.01-.04.03-.06.05Z"/>
      <path class="cls-108" d="m182.79,150.99c-.78,12.37-.59,24.72-2.74,36.94-2.12,12.08-6.94,23.63-13.84,33.76-7.83,11.49-18.23,20.16-30.1,27.22-11.45,6.8-23.55,12.82-32.97,22.46-15.77,16.14-17.76,40.59-6.13,59.8-8.25-23.11-.93-45.47,19.7-58.38,16.56-10.37,35.28-15.95,49.66-29.76,13.86-13.31,23.4-31.25,26.61-50.2,3.17-18.68-1.32-37.43,3.52-56.01,9.99-38.3,30.36-41.74,49.53-40.57-38.31-13.96-60.95,18.8-63.22,54.73Z"/>
      <path class="cls-115" d="m165.14,149.12c-2.59,10.61-9.83,18.51-17.19,26.77-6.95,7.81-15.28,14.34-21.64,22.67-10.28,13.48-9.25,28.57-8.15,44.6,1.85-9.45,2.55-20.57,7.18-29.15,4.28-7.94,11.86-13.52,18.84-18.93,15.14-11.71,26.57-23.52,30.36-42.84,6.19-31.53,36.73-66.22,71.47-56-32.59-22.31-69.88,7.75-80.88,52.87Z"/>
      <path class="cls-111" d="m326.43,203.31c-3.69-21.73-1.86-43.37-9.69-64.42-4.83-13-12.58-24.31-22.72-33.72-10.84-10.06-31.54-21.43-43.74-6.32,30.94-18.02,57.28,33.06,63.13,56.09,4.42,17.4,3.76,35.69,8.76,52.97,4.75,16.45,17.1,33.81,35.68,34.94-18.68-3.51-28.5-22.33-31.42-39.54Z"/>
      <path class="cls-113" d="m362.45,148.69c-5.34-8.23-9.21-15.52-15.92-22.68-13-13.88-26.2-28.28-43-37.62-14.9-8.29-34.78-11.69-49.72.33,32.72-11.42,60.76,15.72,81.49,36.8,12.54,12.75,26.59,32.21,34.11,50.27,7.61,18.26,1.24,36.28,14.23,52.36-9.23-16.08-4.01-28.79-7.13-46.79-1.68-9.69-7.34-22.32-14.06-32.67Z"/>
      <path class="cls-116" d="m309.52,402.31c-14.98,15.45-21.57,40.17-20.99,61.49.32,11.83,4.17,21.63,9.78,30.47,1.96-.42,3.91-.86,5.84-1.33-3.05-5.73-5.46-11.75-6.67-18.28-4.73-25.57,4.46-48.66,12.04-72.34Z"/>
      <path class="cls-112" d="m416.08,400.92c-1.79-10.3-6.02-19.87-10.83-28.92-4.54-8.55-9.74-17.65-18.12-22.55,7.26,14.84,14.64,29.9,19.83,45.74,4.62,14.09,4.27,28.29,2.4,42.6,1.44-1.28,2.87-2.58,4.29-3.89,2.94-10.76,4.36-21.87,2.43-32.98Z"/>
      <path class="cls-114" d="m376.97,445.83c-4.62,5.45-6.16,12.6-5.78,19.84,2.22-1.32,4.42-2.67,6.6-4.06-.71-5.13-.94-10.4-.82-15.78Z"/>
      <path class="cls-49" d="m231.02,472.9c-2.13-19.71-15.11-40.69-30.78-51.6,5.19,13.98,16.03,29.7,21.02,44.07,4.01,11.54,3.01,22.59-.98,32.94,1.7.18,3.41.34,5.12.49,4.31-7.79,6.62-16.53,5.61-25.9Z"/>
      <path class="cls-104" d="m169.49,249.47c-2.91,23.88,1.32,34.27,9.1,46.96,10.82,17.64,23.27,34.5,38.74,48.37-9.8-14.09-18.39-28.85-26.92-43.74-9.3-16.25-13.8-15.3-20.93-51.59Z"/>
      <path class="cls-99" d="m398.82,446.66c2.99-2.37,5.92-4.82,8.8-7.33-1.93-6.26-4.65-13.65-8.28-22.58,1.59,10.37,1.37,20.32-.52,29.91Z"/>
      <path class="cls-40" d="m254.09,72.09c-69.75-21.3-108.69,57.04-108.69,57.04,64.69-80.13,107-50.3,107-50.3,56.4-16.14,95.82,46.14,95.82,46.14-35.04-73.37-94.13-52.87-94.13-52.87Z"/>
      <path class="cls-98" d="m151.51,403.47c16.7-15.54,27.22-35.82,26.76-59.05-.41-21-10.76-39.09-23.63-55.05,11.87,23.9,19.87,48.7,9.33,74.74-3.2,7.9-7.74,15.14-13.55,21.37-7.82,8.4-20.46,12.25-27.53,21.41-10.28,13.32-15.58,33.39-12.45,51.27,4.66,3.14,9.43,6.12,14.31,8.93-.55-1.54-1-3.11-1.29-4.69-4.42-23.4,12.28-44.27,28.04-58.93Z"/>
      <path class="cls-97" d="m366.8,324.13c-7.84-9.14-13.57-20.55-17.41-31.9-1.54,13.86,2.65,28.75,10.16,40.43,3.75,5.83,8.38,11.03,12.07,16.9,3.82,6.07,10.5,15.15,12.93,21.87,4.66,12.9,6.42,23.59,2.74,37.51-2.67,10.11-9.21,17.89-14.5,26.78,11.78-9.6,24.62-21.79,27.08-37.47,2.18-13.9-1.17-28.67-8.54-40.29-4.2-6.62-15.04-22.77-24.53-33.83Z"/>
      <path class="cls-100" d="m108.59,363.28c12.13-25.21,29.93-51.42,27-80.76-9.86,30.45-32.67,54.2-43.59,84.11-4.72,12.92-7.46,27.82-3.76,41.35,3.3,12.08,13.47,24.86,23.13,32.47-7.22-11.4-15.35-26.9-14.24-40.79,1.02-12.77,5.96-24.95,11.46-36.38Z"/>
      <path class="cls-102" d="m202.2,340.94c4.31,16.3,18.73,28.45,24.07,44.38,4.34,12.93.72,25.74-7.45,35.98-6.72,8.41-14.76,15.59-25.36,19.15,9.76-1.14,18.37-6.28,25.36-12.66,7.94-7.25,15.08-16.87,16.8-27.92,3.54-22.77-18.72-44.23-33.42-58.92Z"/>
      <path class="cls-96" d="m150.16,270.04c6.87,13.9,15.25,26.83,21.38,41.16,7.97,18.62,14.41,39.05,15.98,59.33,1.45,18.61-6.64,33.98-18.94,47.51-12.4,13.64-32.38,25.33-37.33,44.15,6.21-14.89,20.91-23.2,32.77-33.11,14.87-12.43,28.81-27.97,31.03-48.03,2.27-20.4-4.5-42.89-12.34-61.51-7.7-18.31-18.62-35.3-32.57-49.49Z"/>
      <path class="cls-105" d="m186.07,425.84c-8.1,20.2-14.37,40.03-24.83,58.48,2.95,1.1,5.92,2.14,8.92,3.13,2.91-5.88,5.17-12.11,7.15-18.59,4.27-13.98,8.08-28.35,8.76-43.01Z"/>
      <path class="cls-50" d="m226.29,82.54c-14.06,1.88-27.02,10.27-34.23,16.86,0,0,26.18-22.08,58.23-9.57,0,0-9.94-9.18-24-7.29Z"/>
      <path class="cls-103" d="m391.69,249.41c-2.46-11.25-10.26-20.06-17.76-28.34-7.75-8.55-17-16.93-20.9-27.91-3.98-11.22-7.22-22.97-11.11-34.22-12.02-34.77-37.01-83.38-85.19-71.11,47.33-5.55,68.88,50.73,80.07,89.25,3.27,11.27,6.58,22.75,12.85,32.8,5.73,9.17,13.95,15.82,21.81,23.05,7.56,6.96,14.92,15.15,15.79,25.87.67,8.33-2.96,17.42.26,25.49-1.69-11.95,6.86-22.55,4.17-34.89Z"/>
      <path class="cls-47" d="m273.33,98.22c-11.49-3.93-21.24,2.78-21.24,2.78,22.11-8.55,42.47,14.72,42.47,14.72-6.53-7.74-9.75-13.57-21.23-17.5Z"/>
      <path class="cls-106" d="m200.72,117.4l-.66,8.22c11.06-26.09,39.4-19.26,39.4-19.26-24.86-12.72-38.74,11.05-38.74,11.05Z"/>
      <path class="cls-101" d="m190.1,328.88c5.55,12.02,11.92,24.46,13.24,37.82,1.21,12.29-2.94,23.77-9.29,34.11-11.83,19.26-30.67,33.23-41.78,52.97,21.79-17.55,49.16-30.66,60.26-58.11,10.31-25.51-2.37-50.45-22.43-66.78Z"/>
      <path class="cls-95" d="m340.02,242.26c-13.31-15.02-20.93-34.11-26.28-53.21-5.37-19.15-6.62-40.56-15.07-58.67-5.3-11.36-24.7-34.95-39.64-27.37,10.45-2.43,19.37,9.36,24.6,16.67,6.38,8.92,8.88,18.74,10.32,29.48,5.1,38.08,10.47,80.64,41.55,107.32,14.67,12.59,40.05,12.21,52.03,27.82,10.77,14.03,10.14,41.13,11.67,58.48,2.34-22.09,10.38-49.94-4.98-66.89-12.44-13.73-41.92-19.77-54.2-33.63Z"/>
      <path class="cls-39" d="m304.44,236.16c-3.86,1.03-6.56,3.74-6.06,6.06.51,2.31,4.04,3.37,7.89,2.34,3.85-1.03,6.57-3.73,6.06-6.06-.51-2.31-4.05-3.36-7.88-2.34Z"/>
      <path class="cls-44" d="m188.33,236.17c-3.85-.85-7.31.33-7.73,2.64-.42,2.32,2.35,4.88,6.19,5.75,3.85.85,7.31-.33,7.74-2.64.42-2.32-2.36-4.89-6.2-5.75Z"/>
    </g>
  </g>
</svg>