<?xml version="1.0" encoding="UTF-8"?>
<svg id="Layer_2" data-name="Layer 2" xmlns="http://www.w3.org/2000/svg" xmlns:xlink="http://www.w3.org/1999/xlink" viewBox="0 0 493.51 499.74">
  <defs>
    <style>
      .cls-1 {
        fill: url(#linear-gradient);
      }

      .cls-1, .cls-2, .cls-3, .cls-4, .cls-5, .cls-6, .cls-7, .cls-8, .cls-9, .cls-10, .cls-11, .cls-12, .cls-13, .cls-14, .cls-15, .cls-16, .cls-17, .cls-18, .cls-19, .cls-20, .cls-21, .cls-22, .cls-23, .cls-24, .cls-25, .cls-26, .cls-27, .cls-28, .cls-29, .cls-30, .cls-31, .cls-32, .cls-33, .cls-34, .cls-35, .cls-36, .cls-37, .cls-38, .cls-39, .cls-40, .cls-41, .cls-42, .cls-43, .cls-44, .cls-45, .cls-46, .cls-47, .cls-48, .cls-49, .cls-50, .cls-51, .cls-52, .cls-53, .cls-54, .cls-55, .cls-56, .cls-57, .cls-58, .cls-59, .cls-60, .cls-61, .cls-62, .cls-63, .cls-64, .cls-65, .cls-66, .cls-67, .cls-68 {
        stroke-width: 0px;
      }

      .cls-2 {
        fill: url(#radial-gradient);
      }

      .cls-3 {
        fill: url(#linear-gradient-29);
      }

      .cls-4 {
        fill: url(#linear-gradient-28);
      }

      .cls-5 {
        fill: url(#linear-gradient-25);
      }

      .cls-6 {
        fill: url(#linear-gradient-11);
      }

      .cls-7 {
        fill: url(#linear-gradient-12);
      }

      .cls-8 {
        fill: url(#linear-gradient-13);
      }

      .cls-9 {
        fill: url(#linear-gradient-10);
      }

      .cls-10 {
        fill: url(#linear-gradient-17);
      }

      .cls-11 {
        fill: url(#linear-gradient-16);
      }

      .cls-12 {
        fill: url(#linear-gradient-19);
      }

      .cls-13 {
        fill: url(#linear-gradient-15);
      }

      .cls-14 {
        fill: url(#linear-gradient-23);
      }

      .cls-15 {
        fill: url(#linear-gradient-21);
      }

      .cls-16 {
        fill: url(#linear-gradient-18);
      }

      .cls-17 {
        fill: url(#linear-gradient-14);
      }

      .cls-18 {
        fill: url(#linear-gradient-22);
      }

      .cls-19 {
        fill: url(#linear-gradient-20);
      }

      .cls-20 {
        fill: url(#linear-gradient-27);
      }

      .cls-21 {
        fill: url(#linear-gradient-24);
      }

      .cls-22 {
        fill: url(#linear-gradient-26);
      }

      .cls-23 {
        fill: url(#_ÂÁ_Ï_ÌÌ_È_ËÂÌÚ_986);
      }

      .cls-24 {
        fill: url(#_ÂÁ_Ï_ÌÌ_È_ËÂÌÚ_996);
      }

      .cls-25 {
        fill: url(#_ÂÁ_Ï_ÌÌ_È_ËÂÌÚ_62-2);
      }

      .cls-26 {
        fill: url(#_ÂÁ_Ï_ÌÌ_È_ËÂÌÚ_62-3);
      }

      .cls-27 {
        fill: url(#_ÂÁ_Ï_ÌÌ_È_ËÂÌÚ_62-4);
      }

      .cls-28 {
        fill: url(#_ÂÁ_Ï_ÌÌ_È_ËÂÌÚ_2081);
      }

      .cls-29 {
        fill: url(#_ÂÁ_Ï_ÌÌ_È_ËÂÌÚ_2132);
      }

      .cls-30 {
        fill: url(#_ÂÁ_Ï_ÌÌ_È_ËÂÌÚ_4011);
      }

      .cls-31 {
        fill: url(#_ÂÁ_Ï_ÌÌ_È_ËÂÌÚ_4015);
      }

      .cls-32 {
        fill: url(#_ÂÁ_Ï_ÌÌ_È_ËÂÌÚ_4016);
      }

      .cls-33 {
        fill: url(#_ÂÁ_Ï_ÌÌ_È_ËÂÌÚ_1024);
      }

      .cls-34 {
        fill: url(#_ÂÁ_Ï_ÌÌ_È_ËÂÌÚ_1025);
      }

      .cls-35 {
        fill: url(#_ÂÁ_Ï_ÌÌ_È_ËÂÌÚ_1204);
      }

      .cls-36 {
        fill: url(#radial-gradient-2);
      }

      .cls-37 {
        fill: url(#linear-gradient-4);
      }

      .cls-38 {
        fill: url(#linear-gradient-2);
      }

      .cls-39 {
        fill: url(#linear-gradient-3);
      }

      .cls-40 {
        fill: url(#linear-gradient-8);
      }

      .cls-41 {
        fill: url(#linear-gradient-9);
      }

      .cls-42 {
        fill: url(#linear-gradient-7);
      }

      .cls-43 {
        fill: url(#linear-gradient-5);
      }

      .cls-44 {
        fill: url(#linear-gradient-6);
      }

      .cls-45 {
        fill: url(#_ÂÁ_Ï_ÌÌ_È_ËÂÌÚ_4011-3);
      }

      .cls-46 {
        fill: url(#_ÂÁ_Ï_ÌÌ_È_ËÂÌÚ_4011-2);
      }

      .cls-47 {
        fill: url(#_ÂÁ_Ï_ÌÌ_È_ËÂÌÚ_1024-3);
      }

      .cls-48 {
        fill: url(#_ÂÁ_Ï_ÌÌ_È_ËÂÌÚ_1024-2);
      }

      .cls-49 {
        fill: url(#_ÂÁ_Ï_ÌÌ_È_ËÂÌÚ_1204-7);
      }

      .cls-50 {
        fill: url(#_ÂÁ_Ï_ÌÌ_È_ËÂÌÚ_1204-2);
      }

      .cls-51 {
        fill: url(#_ÂÁ_Ï_ÌÌ_È_ËÂÌÚ_1204-4);
      }

      .cls-52 {
        fill: url(#_ÂÁ_Ï_ÌÌ_È_ËÂÌÚ_1204-3);
      }

      .cls-53 {
        fill: url(#_ÂÁ_Ï_ÌÌ_È_ËÂÌÚ_1204-6);
      }

      .cls-54 {
        fill: url(#_ÂÁ_Ï_ÌÌ_È_ËÂÌÚ_1204-5);
      }

      .cls-55 {
        fill: url(#_ÂÁ_Ï_ÌÌ_È_ËÂÌÚ_1204-8);
      }

      .cls-56 {
        fill: #f6ece6;
      }

      .cls-57 {
        fill: #773b2c;
      }

      .cls-58 {
        fill: #711e22;
      }

      .cls-59 {
        fill: #383e44;
      }

      .cls-60 {
        fill: #e1b18c;
      }

      .cls-61 {
        fill: #dca57b;
      }

      .cls-62 {
        fill: #fff;
      }

      .cls-63 {
        fill: #f0c499;
      }

      .cls-64 {
        fill: #f0f0f0;
      }

      .cls-65 {
        fill: #f5f6f7;
      }

      .cls-66 {
        fill: #fdd8b3;
      }

      .cls-67 {
        fill: url(#_ÂÁ_Ï_ÌÌ_È_ËÂÌÚ_38);
      }

      .cls-68 {
        fill: url(#_ÂÁ_Ï_ÌÌ_È_ËÂÌÚ_62);
      }
    </style>
    <linearGradient id="_ÂÁ_Ï_ÌÌ_È_ËÂÌÚ_1204" data-name="¡ÂÁ˚ÏˇÌÌ˚È „‡‰ËÂÌÚ 1204" x1="260.09" y1="347.97" x2="274.17" y2="400.62" gradientUnits="userSpaceOnUse">
      <stop offset="0" stop-color="#dba379"/>
      <stop offset=".49" stop-color="#e3b086"/>
      <stop offset="1" stop-color="#f0c499"/>
    </linearGradient>
    <linearGradient id="_ÂÁ_Ï_ÌÌ_È_ËÂÌÚ_1204-2" data-name="¡ÂÁ˚ÏˇÌÌ˚È „‡‰ËÂÌÚ 1204" x1="205.69" y1="278.81" x2="295.22" y2="383.21" xlink:href="#_ÂÁ_Ï_ÌÌ_È_ËÂÌÚ_1204"/>
    <linearGradient id="_ÂÁ_Ï_ÌÌ_È_ËÂÌÚ_996" data-name="¡ÂÁ˚ÏˇÌÌ˚È „‡‰ËÂÌÚ 996" x1="250.31" y1="383.13" x2="247.79" y2="498.89" gradientUnits="userSpaceOnUse">
      <stop offset="0" stop-color="#773b2c"/>
      <stop offset=".54" stop-color="#7b3f2f"/>
      <stop offset="1" stop-color="#844938"/>
    </linearGradient>
    <linearGradient id="linear-gradient" x1="248.66" y1="312.53" x2="248.66" y2="389.75" gradientUnits="userSpaceOnUse">
      <stop offset="0" stop-color="#773b2c"/>
      <stop offset=".56" stop-color="#663224"/>
      <stop offset="1" stop-color="#612f22"/>
    </linearGradient>
    <linearGradient id="linear-gradient-2" x1="382.51" y1="413.47" x2="383.83" y2="347.99" gradientUnits="userSpaceOnUse">
      <stop offset="0" stop-color="#773b2c"/>
      <stop offset=".54" stop-color="#793e2e"/>
      <stop offset=".97" stop-color="#834837"/>
      <stop offset="1" stop-color="#844938"/>
    </linearGradient>
    <linearGradient id="linear-gradient-3" x1="112.31" y1="415.08" x2="113.72" y2="345.41" xlink:href="#linear-gradient-2"/>
    <linearGradient id="linear-gradient-4" x1="141.82" y1="216.16" x2="160.91" y2="262.46" gradientUnits="userSpaceOnUse">
      <stop offset="0" stop-color="#dba379"/>
      <stop offset=".49" stop-color="#e3b086"/>
      <stop offset="1" stop-color="#f0c499"/>
    </linearGradient>
    <linearGradient id="linear-gradient-5" x1="337.14" y1="220.72" x2="351.3" y2="255.06" xlink:href="#linear-gradient-4"/>
    <linearGradient id="_ÂÁ_Ï_ÌÌ_È_ËÂÌÚ_38" data-name="¡ÂÁ˚ÏˇÌÌ˚È „‡‰ËÂÌÚ 38" x1="248.97" y1="127.54" x2="247.23" y2="220.42" gradientUnits="userSpaceOnUse">
      <stop offset="0" stop-color="#ffd9b3"/>
      <stop offset=".28" stop-color="#fbd6af"/>
      <stop offset="1" stop-color="#f7d4ab"/>
    </linearGradient>
    <linearGradient id="linear-gradient-6" x1="292.42" y1="236.21" x2="289.82" y2="205.65" gradientUnits="userSpaceOnUse">
      <stop offset="0" stop-color="#f7d4ab"/>
      <stop offset=".52" stop-color="#f5d1a8"/>
      <stop offset=".85" stop-color="#f2c99f"/>
      <stop offset="1" stop-color="#f0c499"/>
    </linearGradient>
    <linearGradient id="linear-gradient-7" x1="202.24" y1="236.01" x2="199.68" y2="205.97" xlink:href="#linear-gradient-6"/>
    <radialGradient id="radial-gradient" cx="-960.89" cy="-123.9" fx="-960.89" fy="-123.9" r="44.51" gradientTransform="translate(-645.59 375.57) rotate(177.87) scale(1 -.71) skewX(-1.48)" gradientUnits="userSpaceOnUse">
      <stop offset="0" stop-color="#f8c39c"/>
      <stop offset="1" stop-color="#f7d4ab"/>
    </radialGradient>
    <radialGradient id="radial-gradient-2" cx="250.88" cy="-158.56" fx="250.88" fy="-158.56" r="45.94" gradientTransform="translate(-46.71 376.83) rotate(-3.63) scale(1 .69) skewX(2.76)" xlink:href="#radial-gradient"/>
    <linearGradient id="linear-gradient-8" x1="287.86" y1="332.1" x2="286.82" y2="269.09" gradientUnits="userSpaceOnUse">
      <stop offset="0" stop-color="#f7d4ab"/>
      <stop offset=".53" stop-color="#f6d1a8"/>
      <stop offset=".87" stop-color="#f2c99f"/>
      <stop offset="1" stop-color="#f1c59a"/>
    </linearGradient>
    <linearGradient id="linear-gradient-9" x1="248.17" y1="321.32" x2="247.96" y2="308.44" xlink:href="#linear-gradient-8"/>
    <linearGradient id="linear-gradient-10" x1="206.12" y1="331.07" x2="205.06" y2="266.59" xlink:href="#linear-gradient-8"/>
    <linearGradient id="linear-gradient-11" x1="326.39" y1="233.62" x2="299.59" y2="242.86" gradientUnits="userSpaceOnUse">
      <stop offset="0" stop-color="#fbd6af"/>
      <stop offset="1" stop-color="#f7d4ab"/>
    </linearGradient>
    <linearGradient id="linear-gradient-12" x1="217.48" y1="290.95" x2="279.24" y2="292" gradientUnits="userSpaceOnUse">
      <stop offset="0" stop-color="#e8d9d7"/>
      <stop offset=".14" stop-color="#efe5e4"/>
      <stop offset=".39" stop-color="#faf8f7"/>
      <stop offset=".57" stop-color="#fff"/>
      <stop offset="1" stop-color="#e8d3d1"/>
    </linearGradient>
    <linearGradient id="_ÂÁ_Ï_ÌÌ_È_ËÂÌÚ_1204-3" data-name="¡ÂÁ˚ÏˇÌÌ˚È „‡‰ËÂÌÚ 1204" x1="249.94" y1="349.41" x2="248.28" y2="301.54" xlink:href="#_ÂÁ_Ï_ÌÌ_È_ËÂÌÚ_1204"/>
    <linearGradient id="linear-gradient-13" x1="246.12" y1="267.57" x2="247.11" y2="290.68" gradientUnits="userSpaceOnUse">
      <stop offset="0" stop-color="#e8d9d7"/>
      <stop offset=".4" stop-color="#efe5e3"/>
      <stop offset="1" stop-color="#fff"/>
    </linearGradient>
    <linearGradient id="linear-gradient-14" x1="246.71" y1="274.78" x2="246.33" y2="289" xlink:href="#linear-gradient-13"/>
    <linearGradient id="_ÂÁ_Ï_ÌÌ_È_ËÂÌÚ_1204-4" data-name="¡ÂÁ˚ÏˇÌÌ˚È „‡‰ËÂÌÚ 1204" x1="248.62" y1="358.58" x2="246.99" y2="259.41" xlink:href="#_ÂÁ_Ï_ÌÌ_È_ËÂÌÚ_1204"/>
    <linearGradient id="_ÂÁ_Ï_ÌÌ_È_ËÂÌÚ_1025" data-name="¡ÂÁ˚ÏˇÌÌ˚È „‡‰ËÂÌÚ 1025" x1="183.61" y1="210.75" x2="230.32" y2="223.91" gradientUnits="userSpaceOnUse">
      <stop offset="0" stop-color="#f0c499"/>
      <stop offset=".51" stop-color="#e3b086"/>
      <stop offset="1" stop-color="#dba379"/>
    </linearGradient>
    <linearGradient id="linear-gradient-15" x1="224.15" y1="223.65" x2="193.25" y2="216.19" gradientUnits="userSpaceOnUse">
      <stop offset="0" stop-color="#f7f4f4"/>
      <stop offset=".39" stop-color="#fdfcfc"/>
      <stop offset="1" stop-color="#fff"/>
    </linearGradient>
    <linearGradient id="_ÂÁ_Ï_ÌÌ_È_ËÂÌÚ_1024" data-name="¡ÂÁ˚ÏˇÌÌ˚È „‡‰ËÂÌÚ 1024" x1="217.71" y1="219.76" x2="183.31" y2="221.13" gradientUnits="userSpaceOnUse">
      <stop offset="0" stop-color="#c5c6c0"/>
      <stop offset="1" stop-color="#94958d"/>
    </linearGradient>
    <linearGradient id="_ÂÁ_Ï_ÌÌ_È_ËÂÌÚ_1024-2" data-name="¡ÂÁ˚ÏˇÌÌ˚È „‡‰ËÂÌÚ 1024" x1="214.45" y1="253.43" x2="204.94" y2="220.75" xlink:href="#_ÂÁ_Ï_ÌÌ_È_ËÂÌÚ_1024"/>
    <linearGradient id="_ÂÁ_Ï_ÌÌ_È_ËÂÌÚ_1204-5" data-name="¡ÂÁ˚ÏˇÌÌ˚È „‡‰ËÂÌÚ 1204" x1="229.69" y1="212.01" x2="181.23" y2="226.86" xlink:href="#_ÂÁ_Ï_ÌÌ_È_ËÂÌÚ_1204"/>
    <linearGradient id="_ÂÁ_Ï_ÌÌ_È_ËÂÌÚ_1204-6" data-name="¡ÂÁ˚ÏˇÌÌ˚È „‡‰ËÂÌÚ 1204" x1="265.26" y1="212.59" x2="311.17" y2="225.52" xlink:href="#_ÂÁ_Ï_ÌÌ_È_ËÂÌÚ_1204"/>
    <linearGradient id="linear-gradient-16" x1="306.3" y1="224.06" x2="275.06" y2="216.52" xlink:href="#linear-gradient-15"/>
    <linearGradient id="_ÂÁ_Ï_ÌÌ_È_ËÂÌÚ_1024-3" data-name="¡ÂÁ˚ÏˇÌÌ˚È „‡‰ËÂÌÚ 1024" x1="300.16" y1="219.66" x2="265.76" y2="221.04" xlink:href="#_ÂÁ_Ï_ÌÌ_È_ËÂÌÚ_1024"/>
    <linearGradient id="linear-gradient-17" x1="280.23" y1="210.89" x2="324.28" y2="233.33" gradientUnits="userSpaceOnUse">
      <stop offset="0" stop-color="#94958d"/>
      <stop offset="1" stop-color="#c5c6c0"/>
    </linearGradient>
    <linearGradient id="_ÂÁ_Ï_ÌÌ_È_ËÂÌÚ_1204-7" data-name="¡ÂÁ˚ÏˇÌÌ˚È „‡‰ËÂÌÚ 1204" x1="365.03" y1="207.37" x2="303.45" y2="226.24" xlink:href="#_ÂÁ_Ï_ÌÌ_È_ËÂÌÚ_1204"/>
    <linearGradient id="linear-gradient-18" x1="195.36" y1="239.75" x2="155.63" y2="230.04" xlink:href="#linear-gradient-11"/>
    <linearGradient id="linear-gradient-19" x1="293.16" y1="347.76" x2="336.3" y2="259.02" gradientUnits="userSpaceOnUse">
      <stop offset="0" stop-color="#f6d2aa"/>
      <stop offset="1" stop-color="#ffd8b2"/>
    </linearGradient>
    <linearGradient id="_ÂÁ_Ï_ÌÌ_È_ËÂÌÚ_2081" data-name="¡ÂÁ˚ÏˇÌÌ˚È „‡‰ËÂÌÚ 2081" x1="165.31" y1="322.65" x2="192.68" y2="266.36" gradientUnits="userSpaceOnUse">
      <stop offset="0" stop-color="#f7d4ab"/>
      <stop offset=".76" stop-color="#f2c89e"/>
      <stop offset="1" stop-color="#f0c499"/>
    </linearGradient>
    <linearGradient id="_ÂÁ_Ï_ÌÌ_È_ËÂÌÚ_4011" data-name="¡ÂÁ˚ÏˇÌÌ˚È „‡‰ËÂÌÚ 4011" x1="324.62" y1="207.29" x2="290.41" y2="196.27" gradientUnits="userSpaceOnUse">
      <stop offset="0" stop-color="#f8f9fa"/>
      <stop offset=".28" stop-color="#f4f5f6"/>
      <stop offset="1" stop-color="#f0f1f2"/>
    </linearGradient>
    <linearGradient id="_ÂÁ_Ï_ÌÌ_È_ËÂÌÚ_4011-2" data-name="¡ÂÁ˚ÏˇÌÌ˚È „‡‰ËÂÌÚ 4011" x1="173.61" y1="198.47" x2="212.82" y2="192.83" xlink:href="#_ÂÁ_Ï_ÌÌ_È_ËÂÌÚ_4011"/>
    <linearGradient id="_ÂÁ_Ï_ÌÌ_È_ËÂÌÚ_4011-3" data-name="¡ÂÁ˚ÏˇÌÌ˚È „‡‰ËÂÌÚ 4011" x1="249.08" y1="304.74" x2="246.26" y2="267.46" xlink:href="#_ÂÁ_Ï_ÌÌ_È_ËÂÌÚ_4011"/>
    <linearGradient id="linear-gradient-20" x1="246.37" y1="176.35" x2="248.29" y2="256.38" gradientUnits="userSpaceOnUse">
      <stop offset="0" stop-color="#ffd9b3"/>
      <stop offset=".2" stop-color="#fcd7b0"/>
      <stop offset="1" stop-color="#f7d4ab"/>
    </linearGradient>
    <linearGradient id="linear-gradient-21" x1="246.17" y1="228.78" x2="246.95" y2="256.03" xlink:href="#linear-gradient-6"/>
    <linearGradient id="linear-gradient-22" x1="244.81" y1="263.81" x2="248.57" y2="236.09" gradientUnits="userSpaceOnUse">
      <stop offset="0" stop-color="#ffd9b3"/>
      <stop offset=".28" stop-color="#fbd6af"/>
      <stop offset="1" stop-color="#f7d4ab"/>
    </linearGradient>
    <linearGradient id="_ÂÁ_Ï_ÌÌ_È_ËÂÌÚ_2132" data-name="¡ÂÁ˚ÏˇÌÌ˚È „‡‰ËÂÌÚ 2132" x1="244.93" y1="255.95" x2="249.03" y2="296.61" gradientUnits="userSpaceOnUse">
      <stop offset="0" stop-color="#f8f9fa"/>
      <stop offset=".33" stop-color="#eff0f1"/>
      <stop offset=".86" stop-color="#d6d7d8"/>
      <stop offset="1" stop-color="#cfd0d1"/>
    </linearGradient>
    <linearGradient id="_ÂÁ_Ï_ÌÌ_È_ËÂÌÚ_4016" data-name="¡ÂÁ˚ÏˇÌÌ˚È „‡‰ËÂÌÚ 4016" x1="334.58" y1="135.24" x2="336.63" y2="204.18" gradientUnits="userSpaceOnUse">
      <stop offset="0" stop-color="#f8f9fa"/>
      <stop offset="1" stop-color="#f0f1f2"/>
    </linearGradient>
    <linearGradient id="_ÂÁ_Ï_ÌÌ_È_ËÂÌÚ_4015" data-name="¡ÂÁ˚ÏˇÌÌ˚È „‡‰ËÂÌÚ 4015" x1="158.46" y1="141.51" x2="159.99" y2="209.42" gradientUnits="userSpaceOnUse">
      <stop offset="0" stop-color="#f8f9fa"/>
      <stop offset="1" stop-color="#f0f1f2"/>
    </linearGradient>
    <linearGradient id="linear-gradient-23" x1="247.94" y1="175.29" x2="247.08" y2="165.27" xlink:href="#linear-gradient-6"/>
    <linearGradient id="linear-gradient-24" x1="248.55" y1="157.14" x2="247.78" y2="148.08" xlink:href="#linear-gradient-6"/>
    <linearGradient id="linear-gradient-25" x1="257.77" y1="202.05" x2="256.32" y2="185.09" xlink:href="#linear-gradient-6"/>
    <linearGradient id="linear-gradient-26" x1="238.94" y1="204.47" x2="237.25" y2="184.64" xlink:href="#linear-gradient-6"/>
    <linearGradient id="_ÂÁ_Ï_ÌÌ_È_ËÂÌÚ_62" data-name="¡ÂÁ˚ÏˇÌÌ˚È „‡‰ËÂÌÚ 62" x1="328.81" y1="127.48" x2="325.5" y2="360.57" gradientUnits="userSpaceOnUse">
      <stop offset="0" stop-color="#f8f9fa"/>
      <stop offset=".04" stop-color="#f5f6f7"/>
      <stop offset=".37" stop-color="#dfe0e1"/>
      <stop offset=".69" stop-color="#d3d4d5"/>
      <stop offset="1" stop-color="#cfd0d1"/>
    </linearGradient>
    <linearGradient id="_ÂÁ_Ï_ÌÌ_È_ËÂÌÚ_62-2" data-name="¡ÂÁ˚ÏˇÌÌ˚È „‡‰ËÂÌÚ 62" x1="167.14" y1="135.16" x2="163.98" y2="358.18" xlink:href="#_ÂÁ_Ï_ÌÌ_È_ËÂÌÚ_62"/>
    <linearGradient id="_ÂÁ_Ï_ÌÌ_È_ËÂÌÚ_62-3" data-name="¡ÂÁ˚ÏˇÌÌ˚È „‡‰ËÂÌÚ 62" x1="333.71" y1="173.18" x2="340.2" y2="276.04" xlink:href="#_ÂÁ_Ï_ÌÌ_È_ËÂÌÚ_62"/>
    <linearGradient id="_ÂÁ_Ï_ÌÌ_È_ËÂÌÚ_62-4" data-name="¡ÂÁ˚ÏˇÌÌ˚È „‡‰ËÂÌÚ 62" x1="157.78" y1="183.49" x2="164.4" y2="288.28" xlink:href="#_ÂÁ_Ï_ÌÌ_È_ËÂÌÚ_62"/>
    <linearGradient id="linear-gradient-27" x1="167.26" y1="323.38" x2="167.64" y2="195.8" xlink:href="#linear-gradient-6"/>
    <linearGradient id="linear-gradient-28" x1="325.56" y1="337.43" x2="325.98" y2="195.85" xlink:href="#linear-gradient-6"/>
    <linearGradient id="_ÂÁ_Ï_ÌÌ_È_ËÂÌÚ_986" data-name="¡ÂÁ˚ÏˇÌÌ˚È „‡‰ËÂÌÚ 986" x1="248.06" y1="344.77" x2="248.8" y2="317.16" gradientUnits="userSpaceOnUse">
      <stop offset="0" stop-color="#f7d4ab"/>
      <stop offset=".72" stop-color="#fbd6af"/>
      <stop offset="1" stop-color="#ffd9b3"/>
    </linearGradient>
    <linearGradient id="_ÂÁ_Ï_ÌÌ_È_ËÂÌÚ_1204-8" data-name="¡ÂÁ˚ÏˇÌÌ˚È „‡‰ËÂÌÚ 1204" x1="250.18" y1="358.91" x2="251.21" y2="373" xlink:href="#_ÂÁ_Ï_ÌÌ_È_ËÂÌÚ_1204"/>
    <linearGradient id="linear-gradient-29" x1="245.45" y1="182.2" x2="247.5" y2="129.07" gradientUnits="userSpaceOnUse">
      <stop offset="0" stop-color="#f7d9b7"/>
      <stop offset="1" stop-color="#ffdebe"/>
    </linearGradient>
  </defs>
  <g id="Layer_1-2" data-name="Layer 1">
    <g>
      <ellipse class="cls-56" cx="246.76" cy="249.87" rx="246.76" ry="249.87"/>
      <path class="cls-35" d="m294.92,272.94s-36.29,19.48-94.75-1.39c0,0,.14,29.38-2.65,47.82,9.91,19.6,30.7,33.59,53.76,33.59,21.22,0,46.97-27.37,50.28-34.94,0,0-6.93-36.57-6.64-45.08Z"/>
      <path class="cls-50" d="m298.22,288.21s-63.41-5.8-101.77-7.16c.15,47.97-10.95,54-10.95,54,0,0,9.04,62.73,66.24,59.47,57.2-3.26,61.15-59.47,61.15-59.47,0,0-8.57-3.47-14.67-46.84Z"/>
      <path class="cls-57" d="m414.19,433.39c2.77-26.94,5.27-48.57,5.27-48.57-12.84-9.07-91.62-42.19-91.62-42.19,0,0-27.05,34.4-79.88,34.4s-78.5-33.16-78.5-33.16c-49.73,23.38-89.43,42.48-89.43,42.48-2.14,8.18-2.01,27.17-.91,46.85,44.01,41.28,102.9,66.53,167.63,66.53s123.44-25.17,167.43-66.34Z"/>
      <path class="cls-24" d="m373.59,429.2c-31.18-22.04-186.4-32.77-250.82,5.55-8.59,5.11-11.66,14.12-10.52,24.62,38.69,25.52,84.88,40.37,134.5,40.37s99.11-15.91,138.62-43.13c.85-10.93-2.52-20.86-11.78-27.4Z"/>
      <path class="cls-57" d="m78.34,392.58c-6.35,3.72-12.09,10.94-17.78,21.26,9.78,11.37,20.56,21.83,32.19,31.26-3.48-31.33-8.45-56.01-14.41-52.51Z"/>
      <path class="cls-57" d="m436.16,410c-5.36-9.72-10.79-16.65-16.7-20.12-5.83-3.42-10.67,20.52-14.08,51.37,11.14-9.48,21.45-19.94,30.78-31.25Z"/>
      <path class="cls-1" d="m246.74,372.43c-51.93-2.66-61.25-37.38-61.25-37.38l-16.02,8.83s10.85,45.99,79.48,46.01c61.76.02,78.9-47.25,78.9-47.25l-14.96-7.59s-21.06,39.69-66.14,37.38Z"/>
      <path class="cls-38" d="m419.46,384.82c-15.4-15.4-91.62-42.19-91.62-42.19,0,0,54.13,35.69,83.08,62.56,4.53,4.2,9.27,10.24,14.05,17.48,4.8-5.08,9.39-10.37,13.76-15.84-7.14-11.27-13.47-16.2-19.28-22.01Z"/>
      <path class="cls-39" d="m86.42,407.23c28.95-26.87,83.05-63.35,83.05-63.35,0,0-77.57,27.09-92.97,42.48-6.22,6.22-12.57,10.69-19.79,22.87,4.7,5.74,9.65,11.26,14.83,16.55,5.04-7.66,10.07-14.08,14.89-18.56Z"/>
      <path class="cls-63" d="m147.44,210.59c-10.54,1.94-13.87,12.6-4.13,24.39,6.21,33.24,13.59,37.35,17.24,35.31,6.67-3.72-.35-62.06-13.1-59.71Z"/>
      <path class="cls-37" d="m153.49,239.36c-1.22-28.04-18.39-27.21-11.21-9.09,0,0,.75-9.21,3.35-6.91,3.2,2.82-1.9,5.49,3.4,19.2,2.76,7.13,11.1,13.77,11.1,13.77,0,0-6.12-5.09-6.64-16.97Z"/>
      <path class="cls-63" d="m344.44,210.35c-12.87-1.76-16.54,56.83-9.67,60.23,3.77,1.86,14.09-2.04,16.64-35.59,9.48-16.73,3.66-23.19-6.97-24.64Z"/>
      <path class="cls-43" d="m341.36,239.37c.11,11.92-5.72,17.28-5.72,17.28,0,0,7.96-7.01,10.34-14.26,4.55-13.96-.68-16.41,2.36-19.37,2.48-2.41,3.71,6.77,3.71,6.77,6.19-18.44-10.96-18.54-10.69,9.58Z"/>
      <path class="cls-67" d="m323.66,128.65c-4.33-7.75-32.84-37.83-76.64-37.58-39.02.22-70.13,28.13-75.77,40.65-12.93,28.7-13.16,53.86-12.01,90.77,1.4,44.81,2.77,61.68,12.01,78.35,10.87,19.61,31.57,32.56,49.8,45.61,4.73,3.39,34.16,10.23,58.84-4.77,13.11-7.97,35.29-27.47,43.88-40.84,8.59-13.37,10.18-45.61,10.59-51.47,1.04-14.65,1.89-18.82,1.79-40.67-.28-62.35-7.35-70.84-12.5-80.05Z"/>
      <path class="cls-44" d="m266.3,190.22c-1.19,7.64-8.22,35.77-3.74,38.42,28.03,16.51,58.68-4.39,58.68-4.39,2.2-47.54-54.94-34.03-54.94-34.03Z"/>
      <path class="cls-42" d="m171.33,224.92s29.76,19.89,58.41,1.47c4.39-2.82-4.26-27.81-5.47-35.45,0,0-55.35-17.72-52.94,33.98Z"/>
      <path class="cls-2" d="m297.98,282.97c15.45,1.04,33.37-.69,36.6-32.74,1.85-18.26-.77-28.04-8.41-29.47-16.21-3.04-39.46,4.07-49.15,9.12-20.45,10.68-6.42,51.23,20.95,53.08Z"/>
      <path class="cls-36" d="m212.51,228.35c-4.42-1.62-38.04-9.29-48.06-6.36-5.72,1.67-5.28,15.8-4.33,28.02.46,5.86.88,13.99,2.19,17.67,6.47,18.08,32.61,18.87,46.85,13.83,24.31-8.61,25.73-44.97,3.34-53.16Z"/>
      <path class="cls-40" d="m277.24,265.22c15.3,12.53,9.1,21.52,5.93,24.67,5.88-4.99,13.82-10.56,13.3-12.76-1.9-7.98-19.22-11.92-19.22-11.92Z"/>
      <path class="cls-41" d="m229.89,313.39h36.3s-4.61-4.68-17.68-4.64c-13.07.04-18.62,4.64-18.62,4.64Z"/>
      <path class="cls-9" d="m196.99,277.58c.35,2.45,7.18,8.48,11.67,13.18,0,0-11.97-13.04,4.68-24.78,0,0-17.52,3.37-16.34,11.6Z"/>
      <path class="cls-6" d="m325.59,230.63c-2.79-1.56-4.86.7-10.65,2.61-5.68,1.87-21.2,4.8-13.9,8.77,8.06,4.39,19.33-1.62,20.69-2.75,1.37-1.13,7.3-6.69,3.86-8.63Z"/>
      <path class="cls-60" d="m281.77,280.24s8.94-2.08,9.73-2.72,1.51-2.91,1.51-2.91l-5.68,1.73-5.55,3.9Z"/>
      <path class="cls-60" d="m200.86,275.18s.72,2.28,1.5,2.91c.79.64,9.73,2.72,9.73,2.72l-5.55-3.9-5.68-1.73Z"/>
      <path class="cls-58" d="m202.98,276.3c.48.5.83,1.19,1.46,1.46,11.37,5.04,11.53,9.85,16.41,12.48,17.29,9.32,37.45,7.05,51.02-.43,7.81-4.31,11.46-10.65,18.14-12.97,1.27-.44,1.49-1.46,1.49-1.46-49.9,12.2-88.52.93-88.52.93Z"/>
      <path class="cls-66" d="m247.69,300.06c-6.73,0-13.38-1.32-13.38,0s5.85,4.24,12.58,4.24c6.73,0,13.38-2.93,13.38-4.24s-5.86,0-12.59,0Z"/>
      <path class="cls-7" d="m267.12,286.68c-4.58.93-13.2,2.65-21.09,2.65-8.71,0-17.54-1.59-22.36-2.47-2.11-.38-3.01,3.29-3.01,3.29,6.34,4.63,13.97,6.38,26.17,6.46,16.29.11,25.27-6.93,25.27-6.93,0,0-2.29-3.54-4.97-3.01Z"/>
      <path class="cls-52" d="m222.83,301.76c25.99,20.67,50.85-1.41,50.85-1.41-26.26,13.98-50.85,1.41-50.85,1.41Z"/>
      <path class="cls-8" d="m214.27,278.68s.16,4.27,4.51,6.15c2.52,1.09,8.16,5.38,30.13,4.71,21.96-.67,26.29-5.97,27.29-6.9,1.86-1.72,2.71-4.64,2.71-4.64,0,0-33.07,6.47-64.64.68Z"/>
      <path class="cls-17" d="m214.19,278.28s.15,1.94.86,3.09c.6.96,18.14,3.52,31.39,3.6,13.24.08,30.53-3.33,31.14-4.09.96-1.19,1.48-3.3,1.48-3.3,0,0-14.91,5.01-64.87.7Z"/>
      <path class="cls-51" d="m200.27,274.95s3.19,1.85,2.71,1.35c0,0,38.62,11.28,88.52-.93l2.71-1.36c-27.1,4.53-93.94.94-93.94.94Z"/>
      <g>
        <path class="cls-34" d="m208.1,204.91c-4.66.19-9.17.35-16.28,2.91-6.11,2.2-10.25,7.72-9.73,13.06.15,1.57,2.7,7.41,16.09,9.25,10.84,1.49,26.13-.43,29.22-3.26,2.05-1.87-.19-12.75-.95-15.66-1.42-5.49-5.03-6.86-18.35-6.31Z"/>
        <path class="cls-13" d="m213.52,209.14c-21.62-2.62-18.8,3.71-27.56,13.86,0,0,4.49,4.79,8.82,5.62,13.88,2.66,18.45.98,24.2-.89,2.76-.9,5.16-2.17,5.27-3.66,0,0,.46-4.5-1.35-8.51-1.39-3.07-4.1-5.78-9.39-6.42Z"/>
        <path class="cls-64" d="m198.26,211.22c-8.07-.89-12.3,11.78-12.3,11.78.49.5.96.93,1.6,1.51,15.54-9.73,30.42-8.81,35.35-8.95-8.77-5.68-18.31-3.63-24.65-4.33Z"/>
        <path class="cls-33" d="m204.74,210.39c-7.04.35-12.89,5.88-12.03,12.9.19,1.5.37,3.37,2.06,5.33,1.27.38,4.87,1.15,10.33,1.38,5.46.23,8.27-.48,10.65-1.25.3-.31,1.73-3.25,1.89-6,.41-7.24-4.5-12.78-12.89-12.36Z"/>
        <path class="cls-48" d="m204.21,209.46c-7.56.72-11.75,7.79-11.58,12.21,0,0,8.84-6,23.42-5.96,0,0-3.72-7.02-11.84-6.25Z"/>
        <path class="cls-59" d="m205.1,213.17c-4.2.07-7.55,3.48-7.49,7.63.06,4.14,3.52,7.44,7.71,7.37,4.2-.09,7.54-3.49,7.49-7.64-.06-4.14-3.52-7.44-7.71-7.36Z"/>
        <path class="cls-59" d="m218.86,210.69c-7.62-4.31-17.33-3.36-24.71.28-7.73,3.81-8.19,12.03-8.19,12.03,0,0,5.49-6.78,18.27-8.54,12.79-1.76,18.68,1.1,18.68,1.1,0,0-1.1-3.2-4.05-4.87Z"/>
        <g>
          <path class="cls-62" d="m211.33,221.73c-1.64.82-2.35,2.74-1.58,4.27.77,1.54,2.72,2.12,4.35,1.3,1.64-.82,2.35-2.73,1.58-4.27-.77-1.54-2.72-2.11-4.35-1.29Z"/>
          <path class="cls-62" d="m204.53,218.09c-1.29.64-1.84,2.15-1.23,3.35.6,1.21,2.15,1.66,3.45,1.02,1.29-.64,1.85-2.15,1.24-3.35-.61-1.21-2.15-1.66-3.45-1.02Z"/>
        </g>
      </g>
      <path class="cls-54" d="m176.28,222.59l16.76,6.53c-10.94-10.14-16.76-6.53-16.76-6.53Z"/>
      <g>
        <path class="cls-53" d="m300.92,207.82c-7.11-2.56-11.62-2.72-16.28-2.91-13.32-.56-16.93.82-18.35,6.31-.76,2.91-2.99,13.79-.95,15.66,3.09,2.83,18.38,4.75,29.22,3.26,13.39-1.84,15.94-7.68,16.09-9.25.51-5.34-3.63-10.86-9.73-13.06Z"/>
        <path class="cls-11" d="m279.22,209.14c-5.28.64-8,3.35-9.39,6.42-1.81,4.01-1.35,8.51-1.35,8.51.11,1.5,2.51,2.77,5.27,3.66,5.75,1.87,10.32,3.55,24.21.89,4.32-.83,8.82-5.62,8.82-5.62-8.76-10.15-5.94-16.48-27.56-13.86Z"/>
        <path class="cls-64" d="m294.48,211.22c-6.34.7-15.88-1.34-24.65,4.33,4.93.15,19.82-.78,35.35,8.95.63-.58,1.1-1.01,1.6-1.51,0,0-4.22-12.67-12.3-11.78Z"/>
        <path class="cls-47" d="m288,210.39c-8.39-.42-13.3,5.12-12.89,12.36.16,2.75,1.58,5.69,1.89,6,2.38.77,5.19,1.48,10.65,1.25,5.46-.23,9.06-1.01,10.33-1.38,1.69-1.96,1.87-3.83,2.06-5.33.86-7.02-4.98-12.54-12.03-12.9Z"/>
        <path class="cls-10" d="m288.53,209.46c-8.12-.77-11.84,6.25-11.84,6.25,14.58-.04,23.42,5.96,23.42,5.96.17-4.42-4.02-11.49-11.58-12.21Z"/>
        <path class="cls-59" d="m287.64,213.17c-4.19-.08-7.64,3.22-7.71,7.36-.06,4.15,3.29,7.55,7.49,7.64,4.19.07,7.65-3.23,7.71-7.37.06-4.14-3.29-7.56-7.49-7.63Z"/>
        <path class="cls-59" d="m298.59,210.97c-7.38-3.64-17.09-4.59-24.71-.28-2.95,1.67-4.05,4.87-4.05,4.87,0,0,5.89-2.86,18.68-1.1,12.79,1.76,18.27,8.54,18.27,8.54,0,0-.46-8.22-8.19-12.03Z"/>
        <g>
          <path class="cls-62" d="m295.39,221.73c-1.64-.82-3.59-.24-4.35,1.29-.77,1.54-.06,3.45,1.58,4.27,1.63.83,3.58.24,4.35-1.3.77-1.53.06-3.45-1.58-4.27Z"/>
          <path class="cls-62" d="m288.21,218.09c-1.3-.64-2.84-.19-3.45,1.02-.61,1.21-.06,2.71,1.24,3.35,1.29.64,2.84.19,3.44-1.02.61-1.21.06-2.71-1.23-3.35Z"/>
        </g>
      </g>
      <path class="cls-49" d="m299.7,229.1l16.76-6.53s-5.82-3.61-16.76,6.53Z"/>
      <path class="cls-16" d="m177.96,231.34c-5.88-1.61-8.06-3.77-10.77-2.06-3.34,2.11,2.87,7.36,4.3,8.42,1.42,1.06,12.98,6.48,20.8,1.69,7.09-4.34-8.56-6.47-14.33-8.04Z"/>
      <path class="cls-12" d="m289.33,335.27c5.64-4.47,19.45-15.96,31.17-27.27,5.57-5.37,9.12-14.86,10.71-21.12,1.59-6.25,3.75-42.36,3.75-42.36-1.69,15.67-6.25,37.97-14.45,52.92-8.2,14.95-27.95,33.5-31.18,37.83Z"/>
      <path class="cls-28" d="m158.95,241.18s2.72,39.44,4.31,45.7c1.59,6.25,5.14,15.74,10.71,21.12,11.72,11.31,25.53,22.8,31.17,27.27-3.22-4.33-22.98-22.88-31.18-37.83-8.2-14.95-13.32-40.59-15.01-56.26Z"/>
      <path class="cls-30" d="m307.77,193.59c-14.68-7.64-25.36-8.37-36.99-7.92-1.14,1.98-2.22,7.32-1.49,9.56-1.33-2-2.01-7.03-1.58-9.35-4.5,4.24.12,12.61.12,12.61,5.44.27,19.58-.69,30.04,1.22,12.26,2.24,18.83,8.12,18.83,8.12,0,0-.16-9.67-8.93-14.24Z"/>
      <path class="cls-46" d="m223.08,194.38c.73-2.23-.35-7.58-1.49-9.56-11.63-.45-22.66,1.26-36.99,7.92-7.42,3.44-7.4,13.28-7.4,13.28,0,0,5.04-4.92,17.3-7.16,10.45-1.91,24.6-.95,30.03-1.22,0,0,4.73-7.35.12-12.61.43,2.32-.25,7.35-1.58,9.35Z"/>
      <path class="cls-45" d="m270.88,262.7l-3.6-2.09-19.09,7.23-18.59-7.01s-9.62.96-9.8,1.18c0,0-2.06,2.86-7.71,5.91-5.65,3.04-15.46,6.1-15.46,6.1,22.84,4.95,51.48,2.31,51.48,2.31l-.09-.06.83.07s24.21,2.42,48.04-2.32c0,0-4.68-.96-12.44-4.02-5.94-2.35-13.57-7.29-13.57-7.29Z"/>
      <path class="cls-19" d="m255.17,229.45c.89-17.59-5.27-20.11-9.82-19.95-4.43.16-6.88,6.25-5.98,19.66.89,13.36-1.72,18.48-1.12,24.74.28,2.85,1.6,4.71,8.82,4.77,7.93.06,10.69-1.82,11.03-4.48.93-7.29-3.56-12.06-2.92-24.74Z"/>
      <path class="cls-61" d="m257.17,265.52c13.38-2.91,18.64-1.18,18.64-1.18-7.79-5.98-18.64,1.18-18.64,1.18Z"/>
      <path class="cls-61" d="m219.25,263.48s6.94-.98,17.46,2.13c0,0-10.26-6.81-17.46-2.13Z"/>
      <path class="cls-15" d="m267.51,246.02c-.09,4.81,1.18,8.02-.49,10.76-3.72,6.1-13.36,8.52-19.8,8.06-4.88.52-16.32-1.62-21.08-8.02-1.94-2.61-.72-4.94-1.59-10.06,0,0-13.25,14.01-5.3,16.72,0,0,2.33-1.53,8.73-1.02,6.4.51,5.08,6.67,19.78,6.79,12.81.1,8.72-5.27,16.87-6.29,8.14-1.02,9.2.82,11.04,1.53,4.07,0,1.15-11.85-8.16-18.47Z"/>
      <path class="cls-18" d="m230.26,253.95c-.71,3.96,5.65,8.22,17.04,8.3,12.51.08,15.31-4.25,14.27-7.89-6.18-21.57-28.68-15.14-31.31-.41Z"/>
      <path class="cls-29" d="m247.46,275.18s-23.04,2.29-50.83-1.17c0,0,2.71,6.19,49.36,8.63,14.42.75,48.22-3.62,50.9-8.63,0,0-15.3,3.99-49.42,1.17Z"/>
      <path class="cls-32" d="m323.66,128.65l.45,42.09,12.16,55.57c-.72,4.96-.84,6.26.16.82.14-.78.26-1.53.44-2.23,3.85-15.5,9.47-14.22,9.47-14.22,0,0,1.66-40.6.27-48.93-2.97-17.83-22.96-33.09-22.96-33.09Z"/>
      <path class="cls-31" d="m146.05,165.35c-.23,1.51,1.39,45.24,1.39,45.24,0,0,5.29-1.35,10.03,14.8,1.26,5.28,2.1,8.65,2.1,8.65l11.69-59.11v-43.2s-22.24,14.47-25.21,33.63Z"/>
      <path class="cls-14" d="m194.15,169.05s58.29-9.21,106.62,1.22c0,0-59.51-21.27-106.62-1.22Z"/>
      <path class="cls-21" d="m214.77,151.63s39.09-7.78,66.81,2.22c0,0-28.21-22.87-66.81-2.22Z"/>
      <path class="cls-5" d="m258.21,201.15l-1.05-26.16c-4.75,25.46,1.05,26.16,1.05,26.16Z"/>
      <path class="cls-22" d="m236.71,203.65c7.07-9.2,0-30.68,0-30.68v30.68Z"/>
      <path class="cls-65" d="m271.34,197.85c.11-3.48,4.44-11.85,4.44-11.85-5.8,3.34-4.44,11.85-4.44,11.85Z"/>
      <path class="cls-65" d="m273.86,196.77c1.26-3.24,8.14-9.69,8.14-9.69-6.58,1.21-8.14,9.69-8.14,9.69Z"/>
      <path class="cls-65" d="m217.46,186s4.33,8.37,4.44,11.85c0,0,1.36-8.51-4.44-11.85Z"/>
      <path class="cls-65" d="m211.23,187.08s6.88,6.44,8.14,9.69c0,0-1.56-8.48-8.14-9.69Z"/>
      <path class="cls-68" d="m323.66,128.65s-4.54,43.02-4.54,44.32,9.42,28.18,9.42,28.18c-.15,2.09,6.43,55.16,6.43,55.16,0,0,1.08-27.06,1.48-29.19.4-2.13-10.54-53.88-11.04-56.4-.49-2.52-1.74-42.07-1.74-42.07Z"/>
      <path class="cls-25" d="m168.92,170.72c-.49,2.52-11.44,54.27-11.04,56.4.4,2.13,2.02,29.19,2.02,29.19,0,0,6.03-53.07,5.88-55.16-.15-2.09,8.79-26.88,8.79-28.18s-3.32-38.49-3.32-38.49c0,0-1.84,33.72-2.34,36.24Z"/>
      <path class="cls-26" d="m336.44,227.08c3.91-14.72-3.21-40.67-3.21-40.67l3.21,40.67Z"/>
      <path class="cls-27" d="m157.88,227.12l3.31-41.44s-7.22,26.71-3.31,41.44Z"/>
      <path class="cls-20" d="m160.62,248.75s5.6-28.08,8.14-40.92c1.93-9.79,5.82-34.85,5.82-34.85l-8.79,28.18-5.16,47.59Z"/>
      <polygon class="cls-4" points="319.12 172.97 332.77 244.52 328.54 201.15 319.12 172.97"/>
      <path class="cls-23" d="m250.17,316.04c-14.73,0-26.67,5.01-26.96,8.79-.56,7.21,11.14,9.02,22.41,10.27,11.26,1.25,28.37-4.93,28.37-10.27s-3.76-8.79-23.81-8.79Z"/>
      <path class="cls-55" d="m227.96,347.76c-5.88-2.11-22.82-12.5-22.82-12.5,0,0,15,13.85,22.22,16.74,13.59,5.44,27.93,4.93,39.29,0,8.69-3.77,25-18.6,25-18.6,0,0-15.44,10.57-24.26,14.36-8.82,3.79-29.11,3.7-39.44,0Z"/>
      <path class="cls-3" d="m247.03,91.07c-55.79,0-75.77,40.65-75.77,40.65,0,0,20.73-31.49,72.21-32.51,51.48-1.03,80.2,29.44,80.2,29.44,0,0-23.89-37.58-76.64-37.58Z"/>
    </g>
  </g>
</svg>