<?xml version="1.0" encoding="UTF-8"?>
<svg id="Layer_2" data-name="Layer 2" xmlns="http://www.w3.org/2000/svg" xmlns:xlink="http://www.w3.org/1999/xlink" viewBox="0 0 493.51 499.74">
  <defs>
    <style>
      .cls-1 {
        fill: url(#linear-gradient);
      }

      .cls-1, .cls-2, .cls-3, .cls-4, .cls-5, .cls-6, .cls-7, .cls-8, .cls-9, .cls-10, .cls-11, .cls-12, .cls-13, .cls-14, .cls-15, .cls-16, .cls-17, .cls-18, .cls-19, .cls-20, .cls-21, .cls-22, .cls-23, .cls-24, .cls-25, .cls-26, .cls-27, .cls-28, .cls-29, .cls-30, .cls-31, .cls-32, .cls-33, .cls-34, .cls-35, .cls-36, .cls-37, .cls-38, .cls-39, .cls-40, .cls-41, .cls-42, .cls-43, .cls-44, .cls-45, .cls-46, .cls-47, .cls-48, .cls-49, .cls-50, .cls-51, .cls-52, .cls-53, .cls-54, .cls-55, .cls-56, .cls-57, .cls-58, .cls-59, .cls-60, .cls-61, .cls-62, .cls-63 {
        stroke-width: 0px;
      }

      .cls-2 {
        fill: url(#radial-gradient);
      }

      .cls-3 {
        fill: url(#linear-gradient-11);
      }

      .cls-4 {
        fill: url(#linear-gradient-12);
      }

      .cls-5 {
        fill: url(#linear-gradient-13);
      }

      .cls-6 {
        fill: url(#linear-gradient-10);
      }

      .cls-7 {
        fill: url(#linear-gradient-17);
      }

      .cls-8 {
        fill: url(#linear-gradient-16);
      }

      .cls-9 {
        fill: url(#linear-gradient-19);
      }

      .cls-10 {
        fill: url(#linear-gradient-15);
      }

      .cls-11 {
        fill: url(#linear-gradient-18);
      }

      .cls-12 {
        fill: url(#linear-gradient-14);
      }

      .cls-13 {
        fill: url(#linear-gradient-20);
      }

      .cls-14 {
        fill: url(#_ÂÁ_Ï_ÌÌ_È_ËÂÌÚ_390);
      }

      .cls-15 {
        fill: url(#_ÂÁ_Ï_ÌÌ_È_ËÂÌÚ_139);
      }

      .cls-16 {
        fill: url(#_ÂÁ_Ï_ÌÌ_È_ËÂÌÚ_144);
      }

      .cls-17 {
        fill: url(#_ÂÁ_Ï_ÌÌ_È_ËÂÌÚ_142);
      }

      .cls-18 {
        fill: url(#_ÂÁ_Ï_ÌÌ_È_ËÂÌÚ_151);
      }

      .cls-19 {
        fill: url(#_ÂÁ_Ï_ÌÌ_È_ËÂÌÚ_163);
      }

      .cls-20 {
        fill: url(#_ÂÁ_Ï_ÌÌ_È_ËÂÌÚ_162);
      }

      .cls-21 {
        fill: url(#_ÂÁ_Ï_ÌÌ_È_ËÂÌÚ_161);
      }

      .cls-22 {
        fill: url(#_ÂÁ_Ï_ÌÌ_È_ËÂÌÚ_311);
      }

      .cls-23 {
        fill: url(#_ÂÁ_Ï_ÌÌ_È_ËÂÌÚ_1016);
      }

      .cls-24 {
        fill: url(#_ÂÁ_Ï_ÌÌ_È_ËÂÌÚ_1204);
      }

      .cls-25 {
        fill: url(#_ÂÁ_Ï_ÌÌ_È_ËÂÌÚ_17912);
      }

      .cls-26 {
        fill: url(#_ÂÁ_Ï_ÌÌ_È_ËÂÌÚ_144-3);
      }

      .cls-27 {
        fill: url(#_ÂÁ_Ï_ÌÌ_È_ËÂÌÚ_144-2);
      }

      .cls-28 {
        fill: url(#_ÂÁ_Ï_ÌÌ_È_ËÂÌÚ_142-3);
      }

      .cls-29 {
        fill: url(#_ÂÁ_Ï_ÌÌ_È_ËÂÌÚ_142-2);
      }

      .cls-30 {
        fill: url(#radial-gradient-2);
      }

      .cls-31 {
        fill: url(#radial-gradient-3);
      }

      .cls-32 {
        fill: url(#radial-gradient-4);
      }

      .cls-33 {
        fill: url(#_ÂÁ_Ï_ÌÌ_È_ËÂÌÚ_17912-4);
      }

      .cls-34 {
        fill: url(#_ÂÁ_Ï_ÌÌ_È_ËÂÌÚ_17912-5);
      }

      .cls-35 {
        fill: url(#_ÂÁ_Ï_ÌÌ_È_ËÂÌÚ_17912-6);
      }

      .cls-36 {
        fill: url(#_ÂÁ_Ï_ÌÌ_È_ËÂÌÚ_17912-2);
      }

      .cls-37 {
        fill: url(#_ÂÁ_Ï_ÌÌ_È_ËÂÌÚ_17912-7);
      }

      .cls-38 {
        fill: url(#_ÂÁ_Ï_ÌÌ_È_ËÂÌÚ_17912-3);
      }

      .cls-39 {
        fill: url(#linear-gradient-4);
      }

      .cls-40 {
        fill: url(#linear-gradient-2);
      }

      .cls-41 {
        fill: url(#linear-gradient-3);
      }

      .cls-42 {
        fill: url(#linear-gradient-8);
      }

      .cls-43 {
        fill: url(#linear-gradient-9);
      }

      .cls-44 {
        fill: url(#linear-gradient-7);
      }

      .cls-45 {
        fill: url(#linear-gradient-5);
      }

      .cls-46 {
        fill: url(#linear-gradient-6);
      }

      .cls-47 {
        fill: url(#_ÂÁ_Ï_ÌÌ_È_ËÂÌÚ_1204-7);
      }

      .cls-48 {
        fill: url(#_ÂÁ_Ï_ÌÌ_È_ËÂÌÚ_1204-2);
      }

      .cls-49 {
        fill: url(#_ÂÁ_Ï_ÌÌ_È_ËÂÌÚ_1204-4);
      }

      .cls-50 {
        fill: url(#_ÂÁ_Ï_ÌÌ_È_ËÂÌÚ_1204-3);
      }

      .cls-51 {
        fill: url(#_ÂÁ_Ï_ÌÌ_È_ËÂÌÚ_1204-6);
      }

      .cls-52 {
        fill: url(#_ÂÁ_Ï_ÌÌ_È_ËÂÌÚ_1204-5);
      }

      .cls-53 {
        fill: #f3eceb;
      }

      .cls-54 {
        fill: #f6ece6;
      }

      .cls-55 {
        fill: #f7d4ab;
      }

      .cls-56 {
        fill: #711e22;
      }

      .cls-57 {
        fill: #ddd;
      }

      .cls-58 {
        fill: #dca57b;
      }

      .cls-59 {
        fill: #f2be96;
      }

      .cls-60 {
        fill: #fff;
      }

      .cls-61 {
        fill: #f0c499;
      }

      .cls-62 {
        fill: #fe432b;
      }

      .cls-63 {
        fill: #fdd8b3;
      }
    </style>
    <linearGradient id="linear-gradient" x1="208.39" y1="357.34" x2="332.75" y2="382.26" gradientUnits="userSpaceOnUse">
      <stop offset="0" stop-color="#f0c499"/>
      <stop offset="1" stop-color="#f7d4ab"/>
    </linearGradient>
    <linearGradient id="linear-gradient-2" x1="249" y1="503.53" x2="252.54" y2="422.45" gradientUnits="userSpaceOnUse">
      <stop offset="0" stop-color="#fe432b"/>
      <stop offset=".44" stop-color="#fe523d"/>
      <stop offset="1" stop-color="#ff6350"/>
    </linearGradient>
    <linearGradient id="linear-gradient-3" x1="245.99" y1="340.31" x2="261.33" y2="471.65" gradientUnits="userSpaceOnUse">
      <stop offset="0" stop-color="#fff"/>
      <stop offset=".36" stop-color="#f8f8fa"/>
      <stop offset="1" stop-color="#f1f0f5"/>
    </linearGradient>
    <linearGradient id="linear-gradient-4" x1="143.57" y1="225.57" x2="162.23" y2="270.85" gradientUnits="userSpaceOnUse">
      <stop offset="0" stop-color="#dba379"/>
      <stop offset=".49" stop-color="#e3b086"/>
      <stop offset="1" stop-color="#f0c499"/>
    </linearGradient>
    <linearGradient id="linear-gradient-5" x1="333.76" y1="227.9" x2="350.09" y2="267.5" xlink:href="#linear-gradient-4"/>
    <linearGradient id="linear-gradient-6" x1="248.43" y1="136.69" x2="246.64" y2="231.69" gradientUnits="userSpaceOnUse">
      <stop offset="0" stop-color="#ffd9b3"/>
      <stop offset=".28" stop-color="#fbd6af"/>
      <stop offset="1" stop-color="#f7d4ab"/>
    </linearGradient>
    <linearGradient id="linear-gradient-7" x1="292.69" y1="245.36" x2="290.11" y2="215.05" gradientUnits="userSpaceOnUse">
      <stop offset="0" stop-color="#f7d4ab"/>
      <stop offset=".52" stop-color="#f5d1a8"/>
      <stop offset=".85" stop-color="#f2c99f"/>
      <stop offset="1" stop-color="#f0c499"/>
    </linearGradient>
    <linearGradient id="linear-gradient-8" x1="203.23" y1="245.16" x2="200.69" y2="215.36" xlink:href="#linear-gradient-7"/>
    <linearGradient id="linear-gradient-9" x1="247.28" y1="321.95" x2="249.04" y2="353.04" gradientUnits="userSpaceOnUse">
      <stop offset="0" stop-color="#ffd9b3"/>
      <stop offset="1" stop-color="#f7d4ab"/>
    </linearGradient>
    <radialGradient id="radial-gradient" cx="1218.93" cy="-168.25" fx="1218.93" fy="-168.25" r="44.34" gradientTransform="translate(1532.73 335.03) rotate(177.87) scale(1 -.71) skewX(-1.48)" gradientUnits="userSpaceOnUse">
      <stop offset="0" stop-color="#f8c39c"/>
      <stop offset="1" stop-color="#f7d4ab"/>
    </radialGradient>
    <linearGradient id="linear-gradient-10" x1="323.85" y1="242.9" x2="297.27" y2="252.07" gradientUnits="userSpaceOnUse">
      <stop offset="0" stop-color="#fbd6af"/>
      <stop offset="1" stop-color="#f7d4ab"/>
    </linearGradient>
    <radialGradient id="radial-gradient-2" cx="254.04" cy="-245.44" fx="254.04" fy="-245.44" r="45.6" gradientTransform="translate(-42.13 445.61) rotate(-3.63) scale(1 .69) skewX(2.76)" xlink:href="#radial-gradient"/>
    <linearGradient id="linear-gradient-11" x1="297.29" y1="308.22" x2="295.94" y2="283.33" xlink:href="#linear-gradient-7"/>
    <linearGradient id="linear-gradient-12" x1="203.8" y1="313.3" x2="202.44" y2="288.41" xlink:href="#linear-gradient-7"/>
    <linearGradient id="linear-gradient-13" x1="199.6" y1="250" x2="160.18" y2="240.38" xlink:href="#linear-gradient-10"/>
    <linearGradient id="_ÂÁ_Ï_ÌÌ_È_ËÂÌÚ_1204" data-name="¡ÂÁ˚ÏˇÌÌ˚È „‡‰ËÂÌÚ 1204" x1="179.73" y1="220.09" x2="230.72" y2="234.44" gradientUnits="userSpaceOnUse">
      <stop offset="0" stop-color="#dba379"/>
      <stop offset=".49" stop-color="#e3b086"/>
      <stop offset="1" stop-color="#f0c499"/>
    </linearGradient>
    <linearGradient id="linear-gradient-14" x1="224.2" y1="233.39" x2="191.5" y2="225.5" gradientUnits="userSpaceOnUse">
      <stop offset="0" stop-color="#ece7e7"/>
      <stop offset=".23" stop-color="#f5f3f3"/>
      <stop offset=".53" stop-color="#fcfcfc"/>
      <stop offset="1" stop-color="#fff"/>
    </linearGradient>
    <linearGradient id="_ÂÁ_Ï_ÌÌ_È_ËÂÌÚ_144" data-name="¡ÂÁ˚ÏˇÌÌ˚È „‡‰ËÂÌÚ 144" x1="217.77" y1="229.43" x2="183.4" y2="230.81" gradientUnits="userSpaceOnUse">
      <stop offset="0" stop-color="#a68d65"/>
      <stop offset="1" stop-color="#5f4b2c"/>
    </linearGradient>
    <linearGradient id="_ÂÁ_Ï_ÌÌ_È_ËÂÌÚ_144-2" data-name="¡ÂÁ˚ÏˇÌÌ˚È „‡‰ËÂÌÚ 144" x1="229.48" y1="330.49" x2="212.7" y2="261.22" xlink:href="#_ÂÁ_Ï_ÌÌ_È_ËÂÌÚ_144"/>
    <radialGradient id="radial-gradient-3" cx="211.9" cy="234.26" fx="211.9" fy="234.26" r="21.79" gradientUnits="userSpaceOnUse">
      <stop offset="0" stop-color="#2a3a3b"/>
      <stop offset="1" stop-color="#1c2727"/>
    </radialGradient>
    <linearGradient id="_ÂÁ_Ï_ÌÌ_È_ËÂÌÚ_17912" data-name="¡ÂÁ˚ÏˇÌÌ˚È „‡‰ËÂÌÚ 17912" x1="215.85" y1="288.64" x2="205.56" y2="236.68" gradientUnits="userSpaceOnUse">
      <stop offset="0" stop-color="#963825"/>
      <stop offset=".19" stop-color="#903523"/>
      <stop offset=".44" stop-color="#802d1d"/>
      <stop offset=".72" stop-color="#662013"/>
      <stop offset=".9" stop-color="#51150c"/>
      <stop offset="1" stop-color="#450e08"/>
    </linearGradient>
    <linearGradient id="_ÂÁ_Ï_ÌÌ_È_ËÂÌÚ_1204-2" data-name="¡ÂÁ˚ÏˇÌÌ˚È „‡‰ËÂÌÚ 1204" x1="265.86" y1="220.89" x2="315.6" y2="234.89" xlink:href="#_ÂÁ_Ï_ÌÌ_È_ËÂÌÚ_1204"/>
    <linearGradient id="linear-gradient-15" x1="307.34" y1="233.58" x2="275.47" y2="225.89" xlink:href="#linear-gradient-14"/>
    <linearGradient id="_ÂÁ_Ï_ÌÌ_È_ËÂÌÚ_311" data-name="¡ÂÁ˚ÏˇÌÌ˚È „‡‰ËÂÌÚ 311" x1="300.34" y1="229.38" x2="265.96" y2="230.76" gradientUnits="userSpaceOnUse">
      <stop offset="0" stop-color="#5f4b2c"/>
      <stop offset="1" stop-color="#a68d65"/>
    </linearGradient>
    <linearGradient id="_ÂÁ_Ï_ÌÌ_È_ËÂÌÚ_144-3" data-name="¡ÂÁ˚ÏˇÌÌ˚È „‡‰ËÂÌÚ 144" x1="282.57" y1="321.92" x2="286.9" y2="253.19" xlink:href="#_ÂÁ_Ï_ÌÌ_È_ËÂÌÚ_144"/>
    <radialGradient id="radial-gradient-4" cx="294.61" cy="234.26" fx="294.61" fy="234.26" r="21.79" xlink:href="#radial-gradient-3"/>
    <linearGradient id="_ÂÁ_Ï_ÌÌ_È_ËÂÌÚ_17912-2" data-name="¡ÂÁ˚ÏˇÌÌ˚È „‡‰ËÂÌÚ 17912" x1="298.25" y1="272.33" x2="287.96" y2="220.37" xlink:href="#_ÂÁ_Ï_ÌÌ_È_ËÂÌÚ_17912"/>
    <linearGradient id="_ÂÁ_Ï_ÌÌ_È_ËÂÌÚ_17912-3" data-name="¡ÂÁ˚ÏˇÌÌ˚È „‡‰ËÂÌÚ 17912" x1="286.93" y1="156.64" x2="291.26" y2="210.76" xlink:href="#_ÂÁ_Ï_ÌÌ_È_ËÂÌÚ_17912"/>
    <linearGradient id="_ÂÁ_Ï_ÌÌ_È_ËÂÌÚ_17912-4" data-name="¡ÂÁ˚ÏˇÌÌ˚È „‡‰ËÂÌÚ 17912" x1="198.47" y1="163.71" x2="202.8" y2="217.83" xlink:href="#_ÂÁ_Ï_ÌÌ_È_ËÂÌÚ_17912"/>
    <linearGradient id="linear-gradient-16" x1="237.91" y1="109.98" x2="248.69" y2="239.71" gradientUnits="userSpaceOnUse">
      <stop offset="0" stop-color="#f7d4ab"/>
      <stop offset=".45" stop-color="#f3caa0"/>
      <stop offset="1" stop-color="#f0c499"/>
    </linearGradient>
    <linearGradient id="_ÂÁ_Ï_ÌÌ_È_ËÂÌÚ_161" data-name="¡ÂÁ˚ÏˇÌÌ˚È „‡‰ËÂÌÚ 161" x1="186.56" y1="259.22" x2="187.93" y2="365.7" gradientUnits="userSpaceOnUse">
      <stop offset="0" stop-color="#f0c499"/>
      <stop offset="1" stop-color="#f7d4ab"/>
    </linearGradient>
    <linearGradient id="_ÂÁ_Ï_ÌÌ_È_ËÂÌÚ_162" data-name="¡ÂÁ˚ÏˇÌÌ˚È „‡‰ËÂÌÚ 162" x1="309.27" y1="257.65" x2="310.63" y2="364.13" gradientUnits="userSpaceOnUse">
      <stop offset="0" stop-color="#f0c499"/>
      <stop offset="1" stop-color="#f7d4ab"/>
    </linearGradient>
    <radialGradient id="_ÂÁ_Ï_ÌÌ_È_ËÂÌÚ_390" data-name="¡ÂÁ˚ÏˇÌÌ˚È „‡‰ËÂÌÚ 390" cx="242" cy="246.48" fx="242" fy="246.48" r="24.41" gradientUnits="userSpaceOnUse">
      <stop offset="0" stop-color="#f8cba3"/>
      <stop offset="1" stop-color="#f7d4ab"/>
    </radialGradient>
    <linearGradient id="linear-gradient-17" x1="246.47" y1="239.38" x2="247.17" y2="264.01" xlink:href="#linear-gradient-7"/>
    <linearGradient id="linear-gradient-18" x1="245.59" y1="269.38" x2="248.27" y2="249.57" xlink:href="#linear-gradient-6"/>
    <linearGradient id="_ÂÁ_Ï_ÌÌ_È_ËÂÌÚ_151" data-name="¡ÂÁ˚ÏˇÌÌ˚È „‡‰ËÂÌÚ 151" x1="250.6" y1="338.21" x2="249.16" y2="371.64" gradientUnits="userSpaceOnUse">
      <stop offset="0" stop-color="#f0c499"/>
      <stop offset=".51" stop-color="#e3b086"/>
      <stop offset="1" stop-color="#dba379"/>
    </linearGradient>
    <linearGradient id="_ÂÁ_Ï_ÌÌ_È_ËÂÌÚ_17912-5" data-name="¡ÂÁ˚ÏˇÌÌ˚È „‡‰ËÂÌÚ 17912" x1="249.95" y1="81.74" x2="241.77" y2="230.45" xlink:href="#_ÂÁ_Ï_ÌÌ_È_ËÂÌÚ_17912"/>
    <linearGradient id="_ÂÁ_Ï_ÌÌ_È_ËÂÌÚ_139" data-name="¡ÂÁ˚ÏˇÌÌ˚È „‡‰ËÂÌÚ 139" x1="246.89" y1="219.34" x2="249.6" y2="109.39" gradientUnits="userSpaceOnUse">
      <stop offset="0" stop-color="#450e08"/>
      <stop offset=".33" stop-color="#51150c"/>
      <stop offset=".49" stop-color="#5c1a10"/>
      <stop offset=".78" stop-color="#7a291a"/>
      <stop offset="1" stop-color="#963825"/>
    </linearGradient>
    <linearGradient id="_ÂÁ_Ï_ÌÌ_È_ËÂÌÚ_17912-6" data-name="¡ÂÁ˚ÏˇÌÌ˚È „‡‰ËÂÌÚ 17912" x1="242.18" y1="89.19" x2="233.03" y2="146.2" xlink:href="#_ÂÁ_Ï_ÌÌ_È_ËÂÌÚ_17912"/>
    <linearGradient id="_ÂÁ_Ï_ÌÌ_È_ËÂÌÚ_17912-7" data-name="¡ÂÁ˚ÏˇÌÌ˚È „‡‰ËÂÌÚ 17912" x1="168.8" y1="171.48" x2="393.14" y2="109.97" xlink:href="#_ÂÁ_Ï_ÌÌ_È_ËÂÌÚ_17912"/>
    <linearGradient id="_ÂÁ_Ï_ÌÌ_È_ËÂÌÚ_142" data-name="¡ÂÁ˚ÏˇÌÌ˚È „‡‰ËÂÌÚ 142" x1="256.33" y1="283.15" x2="240.22" y2="125.96" gradientUnits="userSpaceOnUse">
      <stop offset="0" stop-color="#541109"/>
      <stop offset=".29" stop-color="#772416"/>
      <stop offset=".56" stop-color="#913220"/>
      <stop offset=".81" stop-color="#a13b25"/>
      <stop offset="1" stop-color="#a73e28"/>
    </linearGradient>
    <linearGradient id="_ÂÁ_Ï_ÌÌ_È_ËÂÌÚ_163" data-name="¡ÂÁ˚ÏˇÌÌ˚È „‡‰ËÂÌÚ 163" x1="327.83" y1="107.3" x2="317.92" y2="204.04" gradientUnits="userSpaceOnUse">
      <stop offset="0" stop-color="#a73e28"/>
      <stop offset=".19" stop-color="#a13b25"/>
      <stop offset=".44" stop-color="#913220"/>
      <stop offset=".71" stop-color="#772416"/>
      <stop offset="1" stop-color="#541109"/>
    </linearGradient>
    <linearGradient id="_ÂÁ_Ï_ÌÌ_È_ËÂÌÚ_142-2" data-name="¡ÂÁ˚ÏˇÌÌ˚È „‡‰ËÂÌÚ 142" x1="166.15" y1="187.2" x2="145.02" y2="138.33" xlink:href="#_ÂÁ_Ï_ÌÌ_È_ËÂÌÚ_142"/>
    <linearGradient id="_ÂÁ_Ï_ÌÌ_È_ËÂÌÚ_142-3" data-name="¡ÂÁ˚ÏˇÌÌ˚È „‡‰ËÂÌÚ 142" x1="250.67" y1="370.58" x2="227.75" y2="146.82" xlink:href="#_ÂÁ_Ï_ÌÌ_È_ËÂÌÚ_142"/>
    <linearGradient id="_ÂÁ_Ï_ÌÌ_È_ËÂÌÚ_1204-3" data-name="¡ÂÁ˚ÏˇÌÌ˚È „‡‰ËÂÌÚ 1204" x1="286.22" y1="286.42" x2="298.6" y2="286.42" xlink:href="#_ÂÁ_Ï_ÌÌ_È_ËÂÌÚ_1204"/>
    <linearGradient id="_ÂÁ_Ï_ÌÌ_È_ËÂÌÚ_1204-4" data-name="¡ÂÁ˚ÏˇÌÌ˚È „‡‰ËÂÌÚ 1204" x1="197.04" y1="287.05" x2="209.42" y2="287.05" xlink:href="#_ÂÁ_Ï_ÌÌ_È_ËÂÌÚ_1204"/>
    <linearGradient id="_ÂÁ_Ï_ÌÌ_È_ËÂÌÚ_1204-5" data-name="¡ÂÁ˚ÏˇÌÌ˚È „‡‰ËÂÌÚ 1204" x1="251.11" y1="366.9" x2="249.23" y2="312.56" xlink:href="#_ÂÁ_Ï_ÌÌ_È_ËÂÌÚ_1204"/>
    <linearGradient id="linear-gradient-19" x1="215.36" y1="301.32" x2="283.44" y2="302.48" gradientUnits="userSpaceOnUse">
      <stop offset="0" stop-color="#e8d9d7"/>
      <stop offset=".14" stop-color="#efe5e4"/>
      <stop offset=".39" stop-color="#faf8f7"/>
      <stop offset=".57" stop-color="#fff"/>
      <stop offset="1" stop-color="#e8d3d1"/>
    </linearGradient>
    <linearGradient id="_ÂÁ_Ï_ÌÌ_È_ËÂÌÚ_1204-6" data-name="¡ÂÁ˚ÏˇÌÌ˚È „‡‰ËÂÌÚ 1204" x1="251.13" y1="365.76" x2="249.31" y2="313" xlink:href="#_ÂÁ_Ï_ÌÌ_È_ËÂÌÚ_1204"/>
    <linearGradient id="linear-gradient-20" x1="246.93" y1="275.55" x2="248.02" y2="301.02" gradientUnits="userSpaceOnUse">
      <stop offset="0" stop-color="#e8d9d7"/>
      <stop offset=".4" stop-color="#efe5e3"/>
      <stop offset="1" stop-color="#fff"/>
    </linearGradient>
    <linearGradient id="_ÂÁ_Ï_ÌÌ_È_ËÂÌÚ_1204-7" data-name="¡ÂÁ˚ÏˇÌÌ˚È „‡‰ËÂÌÚ 1204" x1="249.68" y1="375.86" x2="247.89" y2="266.56" xlink:href="#_ÂÁ_Ï_ÌÌ_È_ËÂÌÚ_1204"/>
    <linearGradient id="_ÂÁ_Ï_ÌÌ_È_ËÂÌÚ_1016" data-name="¡ÂÁ˚ÏˇÌÌ˚È „‡‰ËÂÌÚ 1016" x1="388.64" y1="108.71" x2="134.01" y2="200.04" gradientUnits="userSpaceOnUse">
      <stop offset="0" stop-color="#963825"/>
      <stop offset=".18" stop-color="#7d2b1c"/>
      <stop offset=".46" stop-color="#5d1b10"/>
      <stop offset=".62" stop-color="#51150c"/>
      <stop offset="1" stop-color="#450e08"/>
      <stop offset="1" stop-color="#450e08"/>
    </linearGradient>
  </defs>
  <g id="Layer_1-2" data-name="Layer 1">
    <g>
      <ellipse class="cls-54" cx="246.76" cy="249.87" rx="246.76" ry="249.87"/>
      <path class="cls-1" d="m307.33,352.52c-.88-4.09-4.13-46.2-4.13-46.2l-105.34-4.51-.2,50.21c-9.8,6.98-31.33,13.84-31.33,13.84-1.46,16.36,38.55,70.43,84.78,68.25,59.71-2.82,85.49-68.25,85.49-68.25,0,0-28.39-9.25-29.27-13.34Z"/>
      <path class="cls-55" d="m275.25,380.96c-.63.56-37.72,4.99-51.14-.27-6.75-2.65-23.67-21.11-23.67-21.11-7.25,6.87-18.47,8.93-18.47,8.93,29.61,38.37,69.7,51.49,69.7,51.49,31.93-10.97,70.09-52.85,70.09-52.85-5.78-1.75-8.15-1.45-17.67-9.84-10.81,13.72-28.22,23.07-28.84,23.64Z"/>
      <path class="cls-62" d="m425.09,422.55c.14-15.63.12-26.6.12-26.6-29.87-13.66-92.24-31.87-92.24-31.87,0,0-47.98,66.38-81.86,70.03-39.47,4.24-83.74-70.03-83.74-70.03-76.88,23.8-94.04,31.87-94.04,31.87.89,1.79.92,14.91.99,32.63,44.48,44.02,105.32,71.16,172.43,71.16s133.41-29.62,178.34-77.18Z"/>
      <path class="cls-40" d="m253.18,445.99c-61.43-1.73-84.23-8.94-123.64,14.24-2.61,1.53-4.9,3.44-6.88,5.64,36.46,21.52,78.85,33.86,124.09,33.86,48.59,0,93.89-14.23,132.08-38.78-.86-1.25-1.77-2.39-2.76-3.37-22.03-22.03-61.46-9.87-122.89-11.6Z"/>
      <path class="cls-62" d="m58,410.78c8.43,10.13,17.64,19.59,27.54,28.25-6.09-21.67-12.2-43.07-12.2-43.07-5.25,1.88-10.39,7.18-15.34,14.83Z"/>
      <path class="cls-62" d="m438.25,407.44c-4.18-5.64-8.53-9.66-13.03-11.49,0,0-5,17.52-10.46,36.9,8.4-7.91,16.25-16.4,23.49-25.41Z"/>
      <path class="cls-41" d="m250.24,428.2s-63.27-30.04-78.74-65.4c-7.88,2.26-21.88,6.85-21.88,6.85,0,0,41.7,55.21,99.66,78.89,75.39-37.34,99.87-79.55,99.87-79.55l-17.7-6.2c-22.21,38.03-81.2,65.4-81.2,65.4Z"/>
      <path class="cls-61" d="m147.57,219.95c-10.45,1.93-9.54,10.97-4.97,23.43,4.44,33.12,14.35,37.82,17.97,35.81,6.62-3.69-.35-61.57-13-59.23Z"/>
      <path class="cls-39" d="m153.08,249.26c4.6-27.46-12.23-30.2-9-11.13,0,0,2.63-8.78,4.68-6.02,2.52,3.4-2.98,4.93-.67,19.33,1.21,7.49,7.93,15.66,7.93,15.66,0,0-4.89-6.2-2.93-17.84Z"/>
      <path class="cls-61" d="m343,219.7c-12.77-1.74-16.4,56.38-9.59,59.75,3.74,1.85,14.92-6.61,17.45-39.89,3.85-12.65,2.68-18.42-7.86-19.86Z"/>
      <path class="cls-45" d="m339.17,249.22c2.62,11.53-1.91,17.95-1.91,17.95,0,0,6.24-8.47,7.02-16,1.47-14.49-4.11-15.77-1.78-19.28,1.9-2.85,5.02,5.79,5.02,5.79,2.13-19.18-14.52-15.67-8.35,11.54Z"/>
      <path class="cls-46" d="m307.19,121.7c-13.86-16.16-35.64-23.21-72.88-22.35,0,0-48.51,1.71-60.63,28.27-12.97,28.4-15.55,67.52-14.41,104.13,1.38,44.46,5.06,61.13,16.95,79.92,11.89,18.79,22.46,21.79,38.43,40.22,3.25,3.75,30.78,20.21,52.62,10.42,3.57-1.6,15.86-7.06,18.08-10.42,9.53-14.46,25.63-23.74,34.69-43.18,9.66-20.74,14.18-45.86,13.95-50.51-1.24-25.1-.08-18.48.78-40.14,3.12-77.93-20.78-88.43-27.59-96.38Z"/>
      <path class="cls-44" d="m266.78,199.74c-1.18,7.58-8.16,35.49-3.71,38.12,27.8,16.37,58.21-4.36,58.21-4.36,2.19-47.16-54.51-33.76-54.51-33.76Z"/>
      <path class="cls-42" d="m172.56,234.16s29.53,19.73,57.95,1.45c4.35-2.8-4.23-27.58-5.43-35.16,0,0-54.91-17.58-52.52,33.71Z"/>
      <path class="cls-43" d="m248.93,332.98c-5.32.02-18.66,3.62-18.27,5.57,1.17,5.9,13.52,6.89,18.84,6.86,5.33-.03,16.1-1.38,16.32-6.41.09-1.98-11.56-6.05-16.89-6.02Z"/>
      <path class="cls-2" d="m296.91,291.75c15.32,1.03,33.91-.92,37.12-32.72,1.83-18.12-1.57-27.57-9.15-28.99-16.09-3.02-39.15,4.04-48.76,9.05-20.29,10.59-6.37,50.82,20.79,52.66Z"/>
      <path class="cls-6" d="m323.06,239.93c-2.77-1.55-4.82.7-10.56,2.59-5.64,1.85-21.03,4.77-13.79,8.7,8,4.35,19.17-1.61,20.53-2.73,1.36-1.12,7.24-6.64,3.83-8.56Z"/>
      <path class="cls-30" d="m212.12,237.57c-4.38-1.61-37.74-9.22-47.67-6.31-5.67,1.66-4.51,10.72-4.88,21.4-.2,5.83,1.45,20.27,2.76,23.92,6.42,17.93,32.35,18.72,46.48,13.72,24.11-8.54,25.53-44.61,3.31-52.73Z"/>
      <path class="cls-3" d="m283.18,270.38c19.84,16.25,11.81,27.92,7.69,32.01,7.63-6.48,17.93-13.71,17.25-16.55-2.46-10.35-24.94-15.46-24.94-15.46Z"/>
      <path class="cls-4" d="m191.39,287.41c.45,3.18,9.32,11,15.14,17.1,0,0-15.53-16.91,6.07-32.15,0,0-22.72,4.37-21.2,15.05Z"/>
      <path class="cls-5" d="m182.33,241.66c-5.83-1.6-8-3.74-10.68-2.05-3.31,2.09,2.85,7.3,4.26,8.35,1.41,1.05,12.88,6.43,20.64,1.68,7.03-4.3-8.49-6.41-14.22-7.98Z"/>
      <g>
        <path class="cls-24" d="m203.7,213.41c-4.65-.26-14.57,1.15-17.89,3.73-5.92,4.6-8.01,8.77-7.5,14.04.15,1.55,6.48,7.52,19.94,8.55,10.08.78,26.08.03,29.95-4.2,1.86-2.03-.53-10.13-1.29-13-1.41-5.42-9.06-8.35-23.21-9.12Z"/>
        <path class="cls-12" d="m213.59,219c-21.61-2.59-20.31.63-29.06,10.65,0,0,.15,1.58,1.33,3.37,1.21,1.84,4.68,4.4,9,5.21,13.88,2.63,18.3.68,24.21-.51,2.52-.51,5.31-2.9,5.25-3.98,0,0,.46-4.44-1.35-8.4-1.38-3.03-4.1-5.71-9.38-6.34Z"/>
        <path class="cls-57" d="m184.52,229.65c.03.65.45,2.04,1.24,3.23,15.53-9.6,32.28-7.39,37.2-7.54-8.77-5.6-21.62-4.35-27.95-5.05-8.07-.88-10.49,9.36-10.49,9.36Z"/>
        <path class="cls-16" d="m204.81,220.24c-7.04.35-12.88,5.8-12.02,12.73.19,1.48.37,3.32,2.06,5.26,1.27.37,6.42,1.37,10.13,1.31,4.99.2,9.58-.71,10.75-1.09.3-.3,1.8-3.3,1.96-6.02.41-7.15-4.5-12.61-12.88-12.2Z"/>
        <path class="cls-27" d="m204.29,219.33c-7.57.62-10.86,7-11.3,9.9,0,0,8.38-4.04,22.95-4.01,0,0-4.09-6.51-11.66-5.89Z"/>
        <path class="cls-31" d="m205.04,222.25c-4.2.07-7.55,3.44-7.49,7.53.06,4.09,3.52,7.34,7.71,7.28,4.2-.08,7.54-3.45,7.48-7.54-.06-4.08-3.52-7.34-7.7-7.26Z"/>
        <path class="cls-25" d="m218.55,220.25c-7.61-4.26-19.51-3.45-27.11-.36-7.43,3.02-6.92,9.77-6.92,9.77,0,0,3.9-4.43,16.68-6.17,12.78-1.74,21.76,1.86,21.76,1.86,0,0-1.47-3.45-4.41-5.1Z"/>
        <g>
          <path class="cls-60" d="m211.27,230.23c-1.64.81-2.35,2.71-1.58,4.21.77,1.52,2.72,2.09,4.35,1.28,1.64-.81,2.35-2.7,1.58-4.22-.76-1.52-2.71-2.09-4.35-1.28Z"/>
          <path class="cls-60" d="m204.47,227.1c-1.29.63-1.84,2.12-1.23,3.31.6,1.19,2.15,1.64,3.44,1.01,1.29-.64,1.85-2.12,1.24-3.31-.61-1.19-2.15-1.64-3.45-1.01Z"/>
        </g>
      </g>
      <g>
        <path class="cls-48" d="m307.19,217.15c-3.33-2.58-13.24-3.99-17.89-3.73-14.15.77-21.8,3.71-23.21,9.12-.75,2.87-3.15,10.96-1.29,13,3.87,4.22,19.88,4.97,29.95,4.2,13.46-1.03,19.79-7,19.94-8.55.51-5.27-1.58-9.44-7.5-14.04Z"/>
        <path class="cls-10" d="m279.42,219c-5.28.63-8,3.3-9.38,6.34-1.8,3.95-1.35,8.4-1.35,8.4-.07,1.07,2.73,3.47,5.25,3.98,5.91,1.19,10.34,3.14,24.21.51,4.32-.82,7.79-3.38,9-5.21,1.18-1.79,1.33-3.37,1.33-3.37-8.76-10.02-7.45-13.23-29.06-10.65Z"/>
        <path class="cls-57" d="m297.99,220.29c-6.33.69-19.18-.55-27.95,5.05,4.93.15,21.68-2.07,37.2,7.54.79-1.19,1.21-2.58,1.24-3.23,0,0-2.42-10.23-10.49-9.36Z"/>
        <path class="cls-22" d="m288.19,220.24c-8.39-.42-13.3,5.05-12.88,12.2.16,2.72,1.66,5.71,1.96,6.02,1.17.38,5.76,1.29,10.75,1.09,3.71.06,8.87-.94,10.13-1.31,1.69-1.94,1.87-3.78,2.06-5.26.86-6.93-4.98-12.38-12.02-12.73Z"/>
        <path class="cls-26" d="m288.72,219.33c-7.57-.62-11.66,5.89-11.66,5.89,14.57-.04,22.95,4.01,22.95,4.01-.43-2.89-3.73-9.28-11.3-9.9Z"/>
        <path class="cls-32" d="m287.96,222.25c-4.19-.08-7.64,3.18-7.7,7.26-.06,4.09,3.28,7.46,7.48,7.54,4.19.07,7.65-3.19,7.71-7.28.06-4.09-3.29-7.46-7.49-7.53Z"/>
        <path class="cls-36" d="m301.56,219.88c-7.6-3.09-19.5-3.89-27.11.36-2.95,1.65-4.41,5.1-4.41,5.1,0,0,8.99-3.6,21.76-1.86,12.78,1.74,16.68,6.17,16.68,6.17,0,0,.52-6.75-6.92-9.77Z"/>
        <g>
          <path class="cls-60" d="m294.17,229.88c-1.78.22-3.08,1.88-2.88,3.71.2,1.82,1.82,3.12,3.61,2.9,1.8-.22,3.09-1.87,2.88-3.71-.2-1.82-1.81-3.12-3.61-2.9Z"/>
          <path class="cls-60" d="m287.05,226.83c-1.42.17-2.43,1.47-2.27,2.91.18,1.44,1.45,2.47,2.86,2.3,1.41-.16,2.42-1.47,2.27-2.91-.16-1.44-1.45-2.47-2.86-2.3Z"/>
        </g>
      </g>
      <path class="cls-38" d="m306.07,199.97c-15.51-5.38-25.16-5.26-36.69-4.82-1.13,1.96-.68,4.23.04,6.44-1.32-1.98-2-3.94-1.57-6.24-2.94,1.38.12,9.47.12,9.47,5.39.27,19.42-.68,29.8,1.21,12.16,2.22,17.16,3.95,17.16,3.95,0,0-1.19-7.36-8.85-10.03Z"/>
      <path class="cls-33" d="m224.6,195.36c.43,2.3-.25,4.25-1.57,6.24.72-2.22,1.17-4.48.04-6.44-11.54-.44-21.18-.56-36.69,4.82-7.66,2.67-8.85,10.03-8.85,10.03,0,0,5-1.73,17.16-3.95,10.37-1.89,24.4-.95,29.8-1.21,0,0,3.06-8.09.12-9.47Z"/>
      <path class="cls-8" d="m311.47,134.54c-34.05-23.87-125.21-.38-134.53-.16-9.32.22-17.37,118.28-17.37,118.28,0,0,9.64-36.1,17.37-48.37,19.32-30.66-2.32-49.76,9.03-54.43,10.98-4.52,34.43,10.36,52.71,15.28,41.57,11.18,55.04,5.38,69.47-13.63,11.61,16.77-11.64,23.41,12.5,56.8,5.41,7.48,13.55,42.09,13.55,42.09,0,0,11.32-91.99-22.73-115.86Z"/>
      <path class="cls-21" d="m159.57,252.66s.13,30.22,6.03,45.28c5.89,15.06,15.19,22.25,21.52,28.93s27.55,25.03,27.55,25.03c0,0-16.52-27.4-20.76-32.29-4.24-4.89-28.31-19.77-34.34-66.96Z"/>
      <path class="cls-20" d="m298.6,321.25c-4.24,4.89-13.25,30.66-13.25,30.66,0,0,16.42-17.99,22.75-24.67,6.33-6.68,17.46-16.96,21.92-32.5,2.38-8.31,4.32-40.09,4.32-40.09-10.23,54.08-31.51,61.72-35.74,66.61Z"/>
      <path class="cls-14" d="m246.42,237.69c-8.66,0-26.93,11.29-26.93,15.94s19.28-2.16,27.94-2.16,25.93,6.52,25.93,1.86-18.27-15.65-26.93-15.65Z"/>
      <path class="cls-58" d="m255.31,272.58c10.64-2.64,14.82-1.07,14.82-1.07-6.19-5.43-14.82,1.07-14.82,1.07Z"/>
      <path class="cls-58" d="m225.17,270.73s5.52-.89,13.88,1.94c0,0-8.16-6.18-13.88-1.94Z"/>
      <path class="cls-7" d="m263.53,254.88c-.07,4.36.94,7.28-.39,9.77-2.96,5.54-10.62,7.73-15.74,7.31-3.88.47-12.97-1.47-16.76-7.28-1.54-2.37-.57-4.49-1.27-9.13,0,0-10.53,12.71-4.21,15.17,0,0,1.85-1.39,6.94-.93,5.09.46,4.04,6.05,15.72,6.17,10.18.09,6.93-4.79,13.41-5.71,6.47-.93,7.31.74,8.78,1.38,3.24,0,.91-10.75-6.49-16.76Z"/>
      <path class="cls-11" d="m236.53,262.35c-.44,2.84,3.55,5.9,10.71,5.96,7.87.06,9.63-3.05,8.97-5.67-3.88-15.48-18.03-10.87-19.69-.29Z"/>
      <path class="cls-18" d="m214.66,351.9s14.02,15.99,35.35,15.5c21.6-.5,35.35-15.5,35.35-15.5-13.25,7.76-18.38,10.88-36.07,11.04-18.83.18-34.62-11.04-34.62-11.04Z"/>
      <path class="cls-34" d="m326.38,105c-3.66-2.15-7.77,2.34-11.68,1.77-.79-.12,10.6-8.22-7.51-17.27l2.17,11.83c-19.84-14.6-22.6-26.35-64.43-19.18-17.5,3-56.92,14.62-68.7,26.98-16.31,17.11.2,2.57-14.66,3.12,10.06,3.62-9.41,18.41-2.54,16.37-7.98,5.07-15.37,6.6-18.37,25.42-1.65,10.36,2.98,20.78,5.43,30.58.78,3.11,1.69,6.19,2.7,9.24,1.13,3.43.74,6.21.49,9.74-.32,4.42.55,16.57.55,16.57,0,0,9.04,8.37,9.41,20.51.06,2.05.32,8.1.32,11.98.86-4.53,1.71-9.06,2.56-13.59,1.59-8.56.67-18.51,4.2-26.45,3.28-7.36,6.26-14.89,9.93-22.07.94-1.83,1.69-3.77,2.01-5.8,1.08-6.76-6.74-13.06-7.08-19.87-.4-8.1-5.75-18.39,1.87-22.28,7.47-3.82,25.68-1.33,33.95-.14,9.5,1.37,19.25,3.42,28.51-.31-1.62,3.11-2.63,6.51-2.96,10,7.45-12.42,23.09-12.16,35.94-12.51,10.59-.29,33.53-.52,41.36-9.78,7.67,8.67,8.94,19.3,10.2,30.25,1.3,11.37-1.42,15.86,4.06,26,2.39,4.42,2.84,16.92,3.85,21.83,1.12,5.41,2.17,10.83,3.16,16.26.99,5.41,2.45,23.56,3.28,28.99.7-5.81.93-26.66,5.03-31.34.75-.85,3.56-2.14,3.56-2.14,0,0,1-11.96,1-13.94-.02-5.79-.32-7.23.83-12.86,3.37-16.39,8.7-41.68,6.36-54.76-1.95-10.86-9.74-24.27-24.8-33.13Z"/>
      <path class="cls-15" d="m334.35,157.12c7.1-22.12-19.74-29.38-25.04-34.87-21.51,33.11-83.86,15.45-101.22,12.29-24.81-4.52-45.26,4.57-48.53,13.24-3.93,10.4,12.02,19.37,10.59,32.89-1.43,13.52-15.58,19.37-11.26,54.11.69,6.18.69,14.91.69,17.88.86-4.53,1.71-9.06,2.56-13.59,1.59-8.56.67-18.51,4.2-26.45,3.04-6.84,11.48-24.8,11.94-27.87,1-6.67-6.06-35.6,1.55-39.48,7.47-3.82,18.8-1.97,27.06-.77,9.5,1.37,19.38,1.39,28.64-2.34-1.62,3.11-2.63,6.51-2.96,10,7.45-10.48,23.24-6.35,36.09-6.7,10.59-.29,30.1-3.33,37.94-12.59,7.67,8.67,12.22,16.3,13.48,27.25,1.3,11.37-5.48,18.01,0,28.15,2.39,4.42,6.9,14.78,7.92,19.68,1.12,5.41,2.17,10.83,3.16,16.26.99,5.41,2.35,15.81,3.28,28.99,8.07-80.54-10.22-64.45-.06-96.06Z"/>
      <path class="cls-35" d="m265.27,101.35c-10.53,4.68-17.89,14.24-27.05,20.92-19.36,14.11-38.94,4.84-58.4-3.82,15.32,19.54,38.87,34.57,63.22,20.55,10.75-6.19,17.17-16.14,25.8-24.6,7.71-7.56,18.05-10.95,28.71-10.94-9.38-6.49-22.07-6.65-32.28-2.11Z"/>
      <path class="cls-37" d="m283.24,138c-9.35,3.67-22.37-1.18-31.78-2.98-10.24-1.95-16.11-3.05-25.56,2.03-21.24,11.43-17.14,29.67-13.66,37.21,4.74-16.35,20.91-17.33,29.88-15.2,10.27,2.45,30.23,4.84,40.94,2.23,17.92-4.37,31.93-21.45,24.58-49.04,1.65,10-15.13,22.1-24.41,25.74Z"/>
      <path class="cls-17" d="m236.5,106.8c-13.35,32.57-56.68,11.65-56.68,11.65,50.15,31.86,77.57-12.66,85.45-17.1,17.39-9.78,32.28,2.11,32.28,2.11-22.87-22.89-51.92-18.95-61.05,3.33Z"/>
      <path class="cls-19" d="m318.06,101.89s6.05-10.74-16.69-17.54c0,0,9.83,7.76,5.71,23.25,0,0,38.99,0,43.14,56.16,0,0,6.3-25.59-2.52-41.5-4.68-8.45-16.88-19.13-29.65-20.36Z"/>
      <path class="cls-29" d="m145.01,180.44s-5.67-34.77,14.02-51.82c0,0-31.13,9.74-14.02,51.82Z"/>
      <path class="cls-28" d="m221.67,83.49c-18.52,13.28-43.97,6.51-58.56,15.79-32.29,20.54-7.09,40.58-19.44,48.5,23.03-3.29,6.17-19.16,32.56-35.38,11.08-6.81,24.75-.16,42.96-6.39,15.47-5.29,23.34-24.58,47.65-22.52,15.81,1.34,29.73,9.99,40.24,16.06-29.72-25.63-54.9-37.93-85.41-16.06Z"/>
      <path class="cls-50" d="m286.22,289.52s9.86-2.29,10.72-2.99c.87-.7,1.66-3.21,1.66-3.21l-6.26,1.9-6.12,4.3Z"/>
      <path class="cls-49" d="m197.04,283.95s.79,2.51,1.66,3.21c.87.7,10.72,2.99,10.72,2.99l-6.12-4.3-6.26-1.9Z"/>
      <path class="cls-52" d="m227.86,326.9c26.11-2.89,43.75.33,43.75.33-19.81-12.32-43.75-.33-43.75-.33Z"/>
      <path class="cls-56" d="m199.38,285.17c.53.55.92,1.31,1.61,1.61,12.54,5.55,12.71,10.85,18.09,13.75,19.06,10.27,41.27,7.77,56.23-.48,8.6-4.75,9.7-10.28,20-14.3,1.38-.54,1.64-1.61,1.64-1.61-55,13.45-97.57,1.02-97.57,1.02Z"/>
      <path class="cls-63" d="m248.66,311.36c-7.42,0-14.74-1.45-14.74,0s6.45,4.67,13.87,4.67c7.42,0,14.75-3.23,14.75-4.67s-6.46,0-13.88,0Z"/>
      <path class="cls-9" d="m270.07,296.62c-5.05,1.02-14.54,2.92-23.25,2.92-9.6,0-19.33-1.76-24.65-2.72-2.32-.42-3.32,3.63-3.32,3.63,6.99,5.1,15.4,7.03,28.84,7.13,17.95.12,27.85-7.64,27.85-7.64,0,0-2.53-3.91-5.48-3.31Z"/>
      <path class="cls-51" d="m221.26,313.24c28.64,22.78,56.05-1.56,56.05-1.56-28.95,15.4-56.05,1.56-56.05,1.56Z"/>
      <path class="cls-13" d="m211.82,287.8s.18,4.7,4.97,6.78c2.78,1.2,9,5.93,33.2,5.19,24.2-.73,28.98-6.58,30.08-7.6,2.05-1.9,2.99-5.11,2.99-5.11,0,0-36.45,7.13-71.25.75Z"/>
      <path class="cls-53" d="m211.74,287.36s.16,2.14.95,3.41c.66,1.06,20,3.88,34.6,3.97,14.6.09,33.65-3.67,34.33-4.51,1.06-1.31,1.63-3.63,1.63-3.63,0,0-16.43,5.52-71.5.78Z"/>
      <path class="cls-47" d="m196.39,283.68s3.52,2.04,2.98,1.49c0,0,42.57,12.43,97.57-1.02l2.98-1.5c-29.87,4.99-103.54,1.03-103.54,1.03Z"/>
      <path class="cls-59" d="m262.65,240.99c-.44,0-.79.35-.79.79s.35.79.79.79.79-.35.79-.79-.35-.79-.79-.79Z"/>
      <path class="cls-59" d="m231.46,240c-.56,0-1.02.46-1.02,1.02s.46,1.02,1.02,1.02,1.02-.46,1.02-1.02-.46-1.02-1.02-1.02Z"/>
      <path class="cls-59" d="m252.45,236.09c-.45,0-.81.36-.81.81s.36.81.81.81.81-.36.81-.81-.36-.81-.81-.81Z"/>
      <path class="cls-59" d="m243.02,237.02c-.66,0-1.2.54-1.2,1.2s.54,1.2,1.2,1.2,1.2-.54,1.2-1.2-.53-1.2-1.2-1.2Z"/>
      <circle class="cls-59" cx="253.26" cy="244.91" r="1.2"/>
      <circle class="cls-59" cx="240.24" cy="245.28" r="1.2"/>
      <path class="cls-59" d="m219.31,250.4c-.56,0-1.02.46-1.02,1.02s.46,1.02,1.02,1.02,1.02-.46,1.02-1.02-.46-1.02-1.02-1.02Z"/>
      <path class="cls-59" d="m270.13,253.62c-.56,0-1.02.46-1.02,1.02s.46,1.02,1.02,1.02,1.02-.46,1.02-1.02-.46-1.02-1.02-1.02Z"/>
      <path class="cls-59" d="m205.86,246.62c-.56,0-1.02.46-1.02,1.02s.46,1.02,1.02,1.02,1.02-.46,1.02-1.02-.46-1.02-1.02-1.02Z"/>
      <path class="cls-59" d="m287.27,246.62c-.56,0-1.02.46-1.02,1.02s.46,1.02,1.02,1.02,1.02-.46,1.02-1.02-.46-1.02-1.02-1.02Z"/>
      <path class="cls-59" d="m233.5,250.4c-.56,0-1.02.46-1.02,1.02s.46,1.02,1.02,1.02,1.02-.46,1.02-1.02-.46-1.02-1.02-1.02Z"/>
      <path class="cls-59" d="m274.18,245.6c-.56,0-1.02.46-1.02,1.02s.46,1.02,1.02,1.02,1.02-.46,1.02-1.02-.46-1.02-1.02-1.02Z"/>
      <path class="cls-23" d="m278.98,154.53c-29.12,4.9-38.05-6.79-56.02,0-14.8,5.6-10.73,19.73-10.73,19.73,0,0,5.04-16,20.23-14.13,15.19,1.87,29.68,5.44,48.69,1.56,19.01-3.89,31.66-18.61,28.13-39.44,0,0-1.2,27.39-30.32,32.28Z"/>
    </g>
  </g>
</svg>