<?xml version="1.0" encoding="UTF-8"?>
<svg id="Layer_2" data-name="Layer 2" xmlns="http://www.w3.org/2000/svg" xmlns:xlink="http://www.w3.org/1999/xlink" viewBox="0 0 493.51 499.74">
  <defs>
    <style>
      .cls-1 {
        fill: url(#linear-gradient);
      }

      .cls-1, .cls-2, .cls-3, .cls-4, .cls-5, .cls-6, .cls-7, .cls-8, .cls-9, .cls-10, .cls-11, .cls-12, .cls-13, .cls-14, .cls-15, .cls-16, .cls-17, .cls-18, .cls-19, .cls-20, .cls-21, .cls-22, .cls-23, .cls-24, .cls-25, .cls-26, .cls-27, .cls-28, .cls-29, .cls-30, .cls-31, .cls-32, .cls-33, .cls-34, .cls-35, .cls-36, .cls-37, .cls-38, .cls-39, .cls-40, .cls-41, .cls-42, .cls-43, .cls-44, .cls-45, .cls-46, .cls-47, .cls-48, .cls-49, .cls-50, .cls-51, .cls-52, .cls-53, .cls-54, .cls-55, .cls-56, .cls-57, .cls-58, .cls-59, .cls-60, .cls-61, .cls-62, .cls-63, .cls-64, .cls-65, .cls-66, .cls-67, .cls-68, .cls-69, .cls-70, .cls-71, .cls-72, .cls-73, .cls-74, .cls-75, .cls-76, .cls-77, .cls-78, .cls-79, .cls-80, .cls-81, .cls-82, .cls-83, .cls-84, .cls-85 {
        stroke-width: 0px;
      }

      .cls-2 {
        fill: url(#radial-gradient);
      }

      .cls-3 {
        fill: url(#linear-gradient-38);
      }

      .cls-4 {
        fill: url(#linear-gradient-33);
      }

      .cls-5 {
        fill: url(#linear-gradient-29);
      }

      .cls-6 {
        fill: url(#linear-gradient-32);
      }

      .cls-7 {
        fill: url(#linear-gradient-30);
      }

      .cls-8 {
        fill: url(#linear-gradient-31);
      }

      .cls-9 {
        fill: url(#linear-gradient-36);
      }

      .cls-10 {
        fill: url(#linear-gradient-39);
      }

      .cls-11 {
        fill: url(#linear-gradient-34);
      }

      .cls-12 {
        fill: url(#linear-gradient-37);
      }

      .cls-13 {
        fill: url(#linear-gradient-35);
      }

      .cls-14 {
        fill: url(#linear-gradient-28);
      }

      .cls-15 {
        fill: url(#linear-gradient-25);
      }

      .cls-16 {
        fill: url(#linear-gradient-11);
      }

      .cls-17 {
        fill: url(#linear-gradient-12);
      }

      .cls-18 {
        fill: url(#linear-gradient-13);
      }

      .cls-19 {
        fill: url(#linear-gradient-10);
      }

      .cls-20 {
        fill: url(#linear-gradient-17);
      }

      .cls-21 {
        fill: url(#linear-gradient-16);
      }

      .cls-22 {
        fill: url(#linear-gradient-19);
      }

      .cls-23 {
        fill: url(#linear-gradient-15);
      }

      .cls-24 {
        fill: url(#linear-gradient-23);
      }

      .cls-25 {
        fill: url(#linear-gradient-21);
      }

      .cls-26 {
        fill: url(#linear-gradient-18);
      }

      .cls-27 {
        fill: url(#linear-gradient-14);
      }

      .cls-28 {
        fill: url(#linear-gradient-22);
      }

      .cls-29 {
        fill: url(#linear-gradient-20);
      }

      .cls-30 {
        fill: url(#linear-gradient-27);
      }

      .cls-31 {
        fill: url(#linear-gradient-24);
      }

      .cls-32 {
        fill: url(#linear-gradient-26);
      }

      .cls-33 {
        fill: url(#linear-gradient-40);
      }

      .cls-34 {
        fill: url(#_ÂÁ_Ï_ÌÌ_È_ËÂÌÚ_169);
      }

      .cls-35 {
        fill: url(#_ÂÁ_Ï_ÌÌ_È_ËÂÌÚ_158);
      }

      .cls-36 {
        fill: url(#_ÂÁ_Ï_ÌÌ_È_ËÂÌÚ_160);
      }

      .cls-37 {
        fill: url(#_ÂÁ_Ï_ÌÌ_È_ËÂÌÚ_106);
      }

      .cls-38 {
        fill: url(#_ÂÁ_Ï_ÌÌ_È_ËÂÌÚ_62-2);
      }

      .cls-39 {
        fill: url(#_ÂÁ_Ï_ÌÌ_È_ËÂÌÚ_62-3);
      }

      .cls-40 {
        fill: url(#_ÂÁ_Ï_ÌÌ_È_ËÂÌÚ_39-2);
      }

      .cls-41 {
        fill: url(#_ÂÁ_Ï_ÌÌ_È_ËÂÌÚ_39-3);
      }

      .cls-42 {
        fill: url(#_ÂÁ_Ï_ÌÌ_È_ËÂÌÚ_2134);
      }

      .cls-43 {
        fill: url(#_ÂÁ_Ï_ÌÌ_È_ËÂÌÚ_57-2);
      }

      .cls-44 {
        fill: url(#_ÂÁ_Ï_ÌÌ_È_ËÂÌÚ_30-2);
      }

      .cls-45 {
        fill: url(#_ÂÁ_Ï_ÌÌ_È_ËÂÌÚ_1061);
      }

      .cls-46 {
        fill: url(#_ÂÁ_Ï_ÌÌ_È_ËÂÌÚ_1064);
      }

      .cls-47 {
        fill: url(#_ÂÁ_Ï_ÌÌ_È_ËÂÌÚ_1063);
      }

      .cls-48 {
        fill: url(#_ÂÁ_Ï_ÌÌ_È_ËÂÌÚ_1060);
      }

      .cls-49 {
        fill: url(#_ÂÁ_Ï_ÌÌ_È_ËÂÌÚ_1062);
      }

      .cls-50 {
        fill: url(#_ÂÁ_Ï_ÌÌ_È_ËÂÌÚ_1104);
      }

      .cls-51 {
        fill: url(#_ÂÁ_Ï_ÌÌ_È_ËÂÌÚ_160-3);
      }

      .cls-52 {
        fill: url(#_ÂÁ_Ï_ÌÌ_È_ËÂÌÚ_160-2);
      }

      .cls-53 {
        fill: url(#_ÂÁ_Ï_ÌÌ_È_ËÂÌÚ_158-2);
      }

      .cls-54 {
        fill: url(#_ÂÁ_Ï_ÌÌ_È_ËÂÌÚ_169-2);
      }

      .cls-55 {
        fill: url(#_ÂÁ_Ï_ÌÌ_È_ËÂÌÚ_169-3);
      }

      .cls-56 {
        fill: url(#radial-gradient-2);
      }

      .cls-57 {
        fill: url(#linear-gradient-4);
      }

      .cls-58 {
        fill: url(#linear-gradient-2);
      }

      .cls-59 {
        fill: url(#linear-gradient-3);
      }

      .cls-60 {
        fill: url(#linear-gradient-8);
      }

      .cls-61 {
        fill: url(#linear-gradient-9);
      }

      .cls-62 {
        fill: url(#linear-gradient-7);
      }

      .cls-63 {
        fill: url(#linear-gradient-5);
      }

      .cls-64 {
        fill: url(#linear-gradient-6);
      }

      .cls-65 {
        fill: url(#_ÂÁ_Ï_ÌÌ_È_ËÂÌÚ_1104-2);
      }

      .cls-66 {
        fill: #f87e6d;
      }

      .cls-67 {
        fill: #f6ece6;
      }

      .cls-68 {
        fill: #f7d4ab;
      }

      .cls-69 {
        fill: #558ac5;
      }

      .cls-70 {
        fill: #961b27;
      }

      .cls-71 {
        fill: #6da1d8;
      }

      .cls-72 {
        fill: #383e44;
      }

      .cls-73 {
        fill: #ddd;
      }

      .cls-74 {
        fill: #dba379;
      }

      .cls-75 {
        fill: #fdfdfd;
      }

      .cls-76 {
        fill: #f1f0f5;
      }

      .cls-77 {
        fill: #fff;
      }

      .cls-78 {
        fill: #f0c499;
      }

      .cls-79 {
        fill: #ffa79a;
      }

      .cls-80 {
        fill: url(#_ÂÁ_Ï_ÌÌ_È_ËÂÌÚ_39);
      }

      .cls-81 {
        fill: url(#_ÂÁ_Ï_ÌÌ_È_ËÂÌÚ_57);
      }

      .cls-82 {
        fill: url(#_ÂÁ_Ï_ÌÌ_È_ËÂÌÚ_37);
      }

      .cls-83 {
        fill: url(#_ÂÁ_Ï_ÌÌ_È_ËÂÌÚ_52);
      }

      .cls-84 {
        fill: url(#_ÂÁ_Ï_ÌÌ_È_ËÂÌÚ_62);
      }

      .cls-85 {
        fill: url(#_ÂÁ_Ï_ÌÌ_È_ËÂÌÚ_30);
      }
    </style>
    <linearGradient id="_ÂÁ_Ï_ÌÌ_È_ËÂÌÚ_62" data-name="¡ÂÁ˚ÏˇÌÌ˚È „‡‰ËÂÌÚ 62" x1="336.68" y1="328.14" x2="290.16" y2="236.79" gradientUnits="userSpaceOnUse">
      <stop offset="0" stop-color="#f8f9fa"/>
      <stop offset=".04" stop-color="#f5f6f7"/>
      <stop offset=".37" stop-color="#dfe0e1"/>
      <stop offset=".69" stop-color="#d3d4d5"/>
      <stop offset="1" stop-color="#cfd0d1"/>
    </linearGradient>
    <linearGradient id="_ÂÁ_Ï_ÌÌ_È_ËÂÌÚ_39" data-name="¡ÂÁ˚ÏˇÌÌ˚È „‡‰ËÂÌÚ 39" x1="344.47" y1="305.48" x2="262.2" y2="222.45" gradientUnits="userSpaceOnUse">
      <stop offset="0" stop-color="#f8f9fa"/>
      <stop offset="1" stop-color="#e6e7e8"/>
    </linearGradient>
    <linearGradient id="_ÂÁ_Ï_ÌÌ_È_ËÂÌÚ_169" data-name="¡ÂÁ˚ÏˇÌÌ˚È „‡‰ËÂÌÚ 169" x1="225.35" y1="697.02" x2="246.07" y2="269.76" gradientUnits="userSpaceOnUse">
      <stop offset="0" stop-color="#6da1d8"/>
      <stop offset=".3" stop-color="#70a3d9"/>
      <stop offset=".55" stop-color="#7aabde"/>
      <stop offset=".78" stop-color="#8bb8e7"/>
      <stop offset="1" stop-color="#a4caf3"/>
    </linearGradient>
    <linearGradient id="linear-gradient" x1="164.75" y1="350.84" x2="172.13" y2="435.57" gradientUnits="userSpaceOnUse">
      <stop offset="0" stop-color="#f0c999"/>
      <stop offset=".52" stop-color="#f1cb9b"/>
      <stop offset=".85" stop-color="#f4d3a4"/>
      <stop offset="1" stop-color="#f7d9ab"/>
    </linearGradient>
    <linearGradient id="linear-gradient-2" x1="301.72" y1="371.37" x2="227.93" y2="382.25" gradientUnits="userSpaceOnUse">
      <stop offset="0" stop-color="#f0c499"/>
      <stop offset=".52" stop-color="#f1c69b"/>
      <stop offset=".85" stop-color="#f4cea4"/>
      <stop offset="1" stop-color="#f7d4ab"/>
    </linearGradient>
    <linearGradient id="linear-gradient-3" x1="161.06" y1="308.16" x2="289.86" y2="347.33" xlink:href="#linear-gradient-2"/>
    <linearGradient id="linear-gradient-4" x1="89.33" y1="305.59" x2="263.51" y2="411.41" xlink:href="#linear-gradient-2"/>
    <linearGradient id="linear-gradient-5" x1="413.17" y1="331.74" x2="239.77" y2="380.45" xlink:href="#linear-gradient-2"/>
    <linearGradient id="linear-gradient-6" x1="179.5" y1="397.48" x2="406.8" y2="335.54" xlink:href="#linear-gradient-2"/>
    <linearGradient id="_ÂÁ_Ï_ÌÌ_È_ËÂÌÚ_52" data-name="¡ÂÁ˚ÏˇÌÌ˚È „‡‰ËÂÌÚ 52" x1="255.12" y1="531.17" x2="247.83" y2="437.81" gradientUnits="userSpaceOnUse">
      <stop offset="0" stop-color="#fff"/>
      <stop offset=".36" stop-color="#f8f8fa"/>
      <stop offset="1" stop-color="#f1f0f5"/>
    </linearGradient>
    <linearGradient id="linear-gradient-7" x1="320.4" y1="350.99" x2="325.13" y2="405.34" xlink:href="#linear-gradient"/>
    <linearGradient id="_ÂÁ_Ï_ÌÌ_È_ËÂÌÚ_57" data-name="¡ÂÁ˚ÏˇÌÌ˚È „‡‰ËÂÌÚ 57" x1="151.27" y1="296.84" x2="162.5" y2="557.2" gradientUnits="userSpaceOnUse">
      <stop offset="0" stop-color="#f1f0f5"/>
      <stop offset=".5" stop-color="#e5e5e9"/>
      <stop offset="1" stop-color="#e1e1e5"/>
    </linearGradient>
    <linearGradient id="_ÂÁ_Ï_ÌÌ_È_ËÂÌÚ_57-2" data-name="¡ÂÁ˚ÏˇÌÌ˚È „‡‰ËÂÌÚ 57" x1="313.66" y1="288.98" x2="325.51" y2="563.8" xlink:href="#_ÂÁ_Ï_ÌÌ_È_ËÂÌÚ_57"/>
    <linearGradient id="linear-gradient-8" x1="237.66" y1="304.21" x2="248.03" y2="348.14" gradientUnits="userSpaceOnUse">
      <stop offset="0" stop-color="#dba379"/>
      <stop offset=".49" stop-color="#e3b086"/>
      <stop offset="1" stop-color="#f0c499"/>
    </linearGradient>
    <linearGradient id="linear-gradient-9" x1="328.81" y1="347.87" x2="327.74" y2="441.96" gradientUnits="userSpaceOnUse">
      <stop offset="0" stop-color="#f1f0f5"/>
      <stop offset="1" stop-color="#e1e1e5"/>
    </linearGradient>
    <linearGradient id="linear-gradient-10" x1="302.18" y1="314.9" x2="185.58" y2="397.91" xlink:href="#linear-gradient-9"/>
    <linearGradient id="_ÂÁ_Ï_ÌÌ_È_ËÂÌÚ_39-2" data-name="¡ÂÁ˚ÏˇÌÌ˚È „‡‰ËÂÌÚ 39" x1="283.22" y1="91.61" x2="307.59" y2="448.32" xlink:href="#_ÂÁ_Ï_ÌÌ_È_ËÂÌÚ_39"/>
    <linearGradient id="linear-gradient-11" x1="332.36" y1="239.1" x2="345.4" y2="239.1" gradientUnits="userSpaceOnUse">
      <stop offset="0" stop-color="#dba379"/>
      <stop offset=".22" stop-color="#e1ad83"/>
      <stop offset=".66" stop-color="#ecbe93"/>
      <stop offset="1" stop-color="#f0c499"/>
    </linearGradient>
    <linearGradient id="linear-gradient-12" x1="284.63" y1="248.32" x2="284.88" y2="188.03" gradientUnits="userSpaceOnUse">
      <stop offset="0" stop-color="#f7d4ab"/>
      <stop offset=".52" stop-color="#f5d1a8"/>
      <stop offset=".85" stop-color="#f2c99f"/>
      <stop offset="1" stop-color="#f0c499"/>
    </linearGradient>
    <radialGradient id="radial-gradient" cx="294.42" cy="256.98" fx="294.42" fy="256.98" r="32.43" gradientUnits="userSpaceOnUse">
      <stop offset="0" stop-color="#f8c39c"/>
      <stop offset="1" stop-color="#f7d4ab"/>
    </radialGradient>
    <linearGradient id="linear-gradient-13" x1="197.29" y1="243.28" x2="207.59" y2="192.03" xlink:href="#linear-gradient-12"/>
    <radialGradient id="radial-gradient-2" cx="191.72" cy="259.25" fx="191.72" fy="259.25" r="33.23" xlink:href="#radial-gradient"/>
    <linearGradient id="linear-gradient-14" x1="319.62" y1="239.6" x2="298.47" y2="245.08" gradientUnits="userSpaceOnUse">
      <stop offset="0" stop-color="#ffd9b3"/>
      <stop offset="1" stop-color="#f7d4ab"/>
    </linearGradient>
    <linearGradient id="linear-gradient-15" x1="169.12" y1="239.45" x2="191.02" y2="247.17" xlink:href="#linear-gradient-14"/>
    <linearGradient id="linear-gradient-16" x1="207.87" y1="310.69" x2="261.71" y2="310.69" gradientUnits="userSpaceOnUse">
      <stop offset="0" stop-color="#ffd9b3"/>
      <stop offset=".68" stop-color="#fcd7b0"/>
      <stop offset="1" stop-color="#f7d4ab"/>
    </linearGradient>
    <linearGradient id="_ÂÁ_Ï_ÌÌ_È_ËÂÌÚ_39-3" data-name="¡ÂÁ˚ÏˇÌÌ˚È „‡‰ËÂÌÚ 39" x1="226.01" y1="69.38" x2="102.29" y2="448.38" xlink:href="#_ÂÁ_Ï_ÌÌ_È_ËÂÌÚ_39"/>
    <linearGradient id="_ÂÁ_Ï_ÌÌ_È_ËÂÌÚ_62-2" data-name="¡ÂÁ˚ÏˇÌÌ˚È „‡‰ËÂÌÚ 62" x1="258" y1="76.79" x2="359.07" y2="268.74" xlink:href="#_ÂÁ_Ï_ÌÌ_È_ËÂÌÚ_62"/>
    <linearGradient id="_ÂÁ_Ï_ÌÌ_È_ËÂÌÚ_62-3" data-name="¡ÂÁ˚ÏˇÌÌ˚È „‡‰ËÂÌÚ 62" x1="261.92" y1="117.87" x2="-60.85" y2="358.57" xlink:href="#_ÂÁ_Ï_ÌÌ_È_ËÂÌÚ_62"/>
    <linearGradient id="linear-gradient-17" x1="153.86" y1="464.5" x2="155.94" y2="537.25" xlink:href="#linear-gradient-8"/>
    <linearGradient id="_ÂÁ_Ï_ÌÌ_È_ËÂÌÚ_30" data-name="¡ÂÁ˚ÏˇÌÌ˚È „‡‰ËÂÌÚ 30" x1="156.98" y1="212.63" x2="148.95" y2="125.86" gradientUnits="userSpaceOnUse">
      <stop offset="0" stop-color="#cfd0d1"/>
      <stop offset=".31" stop-color="#d3d4d5"/>
      <stop offset=".63" stop-color="#dfe0e1"/>
      <stop offset=".96" stop-color="#f5f6f7"/>
      <stop offset="1" stop-color="#f8f9fa"/>
    </linearGradient>
    <linearGradient id="linear-gradient-18" x1="345.46" y1="460.96" x2="347.51" y2="532.58" xlink:href="#linear-gradient-8"/>
    <linearGradient id="_ÂÁ_Ï_ÌÌ_È_ËÂÌÚ_37" data-name="¡ÂÁ˚ÏˇÌÌ˚È „‡‰ËÂÌÚ 37" x1="263.73" y1="192.61" x2="317.04" y2="192.61" gradientUnits="userSpaceOnUse">
      <stop offset="0" stop-color="#f8f9fa"/>
      <stop offset=".62" stop-color="#eeeff0"/>
      <stop offset="1" stop-color="#e6e7e8"/>
    </linearGradient>
    <linearGradient id="_ÂÁ_Ï_ÌÌ_È_ËÂÌÚ_1062" data-name="¡ÂÁ˚ÏˇÌÌ˚È „‡‰ËÂÌÚ 1062" x1="170.11" y1="192.36" x2="222.15" y2="192.36" gradientUnits="userSpaceOnUse">
      <stop offset="0" stop-color="#e6e7e8"/>
      <stop offset=".38" stop-color="#eeeff0"/>
      <stop offset="1" stop-color="#f8f9fa"/>
    </linearGradient>
    <linearGradient id="linear-gradient-19" x1="283.48" y1="306.02" x2="283.8" y2="263" xlink:href="#linear-gradient-2"/>
    <linearGradient id="linear-gradient-20" x1="201.2" y1="300.16" x2="201.49" y2="262.7" xlink:href="#linear-gradient-2"/>
    <linearGradient id="linear-gradient-21" x1="155.46" y1="243.21" x2="206.71" y2="326.78" xlink:href="#linear-gradient-2"/>
    <linearGradient id="_ÂÁ_Ï_ÌÌ_È_ËÂÌÚ_30-2" data-name="¡ÂÁ˚ÏˇÌÌ˚È „‡‰ËÂÌÚ 30" x1="277.69" y1="-336.08" x2="268.01" y2="-440.83" xlink:href="#_ÂÁ_Ï_ÌÌ_È_ËÂÌÚ_30"/>
    <linearGradient id="linear-gradient-22" x1="252.48" y1="205.46" x2="250.88" y2="175.53" xlink:href="#linear-gradient-2"/>
    <linearGradient id="linear-gradient-23" x1="236.45" y1="211.58" x2="234.49" y2="175.23" xlink:href="#linear-gradient-2"/>
    <linearGradient id="linear-gradient-24" x1="280.12" y1="273.99" x2="332.73" y2="273.99" xlink:href="#linear-gradient-16"/>
    <linearGradient id="_ÂÁ_Ï_ÌÌ_È_ËÂÌÚ_1104" data-name="¡ÂÁ˚ÏˇÌÌ˚È „‡‰ËÂÌÚ 1104" x1="260.78" y1="254.42" x2="272.82" y2="266.68" gradientUnits="userSpaceOnUse">
      <stop offset="0" stop-color="#f0c499"/>
      <stop offset=".52" stop-color="#f1c69b"/>
      <stop offset=".85" stop-color="#f4cea4"/>
      <stop offset="1" stop-color="#f7d4ab"/>
    </linearGradient>
    <linearGradient id="_ÂÁ_Ï_ÌÌ_È_ËÂÌÚ_1104-2" data-name="¡ÂÁ˚ÏˇÌÌ˚È „‡‰ËÂÌÚ 1104" x1="224.1" y1="255.58" x2="213.43" y2="269.33" xlink:href="#_ÂÁ_Ï_ÌÌ_È_ËÂÌÚ_1104"/>
    <linearGradient id="_ÂÁ_Ï_ÌÌ_È_ËÂÌÚ_1060" data-name="¡ÂÁ˚ÏˇÌÌ˚È „‡‰ËÂÌÚ 1060" x1="172.7" y1="219.71" x2="226.36" y2="219.71" gradientUnits="userSpaceOnUse">
      <stop offset="0" stop-color="#dba379"/>
      <stop offset=".49" stop-color="#e3b086"/>
      <stop offset="1" stop-color="#f0c499"/>
    </linearGradient>
    <linearGradient id="linear-gradient-25" x1="208.39" y1="222.69" x2="222.22" y2="222.69" gradientUnits="userSpaceOnUse">
      <stop offset="0" stop-color="#fff"/>
      <stop offset=".47" stop-color="#fcfcfc"/>
      <stop offset=".77" stop-color="#f5f3f3"/>
      <stop offset="1" stop-color="#ece7e7"/>
    </linearGradient>
    <linearGradient id="linear-gradient-26" x1="182.86" y1="222.39" x2="194.15" y2="222.39" xlink:href="#linear-gradient-25"/>
    <linearGradient id="_ÂÁ_Ï_ÌÌ_È_ËÂÌÚ_1063" data-name="¡ÂÁ˚ÏˇÌÌ˚È „‡‰ËÂÌÚ 1063" x1="217.67" y1="236.94" x2="181.99" y2="214.64" gradientUnits="userSpaceOnUse">
      <stop offset="0" stop-color="#ddddda"/>
      <stop offset="1" stop-color="#a4a59d"/>
    </linearGradient>
    <linearGradient id="linear-gradient-27" x1="248.16" y1="223.37" x2="202.5" y2="217.95" gradientUnits="userSpaceOnUse">
      <stop offset="0" stop-color="#c5c6c0"/>
      <stop offset="1" stop-color="#94958d"/>
    </linearGradient>
    <linearGradient id="_ÂÁ_Ï_ÌÌ_È_ËÂÌÚ_1064" data-name="¡ÂÁ˚ÏˇÌÌ˚È „‡‰ËÂÌÚ 1064" x1="175.8" y1="220.98" x2="222.52" y2="220.98" gradientUnits="userSpaceOnUse">
      <stop offset="0" stop-color="#545454"/>
      <stop offset=".31" stop-color="#656565"/>
      <stop offset=".66" stop-color="#717171"/>
      <stop offset="1" stop-color="#767676"/>
    </linearGradient>
    <linearGradient id="_ÂÁ_Ï_ÌÌ_È_ËÂÌÚ_1061" data-name="¡ÂÁ˚ÏˇÌÌ˚È „‡‰ËÂÌÚ 1061" x1="260.74" y1="219.76" x2="314.64" y2="219.76" gradientUnits="userSpaceOnUse">
      <stop offset="0" stop-color="#f0c499"/>
      <stop offset=".51" stop-color="#e3b086"/>
      <stop offset="1" stop-color="#dba379"/>
    </linearGradient>
    <linearGradient id="linear-gradient-28" x1="264.28" x2="278.1" xlink:href="#linear-gradient-25"/>
    <linearGradient id="linear-gradient-29" x1="295.62" y1="222.39" x2="306.9" y2="222.39" xlink:href="#linear-gradient-25"/>
    <linearGradient id="linear-gradient-30" x1="303.44" y1="235.59" x2="269" y2="214.07" gradientUnits="userSpaceOnUse">
      <stop offset="0" stop-color="#ddddda"/>
      <stop offset="1" stop-color="#a4a59d"/>
    </linearGradient>
    <linearGradient id="linear-gradient-31" x1="333" y1="223.6" x2="287.62" y2="218.22" xlink:href="#linear-gradient-27"/>
    <linearGradient id="linear-gradient-32" x1="264.58" y1="220.98" x2="311.31" y2="220.98" gradientUnits="userSpaceOnUse">
      <stop offset="0" stop-color="#767676"/>
      <stop offset=".34" stop-color="#717171"/>
      <stop offset=".69" stop-color="#656565"/>
      <stop offset="1" stop-color="#545454"/>
    </linearGradient>
    <linearGradient id="linear-gradient-33" x1="245.89" y1="280.43" x2="242.85" y2="265.24" xlink:href="#linear-gradient-12"/>
    <linearGradient id="linear-gradient-34" x1="243.53" y1="264.22" x2="243.45" y2="276" xlink:href="#linear-gradient-8"/>
    <linearGradient id="_ÂÁ_Ï_ÌÌ_È_ËÂÌÚ_106" data-name="¡ÂÁ˚ÏˇÌÌ˚È „‡‰ËÂÌÚ 106" x1="242.77" y1="248.24" x2="242.94" y2="260.29" gradientUnits="userSpaceOnUse">
      <stop offset="0" stop-color="#f7d4ab"/>
      <stop offset="1" stop-color="#ffd9b3"/>
    </linearGradient>
    <linearGradient id="linear-gradient-35" x1="242.96" y1="284.69" x2="242.69" y2="272.22" xlink:href="#linear-gradient-14"/>
    <linearGradient id="linear-gradient-36" x1="237.72" y1="289.79" x2="201.68" y2="279.05" xlink:href="#linear-gradient-12"/>
    <linearGradient id="linear-gradient-37" x1="211.79" y1="290.97" x2="274.15" y2="290.97" xlink:href="#linear-gradient-2"/>
    <linearGradient id="linear-gradient-38" x1="299.94" y1="287.94" x2="270.23" y2="279.09" xlink:href="#linear-gradient-12"/>
    <linearGradient id="linear-gradient-39" x1="241.36" y1="298" x2="242.49" y2="288.1" gradientUnits="userSpaceOnUse">
      <stop offset="0" stop-color="#f97d6e"/>
      <stop offset=".05" stop-color="#fa8071"/>
      <stop offset=".25" stop-color="#fd897a"/>
      <stop offset=".53" stop-color="#ff8d7d"/>
      <stop offset=".76" stop-color="#fd8979"/>
      <stop offset=".98" stop-color="#f87d6e"/>
      <stop offset="1" stop-color="#f87c6d"/>
    </linearGradient>
    <linearGradient id="linear-gradient-40" x1="244.98" y1="338.11" x2="246.11" y2="359.35" xlink:href="#linear-gradient-8"/>
    <linearGradient id="_ÂÁ_Ï_ÌÌ_È_ËÂÌÚ_160" data-name="¡ÂÁ˚ÏˇÌÌ˚È „‡‰ËÂÌÚ 160" x1="103.89" y1="435.4" x2="105.17" y2="459.02" gradientUnits="userSpaceOnUse">
      <stop offset="0" stop-color="#6da1d8"/>
      <stop offset="1" stop-color="#5186c2"/>
    </linearGradient>
    <linearGradient id="_ÂÁ_Ï_ÌÌ_È_ËÂÌÚ_160-2" data-name="¡ÂÁ˚ÏˇÌÌ˚È „‡‰ËÂÌÚ 160" x1="371.25" y1="433.57" x2="373.28" y2="470.8" xlink:href="#_ÂÁ_Ï_ÌÌ_È_ËÂÌÚ_160"/>
    <linearGradient id="_ÂÁ_Ï_ÌÌ_È_ËÂÌÚ_2134" data-name="¡ÂÁ˚ÏˇÌÌ˚È „‡‰ËÂÌÚ 2134" x1="354.29" y1="480.26" x2="361.09" y2="367.76" gradientUnits="userSpaceOnUse">
      <stop offset="0" stop-color="#5186c2"/>
      <stop offset="1" stop-color="#6da1d8"/>
    </linearGradient>
    <linearGradient id="_ÂÁ_Ï_ÌÌ_È_ËÂÌÚ_169-2" data-name="¡ÂÁ˚ÏˇÌÌ˚È „‡‰ËÂÌÚ 169" x1="318.44" y1="483.61" x2="326.92" y2="308.77" xlink:href="#_ÂÁ_Ï_ÌÌ_È_ËÂÌÚ_169"/>
    <linearGradient id="_ÂÁ_Ï_ÌÌ_È_ËÂÌÚ_160-3" data-name="¡ÂÁ˚ÏˇÌÌ˚È „‡‰ËÂÌÚ 160" x1="121.06" y1="372.94" x2="131.64" y2="493.79" xlink:href="#_ÂÁ_Ï_ÌÌ_È_ËÂÌÚ_160"/>
    <linearGradient id="_ÂÁ_Ï_ÌÌ_È_ËÂÌÚ_169-3" data-name="¡ÂÁ˚ÏˇÌÌ˚È „‡‰ËÂÌÚ 169" x1="153.96" y1="481.88" x2="162.33" y2="309.44" xlink:href="#_ÂÁ_Ï_ÌÌ_È_ËÂÌÚ_169"/>
    <linearGradient id="_ÂÁ_Ï_ÌÌ_È_ËÂÌÚ_158" data-name="¡ÂÁ˚ÏˇÌÌ˚È „‡‰ËÂÌÚ 158" x1="87.89" y1="342.34" x2="92.17" y2="414.6" gradientUnits="userSpaceOnUse">
      <stop offset="0" stop-color="#a4caf3"/>
      <stop offset=".22" stop-color="#8bb8e7"/>
      <stop offset=".45" stop-color="#7aabde"/>
      <stop offset=".7" stop-color="#70a3d9"/>
      <stop offset="1" stop-color="#6da1d8"/>
    </linearGradient>
    <linearGradient id="_ÂÁ_Ï_ÌÌ_È_ËÂÌÚ_158-2" data-name="¡ÂÁ˚ÏˇÌÌ˚È „‡‰ËÂÌÚ 158" x1="390.25" y1="341.6" x2="395.23" y2="425.53" xlink:href="#_ÂÁ_Ï_ÌÌ_È_ËÂÌÚ_158"/>
  </defs>
  <g id="Layer_1-2" data-name="Layer 1">
    <g>
      <ellipse class="cls-67" cx="246.76" cy="249.87" rx="246.76" ry="249.87"/>
      <g>
        <path class="cls-76" d="m338.67,361.39l-86.59,100.62-102.69-100.62-85.18,44.02s1.47,6.53,3.79,16.71c44.95,47.81,108.41,77.62,178.75,77.62,64.07,0,122.44-24.73,166.3-65.28,3.2-11.83,5.3-19.69,5.3-19.69l-79.68-53.38Z"/>
        <g>
          <path class="cls-84" d="m301.83,211.68c-9.86,23.95-32.19,47.79-45.8,88.46-13.69,40.93,66.03,51.29,91.31-19.55,35.26-98.77-35.65-92.87-45.52-68.92Z"/>
          <path class="cls-80" d="m339.83,199.02c-10.6-4.76-20.09,5.45-28.67,16.11-8.89,11.04,6.24,89.44,4.16,91.95-2.36,2.84-19.6-42.1-19.6-42.1,0,0,9.88,51.2-1.52,56.98-11.4,5.79-36.69-1.88-36.69-1.88,4.3,10.23,22.79,18.26,44.92,14.55,35.21-5.91,39.4-45.76,43.01-51.98,30.49-52.6,4.99-78.88-5.61-83.64Z"/>
          <path class="cls-75" d="m337.29,198.15s19.92,11.57,21.5,32.89c2.21,29.93-12.35,41.61-15.66,50.33-3.3,8.71-3.37,23.01-18.71,37.27-25.34,23.55-53.33,13.12-53.33,13.12,18.52,9.32,34.11,9.94,48.39.53,27.29-17.96,24.77-42.21,27.24-49.03,2.47-6.83,14.04-19.48,15.84-37.05,4.13-40.33-25.28-48.05-25.28-48.05Z"/>
          <path class="cls-75" d="m321.85,245.87c34.14,41.39,4.88,75.06,4.88,75.06,42.1-43.93-4.88-75.06-4.88-75.06Z"/>
          <path class="cls-75" d="m315.32,243.16s12.38,25.38,14.34,41.22c3.5,28.27-11.38,44.41-11.38,44.41,17.34-15.47,18.39-32.81,16.14-48.93-2.25-16.12-19.1-36.7-19.1-36.7Z"/>
        </g>
        <path class="cls-34" d="m248.04,318.91c-93.83,4.54-120.99,42.37-120.99,42.37l229.27-2.32s-45.77-43.08-108.28-40.05Z"/>
        <polygon class="cls-69" points="197.73 331.46 136.75 355.82 346.71 354.88 288.43 330.46 197.73 331.46"/>
        <path class="cls-68" d="m421.98,425.78c-7.96-10.75-18.36-17.14-28.29-27.92-7.05-7.65-94.03-46.77-105.21-54.76-8.82-6.3-8.82-77.71-8.82-77.71l-74.96,12.6s13.42,58.51-8.69,66.2c-15.77,5.49-105.18,40.08-120.76,55.19-5.23,5.07-9.22,11-12.3,17.19,20.59,23.27,45.43,42.6,73.28,56.75,60.24,4.18,141.73,8.65,204.35,7.71,30.74-12.81,58.37-31.71,81.4-55.24Z"/>
        <path class="cls-1" d="m158.79,383s4.17,6.69,7.24,10.73c0-29.94,7.24-45.58,7.24-45.58l-8.78,1.52-5.7,33.32Z"/>
        <path class="cls-58" d="m233.3,383.56c4.74-3.4,22.74-5.34,22.74-5.34-17.53-3.4-22.74,5.34-22.74,5.34Z"/>
        <path class="cls-59" d="m285.59,290.98s-86.95,4.55-88.3,3.09c.07,5.82.82,39.45.22,43.87-.69,5.06-1.1,5.68-60.76,17.87,0,0,21.52,6.65,61.14,7.01,6.89.06,12.47.06,13.26-9.68,0,0,30.76,10.4,60.79-7.3,1.66,9.36,3.26,14.96,8.21,18.01,4.95,3.05,49.3-1.52,49.3-1.52l6.04-6.88c-13.44-1.84-37.18-9.19-43.14-14.59-5.96-5.4-6.76-49.88-6.76-49.88Z"/>
        <path class="cls-57" d="m220.35,362.95c-6.16-1.46-74.3-3.63-82.28-5.11,0,0,30.32,6.31,47.85,8.25,17.53,1.94,31.27-.97,45.01,9.22,0,0-4.42-10.9-10.58-12.36Z"/>
        <path class="cls-63" d="m263.62,363.55c-7.58,2.43-11.84,10.79-11.84,10.79,14.69-8.68,87.17-11.55,87.17-11.55-10.43-.97-67.75-1.67-75.33.76Z"/>
        <path class="cls-64" d="m244.67,380.5c-68.94,3.82-66.01-33.55-66.01-33.55l-39.13,8s11.88,81.46,95.24,77.55c83.35-3.91,102.25-75.7,102.25-75.7l-32.31-9.58s9.63,29.42-60.05,33.28Z"/>
        <path class="cls-76" d="m373.23,370.95c-14.35-1.1-48.66-17.49-48.66-17.49,0,0-7.98,40.28-86.28,40.28s-73.79-44.05-73.79-44.05c0,0-48.75,27.13-75.89,36.68,2.12,16.85,2.06,38.36,1.38,56.47,24.24,20.22,52.36,35.84,83.06,45.56h147.42c22.7-7.19,43.99-17.61,63.34-30.72-1.54-29.47-5.2-86.31-10.58-86.72Z"/>
        <path class="cls-83" d="m280.18,448.49c-87.78-1.53-131.16,6.71-131.16,6.71-8.8,3.7-15.69,8.43-21,13.74,35.23,19.62,75.69,30.79,118.73,30.79,45.8,0,88.68-12.65,125.44-34.67-8.88-12.1-45.06-15.76-92.01-16.57Z"/>
        <path class="cls-62" d="m313.76,350.33s6,15.11,4.91,28.4c6.47-7.47,9.8-10.6,9.8-10.6l-3.9-14.66-10.81-3.13Z"/>
        <path class="cls-81" d="m174.37,373.31l-8.34-17.83s-20.69,52.43-23.66,70.34c-.68,4.09-1.84,22.68-3.24,48.94,10.49,5.16,21.4,9.58,32.66,13.21-1.41-45.11-1.89-95.49,2.57-114.67Z"/>
        <path class="cls-43" d="m308.38,373.31s3.29,14.1,2.63,53.27c-.35,20.38-1.81,41.65-2.73,65.33,9.53-2.48,18.83-5.52,27.87-9.08l-14.51-131.61-13.26,22.1Z"/>
        <path class="cls-71" d="m319,343.97c6.16,4.65,8.69,63.17,9.85,141.59,22.11-7.9,42.78-18.88,61.49-32.46-1.98-35.88-2.51-60.08-5.27-71.54,0,0-29.36-27.45-66.08-37.58Z"/>
        <path class="cls-60" d="m195.35,302.64c2.81,9.73,2.34,34.87,2.34,34.87,51.01,27.02,90.46-10.5,90.46-10.5l-1.69-18.64-91.11-5.73Z"/>
        <path class="cls-71" d="m80.93,390.22s-2.83,14.15-6.69,38.28c23.42,23.19,51.37,41.71,82.39,54.04.88-73.16,2.3-128.04,4.56-135.25-28.01,8.99-80.26,42.93-80.26,42.93Z"/>
        <path class="cls-61" d="m327.76,370.21s-2.76,7.41-7.53,13.36c0,0,1.65,32.3-.06,80.33-.26,7.31-.67,15.64-1.17,24.5h1.47c3.63-1.15,7.22-2.38,10.77-3.69l5.02-68.97-8.5-45.52Z"/>
        <path class="cls-19" d="m310.39,348.72s5.77,32.22-66.57,36.8c-76.48,4.85-70.55-37.36-70.55-37.36l-12.92,2.58s-1.94,49.14,83.31,44.35c79.35-4.45,77.97-43.89,77.97-43.89l-11.25-2.49Z"/>
        <g>
          <path class="cls-40" d="m282.89,83.96c-36.25-10.29-89.65,233.47,1.91,210.73,15.23-3.78,46.4-23.77,56.68-71.41,5.51-22.04,24.87-115.64-58.59-139.32Z"/>
          <path class="cls-16" d="m335.85,241.44c1.77,9.28-2.13,14.62-2.13,14.62,0,0,5.37-7.05,6.25-13.19,1.68-11.8-2.84-12.67-.82-15.58,1.63-2.38,3.91,4.54,3.91,4.54,2.36-15.62-11.37-12.27-7.2,9.62Z"/>
          <path class="cls-68" d="m260.73,111c-52.6-9.29-92.47,29.63-102.4,88.68-5.57,33.13-6.65,69.88,10.17,94.26,6.82,9.89,17.34,15.97,29.54,21.94,7.15,3.5,9.9,4.54,9.9,4.54,0,0,8,15.63,31.92,17.95,24.54,2.38,40.26-18.37,40.26-18.37,36.03-18.76,55.86-40.77,50.92-109.31-3.89-53.84-35.84-98.49-70.31-99.69Z"/>
          <path class="cls-17" d="m279.52,187.04c-24.01,3.27-26.99,27.73-28.1,54.68,49.6,19.9,61.39-15.08,61.39-15.08,0,0,7.97-15.59,4.22-26.11,0,0-8.69-17.42-37.52-13.49Z"/>
          <path class="cls-2" d="m276.88,231.92c-13.34-2.23-19.89,16.09-16.45,20.12,6.16,7.21,48.26,38.21,56.23,34.4,3.91-1.87,6.87-10.7,10.36-17.5,3.49-6.8,3.82-29.84-5.18-40.97-2.87-3.56-28.4,6.73-44.96,3.96Z"/>
          <path class="cls-18" d="m198.33,186.61c-12.44.01-22.15,5.2-27.16,11.54-5.82,7.36,3.28,28.49,3.28,28.49,0,0,10.3,33.71,59.44,13.95.71-19.27,2.63-54.02-35.57-53.98Z"/>
          <path class="cls-56" d="m210.57,232.15c-13.3-2.48-41.85-7.39-45.61-1.02-2.32,3.94-11.02,26.21-7.52,33.01,3.5,6.8,3.86,25.53,12.66,26.34,8.8.81,59.3-33.93,56.61-44.43-1.31-5.13-2.85-11.42-16.14-13.9Z"/>
          <path class="cls-27" d="m310.28,236.84c-4.7,1.24-7.97,4.42-7.34,7.12.64,2.69,4.95,3.88,9.65,2.65,4.68-1.24,7.97-4.42,7.33-7.12-.64-2.69-4.96-3.88-9.63-2.64Z"/>
          <path class="cls-23" d="m176.46,236.83c-4.69-.95-8.9.46-9.4,3.16-.49,2.71,2.91,5.66,7.6,6.63,4.7.95,8.91-.46,9.41-3.15.5-2.71-2.91-5.67-7.61-6.64Z"/>
          <path class="cls-21" d="m244.1,304.9c-11.32-.22-20.81,2.19-21.16,5.38-.37,3.2,8.49,5.98,19.82,6.2,11.3.22,20.77-2.19,21.14-5.39.38-3.19-8.51-5.98-19.8-6.19Z"/>
          <path class="cls-68" d="m283.08,192.59c36.18,2.98,32.24,29.17,32.24,29.17,0,0,7.71-16.32-.14-23.94-12.45-12.09-32.1-5.23-32.1-5.23Z"/>
          <g>
            <path class="cls-78" d="m263.52,111.62s-58.59-15.7-84.76,28.59c-25.19,42.62-21.66,81.92-24.61,113.81,0,0,7.58-.3,10.54-31.53,3.03-31.95,15.48-44.89,30.28-58.95,21.02-17.48,54.39-37.4,64.93-42.21,7.85-.68,26.95,7.45,40.53,29.93,22.85,37.82,16.6,53.6,28.87,90.93,0,0,4.46-115.65-65.78-130.57Z"/>
            <path class="cls-41" d="m283.02,84.02c-22.13-17.75-124.66-24.94-153.22,71.12-7.15,33.32.26,60.36,6.17,78.6,1.93-8.46,20.34,1.94,19.73-11.2.81-46.62,23.71-57.56,23.71-57.56,23.31-29.69,52-44.3,74.55-53.33,29.07-4.67,38.94-19.7,29.06-27.63Z"/>
            <path class="cls-38" d="m272.76,110.2c-6.13-.47-14.72,1.22-14.72,1.22,23.47,1.09,38.11,20.82,44.32,29.81,14.9,21.57,17.04,29.3,20.68,41.92,6.21,21.55,3.86,62.93,17.43,37.29-9.31-26.43-12.5-42.58-21.94-62.86-16.24-34.92-36.73-46.67-45.76-47.38Z"/>
            <path class="cls-39" d="m188.9,146.13c-19.35,17.56-45.62,44.48-47.36,78.51-.18,3.55,12.28-.7,12.95,1.93,2.85-8.12,3.23-20.46,4.03-28.07,12.86-28.13,27.61-37.26,35.23-43.37,52.13-41.82,66.99-44.14,66.99-44.14-16.22-13.2-50.15,15.46-71.83,35.13Z"/>
            <path class="cls-75" d="m234.92,97.89c-16.65-2.07-41.4,2.46-62.87,19.83-21.82,17.57-33.25,35.08-37.48,51.86-4.39,17.02-3.22,27.48-3.4,27.28.2-.03,3.58-11.16,12.01-25.75,8.33-14.64,22.31-26.02,40.28-40.02,18.15-14.26,31.82-21.97,47.18-24.64,19.62-3.41,28.29,3.47,28.41,3.61-3.99-4.62-12.65-10.74-24.12-12.17Z"/>
            <path class="cls-75" d="m156.01,172.72c-5.28,5.86-11.4,13.37-16.36,23.5-4.97,10-11.33,24.29-9.85,37.52,1.1,13.87,8.89,26.21,15.14,34.42,6.28,8.39,11.8,14.26,14.09,21.24,4.4,13.98,2.99,24.12,3.39,23.82-.52-.12,4.77-9.99,2.25-27.5-1.29-8.74-4.75-18.15-9.65-26.86-4.94-8.8-8.38-17.97-9.12-28.62-2.35-21.66,5.23-39.28,12.95-52.49,7.87-13.19,40.14-40.23,40.84-41.19-.06.09-32.98,24.59-43.7,36.16Z"/>
            <path class="cls-75" d="m324.47,132.29c-4.78-9.14-11.15-17.31-18.7-22.77-7.49-5.57-15.99-4.74-22.66-4.66-13.56.56-19.68,5.62-20.13,5.74.35-.1,8.85-3.23,20.26-.48,11.57,2.61,22.22,12.46,30.6,29.71,8.76,17.25,14.75,28.31,19.86,40.18,4.91,12.02,9.05,18.82,9.03,18.66-.12-.12-1.42-8.74-3.39-22.19-2.22-13.36-5.41-26.02-14.89-44.19Z"/>
            <g>
              <path class="cls-78" d="m149.36,218.53c-7.78-1.38-11.95,3.33-12.25,8.68-.33,5.91,4.99,14.59,8.14,22.2,3.92,9.48,1.32,19.52,15.72,19.52,0,0-1.46-20.01-4.55-45.11,0,0-4.43-4.83-7.05-5.29Z"/>
              <path class="cls-20" d="m151.59,246.04c3.59-25.81-14.51-28.96-10.8-11.35,0,0,4-6.92,6.08-4.44,2.54,3.05-2.73,4.73-.04,18.06,1.4,6.92,8.15,14.23,8.15,14.23,0,0-4.92-5.56-3.39-16.5Z"/>
            </g>
            <path class="cls-85" d="m154.91,221.2l2.85,13.49c2.56-12.35.77-36.24.77-36.24l-3.62,22.74Z"/>
            <path class="cls-75" d="m283.15,79.89c-28.72-11.45-72.4-14.4-109.08,12.03-15.06,10.85-37.81,31.82-44.26,63.22,11.32-27.85,31.22-49.48,62.91-61.28,29.54-11,62.15-9.06,73.9-7.28,50.11,7.58,77.61,62.46,77.61,62.46,0,0-6.03-47.2-61.08-69.15Z"/>
            <g>
              <path class="cls-78" d="m337.61,218.53c-2.63.47-7.05,5.29-7.05,5.29-3.09,25.1-4.55,45.11-4.55,45.11,14.4,0,11.79-10.04,15.71-19.52,3.15-7.61,8.47-16.29,8.14-22.2-.3-5.35-4.48-10.05-12.25-8.68Z"/>
              <path class="cls-26" d="m335.37,246.04c1.53,10.94-3.39,16.5-3.39,16.5,0,0,6.75-7.3,8.15-14.23,2.69-13.32-2.58-15.01-.04-18.06,2.07-2.48,6.08,4.44,6.08,4.44,3.72-17.61-14.39-14.46-10.8,11.35Z"/>
            </g>
          </g>
          <g>
            <path class="cls-82" d="m301.38,187.29c-10.51-3.11-26.46-2.6-26.82-2.56-7.39.99-14.69,8-8.52,7.93,6.17-.07,27.49-.99,33.82-.03,10.28,1.56,14.98,5.34,17.17,7.89,0,0-3.87-9.75-15.65-13.24Z"/>
            <path class="cls-49" d="m211.09,184.19c-.36-.04-16.32,0-26.72,3.46-11.66,3.89-14.26,12.88-14.26,12.88,2.11-2.63,5.75-5.68,15.96-7.59,6.29-1.18,27.64-.98,33.8-1.12,6.17-.14-1.36-6.9-8.78-7.64Z"/>
          </g>
          <path class="cls-22" d="m277.27,265.96s5.94,10.62,6.56,14.07c.61,3.46,2.48,23.48,2.48,23.48,0,0,3.92-26.71,3.91-28.5,0-1.79-12.95-9.05-12.95-9.05Z"/>
          <path class="cls-29" d="m194.98,276.84c.42,1.26,5.81,26.35,5.81,26.35,0,0,3.09-21.94,2.65-22.92-.44-.98,4.4-11.67,4.4-11.67,0,0-13.29,6.99-12.86,8.25Z"/>
          <path class="cls-25" d="m169.46,230.09c-26.33,27.67-5.52,73.4,10.4,81.43,13.64,6.88,28.58,8.92,28.58,8.92-8.73-3.93-9.82-3.7-25.77-15.28-35.1-25.49-14.64-72.93-13.21-75.06Z"/>
          <path class="cls-44" d="m329.1,237.99l2.97-14.83s-6.39-34.7-9.03-40.01c0,0,5.33,43.56,6.07,54.84Z"/>
          <path class="cls-28" d="m250.37,199.53l5.23-22.09c-3.22,3.39-7.96,10.69-8.35,16.33-.17,2.47,3.12,5.76,3.12,5.76Z"/>
          <path class="cls-24" d="m238.41,204.39s2.09-14.58-6.5-24.41c0,0,7.21,20.68,6.5,24.41Z"/>
          <path class="cls-31" d="m305.78,299.57c-16.89,15.96-22.29,18.65-25.66,20.44,3.09-1.64,21.36-7.24,31.62-17.37,11.01-10.88,34.93-45.02,10.11-74.67,13.04,30.46-.76,57.14-16.07,71.6Z"/>
          <polygon class="cls-50" points="262.72 261.48 274.15 262.96 258.52 251.42 262.72 261.48"/>
          <polygon class="cls-65" points="223.28 262.05 225.8 251.14 213.3 264.09 223.28 262.05"/>
          <g>
            <g>
              <g>
                <path class="cls-48" d="m199.71,203.57c-21.05,2.16-27.01,20.41-27.01,20.41,0,0,2.23,4.72,6.15,6.9-3.79-.85-5.31.03-5.31.03,4.4,1.18,10.23,3.64,13.54,4.72,4.8.71,32.15-.4,35.44-1.92,0,0-2.52-.38-10.38.52,8.93-1.54,14.07-4.77,14.07-4.77,0,0,3.82-25.89-26.5-25.89Z"/>
                <path class="cls-15" d="m208.7,211.67c2.62,2.54,5.72,7.15,5.97,11.4.28,4.91-1.45,7.63-4.46,10.65,3.9-1.17,7.26-1.88,12.31-4.18,0,0-4.64-12.24-13.82-17.86Z"/>
                <path class="cls-73" d="m209.47,213.44c2.55,2.04,4.61,6.3,5.2,9.62,4.51,2.79,6.21,4.82,7.85,6.47,0,0-4.66-11.87-13.05-16.09Z"/>
                <path class="cls-32" d="m198.04,209.3c-6.35.68-12.52,4.22-21.74,12.53,0,0,3.41,13.05,19,13.65-4.3-.16-6.11-5.61-6.41-10.72-.41-7.08,3.51-13.37,9.15-15.47Z"/>
                <path class="cls-47" d="m214.45,221.36c-9.02-6.33-18.67-6.27-25.96-3.5-.97,2.19-1.44,4.66-1.27,7.25.32,4.95,4.48,9.99,6.53,10.27,7.53,1.04,15.4-1.1,16.46-1.67,3.15-2.91,4.85-5.9,4.46-10.65-.06-.65-.11-1.09-.23-1.7Z"/>
                <path class="cls-73" d="m177.99,222.2l1.82,3.46s2.22-.87,7.46-3.27c.97-3.3,3.6-8.27,6.47-10.01-6.67,1.4-12.14,4.83-15.76,9.82Z"/>
                <path class="cls-30" d="m209.47,213.44c-1.15-.58-2.35-1.02-3.6-1.26-3.89-.75-8.09-.65-12.12.2-2.87,1.74-6.05,4.59-6.47,10.01,3.32-1.93,8.84-3.82,14.05-3.37,5.23.46,10.02,1.99,13.35,4.04-.53-3.36-2.65-7.58-5.2-9.62Z"/>
                <path class="cls-72" d="m200.05,214.68c-5.01.45-8.73,4.99-8.31,10.13.41,5.14,4.81,8.94,9.82,8.49,5-.47,8.73-5,8.3-10.14-.4-5.14-4.8-8.94-9.81-8.48Z"/>
                <path class="cls-77" d="m202.33,219.92c-1.13-.71-2.61-.28-3.32.94-.71,1.23-.37,2.79.75,3.49,1.12.7,2.61.28,3.32-.94.71-1.22.37-2.78-.75-3.49Z"/>
                <path class="cls-77" d="m210.06,223.71c-1.54-.99-3.52-.48-4.43,1.14-.91,1.62-.4,3.75,1.14,4.73,1.54,1,3.52.48,4.43-1.13.91-1.62.4-3.74-1.14-4.74Z"/>
                <path class="cls-46" d="m187.67,210.09c-4.56.86-11.36,7.28-11.87,11.62-.02.14,2.19,6.35,4.09,7.66,1.55,1.06,3.55,2.57,5.63,3.6-2.88-3.17-3.93-4.37-6.03-10.36,7.03-6.47,14.04-9.05,22.43-8.66,12.15.57,20.6,15.58,20.6,15.58-3.2-15.11-12.18-23.72-34.85-19.44Z"/>
                <path class="cls-74" d="m179.86,209s14.92-5.5,24.45-3c9.52,2.49,16.03,4.57,16.03,4.57,0,0-6.42-4.78-15.15-6.68-12.19-2.66-21.25,2.29-25.32,5.11Z"/>
                <path class="cls-72" d="m203.56,213.32c-19.8-1.9-24.08,9.29-24.08,9.29,4.84-4.14,12.16-8.56,23.37-7.56,11.21,1,19.66,14.48,19.66,14.48,0,0-4.19-14.79-18.96-16.21Z"/>
              </g>
              <g>
                <path class="cls-45" d="m314.64,224.65s-6.2-18.91-27.25-21.07c-30.31,0-26.5,25.89-26.5,25.89,0,0,5.14,3.24,14.07,4.77-6.52-.52-10.89-.52-10.89-.52,5.36,2.25,31.14,2.63,35.94,1.92,3.31-1.08,9.14-3.54,13.54-4.72,0,0-1.51-.88-5.31-.03,3.92-2.18,6.39-6.24,6.39-6.24Z"/>
                <path class="cls-14" d="m278.4,211.67c-9.18,5.62-13.82,17.86-13.82,17.86,5.05,2.3,8.42,3.01,12.31,4.18-3.01-3.02-4.74-5.74-4.46-10.65.25-4.25,3.35-8.86,5.97-11.4Z"/>
                <path class="cls-73" d="m264.58,229.53c1.64-1.65,3.34-3.68,7.85-6.47.59-3.32,2.65-7.58,5.2-9.62-8.39,4.22-13.05,16.09-13.05,16.09Z"/>
                <path class="cls-5" d="m298.21,224.76c-.3,5.11-2.11,10.55-6.41,10.72,15.59-.6,19-13.65,19-13.65-9.22-8.32-15.39-11.86-21.74-12.53,5.64,2.09,9.56,8.39,9.15,15.47Z"/>
                <path class="cls-7" d="m272.66,221.36c-.11.61-.17,1.05-.23,1.7-.39,4.76,1.32,7.74,4.46,10.65,1.06.56,8.93,2.7,16.46,1.67,2.05-.28,6.21-5.33,6.53-10.27.17-2.58-.3-5.06-1.27-7.25-7.29-2.77-16.93-2.83-25.95,3.5Z"/>
                <path class="cls-73" d="m293.35,212.38c2.87,1.74,5.51,6.71,6.47,10.01,5.25,2.4,7.46,3.27,7.46,3.27l1.08-3.46c-3.62-4.99-8.34-8.42-15.01-9.82Z"/>
                <path class="cls-8" d="m293.35,212.38c-4.03-.84-8.23-.95-12.12-.2-1.25.24-2.46.68-3.6,1.26-2.55,2.04-4.67,6.26-5.2,9.62,3.33-2.05,8.12-3.58,13.35-4.04,5.21-.45,10.73,1.44,14.05,3.37-.42-5.43-3.6-8.27-6.47-10.01Z"/>
                <path class="cls-72" d="m287.06,214.68c-5.01-.46-9.4,3.34-9.81,8.48-.43,5.14,3.3,9.67,8.3,10.14,5.01.45,9.4-3.35,9.82-8.49.42-5.14-3.31-9.68-8.31-10.13Z"/>
                <path class="cls-77" d="m288.1,219.92c-1.13-.71-2.61-.28-3.32.94-.71,1.23-.37,2.79.75,3.49,1.12.7,2.61.28,3.32-.94.71-1.22.37-2.78-.75-3.49Z"/>
                <path class="cls-77" d="m295.84,223.71c-1.54-.99-3.52-.48-4.43,1.14-.91,1.62-.4,3.75,1.14,4.73,1.54,1,3.52.48,4.43-1.13.91-1.62.4-3.74-1.14-4.74Z"/>
                <path class="cls-6" d="m299.43,210.09c-22.67-4.28-31.66,4.33-34.85,19.44,0,0,8.45-15.01,20.6-15.58,8.4-.4,15.41,2.19,22.43,8.66-2.1,5.99-3.14,7.19-6.03,10.36,2.07-1.03,4.29-2.28,5.63-3.6,2.24-2.21,4.11-7.51,4.09-7.66-.51-3.64-7.31-10.76-11.87-11.62Z"/>
                <path class="cls-74" d="m281.93,203.57c-8.73,1.9-14.83,6.66-14.83,6.66,0,0,6.26-3.69,15.98-5.06,9.75-1.37,24.16,3.82,24.16,3.82-4.07-2.82-13.11-8.08-25.3-5.42Z"/>
                <path class="cls-72" d="m283.54,213.32c-14.77,1.42-18.96,16.21-18.96,16.21,0,0,8.45-13.48,19.66-14.48,11.21-1,18.54,3.42,23.37,7.56,0,0-4.27-11.18-24.08-9.29Z"/>
              </g>
            </g>
            <g>
              <polygon class="cls-4" points="243.04 266.13 228.29 266.13 226.63 268.08 243.91 279.11 260.15 267.76 257.83 265.96 243.04 266.13"/>
              <path class="cls-11" d="m243.04,266.51l-10.78-2.76-5.62.61.52,3.43s6.55-1.89,12.29.37h7.03s6.98-2.5,13.67-.4l.29-2.96-5.6-1.05-11.8,2.76Z"/>
              <path class="cls-78" d="m259.93,255.08s2.59,4.01,1.5,6.57c-1.09,2.56-8.47.35-11.48,2.1-5.56,3.23-8.92,2.43-14.44,0-3.63-1.6-8.72.41-10.76-2.36-.71-.96-.88-4.39.14-6.31,0,0-3.04,1.58-3.5,5.87-.52,4.92,4.96,7.6,5.8,7.09.84-.51-.7-4.22,4.36-3.56,5.06.66,4.8,3.03,5.62,3.83.82.8,9.73,1,11.23.13,1.5-.87,1.09-4.1,5.88-3.96,4.79.14,4.92,3.17,5.61,3.56.68.39,3.52-1.97,4.34-6.48.82-4.51-4.3-6.48-4.3-6.48Z"/>
              <path class="cls-37" d="m231.63,252.86c-.09,3.14.31,4.47,1.75,6.52,2.2,3.12,17.65,5.67,20.29-1.49.53-1.43.51-3.66.23-6.48-.31-3.22-22.18-1.68-22.27,1.45Z"/>
            </g>
          </g>
          <path class="cls-13" d="m204.32,279.36s1.47,2.56,23.15,3.92c21.68,1.36,29.24.08,32.97-.21,3.73-.28,13.33-1.42,20.92-4.49,0,0-14.08.02-38.84.02-26.39,0-38.2.76-38.2.76Z"/>
          <g>
            <path class="cls-9" d="m197.99,276.92c-1.62,6.19,11.8,3.61,22.76,8.29-8.6-3.37-22.14-10.68-22.76-8.29Z"/>
            <path class="cls-12" d="m211.79,282.38c7.64,10.54,19.29,17.59,32.81,17.17,6.68-.2,19.46-2.15,29.54-15,0,0-35.13,4.48-62.35-2.17Z"/>
            <path class="cls-3" d="m264.85,285.17c10.96-4.69,24.37-2.13,22.74-8.32-.63-2.39-14.15,4.94-22.74,8.32Z"/>
            <path class="cls-70" d="m281.93,278.39c-7.53,3.24-13.57,3.51-21.09,3.9-2.44-.14-33.39-.52-35.35-.43-4.75-.4-13.85.37-19.24-2.04-2.74-1.26-6.1-3.24-6.51-2.99-.58.34.28,4.19,4.49,3.95,9.93,1.29,12.65,5.92,18.5,6.53,1.72.24,35.81.07,37.19-.03,8.26.15,11.46-5.47,21.48-6.87,4.74.16,4.77-3.63,4.77-3.63-.41-.23-1.79.4-4.23,1.63Z"/>
            <path class="cls-66" d="m204.9,279.17c.43.16,10.19,5.58,37.96,6.01,20.98.33,33.15-3.64,36.26-5.69-8.19.81-23.02,2.06-37.39,1.99-12.95-.06-23.76.18-36.84-2.31Z"/>
            <path class="cls-66" d="m242.32,286.72c-27.18-.63-30.68-5.48-34.9-5.28,4.84,4.42,8.44,5.01,11.09,7.3,6.48,5.6,17.36,8.11,25.23,7.82,9.95-.36,18.07-4.05,21.11-6.24,4.12-2.61,11.44-6.36,15.21-9.69-4.14-.11-12.14,6.67-37.73,6.08Z"/>
            <path class="cls-10" d="m241.14,288.71c-15.88-.49-23.87-3.84-23.39-2.75.89,2.05,3.81,3.55,8.07,5.98,4,2.28,10.26,3.3,17.28,3.29,8.64,0,11.38-.9,16.43-3.59,4.25-2.26,8.13-4.42,8.17-5.17.01-.79-10.09,2.75-26.56,2.24Z"/>
            <path class="cls-79" d="m239.66,291.21c-1.76,1.21,5.4,1.78,8.55,1.6,3.15-.18,8.69-2.27,8.13-3.13-.56-.86-16.68,1.53-16.68,1.53Z"/>
          </g>
          <path class="cls-33" d="m242.72,335.56c-17.81-.89-24.32-3.85-34.77-15.13,0,0,7.42,18.13,33.26,18.61,9.07.17,26.94-.95,38.92-19.04,0,0-15.28,16.67-37.41,15.56Z"/>
        </g>
        <path class="cls-36" d="m102.47,452.57c1.62,1.18,3.25,2.34,4.89,3.48-.42-5.61-.82-9.8-1.18-12.12-1.71-11.07-2.89-3.05-3.71,8.64Z"/>
        <path class="cls-52" d="m371.78,443.94c-.54,3.48-1.23,11.53-2.01,22.58,2.13-1.24,4.23-2.53,6.32-3.83-.81-15.99-2.14-32.85-4.31-18.74Z"/>
        <path class="cls-42" d="m366.14,393.74c-.61-22.79-11.07-32.35-11.07-32.35l-8.12,116.88c5.22-2.35,10.34-4.88,15.36-7.58,2.47-39.36,4.03-69.44,3.83-76.95Z"/>
        <path class="cls-54" d="m356.32,358.96c-4.88-6.72-67.52-28.34-67.52-28.34,14.24,7.73,35.76,22.84,32.86,139.03-.15,6.04-.25,12.22-.32,18.46,11.84-3.8,23.29-8.48,34.28-13.96,3.79-57.81,5.04-105.17.7-115.19Z"/>
        <path class="cls-51" d="m116.97,411.04c0,7.95,1.1,27.55,2.81,53.11,6.31,3.84,12.8,7.41,19.47,10.68l-10.38-112.19s-11.9,13.86-11.9,48.4Z"/>
        <path class="cls-55" d="m195.49,332.36s-63.56,22.21-68.44,28.93c-4.15,9.58-2.86,53.3.98,107.67,10.85,6.04,22.18,11.29,33.95,15.64-.07-4.26-.16-8.48-.26-12.63-2.91-116.19,19.54-131.88,33.78-139.61Z"/>
        <path class="cls-71" d="m60.79,414.1c7.59,8.81,15.78,17.08,24.5,24.73l-4.37-48.61s-9.44,6.47-20.13,23.88Z"/>
        <path class="cls-35" d="m123.34,364.9s-39.77,18.55-51.23,29.93c-5.35,5.31-10.09,10.25-14.3,15.74,3.01,3.62,6.12,7.16,9.32,10.61,1.35-2.35,2.72-4.4,4.11-6.05,23.6-27.96,52.1-50.23,52.1-50.23Z"/>
        <path class="cls-71" d="m422.77,424.96c-18.03-33.35-37.7-43.4-37.7-43.4l-.37,75.52c13.75-9.4,26.49-20.18,38.08-32.12Z"/>
        <path class="cls-53" d="m426.54,421c-7.63-14.2-16.47-23.67-25.05-30.78-15.57-12.9-41.57-27.51-41.57-27.51,0,0,33.97,32.57,47.93,56.33,2.38,4.05,4.7,8.7,6.95,13.78,4.04-3.81,7.96-7.75,11.74-11.82Z"/>
      </g>
    </g>
  </g>
</svg>