<?xml version="1.0" encoding="UTF-8"?>
<svg id="Layer_2" data-name="Layer 2" xmlns="http://www.w3.org/2000/svg" xmlns:xlink="http://www.w3.org/1999/xlink" viewBox="0 0 493.51 499.74">
  <defs>
    <style>
      .cls-1 {
        fill: url(#linear-gradient);
      }

      .cls-1, .cls-2, .cls-3, .cls-4, .cls-5, .cls-6, .cls-7, .cls-8, .cls-9, .cls-10, .cls-11, .cls-12, .cls-13, .cls-14, .cls-15, .cls-16, .cls-17, .cls-18, .cls-19, .cls-20, .cls-21, .cls-22, .cls-23, .cls-24, .cls-25, .cls-26, .cls-27, .cls-28, .cls-29, .cls-30, .cls-31, .cls-32, .cls-33, .cls-34, .cls-35, .cls-36, .cls-37, .cls-38, .cls-39, .cls-40, .cls-41, .cls-42, .cls-43, .cls-44, .cls-45, .cls-46, .cls-47, .cls-48, .cls-49, .cls-50, .cls-51, .cls-52, .cls-53, .cls-54, .cls-55, .cls-56, .cls-57, .cls-58, .cls-59, .cls-60, .cls-61, .cls-62, .cls-63, .cls-64, .cls-65, .cls-66, .cls-67, .cls-68, .cls-69, .cls-70, .cls-71, .cls-72, .cls-73, .cls-74, .cls-75, .cls-76, .cls-77, .cls-78, .cls-79, .cls-80, .cls-81, .cls-82, .cls-83, .cls-84, .cls-85 {
        stroke-width: 0px;
      }

      .cls-2 {
        fill: url(#radial-gradient);
      }

      .cls-3 {
        fill: url(#linear-gradient-29);
      }

      .cls-4 {
        fill: url(#linear-gradient-32);
      }

      .cls-5 {
        fill: url(#linear-gradient-30);
      }

      .cls-6 {
        fill: url(#linear-gradient-31);
      }

      .cls-7 {
        fill: url(#linear-gradient-28);
      }

      .cls-8 {
        fill: url(#linear-gradient-25);
      }

      .cls-9 {
        fill: url(#linear-gradient-11);
      }

      .cls-10 {
        fill: url(#linear-gradient-12);
      }

      .cls-11 {
        fill: url(#linear-gradient-13);
      }

      .cls-12 {
        fill: url(#linear-gradient-10);
      }

      .cls-13 {
        fill: url(#linear-gradient-17);
      }

      .cls-14 {
        fill: url(#linear-gradient-16);
      }

      .cls-15 {
        fill: url(#linear-gradient-19);
      }

      .cls-16 {
        fill: url(#linear-gradient-15);
      }

      .cls-17 {
        fill: url(#linear-gradient-23);
      }

      .cls-18 {
        fill: url(#linear-gradient-21);
      }

      .cls-19 {
        fill: url(#linear-gradient-18);
      }

      .cls-20 {
        fill: url(#linear-gradient-14);
      }

      .cls-21 {
        fill: url(#linear-gradient-22);
      }

      .cls-22 {
        fill: url(#linear-gradient-20);
      }

      .cls-23 {
        fill: url(#linear-gradient-27);
      }

      .cls-24 {
        fill: url(#linear-gradient-24);
      }

      .cls-25 {
        fill: url(#linear-gradient-26);
      }

      .cls-26 {
        fill: url(#_ÂÁ_Ï_ÌÌ_È_ËÂÌÚ_1204-11);
      }

      .cls-27 {
        fill: url(#_ÂÁ_Ï_ÌÌ_È_ËÂÌÚ_1204-10);
      }

      .cls-28 {
        fill: url(#_ÂÁ_Ï_ÌÌ_È_ËÂÌÚ_146);
      }

      .cls-29 {
        fill: url(#_ÂÁ_Ï_ÌÌ_È_ËÂÌÚ_100);
      }

      .cls-30 {
        fill: url(#_ÂÁ_Ï_ÌÌ_È_ËÂÌÚ_106);
      }

      .cls-31 {
        fill: url(#_ÂÁ_Ï_ÌÌ_È_ËÂÌÚ_207);
      }

      .cls-32 {
        fill: url(#_ÂÁ_Ï_ÌÌ_È_ËÂÌÚ_44-5);
      }

      .cls-33 {
        fill: url(#_ÂÁ_Ï_ÌÌ_È_ËÂÌÚ_44-4);
      }

      .cls-34 {
        fill: url(#_ÂÁ_Ï_ÌÌ_È_ËÂÌÚ_44-2);
      }

      .cls-35 {
        fill: url(#_ÂÁ_Ï_ÌÌ_È_ËÂÌÚ_44-3);
      }

      .cls-36 {
        fill: url(#_ÂÁ_Ï_ÌÌ_È_ËÂÌÚ_44-6);
      }

      .cls-37 {
        fill: url(#_ÂÁ_Ï_ÌÌ_È_ËÂÌÚ_44-9);
      }

      .cls-38 {
        fill: url(#_ÂÁ_Ï_ÌÌ_È_ËÂÌÚ_44-7);
      }

      .cls-39 {
        fill: url(#_ÂÁ_Ï_ÌÌ_È_ËÂÌÚ_44-8);
      }

      .cls-40 {
        fill: url(#_ÂÁ_Ï_ÌÌ_È_ËÂÌÚ_1655);
      }

      .cls-41 {
        fill: url(#_ÂÁ_Ï_ÌÌ_È_ËÂÌÚ_1017);
      }

      .cls-42 {
        fill: url(#_ÂÁ_Ï_ÌÌ_È_ËÂÌÚ_1018);
      }

      .cls-43 {
        fill: url(#_ÂÁ_Ï_ÌÌ_È_ËÂÌÚ_1019);
      }

      .cls-44 {
        fill: url(#_ÂÁ_Ï_ÌÌ_È_ËÂÌÚ_1021);
      }

      .cls-45 {
        fill: url(#_ÂÁ_Ï_ÌÌ_È_ËÂÌÚ_1020);
      }

      .cls-46 {
        fill: url(#_ÂÁ_Ï_ÌÌ_È_ËÂÌÚ_1204);
      }

      .cls-47 {
        fill: url(#_ÂÁ_Ï_ÌÌ_È_ËÂÌÚ_44-13);
      }

      .cls-48 {
        fill: url(#_ÂÁ_Ï_ÌÌ_È_ËÂÌÚ_44-11);
      }

      .cls-49 {
        fill: url(#_ÂÁ_Ï_ÌÌ_È_ËÂÌÚ_44-10);
      }

      .cls-50 {
        fill: url(#_ÂÁ_Ï_ÌÌ_È_ËÂÌÚ_44-12);
      }

      .cls-51 {
        fill: url(#_ÂÁ_Ï_ÌÌ_È_ËÂÌÚ_207-5);
      }

      .cls-52 {
        fill: url(#_ÂÁ_Ï_ÌÌ_È_ËÂÌÚ_207-2);
      }

      .cls-53 {
        fill: url(#_ÂÁ_Ï_ÌÌ_È_ËÂÌÚ_207-4);
      }

      .cls-54 {
        fill: url(#_ÂÁ_Ï_ÌÌ_È_ËÂÌÚ_207-3);
      }

      .cls-55 {
        fill: url(#radial-gradient-2);
      }

      .cls-56 {
        fill: url(#radial-gradient-3);
      }

      .cls-57 {
        fill: url(#linear-gradient-4);
      }

      .cls-58 {
        fill: url(#linear-gradient-2);
      }

      .cls-59 {
        fill: url(#linear-gradient-3);
      }

      .cls-60 {
        fill: url(#linear-gradient-8);
      }

      .cls-61 {
        fill: url(#linear-gradient-9);
      }

      .cls-62 {
        fill: url(#linear-gradient-7);
      }

      .cls-63 {
        fill: url(#linear-gradient-5);
      }

      .cls-64 {
        fill: url(#linear-gradient-6);
      }

      .cls-65 {
        fill: url(#_ÂÁ_Ï_ÌÌ_È_ËÂÌÚ_1204-7);
      }

      .cls-66 {
        fill: url(#_ÂÁ_Ï_ÌÌ_È_ËÂÌÚ_1204-9);
      }

      .cls-67 {
        fill: url(#_ÂÁ_Ï_ÌÌ_È_ËÂÌÚ_1204-2);
      }

      .cls-68 {
        fill: url(#_ÂÁ_Ï_ÌÌ_È_ËÂÌÚ_1204-4);
      }

      .cls-69 {
        fill: url(#_ÂÁ_Ï_ÌÌ_È_ËÂÌÚ_1204-3);
      }

      .cls-70 {
        fill: url(#_ÂÁ_Ï_ÌÌ_È_ËÂÌÚ_1204-6);
      }

      .cls-71 {
        fill: url(#_ÂÁ_Ï_ÌÌ_È_ËÂÌÚ_1204-5);
      }

      .cls-72 {
        fill: url(#_ÂÁ_Ï_ÌÌ_È_ËÂÌÚ_1204-8);
      }

      .cls-73 {
        fill: #f86d78;
      }

      .cls-74 {
        fill: #f6ece6;
      }

      .cls-75 {
        fill: #f7d4ab;
      }

      .cls-76 {
        fill: #961b27;
      }

      .cls-77 {
        fill: #ddd;
      }

      .cls-78 {
        fill: #fff;
      }

      .cls-79 {
        fill: #ff9aa2;
      }

      .cls-80 {
        fill: #f0c499;
      }

      .cls-81 {
        fill: #f6a6b4;
      }

      .cls-82 {
        fill: url(#_ÂÁ_Ï_ÌÌ_È_ËÂÌÚ_34);
      }

      .cls-83 {
        fill: url(#_ÂÁ_Ï_ÌÌ_È_ËÂÌÚ_44);
      }

      .cls-84 {
        fill: url(#_ÂÁ_Ï_ÌÌ_È_ËÂÌÚ_48);
      }

      .cls-85 {
        fill: url(#_ÂÁ_Ï_ÌÌ_È_ËÂÌÚ_33);
      }
    </style>
    <linearGradient id="linear-gradient" x1="316.62" y1="492.82" x2="319.21" y2="97.13" gradientUnits="userSpaceOnUse">
      <stop offset="0" stop-color="#39231f"/>
      <stop offset=".45" stop-color="#3d2622"/>
      <stop offset=".94" stop-color="#4a302c"/>
      <stop offset="1" stop-color="#4d322e"/>
    </linearGradient>
    <linearGradient id="_ÂÁ_Ï_ÌÌ_È_ËÂÌÚ_44" data-name="¡ÂÁ˚ÏˇÌÌ˚È „‡‰ËÂÌÚ 44" x1="247.48" y1="265" x2="254.03" y2="405.83" gradientUnits="userSpaceOnUse">
      <stop offset="0" stop-color="#38221e"/>
      <stop offset=".77" stop-color="#291915"/>
    </linearGradient>
    <linearGradient id="linear-gradient-2" x1="205.03" y1="335.87" x2="330.38" y2="371.38" gradientUnits="userSpaceOnUse">
      <stop offset="0" stop-color="#f0c499"/>
      <stop offset=".52" stop-color="#f1c69b"/>
      <stop offset=".85" stop-color="#f4cea4"/>
      <stop offset="1" stop-color="#f7d4ab"/>
    </linearGradient>
    <linearGradient id="linear-gradient-3" x1="246.45" y1="493.72" x2="259.18" y2="374.58" gradientUnits="userSpaceOnUse">
      <stop offset="0" stop-color="#f7d4ab"/>
      <stop offset=".52" stop-color="#f5d1a8"/>
      <stop offset=".85" stop-color="#f2c99f"/>
      <stop offset="1" stop-color="#f0c499"/>
    </linearGradient>
    <linearGradient id="_ÂÁ_Ï_ÌÌ_È_ËÂÌÚ_1204" data-name="¡ÂÁ˚ÏˇÌÌ˚È „‡‰ËÂÌÚ 1204" x1="191.32" y1="487.83" x2="204.05" y2="368.69" gradientUnits="userSpaceOnUse">
      <stop offset="0" stop-color="#dba379"/>
      <stop offset=".49" stop-color="#e3b086"/>
      <stop offset="1" stop-color="#f0c499"/>
    </linearGradient>
    <linearGradient id="_ÂÁ_Ï_ÌÌ_È_ËÂÌÚ_1204-2" data-name="¡ÂÁ˚ÏˇÌÌ˚È „‡‰ËÂÌÚ 1204" x1="58.18" y1="239.46" x2="294.81" y2="328.06" xlink:href="#_ÂÁ_Ï_ÌÌ_È_ËÂÌÚ_1204"/>
    <linearGradient id="_ÂÁ_Ï_ÌÌ_È_ËÂÌÚ_146" data-name="¡ÂÁ˚ÏˇÌÌ˚È „‡‰ËÂÌÚ 146" x1="322.72" y1="505.91" x2="233.32" y2="383.31" gradientUnits="userSpaceOnUse">
      <stop offset="0" stop-color="#f7d4ab"/>
      <stop offset=".15" stop-color="#f4cea4"/>
      <stop offset=".48" stop-color="#f1c69b"/>
      <stop offset="1" stop-color="#f0c499"/>
    </linearGradient>
    <linearGradient id="_ÂÁ_Ï_ÌÌ_È_ËÂÌÚ_1204-3" data-name="¡ÂÁ˚ÏˇÌÌ˚È „‡‰ËÂÌÚ 1204" x1="366.99" y1="385.15" x2="288.07" y2="387.7" xlink:href="#_ÂÁ_Ï_ÌÌ_È_ËÂÌÚ_1204"/>
    <linearGradient id="_ÂÁ_Ï_ÌÌ_È_ËÂÌÚ_207" data-name="¡ÂÁ˚ÏˇÌÌ˚È „‡‰ËÂÌÚ 207" x1="294.97" y1="536.95" x2="145.27" y2="397.14" gradientUnits="userSpaceOnUse">
      <stop offset="0" stop-color="#f6a6b4"/>
      <stop offset="1" stop-color="#ef94a2"/>
    </linearGradient>
    <linearGradient id="_ÂÁ_Ï_ÌÌ_È_ËÂÌÚ_207-2" data-name="¡ÂÁ˚ÏˇÌÌ˚È „‡‰ËÂÌÚ 207" x1="288.06" y1="551.83" x2="271.8" y2="532.96" xlink:href="#_ÂÁ_Ï_ÌÌ_È_ËÂÌÚ_207"/>
    <linearGradient id="_ÂÁ_Ï_ÌÌ_È_ËÂÌÚ_207-3" data-name="¡ÂÁ˚ÏˇÌÌ˚È „‡‰ËÂÌÚ 207" x1="236.58" y1="545.74" x2="351.37" y2="363.79" xlink:href="#_ÂÁ_Ï_ÌÌ_È_ËÂÌÚ_207"/>
    <linearGradient id="_ÂÁ_Ï_ÌÌ_È_ËÂÌÚ_207-4" data-name="¡ÂÁ˚ÏˇÌÌ˚È „‡‰ËÂÌÚ 207" x1="112.7" y1="448.44" x2="113.4" y2="461.46" xlink:href="#_ÂÁ_Ï_ÌÌ_È_ËÂÌÚ_207"/>
    <linearGradient id="_ÂÁ_Ï_ÌÌ_È_ËÂÌÚ_207-5" data-name="¡ÂÁ˚ÏˇÌÌ˚È „‡‰ËÂÌÚ 207" x1="384.59" y1="450.59" x2="384.92" y2="456.76" xlink:href="#_ÂÁ_Ï_ÌÌ_È_ËÂÌÚ_207"/>
    <linearGradient id="linear-gradient-4" x1="160.84" y1="470.19" x2="163.11" y2="549.46" gradientUnits="userSpaceOnUse">
      <stop offset="0" stop-color="#dba379"/>
      <stop offset=".49" stop-color="#e3b086"/>
      <stop offset="1" stop-color="#f0c499"/>
    </linearGradient>
    <linearGradient id="linear-gradient-5" x1="348.01" y1="466.5" x2="350.24" y2="544.61" xlink:href="#linear-gradient-4"/>
    <linearGradient id="_ÂÁ_Ï_ÌÌ_È_ËÂÌÚ_34" data-name="¡ÂÁ˚ÏˇÌÌ˚È „‡‰ËÂÌÚ 34" x1="246.89" y1="114.64" x2="246.57" y2="327.16" gradientUnits="userSpaceOnUse">
      <stop offset="0" stop-color="#ffd9b3"/>
      <stop offset=".32" stop-color="#f9d5ad"/>
      <stop offset="1" stop-color="#f7d4ab"/>
    </linearGradient>
    <linearGradient id="linear-gradient-6" x1="207.83" y1="250.89" x2="196.93" y2="183.44" xlink:href="#linear-gradient-3"/>
    <radialGradient id="_ÂÁ_Ï_ÌÌ_È_ËÂÌÚ_1017" data-name="¡ÂÁ˚ÏˇÌÌ˚È „‡‰ËÂÌÚ 1017" cx="194.29" cy="252.77" fx="194.29" fy="252.77" r="40.8" gradientUnits="userSpaceOnUse">
      <stop offset="0" stop-color="#f9b38e"/>
      <stop offset=".51" stop-color="#f7c59e"/>
      <stop offset=".83" stop-color="#f7d4ab"/>
    </radialGradient>
    <linearGradient id="linear-gradient-7" x1="245.53" y1="297.47" x2="247.88" y2="321.42" gradientUnits="userSpaceOnUse">
      <stop offset="0" stop-color="#ffd9b3"/>
      <stop offset=".68" stop-color="#fcd7b0"/>
      <stop offset="1" stop-color="#f7d4ab"/>
    </linearGradient>
    <linearGradient id="_ÂÁ_Ï_ÌÌ_È_ËÂÌÚ_33" data-name="¡ÂÁ˚ÏˇÌÌ˚È „‡‰ËÂÌÚ 33" x1="307.78" y1="123.65" x2="206.71" y2="206.31" gradientUnits="userSpaceOnUse">
      <stop offset="0" stop-color="#f7d4ab"/>
      <stop offset=".97" stop-color="#f0c499"/>
      <stop offset="1" stop-color="#f0c499"/>
    </linearGradient>
    <linearGradient id="_ÂÁ_Ï_ÌÌ_È_ËÂÌÚ_100" data-name="¡ÂÁ˚ÏˇÌÌ˚È „‡‰ËÂÌÚ 100" x1="178.15" y1="297.06" x2="171.39" y2="183.18" gradientUnits="userSpaceOnUse">
      <stop offset="0" stop-color="#f9b38e"/>
      <stop offset=".5" stop-color="#f7b690"/>
      <stop offset=".9" stop-color="#f2c096"/>
      <stop offset="1" stop-color="#f0c499"/>
    </linearGradient>
    <linearGradient id="linear-gradient-8" x1="294.68" y1="241.1" x2="284.47" y2="184.54" xlink:href="#linear-gradient-3"/>
    <linearGradient id="_ÂÁ_Ï_ÌÌ_È_ËÂÌÚ_1204-4" data-name="¡ÂÁ˚ÏˇÌÌ˚È „‡‰ËÂÌÚ 1204" x1="161.26" y1="255.47" x2="202.96" y2="255.47" xlink:href="#_ÂÁ_Ï_ÌÌ_È_ËÂÌÚ_1204"/>
    <linearGradient id="linear-gradient-9" x1="292.55" y1="193.79" x2="325.45" y2="193.79" xlink:href="#linear-gradient-7"/>
    <radialGradient id="radial-gradient" cx="298.15" cy="250.88" fx="298.15" fy="250.88" r="31.92" gradientUnits="userSpaceOnUse">
      <stop offset="0" stop-color="#f9b38e"/>
      <stop offset=".61" stop-color="#f7c59e"/>
      <stop offset="1" stop-color="#f7d4ab"/>
    </radialGradient>
    <linearGradient id="_ÂÁ_Ï_ÌÌ_È_ËÂÌÚ_1204-5" data-name="¡ÂÁ˚ÏˇÌÌ˚È „‡‰ËÂÌÚ 1204" x1="312.95" y1="201.9" x2="265.9" y2="220.17" xlink:href="#_ÂÁ_Ï_ÌÌ_È_ËÂÌÚ_1204"/>
    <linearGradient id="linear-gradient-10" x1="266.99" y1="212.86" x2="281.42" y2="212.86" gradientUnits="userSpaceOnUse">
      <stop offset="0" stop-color="#fff"/>
      <stop offset=".47" stop-color="#fcfcfc"/>
      <stop offset=".77" stop-color="#f5f3f3"/>
      <stop offset="1" stop-color="#ece7e7"/>
    </linearGradient>
    <linearGradient id="linear-gradient-11" x1="298.94" y1="212.44" x2="310.42" y2="212.44" xlink:href="#linear-gradient-10"/>
    <linearGradient id="linear-gradient-12" x1="306.5" y1="225.23" x2="272.8" y2="204.17" gradientUnits="userSpaceOnUse">
      <stop offset="0" stop-color="#b89c8c"/>
      <stop offset="1" stop-color="#715241"/>
    </linearGradient>
    <linearGradient id="linear-gradient-13" x1="334.45" y1="213.21" x2="290.67" y2="208.02" xlink:href="#linear-gradient-12"/>
    <radialGradient id="radial-gradient-2" cx="286.94" cy="213.12" fx="286.94" fy="213.12" r="9.86" gradientUnits="userSpaceOnUse">
      <stop offset="0" stop-color="#2a3a3b"/>
      <stop offset="1" stop-color="#1c2727"/>
    </radialGradient>
    <linearGradient id="_ÂÁ_Ï_ÌÌ_È_ËÂÌÚ_1655" data-name="¡ÂÁ˚ÏˇÌÌ˚È „‡‰ËÂÌÚ 1655" x1="267.02" y1="211.42" x2="320.05" y2="211.42" gradientUnits="userSpaceOnUse">
      <stop offset="0" stop-color="#4d322e"/>
      <stop offset=".06" stop-color="#4a302c"/>
      <stop offset=".55" stop-color="#3d2622"/>
      <stop offset="1" stop-color="#39231f"/>
    </linearGradient>
    <linearGradient id="_ÂÁ_Ï_ÌÌ_È_ËÂÌÚ_1204-6" data-name="¡ÂÁ˚ÏˇÌÌ˚È „‡‰ËÂÌÚ 1204" x1="290.03" y1="196.71" x2="254.95" y2="241.36" xlink:href="#_ÂÁ_Ï_ÌÌ_È_ËÂÌÚ_1204"/>
    <linearGradient id="_ÂÁ_Ï_ÌÌ_È_ËÂÌÚ_44-2" data-name="¡ÂÁ˚ÏˇÌÌ˚È „‡‰ËÂÌÚ 44" x1="267.31" y1="210.83" x2="310.74" y2="210.83" xlink:href="#_ÂÁ_Ï_ÌÌ_È_ËÂÌÚ_44"/>
    <linearGradient id="_ÂÁ_Ï_ÌÌ_È_ËÂÌÚ_1020" data-name="¡ÂÁ˚ÏˇÌÌ˚È „‡‰ËÂÌÚ 1020" x1="223.23" y1="202.38" x2="181.41" y2="218.62" gradientUnits="userSpaceOnUse">
      <stop offset="0" stop-color="#f0c499"/>
      <stop offset=".51" stop-color="#e3b086"/>
      <stop offset="1" stop-color="#dba379"/>
    </linearGradient>
    <linearGradient id="linear-gradient-14" x1="212.28" x2="226.71" xlink:href="#linear-gradient-10"/>
    <linearGradient id="linear-gradient-15" x1="186.63" y1="212.44" x2="198.11" y2="212.44" xlink:href="#linear-gradient-10"/>
    <linearGradient id="_ÂÁ_Ï_ÌÌ_È_ËÂÌÚ_1021" data-name="¡ÂÁ˚ÏˇÌÌ˚È „‡‰ËÂÌÚ 1021" x1="221.27" y1="226.43" x2="186.4" y2="204.64" gradientUnits="userSpaceOnUse">
      <stop offset="0" stop-color="#b89c8c"/>
      <stop offset="1" stop-color="#715241"/>
    </linearGradient>
    <linearGradient id="linear-gradient-16" x1="250.8" y1="212.58" x2="206.37" y2="207.31" xlink:href="#linear-gradient-12"/>
    <radialGradient id="radial-gradient-3" cx="202.62" cy="213.12" fx="202.62" fy="213.12" r="9.86" xlink:href="#radial-gradient-2"/>
    <linearGradient id="_ÂÁ_Ï_ÌÌ_È_ËÂÌÚ_1019" data-name="¡ÂÁ˚ÏˇÌÌ˚È „‡‰ËÂÌÚ 1019" x1="173.7" y1="211.42" x2="226.73" y2="211.42" gradientUnits="userSpaceOnUse">
      <stop offset="0" stop-color="#39231f"/>
      <stop offset=".45" stop-color="#3d2622"/>
      <stop offset=".94" stop-color="#4a302c"/>
      <stop offset="1" stop-color="#4d322e"/>
    </linearGradient>
    <linearGradient id="_ÂÁ_Ï_ÌÌ_È_ËÂÌÚ_1204-7" data-name="¡ÂÁ˚ÏˇÌÌ˚È „‡‰ËÂÌÚ 1204" x1="208.24" y1="197.5" x2="187.28" y2="224.18" xlink:href="#_ÂÁ_Ï_ÌÌ_È_ËÂÌÚ_1204"/>
    <linearGradient id="_ÂÁ_Ï_ÌÌ_È_ËÂÌÚ_44-3" data-name="¡ÂÁ˚ÏˇÌÌ˚È „‡‰ËÂÌÚ 44" x1="183.6" y1="210.83" x2="227.03" y2="210.83" xlink:href="#_ÂÁ_Ï_ÌÌ_È_ËÂÌÚ_44"/>
    <linearGradient id="linear-gradient-17" x1="248.95" y1="270.24" x2="245.91" y2="255.06" xlink:href="#linear-gradient-3"/>
    <linearGradient id="linear-gradient-18" x1="246.56" y1="253.84" x2="246.47" y2="265.77" xlink:href="#linear-gradient-4"/>
    <linearGradient id="_ÂÁ_Ï_ÌÌ_È_ËÂÌÚ_106" data-name="¡ÂÁ˚ÏˇÌÌ˚È „‡‰ËÂÌÚ 106" x1="245.83" y1="237.63" x2="246" y2="249.85" gradientUnits="userSpaceOnUse">
      <stop offset="0" stop-color="#f7d4ab"/>
      <stop offset="1" stop-color="#ffd9b3"/>
    </linearGradient>
    <linearGradient id="linear-gradient-19" x1="246.95" y1="277.79" x2="246.75" y2="264.33" gradientUnits="userSpaceOnUse">
      <stop offset="0" stop-color="#ffd9b3"/>
      <stop offset="1" stop-color="#f7d4ab"/>
    </linearGradient>
    <linearGradient id="_ÂÁ_Ï_ÌÌ_È_ËÂÌÚ_1204-8" data-name="¡ÂÁ˚ÏˇÌÌ˚È „‡‰ËÂÌÚ 1204" x1="243.61" y1="282.58" x2="208.27" y2="272.05" xlink:href="#_ÂÁ_Ï_ÌÌ_È_ËÂÌÚ_1204"/>
    <linearGradient id="_ÂÁ_Ï_ÌÌ_È_ËÂÌÚ_1204-9" data-name="¡ÂÁ˚ÏˇÌÌ˚È „‡‰ËÂÌÚ 1204" x1="217.95" y1="285.24" x2="277.32" y2="285.24" xlink:href="#_ÂÁ_Ï_ÌÌ_È_ËÂÌÚ_1204"/>
    <linearGradient id="_ÂÁ_Ï_ÌÌ_È_ËÂÌÚ_1204-10" data-name="¡ÂÁ˚ÏˇÌÌ˚È „‡‰ËÂÌÚ 1204" x1="301.13" y1="280.99" x2="273.8" y2="272.85" xlink:href="#_ÂÁ_Ï_ÌÌ_È_ËÂÌÚ_1204"/>
    <linearGradient id="linear-gradient-20" x1="246" y1="292.76" x2="247.14" y2="282.81" gradientUnits="userSpaceOnUse">
      <stop offset="0" stop-color="#f96e7e"/>
      <stop offset=".03" stop-color="#f9707f"/>
      <stop offset=".25" stop-color="#fd7985"/>
      <stop offset=".53" stop-color="#ff7d88"/>
      <stop offset=".76" stop-color="#fd7985"/>
      <stop offset="1" stop-color="#f86d7d"/>
      <stop offset="1" stop-color="#f86d7d"/>
    </linearGradient>
    <linearGradient id="_ÂÁ_Ï_ÌÌ_È_ËÂÌÚ_1204-11" data-name="¡ÂÁ˚ÏˇÌÌ˚È „‡‰ËÂÌÚ 1204" x1="246.58" y1="306.85" x2="243.42" y2="352.75" xlink:href="#_ÂÁ_Ï_ÌÌ_È_ËÂÌÚ_1204"/>
    <linearGradient id="_ÂÁ_Ï_ÌÌ_È_ËÂÌÚ_1018" data-name="¡ÂÁ˚ÏˇÌÌ˚È „‡‰ËÂÌÚ 1018" x1="269.2" y1="180.51" x2="321.58" y2="180.51" gradientUnits="userSpaceOnUse">
      <stop offset=".23" stop-color="#291915"/>
      <stop offset="1" stop-color="#38221e"/>
    </linearGradient>
    <linearGradient id="_ÂÁ_Ï_ÌÌ_È_ËÂÌÚ_44-4" data-name="¡ÂÁ˚ÏˇÌÌ˚È „‡‰ËÂÌÚ 44" x1="171.61" y1="180.51" x2="223.91" y2="180.51" xlink:href="#_ÂÁ_Ï_ÌÌ_È_ËÂÌÚ_44"/>
    <linearGradient id="linear-gradient-21" x1="224.99" y1="175.34" x2="232.51" y2="92.65" xlink:href="#linear-gradient"/>
    <linearGradient id="linear-gradient-22" x1="335.12" y1="219.6" x2="299.92" y2="83.94" xlink:href="#linear-gradient"/>
    <linearGradient id="linear-gradient-23" x1="160.26" y1="473.98" x2="162.74" y2="95.14" xlink:href="#linear-gradient"/>
    <linearGradient id="linear-gradient-24" x1="202.92" y1="448.26" x2="166.26" y2="243.92" xlink:href="#linear-gradient"/>
    <linearGradient id="linear-gradient-25" x1="189.85" y1="450.61" x2="153.19" y2="246.26" xlink:href="#linear-gradient"/>
    <linearGradient id="linear-gradient-26" x1="285.78" y1="433.4" x2="249.12" y2="229.05" xlink:href="#linear-gradient"/>
    <linearGradient id="linear-gradient-27" x1="288.31" y1="432.95" x2="251.65" y2="228.6" xlink:href="#linear-gradient"/>
    <linearGradient id="linear-gradient-28" x1="360.52" y1="348.46" x2="333.22" y2="222.11" xlink:href="#linear-gradient"/>
    <linearGradient id="linear-gradient-29" x1="370.81" y1="336.27" x2="360.67" y2="266.85" xlink:href="#linear-gradient"/>
    <linearGradient id="linear-gradient-30" x1="391.48" y1="407.55" x2="348.83" y2="253.58" xlink:href="#linear-gradient"/>
    <linearGradient id="_ÂÁ_Ï_ÌÌ_È_ËÂÌÚ_44-5" data-name="¡ÂÁ˚ÏˇÌÌ˚È „‡‰ËÂÌÚ 44" x1="324.75" y1="288.18" x2="328.65" y2="429.35" xlink:href="#_ÂÁ_Ï_ÌÌ_È_ËÂÌÚ_44"/>
    <linearGradient id="_ÂÁ_Ï_ÌÌ_È_ËÂÌÚ_44-6" data-name="¡ÂÁ˚ÏˇÌÌ˚È „‡‰ËÂÌÚ 44" x1="313.09" y1="288.5" x2="316.99" y2="429.68" xlink:href="#_ÂÁ_Ï_ÌÌ_È_ËÂÌÚ_44"/>
    <linearGradient id="_ÂÁ_Ï_ÌÌ_È_ËÂÌÚ_44-7" data-name="¡ÂÁ˚ÏˇÌÌ˚È „‡‰ËÂÌÚ 44" x1="228.82" y1="138.43" x2="240.12" y2="183.62" xlink:href="#_ÂÁ_Ï_ÌÌ_È_ËÂÌÚ_44"/>
    <linearGradient id="_ÂÁ_Ï_ÌÌ_È_ËÂÌÚ_44-8" data-name="¡ÂÁ˚ÏˇÌÌ˚È „‡‰ËÂÌÚ 44" x1="300.6" y1="115.09" x2="327.38" y2="206.87" xlink:href="#_ÂÁ_Ï_ÌÌ_È_ËÂÌÚ_44"/>
    <linearGradient id="linear-gradient-31" x1="209.72" y1="266.8" x2="209.72" y2="105.31" gradientUnits="userSpaceOnUse">
      <stop offset="0" stop-color="#402822"/>
      <stop offset=".45" stop-color="#442b25"/>
      <stop offset=".94" stop-color="#513531"/>
      <stop offset="1" stop-color="#543733"/>
    </linearGradient>
    <linearGradient id="linear-gradient-32" x1="324.48" y1="245.98" x2="324.48" y2="113.33" xlink:href="#linear-gradient-31"/>
    <linearGradient id="_ÂÁ_Ï_ÌÌ_È_ËÂÌÚ_44-9" data-name="¡ÂÁ˚ÏˇÌÌ˚È „‡‰ËÂÌÚ 44" x1="146.19" y1="342.23" x2="175.16" y2="683.56" xlink:href="#_ÂÁ_Ï_ÌÌ_È_ËÂÌÚ_44"/>
    <linearGradient id="_ÂÁ_Ï_ÌÌ_È_ËÂÌÚ_44-10" data-name="¡ÂÁ˚ÏˇÌÌ˚È „‡‰ËÂÌÚ 44" x1="195.03" y1="433.18" x2="207.71" y2="582.6" xlink:href="#_ÂÁ_Ï_ÌÌ_È_ËÂÌÚ_44"/>
    <linearGradient id="_ÂÁ_Ï_ÌÌ_È_ËÂÌÚ_44-11" data-name="¡ÂÁ˚ÏˇÌÌ˚È „‡‰ËÂÌÚ 44" x1="118.81" y1="390.59" x2="135.44" y2="586.54" xlink:href="#_ÂÁ_Ï_ÌÌ_È_ËÂÌÚ_44"/>
    <linearGradient id="_ÂÁ_Ï_ÌÌ_È_ËÂÌÚ_48" data-name="¡ÂÁ˚ÏˇÌÌ˚È „‡‰ËÂÌÚ 48" x1="145.57" y1="450.31" x2="110.55" y2="255.07" gradientUnits="userSpaceOnUse">
      <stop offset="0" stop-color="#39231f"/>
      <stop offset=".36" stop-color="#412925"/>
      <stop offset="1" stop-color="#4d322e"/>
    </linearGradient>
    <linearGradient id="_ÂÁ_Ï_ÌÌ_È_ËÂÌÚ_44-12" data-name="¡ÂÁ˚ÏˇÌÌ˚È „‡‰ËÂÌÚ 44" x1="171.74" y1="476.74" x2="173.45" y2="500.3" xlink:href="#_ÂÁ_Ï_ÌÌ_È_ËÂÌÚ_44"/>
    <linearGradient id="_ÂÁ_Ï_ÌÌ_È_ËÂÌÚ_44-13" data-name="¡ÂÁ˚ÏˇÌÌ˚È „‡‰ËÂÌÚ 44" x1="135.72" y1="471.58" x2="136.02" y2="475.69" xlink:href="#_ÂÁ_Ï_ÌÌ_È_ËÂÌÚ_44"/>
  </defs>
  <g id="Layer_1-2" data-name="Layer 1">
    <g>
      <ellipse class="cls-74" cx="246.76" cy="249.87" rx="246.76" ry="249.87"/>
      <g>
        <path class="cls-1" d="m289.85,80.21s10.02,2.33,27.87,39.81,20.59,83.43,20.59,83.43l-56.63,95.35s-51.73,63.81-2.68,96.42c49.05,32.61,65.9,34.4,91.91,36.93,18.16-82.81-8.04-263-21.85-300.44-13.81-37.44-31.97-54.63-59.21-51.51Z"/>
        <polygon class="cls-83" points="154.06 184.95 161.51 412.77 343.16 419.72 337.2 198.04 154.06 184.95"/>
        <g>
          <path class="cls-75" d="m417.32,430.43c-2.15-9.18-4.79-17.57-7.95-24.82-10.99-25.16-36.94-27.71-40.82-28.09-13.56-1.31-67.77.52-73.43-17.58-7.04-22.52-6.95-76.04-6.95-76.04l-83.87-3.14c9.52,15.86,10.39,74.55-5.29,87.33-12.05,9.82-40.16,10.71-59.71,12.87-10.69,1.18-42.21,6.71-50.94,38.71-1.56,5.73-2.8,11.96-3.78,18.52,43.37,38.33,100.09,61.55,162.17,61.55,66.17,0,126.25-26.38,170.56-69.31Z"/>
          <path class="cls-58" d="m301.32,358.16c-1.94-2.51-12.65-14.51-10.6-74.75-1.15,1.41-88.07,3.57-88.07,3.57,0,0,9.88,52.55,0,69.25-12.29,20.78-54.71,21.47-54.71,21.47,7.67,20.06,26.36,30.82,34.64,24.49,21.7-16.61,34.08-35.98,34.08-35.98,51.06-6.41,62.51-33.76,62.51-33.76-5.01,29.4,34.92,48.24,51.67,51.46,17.83,3.43,33.98-6.65,33.98-6.65-44.92-3.83-58.71-12.87-63.51-19.1Z"/>
          <path class="cls-59" d="m246.34,398.96s15.56,2.75,19.65,7.57c0,0-4.5-12.39-19.65-7.57Z"/>
          <path class="cls-46" d="m233.49,384.71c-7.45-2.5-64.36-6.03-74.6-5.03,0,0,71.81,7.2,86.24,16.16,0,0-4.19-8.62-11.64-11.13Z"/>
          <path class="cls-67" d="m200.31,266.99c4.36,25.42,6.48,71.8,6.48,71.8,53.38,40.59,83.87-30,83.87-30l-.26-29.38-90.08-12.42Z"/>
          <path class="cls-28" d="m335.81,373.83s-36.52,58.14-89.46,111.11c-36.11-31.86-73.25-107.6-73.25-107.6l-25.16,3.1s2.31,67.41,31.52,109.88c21.4,6.13,43.97,9.41,67.3,9.41,19.67,0,38.79-2.34,57.13-6.75,40.5-43.22,56.62-116.16,56.62-116.16l-24.7-3Z"/>
          <path class="cls-69" d="m266.52,395.94c13.5-10.52,27-7.51,44.23-9.52,17.23-2,47.02-8.51,47.02-8.51-7.84,1.53-74.81,3.77-80.86,5.28-6.05,1.5-10.4,12.75-10.4,12.75Z"/>
          <path class="cls-81" d="m192.82,443.95c-24.59-15.74-56.62-64.45-56.62-64.45,0,0-34.9,0-53.12,30.09-2.57,4.25-4.72,11.88-6.51,21.2,43.35,41.83,101.73,67.82,166.08,68.88-15.2-20.76-35.84-46.77-49.84-55.73Z"/>
          <path class="cls-31" d="m163.91,377.7s-15.98.21-25.83,1.8c3.19,12,19.7,42.22,36.27,67.84,9.34,14.45,26.37,35.3,38.84,50.08,10.97,1.51,22.17,2.31,33.56,2.31.55,0,1.09-.02,1.64-.02-2.77-3.27-34.24-40.54-50.12-64.49-16.62-25.07-34.36-57.52-34.36-57.52Z"/>
          <path class="cls-81" d="m426.67,420.86c-1.52-6.6-3.26-11.94-5.26-15.24-18.21-30.09-54.45-30.09-54.45-30.09,0,0-32.03,48.71-56.62,64.44-14.86,9.51-37.22,38.25-52.59,59.51,66.55-2.96,126.24-32.6,168.92-78.62Z"/>
          <path class="cls-52" d="m243.35,493.7l-5.72,5.85c3.03.11,6.07.19,9.12.19.27,0,.54,0,.81-.01l.23-.22-4.45-5.8Z"/>
          <path class="cls-54" d="m366.95,375.52l-24.98-2.31s-36.62,55.29-48.39,69.53c-9.84,11.9-35.01,38.45-52.73,56.92,1.96.05,3.93.08,5.9.08,9.15,0,18.17-.52,27.06-1.5,20.02-20.94,45.02-47.47,51.04-55.67,26.48-36.03,42.1-67.04,42.1-67.04Z"/>
          <path class="cls-53" d="m112.73,459.69c.59.39,1.17.77,1.76,1.15l-2.72-8.56s.38,2.85.96,7.41Z"/>
          <path class="cls-51" d="m384.24,457.38c.3-.2.6-.41.9-.61.19-2.16.31-3.42.31-3.42l-1.21,4.04Z"/>
        </g>
        <g>
          <g>
            <path class="cls-80" d="m154.62,202.55c-16.26.93-12.05,18.25-4.9,34.41,4.67,10.57,9.06,22.56,21.03,22.56,0,0-3.09-21.29-6.76-49.26,0,0-6.19-7.89-9.36-7.71Z"/>
            <path class="cls-57" d="m157.77,231.73c4.28-28.76-15.22-30.73-10.79-11.1,0,0,2.69-9.26,5.16-6.49,3.03,3.4-3.25,5.27-.04,20.12,1.67,7.71,9.71,15.85,9.71,15.85,0,0-5.86-6.2-4.04-18.38Z"/>
          </g>
          <g>
            <path class="cls-80" d="m340.76,202.55c-3.17-.18-9.36,7.71-9.36,7.71-3.68,27.97-6.77,49.26-6.77,49.26,11.96,0,16.35-11.99,21.03-22.56,7.15-16.16,11.36-33.48-4.9-34.41Z"/>
            <path class="cls-63" d="m337.62,231.73c1.82,12.19-4.04,18.38-4.04,18.38,0,0,8.04-8.14,9.71-15.85,3.21-14.85-3.07-16.72-.04-20.12,2.47-2.77,5.16,6.49,5.16,6.49,4.43-19.63-15.07-17.66-10.79,11.1Z"/>
          </g>
          <path class="cls-82" d="m258.87,83.25s-82.74,10.8-93.16,34.62c-11.35,25.95-8.11,62.4-4.86,86.25,3.24,23.85,9.73,62.51,15.68,73.45,5.95,10.95,36.04,34.04,42.52,38.91,6.07,4.55,13.84,12.26,28.89,12.26,13.38,0,24.49-7.51,29.86-12.77,7.32-7.16,35.31-28.59,41.26-39.54,5.95-10.95,12.55-48.47,15.79-72.31,3.24-23.85-1.91-54.03-13.27-79.98-10.42-23.83-26.5-38.6-62.71-40.89Z"/>
          <path class="cls-64" d="m197.99,176.63c-11.87-.79-19.74,2.17-25.75,7.09-14.01,11.44-3.74,43.66-3.74,43.66,0,0,27.37,32.5,73.86,12.53-3.71-21.27-6.36-60.75-44.36-63.28Z"/>
          <path class="cls-41" d="m213.49,214.58c-10.66-3.19-51.99-11.88-50.02,1.84,4.36,30.35,8.33,51.21,13.6,60.66,5.52,9.9,21.78,25.48,28.79,26.66,10.86,1.85,22.37-38.12,22.63-51.82.36-19.17-4.34-34.16-15-37.35Z"/>
          <path class="cls-62" d="m246.4,301.48c-7.62.36-13.74,3.1-13.69,6.11.04,3.03,6.22,5.2,13.82,4.84,7.6-.36,13.71-3.09,13.69-6.12-.05-3.02-6.25-5.19-13.82-4.83Z"/>
          <path class="cls-85" d="m240.5,90.78c-107.77,6.63-69.61,102.25-69.61,102.25,0,0,38.27-30.15,111.93-65.63,0,0,8.21,8.02,48.76,92.01,0,0,1.03-3.69,2-8.58,5.67-28.39,11.72-126.49-93.08-120.05Z"/>
          <polygon class="cls-29" points="163.91 178.16 175.95 277.7 184.8 288.32 175.1 166.78 163.91 178.16"/>
          <path class="cls-60" d="m319.57,182.76c-6.05-4.74-13.44-8.97-25.29-7.76-37.99,3.86-37.41,41.76-40.96,63.3,46.63,18.49,73.76-15.18,73.76-15.18,0,0,6.59-29.32-7.5-40.36Z"/>
          <path class="cls-68" d="m178.78,272.19c-5.89-15.12-17.52-65.05-17.52-65.05,0,0,7.62,55.21,14.69,70.56,2.3,5,6.73,10.61,27,26.1,0,0-17.31-14.01-24.17-31.61Z"/>
          <path class="cls-61" d="m320.79,182.99c-16.84-10.7-28.24-3.42-28.24-3.42,34.53-2.42,30.46,30.85,30.46,30.85,0,0,6.76-21.73-2.22-27.43Z"/>
          <path class="cls-2" d="m282.28,214.58c-10.67,3.19-15.36,18.18-15,37.35.26,13.7,9.97,49.56,20.82,47.71,7.01-1.18,25.07-12.66,30.6-22.55,5.27-9.45,9.24-30.31,13.6-60.66,1.97-13.72-39.36-5.04-50.02-1.84Z"/>
          <g>
            <g>
              <path class="cls-71" d="m294.57,193.4c-25.52,0-27.88,15.6-28.41,26.86,1.93.43,3.96.8,7.75,1.97,5.12,1.58,11.13,4.12,19.78,4.03,6.81-.06,21.49-3.14,21.7-17.8.17-11.59-14.67-14.56-20.83-15.07Z"/>
              <path class="cls-12" d="m267.31,219.38c5.57.8,9.29,2.7,13.16,3.75-3.01-2.78-4.75-5.29-4.53-9.87.2-3.96,3.22-8.29,5.79-10.68-9.03,5.34-14.43,16.8-14.43,16.8Z"/>
              <path class="cls-77" d="m267.31,219.38c1.6-1.56,4.44-4.74,8.87-7.38.55-3.09,2.31-5.83,4.81-7.75-8.26,4.02-13.68,15.13-13.68,15.13Z"/>
              <path class="cls-9" d="m301.48,214.56c-.24,4.76-2.75,7.74-6.24,10.05,14.91-1.94,19.14-13.76,19.14-13.76-9.21-7.64-15.83-10.03-22.11-10.59,5.61,1.89,9.55,7.71,9.22,14.3Z"/>
              <path class="cls-10" d="m276.15,211.67c-.11.57-.15.98-.2,1.59-.33,4.43,1.38,7.2,4.53,9.87,1.06.51,10.39,2.41,16.11,1.46,3.65-2.25,6.29-5.12,6.56-9.73.14-2.41-.35-4.7-1.34-6.73-7.24-2.5-16.79-2.45-25.66,3.54Z"/>
              <path class="cls-77" d="m296.55,203.09c2.86,1.59,5.03,4.14,6.02,7.21,5.22,2.18,8.65,5,8.65,5l2.52-5.07c-3.63-4.6-10.57-5.9-17.19-7.13Z"/>
              <path class="cls-11" d="m296.55,203.09c-4-.74-8.16-.79-12-.05-1.24.24-2.43.66-3.55,1.21-2.51,1.93-4.41,4.62-4.9,7.75,3.27-1.95,7.5-3.6,12.67-4.09,5.16-.48,10.04.81,13.89,2.41-.9-3.13-3.24-5.65-6.1-7.24Z"/>
              <path class="cls-55" d="m289.94,203.9c-4.72-.36-8.83,3.06-9.15,7.61-.36,4.56,3.21,8.54,7.92,8.9,4.72.35,8.83-3.07,9.17-7.62.34-4.56-3.21-8.54-7.93-8.89Z"/>
              <path class="cls-78" d="m291.42,208.78c-1.12-.65-2.59-.23-3.28.91-.69,1.15-.34,2.6.78,3.24,1.11.64,2.58.23,3.27-.91.69-1.14.34-2.59-.78-3.24Z"/>
              <path class="cls-78" d="m299.12,212.21c-1.54-.9-3.49-.41-4.37,1.11-.88,1.52-.36,3.49,1.18,4.39,1.53.92,3.49.41,4.37-1.1.88-1.52.36-3.49-1.17-4.4Z"/>
              <path class="cls-40" d="m320.08,199.52s-2.49,5.22-14.93.74c-23.97-7.75-37.34,6.22-37.83,19.12,0,0,7.21-14.17,20.81-15.5,8.28-.82,15.46,2.6,22.61,6.48.08,5.75-7.57,12.77-15.83,14.44,7.07.06,22.8-7.22,23.94-13.2-.44.74-1.94,1.26-3.86.56,0,0,6.75-2.69,5.08-12.64Z"/>
              <path class="cls-70" d="m282.33,194.61c-8.32,2.85-11.92,8.86-11.92,8.86,0,0,3.75-4.93,12.67-7.6,9.27-2.77,22.07-.08,22.07-.08-5.63-2.65-14.5-4.04-22.82-1.19Z"/>
              <path class="cls-34" d="m287.12,202.63c-15.59,2.63-19.81,16.75-19.81,16.75,0,0,6-12.13,20.15-14.65,8.05-1.44,17.15,2.53,23.27,5.63,0,0-9.58-10.1-23.62-7.73Z"/>
            </g>
            <g>
              <path class="cls-45" d="m199.78,193.4c-6.16.51-21,3.48-20.83,15.07.21,14.66,14.89,17.74,21.7,17.8,8.66.08,14.66-2.45,19.78-4.03,3.79-1.17,5.83-1.54,7.75-1.97-.53-11.26-2.89-26.86-28.41-26.86Z"/>
              <path class="cls-20" d="m212.6,202.59c2.57,2.39,5.59,6.72,5.8,10.68.23,4.58-1.51,7.09-4.53,9.87,3.87-1.05,7.59-2.96,13.16-3.75,0,0-5.4-11.46-14.43-16.8Z"/>
              <path class="cls-77" d="m213.35,204.25c2.51,1.93,4.26,4.66,4.81,7.75,4.43,2.64,7.27,5.82,8.87,7.38,0,0-5.42-11.11-13.68-15.13Z"/>
              <path class="cls-16" d="m202.08,200.26c-6.29.56-12.91,2.95-22.11,10.59,0,0,4.23,11.82,19.14,13.76-3.49-2.31-6-5.29-6.24-10.05-.33-6.59,3.61-12.41,9.22-14.3Z"/>
              <path class="cls-44" d="m218.19,211.67c-8.87-5.99-18.41-6.04-25.66-3.54-.99,2.03-1.48,4.32-1.34,6.73.27,4.61,2.91,7.48,6.56,9.73,5.72.95,15.06-.95,16.11-1.46,3.14-2.67,4.86-5.44,4.53-9.87-.05-.61-.1-1.02-.2-1.59Z"/>
              <path class="cls-77" d="m180.6,210.22l2.52,5.07s3.43-2.82,8.65-5c.99-3.06,3.16-5.62,6.02-7.21-6.62,1.23-13.56,2.53-17.19,7.13Z"/>
              <path class="cls-14" d="m213.35,204.25c-1.13-.55-2.32-.98-3.55-1.21-3.84-.74-8-.69-12,.05-2.86,1.59-5.19,4.11-6.1,7.24,3.85-1.6,8.73-2.89,13.89-2.41,5.17.48,9.39,2.14,12.67,4.09-.49-3.13-2.39-5.83-4.9-7.75Z"/>
              <path class="cls-56" d="m204.4,203.9c-4.72.35-8.27,4.33-7.93,8.89.34,4.55,4.44,7.97,9.17,7.62,4.71-.36,8.27-4.34,7.92-8.9-.33-4.56-4.43-7.97-9.16-7.61Z"/>
              <path class="cls-78" d="m206.27,208.78c-1.12-.65-2.59-.23-3.28.91-.69,1.15-.34,2.6.78,3.24,1.11.64,2.58.23,3.27-.91.7-1.14.34-2.59-.78-3.24Z"/>
              <path class="cls-78" d="m213.97,212.21c-1.54-.9-3.49-.41-4.37,1.11-.88,1.52-.36,3.49,1.18,4.39,1.53.92,3.49.41,4.37-1.1.88-1.52.36-3.49-1.17-4.4Z"/>
              <path class="cls-43" d="m189.2,200.26c-12.45,4.48-14.94-.74-14.94-.74-1.67,9.94,5.08,12.64,5.08,12.64-1.91.7-3.42.18-3.86-.56,1.15,5.98,16.87,13.26,23.94,13.2-8.26-1.67-15.91-8.69-15.83-14.44,7.16-3.88,14.33-7.3,22.61-6.48,13.6,1.34,20.81,15.5,20.81,15.5-.49-12.89-13.86-26.86-37.83-19.12Z"/>
              <path class="cls-65" d="m212.02,194.61c-8.32-2.85-17.19-1.46-22.82,1.19,0,0,12.8-2.69,22.07.08,8.92,2.67,12.67,7.6,12.67,7.6,0,0-3.6-6.01-11.92-8.86Z"/>
              <path class="cls-35" d="m207.22,202.63c-14.04-2.37-23.62,7.73-23.62,7.73,6.12-3.11,15.23-7.07,23.27-5.63,14.16,2.53,20.15,14.65,20.15,14.65,0,0-4.22-14.13-19.81-16.75Z"/>
            </g>
            <g>
              <polygon class="cls-13" points="246.09 255.78 232.21 255.78 230.65 257.75 246.92 268.93 262.18 257.43 260.01 255.6 246.09 255.78"/>
              <path class="cls-19" d="m246.09,256.16l-10.14-2.8-5.29.62.49,3.48s6.16-1.91,11.56.37h6.62s6.56-2.53,12.86-.4l.27-3-5.27-1.07-11.1,2.8Z"/>
              <path class="cls-80" d="m261.99,244.57s2.44,4.06,1.41,6.66c-1.03,2.6-7.96.36-10.8,2.13-5.23,3.27-8.39,2.46-13.59,0-3.41-1.62-8.21.41-10.12-2.4-.67-.98-.83-4.45.13-6.39,0,0-2.86,1.6-3.29,5.96-.49,4.99,4.67,7.71,5.46,7.19.79-.52-.66-4.28,4.1-3.61,4.76.67,4.52,3.07,5.29,3.88.77.82,9.15,1.01,10.57.13,1.41-.89,1.03-4.15,5.53-4.01,4.5.14,4.63,3.22,5.27,3.61.64.4,3.31-2,4.09-6.57s-4.05-6.57-4.05-6.57Z"/>
              <path class="cls-30" d="m235.36,242.32c-.09,3.18.29,4.53,1.64,6.61,2.07,3.17,16.6,5.75,19.09-1.51.5-1.45.48-3.71.22-6.57-.29-3.26-20.86-1.71-20.95,1.47Z"/>
            </g>
            <g>
              <path class="cls-15" d="m246.08,270.94c-11.75.21-24.6,3.06-34.27.82,3.62,2.23,11.78,6.43,34.59,5.15,31.04-1.75,30.23-.6,35.52-4.76-10.35,2.24-24.08-1.42-35.84-1.21Z"/>
              <g>
                <path class="cls-72" d="m204.81,269.4c-1.55,5.97,11.22,5.81,21.66,10.33-8.18-3.26-21.06-12.64-21.66-10.33Z"/>
                <path class="cls-66" d="m217.95,277c7.27,10.17,18.35,16.98,31.23,16.6,6.36-.19,18.53-4.36,28.14-16.74,0,0-33.45,6.59-59.37.15Z"/>
                <path class="cls-27" d="m268.46,279.76c10.44-4.51,23.21-4.34,21.67-10.31-.59-2.31-13.48,7.06-21.67,10.31Z"/>
                <path class="cls-76" d="m284.74,270.93c-7.18,3.12-12.93,5.69-20.09,6.06-2.33-.14-31.79-.54-33.66-.46-4.52-.4-13.18-1.98-18.32-4.31-2.61-1.22-5.8-3.13-6.2-2.89-.55.32.26,4.04,4.27,3.81,9.45,1.26,12.04,8.04,17.61,8.63,1.63.23,34.1.11,35.41.02,7.86.16,10.93-7.58,20.46-8.92,4.52.16,4.55-3.5,4.55-3.5-.39-.22-1.71.39-4.03,1.56Z"/>
                <path class="cls-73" d="m246.61,273.05c-12.33-.08-23.71,3.38-35.22-1.46.41.15,9.7,7.71,36.14,8.16,19.97.34,31.05-5.45,34.01-7.43-9.55,4.54-21.24.82-34.92.74Z"/>
                <path class="cls-73" d="m247.01,281.23c-25.88-.64-29.68-6.91-33.22-7.45,4.6,4.27,8.03,7.16,10.55,9.37,6.17,5.41,16.52,8.56,24.01,8.29,9.47-.34,17.21-4.6,20.11-6.71,3.92-2.51,10.9-8.43,14.49-11.64-3.94-.11-11.57,8.73-35.93,8.13Z"/>
                <path class="cls-22" d="m245.89,283.14c-15.12-.49-22.72-3.73-22.27-2.68.85,1.98,3.63,3.43,7.68,5.77,3.81,2.21,9.77,3.91,16.45,3.92,8.23,0,10.8-.73,15.61-3.31,4.05-2.17,7.78-5.1,7.82-5.82.01-.76-9.61,2.64-25.29,2.12Z"/>
                <path class="cls-79" d="m244.47,287.88c-1.68,1.17,5.14,1.72,8.14,1.55,3-.17,8.27-2.17,7.74-3.01-.53-.83-15.88,1.45-15.88,1.45Z"/>
              </g>
            </g>
          </g>
          <path class="cls-80" d="m291.24,304.2c11.15-7.91,26.28-21.5,28.58-26.5,7.07-15.35,14.69-70.56,14.69-70.56,0,0-11.63,49.93-17.52,65.05-6.86,17.6-25.75,32.01-25.75,32.01Z"/>
          <path class="cls-26" d="m247.65,328.36c-11.52-.38-16.06-3.65-20.5-6.16-2.22-1.26-24.19-18.39-24.19-18.39,0,0,16.97,18.16,24.19,22.23,6.63,3.74,12.97,8.49,20.7,8.49,6.14,0,15.96-3.64,24.3-10.52,5.11-4.22,18.4-19.14,18.4-19.14-1.6,1.54-18.36,14.87-21.67,17.09-3.15,2.11-10.01,6.78-21.23,6.41Z"/>
          <path class="cls-42" d="m274.95,178.38c-2.41,1.19-3.78,3.31-3.38,7.3-1.13-2.36-.62-4.03.38-5.61-4.06,3.41-3.56,9.08,1.07,7.5,5.26-1.8,25.96-7.63,30.21-7.74,6.59-.15,15.78,2.23,18.35,3.89,0,0-10.44-9.69-17.71-10.45-6.67-.71-23.74,3.25-28.93,5.12Z"/>
          <path class="cls-33" d="m221.17,180.06c1.01,1.58,1.51,3.26.38,5.61.4-3.99-.96-6.1-3.37-7.3-5.18-1.87-22.23-5.83-28.89-5.12-7.25.77-17.68,10.45-17.68,10.45,2.57-1.65,11.74-4.04,18.33-3.89,4.24.11,24.91,5.94,30.17,7.74,4.62,1.58,5.12-4.1,1.07-7.5Z"/>
          <path class="cls-18" d="m218.25,70.85c-49.24,7.8-54.85,71.24-50.67,110.75,56.69-49.44,123.3-63.52,123.3-63.52l-1.03-37.87s-22.36-17.16-71.61-9.36Z"/>
          <path class="cls-21" d="m289.85,80.21l1.03,37.87c23.76,32.76,42.7,92.74,42.7,92.74.93-1.64,1.81-4.97,4.74-7.38-4.3-136.07-48.46-123.24-48.46-123.24Z"/>
          <path class="cls-17" d="m171.61,183.72c1.2-60.93,30.26-109.91,30.26-109.91,0,0-53.86,25.61-69.34,89.26-7.6,31.27-24.8,177.44-11.15,302.04,25.28,15.13,53.45,25.82,83.47,31.03-15.77-69.26-34.32-257.61-33.24-312.42Z"/>
        </g>
        <path class="cls-24" d="m165.78,142.4c-19.51,92.2-4.31,205.98,23.42,300.38-20.29-91.78-28.39-204.83-23.42-300.38Z"/>
        <path class="cls-8" d="m156.5,136.19c-29.45,71.45-12.64,254.01,20.44,316.19-29-127.76-36.82-228.55-20.44-316.19Z"/>
        <path class="cls-25" d="m178.95,152.49c29.82-16.29,63.41-32.76,104.72-45.43-35.05,0-88.12,23.94-104.72,45.43Z"/>
        <path class="cls-23" d="m182.13,132.99c27.07-17.53,66.49-33.54,97.37-41.07-29.18-3.75-85.09,20.96-97.37,41.07Z"/>
        <path class="cls-7" d="m298.23,102.67c7.11,21.63,27.47,60.52,34.34,73.84-3.97-15.08-17.14-62.87-34.34-73.84Z"/>
        <path class="cls-3" d="m354.24,200.26c-2.24-28.6-9.02-54.91-18.04-74.4,5.12,22.26,8.45,44.33,18.04,74.4Z"/>
        <path class="cls-5" d="m364.94,367.63c-.31-33.16-.74-97.61-7.48-138.72-3.84,36.1-1.5,96.07,7.48,138.72Z"/>
        <path class="cls-32" d="m327.28,359.07c1.74-25.18,3.53-56.5-3.17-82.16-3.88,23.44-2.14,55.53,3.17,82.16Z"/>
        <path class="cls-36" d="m315.37,362.57c0-18.88,4.6-42.44-2.1-68.1-3.88,23.44-1.54,56.43,2.1,68.1Z"/>
        <path class="cls-38" d="m171.61,178.16s59.82-47.95,119.27-60.08c0,0-73.39,14.21-118.24,48.74l-1.03,11.34Z"/>
        <path class="cls-39" d="m333.58,210.83s2.56-4.23,3.63-6.58c0,0-17.12-57.65-46.32-86.17,0,0,26.85,41.98,42.7,92.74Z"/>
        <path class="cls-6" d="m218.44,65.35c-80.99,10.59-88.85,112.81-88.85,112.81,0,0,24.47-89.64,88.66-101.6,53.49-9.97,71.61,3.64,71.61,3.64,0,0-13.95-22.37-71.42-14.86Z"/>
        <path class="cls-4" d="m289.85,80.21c53.31,5.72,69.25,92.97,69.25,92.97-15.94-110.13-69.25-92.97-69.25-92.97Z"/>
        <path class="cls-37" d="m155.07,481.91c3.45,1.4,6.95,2.72,10.48,3.97-10.37-47.69-23.49-166.28-30.05-219.55,4.52,101.73,11.28,180.6,19.57,215.58Z"/>
        <path class="cls-49" d="m198.51,494.95c2.53.51,5.08.97,7.64,1.4-11.57-52.16-21.79-135.18-24.85-167.83,0,0,6.19,113.7,17.21,166.43Z"/>
        <path class="cls-48" d="m121.59,465.23c1.92,1.14,3.85,2.26,5.79,3.36-5.07-44.41-10.01-129.56-10.53-143.95-2.09,37.25.61,98.31,4.74,140.6Z"/>
        <path class="cls-84" d="m139.2,464.34l-12.25-171.26s-6.5,94.43,12.25,171.26Z"/>
        <path class="cls-50" d="m170.63,487.6c1.36.45,2.73.89,4.1,1.31-1.85-4.43-3.59-9.43-5.02-15.08,0,0-.14,6.08.92,13.77Z"/>
        <path class="cls-47" d="m135.52,472.95c.21.11.42.21.63.32-.44-1.63-.64-2.56-.64-2.56,0,.77,0,1.51.02,2.25Z"/>
      </g>
    </g>
  </g>
</svg>