<?xml version="1.0" encoding="UTF-8"?>
<svg id="Layer_2" data-name="Layer 2" xmlns="http://www.w3.org/2000/svg" xmlns:xlink="http://www.w3.org/1999/xlink" viewBox="0 0 493.51 499.74">
  <defs>
    <style>
      .cls-1 {
        fill: url(#linear-gradient);
      }

      .cls-1, .cls-2, .cls-3, .cls-4, .cls-5, .cls-6, .cls-7, .cls-8, .cls-9, .cls-10, .cls-11, .cls-12, .cls-13, .cls-14, .cls-15, .cls-16, .cls-17, .cls-18, .cls-19, .cls-20, .cls-21, .cls-22, .cls-23, .cls-24, .cls-25, .cls-26, .cls-27, .cls-28, .cls-29, .cls-30, .cls-31, .cls-32, .cls-33, .cls-34, .cls-35, .cls-36, .cls-37, .cls-38, .cls-39, .cls-40, .cls-41, .cls-42, .cls-43, .cls-44, .cls-45, .cls-46, .cls-47, .cls-48, .cls-49, .cls-50, .cls-51, .cls-52, .cls-53, .cls-54, .cls-55, .cls-56, .cls-57, .cls-58, .cls-59, .cls-60, .cls-61, .cls-62, .cls-63, .cls-64, .cls-65, .cls-66, .cls-67, .cls-68, .cls-69, .cls-70, .cls-71, .cls-72, .cls-73, .cls-74, .cls-75, .cls-76, .cls-77, .cls-78, .cls-79, .cls-80, .cls-81, .cls-82, .cls-83, .cls-84, .cls-85, .cls-86, .cls-87, .cls-88, .cls-89, .cls-90, .cls-91, .cls-92, .cls-93, .cls-94, .cls-95, .cls-96, .cls-97, .cls-98, .cls-99, .cls-100, .cls-101, .cls-102, .cls-103, .cls-104 {
        stroke-width: 0px;
      }

      .cls-2 {
        fill: url(#linear-gradient-33);
      }

      .cls-3 {
        fill: url(#linear-gradient-29);
      }

      .cls-4 {
        fill: url(#linear-gradient-32);
      }

      .cls-5 {
        fill: url(#linear-gradient-30);
      }

      .cls-6 {
        fill: url(#linear-gradient-31);
      }

      .cls-7 {
        fill: url(#linear-gradient-28);
      }

      .cls-8 {
        fill: url(#linear-gradient-25);
      }

      .cls-9 {
        fill: url(#linear-gradient-11);
      }

      .cls-10 {
        fill: url(#linear-gradient-12);
      }

      .cls-11 {
        fill: url(#linear-gradient-13);
      }

      .cls-12 {
        fill: url(#linear-gradient-10);
      }

      .cls-13 {
        fill: url(#linear-gradient-17);
      }

      .cls-14 {
        fill: url(#linear-gradient-16);
      }

      .cls-15 {
        fill: url(#linear-gradient-19);
      }

      .cls-16 {
        fill: url(#linear-gradient-15);
      }

      .cls-17 {
        fill: url(#linear-gradient-23);
      }

      .cls-18 {
        fill: url(#linear-gradient-21);
      }

      .cls-19 {
        fill: url(#linear-gradient-18);
      }

      .cls-20 {
        fill: url(#linear-gradient-14);
      }

      .cls-21 {
        fill: url(#linear-gradient-22);
      }

      .cls-22 {
        fill: url(#linear-gradient-20);
      }

      .cls-23 {
        fill: url(#linear-gradient-27);
      }

      .cls-24 {
        fill: url(#linear-gradient-24);
      }

      .cls-25 {
        fill: url(#linear-gradient-26);
      }

      .cls-26 {
        fill: url(#_ÂÁ_Ï_ÌÌ_È_ËÂÌÚ_359);
      }

      .cls-27 {
        fill: url(#_ÂÁ_Ï_ÌÌ_È_ËÂÌÚ_135);
      }

      .cls-28 {
        fill: url(#_ÂÁ_Ï_ÌÌ_È_ËÂÌÚ_137);
      }

      .cls-29 {
        fill: url(#_ÂÁ_Ï_ÌÌ_È_ËÂÌÚ_131);
      }

      .cls-30 {
        fill: url(#_ÂÁ_Ï_ÌÌ_È_ËÂÌÚ_160);
      }

      .cls-31 {
        fill: url(#_ÂÁ_Ï_ÌÌ_È_ËÂÌÚ_133);
      }

      .cls-32 {
        fill: url(#_ÂÁ_Ï_ÌÌ_È_ËÂÌÚ_130);
      }

      .cls-33 {
        fill: url(#_ÂÁ_Ï_ÌÌ_È_ËÂÌÚ_106);
      }

      .cls-34 {
        fill: url(#_ÂÁ_Ï_ÌÌ_È_ËÂÌÚ_129);
      }

      .cls-35 {
        fill: url(#_ÂÁ_Ï_ÌÌ_È_ËÂÌÚ_119);
      }

      .cls-36 {
        fill: url(#_ÂÁ_Ï_ÌÌ_È_ËÂÌÚ_122);
      }

      .cls-37 {
        fill: url(#_ÂÁ_Ï_ÌÌ_È_ËÂÌÚ_128);
      }

      .cls-38 {
        fill: url(#_ÂÁ_Ï_ÌÌ_È_ËÂÌÚ_123);
      }

      .cls-39 {
        fill: url(#_ÂÁ_Ï_ÌÌ_È_ËÂÌÚ_124);
      }

      .cls-40 {
        fill: url(#_ÂÁ_Ï_ÌÌ_È_ËÂÌÚ_209);
      }

      .cls-41 {
        fill: url(#_ÂÁ_Ï_ÌÌ_È_ËÂÌÚ_69-2);
      }

      .cls-42 {
        fill: url(#_ÂÁ_Ï_ÌÌ_È_ËÂÌÚ_69-4);
      }

      .cls-43 {
        fill: url(#_ÂÁ_Ï_ÌÌ_È_ËÂÌÚ_69-3);
      }

      .cls-44 {
        fill: url(#_ÂÁ_Ï_ÌÌ_È_ËÂÌÚ_69-5);
      }

      .cls-45 {
        fill: url(#_ÂÁ_Ï_ÌÌ_È_ËÂÌÚ_1061);
      }

      .cls-46 {
        fill: url(#_ÂÁ_Ï_ÌÌ_È_ËÂÌÚ_1032);
      }

      .cls-47 {
        fill: url(#_ÂÁ_Ï_ÌÌ_È_ËÂÌÚ_1036);
      }

      .cls-48 {
        fill: url(#_ÂÁ_Ï_ÌÌ_È_ËÂÌÚ_1038);
      }

      .cls-49 {
        fill: url(#_ÂÁ_Ï_ÌÌ_È_ËÂÌÚ_1033);
      }

      .cls-50 {
        fill: url(#_ÂÁ_Ï_ÌÌ_È_ËÂÌÚ_1040);
      }

      .cls-51 {
        fill: url(#_ÂÁ_Ï_ÌÌ_È_ËÂÌÚ_1200);
      }

      .cls-52 {
        fill: url(#_ÂÁ_Ï_ÌÌ_È_ËÂÌÚ_1204);
      }

      .cls-53 {
        fill: url(#_ÂÁ_Ï_ÌÌ_È_ËÂÌÚ_119-2);
      }

      .cls-54 {
        fill: url(#_ÂÁ_Ï_ÌÌ_È_ËÂÌÚ_119-3);
      }

      .cls-55 {
        fill: url(#_ÂÁ_Ï_ÌÌ_È_ËÂÌÚ_135-2);
      }

      .cls-56 {
        fill: url(#_ÂÁ_Ï_ÌÌ_È_ËÂÌÚ_128-2);
      }

      .cls-57 {
        fill: url(#_ÂÁ_Ï_ÌÌ_È_ËÂÌÚ_133-2);
      }

      .cls-58 {
        fill: url(#_ÂÁ_Ï_ÌÌ_È_ËÂÌÚ_131-3);
      }

      .cls-59 {
        fill: url(#_ÂÁ_Ï_ÌÌ_È_ËÂÌÚ_131-2);
      }

      .cls-60 {
        fill: url(#_ÂÁ_Ï_ÌÌ_È_ËÂÌÚ_131-4);
      }

      .cls-61 {
        fill: url(#_ÂÁ_Ï_ÌÌ_È_ËÂÌÚ_130-2);
      }

      .cls-62 {
        fill: url(#_ÂÁ_Ï_ÌÌ_È_ËÂÌÚ_123-7);
      }

      .cls-63 {
        fill: url(#_ÂÁ_Ï_ÌÌ_È_ËÂÌÚ_123-2);
      }

      .cls-64 {
        fill: url(#_ÂÁ_Ï_ÌÌ_È_ËÂÌÚ_123-5);
      }

      .cls-65 {
        fill: url(#_ÂÁ_Ï_ÌÌ_È_ËÂÌÚ_123-6);
      }

      .cls-66 {
        fill: url(#_ÂÁ_Ï_ÌÌ_È_ËÂÌÚ_123-3);
      }

      .cls-67 {
        fill: url(#_ÂÁ_Ï_ÌÌ_È_ËÂÌÚ_123-4);
      }

      .cls-68 {
        fill: url(#_ÂÁ_Ï_ÌÌ_È_ËÂÌÚ_124-2);
      }

      .cls-69 {
        fill: url(#_ÂÁ_Ï_ÌÌ_È_ËÂÌÚ_124-3);
      }

      .cls-70 {
        fill: url(#_ÂÁ_Ï_ÌÌ_È_ËÂÌÚ_129-2);
      }

      .cls-71 {
        fill: url(#_ÂÁ_Ï_ÌÌ_È_ËÂÌÚ_122-2);
      }

      .cls-72 {
        fill: url(#_ÂÁ_Ï_ÌÌ_È_ËÂÌÚ_122-3);
      }

      .cls-73 {
        fill: url(#_ÂÁ_Ï_ÌÌ_È_ËÂÌÚ_122-4);
      }

      .cls-74 {
        fill: url(#linear-gradient-4);
      }

      .cls-75 {
        fill: url(#linear-gradient-2);
      }

      .cls-76 {
        fill: url(#linear-gradient-3);
      }

      .cls-77 {
        fill: url(#linear-gradient-8);
      }

      .cls-78 {
        fill: url(#linear-gradient-9);
      }

      .cls-79 {
        fill: url(#linear-gradient-7);
      }

      .cls-80 {
        fill: url(#linear-gradient-5);
      }

      .cls-81 {
        fill: url(#linear-gradient-6);
      }

      .cls-82 {
        fill: url(#_ÂÁ_Ï_ÌÌ_È_ËÂÌÚ_1036-2);
      }

      .cls-83 {
        fill: url(#_ÂÁ_Ï_ÌÌ_È_ËÂÌÚ_1061-2);
      }

      .cls-84 {
        fill: url(#_ÂÁ_Ï_ÌÌ_È_ËÂÌÚ_1204-7);
      }

      .cls-85 {
        fill: url(#_ÂÁ_Ï_ÌÌ_È_ËÂÌÚ_1204-9);
      }

      .cls-86 {
        fill: url(#_ÂÁ_Ï_ÌÌ_È_ËÂÌÚ_1204-2);
      }

      .cls-87 {
        fill: url(#_ÂÁ_Ï_ÌÌ_È_ËÂÌÚ_1204-4);
      }

      .cls-88 {
        fill: url(#_ÂÁ_Ï_ÌÌ_È_ËÂÌÚ_1204-3);
      }

      .cls-89 {
        fill: url(#_ÂÁ_Ï_ÌÌ_È_ËÂÌÚ_1204-6);
      }

      .cls-90 {
        fill: url(#_ÂÁ_Ï_ÌÌ_È_ËÂÌÚ_1204-5);
      }

      .cls-91 {
        fill: url(#_ÂÁ_Ï_ÌÌ_È_ËÂÌÚ_1204-8);
      }

      .cls-92 {
        fill: url(#_ÂÁ_Ï_ÌÌ_È_ËÂÌÚ_1200-2);
      }

      .cls-93 {
        fill: #f86d78;
      }

      .cls-94 {
        fill: #f6ece6;
      }

      .cls-95 {
        fill: #f7d4ab;
      }

      .cls-96 {
        fill: #961b27;
      }

      .cls-97 {
        fill: #6da1d8;
      }

      .cls-98 {
        fill: #0f0f0f;
      }

      .cls-99 {
        fill: #ddd;
      }

      .cls-100 {
        fill: #fff;
      }

      .cls-101 {
        fill: #ff9aa2;
      }

      .cls-102 {
        fill: #f0c499;
      }

      .cls-103 {
        fill: url(#_ÂÁ_Ï_ÌÌ_È_ËÂÌÚ_34);
      }

      .cls-104 {
        fill: url(#_ÂÁ_Ï_ÌÌ_È_ËÂÌÚ_69);
      }
    </style>
    <linearGradient id="_ÂÁ_Ï_ÌÌ_È_ËÂÌÚ_123" data-name="¡ÂÁ˚ÏˇÌÌ˚È „‡‰ËÂÌÚ 123" x1="383.99" y1="361.75" x2="372.72" y2="286.93" gradientUnits="userSpaceOnUse">
      <stop offset="0" stop-color="#a3753d"/>
      <stop offset=".31" stop-color="#b68849"/>
      <stop offset="1" stop-color="#e0b163"/>
    </linearGradient>
    <linearGradient id="_ÂÁ_Ï_ÌÌ_È_ËÂÌÚ_123-2" data-name="¡ÂÁ˚ÏˇÌÌ˚È „‡‰ËÂÌÚ 123" x1="136.87" y1="369.08" x2="122.43" y2="278.31" xlink:href="#_ÂÁ_Ï_ÌÌ_È_ËÂÌÚ_123"/>
    <linearGradient id="_ÂÁ_Ï_ÌÌ_È_ËÂÌÚ_122" data-name="¡ÂÁ˚ÏˇÌÌ˚È „‡‰ËÂÌÚ 122" x1="239.2" y1="368.4" x2="230.84" y2="262.82" gradientUnits="userSpaceOnUse">
      <stop offset="0" stop-color="#a3763d"/>
      <stop offset=".14" stop-color="#966b36"/>
      <stop offset=".44" stop-color="#80592c"/>
      <stop offset=".73" stop-color="#744e27"/>
      <stop offset="1" stop-color="#704b25"/>
    </linearGradient>
    <linearGradient id="_ÂÁ_Ï_ÌÌ_È_ËÂÌÚ_122-2" data-name="¡ÂÁ˚ÏˇÌÌ˚È „‡‰ËÂÌÚ 122" x1="346.48" y1="369.71" x2="307.46" y2="182.96" xlink:href="#_ÂÁ_Ï_ÌÌ_È_ËÂÌÚ_122"/>
    <linearGradient id="linear-gradient" x1="135.03" y1="230.28" x2="298.81" y2="437.32" gradientUnits="userSpaceOnUse">
      <stop offset="0" stop-color="#f0c499"/>
      <stop offset=".52" stop-color="#f1c69b"/>
      <stop offset=".85" stop-color="#f4cea4"/>
      <stop offset="1" stop-color="#f7d4ab"/>
    </linearGradient>
    <linearGradient id="linear-gradient-2" x1="170.36" y1="276.47" x2="289.89" y2="427.57" xlink:href="#linear-gradient"/>
    <linearGradient id="_ÂÁ_Ï_ÌÌ_È_ËÂÌÚ_1204" data-name="¡ÂÁ˚ÏˇÌÌ˚È „‡‰ËÂÌÚ 1204" x1="285.94" y1="308.45" x2="308.36" y2="387.22" gradientUnits="userSpaceOnUse">
      <stop offset="0" stop-color="#dba379"/>
      <stop offset=".49" stop-color="#e3b086"/>
      <stop offset="1" stop-color="#f0c499"/>
    </linearGradient>
    <linearGradient id="_ÂÁ_Ï_ÌÌ_È_ËÂÌÚ_1204-2" data-name="¡ÂÁ˚ÏˇÌÌ˚È „‡‰ËÂÌÚ 1204" x1="187.08" y1="336.58" x2="209.5" y2="415.35" xlink:href="#_ÂÁ_Ï_ÌÌ_È_ËÂÌÚ_1204"/>
    <linearGradient id="linear-gradient-3" x1="361.31" y1="453.08" x2="353.75" y2="331.1" xlink:href="#linear-gradient"/>
    <linearGradient id="linear-gradient-4" x1="148.88" y1="470.32" x2="140.93" y2="342.07" xlink:href="#linear-gradient"/>
    <linearGradient id="_ÂÁ_Ï_ÌÌ_È_ËÂÌÚ_1204-3" data-name="¡ÂÁ˚ÏˇÌÌ˚È „‡‰ËÂÌÚ 1204" x1="168.95" y1="284.74" x2="281.35" y2="343.34" xlink:href="#_ÂÁ_Ï_ÌÌ_È_ËÂÌÚ_1204"/>
    <linearGradient id="_ÂÁ_Ï_ÌÌ_È_ËÂÌÚ_209" data-name="¡ÂÁ˚ÏˇÌÌ˚È „‡‰ËÂÌÚ 209" x1="301.42" y1="403.06" x2="244.17" y2="411.5" gradientUnits="userSpaceOnUse">
      <stop offset="0" stop-color="#f7d4ab"/>
      <stop offset="1" stop-color="#f0c499"/>
    </linearGradient>
    <linearGradient id="_ÂÁ_Ï_ÌÌ_È_ËÂÌÚ_160" data-name="¡ÂÁ˚ÏˇÌÌ˚È „‡‰ËÂÌÚ 160" x1="259.47" y1="462.91" x2="249.23" y2="361.32" gradientUnits="userSpaceOnUse">
      <stop offset="0" stop-color="#6da1d8"/>
      <stop offset="1" stop-color="#5186c2"/>
    </linearGradient>
    <linearGradient id="_ÂÁ_Ï_ÌÌ_È_ËÂÌÚ_1204-4" data-name="¡ÂÁ˚ÏˇÌÌ˚È „‡‰ËÂÌÚ 1204" x1="152.26" y1="197.13" x2="168.97" y2="268.91" xlink:href="#_ÂÁ_Ï_ÌÌ_È_ËÂÌÚ_1204"/>
    <linearGradient id="linear-gradient-5" x1="165.96" y1="475.58" x2="168.16" y2="552.78" gradientUnits="userSpaceOnUse">
      <stop offset="0" stop-color="#dba379"/>
      <stop offset=".49" stop-color="#e3b086"/>
      <stop offset="1" stop-color="#f0c499"/>
    </linearGradient>
    <linearGradient id="linear-gradient-6" x1="348.23" y1="471.99" x2="350.41" y2="548.06" xlink:href="#linear-gradient-5"/>
    <linearGradient id="_ÂÁ_Ï_ÌÌ_È_ËÂÌÚ_34" data-name="¡ÂÁ˚ÏˇÌÌ˚È „‡‰ËÂÌÚ 34" x1="250.76" y1="130.02" x2="250.45" y2="341.77" gradientUnits="userSpaceOnUse">
      <stop offset="0" stop-color="#ffd9b3"/>
      <stop offset=".32" stop-color="#f9d5ad"/>
      <stop offset="1" stop-color="#f7d4ab"/>
    </linearGradient>
    <linearGradient id="linear-gradient-7" x1="296.81" y1="252.38" x2="286.87" y2="197.3" gradientUnits="userSpaceOnUse">
      <stop offset="0" stop-color="#f7d4ab"/>
      <stop offset=".52" stop-color="#f5d1a8"/>
      <stop offset=".85" stop-color="#f2c99f"/>
      <stop offset="1" stop-color="#f0c499"/>
    </linearGradient>
    <linearGradient id="linear-gradient-8" x1="211.71" y1="262.01" x2="201.1" y2="196.32" xlink:href="#linear-gradient-7"/>
    <radialGradient id="_ÂÁ_Ï_ÌÌ_È_ËÂÌÚ_1032" data-name="¡ÂÁ˚ÏˇÌÌ˚È „‡‰ËÂÌÚ 1032" cx="198.53" cy="-626.41" fx="198.53" fy="-626.41" r="39.74" gradientTransform="translate(0 963.66) scale(1 1.12)" gradientUnits="userSpaceOnUse">
      <stop offset="0" stop-color="#f9b38e"/>
      <stop offset=".49" stop-color="#f7c59e"/>
      <stop offset=".81" stop-color="#f7d4ab"/>
    </radialGradient>
    <linearGradient id="_ÂÁ_Ï_ÌÌ_È_ËÂÌÚ_135" data-name="¡ÂÁ˚ÏˇÌÌ˚È „‡‰ËÂÌÚ 135" x1="229.63" y1="115.95" x2="231.2" y2="248.09" gradientUnits="userSpaceOnUse">
      <stop offset="0" stop-color="#f7d4ab"/>
      <stop offset=".14" stop-color="#f4cea4"/>
      <stop offset=".49" stop-color="#f1c69b"/>
      <stop offset="1" stop-color="#f0c499"/>
    </linearGradient>
    <radialGradient id="_ÂÁ_Ï_ÌÌ_È_ËÂÌÚ_1033" data-name="¡ÂÁ˚ÏˇÌÌ˚È „‡‰ËÂÌÚ 1033" cx="299.68" cy="-595.69" fx="299.68" fy="-595.69" r="39.74" gradientTransform="translate(0 926.66) scale(1 1.11)" gradientUnits="userSpaceOnUse">
      <stop offset="0" stop-color="#f9b38e"/>
      <stop offset=".52" stop-color="#f7c59e"/>
      <stop offset=".85" stop-color="#f7d4ab"/>
    </radialGradient>
    <linearGradient id="linear-gradient-9" x1="284.7" y1="245.45" x2="318.5" y2="242.41" xlink:href="#linear-gradient-7"/>
    <linearGradient id="_ÂÁ_Ï_ÌÌ_È_ËÂÌÚ_137" data-name="¡ÂÁ˚ÏˇÌÌ˚È „‡‰ËÂÌÚ 137" x1="284.68" y1="375.36" x2="324.18" y2="240.15" gradientUnits="userSpaceOnUse">
      <stop offset="0" stop-color="#f0c498"/>
      <stop offset=".85" stop-color="#f5b690"/>
      <stop offset="1" stop-color="#f7b38f"/>
    </linearGradient>
    <linearGradient id="_ÂÁ_Ï_ÌÌ_È_ËÂÌÚ_1204-5" data-name="¡ÂÁ˚ÏˇÌÌ˚È „‡‰ËÂÌÚ 1204" x1="339.79" y1="265.58" x2="274.84" y2="138.35" xlink:href="#_ÂÁ_Ï_ÌÌ_È_ËÂÌÚ_1204"/>
    <linearGradient id="linear-gradient-10" x1="230.85" y1="321.98" x2="266.05" y2="321.98" gradientUnits="userSpaceOnUse">
      <stop offset="0" stop-color="#ffd9b3"/>
      <stop offset=".68" stop-color="#fcd7b0"/>
      <stop offset="1" stop-color="#f7d4ab"/>
    </linearGradient>
    <linearGradient id="_ÂÁ_Ï_ÌÌ_È_ËÂÌÚ_135-2" data-name="¡ÂÁ˚ÏˇÌÌ˚È „‡‰ËÂÌÚ 135" x1="259.01" y1="218.42" x2="181.53" y2="279.56" xlink:href="#_ÂÁ_Ï_ÌÌ_È_ËÂÌÚ_135"/>
    <linearGradient id="linear-gradient-11" x1="297.39" y1="207.15" x2="329.43" y2="207.15" xlink:href="#linear-gradient-7"/>
    <linearGradient id="_ÂÁ_Ï_ÌÌ_È_ËÂÌÚ_1204-6" data-name="¡ÂÁ˚ÏˇÌÌ˚È „‡‰ËÂÌÚ 1204" x1="313.02" y1="215.69" x2="267.71" y2="233.29" xlink:href="#_ÂÁ_Ï_ÌÌ_È_ËÂÌÚ_1204"/>
    <linearGradient id="_ÂÁ_Ï_ÌÌ_È_ËÂÌÚ_131" data-name="¡ÂÁ˚ÏˇÌÌ˚È „‡‰ËÂÌÚ 131" x1="268.77" y1="226.25" x2="282.67" y2="226.25" gradientUnits="userSpaceOnUse">
      <stop offset="0" stop-color="#fff"/>
      <stop offset=".41" stop-color="#fcfcfc"/>
      <stop offset=".69" stop-color="#f3f3f3"/>
      <stop offset=".92" stop-color="#e4e4e4"/>
      <stop offset="1" stop-color="#ddd"/>
    </linearGradient>
    <linearGradient id="_ÂÁ_Ï_ÌÌ_È_ËÂÌÚ_133" data-name="¡ÂÁ˚ÏˇÌÌ˚È „‡‰ËÂÌÚ 133" x1="270.68" y1="229.96" x2="274.22" y2="232.5" gradientUnits="userSpaceOnUse">
      <stop offset="0" stop-color="#fff"/>
      <stop offset=".46" stop-color="#f2f2f2"/>
      <stop offset="1" stop-color="#ddd"/>
    </linearGradient>
    <linearGradient id="_ÂÁ_Ï_ÌÌ_È_ËÂÌÚ_131-2" data-name="¡ÂÁ˚ÏˇÌÌ˚È „‡‰ËÂÌÚ 131" x1="299.53" y1="225.84" x2="310.59" y2="225.84" xlink:href="#_ÂÁ_Ï_ÌÌ_È_ËÂÌÚ_131"/>
    <linearGradient id="_ÂÁ_Ï_ÌÌ_È_ËÂÌÚ_1036" data-name="¡ÂÁ˚ÏˇÌÌ˚È „‡‰ËÂÌÚ 1036" x1="306.82" y1="238.16" x2="274.37" y2="217.88" gradientUnits="userSpaceOnUse">
      <stop offset="0" stop-color="#96adc6"/>
      <stop offset="1" stop-color="#6e8295"/>
    </linearGradient>
    <linearGradient id="_ÂÁ_Ï_ÌÌ_È_ËÂÌÚ_130" data-name="¡ÂÁ˚ÏˇÌÌ˚È „‡‰ËÂÌÚ 130" x1="279" y1="226.2" x2="301.96" y2="226.2" gradientUnits="userSpaceOnUse">
      <stop offset="0" stop-color="#7a90a5"/>
      <stop offset="1" stop-color="#a8c3dd"/>
    </linearGradient>
    <linearGradient id="_ÂÁ_Ï_ÌÌ_È_ËÂÌÚ_129" data-name="¡ÂÁ˚ÏˇÌÌ˚È „‡‰ËÂÌÚ 129" x1="291.09" y1="230.37" x2="293.6" y2="249.17" gradientUnits="userSpaceOnUse">
      <stop offset="0" stop-color="#6e8295"/>
      <stop offset="1" stop-color="#96adc6"/>
    </linearGradient>
    <radialGradient id="_ÂÁ_Ï_ÌÌ_È_ËÂÌÚ_128" data-name="¡ÂÁ˚ÏˇÌÌ˚È „‡‰ËÂÌÚ 128" cx="290.07" cy="225.18" fx="290.07" fy="225.18" r="8.2" gradientUnits="userSpaceOnUse">
      <stop offset="0" stop-color="#666"/>
      <stop offset="1" stop-color="#1d1d1d"/>
    </radialGradient>
    <linearGradient id="_ÂÁ_Ï_ÌÌ_È_ËÂÌÚ_124" data-name="¡ÂÁ˚ÏˇÌÌ˚È „‡‰ËÂÌÚ 124" x1="268.79" y1="224.86" x2="319.87" y2="224.86" gradientUnits="userSpaceOnUse">
      <stop offset="0" stop-color="#5c3c20"/>
      <stop offset=".34" stop-color="#472f18"/>
      <stop offset=".68" stop-color="#3b2713"/>
      <stop offset="1" stop-color="#372512"/>
    </linearGradient>
    <linearGradient id="_ÂÁ_Ï_ÌÌ_È_ËÂÌÚ_1204-7" data-name="¡ÂÁ˚ÏˇÌÌ˚È „‡‰ËÂÌÚ 1204" x1="290.96" y1="210.69" x2="257.17" y2="253.69" xlink:href="#_ÂÁ_Ï_ÌÌ_È_ËÂÌÚ_1204"/>
    <linearGradient id="_ÂÁ_Ï_ÌÌ_È_ËÂÌÚ_124-2" data-name="¡ÂÁ˚ÏˇÌÌ˚È „‡‰ËÂÌÚ 124" x1="291.99" y1="237.04" x2="289.98" y2="228.13" xlink:href="#_ÂÁ_Ï_ÌÌ_È_ËÂÌÚ_124"/>
    <linearGradient id="linear-gradient-12" x1="251.46" y1="286.65" x2="254.68" y2="310.2" gradientUnits="userSpaceOnUse">
      <stop offset="0" stop-color="#ffd9b3"/>
      <stop offset="1" stop-color="#f7d4ab"/>
    </linearGradient>
    <linearGradient id="_ÂÁ_Ï_ÌÌ_È_ËÂÌÚ_1061" data-name="¡ÂÁ˚ÏˇÌÌ˚È „‡‰ËÂÌÚ 1061" x1="227.12" y1="216.16" x2="186.84" y2="231.8" gradientUnits="userSpaceOnUse">
      <stop offset="0" stop-color="#f0c499"/>
      <stop offset=".51" stop-color="#e3b086"/>
      <stop offset="1" stop-color="#dba379"/>
    </linearGradient>
    <linearGradient id="_ÂÁ_Ï_ÌÌ_È_ËÂÌÚ_131-3" data-name="¡ÂÁ˚ÏˇÌÌ˚È „‡‰ËÂÌÚ 131" x1="216.58" x2="230.47" xlink:href="#_ÂÁ_Ï_ÌÌ_È_ËÂÌÚ_131"/>
    <linearGradient id="_ÂÁ_Ï_ÌÌ_È_ËÂÌÚ_133-2" data-name="¡ÂÁ˚ÏˇÌÌ˚È „‡‰ËÂÌÚ 133" x1="225.8" y1="229.87" x2="230.08" y2="232.95" xlink:href="#_ÂÁ_Ï_ÌÌ_È_ËÂÌÚ_133"/>
    <linearGradient id="_ÂÁ_Ï_ÌÌ_È_ËÂÌÚ_131-4" data-name="¡ÂÁ˚ÏˇÌÌ˚È „‡‰ËÂÌÚ 131" x1="191.87" y1="225.84" x2="202.93" y2="225.84" xlink:href="#_ÂÁ_Ï_ÌÌ_È_ËÂÌÚ_131"/>
    <linearGradient id="_ÂÁ_Ï_ÌÌ_È_ËÂÌÚ_1036-2" data-name="¡ÂÁ˚ÏˇÌÌ˚È „‡‰ËÂÌÚ 1036" x1="225.23" y1="239.32" x2="191.65" y2="218.33" xlink:href="#_ÂÁ_Ï_ÌÌ_È_ËÂÌÚ_1036"/>
    <linearGradient id="_ÂÁ_Ï_ÌÌ_È_ËÂÌÚ_130-2" data-name="¡ÂÁ˚ÏˇÌÌ˚È „‡‰ËÂÌÚ 130" x1="197.9" x2="220.86" xlink:href="#_ÂÁ_Ï_ÌÌ_È_ËÂÌÚ_130"/>
    <linearGradient id="_ÂÁ_Ï_ÌÌ_È_ËÂÌÚ_129-2" data-name="¡ÂÁ˚ÏˇÌÌ˚È „‡‰ËÂÌÚ 129" x1="210.64" y1="232.93" x2="213.65" y2="255.46" xlink:href="#_ÂÁ_Ï_ÌÌ_È_ËÂÌÚ_129"/>
    <radialGradient id="_ÂÁ_Ï_ÌÌ_È_ËÂÌÚ_128-2" data-name="¡ÂÁ˚ÏˇÌÌ˚È „‡‰ËÂÌÚ 128" cx="209.36" cy="225.18" fx="209.36" fy="225.18" r="8.2" xlink:href="#_ÂÁ_Ï_ÌÌ_È_ËÂÌÚ_128"/>
    <linearGradient id="_ÂÁ_Ï_ÌÌ_È_ËÂÌÚ_1038" data-name="¡ÂÁ˚ÏˇÌÌ˚È „‡‰ËÂÌÚ 1038" x1="179.42" y1="224.86" x2="230.49" y2="224.86" gradientUnits="userSpaceOnUse">
      <stop offset="0" stop-color="#372512"/>
      <stop offset=".32" stop-color="#3b2713"/>
      <stop offset=".66" stop-color="#472f18"/>
      <stop offset="1" stop-color="#5c3c20"/>
    </linearGradient>
    <linearGradient id="_ÂÁ_Ï_ÌÌ_È_ËÂÌÚ_1204-8" data-name="¡ÂÁ˚ÏˇÌÌ˚È „‡‰ËÂÌÚ 1204" x1="212.68" y1="211.46" x2="192.49" y2="237.15" xlink:href="#_ÂÁ_Ï_ÌÌ_È_ËÂÌÚ_1204"/>
    <linearGradient id="_ÂÁ_Ï_ÌÌ_È_ËÂÌÚ_124-3" data-name="¡ÂÁ˚ÏˇÌÌ˚È „‡‰ËÂÌÚ 124" x1="215.22" y1="251.84" x2="211.65" y2="236.06" xlink:href="#_ÂÁ_Ï_ÌÌ_È_ËÂÌÚ_124"/>
    <linearGradient id="linear-gradient-13" x1="251.76" y1="280.85" x2="248.81" y2="266.06" xlink:href="#linear-gradient-7"/>
    <linearGradient id="linear-gradient-14" x1="249.43" y1="264.88" x2="249.35" y2="276.5" xlink:href="#linear-gradient-5"/>
    <linearGradient id="_ÂÁ_Ï_ÌÌ_È_ËÂÌÚ_106" data-name="¡ÂÁ˚ÏˇÌÌ˚È „‡‰ËÂÌÚ 106" x1="248.73" y1="249.09" x2="248.89" y2="261" gradientUnits="userSpaceOnUse">
      <stop offset="0" stop-color="#f7d4ab"/>
      <stop offset="1" stop-color="#ffd9b3"/>
    </linearGradient>
    <linearGradient id="linear-gradient-15" x1="210.01" y1="283.18" x2="222.84" y2="283.18" xlink:href="#linear-gradient-5"/>
    <linearGradient id="_ÂÁ_Ï_ÌÌ_È_ËÂÌÚ_1061-2" data-name="¡ÂÁ˚ÏˇÌÌ˚È „‡‰ËÂÌÚ 1061" x1="278.94" y1="283.79" x2="291.38" y2="283.79" xlink:href="#_ÂÁ_Ï_ÌÌ_È_ËÂÌÚ_1061"/>
    <linearGradient id="linear-gradient-16" x1="230.66" y1="304.56" x2="271.45" y2="304.56" xlink:href="#linear-gradient-5"/>
    <linearGradient id="linear-gradient-17" x1="228.24" y1="293.44" x2="273.46" y2="293.44" gradientUnits="userSpaceOnUse">
      <stop offset="0" stop-color="#e8d8d7"/>
      <stop offset=".14" stop-color="#efe4e4"/>
      <stop offset=".39" stop-color="#faf8f7"/>
      <stop offset=".57" stop-color="#fff"/>
      <stop offset="1" stop-color="#e8d2d1"/>
    </linearGradient>
    <linearGradient id="linear-gradient-18" x1="213.82" y1="288.27" x2="285.02" y2="288.27" gradientUnits="userSpaceOnUse">
      <stop offset="0" stop-color="#e8d8d7"/>
      <stop offset=".04" stop-color="#ebdddc"/>
      <stop offset=".21" stop-color="#f6f0ef"/>
      <stop offset=".38" stop-color="#fcfbfb"/>
      <stop offset=".57" stop-color="#fff"/>
      <stop offset=".69" stop-color="#fbf7f7"/>
      <stop offset=".87" stop-color="#f1e3e3"/>
      <stop offset="1" stop-color="#e8d2d1"/>
    </linearGradient>
    <linearGradient id="linear-gradient-19" x1="226.73" y1="296.24" x2="278.77" y2="296.24" gradientUnits="userSpaceOnUse">
      <stop offset="0" stop-color="#f96e7e"/>
      <stop offset=".03" stop-color="#f9707f"/>
      <stop offset=".25" stop-color="#fd7985"/>
      <stop offset=".53" stop-color="#ff7d88"/>
      <stop offset=".76" stop-color="#fd7985"/>
      <stop offset="1" stop-color="#f86d7d"/>
      <stop offset="1" stop-color="#f86d7d"/>
    </linearGradient>
    <linearGradient id="linear-gradient-20" x1="223.88" y1="286.89" x2="278.98" y2="287.04" gradientUnits="userSpaceOnUse">
      <stop offset="0" stop-color="#e8d8d7"/>
      <stop offset=".05" stop-color="#eadcdb"/>
      <stop offset=".31" stop-color="#f6efee"/>
      <stop offset=".48" stop-color="#fbf6f6"/>
      <stop offset="1" stop-color="#e8d2d1"/>
    </linearGradient>
    <linearGradient id="linear-gradient-21" x1="231.59" y1="284.82" x2="271.02" y2="284.82" xlink:href="#linear-gradient-19"/>
    <linearGradient id="_ÂÁ_Ï_ÌÌ_È_ËÂÌÚ_1204-9" data-name="¡ÂÁ˚ÏˇÌÌ˚È „‡‰ËÂÌÚ 1204" x1="255.43" y1="355.9" x2="257.48" y2="370.37" xlink:href="#_ÂÁ_Ï_ÌÌ_È_ËÂÌÚ_1204"/>
    <linearGradient id="_ÂÁ_Ï_ÌÌ_È_ËÂÌÚ_1040" data-name="¡ÂÁ˚ÏˇÌÌ˚È „‡‰ËÂÌÚ 1040" x1="271.49" y1="192.48" x2="322.5" y2="192.48" gradientUnits="userSpaceOnUse">
      <stop offset="0" stop-color="#704b25"/>
      <stop offset=".32" stop-color="#744d26"/>
      <stop offset=".66" stop-color="#80552b"/>
      <stop offset="1" stop-color="#956134"/>
    </linearGradient>
    <linearGradient id="_ÂÁ_Ï_ÌÌ_È_ËÂÌÚ_359" data-name="¡ÂÁ˚ÏˇÌÌ˚È „‡‰ËÂÌÚ 359" x1="176.44" y1="192.48" x2="227.38" y2="192.48" gradientUnits="userSpaceOnUse">
      <stop offset="0" stop-color="#956134"/>
      <stop offset=".34" stop-color="#80552b"/>
      <stop offset=".68" stop-color="#744d26"/>
      <stop offset="1" stop-color="#704b25"/>
    </linearGradient>
    <linearGradient id="linear-gradient-22" x1="179.63" y1="243.24" x2="194.57" y2="243.24" gradientUnits="userSpaceOnUse">
      <stop offset="0" stop-color="#ffd8b2"/>
      <stop offset="1" stop-color="#f6d3aa"/>
    </linearGradient>
    <linearGradient id="_ÂÁ_Ï_ÌÌ_È_ËÂÌÚ_123-3" data-name="¡ÂÁ˚ÏˇÌÌ˚È „‡‰ËÂÌÚ 123" x1="399.07" y1="218.94" x2="393.94" y2="212.62" xlink:href="#_ÂÁ_Ï_ÌÌ_È_ËÂÌÚ_123"/>
    <linearGradient id="_ÂÁ_Ï_ÌÌ_È_ËÂÌÚ_123-4" data-name="¡ÂÁ˚ÏˇÌÌ˚È „‡‰ËÂÌÚ 123" x1="374.35" y1="186.68" x2="260.22" y2="46.02" xlink:href="#_ÂÁ_Ï_ÌÌ_È_ËÂÌÚ_123"/>
    <linearGradient id="_ÂÁ_Ï_ÌÌ_È_ËÂÌÚ_69" data-name="¡ÂÁ˚ÏˇÌÌ˚È „‡‰ËÂÌÚ 69" x1="293.68" y1="81.07" x2="91.24" y2="184.24" gradientUnits="userSpaceOnUse">
      <stop offset="0" stop-color="#a3753d"/>
      <stop offset="1" stop-color="#e0b163"/>
    </linearGradient>
    <linearGradient id="_ÂÁ_Ï_ÌÌ_È_ËÂÌÚ_122-3" data-name="¡ÂÁ˚ÏˇÌÌ˚È „‡‰ËÂÌÚ 122" x1="202.88" y1="128.87" x2="150.99" y2="258.78" xlink:href="#_ÂÁ_Ï_ÌÌ_È_ËÂÌÚ_122"/>
    <linearGradient id="_ÂÁ_Ï_ÌÌ_È_ËÂÌÚ_119" data-name="¡ÂÁ˚ÏˇÌÌ˚È „‡‰ËÂÌÚ 119" x1="164.01" y1="374.85" x2="162.44" y2="156.7" gradientUnits="userSpaceOnUse">
      <stop offset="0" stop-color="#a3763d"/>
      <stop offset=".34" stop-color="#956a36"/>
      <stop offset=".99" stop-color="#704b25"/>
      <stop offset="1" stop-color="#704b25"/>
    </linearGradient>
    <linearGradient id="_ÂÁ_Ï_ÌÌ_È_ËÂÌÚ_123-5" data-name="¡ÂÁ˚ÏˇÌÌ˚È „‡‰ËÂÌÚ 123" x1="350.89" y1="294.92" x2="319.27" y2="436.26" xlink:href="#_ÂÁ_Ï_ÌÌ_È_ËÂÌÚ_123"/>
    <linearGradient id="_ÂÁ_Ï_ÌÌ_È_ËÂÌÚ_69-2" data-name="¡ÂÁ˚ÏˇÌÌ˚È „‡‰ËÂÌÚ 69" x1="183.95" y1="290.65" x2="192.59" y2="393.57" xlink:href="#_ÂÁ_Ï_ÌÌ_È_ËÂÌÚ_69"/>
    <linearGradient id="_ÂÁ_Ï_ÌÌ_È_ËÂÌÚ_123-6" data-name="¡ÂÁ˚ÏˇÌÌ˚È „‡‰ËÂÌÚ 123" x1="345.04" y1="250.68" x2="307.96" y2="444.12" xlink:href="#_ÂÁ_Ï_ÌÌ_È_ËÂÌÚ_123"/>
    <linearGradient id="_ÂÁ_Ï_ÌÌ_È_ËÂÌÚ_69-3" data-name="¡ÂÁ˚ÏˇÌÌ˚È „‡‰ËÂÌÚ 69" x1="174.21" y1="182.02" x2="119.42" y2="370.11" xlink:href="#_ÂÁ_Ï_ÌÌ_È_ËÂÌÚ_69"/>
    <linearGradient id="_ÂÁ_Ï_ÌÌ_È_ËÂÌÚ_69-4" data-name="¡ÂÁ˚ÏˇÌÌ˚È „‡‰ËÂÌÚ 69" x1="136.34" y1="207.4" x2="129.51" y2="362.74" xlink:href="#_ÂÁ_Ï_ÌÌ_È_ËÂÌÚ_69"/>
    <linearGradient id="_ÂÁ_Ï_ÌÌ_È_ËÂÌÚ_123-7" data-name="¡ÂÁ˚ÏˇÌÌ˚È „‡‰ËÂÌÚ 123" x1="369.74" y1="277.89" x2="397.28" y2="424.08" xlink:href="#_ÂÁ_Ï_ÌÌ_È_ËÂÌÚ_123"/>
    <linearGradient id="linear-gradient-23" x1="372.57" y1="300.28" x2="329.65" y2="140.77" gradientUnits="userSpaceOnUse">
      <stop offset="0" stop-color="#a3753d"/>
      <stop offset="1" stop-color="#e0b163"/>
    </linearGradient>
    <linearGradient id="_ÂÁ_Ï_ÌÌ_È_ËÂÌÚ_1200" data-name="¡ÂÁ˚ÏˇÌÌ˚È „‡‰ËÂÌÚ 1200" x1="424.99" y1="407.98" x2="290.78" y2="159.04" gradientUnits="userSpaceOnUse">
      <stop offset="0" stop-color="#e0b163"/>
      <stop offset="1" stop-color="#a3753d"/>
    </linearGradient>
    <linearGradient id="_ÂÁ_Ï_ÌÌ_È_ËÂÌÚ_69-5" data-name="¡ÂÁ˚ÏˇÌÌ˚È „‡‰ËÂÌÚ 69" x1="288.2" y1="461.67" x2="299.42" y2="93.14" xlink:href="#_ÂÁ_Ï_ÌÌ_È_ËÂÌÚ_69"/>
    <linearGradient id="linear-gradient-24" x1="174.33" y1="154.91" x2="146.23" y2="279.29" xlink:href="#linear-gradient-23"/>
    <linearGradient id="linear-gradient-25" x1="180.73" y1="383.19" x2="138.81" y2="309" xlink:href="#linear-gradient-23"/>
    <linearGradient id="linear-gradient-26" x1="443.65" y1="276.01" x2="313.76" y2="98.64" xlink:href="#linear-gradient-23"/>
    <linearGradient id="linear-gradient-27" x1="162.91" y1="116.91" x2="115.21" y2="210.35" xlink:href="#linear-gradient-23"/>
    <linearGradient id="linear-gradient-28" x1="222.05" y1="123.32" x2="243.82" y2="70.66" xlink:href="#linear-gradient-23"/>
    <linearGradient id="linear-gradient-29" x1="199.43" y1="111.05" x2="234.62" y2="49.78" xlink:href="#linear-gradient-23"/>
    <linearGradient id="linear-gradient-30" x1="378.82" y1="297.25" x2="365.15" y2="224.33" xlink:href="#linear-gradient-23"/>
    <linearGradient id="_ÂÁ_Ï_ÌÌ_È_ËÂÌÚ_119-2" data-name="¡ÂÁ˚ÏˇÌÌ˚È „‡‰ËÂÌÚ 119" x1="282.07" y1="424.96" x2="363.59" y2="91.5" xlink:href="#_ÂÁ_Ï_ÌÌ_È_ËÂÌÚ_119"/>
    <linearGradient id="_ÂÁ_Ï_ÌÌ_È_ËÂÌÚ_122-4" data-name="¡ÂÁ˚ÏˇÌÌ˚È „‡‰ËÂÌÚ 122" x1="229.88" y1="116.9" x2="279.88" y2="116.9" xlink:href="#_ÂÁ_Ï_ÌÌ_È_ËÂÌÚ_122"/>
    <linearGradient id="linear-gradient-31" x1="230.31" y1="203.67" x2="380.12" y2="203.67" xlink:href="#linear-gradient-23"/>
    <linearGradient id="linear-gradient-32" x1="221.99" y1="128.89" x2="130.08" y2="211.69" xlink:href="#linear-gradient-23"/>
    <linearGradient id="linear-gradient-33" x1="247.71" y1="385.72" x2="188.94" y2="340.3" xlink:href="#linear-gradient-23"/>
    <linearGradient id="_ÂÁ_Ï_ÌÌ_È_ËÂÌÚ_119-3" data-name="¡ÂÁ˚ÏˇÌÌ˚È „‡‰ËÂÌÚ 119" x1="211.18" y1="391.96" x2="182.13" y2="259.79" xlink:href="#_ÂÁ_Ï_ÌÌ_È_ËÂÌÚ_119"/>
    <linearGradient id="_ÂÁ_Ï_ÌÌ_È_ËÂÌÚ_1200-2" data-name="¡ÂÁ˚ÏˇÌÌ˚È „‡‰ËÂÌÚ 1200" x1="302.82" y1="407.46" x2="361.94" y2="95.72" xlink:href="#_ÂÁ_Ï_ÌÌ_È_ËÂÌÚ_1200"/>
  </defs>
  <g id="Layer_1-2" data-name="Layer 1">
    <g>
      <ellipse class="cls-94" cx="246.76" cy="249.87" rx="246.76" ry="249.87"/>
      <path class="cls-38" d="m354,291.7s34.15,47.66,9.09,64.67c0,0,32.99-13.38,32.97-46.17,0-10.57-8.95-31.42-15.92-38.14-7.9-7.63-26.14,19.64-26.14,19.64Z"/>
      <path class="cls-63" d="m116.53,270.68c-6.97,6.73-14.1,23.51-13.73,34.07.8,22.55,35.79,45.94,35.79,45.94-25.06-17.01,9.09-64.67,9.09-64.67,0,0-23.24-22.97-31.15-15.34Z"/>
      <path class="cls-36" d="m190.73,367.47s11.18-20.52,75.89-20.77c32.15-.13,48.87,13.11,48.87,13.11l.99-95.74-174-37.05,48.25,140.45Z"/>
      <path class="cls-71" d="m364.61,285.44c6.69-34.68-59.4,10.33-59.4,10.33,0,0-16.97,61.29,2.95,77.72,36.38,0,76.98-29.67,76.98-29.67,0,0-29.44-12.19-20.54-58.38Z"/>
      <path class="cls-95" d="m423,424.73c-.1-.34-.2-.68-.3-1.02-8.44-27.65-49.06-31.78-60.14-34.03-14.05-2.85-60.89-2.88-66.85-21.94-7.41-23.71-11.98-73.3-11.98-73.3l-73.88-4.53c10.02,16.7,7.7,71.14-8.82,84.59-12.69,10.34-40.56,12.47-59.77,16.79-11.05,2.49-47.27,8.54-54.2,35.55-.9,3.51-1.72,7.31-2.47,11.34,43.37,38.33,100.09,61.56,162.18,61.56,69.04,0,131.45-28.73,176.24-75.01Z"/>
      <path class="cls-1" d="m296.56,361.11c-2.65-6.99-4.6-23.57-4.74-28.95-1.13,1.39-83.98-8.59-83.98-8.59,0,0,1.18,33.13-3.06,40.06-2.03,3.32-21.35,15.42-36.46,18.57,1.08.84,4.96,5.45,5.83,5.91,12.93,1.28,17.12,2.1,22.39,1.18,6.46-1.12,24.95-8.43,32.81-12.04,42.59-19.52,56.22-29.88,56.22-29.88,2,18.15,7.2,28.52,13.67,36.97,6.47,8.45,23.77,3.09,35.35,2.78,2.89-1.18,5.87-1.56,8.78-3.3-9.61-3.27-19.87-5.19-26.68-7.98-13.21-5.41-19.12-12.05-20.13-14.73Z"/>
      <path class="cls-75" d="m250.95,403.98c-36.5-.86-56.53-32.52-56.53-32.52l-11.36,5.08s22.72,55.25,73.61,48.82c50.89-6.42,62.85-49.25,62.85-49.25l-11.61-3.67s-9.53,32.65-56.96,31.54Z"/>
      <path class="cls-52" d="m267.26,403.06c13.3-10.36,26.6-7.4,43.57-9.38,16.97-1.97,43.03-6.81,43.03-6.81-7.73,1.51-70.4,2.15-76.36,3.63-5.96,1.48-10.24,12.56-10.24,12.56Z"/>
      <path class="cls-86" d="m234.72,391.99c-7.34-2.46-63.4-5.94-73.49-4.95,0,0,70.74,7.09,84.96,15.92,0,0-4.13-8.5-11.47-10.97Z"/>
      <path class="cls-76" d="m347,385.5l13.85,85.95c3.83-2.03,7.61-4.16,11.32-6.38-6.65-40.87-9.63-75.4-9.63-75.4l-15.55-4.18Z"/>
      <path class="cls-74" d="m139.02,391.81c3.82,12.15,1.19,48.46-2.39,81.7,4.56,2.31,9.18,4.48,13.9,6.51l5.63-93.15c-8.77,2.76-17.14,4.94-17.14,4.94Z"/>
      <path class="cls-88" d="m204.78,303.14c4.78,14.24,2.91,47.34,2.91,47.34,48.91,15.55,84.13-18.32,84.13-18.32,0,0-.09-18.76,1.46-28.13-3.79-.34-88.5-.89-88.5-.89Z"/>
      <path class="cls-97" d="m327.74,377.25s-12.31,30.15-70.05,40.46c-48.72,8.7-76.07-42.11-76.07-42.11l-34.54,11.27c4.68,24.73,1.79,60.18-2.51,90.5,31.13,14.36,65.73,22.37,102.17,22.37,43.07,0,83.55-11.18,118.79-30.82-8.82-46.97-9.78-81.83-9.78-81.83l-28.03-9.84Z"/>
      <path class="cls-40" d="m247.38,406.04s15.32,2.71,19.35,7.46c0,0-4.43-12.21-19.35-7.46Z"/>
      <path class="cls-30" d="m257.58,408.86c-43.03,3.29-67.99-36.41-67.99-36.41l-15.58,5.67s20.5,48.94,78.73,47.78c58.22-1.17,75.01-48.64,75.01-48.64l-14.72-4.8c-8.15,22.19-25.95,34.15-55.45,36.41Z"/>
      <path class="cls-87" d="m159.9,214.93c-15.84.9-11.73,17.78-4.77,33.51,4.55,10.29,8.83,21.97,20.48,21.97,0,0-3.01-20.73-6.59-47.97,0,0-6.03-7.69-9.11-7.51Z"/>
      <path class="cls-80" d="m162.96,243.35c4.17-28.01-14.82-29.93-10.51-10.81,0,0,2.62-9.01,5.03-6.32,2.95,3.31-3.17,5.14-.04,19.6,1.63,7.51,9.46,15.44,9.46,15.44,0,0-5.7-6.03-3.93-17.9Z"/>
      <path class="cls-102" d="m341.18,214.93c-3.09-.18-9.11,7.51-9.11,7.51-3.58,27.24-6.59,47.97-6.59,47.97,11.65,0,15.93-11.68,20.48-21.97,6.96-15.74,11.06-32.61-4.77-33.51Z"/>
      <path class="cls-81" d="m338.12,243.35c1.77,11.87-3.93,17.9-3.93,17.9,0,0,7.83-7.93,9.46-15.44,3.13-14.46-2.99-16.29-.04-19.6,2.4-2.69,5.03,6.32,5.03,6.32,4.31-19.12-14.68-17.2-10.51,10.81Z"/>
      <path class="cls-103" d="m261.42,98.74s-80.58,10.51-90.73,33.72c-11.06,25.27-7.89,60.77-4.73,84,3.16,23.22,9.48,60.88,15.27,71.54,5.79,10.66,35.09,38.67,41.41,43.41,5.91,4.43,13.48,11.94,28.14,11.93,13.03,0,23.32-7.92,29.08-12.43,6.22-4.87,34.39-33.36,40.18-44.02,5.79-10.66,12.22-47.2,15.38-70.42,3.16-23.22,6.32-58.72-4.73-84-10.15-23.2-33.99-31.48-69.26-33.72Z"/>
      <path class="cls-79" d="m321.89,195.37c-5.89-4.62-14.43-8.45-25.98-7.27-37,3.76-36.44,40.67-39.89,61.65,45.41,18.01,71.83-14.79,71.83-14.79,0,0,7.76-28.84-5.96-39.59Z"/>
      <path class="cls-77" d="m202.14,189.69c-11.56-.77-19.22,2.12-25.08,6.9-13.64,11.14-3.64,42.52-3.64,42.52,0,0,26.66,31.65,71.93,12.2-3.61-20.72-6.19-59.16-43.21-61.62Z"/>
      <path class="cls-46" d="m217.23,226.64c-10.39-3.11-50.64-11.57-48.72,1.8,4.24,29.56,8.11,49.88,13.25,59.08,5.38,9.64,21.21,24.81,28.04,25.96,10.58,1.8,21.79-37.13,22.04-50.47.35-18.67-4.22-33.27-14.61-36.37Z"/>
      <path class="cls-27" d="m282.75,127.62c-19.78-12.09-66.19-11-71.85-8.89s-36.2,19.29-39.16,29.88c-2.96,10.59-8.39,59.29-2.28,83.73,0,0,10.62-27.38,13.98-36.17,3.36-8.79,6.05-29.69,10.12-38.65,4.07-8.96,22.36-20.15,40.37-18.92,18.01,1.23,25.27-3.7,56.2,18.51,0,0,12.37-17.41-7.4-29.5Z"/>
      <path class="cls-49" d="m284.23,226.64c-10.39,3.1-14.96,17.71-14.61,36.37.25,13.34,11.46,52.26,22.04,50.47,6.83-1.15,22.66-16.33,28.04-25.96,5.14-9.2,9-29.52,13.25-59.08,1.92-13.37-38.33-4.9-48.72-1.8Z"/>
      <path class="cls-78" d="m310.07,238.74c-4.1,1.11-6.96,3.94-6.4,6.33.57,2.39,4.34,3.44,8.43,2.34,4.09-1.11,6.96-3.93,6.39-6.33-.56-2.39-4.34-3.44-8.42-2.34Z"/>
      <path class="cls-28" d="m316.47,257.8c-7.17,23.37-15.17,33.97-24.26,49.79-6.42,11.16-9.25,20.61-9.25,20.61l21.14-19.6,40.43-69.71-33-23.92s12.11,19.47,4.94,42.84Z"/>
      <path class="cls-90" d="m268.87,130.22s2.63,39.25,6.72,52.54c4.09,13.29,4.63,27.03,22.43,44.99,17.8,17.96,40.38,26.75,40.38,26.75l3.32-37.59-58.75-84.91-14.1-1.78Z"/>
      <path class="cls-12" d="m252.61,316.65c-7.42.35-13.38,3.02-13.34,5.95.04,2.95,6.06,5.06,13.46,4.71,7.4-.35,13.36-3.01,13.33-5.96-.04-2.95-6.08-5.06-13.46-4.7Z"/>
      <path class="cls-55" d="m166.37,219.4s7.42,53.77,14.31,68.72c2.24,4.87,21.82,25.38,34.42,37.09,0,0-24.98-25.31-31.66-42.45-5.74-14.72-17.06-63.35-17.06-63.35Z"/>
      <path class="cls-9" d="m324.9,196.63c-16.4-10.42-27.5-3.33-27.5-3.33,33.63-2.36,29.66,30.05,29.66,30.05,0,0,6.58-21.16-2.16-26.72Z"/>
      <g>
        <path class="cls-89" d="m295.32,207.51c-24.57,0-26.85,15.02-27.36,25.87,1.86.41,3.81.77,7.47,1.9,4.93,1.52,10.71,3.97,19.05,3.89,6.56-.06,20.7-3.02,20.9-17.14.16-11.17-14.12-14.02-20.06-14.51Z"/>
        <path class="cls-29" d="m269.08,232.53c5.37.77,8.95,2.6,12.67,3.61-2.9-2.67-4.58-5.09-4.36-9.5.2-3.81,3.1-7.98,5.58-10.28-8.7,5.14-13.9,16.18-13.9,16.18Z"/>
        <path class="cls-31" d="m272.47,227.52c-1.15,1.09-3.39,5-3.39,5,2.53.35,4.71,1.02,4.71,1.02-3.19-3.65-1.32-6.02-1.32-6.02Z"/>
        <path class="cls-99" d="m269.08,232.53c1.54-1.5,4.27-4.56,8.54-7.11.53-2.98,2.22-5.61,4.64-7.47-7.96,3.87-13.18,14.57-13.18,14.57Z"/>
        <path class="cls-59" d="m301.99,227.89c-.23,4.59-2.65,7.46-6.01,9.68,14.35-1.87,18.43-13.25,18.43-13.25-8.87-7.36-15.24-9.66-21.3-10.2,5.4,1.82,9.2,7.42,8.88,13.77Z"/>
        <path class="cls-47" d="m277.59,225.11c-.1.55-.15.94-.2,1.53-.32,4.27,1.33,6.93,4.36,9.5,1.02.49,10.01,2.33,15.52,1.41,3.52-2.17,6.06-4.93,6.32-9.37.13-2.32-.34-4.53-1.29-6.48-6.98-2.41-16.17-2.36-24.71,3.41Z"/>
        <path class="cls-32" d="m290.48,215.83c-6.36,0-11.49,4.76-11.49,10.75s5.13,9.97,11.49,9.97,11.48-3.85,11.48-9.84-5.12-10.89-11.48-10.89Z"/>
        <path class="cls-99" d="m297.24,216.84c2.76,1.53,4.85,3.99,5.8,6.94,5.03,2.1,8.33,4.82,8.33,4.82l2.42-4.88c-3.5-4.43-10.18-5.69-16.55-6.87Z"/>
        <path class="cls-34" d="m297.24,216.84c-3.85-.71-7.86-.76-11.56-.05-1.19.23-2.33.64-3.42,1.17-2.41,1.85-4.25,4.45-4.72,7.47,3.15-1.88,7.22-3.47,12.2-3.94,4.97-.46,9.67.78,13.38,2.32-.87-3.02-3.12-5.44-5.87-6.97Z"/>
        <path class="cls-37" d="m290.87,217.62c-4.55-.34-8.5,2.94-8.82,7.33-.34,4.39,3.09,8.22,7.63,8.57,4.55.34,8.5-2.95,8.83-7.34.33-4.39-3.09-8.22-7.64-8.56Z"/>
        <path class="cls-100" d="m289.07,222.32c-1.08.63-1.42,2.02-.75,3.12.66,1.1,2.08,1.5,3.15.88,1.08-.62,1.42-2.02.75-3.12-.67-1.1-2.08-1.5-3.16-.88Z"/>
        <path class="cls-100" d="m295.39,225.63c-1.48.88-1.98,2.77-1.13,4.24.85,1.46,2.73,1.94,4.21,1.06,1.48-.86,1.98-2.76,1.13-4.23-.85-1.47-2.73-1.94-4.21-1.07Z"/>
        <path class="cls-39" d="m319.9,213.4s-2.4,5.03-14.38.72c-23.08-7.46-35.97,5.99-36.43,18.41,0,0,6.95-13.64,20.04-14.93,7.98-.79,14.88,2.5,21.78,6.24.08,5.53-7.29,12.3-15.24,13.91,6.81.06,21.95-6.96,23.06-12.72-.42.72-1.87,1.22-3.71.54,0,0,6.5-2.59,4.89-12.17Z"/>
        <path class="cls-84" d="m283.54,208.67c-8.01,2.74-11.48,8.53-11.48,8.53,0,0,3.61-4.75,12.21-7.32,8.92-2.67,21.25-.07,21.25-.07-5.42-2.55-13.96-3.89-21.97-1.14Z"/>
        <path class="cls-98" d="m289.12,217.6c-5.38.4-6.7,5.52-6.7,5.52,0,0,5.49-3.2,15.24-1.05,0,0-1.97-4.96-8.54-4.46Z"/>
        <path class="cls-68" d="m288.16,216.4c-15.01,2.53-19.08,16.13-19.08,16.13,0,0,5.77-11.68,19.41-14.11,7.75-1.38,16.52,2.43,22.41,5.42,0,0-9.22-9.72-22.74-7.45Z"/>
      </g>
      <path class="cls-10" d="m251.36,280.24c-3.83.26-40.46.18-40.46.18,0,0,24.73,4.5,41.3,3.6,16.58-.9,38.17-3.1,38.17-3.1,0,0-35.19-.93-39.02-.68Z"/>
      <g>
        <path class="cls-45" d="m204.53,207.51c-5.94.49-20.22,3.35-20.06,14.51.2,14.11,14.34,17.08,20.9,17.14,8.34.08,14.12-2.36,19.05-3.89,3.65-1.13,5.61-1.49,7.47-1.9-.51-10.84-2.79-25.87-27.36-25.87Z"/>
        <path class="cls-58" d="m216.88,216.35c2.48,2.3,5.38,6.47,5.58,10.28.22,4.41-1.46,6.83-4.36,9.5,3.73-1.01,7.31-2.85,12.67-3.61,0,0-5.2-11.04-13.9-16.18Z"/>
        <path class="cls-57" d="m226.06,233.54s2.18-.67,4.71-1.02c0,0-2.24-3.91-3.39-5,0,0,1.87,2.37-1.32,6.02Z"/>
        <path class="cls-99" d="m217.6,217.96c2.41,1.85,4.1,4.49,4.64,7.47,4.27,2.55,7,5.61,8.54,7.11,0,0-5.22-10.7-13.18-14.57Z"/>
        <path class="cls-60" d="m206.75,214.12c-6.05.54-12.43,2.84-21.3,10.2,0,0,4.07,11.39,18.43,13.25-3.36-2.22-5.77-5.09-6.01-9.68-.32-6.35,3.47-11.95,8.88-13.77Z"/>
        <path class="cls-82" d="m222.27,225.11c-8.54-5.77-17.73-5.82-24.71-3.41-.95,1.95-1.42,4.16-1.29,6.48.26,4.44,2.8,7.21,6.32,9.37,5.51.91,14.5-.92,15.52-1.41,3.03-2.57,4.68-5.24,4.36-9.5-.05-.59-.09-.98-.2-1.53Z"/>
        <path class="cls-61" d="m209.37,215.83c-6.35,0-11.48,4.9-11.48,10.89s5.12,9.84,11.48,9.84,11.49-3.98,11.49-9.97-5.13-10.75-11.49-10.75Z"/>
        <path class="cls-99" d="m186.07,223.71l2.42,4.88s3.3-2.72,8.33-4.82c.95-2.95,3.04-5.41,5.8-6.94-6.38,1.19-13.06,2.44-16.55,6.87Z"/>
        <path class="cls-70" d="m217.6,217.96c-1.09-.53-2.23-.94-3.42-1.17-3.7-.71-7.71-.66-11.56.05-2.76,1.53-5,3.95-5.87,6.97,3.71-1.54,8.41-2.78,13.38-2.32,4.98.47,9.05,2.06,12.2,3.94-.47-3.02-2.31-5.61-4.72-7.47Z"/>
        <path class="cls-56" d="m208.98,217.62c-4.55.34-7.96,4.17-7.64,8.56.33,4.39,4.28,7.68,8.83,7.34,4.54-.35,7.97-4.18,7.63-8.57-.32-4.39-4.27-7.68-8.82-7.33Z"/>
        <path class="cls-100" d="m210.78,222.32c-1.08-.62-2.49-.22-3.16.88-.66,1.11-.33,2.51.75,3.12,1.07.62,2.49.22,3.15-.88.67-1.1.33-2.5-.75-3.12Z"/>
        <path class="cls-100" d="m218.2,225.63c-1.48-.87-3.36-.4-4.21,1.07-.85,1.47-.34,3.36,1.13,4.23,1.48.88,3.36.4,4.21-1.06.85-1.46.34-3.36-1.13-4.24Z"/>
        <path class="cls-48" d="m194.34,214.12c-11.99,4.32-14.38-.72-14.38-.72-1.6,9.58,4.89,12.17,4.89,12.17-1.84.68-3.29.18-3.71-.54,1.1,5.76,16.25,12.77,23.06,12.72-7.95-1.61-15.33-8.37-15.24-13.91,6.89-3.74,13.8-7.03,21.78-6.24,13.1,1.29,20.04,14.93,20.04,14.93-.47-12.42-13.35-25.87-36.43-18.41Z"/>
        <path class="cls-91" d="m216.32,208.67c-8.01-2.74-16.55-1.41-21.97,1.14,0,0,12.33-2.59,21.25.07,8.59,2.57,12.21,7.32,12.21,7.32,0,0-3.47-5.79-11.48-8.53Z"/>
        <path class="cls-98" d="m210.66,217.6c-6.57-.49-8.46,4.42-8.46,4.42,9.75-2.15,15.24,1.1,15.24,1.1,0,0-1.4-5.12-6.78-5.52Z"/>
        <path class="cls-69" d="m211.7,216.4c-13.52-2.28-22.74,7.45-22.74,7.45,5.89-2.99,14.66-6.81,22.41-5.42,13.63,2.43,19.41,14.11,19.41,14.11,0,0-4.07-13.6-19.08-16.13Z"/>
      </g>
      <g>
        <polygon class="cls-11" points="248.98 266.77 235.47 266.77 233.95 268.69 249.78 279.58 264.65 268.37 262.53 266.59 248.98 266.77"/>
        <path class="cls-20" d="m248.98,267.14l-9.88-2.72-5.15.6.47,3.39s6-1.86,11.26.36h6.44s6.39-2.46,12.53-.39l.27-2.92-5.13-1.04-10.81,2.72Z"/>
        <path class="cls-102" d="m264.46,255.86s2.37,3.96,1.37,6.49c-1,2.53-7.76.35-10.52,2.08-5.09,3.19-8.17,2.4-13.23,0-3.32-1.58-7.99.4-9.86-2.33-.65-.95-.81-4.34.13-6.23,0,0-2.79,1.56-3.21,5.8-.48,4.86,4.54,7.5,5.32,7,.77-.5-.64-4.17,3.99-3.52,4.64.65,4.4,2.99,5.15,3.78.75.8,8.91.99,10.29.12,1.38-.86,1-4.05,5.39-3.91,4.38.14,4.51,3.13,5.14,3.52.63.39,3.23-1.95,3.98-6.4s-3.94-6.4-3.94-6.4Z"/>
        <path class="cls-33" d="m238.52,253.66c-.08,3.1.28,4.41,1.6,6.43,2.01,3.08,16.17,5.6,18.59-1.47.48-1.41.47-3.62.21-6.4-.29-3.18-20.32-1.66-20.41,1.43Z"/>
      </g>
      <g>
        <path class="cls-16" d="m210.31,278.41c-.88,1.57.24,4.16,2.27,4.88,2.04.72,5.82,1.44,10.26,4.86-3.24-4.87-11.76-11.15-12.53-9.74Z"/>
        <path class="cls-83" d="m278.94,289.03c4.28-3.62,7.98-4.51,9.98-5.32,2.01-.81,3.04-3.45,2.1-4.98-.83-1.37-9.06,5.29-12.08,10.3Z"/>
        <path class="cls-14" d="m230.66,298.9c3.75,8.42,24.82,20.37,40.79.37,0,0-22.41,9.77-40.79-.37Z"/>
        <path class="cls-96" d="m248.8,284.85c-20.01-.53-31.62-3.74-36.34-4.81v.05c.14.2.21.32.33.51,2.48,1.17,5.37,1.96,9.01,4.68,2.5,1.88,4.81,14.38,29.7,14.44,13.59.03,21.87-4.56,30.02-13.87,2.54-2.9,4.95-3.79,6.94-4.93.05-.23.16-.33.22-.57-5.47,1.49-16.46,5.08-39.88,4.48Z"/>
        <path class="cls-13" d="m271.18,287.38c-14,3-32.99,2.35-39.85.98-3.97-1.84-3.65,3.31-3.65,3.31,8.62,9.2,15.67,7.59,22.71,7.86,6.94.28,17.34-2.42,23.57-7.88.62-1.67-.81-4.67-2.77-4.26Z"/>
        <path class="cls-19" d="m237.12,285.1c-4.45-.27-7.16-.98-12.71-2.39,0,0,1.02,1.31,1.65,2.83.82,1.99,4.94,8.75,24.97,8.77,15.07.02,23.08-5.31,24.2-8.59.67-1.97,2.09-2.83,2.21-3.5,0,0-4.58,2.18-15.29,3.19-10.8,1.01-15.34.29-25.03-.31Z"/>
        <path class="cls-93" d="m252.86,298.82c-30.6-.45-19.78-12.96-40.06-18.22.14.04,4.65,2.57,9.92,8.93,5.82,7,10.76,17.97,27.91,18.06,15.47.06,24.15-11.23,29.17-17.43,5.76-7.09,8.6-9.19,8.73-9.22-16.67,4.37-11.35,17.44-35.68,17.89Z"/>
        <path class="cls-15" d="m265.95,295.84c-3.43,1.15-9.23,2.5-15.66,2.7-4.1.13-10.96-.81-15.5-2.81-4.67-2.51-8.8-7.76-9.67-8.43,1.09,1.54,7.49,18.04,24.72,17.89,19.93-.17,23.71-13.66,27.32-17.64-1.71,1.77-5.99,6.55-11.21,8.29Z"/>
        <path class="cls-101" d="m258.63,299.41c-2.02.68-8.96,1.08-8.7,1.79.26.71,4.37,2.19,9.62.78,4.07-1.1,6.02-3.42,5.77-4.13-.25-.71-4.67.89-6.69,1.57Z"/>
        <path class="cls-96" d="m213.11,281.81c1.2.57,2.15-.34,6.92,1.48,0,0-8.12-4.42-8.66-4.18-.38.17-.04,1.85,1.74,2.7Z"/>
        <path class="cls-96" d="m281.79,283.67c4.21-1.85,5.54-.94,6.75-1.51,1.78-.84,2.1-2.45,1.76-2.69-.66-.47-8.51,4.19-8.51,4.19Z"/>
        <path class="cls-22" d="m226.1,285.63s8.6,4.83,26.39,5.02c12.85.13,22.66-4.69,22.66-4.69l1.04-2.39-51.36-.37,1.27,2.43Z"/>
        <path class="cls-93" d="m251.58,282.6c-4.97-.14-27.76-.22-37.47-2.39,0,0,3.59,2.3,21.47,6.05,5.32,1.11,10.04,2.21,15.53,2.16,6.56.12,12.03-1.19,17.12-2,8.64-1.37,18.89-5.57,18.94-5.76-4.62,1.25-31.57,2.05-35.6,1.93Z"/>
        <path class="cls-18" d="m258.82,283.68c-1.5.01-15.22-.42-16.69-.44-1.46-.02-10.35-.57-10.53.06-.52,1.87,19.85,3.48,21.71,3.33,1.86-.14,17.59-1.84,17.71-2.61.11-.76-10.08-.36-12.21-.34Z"/>
      </g>
      <path class="cls-85" d="m250.49,342.97c-11.22-.37-15.64-3.56-19.96-6-2.16-1.22-22.27-18.3-22.27-18.3,0,0,15.24,18.07,22.27,22.04,6.46,3.64,12.63,8.27,20.16,8.26,5.98,0,15.54-3.55,23.67-10.25,4.98-4.11,17.86-19.1,17.86-19.1-1.56,1.5-17.82,14.94-21.05,17.1-3.07,2.06-9.75,6.6-20.68,6.24Z"/>
      <path class="cls-50" d="m305.26,184.42c-6.5-.69-23.12,5.15-28.18,6.97-2.35,1.16-3.68,3.22-3.29,7.11-1.1-2.29-.61-3.92.37-5.47-3.96,3.32-3.46,8.85,1.04,7.31,5.12-1.75,25.28-9.42,29.42-9.52,6.42-.15,15.37,4.16,17.87,5.77,0,0-10.17-11.42-17.24-12.16Z"/>
      <path class="cls-26" d="m224.71,193.03c.98,1.54,1.47,3.17.37,5.47.39-3.89-.94-5.94-3.28-7.11-5.05-1.82-21.65-7.66-28.13-6.97-7.06.75-17.22,12.16-17.22,12.16,2.5-1.61,11.44-5.92,17.85-5.77,4.13.1,24.26,7.77,29.38,9.52,4.5,1.54,4.99-3.99,1.04-7.31Z"/>
      <path class="cls-21" d="m187.31,238.89c-4.1-.84-7.77.42-8.2,2.81-.43,2.4,2.55,5.02,6.64,5.88,4.11.83,7.79-.42,8.22-2.81.43-2.4-2.55-5.03-6.65-5.88Z"/>
      <path class="cls-66" d="m400.78,219.49s-2.59-2.05-6.91-5.53c3.62,5.29,6.91,5.53,6.91,5.53Z"/>
      <path class="cls-67" d="m351.9,116.9c-8.64-13.68-19.36-24.67-39.96-34.28-20.6-9.61-58.8-2.05-58.8-2.05,0,0,45.28,33.53,50.32,49.71,4.2,13.47,68.89,66.37,90.41,83.69-2.56-3.74-5.29-10-7.14-20.5-4.48-25.37-26.18-62.88-34.82-76.56Z"/>
      <path class="cls-104" d="m160.18,111.84c-19.94,14.3-28.61,36.77-32.24,51.55-2.96,12.07-4.01,40.27-4.01,40.27,0,0-7.01,7.8,15.62-7.05,22.62-14.85,34.56-32.59,41.88-45.22,7.33-12.64,19.76-22.19,37.83-21.18l-22.61-31.06s-16.54-1.62-36.48,12.68Z"/>
      <path class="cls-72" d="m164.56,184.74c-2.84,10.24-8.07,21.89-10.22,31.48,3.31-1.7,7.34-.61,8.65.69,3.09,2.31,4.86,14.58,5.81,18.49.04-8.8,4.1-29.94,4.59-36.4,5.39-71.37,45.88-68.78,45.88-68.78,0,0-37.82-6.33-54.7,54.53Z"/>
      <path class="cls-35" d="m133.86,273.09c11.36,51.46-10.76,70.73-10.76,70.73,0,0,21.96,20.68,77.54,29.67,12.91-15.73-9.9-60.44-9.9-60.44,0,0-64.48-74.46-56.87-39.97Z"/>
      <path class="cls-64" d="m353.65,292.24c-7.9-7.63-31.15,15.34-31.15,15.34,0,0,34.22,53.75,11.68,68.88,0,0,33.73-10.25,30.36-35.7-1.39-10.48-3.93-41.79-10.9-48.52Z"/>
      <path class="cls-41" d="m182.05,290.32s-18.08,6.02-13.36,33.84c2.75,16.2,19.38,16.67,27.31,30.26,7.93,13.59,1.83,25.28,1.83,25.28,17.71-12.17,8.04-50.72-4.26-65.16-12.3-14.43-11.52-24.22-11.52-24.22Z"/>
      <path class="cls-65" d="m322.35,217.84s13.6,24.34,7.8,39.73c-5.8,15.4-42,72.15-35.92,93.14,4.84,16.7,8.44,20.31,16.7,28.93,0,0-14.3-20.54,16.03-45.82,25.16-20.97,42.57-28.42,50.71-76.19,2.46-14.43-8.13-41.68-8.13-41.68l-47.19,1.88Z"/>
      <path class="cls-43" d="m164.56,199c9.53-20.44,9.04-36.12,9.04-36.12,0,0-62.75,34.5-53.34,75.15,4.12,17.8,24.63,24.61,24.01,38.79-.62,14.18-20.56,53.69-3.47,79.55,4.42,6.68,12.58,10.29,18.29,13.46-20.17-27.47,15.8-46.03,22.34-66.11,6.54-20.07-18.46-34.95-28.63-55.31-7.11-14.23,1.78-28.05,11.74-49.42Z"/>
      <path class="cls-42" d="m117.26,267.34c11.96,24.6,24.33,24.89,18.42,48.77-7,28.31-32.88,34.32-32.88,34.32,0,0,27.24,1.4,43.97-16.82,16.73-18.21,13.94-35.55,7.56-54.04-6.37-18.49-25.36-35.28,5.86-77.71,0,0-54.9,40.87-42.93,65.47Z"/>
      <path class="cls-62" d="m380.12,291.78c18.76-62.91,1.72-61.64,1.72-61.64,0,0-40.87,20.15-42.89,21.57-2.03,1.42,34.84,0,36.74,9.54.81,4.04-15.61,26.16-20.82,60.73-4.34,28.76,42.13,28.45,42.13,28.45-11.86-10.06-24.46-33.25-16.89-58.65Z"/>
      <path class="cls-17" d="m275.59,77.86c46.91,6.24,80.93,52.36,92.32,67.1-13.79-38.91-52.02-74.9-92.32-67.1Z"/>
      <path class="cls-51" d="m384.63,271.58c-35.99,18.52-63.34,79.4,12.38,78.85-58.61-15.42-30.57-51.32-12.38-78.85Z"/>
      <path class="cls-44" d="m362.23,176.94c-31.24-16.88-40.58-23.89-51.72-60.03-13.73-44.55-59.89-67.96-99.21-47.7-54.48,28.07,7.96,61.02,7.96,61.02,33.41-8.02,58.15,2.03,58.15,2.03,6.29,20.64,1.94,19.43,9.61,54.95,7.66,35.52,65.91,50.25,74.55,74.56,2.48,6.98.87,29.2-19.34,51.1,27.81-15.44,48.71-32.38,60.01-60.34,11.3-27.96-8.77-58.69-40.01-75.58Z"/>
      <path class="cls-24" d="m135.68,342.41c40.76-34.82,32.24-48.12,11.91-87.26-8.34-16.05,9.42-39.19,18.78-60.25-92.15,92.84,21.76,70.47-30.69,147.52Z"/>
      <path class="cls-8" d="m119.9,312.85c0,14.52-2.78,26.23-17.11,37.58,26.18-7.1,35-25.67,35.58-42.85.98-28.64-43.91-37.97,6.67-92.7-74.89,52.45-25.15,70.16-25.15,97.96Z"/>
      <path class="cls-25" d="m301.57,97.27c2.4,28.13,23.29,54.17,52.18,67.05,37.97,11.25,45.24,28.56,44.62,60.73,23.01-83.24-62.72-47.69-96.8-127.78Z"/>
      <path class="cls-23" d="m143.78,146.13c-16.93,14.85-32.72,30.7-18.1,51.25-9.53-21.06,5.06-32.5,22.61-46.86,13.36-12.73,26.25-29.15,33.15-44.47-11.56,15.43-21.46,23.71-37.66,40.07Z"/>
      <path class="cls-7" d="m234.69,127.62c-31.15-13.78-10.75-64.88,21.95-40.11-32.95-35.85-69.03,32.62-21.95,40.11Z"/>
      <path class="cls-3" d="m219.26,130.22c-38.75-21.27-43.78-69,16.69-63.37-63.95-15.72-69.42,50.2-16.69,63.37Z"/>
      <path class="cls-5" d="m336.67,184.74c6.5,24,47,22.87,51.28,59.55,3.5-36.52-29.26-39.4-51.28-59.55Z"/>
      <path class="cls-53" d="m328.66,231.83c2.65,30.09-11.27,47.98-17.59,58.49-24.7,41.13-34.51,68.31-2.91,86.14-24.99-54.7,43.95-88.28,20.5-144.63Z"/>
      <path class="cls-73" d="m238.37,98.61c-16.65,7.69-3.68,29.02-3.68,29.02,0,0,6.59-.81,21.95.38,16.39,1.27,21.82,10.61,21.82,10.61,0,0,4.39-7.82-2.29-22.32-6.69-14.5-16.56-27.49-37.8-17.68Z"/>
      <path class="cls-6" d="m309.44,192.38c-19.05-26.82-16.01-60.67-35.5-86.54-14.83-19.68-47.81-12.6-43.19,12.21,1.11-20.78,28.51-23.88,37.73-7.56,14.39,26.59,11.38,58.81,28.8,84.61,11.19,21.24,35.17,31.41,57.53,41.55,37.27,18.16,1.17,55.78-12.58,76.2,87.31-88.33,1.01-71.44-32.79-120.47Z"/>
      <path class="cls-4" d="m132.89,189.57c-26.88,14.59-27.04,30.89-10.85,55.47-13.38-43.59,26.42-37.1,44.46-66.63,11.47-20.51,12.29-33.03,37.89-46.41-39.26,6.69-45.07,39.2-71.5,57.57Z"/>
      <path class="cls-2" d="m171.74,274.07c6.47,16.85,5.39,26.69-10.99,46.11-16.38,19.41-20.15,39.41,1.53,51.99-29.94-39.67,48.62-49.63,9.46-98.1Z"/>
      <path class="cls-54" d="m185.24,301.04c-6.47,31.62,35.16,31.93,12.6,78.66,22.56-19.67,14.78-39.25,3.42-57.17-5.34-7.89-14.72-14.95-16.02-21.5Z"/>
      <path class="cls-92" d="m321.29,298.82c-31.21,33.06-37.04,66.47-7.99,82.21-18.28-16.62,5.33-51.42,20.27-74.51,12.66-19.57,22.84-39.58,4.54-63.16,1.18,12.07,12.55,24.36-16.82,55.47Z"/>
    </g>
  </g>
</svg>