<?xml version="1.0" encoding="UTF-8"?>
<svg id="Layer_2" data-name="Layer 2" xmlns="http://www.w3.org/2000/svg" xmlns:xlink="http://www.w3.org/1999/xlink" viewBox="0 0 493.51 499.74">
  <defs>
    <style>
      .cls-1 {
        fill: url(#linear-gradient);
      }

      .cls-1, .cls-2, .cls-3, .cls-4, .cls-5, .cls-6, .cls-7, .cls-8, .cls-9, .cls-10, .cls-11, .cls-12, .cls-13, .cls-14, .cls-15, .cls-16, .cls-17, .cls-18, .cls-19, .cls-20, .cls-21, .cls-22, .cls-23, .cls-24, .cls-25, .cls-26, .cls-27, .cls-28, .cls-29, .cls-30, .cls-31, .cls-32, .cls-33, .cls-34, .cls-35, .cls-36, .cls-37, .cls-38, .cls-39, .cls-40, .cls-41, .cls-42, .cls-43, .cls-44, .cls-45, .cls-46, .cls-47, .cls-48, .cls-49, .cls-50, .cls-51, .cls-52, .cls-53, .cls-54, .cls-55, .cls-56, .cls-57, .cls-58, .cls-59, .cls-60, .cls-61, .cls-62, .cls-63, .cls-64, .cls-65, .cls-66, .cls-67, .cls-68, .cls-69, .cls-70, .cls-71, .cls-72, .cls-73, .cls-74, .cls-75, .cls-76, .cls-77, .cls-78, .cls-79, .cls-80, .cls-81, .cls-82, .cls-83, .cls-84, .cls-85, .cls-86, .cls-87, .cls-88, .cls-89, .cls-90, .cls-91, .cls-92, .cls-93, .cls-94, .cls-95, .cls-96 {
        stroke-width: 0px;
      }

      .cls-2 {
        fill: url(#linear-gradient-38);
      }

      .cls-3 {
        fill: url(#linear-gradient-33);
      }

      .cls-4 {
        fill: url(#linear-gradient-29);
      }

      .cls-5 {
        fill: url(#linear-gradient-32);
      }

      .cls-6 {
        fill: url(#linear-gradient-30);
      }

      .cls-7 {
        fill: url(#linear-gradient-31);
      }

      .cls-8 {
        fill: url(#linear-gradient-36);
      }

      .cls-9 {
        fill: url(#linear-gradient-39);
      }

      .cls-10 {
        fill: url(#linear-gradient-34);
      }

      .cls-11 {
        fill: url(#linear-gradient-37);
      }

      .cls-12 {
        fill: url(#linear-gradient-35);
      }

      .cls-13 {
        fill: url(#linear-gradient-28);
      }

      .cls-14 {
        fill: url(#linear-gradient-25);
      }

      .cls-15 {
        fill: url(#linear-gradient-11);
      }

      .cls-16 {
        fill: url(#linear-gradient-12);
      }

      .cls-17 {
        fill: url(#linear-gradient-13);
      }

      .cls-18 {
        fill: url(#linear-gradient-10);
      }

      .cls-19 {
        fill: url(#linear-gradient-17);
      }

      .cls-20 {
        fill: url(#linear-gradient-16);
      }

      .cls-21 {
        fill: url(#linear-gradient-19);
      }

      .cls-22 {
        fill: url(#linear-gradient-15);
      }

      .cls-23 {
        fill: url(#linear-gradient-23);
      }

      .cls-24 {
        fill: url(#linear-gradient-21);
      }

      .cls-25 {
        fill: url(#linear-gradient-18);
      }

      .cls-26 {
        fill: url(#linear-gradient-14);
      }

      .cls-27 {
        fill: url(#linear-gradient-22);
      }

      .cls-28 {
        fill: url(#linear-gradient-20);
      }

      .cls-29 {
        fill: url(#linear-gradient-27);
      }

      .cls-30 {
        fill: url(#linear-gradient-24);
      }

      .cls-31 {
        fill: url(#linear-gradient-26);
      }

      .cls-32 {
        fill: url(#linear-gradient-45);
      }

      .cls-33 {
        fill: url(#linear-gradient-46);
      }

      .cls-34 {
        fill: url(#linear-gradient-44);
      }

      .cls-35 {
        fill: url(#linear-gradient-48);
      }

      .cls-36 {
        fill: url(#linear-gradient-47);
      }

      .cls-37 {
        fill: url(#linear-gradient-42);
      }

      .cls-38 {
        fill: url(#linear-gradient-43);
      }

      .cls-39 {
        fill: url(#linear-gradient-40);
      }

      .cls-40 {
        fill: url(#linear-gradient-41);
      }

      .cls-41 {
        fill: url(#_ÂÁ_Ï_ÌÌ_È_ËÂÌÚ_141);
      }

      .cls-42 {
        fill: url(#_ÂÁ_Ï_ÌÌ_È_ËÂÌÚ_134);
      }

      .cls-43 {
        fill: url(#_ÂÁ_Ï_ÌÌ_È_ËÂÌÚ_153);
      }

      .cls-44 {
        fill: url(#_ÂÁ_Ï_ÌÌ_È_ËÂÌÚ_131);
      }

      .cls-45 {
        fill: url(#_ÂÁ_Ï_ÌÌ_È_ËÂÌÚ_133);
      }

      .cls-46 {
        fill: url(#_ÂÁ_Ï_ÌÌ_È_ËÂÌÚ_130);
      }

      .cls-47 {
        fill: url(#_ÂÁ_Ï_ÌÌ_È_ËÂÌÚ_129);
      }

      .cls-48 {
        fill: url(#_ÂÁ_Ï_ÌÌ_È_ËÂÌÚ_117);
      }

      .cls-49 {
        fill: url(#_ÂÁ_Ï_ÌÌ_È_ËÂÌÚ_110);
      }

      .cls-50 {
        fill: url(#_ÂÁ_Ï_ÌÌ_È_ËÂÌÚ_128);
      }

      .cls-51 {
        fill: url(#_ÂÁ_Ï_ÌÌ_È_ËÂÌÚ_120);
      }

      .cls-52 {
        fill: url(#_ÂÁ_Ï_ÌÌ_È_ËÂÌÚ_331);
      }

      .cls-53 {
        fill: url(#_ÂÁ_Ï_ÌÌ_È_ËÂÌÚ_1022);
      }

      .cls-54 {
        fill: url(#_ÂÁ_Ï_ÌÌ_È_ËÂÌÚ_1023);
      }

      .cls-55 {
        fill: url(#_ÂÁ_Ï_ÌÌ_È_ËÂÌÚ_331-2);
      }

      .cls-56 {
        fill: url(#_ÂÁ_Ï_ÌÌ_È_ËÂÌÚ_153-9);
      }

      .cls-57 {
        fill: url(#_ÂÁ_Ï_ÌÌ_È_ËÂÌÚ_153-5);
      }

      .cls-58 {
        fill: url(#_ÂÁ_Ï_ÌÌ_È_ËÂÌÚ_153-6);
      }

      .cls-59 {
        fill: url(#_ÂÁ_Ï_ÌÌ_È_ËÂÌÚ_153-7);
      }

      .cls-60 {
        fill: url(#_ÂÁ_Ï_ÌÌ_È_ËÂÌÚ_153-4);
      }

      .cls-61 {
        fill: url(#_ÂÁ_Ï_ÌÌ_È_ËÂÌÚ_153-8);
      }

      .cls-62 {
        fill: url(#_ÂÁ_Ï_ÌÌ_È_ËÂÌÚ_153-3);
      }

      .cls-63 {
        fill: url(#_ÂÁ_Ï_ÌÌ_È_ËÂÌÚ_153-2);
      }

      .cls-64 {
        fill: url(#_ÂÁ_Ï_ÌÌ_È_ËÂÌÚ_128-2);
      }

      .cls-65 {
        fill: url(#_ÂÁ_Ï_ÌÌ_È_ËÂÌÚ_133-2);
      }

      .cls-66 {
        fill: url(#_ÂÁ_Ï_ÌÌ_È_ËÂÌÚ_131-3);
      }

      .cls-67 {
        fill: url(#_ÂÁ_Ï_ÌÌ_È_ËÂÌÚ_131-2);
      }

      .cls-68 {
        fill: url(#_ÂÁ_Ï_ÌÌ_È_ËÂÌÚ_131-4);
      }

      .cls-69 {
        fill: url(#_ÂÁ_Ï_ÌÌ_È_ËÂÌÚ_120-3);
      }

      .cls-70 {
        fill: url(#_ÂÁ_Ï_ÌÌ_È_ËÂÌÚ_120-2);
      }

      .cls-71 {
        fill: url(#_ÂÁ_Ï_ÌÌ_È_ËÂÌÚ_129-3);
      }

      .cls-72 {
        fill: url(#_ÂÁ_Ï_ÌÌ_È_ËÂÌÚ_129-2);
      }

      .cls-73 {
        fill: url(#_ÂÁ_Ï_ÌÌ_È_ËÂÌÚ_117-2);
      }

      .cls-74 {
        fill: url(#_ÂÁ_Ï_ÌÌ_È_ËÂÌÚ_117-3);
      }

      .cls-75 {
        fill: url(#_ÂÁ_Ï_ÌÌ_È_ËÂÌÚ_117-4);
      }

      .cls-76 {
        fill: url(#_ÂÁ_Ï_ÌÌ_È_ËÂÌÚ_110-2);
      }

      .cls-77 {
        fill: url(#linear-gradient-4);
      }

      .cls-78 {
        fill: url(#linear-gradient-2);
      }

      .cls-79 {
        fill: url(#linear-gradient-3);
      }

      .cls-80 {
        fill: url(#linear-gradient-8);
      }

      .cls-81 {
        fill: url(#linear-gradient-9);
      }

      .cls-82 {
        fill: url(#linear-gradient-7);
      }

      .cls-83 {
        fill: url(#linear-gradient-5);
      }

      .cls-84 {
        fill: url(#linear-gradient-6);
      }

      .cls-85 {
        fill: #f86d78;
      }

      .cls-86 {
        fill: #f6ece6;
      }

      .cls-87 {
        fill: #5b2a1f;
      }

      .cls-88 {
        fill: #961b27;
      }

      .cls-89 {
        fill: #391b13;
      }

      .cls-90 {
        fill: #2db189;
      }

      .cls-91 {
        fill: #0f0f0f;
      }

      .cls-92 {
        fill: #ddd;
      }

      .cls-93 {
        fill: #fff;
      }

      .cls-94 {
        fill: #ff9aa2;
      }

      .cls-95 {
        fill: #efb37f;
      }

      .cls-96 {
        fill: #efb285;
      }
    </style>
    <linearGradient id="linear-gradient" x1="301.33" y1="535.08" x2="301.33" y2="296.94" gradientUnits="userSpaceOnUse">
      <stop offset=".23" stop-color="#492219"/>
      <stop offset="1" stop-color="#652f23"/>
    </linearGradient>
    <linearGradient id="_ÂÁ_Ï_ÌÌ_È_ËÂÌÚ_153" data-name="¡ÂÁ˚ÏˇÌÌ˚È „‡‰ËÂÌÚ 153" x1="396.43" y1="205.58" x2="351.23" y2="281.54" gradientUnits="userSpaceOnUse">
      <stop offset="0" stop-color="#421f16"/>
      <stop offset=".45" stop-color="#51261d"/>
      <stop offset="1" stop-color="#6b3329"/>
    </linearGradient>
    <linearGradient id="linear-gradient-2" x1="135.26" y1="234.99" x2="293.43" y2="434.94" gradientUnits="userSpaceOnUse">
      <stop offset="0" stop-color="#d79167"/>
      <stop offset=".33" stop-color="#da956a"/>
      <stop offset=".72" stop-color="#e4a374"/>
      <stop offset="1" stop-color="#efb37f"/>
    </linearGradient>
    <linearGradient id="linear-gradient-3" x1="296.45" y1="402.72" x2="240.69" y2="410.94" xlink:href="#linear-gradient-2"/>
    <linearGradient id="linear-gradient-4" x1="253.46" y1="398.89" x2="342.05" y2="385.06" xlink:href="#linear-gradient-2"/>
    <linearGradient id="linear-gradient-5" x1="248.43" y1="403.37" x2="170.66" y2="382.95" xlink:href="#linear-gradient-2"/>
    <linearGradient id="_ÂÁ_Ï_ÌÌ_È_ËÂÌÚ_120" data-name="¡ÂÁ˚ÏˇÌÌ˚È „‡‰ËÂÌÚ 120" x1="239.19" y1="317.88" x2="307.08" y2="415.62" gradientUnits="userSpaceOnUse">
      <stop offset="0" stop-color="#cb8663"/>
      <stop offset=".02" stop-color="#cc8764"/>
      <stop offset=".38" stop-color="#de9f72"/>
      <stop offset=".71" stop-color="#eaad7b"/>
      <stop offset="1" stop-color="#eeb27f"/>
    </linearGradient>
    <linearGradient id="linear-gradient-6" x1="351.35" y1="491.43" x2="358.39" y2="375.15" xlink:href="#linear-gradient-2"/>
    <linearGradient id="linear-gradient-7" x1="137.36" y1="495.48" x2="144.72" y2="373.86" xlink:href="#linear-gradient-2"/>
    <linearGradient id="linear-gradient-8" x1="243.42" y1="542.21" x2="250.88" y2="429.56" xlink:href="#linear-gradient-2"/>
    <linearGradient id="linear-gradient-9" x1="55.35" y1="295.76" x2="400.35" y2="505.38" xlink:href="#linear-gradient-2"/>
    <linearGradient id="linear-gradient-10" x1="132.57" y1="458.18" x2="138.48" y2="476.64" gradientUnits="userSpaceOnUse">
      <stop offset="0" stop-color="#ff593b"/>
      <stop offset=".5" stop-color="#ed4425"/>
      <stop offset="1" stop-color="#df3415"/>
    </linearGradient>
    <linearGradient id="linear-gradient-11" x1="158.9" y1="270.55" x2="160.64" y2="229.02" xlink:href="#linear-gradient-2"/>
    <linearGradient id="linear-gradient-12" x1="163.51" y1="467.26" x2="165.66" y2="542.4" gradientUnits="userSpaceOnUse">
      <stop offset="0" stop-color="#d79167"/>
      <stop offset=".6" stop-color="#d28c65"/>
      <stop offset="1" stop-color="#cb8663"/>
    </linearGradient>
    <linearGradient id="linear-gradient-13" x1="330.42" y1="277.74" x2="332.16" y2="236.21" xlink:href="#linear-gradient-2"/>
    <linearGradient id="linear-gradient-14" x1="340.91" y1="463.77" x2="343.03" y2="537.8" xlink:href="#linear-gradient-12"/>
    <linearGradient id="_ÂÁ_Ï_ÌÌ_È_ËÂÌÚ_117" data-name="¡ÂÁ˚ÏˇÌÌ˚È „‡‰ËÂÌÚ 117" x1="286.47" y1="245.52" x2="292.07" y2="143.68" gradientUnits="userSpaceOnUse">
      <stop offset="0" stop-color="#efb37f"/>
      <stop offset=".03" stop-color="#eeb27f"/>
      <stop offset=".34" stop-color="#e5a676"/>
      <stop offset="1" stop-color="#d79167"/>
    </linearGradient>
    <linearGradient id="_ÂÁ_Ï_ÌÌ_È_ËÂÌÚ_117-2" data-name="¡ÂÁ˚ÏˇÌÌ˚È „‡‰ËÂÌÚ 117" x1="203.53" y1="240.96" x2="209.12" y2="139.12" xlink:href="#_ÂÁ_Ï_ÌÌ_È_ËÂÌÚ_117"/>
    <radialGradient id="_ÂÁ_Ï_ÌÌ_È_ËÂÌÚ_1022" data-name="¡ÂÁ˚ÏˇÌÌ˚È „‡‰ËÂÌÚ 1022" cx="195.22" cy="261.18" fx="195.22" fy="261.18" r="38.67" gradientUnits="userSpaceOnUse">
      <stop offset="0" stop-color="#ea916c"/>
      <stop offset=".8" stop-color="#efb37f"/>
    </radialGradient>
    <radialGradient id="_ÂÁ_Ï_ÌÌ_È_ËÂÌÚ_1023" data-name="¡ÂÁ˚ÏˇÌÌ˚È „‡‰ËÂÌÚ 1023" cx="293.74" cy="258.63" fx="293.74" fy="258.63" r="40.12" gradientUnits="userSpaceOnUse">
      <stop offset="0" stop-color="#ea916c"/>
      <stop offset=".78" stop-color="#efb37f"/>
    </radialGradient>
    <linearGradient id="linear-gradient-15" x1="252.18" y1="356.73" x2="247.46" y2="313.71" gradientUnits="userSpaceOnUse">
      <stop offset="0" stop-color="#efb37f"/>
      <stop offset=".23" stop-color="#efb581"/>
      <stop offset="1" stop-color="#efb985"/>
    </linearGradient>
    <linearGradient id="linear-gradient-16" x1="163.91" y1="269.35" x2="211.62" y2="269.35" xlink:href="#linear-gradient-2"/>
    <linearGradient id="linear-gradient-17" x1="280.52" y1="269.42" x2="328.12" y2="269.42" xlink:href="#linear-gradient-15"/>
    <linearGradient id="_ÂÁ_Ï_ÌÌ_È_ËÂÌÚ_110" data-name="¡ÂÁ˚ÏˇÌÌ˚È „‡‰ËÂÌÚ 110" x1="253.59" y1="334.3" x2="238.72" y2="86.46" gradientUnits="userSpaceOnUse">
      <stop offset="0" stop-color="#d79167"/>
      <stop offset=".66" stop-color="#e6a676"/>
      <stop offset="1" stop-color="#efb37f"/>
    </linearGradient>
    <linearGradient id="_ÂÁ_Ï_ÌÌ_È_ËÂÌÚ_120-2" data-name="¡ÂÁ˚ÏˇÌÌ˚È „‡‰ËÂÌÚ 120" x1="-2692.89" y1="212.86" x2="-2737.78" y2="230.29" gradientTransform="translate(3000.64)" xlink:href="#_ÂÁ_Ï_ÌÌ_È_ËÂÌÚ_120"/>
    <linearGradient id="_ÂÁ_Ï_ÌÌ_È_ËÂÌÚ_131" data-name="¡ÂÁ˚ÏˇÌÌ˚È „‡‰ËÂÌÚ 131" x1="-2736.73" y1="223.32" x2="-2722.97" y2="223.32" gradientTransform="translate(3000.64)" gradientUnits="userSpaceOnUse">
      <stop offset="0" stop-color="#fff"/>
      <stop offset=".41" stop-color="#fcfcfc"/>
      <stop offset=".69" stop-color="#f3f3f3"/>
      <stop offset=".92" stop-color="#e4e4e4"/>
      <stop offset="1" stop-color="#ddd"/>
    </linearGradient>
    <linearGradient id="_ÂÁ_Ï_ÌÌ_È_ËÂÌÚ_133" data-name="¡ÂÁ˚ÏˇÌÌ˚È „‡‰ËÂÌÚ 133" x1="3727.27" y1="226.9" x2="3731.52" y2="229.96" gradientTransform="translate(3996.42) rotate(-180) scale(1 -1)" gradientUnits="userSpaceOnUse">
      <stop offset="0" stop-color="#fff"/>
      <stop offset=".46" stop-color="#f2f2f2"/>
      <stop offset="1" stop-color="#ddd"/>
    </linearGradient>
    <linearGradient id="_ÂÁ_Ï_ÌÌ_È_ËÂÌÚ_131-2" data-name="¡ÂÁ˚ÏˇÌÌ˚È „‡‰ËÂÌÚ 131" x1="-2706.26" y1="222.92" x2="-2695.3" y2="222.92" xlink:href="#_ÂÁ_Ï_ÌÌ_È_ËÂÌÚ_131"/>
    <linearGradient id="_ÂÁ_Ï_ÌÌ_È_ËÂÌÚ_141" data-name="¡ÂÁ˚ÏˇÌÌ˚È „‡‰ËÂÌÚ 141" x1="-2699.04" y1="235.12" x2="-2731.19" y2="215.03" gradientTransform="translate(3000.64)" gradientUnits="userSpaceOnUse">
      <stop offset="0" stop-color="#96adc6"/>
      <stop offset="1" stop-color="#6e8295"/>
    </linearGradient>
    <linearGradient id="_ÂÁ_Ï_ÌÌ_È_ËÂÌÚ_134" data-name="¡ÂÁ˚ÏˇÌÌ˚È „‡‰ËÂÌÚ 134" x1="3699.64" y1="223.27" x2="3722.38" y2="223.27" gradientTransform="translate(3996.42) rotate(-180) scale(1 -1)" gradientUnits="userSpaceOnUse">
      <stop offset="0" stop-color="#a8c3dd"/>
      <stop offset="1" stop-color="#7a90a5"/>
    </linearGradient>
    <linearGradient id="_ÂÁ_Ï_ÌÌ_È_ËÂÌÚ_129" data-name="¡ÂÁ˚ÏˇÌÌ˚È „‡‰ËÂÌÚ 129" x1="3712.26" y1="229.94" x2="3715.24" y2="252.26" gradientTransform="translate(3996.42) rotate(-180) scale(1 -1)" gradientUnits="userSpaceOnUse">
      <stop offset="0" stop-color="#6e8295"/>
      <stop offset="1" stop-color="#96adc6"/>
    </linearGradient>
    <radialGradient id="_ÂÁ_Ï_ÌÌ_È_ËÂÌÚ_128" data-name="¡ÂÁ˚ÏˇÌÌ˚È „‡‰ËÂÌÚ 128" cx="3710.99" cy="222.26" fx="3710.99" fy="222.26" r="8.13" gradientTransform="translate(3996.42) rotate(-180) scale(1 -1)" gradientUnits="userSpaceOnUse">
      <stop offset="0" stop-color="#666"/>
      <stop offset="1" stop-color="#1d1d1d"/>
    </radialGradient>
    <linearGradient id="_ÂÁ_Ï_ÌÌ_È_ËÂÌÚ_331" data-name="¡ÂÁ˚ÏˇÌÌ˚È „‡‰ËÂÌÚ 331" x1="-2736.71" y1="221.95" x2="-2686.12" y2="221.95" gradientTransform="translate(3000.64)" gradientUnits="userSpaceOnUse">
      <stop offset="0" stop-color="#5a2a1f"/>
      <stop offset=".29" stop-color="#492219"/>
      <stop offset=".66" stop-color="#3d1c14"/>
      <stop offset="1" stop-color="#391b13"/>
    </linearGradient>
    <linearGradient id="linear-gradient-18" x1="-2714.75" y1="207.91" x2="-2748.22" y2="250.51" gradientTransform="translate(3000.64)" xlink:href="#linear-gradient-2"/>
    <linearGradient id="_ÂÁ_Ï_ÌÌ_È_ËÂÌÚ_120-3" data-name="¡ÂÁ˚ÏˇÌÌ˚È „‡‰ËÂÌÚ 120" x1="813.04" y1="212.86" x2="768.16" y2="230.29" gradientTransform="translate(995.78) rotate(-180) scale(1 -1)" xlink:href="#_ÂÁ_Ï_ÌÌ_È_ËÂÌÚ_120"/>
    <linearGradient id="_ÂÁ_Ï_ÌÌ_È_ËÂÌÚ_131-3" data-name="¡ÂÁ˚ÏˇÌÌ˚È „‡‰ËÂÌÚ 131" x1="769.2" x2="782.97" gradientTransform="translate(995.78) rotate(-180) scale(1 -1)" xlink:href="#_ÂÁ_Ï_ÌÌ_È_ËÂÌÚ_131"/>
    <linearGradient id="_ÂÁ_Ï_ÌÌ_È_ËÂÌÚ_133-2" data-name="¡ÂÁ˚ÏˇÌÌ˚È „‡‰ËÂÌÚ 133" x1="221.34" y1="226.9" x2="225.58" y2="229.96" gradientTransform="matrix(1,0,0,1,0,0)" xlink:href="#_ÂÁ_Ï_ÌÌ_È_ËÂÌÚ_133"/>
    <linearGradient id="_ÂÁ_Ï_ÌÌ_È_ËÂÌÚ_131-4" data-name="¡ÂÁ˚ÏˇÌÌ˚È „‡‰ËÂÌÚ 131" x1="799.68" y1="222.92" x2="810.63" y2="222.92" gradientTransform="translate(995.78) rotate(-180) scale(1 -1)" xlink:href="#_ÂÁ_Ï_ÌÌ_È_ËÂÌÚ_131"/>
    <linearGradient id="_ÂÁ_Ï_ÌÌ_È_ËÂÌÚ_129-2" data-name="¡ÂÁ˚ÏˇÌÌ˚È „‡‰ËÂÌÚ 129" x1="806.9" y1="235.12" x2="774.75" y2="215.03" gradientTransform="translate(995.78) rotate(-180) scale(1 -1)" xlink:href="#_ÂÁ_Ï_ÌÌ_È_ËÂÌÚ_129"/>
    <linearGradient id="_ÂÁ_Ï_ÌÌ_È_ËÂÌÚ_130" data-name="¡ÂÁ˚ÏˇÌÌ˚È „‡‰ËÂÌÚ 130" x1="193.7" y1="223.27" x2="216.45" y2="223.27" gradientUnits="userSpaceOnUse">
      <stop offset="0" stop-color="#7a90a5"/>
      <stop offset="1" stop-color="#a8c3dd"/>
    </linearGradient>
    <linearGradient id="_ÂÁ_Ï_ÌÌ_È_ËÂÌÚ_129-3" data-name="¡ÂÁ˚ÏˇÌÌ˚È „‡‰ËÂÌÚ 129" x1="206.32" y1="229.94" x2="209.3" y2="252.26" gradientTransform="matrix(1,0,0,1,0,0)" xlink:href="#_ÂÁ_Ï_ÌÌ_È_ËÂÌÚ_129"/>
    <radialGradient id="_ÂÁ_Ï_ÌÌ_È_ËÂÌÚ_128-2" data-name="¡ÂÁ˚ÏˇÌÌ˚È „‡‰ËÂÌÚ 128" cx="205.05" fx="205.05" r="8.13" gradientTransform="matrix(1,0,0,1,0,0)" xlink:href="#_ÂÁ_Ï_ÌÌ_È_ËÂÌÚ_128"/>
    <linearGradient id="_ÂÁ_Ï_ÌÌ_È_ËÂÌÚ_331-2" data-name="¡ÂÁ˚ÏˇÌÌ˚È „‡‰ËÂÌÚ 331" x1="769.22" x2="819.82" gradientTransform="translate(995.78) rotate(-180) scale(1 -1)" xlink:href="#_ÂÁ_Ï_ÌÌ_È_ËÂÌÚ_331"/>
    <linearGradient id="linear-gradient-19" x1="791.18" y1="207.91" x2="757.71" y2="250.51" gradientTransform="translate(995.78) rotate(-180) scale(1 -1)" xlink:href="#linear-gradient-2"/>
    <linearGradient id="linear-gradient-20" x1="196.73" y1="269.85" x2="214.22" y2="285.12" xlink:href="#linear-gradient-12"/>
    <linearGradient id="linear-gradient-21" x1="287.56" y1="272.85" x2="277.63" y2="285.1" xlink:href="#linear-gradient-12"/>
    <linearGradient id="linear-gradient-22" x1="246.4" y1="280.89" x2="245.44" y2="309.12" xlink:href="#linear-gradient-12"/>
    <linearGradient id="linear-gradient-23" x1="222.7" y1="290.71" x2="268.33" y2="290.71" gradientUnits="userSpaceOnUse">
      <stop offset="0" stop-color="#e8d8d7"/>
      <stop offset=".14" stop-color="#efe4e4"/>
      <stop offset=".39" stop-color="#faf8f7"/>
      <stop offset=".57" stop-color="#fff"/>
      <stop offset="1" stop-color="#e8d2d1"/>
    </linearGradient>
    <linearGradient id="linear-gradient-24" x1="207.94" y1="285.51" x2="279.81" y2="285.51" gradientUnits="userSpaceOnUse">
      <stop offset="0" stop-color="#e8d8d7"/>
      <stop offset=".04" stop-color="#ebdddc"/>
      <stop offset=".21" stop-color="#f6f0ef"/>
      <stop offset=".38" stop-color="#fcfbfb"/>
      <stop offset=".57" stop-color="#fff"/>
      <stop offset=".69" stop-color="#fbf7f7"/>
      <stop offset=".87" stop-color="#f1e3e3"/>
      <stop offset="1" stop-color="#e8d2d1"/>
    </linearGradient>
    <linearGradient id="linear-gradient-25" x1="221.03" y1="293.59" x2="273.58" y2="293.59" gradientUnits="userSpaceOnUse">
      <stop offset="0" stop-color="#f96e7e"/>
      <stop offset=".03" stop-color="#f9707f"/>
      <stop offset=".25" stop-color="#fd7985"/>
      <stop offset=".53" stop-color="#ff7d88"/>
      <stop offset=".76" stop-color="#fd7985"/>
      <stop offset="1" stop-color="#f86d7d"/>
      <stop offset="1" stop-color="#f86d7d"/>
    </linearGradient>
    <linearGradient id="linear-gradient-26" x1="218.22" y1="284.35" x2="273.85" y2="284.35" gradientUnits="userSpaceOnUse">
      <stop offset="0" stop-color="#e8d8d7"/>
      <stop offset=".05" stop-color="#eadcdb"/>
      <stop offset=".31" stop-color="#f6efee"/>
      <stop offset=".48" stop-color="#fbf6f6"/>
      <stop offset="1" stop-color="#e8d2d1"/>
    </linearGradient>
    <linearGradient id="linear-gradient-27" x1="225.99" y1="281.82" x2="265.81" y2="281.82" xlink:href="#linear-gradient-25"/>
    <linearGradient id="_ÂÁ_Ï_ÌÌ_È_ËÂÌÚ_117-3" data-name="¡ÂÁ˚ÏˇÌÌ˚È „‡‰ËÂÌÚ 117" x1="245.04" y1="276.41" x2="244.85" y2="241.34" xlink:href="#_ÂÁ_Ï_ÌÌ_È_ËÂÌÚ_117"/>
    <linearGradient id="linear-gradient-28" x1="244.97" y1="247.06" x2="245.72" y2="262.23" xlink:href="#linear-gradient-15"/>
    <linearGradient id="linear-gradient-29" x1="256.77" y1="264.16" x2="258.08" y2="285.61" xlink:href="#linear-gradient-2"/>
    <linearGradient id="linear-gradient-30" x1="233.98" y1="265.55" x2="235.28" y2="287" xlink:href="#linear-gradient-2"/>
    <linearGradient id="_ÂÁ_Ï_ÌÌ_È_ËÂÌÚ_117-4" data-name="¡ÂÁ˚ÏˇÌÌ˚È „‡‰ËÂÌÚ 117" x1="244.48" y1="249.71" x2="245.04" y2="279.56" xlink:href="#_ÂÁ_Ï_ÌÌ_È_ËÂÌÚ_117"/>
    <linearGradient id="linear-gradient-31" x1="247.5" y1="297.01" x2="244.29" y2="343.56" xlink:href="#linear-gradient-12"/>
    <linearGradient id="linear-gradient-32" x1="266.22" y1="192.69" x2="315.87" y2="192.69" gradientUnits="userSpaceOnUse">
      <stop offset="0" stop-color="#673024"/>
      <stop offset=".34" stop-color="#52261c"/>
      <stop offset=".68" stop-color="#462017"/>
      <stop offset="1" stop-color="#421f16"/>
    </linearGradient>
    <linearGradient id="linear-gradient-33" x1="173.71" y1="192.69" x2="223.29" y2="192.69" xlink:href="#linear-gradient-32"/>
    <linearGradient id="linear-gradient-34" x1="248.5" y1="179.34" x2="255.66" y2="56.52" xlink:href="#linear-gradient"/>
    <linearGradient id="linear-gradient-35" x1="247.66" y1="265.97" x2="247.66" y2="86.74" xlink:href="#linear-gradient"/>
    <linearGradient id="_ÂÁ_Ï_ÌÌ_È_ËÂÌÚ_110-2" data-name="¡ÂÁ˚ÏˇÌÌ˚È „‡‰ËÂÌÚ 110" x1="241.35" y1="116.65" x2="245.08" y2="253.55" xlink:href="#_ÂÁ_Ï_ÌÌ_È_ËÂÌÚ_110"/>
    <linearGradient id="linear-gradient-36" x1="164.99" y1="164.62" x2="168.23" y2="309.56" xlink:href="#linear-gradient"/>
    <linearGradient id="linear-gradient-37" x1="325.83" y1="157.51" x2="329.12" y2="304.74" xlink:href="#linear-gradient"/>
    <linearGradient id="_ÂÁ_Ï_ÌÌ_È_ËÂÌÚ_153-2" data-name="¡ÂÁ˚ÏˇÌÌ˚È „‡‰ËÂÌÚ 153" x1="396.17" y1="187.38" x2="346.37" y2="271.06" xlink:href="#_ÂÁ_Ï_ÌÌ_È_ËÂÌÚ_153"/>
    <linearGradient id="_ÂÁ_Ï_ÌÌ_È_ËÂÌÚ_153-3" data-name="¡ÂÁ˚ÏˇÌÌ˚È „‡‰ËÂÌÚ 153" x1="248.03" y1="239.11" x2="246.4" y2="142.78" xlink:href="#_ÂÁ_Ï_ÌÌ_È_ËÂÌÚ_153"/>
    <linearGradient id="_ÂÁ_Ï_ÌÌ_È_ËÂÌÚ_153-4" data-name="¡ÂÁ˚ÏˇÌÌ˚È „‡‰ËÂÌÚ 153" x1="274.91" y1="214.57" x2="272.5" y2="134.57" xlink:href="#_ÂÁ_Ï_ÌÌ_È_ËÂÌÚ_153"/>
    <linearGradient id="_ÂÁ_Ï_ÌÌ_È_ËÂÌÚ_153-5" data-name="¡ÂÁ˚ÏˇÌÌ˚È „‡‰ËÂÌÚ 153" x1="300.26" y1="212.47" x2="297.88" y2="133.52" xlink:href="#_ÂÁ_Ï_ÌÌ_È_ËÂÌÚ_153"/>
    <linearGradient id="_ÂÁ_Ï_ÌÌ_È_ËÂÌÚ_153-6" data-name="¡ÂÁ˚ÏˇÌÌ˚È „‡‰ËÂÌÚ 153" x1="321.56" y1="214.56" x2="319.11" y2="133.42" xlink:href="#_ÂÁ_Ï_ÌÌ_È_ËÂÌÚ_153"/>
    <linearGradient id="_ÂÁ_Ï_ÌÌ_È_ËÂÌÚ_153-7" data-name="¡ÂÁ˚ÏˇÌÌ˚È „‡‰ËÂÌÚ 153" x1="217.35" y1="222.07" x2="214.79" y2="137.45" xlink:href="#_ÂÁ_Ï_ÌÌ_È_ËÂÌÚ_153"/>
    <linearGradient id="_ÂÁ_Ï_ÌÌ_È_ËÂÌÚ_153-8" data-name="¡ÂÁ˚ÏˇÌÌ˚È „‡‰ËÂÌÚ 153" x1="192.83" y1="219" x2="190.37" y2="137.37" xlink:href="#_ÂÁ_Ï_ÌÌ_È_ËÂÌÚ_153"/>
    <linearGradient id="linear-gradient-38" x1="298.25" y1="158.57" x2="305.32" y2="37.2" xlink:href="#linear-gradient"/>
    <linearGradient id="linear-gradient-39" x1="194.07" y1="152.5" x2="201.15" y2="31.13" xlink:href="#linear-gradient"/>
    <linearGradient id="_ÂÁ_Ï_ÌÌ_È_ËÂÌÚ_153-9" data-name="¡ÂÁ˚ÏˇÌÌ˚È „‡‰ËÂÌÚ 153" x1="173.65" y1="215.61" x2="171.26" y2="136.45" xlink:href="#_ÂÁ_Ï_ÌÌ_È_ËÂÌÚ_153"/>
    <linearGradient id="linear-gradient-40" x1="367.73" y1="458.37" x2="367.18" y2="478.32" xlink:href="#linear-gradient-2"/>
    <linearGradient id="linear-gradient-41" x1="330.88" y1="427.7" x2="166.74" y2="427.7" gradientUnits="userSpaceOnUse">
      <stop offset="0" stop-color="#fff"/>
      <stop offset=".36" stop-color="#f8f8fa"/>
      <stop offset="1" stop-color="#f1f0f5"/>
    </linearGradient>
    <linearGradient id="linear-gradient-42" x1="359.78" y1="427.66" x2="342.97" y2="427.66" xlink:href="#linear-gradient-41"/>
    <linearGradient id="linear-gradient-43" x1="153.58" y1="428.33" x2="134.01" y2="428.33" xlink:href="#linear-gradient-41"/>
    <linearGradient id="linear-gradient-44" x1="126.74" y1="458.5" x2="126.19" y2="478.34" xlink:href="#linear-gradient-2"/>
    <linearGradient id="linear-gradient-45" x1="122.96" y1="465.94" x2="122.8" y2="465.08" xlink:href="#linear-gradient-2"/>
    <linearGradient id="linear-gradient-46" x1="370.46" y1="454.96" x2="370.37" y2="464.74" xlink:href="#linear-gradient-2"/>
    <linearGradient id="linear-gradient-47" x1="92.46" y1="336.73" x2="105.83" y2="500.61" xlink:href="#linear-gradient-15"/>
    <linearGradient id="linear-gradient-48" x1="393.73" y1="331.22" x2="407.01" y2="494" xlink:href="#linear-gradient-15"/>
  </defs>
  <g id="Layer_1-2" data-name="Layer 1">
    <g>
      <ellipse class="cls-86" cx="246.76" cy="249.87" rx="246.76" ry="249.87"/>
      <g>
        <path class="cls-95" d="m422.15,425.61c-8.74-36.93-26.65-36.86-26.65-36.86-12.62-2.37-17.84,50.71-19.52,74.01,16.84-10.5,32.33-22.99,46.17-37.15Z"/>
        <path class="cls-95" d="m130.52,437.81c-.71-14.3-22.09-50.36-35.06-42.26-10.01,6.25-14.97,21.55-17.58,36.49,15.48,14.72,32.84,27.45,51.67,37.77.73-16.07,1.15-28.15.96-31.99Z"/>
        <path class="cls-1" d="m319.91,284.6c3.79-14.42-5.21-39.67-5.21-39.67l-62.07,79.7,27.36,79.72s12.09,4.92,24.79,9.54c32.39-12.87,37.56-31.68,34.75-49.38,7.49,14.92,5.8,30.27-27.96,51.8,11.43,3.97,21.66,6.91,21.99,4.89.76-4.63,13.99-27.44,15.68-38.67,7.66-50.91-43.51-43.99-29.34-97.94Z"/>
        <path class="cls-43" d="m328.57,299.3c3.45-16.42-2.12-31.87-13.76-40.29,2.13,5.65.19,1.72,2.13,5.65,5.28,10.69,6.36,19.23,4.31,26.99-2.61,9.87-7.44,18.19-4.62,28.97,4.47,17.06,26.35,27.91,41.81,32.52-20.39-14.15-35.54-26.84-29.86-53.85Z"/>
        <g>
          <path class="cls-95" d="m355.83,384.61c-13.01-1.25-61.54.28-66.98-17.09-6.75-21.61-3.53-55.73-3.53-55.73l-76.33,2.36c9.13,15.22-.38,34.09-.76,50.5-.42,18.03-48.61,18.23-67.37,20.3-10.26,1.13-50.57-3.66-59.57,32.6-1.04,4.21-1.53,9.75-1.63,16.18,21.08,19.66,45.56,35.64,72.43,46.96h189.3c29.46-12.4,56.03-30.42,78.42-52.73-.43-8.55-1.54-15.99-3.71-21.36-11.94-29.56-56.56-21.62-60.28-21.98Z"/>
          <path class="cls-78" d="m291.72,361.86c-2.58-6.81-4.48-22.96-4.62-28.2-1.1,1.35-81.79-8.36-81.79-8.36,0,0,1.67,29.81-2.46,36.56-1.98,3.23-21.32,17.47-36.04,20.54,1.06.82,4.83,5.31,5.67,5.75,12.6,1.24,16.67,2.04,21.81,1.15,6.29-1.09,24.3-8.21,31.95-11.72,41.49-19.01,54.75-29.1,54.75-29.1,1.95,17.68,7.02,27.77,13.31,36,6.3,8.23,23.15,3.01,34.44,2.7,2.82-1.15,5.59-2.8,8.42-4.49-31.54-4.09-43.96-16.89-45.46-20.84Z"/>
          <path class="cls-79" d="m243.82,405.62s14.93,2.64,18.85,7.27c0,0-4.32-11.89-18.85-7.27Z"/>
          <path class="cls-77" d="m263.17,402.72c12.95-10.09,25.91-7.21,42.44-9.13,16.53-1.92,45.12-8.17,45.12-8.17-7.52,1.47-71.78,3.62-77.58,5.06-5.81,1.44-9.97,12.23-9.97,12.23Z"/>
          <path class="cls-83" d="m231.49,391.94c-7.15-2.4-61.75-5.78-71.58-4.82,0,0,68.9,6.91,82.75,15.5,0,0-4.02-8.27-11.17-10.68Z"/>
          <path class="cls-51" d="m202.32,305.4c4.66,13.87,2.83,46.11,2.83,46.11,47.64,15.14,81.95-17.84,81.95-17.84,0,0-.09-18.27,1.42-27.4-3.69-.33-86.2-.86-86.2-.86Z"/>
        </g>
        <path class="cls-84" d="m355.83,384.61l-10.6-1.12s3.21,53.05,12.03,89.82c2.73-1.39,5.43-2.82,8.09-4.3-.72-2.55-1.38-5.26-1.91-8.1-5.9-31.48-7.61-76.31-7.61-76.31Z"/>
        <path class="cls-82" d="m140.87,384.95s-.15,30.68-6.72,62.02c-2.47,11.79-3.78,18.55-4.78,22.73,4.37,2.4,8.82,4.65,13.34,6.78,8.16-38.68,10.93-92.52,10.93-92.52l-12.77.99Z"/>
        <path class="cls-80" d="m223.64,442.75c15.13,10.42,17.25,25.8,16.23,37.93h24.18c-1.27-10.44-.85-27.67,13.05-37.49,12.19-8.61-67.88-10.38-53.45-.44Z"/>
        <path class="cls-81" d="m323.39,380.13s3.56,67.8-20.5,78.09c-32.3,13.82-88.01,11.91-112.82-10.22-17.53-15.63-17.43-66.99-17.43-66.99l-10.99,2.2c-4.35,15.48-5.76,84.37,70.11,97.48h46.6c68.21-14.22,66.86-95.26,66.86-95.26l-21.84-5.3Z"/>
        <path class="cls-90" d="m325.38,379.45s9.9,63.9-10.15,78.73c-11.32,8.38-42.11,13.35-59.93,13.45-20.8.12-55.55-7.83-67.18-18.12-19.49-17.25-16.82-74.06-16.82-74.06,0,0-7.47-.44-24.2,3.09-2.62,19.68-4.19,57.34-12.41,90,33.63,17.39,71.71,27.19,112.05,27.19s78.67-9.87,112.38-27.36c-9.26-33.5-9.84-73.92-9.88-89.84-11.78-3.27-23.87-3.09-23.87-3.09Z"/>
        <path class="cls-18" d="m136.85,463.29c-.84,3.23-1.65,6.26-2.44,9.11,1.19.62,2.39,1.21,3.58,1.8.06-5.03-.31-9.35-1.14-10.91Z"/>
        <g>
          <g>
            <path class="cls-15" d="m157.61,213.59c-15.41.88-11.42,17.3-4.65,32.62,4.43,10.02,8.59,21.38,19.93,21.38,0,0-2.93-20.18-6.41-46.69,0,0-5.87-7.48-8.87-7.31Z"/>
            <path class="cls-16" d="m160.6,241.24c4.06-27.26-14.42-29.13-10.23-10.52,0,0,2.55-8.77,4.89-6.15,2.87,3.22-3.08,5-.04,19.07,1.58,7.31,9.2,15.03,9.2,15.03,0,0-5.55-5.87-3.83-17.43Z"/>
          </g>
          <g>
            <path class="cls-17" d="m334.05,213.59c-3.01-.17-8.87,7.31-8.87,7.31-3.49,26.52-6.41,46.69-6.41,46.69,11.34,0,15.5-11.37,19.93-21.38,6.77-15.31,10.77-31.74-4.65-32.62Z"/>
            <path class="cls-26" d="m331.07,241.24c1.72,11.55-3.83,17.43-3.83,17.43,0,0,7.62-7.71,9.2-15.03,3.04-14.07-2.91-15.85-.04-19.07,2.34-2.62,4.89,6.15,4.89,6.15,4.2-18.61-14.28-16.74-10.23,10.52Z"/>
          </g>
          <path class="cls-95" d="m250.63,93.66s-3.11-.19-4.65-.18c-1.54-.02-4.65.18-4.65.18-34.33,2.17-63.33,23.6-73.21,46.19-10.76,24.6-7.68,52.62-4.61,75.22,3.07,22.6,9.22,59.25,14.86,69.62,5.64,10.37,34.12,37.15,40.27,41.76,5.75,4.31,10.78,11.34,27.42,12.1,15.64.71,22.7-7.71,28.3-12.1,6.05-4.74,33.58-31.39,39.21-41.76,5.64-10.37,11.79-47.02,14.86-69.62,3.07-22.6,6.15-50.62-4.61-75.22-9.88-22.58-38.88-44.01-73.21-46.19Z"/>
          <path class="cls-48" d="m315.27,194.55c-5.74-4.49-14.05-8.22-25.28-7.08-36.01,3.66-35.46,39.58-38.83,60,44.19,17.53,69.91-14.39,69.91-14.39,0,0,7.56-28.07-5.8-38.53Z"/>
          <path class="cls-73" d="m198.72,189.02c-11.25-.75-18.71,2.06-24.41,6.72-13.28,10.85-3.55,41.38-3.55,41.38,0,0,25.94,30.8,70.01,11.88-3.52-20.16-6.03-57.58-42.05-59.98Z"/>
          <path class="cls-53" d="m213.41,224.98c-10.11-3.03-49.28-11.26-47.41,1.75,4.13,28.77,7.89,48.54,12.89,57.5,5.24,9.38,20.64,24.15,27.29,25.27,10.29,1.75,21.2-36.13,21.45-49.12.34-18.17-4.11-32.38-14.22-35.4Z"/>
          <path class="cls-54" d="m278.62,224.98c-10.11,3.02-14.56,17.23-14.22,35.4.25,12.98,11.16,50.86,21.45,49.12,6.65-1.12,22.06-15.89,27.29-25.27,5-8.95,8.59-28.76,12.89-57.5,3.58-23.92-37.31-4.77-47.41-1.75Z"/>
          <path class="cls-22" d="m247.85,312.58c-7.22.34-13.02,2.94-12.98,5.79.04,2.87,5.9,4.93,13.1,4.59,7.2-.34,13-2.93,12.97-5.8-.04-2.87-5.92-4.92-13.1-4.58Z"/>
          <path class="cls-20" d="m163.91,217.93s7.22,52.33,13.92,66.88c2.18,4.74,21.52,24.55,33.78,35.94,0,0-24.6-24.48-31.1-41.16-5.58-14.33-16.61-61.66-16.61-61.66Z"/>
          <path class="cls-19" d="m280.52,320.91c12.26-11.39,31.49-31.36,33.67-36.09,6.7-14.55,13.92-66.88,13.92-66.88,0,0-11.02,47.33-16.61,61.66-6.5,16.68-30.99,41.32-30.99,41.32Z"/>
          <path class="cls-49" d="m268.11,104.92c-33.97-2.97-79.04,17.25-92.03,58.15-13,40.9-10.14,61.55-8.71,76.56,0,0-1.09-21.43,21.63-25.04,0,0,4.94-50.51,15.05-67.98,11.34-19.59,28.95-21.13,41.13-21.95,12.84-.87,30.74,1.17,40.31,16.78,11.54,18.84,18.08,41.96,15.87,72.93,19.57.12,20.23,13.58,22.7,23.22,0,0,8.35-30.69-4.05-70.94-8.14-26.4-17.94-58.76-51.91-61.73Z"/>
          <path class="cls-95" d="m315.49,194.68c-15.96-10.14-26.77-3.24-26.77-3.24,32.73-2.29,28.87,29.24,28.87,29.24,0,0,6.4-20.6-2.1-26Z"/>
          <g>
            <g>
              <path class="cls-70" d="m290.21,204.75c-24.34,0-26.6,14.88-27.1,25.62,1.84.41,3.78.77,7.4,1.88,4.89,1.51,10.61,3.93,18.87,3.85,6.5-.05,20.5-3,20.71-16.98.16-11.06-13.99-13.89-19.87-14.38Z"/>
              <path class="cls-44" d="m264.21,229.54c5.32.76,8.87,2.58,12.56,3.58-2.88-2.65-4.53-5.05-4.32-9.41.19-3.78,3.07-7.91,5.53-10.19-8.62,5.09-13.77,16.02-13.77,16.02Z"/>
              <path class="cls-45" d="m267.58,224.58s-1.85,2.35,1.31,5.96c0,0-2.16-.66-4.67-1.01,0,0,2.22-3.88,3.36-4.96Z"/>
              <path class="cls-92" d="m264.21,229.54c1.53-1.48,4.23-4.52,8.46-7.04.53-2.95,2.2-5.56,4.59-7.4-7.88,3.83-13.05,14.44-13.05,14.44Z"/>
              <path class="cls-67" d="m296.82,224.95c-.23,4.54-2.62,7.39-5.95,9.59,14.22-1.85,18.26-13.13,18.26-13.13-8.79-7.29-15.1-9.57-21.1-10.1,5.35,1.8,9.11,7.35,8.79,13.64Z"/>
              <path class="cls-41" d="m272.65,222.19c-.1.54-.15.93-.2,1.51-.32,4.23,1.32,6.87,4.32,9.41,1.01.49,9.92,2.3,15.37,1.4,3.48-2.15,6-4.89,6.26-9.29.13-2.3-.33-4.49-1.28-6.42-6.91-2.38-16.02-2.33-24.48,3.38Z"/>
              <path class="cls-42" d="m274.04,223.65c0,5.93,5.08,9.88,11.38,9.88s11.37-3.81,11.37-9.74-5.07-10.79-11.37-10.79-11.38,4.72-11.38,10.65Z"/>
              <path class="cls-92" d="m292.11,213.99c2.73,1.52,4.8,3.95,5.75,6.88,4.98,2.08,8.25,4.77,8.25,4.77l2.4-4.84c-3.47-4.39-10.08-5.63-16.4-6.81Z"/>
              <path class="cls-47" d="m292.11,213.99c-3.82-.71-7.78-.76-11.45-.05-1.18.23-2.31.63-3.39,1.16-2.39,1.84-4.21,4.41-4.68,7.4,3.12-1.86,7.15-3.44,12.09-3.9,4.92-.46,9.58.77,13.25,2.3-.86-2.99-3.09-5.39-5.82-6.91Z"/>
              <path class="cls-50" d="m285.81,214.77c-4.5-.34-8.42,2.91-8.73,7.26-.34,4.35,3.06,8.14,7.56,8.49,4.51.33,8.42-2.92,8.74-7.27.32-4.35-3.06-8.15-7.57-8.48Z"/>
              <path class="cls-93" d="m284.02,219.42c1.07-.62,2.47-.22,3.13.87.66,1.1.32,2.48-.75,3.09-1.06.61-2.47.22-3.12-.87-.66-1.09-.33-2.47.74-3.09Z"/>
              <path class="cls-93" d="m290.28,222.7c1.47-.86,3.33-.39,4.17,1.06.84,1.45.34,3.33-1.12,4.19-1.46.87-3.33.39-4.17-1.05-.84-1.45-.34-3.33,1.12-4.2Z"/>
              <path class="cls-52" d="m314.56,210.59s-2.37,4.98-14.25.71c-22.87-7.39-35.63,5.94-36.09,18.24,0,0,6.88-13.51,19.86-14.79,7.9-.78,14.75,2.48,21.58,6.19.08,5.48-7.22,12.18-15.1,13.78,6.75.05,21.75-6.89,22.84-12.6-.42.71-1.85,1.2-3.68.53,0,0,6.44-2.57,4.85-12.06Z"/>
              <path class="cls-25" d="m278.54,205.9c-7.94,2.72-11.38,8.45-11.38,8.45,0,0,3.58-4.7,12.09-7.25,8.84-2.64,21.05-.07,21.05-.07-5.37-2.53-13.83-3.85-21.77-1.13Z"/>
              <path class="cls-91" d="m277.44,220.21s5.44-3.17,15.1-1.04c0,0-1.95-4.91-8.46-4.42-5.33.4-6.64,5.47-6.64,5.47Z"/>
              <path class="cls-89" d="m283.12,213.56c-14.87,2.51-18.9,15.98-18.9,15.98,0,0,5.72-11.57,19.23-13.98,7.68-1.37,16.37,2.41,22.2,5.37,0,0-9.14-9.63-22.53-7.38Z"/>
            </g>
            <g>
              <path class="cls-69" d="m200.27,204.75c24.34,0,26.6,14.88,27.1,25.62-1.84.41-3.78.77-7.4,1.88-4.89,1.51-10.61,3.93-18.87,3.85-6.5-.05-20.5-3-20.71-16.98-.16-11.06,13.99-13.89,19.87-14.38Z"/>
              <path class="cls-66" d="m226.27,229.54c-5.32.76-8.87,2.58-12.56,3.58,2.88-2.65,4.53-5.05,4.32-9.41-.19-3.78-3.07-7.91-5.53-10.19,8.62,5.09,13.77,16.02,13.77,16.02Z"/>
              <path class="cls-65" d="m222.91,224.58s1.85,2.35-1.31,5.96c0,0,2.16-.66,4.67-1.01,0,0-2.22-3.88-3.36-4.96Z"/>
              <path class="cls-92" d="m226.27,229.54c-1.53-1.48-4.23-4.52-8.46-7.04-.53-2.95-2.2-5.56-4.59-7.4,7.88,3.83,13.05,14.44,13.05,14.44Z"/>
              <path class="cls-68" d="m193.67,224.95c.23,4.54,2.62,7.39,5.95,9.59-14.22-1.85-18.26-13.13-18.26-13.13,8.79-7.29,15.1-9.57,21.1-10.1-5.35,1.8-9.11,7.35-8.79,13.64Z"/>
              <path class="cls-72" d="m217.84,222.19c.1.54.15.93.2,1.51.32,4.23-1.32,6.87-4.32,9.41-1.01.49-9.92,2.3-15.37,1.4-3.48-2.15-6-4.89-6.26-9.29-.13-2.3.33-4.49,1.28-6.42,6.91-2.38,16.02-2.33,24.48,3.38Z"/>
              <path class="cls-46" d="m216.45,223.65c0,5.93-5.08,9.88-11.38,9.88s-11.37-3.81-11.37-9.74,5.07-10.79,11.37-10.79,11.38,4.72,11.38,10.65Z"/>
              <path class="cls-92" d="m198.38,213.99c-2.73,1.52-4.8,3.95-5.75,6.88-4.98,2.08-8.25,4.77-8.25,4.77l-2.4-4.84c3.47-4.39,10.08-5.63,16.4-6.81Z"/>
              <path class="cls-71" d="m198.38,213.99c3.82-.71,7.78-.76,11.45-.05,1.18.23,2.31.63,3.39,1.16,2.39,1.84,4.21,4.41,4.68,7.4-3.12-1.86-7.15-3.44-12.09-3.9-4.92-.46-9.58.77-13.25,2.3.86-2.99,3.09-5.39,5.82-6.91Z"/>
              <path class="cls-64" d="m204.68,214.77c4.5-.34,8.42,2.91,8.73,7.26.34,4.35-3.06,8.14-7.56,8.49-4.51.33-8.42-2.92-8.74-7.27-.33-4.35,3.06-8.15,7.57-8.48Z"/>
              <path class="cls-93" d="m206.46,219.42c-1.07-.62-2.47-.22-3.13.87-.66,1.1-.32,2.48.75,3.09,1.06.61,2.47.22,3.12-.87.66-1.09.33-2.47-.74-3.09Z"/>
              <path class="cls-93" d="m213.81,222.7c-1.47-.86-3.33-.39-4.17,1.06-.84,1.45-.34,3.33,1.12,4.19,1.46.87,3.33.39,4.17-1.05.84-1.45.34-3.33-1.12-4.2Z"/>
              <path class="cls-55" d="m175.93,210.59s2.37,4.98,14.25.71c22.87-7.39,35.63,5.94,36.09,18.24,0,0-6.88-13.51-19.86-14.79-7.9-.78-14.75,2.48-21.57,6.19-.08,5.48,7.22,12.18,15.1,13.78-6.75.05-21.75-6.89-22.84-12.6.42.71,1.85,1.2,3.68.53,0,0-6.44-2.57-4.85-12.06Z"/>
              <path class="cls-21" d="m211.95,205.9c7.94,2.72,11.38,8.45,11.38,8.45,0,0-3.58-4.7-12.09-7.25-8.84-2.64-21.05-.07-21.05-.07,5.37-2.53,13.83-3.85,21.77-1.13Z"/>
              <path class="cls-91" d="m213.06,220.22s-5.44-3.21-15.09-1.09c0,0,1.87-4.87,8.38-4.38,5.33.4,6.71,5.47,6.71,5.47Z"/>
              <path class="cls-89" d="m207.37,213.56c14.87,2.51,18.9,15.98,18.9,15.98,0,0-5.72-11.57-19.23-13.98-7.68-1.37-16.37,2.41-22.2,5.37,0,0,9.14-9.63,22.53-7.38Z"/>
            </g>
            <g>
              <path class="cls-28" d="m204.05,274.89c-.86,1.58-.73,4.64,1.33,5.33,2.07.69,7.31,2.42,11.84,5.76-3.34-4.81-12.41-12.5-13.17-11.09Z"/>
              <path class="cls-24" d="m273.88,286.06c4.27-3.67,8.45-4.96,10.46-5.8,2.84-1.75,2.94-4.22,1.97-5.73-.86-1.36-9.45,6.49-12.43,11.53Z"/>
              <path class="cls-27" d="m225.28,296.58c3.9,8.34,25.35,19.96,41.18-.21,0,0-22.49,10.05-41.18.21Z"/>
              <path class="cls-88" d="m243.39,282.32c-20.21-.24-31.98-3.29-36.76-4.29v.05c.14.19.22.31.34.51,2.53,1.13,5.45,1.87,9.17,4.54,2.55,1.84,5.06,14.27,30.19,13.98,13.72-.16,22.01-4.85,30.11-14.25,2.53-2.93,4.95-3.84,6.93-5.01.05-.23.16-.33.22-.57-5.5,1.57-16.54,5.29-40.2,5.03Z"/>
              <path class="cls-23" d="m266.02,284.52c-14.09,3.18-33.28,2.8-40.22,1.53-4.04-1.78-3.64,3.35-3.64,3.35,8.84,9.05,15.93,7.34,23.03,7.52,7.01.19,17.48-2.65,23.69-8.19.6-1.67-.9-4.65-2.86-4.21Z"/>
              <path class="cls-30" d="m231.6,282.73c-4.5-.21-7.24-.87-12.87-2.2,0,0,1.05,1.29,1.71,2.8.86,1.97,5.11,8.65,25.34,8.4,15.22-.2,23.23-5.62,24.31-8.91.65-1.98,2.07-2.86,2.19-3.53,0,0-4.6,2.24-15.39,3.39-10.9,1.16-15.49.51-25.27.05Z"/>
              <path class="cls-85" d="m247.68,296.19c-30.9-.02-20.16-12.64-40.71-17.6.14.03,4.73,2.5,10.14,8.76,5.97,6.9,11.12,17.76,28.44,17.61,15.62-.16,24.22-11.53,29.21-17.78,5.71-7.15,8.55-9.29,8.68-9.32-16.77,4.59-11.21,17.55-35.76,18.33Z"/>
              <path class="cls-14" d="m260.86,293.03c-3.45,1.2-9.28,2.62-15.77,2.91-4.14.19-11.07-.66-15.68-2.59-4.75-2.43-9-7.61-9.89-8.27,1.12,1.51,7.82,17.88,25.22,17.49,20.12-.45,23.74-13.95,27.33-17.97-1.7,1.79-5.96,6.61-11.2,8.43Z"/>
              <path class="cls-94" d="m253.53,296.7c-2.03.7-9.03,1.2-8.76,1.91.27.71,4.45,2.13,9.72.64,4.1-1.15,6.03-3.5,5.77-4.2-.27-.7-4.7.95-6.73,1.65Z"/>
              <path class="cls-88" d="m207.31,279.78c1.23.56,2.17-.37,7.01,1.38,0,0-8.26-4.3-8.8-4.05-.38.17-.01,1.84,1.79,2.67Z"/>
              <path class="cls-88" d="m276.67,280.68c4.23-1.9,5.58-1.01,6.79-1.6,1.79-.86,2.08-2.47,1.74-2.7-.68-.45-8.53,4.3-8.53,4.3Z"/>
              <path class="cls-31" d="m220.47,283.42s8.76,4.7,26.72,4.63c12.97-.05,22.81-5,22.81-5l1.02-2.39-51.87.35,1.31,2.4Z"/>
              <path class="cls-85" d="m256.95,279.24c-6.01-.47-6.68.52-10.99.56-4.21.04-7.59-1.19-12.79-.72-6.77.61-15.05,1.13-24.88-.9,0,0,3.65,2.24,21.76,5.73,5.39,1.03,10.16,2.06,15.72,1.94,6.63.03,12.12-1.35,17.26-2.23,8.7-1.48,18.99-5.82,19.04-6.01-4.64,1.31-18.49,2.14-25.12,1.63Z"/>
              <path class="cls-29" d="m253.5,279.8c-1.48.33-6.9.67-8.67.66-1.78,0-6.7-.87-8.18-.87-1.48,0-10.47.79-10.64,1.42-.5,1.87,20.1,3.19,21.97,3.02,1.87-.17,17.74-2.08,17.84-2.85.1-.76-10.83-1.72-12.31-1.38Z"/>
            </g>
            <g>
              <path class="cls-74" d="m245.47,272.77c3.08-.4,15.86-8.77,15.86-8.77h-32.71s13.78,9.18,16.85,8.77Z"/>
              <g>
                <path class="cls-13" d="m245.01,250.32c-8.68.24-11.13,2.44-10.5,4.75,1.55,5.63,5.24,6.69,10.66,6.67,5.71-.02,10.16-1.28,11.04-7.35.26-1.79-2.51-4.32-11.2-4.08Z"/>
                <path class="cls-4" d="m250.85,265.46s15.94.24,10.79-5.01c-1.73-1.76-10.79,5.01-10.79,5.01Z"/>
                <path class="cls-6" d="m228.68,261.15c-5.33,4.53,11.47,4.29,11.47,4.29,0,0-9.6-5.89-11.47-4.29Z"/>
                <path class="cls-75" d="m245.15,263.35c-16.15-.23-17.99-8.13-20.19-3.06-.9,2.08.82,2.69,3.66,3.7,0,0-.93-2.32,2.7-2.09,2.62.17,4.72,5.74,14.05,5.47,9.96-.29,11.32-5.29,13.88-5.43,2.33-.12,2.08,2.05,2.08,2.05,0,0,4.72-2.44,2.94-4.62-3.25-3.97-4.24,4.18-19.11,3.98Z"/>
              </g>
            </g>
          </g>
          <path class="cls-7" d="m245.79,338.2c-10.92-.36-15.22-3.46-19.43-5.84-2.11-1.19-21.68-18.2-21.68-18.2,0,0,14.83,17.98,21.68,21.84,6.28,3.54,12.29,8.04,19.62,8.04,5.82,0,15.13-3.45,23.04-9.97,4.85-4,18.96-20.2,18.96-20.2-1.52,1.46-19.02,16.53-22.17,18.63-2.99,2-9.38,6.05-20.02,5.7Z"/>
          <path class="cls-5" d="m271.66,190.67c-2.29,1.13-3.58,3.13-3.2,6.92-1.07-2.23-.59-3.82.36-5.32-3.85,3.23-3.37,8.61,1.01,7.11,4.99-1.71,24.61-7.23,28.63-7.33,6.25-.14,14.96,2.12,17.4,3.68,0,0-9.9-9.18-16.78-9.91-6.32-.68-22.5,3.08-27.42,4.85Z"/>
          <path class="cls-3" d="m220.69,192.27c.95,1.5,1.43,3.09.36,5.32.38-3.78-.91-5.78-3.2-6.92-4.91-1.77-21.07-5.53-27.38-4.85-6.88.73-16.76,9.91-16.76,9.91,2.43-1.57,11.13-3.83,17.37-3.68,4.02.1,23.61,5.63,28.59,7.33,4.38,1.5,4.86-3.88,1.01-7.11Z"/>
          <path class="cls-10" d="m237.68,90.98c-74.71,7.62-79.55,100.2-76.26,116.23.93,4.54,7.62,6.01,7.62,6.01,0,0,3.32-17.11,4.23-21.91,3.76-19.8,7.64-23.49,14.5-35.23,3.71-6.33,16.2-25.32,27.62-29.07,17.87-5.88,36.61-8.01,54.45-1.63,4.68,1.67,28.83.02,32.86,21.61,8.52,45.72,19.93,42.48,19.75,68.32,4.33-7.36,10.43-7.6,11.66-13.93,1.22-6.26,6.37-120.86-96.42-110.39Z"/>
          <path class="cls-12" d="m240.15,79.8c-51.59,3.3-58.3,22.45-64.17,28.98-5.88,6.54-17.66,26.22-17.24,52.35.24,15.25.64,38.45,3.98,51.45,0,0,6.65-22.16,6.65-36.09,0-13.94,3.41-22.42,9.44-37.74,7.55-19.17,27.18-27.9,58.21-27.93,6.71,0,37.94,2.02,45.06,2.86,31.44,3.72,33.71,36.75,36.13,44.72,4.6,15.16,13.16,51.87,13.16,51.87,0,0,4.71-19.38,4.97-24.62,1.41-28.13-3.04-45.58-12.93-71.33-8.71-22.69-36.78-37.5-83.26-34.52Z"/>
          <path class="cls-76" d="m286.09,125.65c-36.36-11.9-79.77-3.28-87.56,3.81-13.45,12.25-25.25,46.8-29.48,67.23,20.72-11.67,20.4-54.54,42.56-64.96,11.96-5.63,38.75-11,62.26-3.28,32.07,10.53,26.64,53.54,43.94,61.18-10.4-29.59-13.32-57.95-31.72-63.97Z"/>
          <path class="cls-8" d="m159.25,150.44c-.52,3.62-4.75,30.59-1.64,63.15,6.07.65,7.27,11.03,9.71,26.37,0,0,6.28-52.38,7.18-57.82,0,0-12.9-11.86-15.25-31.7Z"/>
          <path class="cls-11" d="m315.93,181.34c4.51,17.4,6.57,40.89,8.12,59.25,0,0,2.91-24.22,10-27,0,0,6.31-40.65-.72-68.21,0,0-2.26,31.53-17.39,35.96Z"/>
        </g>
        <path class="cls-63" d="m306.11,306.27c-8.3,16.55-14.87,41.91,9.55,48.85-14.98-17.87-11.11-36.34-9.55-48.85Z"/>
        <path class="cls-62" d="m254.98,77.76c-30.48-.27-51.43,4.35-69.89,18.78-18.46,14.42-24.47,45.47-24.47,45.47,0,0,13.54-34.86,36.18-45.44,22.64-10.58,74.24-12.28,96.26-2.38,22.02,9.89,39.07,46.28,39.07,46.28-2.35-10.64-6.76-28.06-20.27-43.92-8-9.4-26.4-18.51-56.88-18.78Z"/>
        <path class="cls-60" d="m267.82,78.44c12.7,5.73-.87,26.98-6.56,37.47,23.44-9.94,28.29-42.78,6.56-37.47Z"/>
        <path class="cls-57" d="m293.27,84.27c7.02,7.91,2.82,21.85-2.87,29.59,15.19-5.41,18.64-31.47,2.87-29.59Z"/>
        <path class="cls-58" d="m314.42,99.7c11.04,16.21.02,29.43-1.62,40.98,12.31-8.77,19.33-36.05,1.62-40.98Z"/>
        <path class="cls-59" d="m211.46,116.54c-1.79-12.78.89-30.62,10.96-36.42-19.3-3.99-23.64,25.2-10.96,36.42Z"/>
        <path class="cls-61" d="m194.01,128.02c-7.39-10.26-2.56-33.12,2.77-39.14-20.8,1.43-18.75,34.29-2.77,39.14Z"/>
        <path class="cls-2" d="m268.34,121.47c52.35,8.74,29.18,57.81,59.23,84.2-19.33-29.06-3.93-89.68-59.23-84.2Z"/>
        <path class="cls-9" d="m163.45,201.13c27.35-27.3,12.24-69.47,60.22-79.78-52.7-4-45.34,47.74-60.22,79.78Z"/>
        <path class="cls-87" d="m325.46,205.67c13.76-12.69,17.69-29.13,10.64-42.72-1.72,22.79-5.41,32.56-10.64,42.72Z"/>
        <path class="cls-87" d="m166.38,205.74c-4.95-14.16-7.16-25.13-8.62-43.12-8.02,12.16-5.55,32.3,8.62,43.12Z"/>
        <path class="cls-56" d="m175.95,106.12c-22.22,10.42-11.93,40.42,3.65,47.7-9.46-18.3-10.54-34.07-3.65-47.7Z"/>
        <path class="cls-39" d="m364.02,469.77c2.32-1.27,4.62-2.59,6.9-3.94-.07-2.53-.2-4.55-.41-5.75-.77-4.32-4.06,3.21-6.49,9.68Z"/>
        <path class="cls-40" d="m325.38,379.45c4.53,55.13-8.33,70.84-10.57,73.87-6.4,8.61-30.83,17.08-61.57,17.28-21.1.14-49.36-5.56-63.96-18.51-20.77-18.42-17.94-71.74-17.97-72.64-2.27-.28-4.54.12-4.54.12-.6,45.04,7.58,64.29,18.15,76.33,10.57,12.04,44.16,20.48,65.39,20.14,20.78-.34,53.26-4.86,67-18.1,16.84-16.22,13.49-75.35,12.89-78.36-1.26-.22-4.83-.14-4.83-.14Z"/>
        <path class="cls-37" d="m349.25,382.54s-3.08-1.14-6.28-1.44c.16,1.67,3.2,35.21,7.4,69.91.83,6.86,2.96,15.55,5.1,23.22,1.44-.72,2.88-1.44,4.31-2.19-.96-3.41-1.78-6.8-2.34-10.01-4.06-23.4-8.19-79.48-8.19-79.48Z"/>
        <path class="cls-38" d="m147.11,382.54s-.28,1.97-.6,4.97c-1.63,15.15-6.89,62.41-11.96,82.54-.18.73-.36,1.43-.54,2.13,2.1,1.09,4.21,2.15,6.34,3.19,8.63-35.32,13.12-92.06,13.23-94.08-3.34.32-6.47,1.26-6.47,1.26Z"/>
        <path class="cls-34" d="m123.39,460.08c-.22,1.23-.35,3.34-.42,5.98,2.31,1.36,4.65,2.68,7,3.97-2.44-6.53-5.8-14.33-6.59-9.94Z"/>
        <path class="cls-32" d="m122.78,465.94c.11.07.23.14.34.2-.06-.49-.1-.82-.12-.96-.03-.22-.11.06-.22.76Z"/>
        <path class="cls-33" d="m370.51,460.08c-.07.46-.38,2.85-.84,6.5.46-.27.92-.55,1.38-.83-.26-3.96-.46-6.21-.54-5.67Z"/>
        <path class="cls-36" d="m105.11,393.46s-15.26,7.23-19.84,24.14c-1.17,4.31-2,10.93-2.6,18.87,7.83,7.07,16.11,13.64,24.79,19.66,2.76-8.65,4.83-15.49,5.56-18.2,3.27-12.11,8.12-47.46-7.91-44.48Z"/>
        <path class="cls-35" d="m395.49,388.75c-16.03-2.98-11.18,32.37-7.91,44.48.72,2.67,2.75,9.38,5.46,17.87,8.7-6.5,16.97-13.56,24.75-21.14-.59-7.13-1.38-13.1-2.45-17.07-4.58-16.91-19.84-24.14-19.84-24.14Z"/>
        <path class="cls-96" d="m309.36,234.17c-4.22,1.06-7.16,3.78-6.59,6.08.58,2.29,4.46,3.3,8.67,2.24,4.21-1.06,7.16-3.77,6.58-6.08-.58-2.29-4.46-3.3-8.66-2.24Z"/>
        <path class="cls-96" d="m183.05,234.79c-4.22-.8-8,.41-8.44,2.7-.45,2.31,2.62,4.82,6.84,5.64,4.23.8,8.01-.4,8.45-2.7.44-2.31-2.63-4.83-6.85-5.65Z"/>
      </g>
    </g>
  </g>
</svg>