<?xml version="1.0" encoding="UTF-8"?>
<svg id="Layer_2" data-name="Layer 2" xmlns="http://www.w3.org/2000/svg" xmlns:xlink="http://www.w3.org/1999/xlink" viewBox="0 0 493.51 499.74">
  <defs>
    <style>
      .cls-1 {
        fill: url(#linear-gradient);
      }

      .cls-1, .cls-2, .cls-3, .cls-4, .cls-5, .cls-6, .cls-7, .cls-8, .cls-9, .cls-10, .cls-11, .cls-12, .cls-13, .cls-14, .cls-15, .cls-16, .cls-17, .cls-18, .cls-19, .cls-20, .cls-21, .cls-22, .cls-23, .cls-24, .cls-25, .cls-26, .cls-27, .cls-28, .cls-29, .cls-30, .cls-31, .cls-32, .cls-33, .cls-34, .cls-35, .cls-36, .cls-37, .cls-38, .cls-39, .cls-40, .cls-41, .cls-42, .cls-43, .cls-44, .cls-45, .cls-46, .cls-47, .cls-48, .cls-49, .cls-50, .cls-51, .cls-52, .cls-53, .cls-54, .cls-55, .cls-56, .cls-57, .cls-58, .cls-59, .cls-60, .cls-61, .cls-62 {
        stroke-width: 0px;
      }

      .cls-2 {
        fill: url(#radial-gradient);
      }

      .cls-3 {
        fill: url(#linear-gradient-25);
      }

      .cls-4 {
        fill: url(#linear-gradient-11);
      }

      .cls-5 {
        fill: url(#linear-gradient-12);
      }

      .cls-6 {
        fill: url(#linear-gradient-13);
      }

      .cls-7 {
        fill: url(#linear-gradient-10);
      }

      .cls-8 {
        fill: url(#linear-gradient-17);
      }

      .cls-9 {
        fill: url(#linear-gradient-16);
      }

      .cls-10 {
        fill: url(#linear-gradient-19);
      }

      .cls-11 {
        fill: url(#linear-gradient-15);
      }

      .cls-12 {
        fill: url(#linear-gradient-23);
      }

      .cls-13 {
        fill: url(#linear-gradient-21);
      }

      .cls-14 {
        fill: url(#linear-gradient-18);
      }

      .cls-15 {
        fill: url(#linear-gradient-14);
      }

      .cls-16 {
        fill: url(#linear-gradient-22);
      }

      .cls-17 {
        fill: url(#linear-gradient-20);
      }

      .cls-18 {
        fill: url(#linear-gradient-24);
      }

      .cls-19 {
        fill: url(#_ÂÁ_Ï_ÌÌ_È_ËÂÌÚ_150);
      }

      .cls-20 {
        fill: url(#_ÂÁ_Ï_ÌÌ_È_ËÂÌÚ_85-9);
      }

      .cls-21 {
        fill: url(#_ÂÁ_Ï_ÌÌ_È_ËÂÌÚ_85-7);
      }

      .cls-22 {
        fill: url(#_ÂÁ_Ï_ÌÌ_È_ËÂÌÚ_85-8);
      }

      .cls-23 {
        fill: url(#_ÂÁ_Ï_ÌÌ_È_ËÂÌÚ_85-2);
      }

      .cls-24 {
        fill: url(#_ÂÁ_Ï_ÌÌ_È_ËÂÌÚ_85-4);
      }

      .cls-25 {
        fill: url(#_ÂÁ_Ï_ÌÌ_È_ËÂÌÚ_85-5);
      }

      .cls-26 {
        fill: url(#_ÂÁ_Ï_ÌÌ_È_ËÂÌÚ_85-6);
      }

      .cls-27 {
        fill: url(#_ÂÁ_Ï_ÌÌ_È_ËÂÌÚ_85-3);
      }

      .cls-28 {
        fill: url(#_ÂÁ_Ï_ÌÌ_È_ËÂÌÚ_1059);
      }

      .cls-29 {
        fill: url(#_ÂÁ_Ï_ÌÌ_È_ËÂÌÚ_1055);
      }

      .cls-30 {
        fill: url(#_ÂÁ_Ï_ÌÌ_È_ËÂÌÚ_1053);
      }

      .cls-31 {
        fill: url(#_ÂÁ_Ï_ÌÌ_È_ËÂÌÚ_1204);
      }

      .cls-32 {
        fill: url(#radial-gradient-2);
      }

      .cls-33 {
        fill: url(#radial-gradient-3);
      }

      .cls-34 {
        fill: url(#radial-gradient-4);
      }

      .cls-35 {
        fill: url(#linear-gradient-4);
      }

      .cls-36 {
        fill: url(#linear-gradient-2);
      }

      .cls-37 {
        fill: url(#linear-gradient-3);
      }

      .cls-38 {
        fill: url(#linear-gradient-8);
      }

      .cls-39 {
        fill: url(#linear-gradient-9);
      }

      .cls-40 {
        fill: url(#linear-gradient-7);
      }

      .cls-41 {
        fill: url(#linear-gradient-5);
      }

      .cls-42 {
        fill: url(#linear-gradient-6);
      }

      .cls-43 {
        fill: url(#_ÂÁ_Ï_ÌÌ_È_ËÂÌÚ_1055-2);
      }

      .cls-44 {
        fill: url(#_ÂÁ_Ï_ÌÌ_È_ËÂÌÚ_1059-3);
      }

      .cls-45 {
        fill: url(#_ÂÁ_Ï_ÌÌ_È_ËÂÌÚ_1059-2);
      }

      .cls-46 {
        fill: url(#_ÂÁ_Ï_ÌÌ_È_ËÂÌÚ_1204-2);
      }

      .cls-47 {
        fill: url(#_ÂÁ_Ï_ÌÌ_È_ËÂÌÚ_1204-4);
      }

      .cls-48 {
        fill: url(#_ÂÁ_Ï_ÌÌ_È_ËÂÌÚ_1204-3);
      }

      .cls-49 {
        fill: url(#_ÂÁ_Ï_ÌÌ_È_ËÂÌÚ_1204-5);
      }

      .cls-50 {
        fill: #f3eceb;
      }

      .cls-51 {
        fill: #f6ece6;
      }

      .cls-52 {
        fill: #f7d4ab;
      }

      .cls-53 {
        fill: #711e22;
      }

      .cls-54 {
        fill: #ddd;
      }

      .cls-55 {
        fill: #e1b18c;
      }

      .cls-56 {
        fill: #dca57b;
      }

      .cls-57 {
        fill: #fe7221;
      }

      .cls-58 {
        fill: #fff;
      }

      .cls-59 {
        fill: #f0c499;
      }

      .cls-60 {
        fill: #fdd8b3;
      }

      .cls-61 {
        fill: url(#_ÂÁ_Ï_ÌÌ_È_ËÂÌÚ_45);
      }

      .cls-62 {
        fill: url(#_ÂÁ_Ï_ÌÌ_È_ËÂÌÚ_85);
      }
    </style>
    <linearGradient id="linear-gradient" x1="206.87" y1="337.75" x2="332.83" y2="362.98" gradientUnits="userSpaceOnUse">
      <stop offset="0" stop-color="#f0c499"/>
      <stop offset="1" stop-color="#f7d4ab"/>
    </linearGradient>
    <linearGradient id="linear-gradient-2" x1="252.45" y1="524.07" x2="240.86" y2="336.11" gradientUnits="userSpaceOnUse">
      <stop offset="0" stop-color="#fe7221"/>
      <stop offset=".59" stop-color="#fe8742"/>
      <stop offset="1" stop-color="#ff9355"/>
    </linearGradient>
    <linearGradient id="linear-gradient-3" x1="243.68" y1="330.17" x2="255.88" y2="434.67" gradientUnits="userSpaceOnUse">
      <stop offset="0" stop-color="#ed5b2b"/>
      <stop offset=".42" stop-color="#f16028"/>
      <stop offset=".98" stop-color="#fd7121"/>
      <stop offset="1" stop-color="#fe7221"/>
    </linearGradient>
    <linearGradient id="linear-gradient-4" x1="336.88" y1="216.57" x2="351.04" y2="250.93" gradientUnits="userSpaceOnUse">
      <stop offset="0" stop-color="#dba379"/>
      <stop offset=".49" stop-color="#e3b086"/>
      <stop offset="1" stop-color="#f0c499"/>
    </linearGradient>
    <linearGradient id="linear-gradient-5" x1="147.41" y1="212.05" x2="166.22" y2="257.68" xlink:href="#linear-gradient-4"/>
    <linearGradient id="linear-gradient-6" x1="246.88" y1="122.99" x2="245.09" y2="218.15" gradientUnits="userSpaceOnUse">
      <stop offset="0" stop-color="#ffd9b3"/>
      <stop offset=".28" stop-color="#fbd6af"/>
      <stop offset="1" stop-color="#f7d4ab"/>
    </linearGradient>
    <linearGradient id="linear-gradient-7" x1="297.16" y1="238.34" x2="294.43" y2="206.29" gradientUnits="userSpaceOnUse">
      <stop offset="0" stop-color="#f7d4ab"/>
      <stop offset=".52" stop-color="#f5d1a8"/>
      <stop offset=".85" stop-color="#f2c99f"/>
      <stop offset="1" stop-color="#f0c499"/>
    </linearGradient>
    <radialGradient id="radial-gradient" cx="1298.44" cy="257.63" fx="1298.44" fy="257.63" r="43.72" gradientTransform="translate(1615.1 22.06) rotate(177.91) scale(1.02 -.71) skewX(-1.54)" gradientUnits="userSpaceOnUse">
      <stop offset="0" stop-color="#f8c39c"/>
      <stop offset="1" stop-color="#f7d4ab"/>
    </radialGradient>
    <linearGradient id="linear-gradient-8" x1="204.19" y1="239.57" x2="201.43" y2="207.13" xlink:href="#linear-gradient-7"/>
    <linearGradient id="linear-gradient-9" x1="248.45" y1="310.29" x2="250.56" y2="347.64" gradientUnits="userSpaceOnUse">
      <stop offset="0" stop-color="#ffd9b3"/>
      <stop offset="1" stop-color="#f7d4ab"/>
    </linearGradient>
    <radialGradient id="radial-gradient-2" cx="120.89" cy="227.31" fx="120.89" fy="227.31" r="44.83" gradientTransform="translate(51.67 104.8) rotate(-3.55) scale(1.02 .69) skewX(2.86)" xlink:href="#radial-gradient"/>
    <linearGradient id="linear-gradient-10" x1="195.32" y1="65.11" x2="184.57" y2="311.88" gradientUnits="userSpaceOnUse">
      <stop offset="0" stop-color="#f7d4ab"/>
      <stop offset=".45" stop-color="#f3caa0"/>
      <stop offset="1" stop-color="#f0c499"/>
    </linearGradient>
    <linearGradient id="linear-gradient-11" x1="318.16" y1="78.43" x2="307.7" y2="318.4" xlink:href="#linear-gradient-10"/>
    <linearGradient id="_ÂÁ_Ï_ÌÌ_È_ËÂÌÚ_1055" data-name="¡ÂÁ˚ÏˇÌÌ˚È „‡‰ËÂÌÚ 1055" x1="269.16" y1="188.81" x2="321.44" y2="188.81" gradientUnits="userSpaceOnUse">
      <stop offset="0" stop-color="#421f16"/>
      <stop offset=".32" stop-color="#462017"/>
      <stop offset=".66" stop-color="#52261c"/>
      <stop offset="1" stop-color="#673024"/>
    </linearGradient>
    <linearGradient id="linear-gradient-12" x1="177.95" y1="188.99" x2="230.08" y2="188.99" gradientUnits="userSpaceOnUse">
      <stop offset="0" stop-color="#673024"/>
      <stop offset=".34" stop-color="#52261c"/>
      <stop offset=".68" stop-color="#462017"/>
      <stop offset="1" stop-color="#421f16"/>
    </linearGradient>
    <linearGradient id="linear-gradient-13" x1="240.84" y1="94.71" x2="250.72" y2="213.56" xlink:href="#linear-gradient-10"/>
    <linearGradient id="linear-gradient-14" x1="244.94" y1="186.52" x2="246.75" y2="262.07" gradientUnits="userSpaceOnUse">
      <stop offset="0" stop-color="#ffd9b3"/>
      <stop offset=".2" stop-color="#fcd7b0"/>
      <stop offset="1" stop-color="#f7d4ab"/>
    </linearGradient>
    <linearGradient id="linear-gradient-15" x1="245.68" y1="224.53" x2="246.57" y2="255.63" xlink:href="#linear-gradient-7"/>
    <linearGradient id="linear-gradient-16" x1="244.98" y1="265.99" x2="247.95" y2="244.06" xlink:href="#linear-gradient-6"/>
    <linearGradient id="_ÂÁ_Ï_ÌÌ_È_ËÂÌÚ_1053" data-name="¡ÂÁ˚ÏˇÌÌ˚È „‡‰ËÂÌÚ 1053" x1="181.94" y1="210.35" x2="232.83" y2="224.68" gradientUnits="userSpaceOnUse">
      <stop offset="0" stop-color="#f0c499"/>
      <stop offset=".51" stop-color="#e3b086"/>
      <stop offset="1" stop-color="#dba379"/>
    </linearGradient>
    <linearGradient id="_ÂÁ_Ï_ÌÌ_È_ËÂÌÚ_45" data-name="¡ÂÁ˚ÏˇÌÌ˚È „‡‰ËÂÌÚ 45" x1="226.03" y1="224.61" x2="193.45" y2="216.75" gradientUnits="userSpaceOnUse">
      <stop offset="0" stop-color="#fff"/>
      <stop offset=".47" stop-color="#fcfcfc"/>
      <stop offset=".77" stop-color="#f5f3f3"/>
      <stop offset="1" stop-color="#ece7e7"/>
    </linearGradient>
    <linearGradient id="_ÂÁ_Ï_ÌÌ_È_ËÂÌÚ_1059" data-name="¡ÂÁ˚ÏˇÌÌ˚È „‡‰ËÂÌÚ 1059" x1="218.34" y1="229.58" x2="177.9" y2="203.66" gradientUnits="userSpaceOnUse">
      <stop offset="0" stop-color="#c5c6c0"/>
      <stop offset="1" stop-color="#94958d"/>
    </linearGradient>
    <linearGradient id="_ÂÁ_Ï_ÌÌ_È_ËÂÌÚ_1059-2" data-name="¡ÂÁ˚ÏˇÌÌ˚È „‡‰ËÂÌÚ 1059" x1="236.15" y1="205.45" x2="184.18" y2="221.66" xlink:href="#_ÂÁ_Ï_ÌÌ_È_ËÂÌÚ_1059"/>
    <radialGradient id="radial-gradient-3" cx="213.73" cy="225.8" fx="213.73" fy="225.8" r="22.88" gradientUnits="userSpaceOnUse">
      <stop offset="0" stop-color="#2a3a3b"/>
      <stop offset="1" stop-color="#1c2727"/>
    </radialGradient>
    <linearGradient id="_ÂÁ_Ï_ÌÌ_È_ËÂÌÚ_1055-2" data-name="¡ÂÁ˚ÏˇÌÌ˚È „‡‰ËÂÌÚ 1055" x1="185.89" y1="214.93" x2="223.1" y2="213.15" xlink:href="#_ÂÁ_Ï_ÌÌ_È_ËÂÌÚ_1055"/>
    <linearGradient id="_ÂÁ_Ï_ÌÌ_È_ËÂÌÚ_1204" data-name="¡ÂÁ˚ÏˇÌÌ˚È „‡‰ËÂÌÚ 1204" x1="270.46" y1="212.15" x2="320.15" y2="226.14" gradientUnits="userSpaceOnUse">
      <stop offset="0" stop-color="#dba379"/>
      <stop offset=".49" stop-color="#e3b086"/>
      <stop offset="1" stop-color="#f0c499"/>
    </linearGradient>
    <linearGradient id="linear-gradient-17" x1="311.92" y1="224.76" x2="280.18" y2="217.1" gradientUnits="userSpaceOnUse">
      <stop offset="0" stop-color="#ece7e7"/>
      <stop offset=".23" stop-color="#f5f3f3"/>
      <stop offset=".53" stop-color="#fcfcfc"/>
      <stop offset="1" stop-color="#fff"/>
    </linearGradient>
    <linearGradient id="_ÂÁ_Ï_ÌÌ_È_ËÂÌÚ_1059-3" data-name="¡ÂÁ˚ÏˇÌÌ˚È „‡‰ËÂÌÚ 1059" x1="304.92" y1="220.68" x2="270.71" y2="222.05" xlink:href="#_ÂÁ_Ï_ÌÌ_È_ËÂÌÚ_1059"/>
    <linearGradient id="linear-gradient-18" x1="285.23" y1="211.46" x2="326.84" y2="232.66" gradientUnits="userSpaceOnUse">
      <stop offset="0" stop-color="#94958d"/>
      <stop offset="1" stop-color="#c5c6c0"/>
    </linearGradient>
    <radialGradient id="radial-gradient-4" cx="299.22" cy="225.8" fx="299.22" fy="225.8" r="22.88" xlink:href="#radial-gradient-3"/>
    <linearGradient id="linear-gradient-19" x1="274.43" y1="215.75" x2="311.26" y2="213.99" xlink:href="#linear-gradient-12"/>
    <linearGradient id="linear-gradient-20" x1="323.95" y1="233.53" x2="297.06" y2="242.81" gradientUnits="userSpaceOnUse">
      <stop offset="0" stop-color="#fbd6af"/>
      <stop offset="1" stop-color="#f7d4ab"/>
    </linearGradient>
    <linearGradient id="linear-gradient-21" x1="202.7" y1="242.82" x2="162.79" y2="233.08" xlink:href="#linear-gradient-20"/>
    <linearGradient id="_ÂÁ_Ï_ÌÌ_È_ËÂÌÚ_1204-2" data-name="¡ÂÁ˚ÏˇÌÌ˚È „‡‰ËÂÌÚ 1204" x1="255.79" y1="383.69" x2="253.79" y2="369.54" xlink:href="#_ÂÁ_Ï_ÌÌ_È_ËÂÌÚ_1204"/>
    <linearGradient id="_ÂÁ_Ï_ÌÌ_È_ËÂÌÚ_85" data-name="¡ÂÁ˚ÏˇÌÌ˚È „‡‰ËÂÌÚ 85" x1="263.09" y1="38.58" x2="246.94" y2="172.35" gradientUnits="userSpaceOnUse">
      <stop offset="0" stop-color="#673024"/>
      <stop offset=".34" stop-color="#52261c"/>
      <stop offset=".68" stop-color="#462017"/>
      <stop offset="1" stop-color="#421f16"/>
    </linearGradient>
    <linearGradient id="linear-gradient-22" x1="290.81" y1="342.81" x2="289.51" y2="263.81" gradientUnits="userSpaceOnUse">
      <stop offset="0" stop-color="#f7d4ab"/>
      <stop offset=".53" stop-color="#f6d1a8"/>
      <stop offset=".87" stop-color="#f2c99f"/>
      <stop offset="1" stop-color="#f1c59a"/>
    </linearGradient>
    <linearGradient id="linear-gradient-23" x1="204.53" y1="332.68" x2="203.4" y2="264" xlink:href="#linear-gradient-22"/>
    <linearGradient id="_ÂÁ_Ï_ÌÌ_È_ËÂÌÚ_1204-3" data-name="¡ÂÁ˚ÏˇÌÌ˚È „‡‰ËÂÌÚ 1204" x1="250.85" y1="354.51" x2="249.13" y2="304.66" xlink:href="#_ÂÁ_Ï_ÌÌ_È_ËÂÌÚ_1204"/>
    <linearGradient id="linear-gradient-24" x1="218.05" y1="294.35" x2="280.51" y2="295.41" gradientUnits="userSpaceOnUse">
      <stop offset="0" stop-color="#e8d9d7"/>
      <stop offset=".14" stop-color="#efe5e4"/>
      <stop offset=".39" stop-color="#faf8f7"/>
      <stop offset=".57" stop-color="#fff"/>
      <stop offset="1" stop-color="#e8d3d1"/>
    </linearGradient>
    <linearGradient id="_ÂÁ_Ï_ÌÌ_È_ËÂÌÚ_1204-4" data-name="¡ÂÁ˚ÏˇÌÌ˚È „‡‰ËÂÌÚ 1204" x1="250.87" y1="353.47" x2="249.19" y2="305.06" xlink:href="#_ÂÁ_Ï_ÌÌ_È_ËÂÌÚ_1204"/>
    <linearGradient id="linear-gradient-25" x1="247.02" y1="270.71" x2="248.02" y2="294.07" gradientUnits="userSpaceOnUse">
      <stop offset="0" stop-color="#e8d9d7"/>
      <stop offset=".4" stop-color="#efe5e3"/>
      <stop offset="1" stop-color="#fff"/>
    </linearGradient>
    <linearGradient id="_ÂÁ_Ï_ÌÌ_È_ËÂÌÚ_1204-5" data-name="¡ÂÁ˚ÏˇÌÌ˚È „‡‰ËÂÌÚ 1204" x1="249.54" y1="362.74" x2="247.89" y2="262.46" xlink:href="#_ÂÁ_Ï_ÌÌ_È_ËÂÌÚ_1204"/>
    <linearGradient id="_ÂÁ_Ï_ÌÌ_È_ËÂÌÚ_150" data-name="¡ÂÁ˚ÏˇÌÌ˚È „‡‰ËÂÌÚ 150" x1="265.75" y1="271.68" x2="249.47" y2="179.55" gradientUnits="userSpaceOnUse">
      <stop offset="0" stop-color="#673024"/>
      <stop offset=".12" stop-color="#5a2a1f"/>
      <stop offset=".31" stop-color="#4c2319"/>
      <stop offset=".56" stop-color="#442016"/>
      <stop offset="1" stop-color="#421f16"/>
    </linearGradient>
    <linearGradient id="_ÂÁ_Ï_ÌÌ_È_ËÂÌÚ_85-2" data-name="¡ÂÁ˚ÏˇÌÌ˚È „‡‰ËÂÌÚ 85" x1="231.03" y1="103.29" x2="212.11" y2="198.55" xlink:href="#_ÂÁ_Ï_ÌÌ_È_ËÂÌÚ_85"/>
    <linearGradient id="_ÂÁ_Ï_ÌÌ_È_ËÂÌÚ_85-3" data-name="¡ÂÁ˚ÏˇÌÌ˚È „‡‰ËÂÌÚ 85" x1="343.09" y1="89.98" x2="306.95" y2="182" xlink:href="#_ÂÁ_Ï_ÌÌ_È_ËÂÌÚ_85"/>
    <linearGradient id="_ÂÁ_Ï_ÌÌ_È_ËÂÌÚ_85-4" data-name="¡ÂÁ˚ÏˇÌÌ˚È „‡‰ËÂÌÚ 85" x1="209.89" y1="102" x2="191.72" y2="193.51" xlink:href="#_ÂÁ_Ï_ÌÌ_È_ËÂÌÚ_85"/>
    <linearGradient id="_ÂÁ_Ï_ÌÌ_È_ËÂÌÚ_85-5" data-name="¡ÂÁ˚ÏˇÌÌ˚È „‡‰ËÂÌÚ 85" x1="294.67" y1="28.16" x2="225.39" y2="381.13" xlink:href="#_ÂÁ_Ï_ÌÌ_È_ËÂÌÚ_85"/>
    <linearGradient id="_ÂÁ_Ï_ÌÌ_È_ËÂÌÚ_85-6" data-name="¡ÂÁ˚ÏˇÌÌ˚È „‡‰ËÂÌÚ 85" x1="258.26" y1="109.8" x2="240.93" y2="197.08" xlink:href="#_ÂÁ_Ï_ÌÌ_È_ËÂÌÚ_85"/>
    <linearGradient id="_ÂÁ_Ï_ÌÌ_È_ËÂÌÚ_85-7" data-name="¡ÂÁ˚ÏˇÌÌ˚È „‡‰ËÂÌÚ 85" x1="166.86" y1="88.57" x2="147.9" y2="184.04" xlink:href="#_ÂÁ_Ï_ÌÌ_È_ËÂÌÚ_85"/>
    <linearGradient id="_ÂÁ_Ï_ÌÌ_È_ËÂÌÚ_85-8" data-name="¡ÂÁ˚ÏˇÌÌ˚È „‡‰ËÂÌÚ 85" x1="166.32" y1="95.68" x2="147.72" y2="189.33" xlink:href="#_ÂÁ_Ï_ÌÌ_È_ËÂÌÚ_85"/>
    <linearGradient id="_ÂÁ_Ï_ÌÌ_È_ËÂÌÚ_85-9" data-name="¡ÂÁ˚ÏˇÌÌ˚È „‡‰ËÂÌÚ 85" x1="347.68" y1="105.01" x2="334.9" y2="169.37" xlink:href="#_ÂÁ_Ï_ÌÌ_È_ËÂÌÚ_85"/>
  </defs>
  <g id="Layer_1-2" data-name="Layer 1">
    <g>
      <ellipse class="cls-51" cx="246.76" cy="249.87" rx="246.76" ry="249.87"/>
      <path class="cls-1" d="m305.91,338.71c-.89-4.15-4.19-46.79-4.19-46.79l-106.69-4.57-.2,50.86c-9.93,7.07-31.73,14.02-31.73,14.02-1.48,16.57,36.79,58.19,83.62,55.98,60.48-2.86,88.84-55.98,88.84-55.98,0,0-28.75-9.37-29.65-13.52Z"/>
      <path class="cls-52" d="m273.42,367.51c-.63.57-38.21,5.06-51.8-.28-6.84-2.68-23.98-21.38-23.98-21.38-7.34,6.96-21.52,9.71-21.52,9.71,41.13,41.7,86.24,35.28,103.68,29.07,17.44-6.21,45.73-29.68,45.73-29.68,0,0-11.74-2.44-22.91-11.39-10.95,13.9-28.58,23.37-29.21,23.94Z"/>
      <path class="cls-57" d="m246.76,499.74c70.1,0,133.37-29.61,178.3-77.14.29-22.39.27-39.89.27-39.89-30.25-13.83-93.43-32.28-93.43-32.28,0,0-17.59,50.91-82.2,54.47-64.62,3.56-85.53-54.47-85.53-54.47-77.87,24.11-95.25,32.28-95.25,32.28,1.04,2.09.93,19.35,1.04,41.43,44.83,46.63,107.47,75.6,176.82,75.6Z"/>
      <path class="cls-52" d="m433.53,398.36s-2.7,9.12-6.6,22.2c4.22-4.56,8.27-9.29,12.14-14.16-1.93-3.03-3.79-5.72-5.55-8.04Z"/>
      <path class="cls-36" d="m251.07,433.38c-62.22-1.76-85.31-9.06-125.23,14.43-5.12,3.01-9.08,7.41-11.77,12.76,38.32,24.8,83.85,39.17,132.69,39.17s97.1-15.26,136.11-41.44c-1.67-5.49-4.19-10.03-7.33-13.17-22.31-22.32-62.25-9.99-124.47-11.74Z"/>
      <path class="cls-57" d="m50.89,401.84c10.02,13.22,21.3,25.4,33.69,36.34-7.04-25.22-15.67-55.48-15.67-55.48-6.29,2.25-12.32,9.19-18.01,19.13Z"/>
      <path class="cls-57" d="m443.07,401.24c-5.59-9.35-11.54-16-17.76-18.53,0,0-8.44,29.58-15.44,54.63,12.2-10.89,23.32-22.98,33.19-36.09Z"/>
      <path class="cls-37" d="m245.48,394.67c-56.07-.65-81.33-44.24-81.33-44.24l-21.83,6.84s31.4,58.52,99.38,58.53c78.53.02,109.54-59.5,109.54-59.5l-19.36-5.87c-3.59,7.84-36.66,44.81-86.41,44.24Z"/>
      <path class="cls-59" d="m346.33,207.44c-13.05.63-25.58,58.51-13.52,58.46,4.23-.02,13.15-4.04,20.03-35.29,0,0,11.75-24.05-6.51-23.17Z"/>
      <path class="cls-35" d="m341.1,235.23c.37,11.74-5.37,17.15-5.37,17.15,0,0,7.85-7.08,10.08-14.27,4.27-13.85-1.04-16.15,1.95-19.13,2.44-2.42,3.88,6.59,3.88,6.59,5.83-18.3-11.42-18.03-10.54,9.67Z"/>
      <path class="cls-59" d="m152.81,207.44c-18.26-.87-6.51,23.17-6.51,23.17,6.88,31.25,15.85,35.89,20.03,35.29,15.72-2.25-.47-57.84-13.52-58.46Z"/>
      <path class="cls-41" d="m158.04,235.23c.88-27.7-16.37-27.97-10.54-9.67,0,0,1.44-9.02,3.88-6.59,2.99,2.98-2.32,5.28,1.95,19.13,2.23,7.2,10.08,14.27,10.08,14.27,0,0-5.75-5.4-5.37-17.15Z"/>
      <path class="cls-42" d="m234.9,85.81c-66.89,2.86-80.05,55.89-80.05,55.89,0,0,5.67,70.73,6.59,78.38.92,7.66,5.95,62.48,9.48,70.61,3.53,8.14,48.87,55.23,61.26,58.84,12.39,3.62,28.62,3.23,38.23,0,9.22-3.1,52.01-54.51,53.84-61.52,2.21-8.47,10.21-44.9,12.06-65.28,1.85-20.38-.37-74.8-2.22-80.03-1.85-5.23-6.37-60.88-99.2-56.91Z"/>
      <path class="cls-40" d="m319.28,192.58c-17.26-12.34-48.32.21-48.32.21-1.2,6.48-11.5,36.75-6.99,39,28.18,14,65.47-3.9,65.47-3.9.27-18.42-7.11-33.13-10.16-35.31Z"/>
      <path class="cls-2" d="m296.48,284.35c15.53,1.02,32.9-.92,36.15-32.5,1.86-18-.11-27.39-7.8-28.8-16.31-3-39.68,4.01-49.42,8.99-20.57,10.52-6.45,50.49,21.07,52.31Z"/>
      <path class="cls-38" d="m179.25,194.27c-3.05,2.18-9.71,15.21-9.44,33.62,0,0,37.29,17.9,65.47,3.9,4.51-2.25-5.01-33.52-6.2-40.01,0,0-32.57-9.85-49.83,2.49Z"/>
      <path class="cls-39" d="m250.44,323.54c-6.52.02-22.87,4.35-22.4,6.7,1.43,7.09,16.57,8.28,23.09,8.24,6.53-.03,19.73-1.65,20-7.7.11-2.38-14.17-7.26-20.7-7.24Z"/>
      <path class="cls-32" d="m218.92,229.39c-4.44-1.6-38.25-9.16-48.32-6.27-5.75,1.65-3.34,14.33-2.38,26.37.46,5.77.39,15.03,1.71,18.66,6.51,17.81,31.32,18.6,45.64,13.63,24.44-8.48,25.88-44.31,3.36-52.38Z"/>
      <path class="cls-7" d="m169.94,185.09l-11.82,7.19,1.18,25.24s3.66,68.29,7.6,74.33c3.94,6.04,33,32.1,48.21,45.75,0,0-40.67-43.52-42.29-49.36-1.62-5.84-2.87-103.15-2.87-103.15Z"/>
      <path class="cls-4" d="m324.26,288.02c-1.62,5.84-43.69,53.46-43.69,53.46,15.2-13.65,45.04-43.59,48.98-49.63,3.94-6.04,8.6-74.33,8.6-74.33l1.18-25.24-8.31-2.34s-5.14,92.25-6.76,98.08Z"/>
      <path class="cls-29" d="m311.93,186.12c-16.77-5.94-26.56-4.09-37.44-3.93-1.41,1.97-3.05,5.85-2.48,8.27-1.24-2.22-1.79-4.36-1.11-6.76-3.41,4.32-.77,10.05-.77,10.05,5.81.78,22.5-2.81,33.94-2.31,13.1.57,17.37,4.38,17.37,4.38,0,0-4.52-7.94-9.51-9.71Z"/>
      <path class="cls-5" d="m227.26,189.93c.52-2.43-1.2-6.27-2.66-8.21-10.88.07-20.71-1.52-37.35,4.76-4.96,1.87-9.3,9.93-9.3,9.93,0,0,2.66-3.65,15.74-4.49,11.42-.74,29.72,2.18,35.51,1.27,0,0,2.52-5.79-.98-10.03.73,2.38.24,4.53-.96,6.78Z"/>
      <path class="cls-6" d="m322.34,120.06c-45.28-3.6-146.46-5.47-156.96-5.22-10.5.24-.3,107.91-.3,107.91,0,0,5.39-45.21,7.73-57.27.14-.7,10.47-25.53,13.81-30.24,3.56-5.02,23.76,3.89,55.23,3.17,21.24-.48,54.88-9.06,62.03-5.5,2.05,1.03,21.12,29.52,22.14,33.78,3.11,12.97,10.3,56.06,10.3,56.06,0,0-2.35-101.76-13.98-102.68Z"/>
      <path class="cls-15" d="m252.51,236.64c.75-16.6-4.42-18.98-8.23-18.84-3.72.15-5.77,5.9-5.02,18.56.75,12.61-1.44,17.45-.94,23.36.23,2.69,1.34,4.45,7.39,4.5,6.65.06,8.96-1.72,9.25-4.23.78-6.88-2.99-11.39-2.45-23.36Z"/>
      <path class="cls-56" d="m251.94,268.92c8.99-2.51,13.75-3.46,13.75-3.46-8.06-6.4-13.75,3.46-13.75,3.46Z"/>
      <path class="cls-56" d="m227.76,264.6s6.64,1.72,13.7,4.42c0,0-5.33-9.82-13.7-4.42Z"/>
      <path class="cls-11" d="m260.95,259.19c-2.5,5.27-12.82,6.9-14.45,6.92-1.95-.09-12.62-1.23-15.82-6.76-1.31-2.25.08-10.32.82-14.45,0,0-9.72,19.32-3.73,19.69,0,0,1.56-1.32,5.86-.88,4.3.44,2.49,7.05,13.29,7.05,8.61,0,5.86-5.74,11.34-6.62,5.47-.88,6.18.71,7.42,1.32,4.73-.6.47-12.46-5.95-21.52,1.67,4.59,2.33,12.88,1.21,15.25Z"/>
      <path class="cls-9" d="m234.62,257.55c-.38,2.71,5.75,7.26,11.81,7.31,6.65.06,11.75-5.68,11.2-8.16-3.28-14.73-21.61-9.22-23.01.85Z"/>
      <path class="cls-30" d="m214.47,203.78c-4.63-.27-23.4,1.25-26.71,3.97-5.9,4.85-7.98,9.25-7.47,14.81.15,1.63,6.45,7.93,19.85,9.01,10.03.82,25.96.03,29.81-4.43,1.85-2.15-.53-10.68-1.28-13.71-1.41-5.72-.11-8.84-14.2-9.66Z"/>
      <path class="cls-61" d="m215.4,209.71c-21.51-2.73-20.21.66-28.92,11.23,0,0,.15,1.66,1.32,3.55,1.2,1.94,4.66,4.64,8.96,5.5,13.81,2.77,18.21.72,24.1-.54,2.51-.54,5.29-3.06,5.22-4.2,0,0,.46-4.68-1.34-8.85-1.38-3.2-4.08-6.02-9.34-6.68Z"/>
      <path class="cls-54" d="m186.48,220.93c.03.68.45,2.15,1.23,3.4,15.45-10.13,32.12-7.79,37.02-7.95-8.73-5.91-21.52-4.59-27.82-5.32-8.03-.93-10.44,9.87-10.44,9.87Z"/>
      <path class="cls-28" d="m206.67,211.01c-7,.37-12.82,6.12-11.96,13.42.18,1.56.37,3.5,2.05,5.55,1.26.39,6.39,1.44,10.08,1.38,4.97.21,9.53-.75,10.7-1.14.3-.32,1.79-3.48,1.95-6.34.41-7.54-4.48-13.3-12.82-12.86Z"/>
      <path class="cls-45" d="m206.15,210.05c-7.53.65-10.81,7.39-11.24,10.44,0,0,8.34-4.27,22.84-4.22,0,0-4.07-6.86-11.6-6.21Z"/>
      <path class="cls-33" d="m206.9,213.13c-4.18.07-7.51,3.63-7.45,7.94.06,4.31,3.5,7.74,7.67,7.67,4.18-.09,7.5-3.64,7.44-7.95-.06-4.31-3.5-7.74-7.67-7.66Z"/>
      <path class="cls-43" d="m220.34,211.01c-7.58-4.49-19.41-3.64-26.98-.38-7.4,3.18-6.88,10.3-6.88,10.3,0,0,3.88-4.67,16.6-6.51,12.72-1.83,21.66,1.96,21.66,1.96,0,0-1.46-3.64-4.39-5.37Z"/>
      <g>
        <path class="cls-58" d="m213.09,221.54c-1.63.86-2.33,2.86-1.57,4.44.77,1.6,2.71,2.21,4.33,1.35,1.63-.86,2.33-2.84,1.57-4.45-.76-1.6-2.7-2.2-4.33-1.35Z"/>
        <path class="cls-58" d="m206.33,218.24c-1.28.67-1.83,2.23-1.23,3.49.6,1.26,2.14,1.73,3.43,1.06,1.29-.67,1.84-2.23,1.23-3.49-.61-1.26-2.14-1.73-3.43-1.06Z"/>
      </g>
      <path class="cls-31" d="m311.74,207.75c-3.31-2.72-19.87-4.24-24.49-3.97-14.08.82-15.01,3.94-16.42,9.66-.75,3.03-3.13,11.56-1.28,13.71,3.85,4.45,19.78,5.25,29.81,4.43,13.4-1.09,19.7-7.38,19.85-9.01.51-5.56-1.57-9.96-7.46-14.81Z"/>
      <path class="cls-8" d="m284.1,209.71c-5.25.67-7.96,3.48-9.34,6.68-1.8,4.17-1.34,8.85-1.34,8.85-.07,1.13,2.71,3.66,5.22,4.2,5.89,1.26,10.29,3.31,24.1.54,4.3-.86,7.75-3.56,8.96-5.5,1.17-1.89,1.32-3.55,1.32-3.55-8.71-10.57-7.42-13.96-28.92-11.23Z"/>
      <path class="cls-54" d="m302.58,211.06c-6.3.73-19.09-.59-27.82,5.32,4.9.15,21.57-2.18,37.02,7.95.78-1.26,1.2-2.72,1.23-3.4,0,0-2.41-10.79-10.44-9.87Z"/>
      <path class="cls-44" d="m292.83,211.01c-8.35-.44-13.23,5.33-12.82,12.86.16,2.86,1.65,6.02,1.95,6.34,1.17.4,5.73,1.36,10.7,1.14,3.69.06,8.83-.99,10.09-1.38,1.68-2.04,1.86-3.99,2.05-5.55.85-7.31-4.96-13.06-11.96-13.42Z"/>
      <path class="cls-14" d="m293.36,210.05c-7.53-.65-11.6,6.21-11.6,6.21,14.5-.04,22.84,4.22,22.84,4.22-.43-3.05-3.71-9.79-11.24-10.44Z"/>
      <path class="cls-34" d="m292.61,213.13c-4.17-.08-7.6,3.35-7.67,7.66-.06,4.31,3.27,7.86,7.44,7.95,4.17.07,7.61-3.36,7.67-7.67.06-4.31-3.27-7.87-7.45-7.94Z"/>
      <path class="cls-10" d="m306.14,210.63c-7.57-3.25-19.4-4.1-26.98.38-2.93,1.74-4.39,5.37-4.39,5.37,0,0,8.94-3.8,21.66-1.96s16.6,6.51,16.6,6.51c0,0,.51-7.12-6.88-10.3Z"/>
      <g>
        <path class="cls-58" d="m298.78,221.18c-1.78.23-3.06,1.99-2.86,3.91.2,1.92,1.81,3.3,3.59,3.06,1.79-.23,3.07-1.98,2.86-3.91-.2-1.92-1.8-3.29-3.59-3.06Z"/>
        <path class="cls-58" d="m291.7,217.96c-1.41.18-2.41,1.55-2.26,3.07.18,1.52,1.44,2.6,2.85,2.43,1.41-.17,2.41-1.55,2.25-3.07-.16-1.52-1.44-2.61-2.85-2.43Z"/>
      </g>
      <path class="cls-17" d="m323.19,230.69c-2.8-1.54-4.89.69-10.71,2.57-5.71,1.84-21.32,4.73-13.98,8.64,8.1,4.33,19.44-1.6,20.81-2.71,1.37-1.11,7.34-6.59,3.88-8.5Z"/>
      <path class="cls-13" d="m185.21,234.43c-5.91-1.59-8.11-3.71-10.83-2.03-3.35,2.08,2.89,7.25,4.32,8.29,1.43,1.04,13.05,6.39,20.92,1.66,7.12-4.27-8.61-6.37-14.41-7.93Z"/>
      <path class="cls-46" d="m234.59,348.9c-4.9-.55-19.49-11.31-19.49-11.31,0,0,14.38,12.2,17.02,13.68,2.64,1.48,23.72,2.89,34.17.89,6.75-1.29,17.34-13.47,17.34-13.47,0,0-10.86,8.9-19.26,10.51-7.01,1.35-24.87.25-29.78-.3Z"/>
      <path class="cls-62" d="m339.33,114.82c1.42-5.32,6.54-10.28-1.31-21.3.53,9.09-8.9,15.66-11.45,17.36,5.8-11.39,16.25-40.11-9.28-64.74,0,0-4.26,12.77-17.76,21.85,0,0,1.42-19.47-9.23-27.81,0,0,1.42,20.83-14.21,30.94,0,0-3.55-17.88-10.65-30.94,0,0-2,17.38-61.09,28.43-39.7,7.42-34,25.11-32.58,41.72,0,0-12.95-3.1-9.4-20.74,0,0-16.08,20.74-5.56,33.01,0,0-14.24,9.5-8.81,33.38.86,3.77,4.8,51.47,4.8,51.47,0,0,8.58,3.54,12.02,16.57-.01-16.29.25-71.12.25-74.33s16.62-30.58,25.98-29.07c2.63.42,7.14,1.67,12.51,3.16,16.81-.24,42.48.36,64.03,1.02,16.55-3.92,35.14-8.06,35.14-8.06,0,0,22.13,19.11,25.22,27.66,1.14,3.17,8.07,63.29,8.59,77.51.01.3.02.58.02.84,2.76-12.43,9.76-15.3,9.76-15.3,1.1-31.03,3.55-50.42,2.44-64.67-1.11-14.25-9.44-16.37-9.44-16.37,0,0,7.3-5.09,17.23-3.33-5.12-9.71-14.4-10.52-17.23-8.26Z"/>
      <path class="cls-16" d="m277.71,265.39c18.87,14.95,15.79,27.09,11.87,30.86,7.26-5.96,13.16-14.27,11.84-16.64-2.21-3.97-23.71-14.23-23.71-14.23Z"/>
      <path class="cls-12" d="m193.5,279.35c-.53,2.91,2.53,7.06,8.06,12.66,0,0-8.43-12.49,12.1-26.51,0,0-19.44,9.88-20.16,13.85Z"/>
      <path class="cls-55" d="m283.06,283.52s9.04-2.1,9.84-2.75,1.52-2.95,1.52-2.95l-5.75,1.75-5.62,3.95Z"/>
      <path class="cls-55" d="m201.24,278.41s.72,2.3,1.52,2.95c.8.64,9.84,2.75,9.84,2.75l-5.62-3.95-5.75-1.75Z"/>
      <path class="cls-48" d="m229.52,317.81c23.96-2.65,40.14.31,40.14.31-18.18-11.3-40.14-.31-40.14-.31Z"/>
      <path class="cls-53" d="m203.38,279.53c.49.51.84,1.2,1.47,1.48,11.5,5.09,11.66,9.96,16.59,12.62,17.48,9.42,37.87,7.13,51.59-.44,7.89-4.36,8.9-9.43,18.35-13.12,1.26-.49,1.51-1.48,1.51-1.48-50.46,12.34-89.52.94-89.52.94Z"/>
      <path class="cls-60" d="m248.6,303.56c-6.81,0-13.52-1.33-13.52,0s5.91,4.29,12.72,4.29c6.81,0,13.53-2.96,13.53-4.29s-5.92,0-12.73,0Z"/>
      <path class="cls-18" d="m268.24,290.03c-4.63.94-13.34,2.68-21.33,2.68-8.81,0-17.74-1.61-22.61-2.5-2.13-.39-3.05,3.33-3.05,3.33,6.41,4.68,14.13,6.45,26.46,6.54,16.47.11,25.55-7.01,25.55-7.01,0,0-2.32-3.58-5.03-3.04Z"/>
      <path class="cls-47" d="m223.46,305.28c26.28,20.9,51.42-1.43,51.42-1.43-26.56,14.13-51.42,1.43-51.42,1.43Z"/>
      <path class="cls-3" d="m214.8,281.94s.17,4.31,4.56,6.22c2.55,1.1,8.26,5.44,30.46,4.76,22.2-.67,26.58-6.04,27.6-6.98,1.89-1.74,2.74-4.69,2.74-4.69,0,0-33.44,6.54-65.36.69Z"/>
      <path class="cls-50" d="m214.73,281.54s.15,1.96.87,3.12c.61.97,18.34,3.56,31.74,3.64,13.39.08,30.88-3.37,31.49-4.14.97-1.21,1.49-3.33,1.49-3.33,0,0-15.07,5.07-65.6.71Z"/>
      <path class="cls-49" d="m200.65,278.17s3.23,1.87,2.74,1.37c0,0,39.05,11.4,89.52-.94l2.74-1.37c-27.4,4.58-94.99.95-94.99.95Z"/>
      <path class="cls-19" d="m307.2,104.7c-7.26,19.17-43.28,14.96-59.73,16.16-16.45,1.2-65.62-9.1-66.08-9.1-1.7,0-20.48,40.09-20.77,47.4-.28,7.31,4.22,50.84,4.22,50.84,0,0,2.8-41.62,3.24-43.39.36-1.49,10.34-35.79,17.08-38.64,6.73-2.85,34.08,4.74,53.19,4.71,19.11-.03,62.9-9.87,67.76-7,4.85,2.87,22.29,37.8,23.25,39.84,1.41,2.98,6.36,46.06,6.36,46.06,0,0-.73-54.02-.88-57.9-.36-9.13-27.64-48.98-27.64-48.98Z"/>
      <path class="cls-23" d="m187.77,113.61c66.06,23.91,113.32-29.4,77.67-73.43,10.72,41.16-38.53,76.36-77.67,73.43Z"/>
      <path class="cls-27" d="m324.13,117.78c15.2,8.63,26.81-11.25,13.89-24.26,1.31,16.81-4.74,21.3-13.89,24.26Z"/>
      <path class="cls-24" d="m171.78,110.33c-3.02-44.18,84.95-17.8,93.66-70.14-18.5,35.26-116.06,12.63-93.66,70.14Z"/>
      <path class="cls-25" d="m238.1,117.78c69.17,23.92,101.23-34.59,79.19-71.64,5.13,32.84-26.48,69.22-79.19,71.64Z"/>
      <path class="cls-26" d="m290.3,40.19c14.48,40.92-33.93,80.18-72.25,76.73,71.61,23.17,107.96-47.77,72.25-76.73Z"/>
      <path class="cls-21" d="m148.01,155.98s4.95-29.57,21.93-32.62l-13.13-.75s-14.49,5.1-8.81,33.38Z"/>
      <path class="cls-22" d="m162.38,89.59c-17.72,14.24-11.36,47.82,10.43,31.9-10.83-.17-19.77-16.79-10.43-31.9Z"/>
      <path class="cls-20" d="m339.33,126.41h-6.83c8.56,8.24,16.54,26.84,16.54,26.84,0,0,.15-10.82-1.13-15.84-2.76-10.77-8.57-10.99-8.57-10.99Z"/>
    </g>
  </g>
</svg>