<?xml version="1.0" encoding="UTF-8"?>
<svg id="Layer_2" data-name="Layer 2" xmlns="http://www.w3.org/2000/svg" xmlns:xlink="http://www.w3.org/1999/xlink" viewBox="0 0 493.51 499.74">
  <defs>
    <style>
      .cls-1 {
        fill: url(#linear-gradient);
      }

      .cls-1, .cls-2, .cls-3, .cls-4, .cls-5, .cls-6, .cls-7, .cls-8, .cls-9, .cls-10, .cls-11, .cls-12, .cls-13, .cls-14, .cls-15, .cls-16, .cls-17, .cls-18, .cls-19, .cls-20, .cls-21, .cls-22, .cls-23, .cls-24, .cls-25, .cls-26, .cls-27, .cls-28, .cls-29, .cls-30, .cls-31, .cls-32, .cls-33, .cls-34, .cls-35, .cls-36, .cls-37, .cls-38, .cls-39, .cls-40, .cls-41, .cls-42, .cls-43, .cls-44, .cls-45, .cls-46, .cls-47, .cls-48, .cls-49, .cls-50, .cls-51, .cls-52, .cls-53, .cls-54, .cls-55, .cls-56, .cls-57, .cls-58, .cls-59, .cls-60, .cls-61, .cls-62, .cls-63, .cls-64, .cls-65, .cls-66, .cls-67, .cls-68, .cls-69, .cls-70, .cls-71, .cls-72, .cls-73 {
        stroke-width: 0px;
      }

      .cls-2 {
        fill: url(#radial-gradient);
      }

      .cls-3 {
        fill: url(#linear-gradient-33);
      }

      .cls-4 {
        fill: url(#linear-gradient-29);
      }

      .cls-5 {
        fill: url(#linear-gradient-30);
      }

      .cls-6 {
        fill: url(#linear-gradient-34);
      }

      .cls-7 {
        fill: url(#linear-gradient-28);
      }

      .cls-8 {
        fill: url(#linear-gradient-25);
      }

      .cls-9 {
        fill: url(#linear-gradient-11);
      }

      .cls-10 {
        fill: url(#linear-gradient-12);
      }

      .cls-11 {
        fill: url(#linear-gradient-13);
      }

      .cls-12 {
        fill: url(#linear-gradient-10);
      }

      .cls-13 {
        fill: url(#linear-gradient-17);
      }

      .cls-14 {
        fill: url(#linear-gradient-16);
      }

      .cls-15 {
        fill: url(#linear-gradient-19);
      }

      .cls-16 {
        fill: url(#linear-gradient-15);
      }

      .cls-17 {
        fill: url(#linear-gradient-23);
      }

      .cls-18 {
        fill: url(#linear-gradient-21);
      }

      .cls-19 {
        fill: url(#linear-gradient-18);
      }

      .cls-20 {
        fill: url(#linear-gradient-14);
      }

      .cls-21 {
        fill: url(#linear-gradient-22);
      }

      .cls-22 {
        fill: url(#linear-gradient-20);
      }

      .cls-23 {
        fill: url(#linear-gradient-27);
      }

      .cls-24 {
        fill: url(#linear-gradient-24);
      }

      .cls-25 {
        fill: url(#linear-gradient-26);
      }

      .cls-26 {
        fill: url(#_ÂÁ_Ï_ÌÌ_È_ËÂÌÚ_145);
      }

      .cls-27 {
        fill: url(#_ÂÁ_Ï_ÌÌ_È_ËÂÌÚ_1723);
      }

      .cls-28 {
        fill: url(#_ÂÁ_Ï_ÌÌ_È_ËÂÌÚ_2473);
      }

      .cls-29 {
        fill: url(#_ÂÁ_Ï_ÌÌ_È_ËÂÌÚ_2463);
      }

      .cls-30 {
        fill: url(#_ÂÁ_Ï_ÌÌ_È_ËÂÌÚ_1056);
      }

      .cls-31 {
        fill: url(#_ÂÁ_Ï_ÌÌ_È_ËÂÌÚ_1057);
      }

      .cls-32 {
        fill: url(#_ÂÁ_Ï_ÌÌ_È_ËÂÌÚ_1204);
      }

      .cls-33 {
        fill: url(#_ÂÁ_Ï_ÌÌ_È_ËÂÌÚ_145-2);
      }

      .cls-34 {
        fill: url(#_ÂÁ_Ï_ÌÌ_È_ËÂÌÚ_145-3);
      }

      .cls-35 {
        fill: url(#radial-gradient-2);
      }

      .cls-36 {
        fill: url(#radial-gradient-3);
      }

      .cls-37 {
        fill: url(#radial-gradient-4);
      }

      .cls-38 {
        fill: url(#linear-gradient-4);
      }

      .cls-39 {
        fill: url(#linear-gradient-2);
      }

      .cls-40 {
        fill: url(#linear-gradient-3);
      }

      .cls-41 {
        fill: url(#linear-gradient-8);
      }

      .cls-42 {
        fill: url(#linear-gradient-9);
      }

      .cls-43 {
        fill: url(#linear-gradient-7);
      }

      .cls-44 {
        fill: url(#linear-gradient-5);
      }

      .cls-45 {
        fill: url(#linear-gradient-6);
      }

      .cls-46 {
        fill: url(#_ÂÁ_Ï_ÌÌ_È_ËÂÌÚ_1057-3);
      }

      .cls-47 {
        fill: url(#_ÂÁ_Ï_ÌÌ_È_ËÂÌÚ_1057-2);
      }

      .cls-48 {
        fill: url(#_ÂÁ_Ï_ÌÌ_È_ËÂÌÚ_1204-7);
      }

      .cls-49 {
        fill: url(#_ÂÁ_Ï_ÌÌ_È_ËÂÌÚ_1204-9);
      }

      .cls-50 {
        fill: url(#_ÂÁ_Ï_ÌÌ_È_ËÂÌÚ_1204-2);
      }

      .cls-51 {
        fill: url(#_ÂÁ_Ï_ÌÌ_È_ËÂÌÚ_1204-4);
      }

      .cls-52 {
        fill: url(#_ÂÁ_Ï_ÌÌ_È_ËÂÌÚ_1204-3);
      }

      .cls-53 {
        fill: url(#_ÂÁ_Ï_ÌÌ_È_ËÂÌÚ_1204-6);
      }

      .cls-54 {
        fill: url(#_ÂÁ_Ï_ÌÌ_È_ËÂÌÚ_1204-5);
      }

      .cls-55 {
        fill: url(#_ÂÁ_Ï_ÌÌ_È_ËÂÌÚ_1204-8);
      }

      .cls-56 {
        fill: url(#_ÂÁ_Ï_ÌÌ_È_ËÂÌÚ_2473-2);
      }

      .cls-57 {
        fill: url(#_ÂÁ_Ï_ÌÌ_È_ËÂÌÚ_2473-3);
      }

      .cls-58 {
        fill: url(#_ÂÁ_Ï_ÌÌ_È_ËÂÌÚ_2463-3);
      }

      .cls-59 {
        fill: url(#_ÂÁ_Ï_ÌÌ_È_ËÂÌÚ_2463-2);
      }

      .cls-60 {
        fill: url(#_ÂÁ_Ï_ÌÌ_È_ËÂÌÚ_1723-3);
      }

      .cls-61 {
        fill: url(#_ÂÁ_Ï_ÌÌ_È_ËÂÌÚ_1723-2);
      }

      .cls-62 {
        fill: #f3eceb;
      }

      .cls-63 {
        fill: #f6ece6;
      }

      .cls-64 {
        fill: #711e22;
      }

      .cls-65 {
        fill: #1f2e50;
      }

      .cls-66 {
        fill: #e1b18c;
      }

      .cls-67 {
        fill: #dca57b;
      }

      .cls-68 {
        fill: #f1f0f5;
      }

      .cls-69 {
        fill: #fff;
      }

      .cls-70 {
        fill: #f0c499;
      }

      .cls-71 {
        fill: #fdd8b3;
      }

      .cls-72 {
        fill: url(#linear-gradient-32);
      }

      .cls-72, .cls-73 {
        opacity: .32;
      }

      .cls-73 {
        fill: url(#linear-gradient-31);
      }
    </style>
    <linearGradient id="_ÂÁ_Ï_ÌÌ_È_ËÂÌÚ_1723" data-name="¡ÂÁ˚ÏˇÌÌ˚È „‡‰ËÂÌÚ 1723" x1="264.51" y1="434.41" x2="255.21" y2="380.95" gradientUnits="userSpaceOnUse">
      <stop offset="0" stop-color="#f1f0f5"/>
      <stop offset="1" stop-color="#d2d1d5"/>
    </linearGradient>
    <linearGradient id="_ÂÁ_Ï_ÌÌ_È_ËÂÌÚ_1204" data-name="¡ÂÁ˚ÏˇÌÌ˚È „‡‰ËÂÌÚ 1204" x1="205.43" y1="298.56" x2="295.61" y2="403.71" gradientUnits="userSpaceOnUse">
      <stop offset="0" stop-color="#dba379"/>
      <stop offset=".49" stop-color="#e3b086"/>
      <stop offset="1" stop-color="#f0c499"/>
    </linearGradient>
    <linearGradient id="_ÂÁ_Ï_ÌÌ_È_ËÂÌÚ_1204-2" data-name="¡ÂÁ˚ÏˇÌÌ˚È „‡‰ËÂÌÚ 1204" x1="261.52" y1="369.77" x2="276.86" y2="427.12" xlink:href="#_ÂÁ_Ï_ÌÌ_È_ËÂÌÚ_1204"/>
    <linearGradient id="_ÂÁ_Ï_ÌÌ_È_ËÂÌÚ_2473" data-name="¡ÂÁ˚ÏˇÌÌ˚È „‡‰ËÂÌÚ 2473" x1="248.35" y1="471.46" x2="246.33" y2="544.55" gradientUnits="userSpaceOnUse">
      <stop offset="0" stop-color="#28375a"/>
      <stop offset=".38" stop-color="#213053"/>
      <stop offset="1" stop-color="#1f2d50"/>
    </linearGradient>
    <linearGradient id="_ÂÁ_Ï_ÌÌ_È_ËÂÌÚ_1723-2" data-name="¡ÂÁ˚ÏˇÌÌ˚È „‡‰ËÂÌÚ 1723" x1="249.6" y1="399.77" x2="280.05" y2="386.09" xlink:href="#_ÂÁ_Ï_ÌÌ_È_ËÂÌÚ_1723"/>
    <linearGradient id="_ÂÁ_Ï_ÌÌ_È_ËÂÌÚ_1723-3" data-name="¡ÂÁ˚ÏˇÌÌ˚È „‡‰ËÂÌÚ 1723" x1="273.11" y1="400.95" x2="218.96" y2="386.98" xlink:href="#_ÂÁ_Ï_ÌÌ_È_ËÂÌÚ_1723"/>
    <linearGradient id="_ÂÁ_Ï_ÌÌ_È_ËÂÌÚ_2463" data-name="¡ÂÁ˚ÏˇÌÌ˚È „‡‰ËÂÌÚ 2463" x1="246.79" y1="432.08" x2="248.86" y2="351.34" gradientUnits="userSpaceOnUse">
      <stop offset="0" stop-color="#1f2e50"/>
      <stop offset=".07" stop-color="#1c2b4d"/>
      <stop offset=".6" stop-color="#0e1a3d"/>
      <stop offset="1" stop-color="#091538"/>
    </linearGradient>
    <linearGradient id="_ÂÁ_Ï_ÌÌ_È_ËÂÌÚ_2473-2" data-name="¡ÂÁ˚ÏˇÌÌ˚È „‡‰ËÂÌÚ 2473" x1="386.03" y1="382.13" x2="380.95" y2="480.97" xlink:href="#_ÂÁ_Ï_ÌÌ_È_ËÂÌÚ_2473"/>
    <linearGradient id="_ÂÁ_Ï_ÌÌ_È_ËÂÌÚ_2473-3" data-name="¡ÂÁ˚ÏˇÌÌ˚È „‡‰ËÂÌÚ 2473" x1="111.94" y1="377.08" x2="106.34" y2="486.16" xlink:href="#_ÂÁ_Ï_ÌÌ_È_ËÂÌÚ_2473"/>
    <linearGradient id="_ÂÁ_Ï_ÌÌ_È_ËÂÌÚ_2463-2" data-name="¡ÂÁ˚ÏˇÌÌ˚È „‡‰ËÂÌÚ 2463" x1="288.62" y1="431.36" x2="289.82" y2="384.48" xlink:href="#_ÂÁ_Ï_ÌÌ_È_ËÂÌÚ_2463"/>
    <linearGradient id="_ÂÁ_Ï_ÌÌ_È_ËÂÌÚ_2463-3" data-name="¡ÂÁ˚ÏˇÌÌ˚È „‡‰ËÂÌÚ 2463" x1="206.48" y1="432.54" x2="207.72" y2="384.35" xlink:href="#_ÂÁ_Ï_ÌÌ_È_ËÂÌÚ_2463"/>
    <linearGradient id="linear-gradient" x1="246.52" y1="123.34" x2="244.71" y2="219.64" gradientUnits="userSpaceOnUse">
      <stop offset="0" stop-color="#ffd9b3"/>
      <stop offset=".28" stop-color="#fbd6af"/>
      <stop offset="1" stop-color="#f7d4ab"/>
    </linearGradient>
    <linearGradient id="linear-gradient-2" x1="104.36" y1="1051.57" x2="122.05" y2="1094.48" gradientTransform="translate(195.18 -992.14) rotate(10.58) scale(1 1.14) skewX(3.8)" gradientUnits="userSpaceOnUse">
      <stop offset="0" stop-color="#dba379"/>
      <stop offset=".49" stop-color="#e3b086"/>
      <stop offset="1" stop-color="#f0c499"/>
    </linearGradient>
    <linearGradient id="linear-gradient-3" x1="1717.29" y1="762.75" x2="1734.98" y2="805.65" gradientTransform="translate(1845.66 -1030.99) rotate(166.74) scale(.99 -1.14) skewX(3.14)" xlink:href="#linear-gradient-2"/>
    <linearGradient id="linear-gradient-4" x1="294.69" y1="250.57" x2="291.8" y2="216.7" gradientTransform="translate(-1.87 -2.87) rotate(-.02)" gradientUnits="userSpaceOnUse">
      <stop offset="0" stop-color="#f7d4ab"/>
      <stop offset=".52" stop-color="#f5d1a8"/>
      <stop offset=".85" stop-color="#f2c99f"/>
      <stop offset="1" stop-color="#f0c499"/>
    </linearGradient>
    <linearGradient id="linear-gradient-5" x1="6996.18" y1="238.01" x2="6993.64" y2="208.15" gradientTransform="translate(7195.74 -9.77) rotate(179.89) scale(1 -1)" xlink:href="#linear-gradient-4"/>
    <radialGradient id="radial-gradient" cx="2264.61" cy="-426.72" fx="2264.61" fy="-426.72" r="41.49" gradientTransform="translate(2589.2 471.32) rotate(177.87) scale(1 -.71) skewX(-1.48)" gradientUnits="userSpaceOnUse">
      <stop offset="0" stop-color="#f8c39c"/>
      <stop offset="1" stop-color="#f7d4ab"/>
    </radialGradient>
    <linearGradient id="linear-gradient-6" x1="246.25" y1="323.05" x2="248.13" y2="356.22" gradientUnits="userSpaceOnUse">
      <stop offset="0" stop-color="#ffd9b3"/>
      <stop offset="1" stop-color="#f7d4ab"/>
    </linearGradient>
    <radialGradient id="radial-gradient-2" cx="328.33" cy="-546.53" fx="328.33" fy="-546.53" r="44.31" gradientTransform="translate(-89.52 650.26) rotate(-3.63) scale(1 .69) skewX(2.76)" xlink:href="#radial-gradient"/>
    <linearGradient id="_ÂÁ_Ï_ÌÌ_È_ËÂÌÚ_1204-3" data-name="¡ÂÁ˚ÏˇÌÌ˚È „‡‰ËÂÌÚ 1204" x1="214.01" y1="534.72" x2="205.19" y2="282.18" xlink:href="#_ÂÁ_Ï_ÌÌ_È_ËÂÌÚ_1204"/>
    <linearGradient id="_ÂÁ_Ï_ÌÌ_È_ËÂÌÚ_1204-4" data-name="¡ÂÁ˚ÏˇÌÌ˚È „‡‰ËÂÌÚ 1204" x1="294.24" y1="528.54" x2="285.64" y2="282.31" xlink:href="#_ÂÁ_Ï_ÌÌ_È_ËÂÌÚ_1204"/>
    <linearGradient id="linear-gradient-7" x1="326.17" y1="235.11" x2="297.8" y2="244.9" gradientUnits="userSpaceOnUse">
      <stop offset="0" stop-color="#fbd6af"/>
      <stop offset="1" stop-color="#f7d4ab"/>
    </linearGradient>
    <linearGradient id="_ÂÁ_Ï_ÌÌ_È_ËÂÌÚ_1204-5" data-name="¡ÂÁ˚ÏˇÌÌ˚È „‡‰ËÂÌÚ 1204" x1="248.68" y1="367.86" x2="246.7" y2="310.86" xlink:href="#_ÂÁ_Ï_ÌÌ_È_ËÂÌÚ_1204"/>
    <linearGradient id="linear-gradient-8" x1="211.6" y1="299.04" x2="282.16" y2="300.25" gradientUnits="userSpaceOnUse">
      <stop offset="0" stop-color="#e8d9d7"/>
      <stop offset=".14" stop-color="#efe5e4"/>
      <stop offset=".39" stop-color="#faf8f7"/>
      <stop offset=".57" stop-color="#fff"/>
      <stop offset="1" stop-color="#e8d3d1"/>
    </linearGradient>
    <linearGradient id="linear-gradient-9" x1="244.32" y1="272" x2="245.47" y2="298.72" gradientUnits="userSpaceOnUse">
      <stop offset="0" stop-color="#e8d9d7"/>
      <stop offset=".4" stop-color="#efe5e3"/>
      <stop offset="1" stop-color="#fff"/>
    </linearGradient>
    <linearGradient id="_ÂÁ_Ï_ÌÌ_È_ËÂÌÚ_1204-6" data-name="¡ÂÁ˚ÏˇÌÌ˚È „‡‰ËÂÌÚ 1204" x1="247.2" y1="377.22" x2="245.31" y2="262.55" xlink:href="#_ÂÁ_Ï_ÌÌ_È_ËÂÌÚ_1204"/>
    <linearGradient id="linear-gradient-10" x1="193.37" y1="243.81" x2="155.11" y2="234.47" xlink:href="#linear-gradient-7"/>
    <linearGradient id="_ÂÁ_Ï_ÌÌ_È_ËÂÌÚ_1204-7" data-name="¡ÂÁ˚ÏˇÌÌ˚È „‡‰ËÂÌÚ 1204" x1="268.14" y1="213.79" x2="318.83" y2="228.07" xlink:href="#_ÂÁ_Ï_ÌÌ_È_ËÂÌÚ_1204"/>
    <linearGradient id="linear-gradient-11" x1="310.51" y1="227.52" x2="277.23" y2="219.49" gradientUnits="userSpaceOnUse">
      <stop offset="0" stop-color="#ece7e7"/>
      <stop offset=".23" stop-color="#f5f3f3"/>
      <stop offset=".53" stop-color="#fcfcfc"/>
      <stop offset="1" stop-color="#fff"/>
    </linearGradient>
    <linearGradient id="linear-gradient-12" x1="291.03" y1="222.16" x2="291.33" y2="246.2" xlink:href="#linear-gradient-11"/>
    <linearGradient id="_ÂÁ_Ï_ÌÌ_È_ËÂÌÚ_1056" data-name="¡ÂÁ˚ÏˇÌÌ˚È „‡‰ËÂÌÚ 1056" x1="267.12" y1="211.39" x2="305.7" y2="232.44" gradientUnits="userSpaceOnUse">
      <stop offset="0" stop-color="#715241"/>
      <stop offset="1" stop-color="#b89c8c"/>
    </linearGradient>
    <linearGradient id="_ÂÁ_Ï_ÌÌ_È_ËÂÌÚ_1057" data-name="¡ÂÁ˚ÏˇÌÌ˚È „‡‰ËÂÌÚ 1057" x1="300.73" y1="257.89" x2="292.33" y2="230.38" gradientUnits="userSpaceOnUse">
      <stop offset="0" stop-color="#b89c8c"/>
      <stop offset="1" stop-color="#715241"/>
    </linearGradient>
    <radialGradient id="radial-gradient-3" cx="298.03" cy="227.79" fx="298.03" fy="227.79" r="24.89" gradientUnits="userSpaceOnUse">
      <stop offset="0" stop-color="#2a3a3b"/>
      <stop offset="1" stop-color="#1c2727"/>
    </radialGradient>
    <linearGradient id="linear-gradient-13" x1="270.21" y1="217.03" x2="311.87" y2="217.03" gradientUnits="userSpaceOnUse">
      <stop offset="0" stop-color="#3c2a25"/>
      <stop offset=".08" stop-color="#382723"/>
      <stop offset=".55" stop-color="#2c1e1a"/>
      <stop offset="1" stop-color="#281b18"/>
    </linearGradient>
    <linearGradient id="_ÂÁ_Ï_ÌÌ_È_ËÂÌÚ_1204-8" data-name="¡ÂÁ˚ÏˇÌÌ˚È „‡‰ËÂÌÚ 1204" x1="176.66" y1="213.05" x2="228.86" y2="227.75" xlink:href="#_ÂÁ_Ï_ÌÌ_È_ËÂÌÚ_1204"/>
    <linearGradient id="linear-gradient-14" x1="222.39" y1="227.47" x2="188.9" y2="219.39" xlink:href="#linear-gradient-11"/>
    <linearGradient id="linear-gradient-15" x1="202.86" y1="222.09" x2="203.17" y2="247.34" xlink:href="#linear-gradient-11"/>
    <linearGradient id="_ÂÁ_Ï_ÌÌ_È_ËÂÌÚ_1057-2" data-name="¡ÂÁ˚ÏˇÌÌ˚È „‡‰ËÂÌÚ 1057" x1="185.1" y1="213.44" x2="223.43" y2="234.35" xlink:href="#_ÂÁ_Ï_ÌÌ_È_ËÂÌÚ_1057"/>
    <linearGradient id="_ÂÁ_Ï_ÌÌ_È_ËÂÌÚ_1057-3" data-name="¡ÂÁ˚ÏˇÌÌ˚È „‡‰ËÂÌÚ 1057" x1="216.73" y1="264.06" x2="207.1" y2="232.53" xlink:href="#_ÂÁ_Ï_ÌÌ_È_ËÂÌÚ_1057"/>
    <radialGradient id="radial-gradient-4" cx="211.31" cy="227.41" fx="211.31" fy="227.41" r="24.89" xlink:href="#radial-gradient-3"/>
    <linearGradient id="linear-gradient-16" x1="182.03" y1="216.66" x2="223.7" y2="216.66" xlink:href="#linear-gradient-13"/>
    <linearGradient id="linear-gradient-17" x1="174.91" y1="199.07" x2="227.25" y2="199.07" gradientUnits="userSpaceOnUse">
      <stop offset="0" stop-color="#281b18"/>
      <stop offset=".45" stop-color="#2c1e1a"/>
      <stop offset=".92" stop-color="#382723"/>
      <stop offset="1" stop-color="#3c2a25"/>
    </linearGradient>
    <linearGradient id="linear-gradient-18" x1="266.66" y1="199.07" x2="319" y2="199.07" xlink:href="#linear-gradient-17"/>
    <linearGradient id="linear-gradient-19" x1="236.74" y1="95.28" x2="248.47" y2="236.47" gradientUnits="userSpaceOnUse">
      <stop offset="0" stop-color="#f7d4ab"/>
      <stop offset=".45" stop-color="#f3caa0"/>
      <stop offset="1" stop-color="#f0c499"/>
    </linearGradient>
    <linearGradient id="linear-gradient-20" x1="187.1" y1="186.94" x2="181.22" y2="322.97" gradientTransform="matrix(1,0,0,1,0,0)" xlink:href="#linear-gradient-4"/>
    <linearGradient id="_ÂÁ_Ï_ÌÌ_È_ËÂÌÚ_1204-9" data-name="¡ÂÁ˚ÏˇÌÌ˚È „‡‰ËÂÌÚ 1204" x1="248.7" y1="366.69" x2="246.79" y2="311.32" xlink:href="#_ÂÁ_Ï_ÌÌ_È_ËÂÌÚ_1204"/>
    <linearGradient id="linear-gradient-21" x1="316.56" y1="192.53" x2="310.69" y2="328.56" gradientTransform="matrix(1,0,0,1,0,0)" xlink:href="#linear-gradient-4"/>
    <linearGradient id="linear-gradient-22" x1="248.14" y1="370.87" x2="245.7" y2="275.04" gradientUnits="userSpaceOnUse">
      <stop offset="0" stop-color="#4c3c38"/>
      <stop offset=".14" stop-color="#463733"/>
      <stop offset=".52" stop-color="#3c2e2b"/>
      <stop offset="1" stop-color="#392c29"/>
    </linearGradient>
    <linearGradient id="linear-gradient-23" x1="245.46" y1="330.2" x2="253.46" y2="422.11" xlink:href="#linear-gradient-22"/>
    <linearGradient id="linear-gradient-24" x1="245.09" y1="174.75" x2="247.19" y2="262.42" gradientUnits="userSpaceOnUse">
      <stop offset="0" stop-color="#ffd9b3"/>
      <stop offset=".2" stop-color="#fcd7b0"/>
      <stop offset="1" stop-color="#f7d4ab"/>
    </linearGradient>
    <linearGradient id="linear-gradient-25" x1="245.73" y1="229.26" x2="246.56" y2="258.2" gradientTransform="matrix(1,0,0,1,0,0)" xlink:href="#linear-gradient-4"/>
    <linearGradient id="linear-gradient-26" x1="247.26" y1="259.9" x2="250.75" y2="234.13" xlink:href="#linear-gradient"/>
    <linearGradient id="linear-gradient-27" x1="247.99" y1="317.2" x2="245.72" y2="369.97" xlink:href="#linear-gradient-22"/>
    <linearGradient id="linear-gradient-28" x1="245.24" y1="88.39" x2="243.18" y2="311.53" gradientUnits="userSpaceOnUse">
      <stop offset="0" stop-color="#3c2a25"/>
      <stop offset=".16" stop-color="#352520"/>
      <stop offset=".54" stop-color="#2b1d1a"/>
      <stop offset="1" stop-color="#281b18"/>
    </linearGradient>
    <linearGradient id="linear-gradient-29" x1="243.18" y1="286.11" x2="249.52" y2="108.02" xlink:href="#linear-gradient-28"/>
    <linearGradient id="_ÂÁ_Ï_ÌÌ_È_ËÂÌÚ_145" data-name="¡ÂÁ˚ÏˇÌÌ˚È „‡‰ËÂÌÚ 145" x1="322.88" y1="241.44" x2="340.1" y2="105.77" gradientUnits="userSpaceOnUse">
      <stop offset="0" stop-color="#281b18"/>
      <stop offset=".4" stop-color="#2b1d1a"/>
      <stop offset=".73" stop-color="#352622"/>
      <stop offset="1" stop-color="#44332e"/>
    </linearGradient>
    <linearGradient id="_ÂÁ_Ï_ÌÌ_È_ËÂÌÚ_145-2" data-name="¡ÂÁ˚ÏˇÌÌ˚È „‡‰ËÂÌÚ 145" x1="262.09" y1="239.25" x2="218.02" y2="97.38" xlink:href="#_ÂÁ_Ï_ÌÌ_È_ËÂÌÚ_145"/>
    <linearGradient id="_ÂÁ_Ï_ÌÌ_È_ËÂÌÚ_145-3" data-name="¡ÂÁ˚ÏˇÌÌ˚È „‡‰ËÂÌÚ 145" x1="316.98" y1="222.2" x2="272.9" y2="80.33" xlink:href="#_ÂÁ_Ï_ÌÌ_È_ËÂÌÚ_145"/>
    <linearGradient id="linear-gradient-30" x1="282.36" y1="209.92" x2="280.16" y2="165.35" xlink:href="#linear-gradient-28"/>
    <linearGradient id="linear-gradient-31" x1="284.74" y1="316.35" x2="277.32" y2="241.02" xlink:href="#linear-gradient-11"/>
    <linearGradient id="linear-gradient-32" x1="192.15" y1="316.69" x2="184.68" y2="240.93" xlink:href="#linear-gradient-11"/>
    <linearGradient id="linear-gradient-33" x1="259.99" y1="363.03" x2="249.96" y2="261.39" gradientTransform="matrix(1,0,0,1,0,0)" xlink:href="#linear-gradient-4"/>
    <linearGradient id="linear-gradient-34" x1="262.74" y1="386.67" x2="250.06" y2="258.02" gradientUnits="userSpaceOnUse">
      <stop offset="0" stop-color="#565658"/>
      <stop offset="1" stop-color="#2b2a2d"/>
    </linearGradient>
  </defs>
  <g id="Layer_1-2" data-name="Layer 1">
    <g>
      <ellipse class="cls-63" cx="246.76" cy="249.87" rx="246.76" ry="249.87"/>
      <path class="cls-27" d="m247.19,329.57c-45.68-1.52-60.06,6.03-60.06,6.03,0,0-2.7,37.69,59.61,38.12,62.3.43,61.24-38.12,61.24-38.12,0,0-15.1-4.52-60.79-6.03Z"/>
      <path class="cls-65" d="m246.76,499.74c75,0,142.17-33.89,187.43-87.36-15.11-10.25-103.71-46.64-103.71-46.64,0,0-25.49,39.52-83.16,39.52s-80.53-38.01-80.53-38.01c-54.3,25.53-102.83,48.2-102.83,48.2-.14.55-.28,1.16-.4,1.8,45.16,50.65,110.51,82.49,183.2,82.49Z"/>
      <path class="cls-32" d="m299.84,309.48s-65.55-6-105.21-7.4c.15,49.59-11.32,55.83-11.32,55.83,0,0,10.52,57.62,69.65,54.25,59.13-3.37,62.04-54.25,62.04-54.25,0,0-8.85-3.58-15.16-48.42Z"/>
      <path class="cls-50" d="m298.09,288.5s-39.62,21.27-103.46-1.52c0,0,1.38,24.33-1.67,44.46,10.82,21.4,32.3,44.43,57.47,44.43,23.18,0,49.26-38.23,52.87-46.5,0,0-5.54-31.58-5.23-40.87Z"/>
      <path class="cls-28" d="m146.32,478.16c30.68,13.86,64.67,21.58,100.43,21.58s71.86-8.21,103.28-22.89c-46.09-10.5-137.51-13.35-203.72,1.31Z"/>
      <path class="cls-61" d="m253.99,399.52c8.5.51,28.2-2.37,28.2-2.37l-14.96-17.32-13.24,19.69Z"/>
      <path class="cls-60" d="m217.11,396.43s17.84,2.39,25.86,3.1l-13.24-19.69-12.62,16.59Z"/>
      <path class="cls-29" d="m247.23,399.52c-53.68-2.75-70.92-37.19-70.92-37.19l-16.52,8.2s17.6,48.94,88.54,48.96c63.85.02,88.68-50.97,88.68-50.97l-14.54-6.84s-28.63,40.23-75.24,37.84Z"/>
      <path class="cls-56" d="m434.21,412.35c-18.69-15.51-97.2-43.82-97.2-43.82,0,0,49.97,31.7,81.79,60.44,5.38-5.3,10.53-10.84,15.41-16.62Z"/>
      <path class="cls-57" d="m62.44,415.98c4.9,5.57,10.04,10.92,15.41,16.03,32.36-28.26,81.93-61.47,81.93-61.47,0,0-73.67,29.13-97.34,45.45Z"/>
      <path class="cls-59" d="m268.09,397.76l17.78,26.23s14.33-10.84,25.17-32.37l-20.96-2.22s-13.55,6.95-21.99,8.36Z"/>
      <path class="cls-58" d="m186.78,391.62c10.84,21.53,23.91,33.52,23.91,33.52l17.46-28.14c-8.44-1.41-20.41-7.6-20.41-7.6l-20.96,2.22Z"/>
      <path class="cls-68" d="m267.22,379.83l24.28,35.65s28.51-27.72,32.24-53.25l-15.76-26.62s-15.69,35.15-40.76,44.23Z"/>
      <path class="cls-68" d="m187.13,335.6l-13.24,26.67c3.74,25.53,31.56,53.2,31.56,53.2l24.28-35.65c-25.07-9.08-42.6-44.23-42.6-44.23Z"/>
      <g>
        <path class="cls-1" d="m336.52,209.85c3.33-81.61-19.07-92.61-26.33-100.94-14.79-16.93-38.03-24.31-77.77-23.4,0,0-51.76,1.79-64.7,29.61-13.84,29.75-19.26,95.54-8.96,132.51,12.01,43.14,13.15,52.19,19.93,61.28,14.93,20.01,24.14,22.91,41.93,39.18,4.51,4.12,39.22,15.88,61.3-4.87,10.32-9.7,21.52-17.62,30.62-31.51s20.3-57.18,20.05-62.04c-1.32-26.29,3.02-17.13,3.94-39.82Z"/>
        <g>
          <path class="cls-70" d="m146.81,215.16c-11.15,2.06-8.7,9.66-3.82,22.96,3.53,41.33,13.66,35.19,17.52,33.04,7.06-3.94-.2-58.48-13.7-55.99Z"/>
          <path class="cls-39" d="m155.82,264.51s-5.21-6.62-3.13-19.04c4.91-29.3-13.05-32.22-9.6-11.88,0,0,2.8-9.37,4.99-6.42,2.69,3.63-3.18,5.26-.71,20.63,1.29,7.99,8.46,16.71,8.46,16.71Z"/>
        </g>
        <g>
          <path class="cls-70" d="m342.98,213.94c11.25,1.54,9.24,9.24,5.13,22.75-2.7,35.52-14.98,37.55-18.97,35.58-7.27-3.61.22-60.18,13.84-58.32Z"/>
          <path class="cls-40" d="m336.86,264.6s4.83-6.85,2.04-19.16c-6.58-29.03,11.18-32.78,8.91-12.31,0,0-3.33-9.22-5.36-6.17-2.48,3.74,3.48,5.1,1.9,20.57-.83,8.04-7.49,17.08-7.49,17.08Z"/>
        </g>
        <path class="cls-38" d="m323.84,228.65c7.6-50.49-55.05-31.36-55.05-31.36-1.26,8.09-14.41,41.36-9.66,44.16,29.67,17.47,64.72-12.8,64.72-12.8Z"/>
        <path class="cls-44" d="m168.24,229.36c-3.01-51.79,56.04-31.31,56.04-31.31,4.37,7.78,13.52,31.25,8.88,34.24-30.33,19.51-64.92-2.93-64.92-2.93Z"/>
        <path class="cls-2" d="m295.6,276.28c16.35,1.1,32.6,13.19,36.02-20.74,1.95-19.34,2.41-29.06-5.68-30.57-17.17-3.22-38.67,4.31-48.92,9.66-21.65,11.3-10.4,39.69,18.58,41.65Z"/>
        <path class="cls-45" d="m248.01,334.81c-5.68.02-19.91,3.87-19.5,5.95,1.25,6.3,14.43,7.35,20.1,7.32,5.69-.03,17.18-1.47,17.42-6.85.09-2.11-12.34-6.45-18.02-6.43Z"/>
        <path class="cls-35" d="m208.73,233c-4.68-1.72-37.16-9.84-47.76-6.73-6.05,1.77-2.77,15.39-1.76,28.33.48,6.2,4.63,19.99,6.03,23.89,6.85,19.14,25.55-1.36,40.62-6.7,25.73-9.11,26.58-30.11,2.87-38.78Z"/>
        <path class="cls-52" d="m201.64,308.9c-1-3.91-3.61-22.06-4.69-27.03-1.12-5.16-4-1.73-4-1.73,0,0-1.82,26.43,0,31.68,5.24,15.1,27.66,17.36,27.66,17.36,0,0-17.92-16.18-18.97-20.28Z"/>
        <path class="cls-51" d="m295.58,282.01c-.92,4.77-2.88,19.73-5.76,26.89l-19,20.28s25.73-4.03,31.61-18.67c2.4-5.99-4.59-31.26-4.59-31.26,0,0-1.16-2.99-2.26,2.75Z"/>
        <path class="cls-43" d="m325.33,231.95c-2.95-1.66-5.14.75-11.27,2.76-6.02,1.98-22.44,5.09-14.72,9.28,8.53,4.65,20.46-1.72,21.91-2.91,1.45-1.19,7.73-7.08,4.09-9.13Z"/>
        <g>
          <path class="cls-66" d="m285.04,286.64s10.21-2.41,11.11-3.14c.9-.74,1.72-3.38,1.72-3.38l-6.49,2-6.34,4.52Z"/>
          <path class="cls-66" d="m192.62,280.78s.82,2.64,1.72,3.38c.9.74,11.12,3.14,11.12,3.14l-6.34-4.52-6.49-2Z"/>
          <path class="cls-54" d="m224.56,325.91c27.06-3.04,45.34.35,45.34.35-20.53-12.95-45.34-.35-45.34-.35Z"/>
          <path class="cls-64" d="m195.04,282.07c.55.58.95,1.37,1.66,1.69,12.99,5.83,13.17,11.4,18.74,14.45,19.75,10.79,42.78,8.17,58.28-.5,8.92-4.99,10.06-10.8,20.73-15.02,1.43-.56,1.71-1.69,1.71-1.69-57,14.13-101.12,1.07-101.12,1.07Z"/>
          <path class="cls-71" d="m246.12,309.59c-7.69,0-15.28-1.52-15.28,0s6.68,4.91,14.37,4.91c7.69,0,15.29-3.39,15.29-4.91s-6.69,0-14.39,0Z"/>
          <path class="cls-41" d="m268.31,294.09c-5.24,1.07-15.07,3.07-24.1,3.07-9.95,0-20.04-1.85-25.54-2.86-2.41-.44-3.44,3.82-3.44,3.82,7.24,5.36,15.96,7.39,29.89,7.49,18.6.13,28.87-8.03,28.87-8.03,0,0-2.62-4.1-5.68-3.48Z"/>
          <path class="cls-42" d="m207.93,284.83s.19,4.94,5.15,7.12c2.88,1.26,9.33,6.23,34.41,5.46,25.08-.77,30.03-6.92,31.18-7.99,2.13-2,3.1-5.37,3.1-5.37,0,0-37.78,7.49-73.84.79Z"/>
          <path class="cls-62" d="m207.85,284.36s.17,2.25.98,3.58c.69,1.11,20.72,4.07,35.86,4.17,15.13.09,34.88-3.86,35.57-4.74,1.09-1.38,1.69-3.82,1.69-3.82,0,0-17.03,5.8-74.1.82Z"/>
          <path class="cls-53" d="m191.94,280.5s3.65,2.14,3.09,1.56c0,0,44.12,13.06,101.12-1.07l3.09-1.57c-30.96,5.24-107.31,1.08-107.31,1.08Z"/>
        </g>
        <path class="cls-12" d="m175.05,235.19c-6.22-1.71-5.43-3.99-8.29-2.18-3.53,2.23-.07,7.79,1.44,8.91,1.5,1.12,13.74,6.86,22.02,1.79,7.5-4.59-9.06-6.85-15.17-8.51Z"/>
        <g>
          <path class="cls-48" d="m311.87,208.92c-3.59-2.52-14.62-2.89-19.65-2.9-24.53-.03-27.1,17.92-25.61,20.25,7.2,11.24,20.61,8.6,31.48,7.84,14.53-1.01,20.05-9.34,20.07-10.86.05-2.84.09-9.84-6.3-14.33Z"/>
          <path class="cls-9" d="m288.47,212.15c-9.94.03-18.26,11.23-18.26,11.23,4.66,10.47,12.53,8.9,18.88,9.91,18.15,2.89,22.79-10.44,22.79-10.44-5.85-7.98-6.81-10.75-23.41-10.7Z"/>
          <path class="cls-10" d="m289.11,214.06c-15.3,2.61-18.25,8.15-18.9,9.32.56,1.54,1.42,2.68,1.42,2.68,0,0,2.25-1.11,4.33-1.89,9.82-3.7,18.54-5.71,28.25-2.14,2.22.82,6.34,3.37,6.34,3.37,0,0,1.12-1.62,1.33-2.55-3.83-6.48-7.47-11.4-22.77-8.79Z"/>
          <path class="cls-30" d="m290.7,211.77c-9.58-.48-15.19,5.77-14.72,13.93.18,3.1,1.23,5.35,1.58,5.69.77.43,7.24,2.65,12.94,2.42,4.24.07,8.78-.11,11.6-1.54,1.93-2.21,2.12-4.28,2.33-5.97.98-7.91-5.69-14.14-13.73-14.54Z"/>
          <path class="cls-31" d="m290.72,211.42c-15.09-.05-14.77,12.75-14.77,12.75,14.13-7.14,28.25-2.14,28.25-2.14-1.11-5-4.81-10.58-13.48-10.61Z"/>
          <path class="cls-36" d="m290.44,214.07c-4.78-.09-8.73,3.63-8.8,8.3-.07,4.67,3.75,8.52,8.55,8.61,4.79.08,8.74-3.64,8.81-8.31.07-4.67-3.76-8.52-8.55-8.6Z"/>
          <path class="cls-69" d="m289.39,219.3c-1.62.19-2.77,1.68-2.59,3.32.2,1.64,1.65,2.82,3.27,2.63,1.62-.19,2.77-1.68,2.59-3.32-.19-1.65-1.65-2.82-3.27-2.63Z"/>
          <path class="cls-11" d="m293.06,210.69c-16.95.19-22.87,9.63-22.86,12.7,0,0,9.72-7.68,21.17-7.72,11.44-.04,20.5,7.19,20.5,7.19,0,0-2.17-7.01-3.91-8.79-2.77-2.85-7.69-3.45-14.91-3.37Z"/>
          <path class="cls-69" d="m297.55,224.24c-2.04.25-3.52,2.15-3.29,4.24.23,2.08,2.08,3.57,4.12,3.31,2.06-.25,3.52-2.14,3.29-4.24-.23-2.07-2.07-3.57-4.12-3.31Z"/>
        </g>
        <g>
          <path class="cls-55" d="m201.68,205.64c-5.03,0-16.06.38-19.65,2.9-6.39,4.49-6.35,11.49-6.3,14.33.03,1.52,5.54,9.86,20.07,10.86,10.87.76,24.29,3.39,31.48-7.84,1.49-2.33-1.08-20.28-25.61-20.25Z"/>
          <path class="cls-20" d="m205.44,211.78c-16.6-.05-17.56,2.72-23.41,10.7,0,0,4.64,13.33,22.79,10.44,6.35-1.01,14.22.57,18.88-9.91,0,0-8.32-11.2-18.26-11.23Z"/>
          <path class="cls-16" d="m204.8,213.69c-15.3-2.61-18.93,2.31-22.77,8.79.2.94,1.33,2.55,1.33,2.55,0,0,4.12-2.56,6.34-3.37,9.71-3.57,18.43-1.56,28.25,2.14,2.08.78,4.33,1.89,4.33,1.89,0,0,.86-1.14,1.42-2.68-.65-1.17-3.6-6.71-18.9-9.32Z"/>
          <path class="cls-47" d="m203.21,211.4c-8.04.4-14.71,6.63-13.73,14.54.21,1.69.4,3.75,2.33,5.97,2.82,1.42,7.36,1.61,11.6,1.54,5.7.23,12.18-1.99,12.94-2.42.34-.35,1.4-2.59,1.58-5.69.47-8.16-5.14-14.41-14.72-13.93Z"/>
          <path class="cls-46" d="m203.19,211.05c-8.67.03-12.37,5.61-13.48,10.61,0,0,14.13-5,28.25,2.14,0,0,.32-12.8-14.77-12.75Z"/>
          <path class="cls-37" d="m203.47,213.69c-4.8.08-8.62,3.93-8.55,8.6.07,4.67,4.02,8.39,8.81,8.31,4.79-.1,8.61-3.94,8.55-8.61-.07-4.67-4.02-8.39-8.8-8.3Z"/>
          <path class="cls-69" d="m204.51,218.93c-1.61-.19-3.08.98-3.27,2.63-.18,1.64.97,3.14,2.59,3.32,1.62.19,3.07-.99,3.27-2.63.18-1.64-.97-3.13-2.59-3.32Z"/>
          <path class="cls-14" d="m200.85,210.31c-7.22-.08-12.13.52-14.91,3.37-1.74,1.79-3.91,8.79-3.91,8.79,0,0,9.06-7.23,20.5-7.19,11.44.04,21.17,7.72,21.17,7.72.02-3.07-5.9-12.51-22.85-12.7Z"/>
          <path class="cls-69" d="m212.47,223.87c-2.05-.25-3.9,1.24-4.12,3.31-.24,2.1,1.23,3.99,3.29,4.24,2.04.26,3.89-1.23,4.12-3.31.23-2.08-1.25-3.98-3.29-4.24Z"/>
        </g>
        <path class="cls-13" d="m226.09,193.66c.29,2.48-.57,4.51-2.12,6.53.93-2.31,1.57-4.69.51-6.86-12.25-1.31-22.51-2.13-39.41,2.48-8.35,2.28-10.15,10.03-10.15,10.03,0,0,5.45-1.48,18.56-2.97,11.18-1.27,26.05.76,31.81.86,0,0,3.84-8.39.81-10.08Z"/>
        <path class="cls-19" d="m308.85,195.81c-16.9-4.61-27.16-3.79-39.41-2.48-1.07,2.17-.42,4.55.51,6.86-1.55-2.02-2.41-4.05-2.12-6.53-3.03,1.68.81,10.08.81,10.08,5.76-.11,20.63-2.13,31.81-.86,13.11,1.49,18.56,2.97,18.56,2.97,0,0-1.8-7.75-10.15-10.03Z"/>
        <path class="cls-15" d="m314.75,123.05c-36.33-25.47-149.23-3.76-154.28,4.81-19.25,32.73-1.72,119.75-1.72,119.75,0,0,4.71-36.72,12.44-50.14,12.85-22.32,10.53-51.02,10.53-51.02,14.89,5.36,107.41,22.18,122.8,1.9,8.81,19.35,18.43,51.17,20.03,53.41,5.73,8.01,7.92,47.08,7.92,47.08,0,0,18.62-100.33-17.72-125.8Z"/>
        <path class="cls-22" d="m158.46,246.33s7.61,45.99,11.94,53.49c20.49,35.44,35.98,44.21,35.98,44.21,0,0-2.82-13.16-7.35-17.77-8.56-8.72-28.63-26.44-40.57-79.93Z"/>
        <path class="cls-49" d="m217.72,311.56c29.69,23.94,58.09-1.64,58.09-1.64-30,16.19-58.09,1.64-58.09,1.64Z"/>
        <path class="cls-18" d="m291.72,341.19s22.25-22.06,28.96-37.35c3.8-8.66,11.93-56.43,11.93-56.43-10.11,36.63-19.49,56.38-23.44,61.49-16.34,21.11-17.45,32.29-17.45,32.29Z"/>
        <path class="cls-21" d="m258.23,273.5l-28.16.1s-40.43,6.29-40.44,6.52c-.31,25.19,3.32,51.75,3.32,51.75,11.13,13.76,36.87,30.4,53.46,29.83,29.39-1.02,52.57-28.15,52.57-28.15,3.11-3.62,5.11-50.54,1.99-54.67-1.09-1.45-42.74-5.37-42.74-5.37Zm33.48,36.41c-1.83,2.92-20.99,21.5-29.3,21.53-1.63,0-12.25-10.01-12.25-10.01-5.05-1.46-5.57-1.01-8.22-.36-1.42.35-10.76,10.36-12.57,10.36-10.2,0-29.23-19.8-30.65-22.42-3.69-6.8-5.83-22.76-5.77-27.46,0,0,70.06,2.49,105.19-.6,0,0-1.99,21.87-6.43,28.95Z"/>
        <path class="cls-17" d="m229.35,335.55c-11.05,8.96,6.2,11.59,16.1,12.38s29.39-1.17,18.27-11.85c-11.12-10.68-30.92-3.33-34.37-.53Z"/>
        <g>
          <path class="cls-24" d="m254.06,233.99c.89-18.62-3.68-23.14-8.23-22.97-4.43.16-8.47,8.47-7.57,22.67.89,14.14-1.72,19.56-1.12,26.19.28,3.02,1.6,4.99,8.82,5.05,7.93.06,10.69-1.92,11.03-4.74.93-7.71-3.56-12.77-2.92-26.19Z"/>
          <path class="cls-67" d="m254.94,270.19c10.73-2.82,14.94-1.14,14.94-1.14-1.36-8.97-14.94,1.14-14.94,1.14Z"/>
          <path class="cls-67" d="m224.55,268.22s5.56-.95,13.99,2.07c0,0-12.83-10.81-13.99-2.07Z"/>
          <path class="cls-8" d="m260.86,247.62c1.91,4.36,1.34,11.51,0,14.16-2.98,5.91-8.72,6.65-13.89,6.2-3.91.5-10.77,0-14.59-6.2-1.56-2.53-1.27-9.44-.83-13.68,0,0-16.58,17.53-7,20.12,0,0,.02-3.08,5.15-2.59,5.13.5,5.92,6.5,17.7,6.62,10.27.1,10.13-5.63,16.67-6.62,6.53-.99,4.23,2.87,5.71,3.56,3.26,0,4.55-9.26-8.92-21.57Z"/>
          <path class="cls-25" d="m237.14,259.87c-.23,3.06,2.45,5.7,9.67,5.76,7.93.06,10.93-3.21,10.51-6.05-3.32-22.44-19.04-15.01-20.19.28Z"/>
        </g>
        <path class="cls-23" d="m199.91,338.76s19.21,22.94,46.22,24.62c27.53,1.71,48.11-24.94,48.11-24.94,0,0-22.29,18.89-47.05,18.75-23.49-.13-47.28-18.43-47.28-18.43Z"/>
        <path class="cls-7" d="m320.68,100.17c-.83-.12-12.62-45.92-90.06-34.4-18.43,2.74-87.24,17.43-92.77,80.65-1.03,11.82.12,20.92,3.07,31.96.73,2.74,5.9,36.79,5.9,36.79,0,0,8.28-1.04,10.4,20.23.22,2.18.11,5.8,1.26,13.16.9-4.83.94-13.35,1.21-18.26.59-11.12,6.57-43.44,8.46-50.34,3.35-12.2,7.22-45.63,7.22-45.63,23.37,6.42,117.97,16.59,133.81-9.84,10.57,48.86,18.24,65.53,18.24,65.53,2.51,4.72,2.84,23.7,3.88,29.5,1.04,5.77.42,24.36,1.29,30.16.73-6.2,1.87-26.99,5.25-32.64,2.16-3.61,6.27-2.91,6.27-2.91,0,0,3.55-22.78,4.77-28.78,3.54-17.49,2.9-33.39,2.93-47.58.08-35.39-27.02-36.98-31.12-37.59Z"/>
        <path class="cls-4" d="m317.13,110.65s-15.62,22.68-66.42,23.51c-10.74.17-59.03.4-86.59-14.49,0,0,6.77,40.36-3.61,89.74,0,0,8.35-22.41,10.38-34.05,2.03-11.64,4.47-40.39,4.47-40.39,0,0,54.17,11.9,87.66,8.72,29.26-2.78,40.95-9.33,46.16-18.57,0,0,2.47,41.1,22.58,72.23,0,0-18.17-69.83-14.62-86.7Z"/>
        <path class="cls-26" d="m320.68,100.17s30.05,18.7,27.37,90.58c0,0,24.06-89.07-27.37-90.58Z"/>
        <path class="cls-33" d="m245.63,64.18c-61.85,5.89-77.02,26.65-87.39,35.92-10.37,9.27-28.62,39.99-18.91,71.68,0,0,5.31-54.15,34.52-71.62,29.21-17.47,108.88-40.18,146.83,0,0,0-13.2-41.87-75.05-35.98Z"/>
        <path class="cls-34" d="m274.42,76.3c-14.46,0-26.59,14.74-26.59,14.74,41.25-15.96,55.27-2.94,55.27-2.94,1.63-10.96-26.25-11.8-28.68-11.8Z"/>
        <path class="cls-5" d="m248.55,152.96c60.95,1.87,60.62-27.84,60.62-27.84l-14.93,7.92c-5.64,12.37-45.68,19.92-45.68,19.92Z"/>
      </g>
      <g>
        <path class="cls-73" d="m275.6,206.8l-13.69,27.11c3.59,4.15,6.48,9.62,6.48,9.62l20.32-35.46c.65-5.04-13.11-1.27-13.11-1.27Z"/>
        <path class="cls-72" d="m186.7,206.5l-17.73,30.96c4.15-.12,5.93,6.07,5.93,6.07l21.84-34.97c.67-6.66-10.04-2.06-10.04-2.06Z"/>
        <path class="cls-3" d="m321.32,229.59c-3.67,19.4-14.43,25.76-26.4,25.76-7.57,0-37.34-6.04-35.01-38.6-8.61-3.13-17.89-2.37-26.86-.06,3.02,32.2-27.72,38.66-35.25,38.66-11.07,0-22.25-5.5-26.6-21.64-1.72.47-3-7.38-4.67-6.66.78,2.94,2.26,13.95,2.88,15.4,2.75,6.47,9.97,16.31,26.23,16.31,17.78,0,30.09-6.35,33.42-13.26,3.34-6.91,7.96-18.34,8.23-21.11,10.55-5.78,18.11,0,18.11,0,0,0,4.89,14.2,8.23,21.11,3.34,6.91,15.65,13.26,33.42,13.26,16.26,0,23.48-9.84,26.23-16.31,1.13-2.66,2.24-5.77,3.68-11.7-2.06.49-3.61-1.51-5.66-1.16Z"/>
        <path class="cls-6" d="m287.1,204.85c-18.89,3.16-27.16,9.13-27.16,9.13-8.71-3.17-18.09-2.37-27.16,0,0,0-8.27-5.98-27.16-9.13-19.25-3.21-41.63,3.49-42.57,11.3-.49,4.08,4.13,18.27,6.36,23.52,2.75,6.47,9.97,16.31,26.23,16.31,17.78,0,30.09-6.35,33.42-13.26,3.34-6.91,6.47-18.34,6.73-21.11,10.55-5.78,21.11,0,21.11,0,0,0,3.4,14.2,6.73,21.11,3.34,6.91,15.65,13.26,33.42,13.26,16.26,0,23.48-9.84,26.23-16.31,2.23-5.25,6.48-20.59,5.51-24.57-1.55-6.38-22.47-13.47-41.72-10.26Zm-89.3,47.72c-13.76,0-25.93-2.25-27.56-29.2-.65-10.85,15.69-14.31,29.45-14.31s29.57,5.8,30.51,12.99c3.58,27.11-24.84,30.52-32.4,30.52Zm97.12,0c-7.57,0-35.98-3.41-32.4-30.52.95-7.18,16.76-12.99,30.51-12.99s30.1,3.45,29.45,14.31c-1.63,26.96-13.8,29.2-27.56,29.2Z"/>
      </g>
    </g>
  </g>
</svg>