<?xml version="1.0" encoding="UTF-8"?>
<svg id="Layer_2" data-name="Layer 2" xmlns="http://www.w3.org/2000/svg" xmlns:xlink="http://www.w3.org/1999/xlink" viewBox="0 0 493.51 499.74">
  <defs>
    <style>
      .cls-1 {
        fill: url(#linear-gradient);
      }

      .cls-1, .cls-2, .cls-3, .cls-4, .cls-5, .cls-6, .cls-7, .cls-8, .cls-9, .cls-10, .cls-11, .cls-12, .cls-13, .cls-14, .cls-15, .cls-16, .cls-17, .cls-18, .cls-19, .cls-20, .cls-21, .cls-22, .cls-23, .cls-24, .cls-25, .cls-26, .cls-27, .cls-28, .cls-29, .cls-30, .cls-31, .cls-32, .cls-33, .cls-34, .cls-35, .cls-36, .cls-37, .cls-38, .cls-39, .cls-40, .cls-41, .cls-42, .cls-43, .cls-44, .cls-45, .cls-46, .cls-47, .cls-48, .cls-49, .cls-50, .cls-51, .cls-52, .cls-53, .cls-54, .cls-55, .cls-56, .cls-57, .cls-58, .cls-59, .cls-60, .cls-61, .cls-62, .cls-63, .cls-64, .cls-65, .cls-66, .cls-67, .cls-68, .cls-69, .cls-70, .cls-71, .cls-72, .cls-73, .cls-74, .cls-75, .cls-76, .cls-77, .cls-78, .cls-79, .cls-80, .cls-81, .cls-82, .cls-83, .cls-84, .cls-85, .cls-86, .cls-87, .cls-88, .cls-89, .cls-90, .cls-91, .cls-92, .cls-93, .cls-94, .cls-95, .cls-96, .cls-97, .cls-98, .cls-99, .cls-100, .cls-101, .cls-102, .cls-103, .cls-104, .cls-105, .cls-106, .cls-107, .cls-108, .cls-109, .cls-110, .cls-111, .cls-112, .cls-113, .cls-114, .cls-115, .cls-116, .cls-117 {
        stroke-width: 0px;
      }

      .cls-2 {
        fill: url(#radial-gradient);
      }

      .cls-3 {
        fill: url(#linear-gradient-38);
      }

      .cls-4 {
        fill: url(#linear-gradient-33);
      }

      .cls-5 {
        fill: url(#linear-gradient-29);
      }

      .cls-6 {
        fill: url(#linear-gradient-32);
      }

      .cls-7 {
        fill: url(#linear-gradient-30);
      }

      .cls-8 {
        fill: url(#linear-gradient-31);
      }

      .cls-9 {
        fill: url(#linear-gradient-36);
      }

      .cls-10 {
        fill: url(#linear-gradient-39);
      }

      .cls-11 {
        fill: url(#linear-gradient-34);
      }

      .cls-12 {
        fill: url(#linear-gradient-37);
      }

      .cls-13 {
        fill: url(#linear-gradient-35);
      }

      .cls-14 {
        fill: url(#linear-gradient-28);
      }

      .cls-15 {
        fill: url(#linear-gradient-25);
      }

      .cls-16 {
        fill: url(#linear-gradient-11);
      }

      .cls-17 {
        fill: url(#linear-gradient-12);
      }

      .cls-18 {
        fill: url(#linear-gradient-13);
      }

      .cls-19 {
        fill: url(#linear-gradient-10);
      }

      .cls-20 {
        fill: url(#linear-gradient-17);
      }

      .cls-21 {
        fill: url(#linear-gradient-16);
      }

      .cls-22 {
        fill: url(#linear-gradient-19);
      }

      .cls-23 {
        fill: url(#linear-gradient-15);
      }

      .cls-24 {
        fill: url(#linear-gradient-23);
      }

      .cls-25 {
        fill: url(#linear-gradient-21);
      }

      .cls-26 {
        fill: url(#linear-gradient-18);
      }

      .cls-27 {
        fill: url(#linear-gradient-14);
      }

      .cls-28 {
        fill: url(#linear-gradient-22);
      }

      .cls-29 {
        fill: url(#linear-gradient-20);
      }

      .cls-30 {
        fill: url(#linear-gradient-27);
      }

      .cls-31 {
        fill: url(#linear-gradient-24);
      }

      .cls-32 {
        fill: url(#linear-gradient-26);
      }

      .cls-33 {
        fill: url(#linear-gradient-45);
      }

      .cls-34 {
        fill: url(#linear-gradient-46);
      }

      .cls-35 {
        fill: url(#linear-gradient-44);
      }

      .cls-36 {
        fill: url(#linear-gradient-48);
      }

      .cls-37 {
        fill: url(#linear-gradient-49);
      }

      .cls-38 {
        fill: url(#linear-gradient-47);
      }

      .cls-39 {
        fill: url(#linear-gradient-42);
      }

      .cls-40 {
        fill: url(#linear-gradient-43);
      }

      .cls-41 {
        fill: url(#linear-gradient-40);
      }

      .cls-42 {
        fill: url(#linear-gradient-41);
      }

      .cls-43 {
        fill: url(#_ÂÁ_Ï_ÌÌ_È_ËÂÌÚ_298);
      }

      .cls-44 {
        fill: url(#_ÂÁ_Ï_ÌÌ_È_ËÂÌÚ_384);
      }

      .cls-45 {
        fill: url(#_ÂÁ_Ï_ÌÌ_È_ËÂÌÚ_383);
      }

      .cls-46 {
        fill: url(#_ÂÁ_Ï_ÌÌ_È_ËÂÌÚ_361);
      }

      .cls-47 {
        fill: url(#_ÂÁ_Ï_ÌÌ_È_ËÂÌÚ_156);
      }

      .cls-48 {
        fill: url(#_ÂÁ_Ï_ÌÌ_È_ËÂÌÚ_154);
      }

      .cls-49 {
        fill: url(#_ÂÁ_Ï_ÌÌ_È_ËÂÌÚ_106);
      }

      .cls-50 {
        fill: url(#_ÂÁ_Ï_ÌÌ_È_ËÂÌÚ_126);
      }

      .cls-51 {
        fill: url(#_ÂÁ_Ï_ÌÌ_È_ËÂÌÚ_449);
      }

      .cls-52 {
        fill: url(#_ÂÁ_Ï_ÌÌ_È_ËÂÌÚ_1471);
      }

      .cls-53 {
        fill: url(#_ÂÁ_Ï_ÌÌ_È_ËÂÌÚ_1475);
      }

      .cls-54 {
        fill: url(#_ÂÁ_Ï_ÌÌ_È_ËÂÌÚ_1001);
      }

      .cls-55 {
        fill: url(#_ÂÁ_Ï_ÌÌ_È_ËÂÌÚ_1002);
      }

      .cls-56 {
        fill: url(#_ÂÁ_Ï_ÌÌ_È_ËÂÌÚ_1178);
      }

      .cls-57 {
        fill: url(#_ÂÁ_Ï_ÌÌ_È_ËÂÌÚ_1003);
      }

      .cls-58 {
        fill: url(#_ÂÁ_Ï_ÌÌ_È_ËÂÌÚ_298-3);
      }

      .cls-59 {
        fill: url(#_ÂÁ_Ï_ÌÌ_È_ËÂÌÚ_298-4);
      }

      .cls-60 {
        fill: url(#_ÂÁ_Ï_ÌÌ_È_ËÂÌÚ_298-5);
      }

      .cls-61 {
        fill: url(#_ÂÁ_Ï_ÌÌ_È_ËÂÌÚ_298-8);
      }

      .cls-62 {
        fill: url(#_ÂÁ_Ï_ÌÌ_È_ËÂÌÚ_298-7);
      }

      .cls-63 {
        fill: url(#_ÂÁ_Ï_ÌÌ_È_ËÂÌÚ_298-9);
      }

      .cls-64 {
        fill: url(#_ÂÁ_Ï_ÌÌ_È_ËÂÌÚ_298-6);
      }

      .cls-65 {
        fill: url(#_ÂÁ_Ï_ÌÌ_È_ËÂÌÚ_298-2);
      }

      .cls-66 {
        fill: url(#_ÂÁ_Ï_ÌÌ_È_ËÂÌÚ_449-4);
      }

      .cls-67 {
        fill: url(#_ÂÁ_Ï_ÌÌ_È_ËÂÌÚ_449-3);
      }

      .cls-68 {
        fill: url(#_ÂÁ_Ï_ÌÌ_È_ËÂÌÚ_449-2);
      }

      .cls-69 {
        fill: url(#_ÂÁ_Ï_ÌÌ_È_ËÂÌÚ_383-2);
      }

      .cls-70 {
        fill: url(#_ÂÁ_Ï_ÌÌ_È_ËÂÌÚ_156-8);
      }

      .cls-71 {
        fill: url(#_ÂÁ_Ï_ÌÌ_È_ËÂÌÚ_156-7);
      }

      .cls-72 {
        fill: url(#_ÂÁ_Ï_ÌÌ_È_ËÂÌÚ_156-6);
      }

      .cls-73 {
        fill: url(#_ÂÁ_Ï_ÌÌ_È_ËÂÌÚ_156-9);
      }

      .cls-74 {
        fill: url(#_ÂÁ_Ï_ÌÌ_È_ËÂÌÚ_156-4);
      }

      .cls-75 {
        fill: url(#_ÂÁ_Ï_ÌÌ_È_ËÂÌÚ_156-5);
      }

      .cls-76 {
        fill: url(#_ÂÁ_Ï_ÌÌ_È_ËÂÌÚ_156-3);
      }

      .cls-77 {
        fill: url(#_ÂÁ_Ï_ÌÌ_È_ËÂÌÚ_156-2);
      }

      .cls-78 {
        fill: url(#radial-gradient-2);
      }

      .cls-79 {
        fill: url(#radial-gradient-3);
      }

      .cls-80 {
        fill: url(#linear-gradient-4);
      }

      .cls-81 {
        fill: url(#linear-gradient-2);
      }

      .cls-82 {
        fill: url(#linear-gradient-3);
      }

      .cls-83 {
        fill: url(#linear-gradient-8);
      }

      .cls-84 {
        fill: url(#linear-gradient-9);
      }

      .cls-85 {
        fill: url(#linear-gradient-7);
      }

      .cls-86 {
        fill: url(#linear-gradient-5);
      }

      .cls-87 {
        fill: url(#linear-gradient-6);
      }

      .cls-88 {
        fill: url(#_ÂÁ_Ï_ÌÌ_È_ËÂÌÚ_1471-4);
      }

      .cls-89 {
        fill: url(#_ÂÁ_Ï_ÌÌ_È_ËÂÌÚ_1471-2);
      }

      .cls-90 {
        fill: url(#_ÂÁ_Ï_ÌÌ_È_ËÂÌÚ_1471-3);
      }

      .cls-91 {
        fill: url(#_ÂÁ_Ï_ÌÌ_È_ËÂÌÚ_1475-3);
      }

      .cls-92 {
        fill: url(#_ÂÁ_Ï_ÌÌ_È_ËÂÌÚ_1475-6);
      }

      .cls-93 {
        fill: url(#_ÂÁ_Ï_ÌÌ_È_ËÂÌÚ_1475-4);
      }

      .cls-94 {
        fill: url(#_ÂÁ_Ï_ÌÌ_È_ËÂÌÚ_1475-5);
      }

      .cls-95 {
        fill: url(#_ÂÁ_Ï_ÌÌ_È_ËÂÌÚ_1475-2);
      }

      .cls-96 {
        fill: url(#_ÂÁ_Ï_ÌÌ_È_ËÂÌÚ_1178-3);
      }

      .cls-97 {
        fill: url(#_ÂÁ_Ï_ÌÌ_È_ËÂÌÚ_1178-4);
      }

      .cls-98 {
        fill: url(#_ÂÁ_Ï_ÌÌ_È_ËÂÌÚ_1178-2);
      }

      .cls-99 {
        fill: url(#_ÂÁ_Ï_ÌÌ_È_ËÂÌÚ_1003-2);
      }

      .cls-100 {
        fill: url(#_ÂÁ_Ï_ÌÌ_È_ËÂÌÚ_1003-3);
      }

      .cls-101 {
        fill: url(#_ÂÁ_Ï_ÌÌ_È_ËÂÌÚ_156-10);
      }

      .cls-102 {
        fill: #f86d78;
      }

      .cls-103 {
        fill: #f6ece6;
      }

      .cls-104 {
        fill: #f7d4ab;
      }

      .cls-105 {
        fill: #961b27;
      }

      .cls-106 {
        fill: #2f354e;
      }

      .cls-107 {
        fill: #361a15;
      }

      .cls-108 {
        fill: #252a3e;
      }

      .cls-109 {
        fill: #ddd;
      }

      .cls-110 {
        fill: #f1f0f5;
      }

      .cls-111 {
        fill: #fff;
      }

      .cls-112 {
        fill: #ff9aa2;
      }

      .cls-113 {
        fill: #f0c499;
      }

      .cls-114 {
        fill: #6b3329;
      }

      .cls-115 {
        fill: url(#_ÂÁ_Ï_ÌÌ_È_ËÂÌÚ_298-10);
      }

      .cls-116 {
        fill: url(#_ÂÁ_Ï_ÌÌ_È_ËÂÌÚ_298-11);
      }

      .cls-117 {
        fill: url(#_ÂÁ_Ï_ÌÌ_È_ËÂÌÚ_298-12);
      }
    </style>
    <linearGradient id="_ÂÁ_Ï_ÌÌ_È_ËÂÌÚ_156" data-name="¡ÂÁ˚ÏˇÌÌ˚È „‡‰ËÂÌÚ 156" x1="251.49" y1="331.68" x2="256.14" y2="399.26" gradientUnits="userSpaceOnUse">
      <stop offset="0" stop-color="#3a435f"/>
      <stop offset="1" stop-color="#2f354e"/>
    </linearGradient>
    <linearGradient id="linear-gradient" x1="219.16" y1="318.66" x2="290.28" y2="396.07" gradientUnits="userSpaceOnUse">
      <stop offset="0" stop-color="#f0c499"/>
      <stop offset=".52" stop-color="#f1c69b"/>
      <stop offset=".85" stop-color="#f4cea4"/>
      <stop offset="1" stop-color="#f7d4ab"/>
    </linearGradient>
    <linearGradient id="linear-gradient-2" x1="301.09" y1="378.37" x2="244.77" y2="386.67" xlink:href="#linear-gradient"/>
    <linearGradient id="linear-gradient-3" x1="257.67" y1="374.49" x2="347.14" y2="360.53" xlink:href="#linear-gradient"/>
    <linearGradient id="linear-gradient-4" x1="252.59" y1="379.02" x2="174.05" y2="358.4" xlink:href="#linear-gradient"/>
    <linearGradient id="linear-gradient-5" x1="246.91" y1="294.77" x2="257.2" y2="338.4" gradientUnits="userSpaceOnUse">
      <stop offset="0" stop-color="#dba379"/>
      <stop offset=".49" stop-color="#e3b086"/>
      <stop offset="1" stop-color="#f0c499"/>
    </linearGradient>
    <linearGradient id="linear-gradient-6" x1="126.02" y1="469.57" x2="97.24" y2="352.28" xlink:href="#linear-gradient"/>
    <linearGradient id="_ÂÁ_Ï_ÌÌ_È_ËÂÌÚ_449" data-name="¡ÂÁ˚ÏˇÌÌ˚È „‡‰ËÂÌÚ 449" x1="145.61" y1="476.19" x2="145.35" y2="479.43" gradientUnits="userSpaceOnUse">
      <stop offset="0" stop-color="#f1f0f5"/>
      <stop offset=".64" stop-color="#f8f8fa"/>
      <stop offset="1" stop-color="#fff"/>
    </linearGradient>
    <linearGradient id="_ÂÁ_Ï_ÌÌ_È_ËÂÌÚ_449-2" data-name="¡ÂÁ˚ÏˇÌÌ˚È „‡‰ËÂÌÚ 449" x1="145.61" y1="476.3" x2="145.39" y2="478.98" xlink:href="#_ÂÁ_Ï_ÌÌ_È_ËÂÌÚ_449"/>
    <linearGradient id="_ÂÁ_Ï_ÌÌ_È_ËÂÌÚ_449-3" data-name="¡ÂÁ˚ÏˇÌÌ˚È „‡‰ËÂÌÚ 449" x1="353.16" y1="469.37" x2="352.25" y2="480.57" xlink:href="#_ÂÁ_Ï_ÌÌ_È_ËÂÌÚ_449"/>
    <linearGradient id="_ÂÁ_Ï_ÌÌ_È_ËÂÌÚ_449-4" data-name="¡ÂÁ˚ÏˇÌÌ˚È „‡‰ËÂÌÚ 449" x1="252.27" y1="380.11" x2="241.51" y2="512.69" xlink:href="#_ÂÁ_Ï_ÌÌ_È_ËÂÌÚ_449"/>
    <linearGradient id="_ÂÁ_Ï_ÌÌ_È_ËÂÌÚ_1471" data-name="¡ÂÁ˚ÏˇÌÌ˚È „‡‰ËÂÌÚ 1471" x1="308.01" y1="381.36" x2="300.33" y2="496.38" gradientUnits="userSpaceOnUse">
      <stop offset="0" stop-color="#f1f0f5"/>
      <stop offset="1" stop-color="#bec0d7"/>
    </linearGradient>
    <linearGradient id="_ÂÁ_Ï_ÌÌ_È_ËÂÌÚ_1471-2" data-name="¡ÂÁ˚ÏˇÌÌ˚È „‡‰ËÂÌÚ 1471" x1="203.26" y1="374" x2="195.1" y2="496.12" xlink:href="#_ÂÁ_Ï_ÌÌ_È_ËÂÌÚ_1471"/>
    <linearGradient id="_ÂÁ_Ï_ÌÌ_È_ËÂÌÚ_1471-3" data-name="¡ÂÁ˚ÏˇÌÌ˚È „‡‰ËÂÌÚ 1471" x1="256.52" y1="383.12" x2="254.73" y2="512.03" xlink:href="#_ÂÁ_Ï_ÌÌ_È_ËÂÌÚ_1471"/>
    <linearGradient id="_ÂÁ_Ï_ÌÌ_È_ËÂÌÚ_1475" data-name="¡ÂÁ˚ÏˇÌÌ˚È „‡‰ËÂÌÚ 1475" x1="143.51" y1="399.37" x2="209.19" y2="530.22" gradientUnits="userSpaceOnUse">
      <stop offset="0" stop-color="#2f354e"/>
      <stop offset="1" stop-color="#3a435f"/>
    </linearGradient>
    <linearGradient id="_ÂÁ_Ï_ÌÌ_È_ËÂÌÚ_1475-2" data-name="¡ÂÁ˚ÏˇÌÌ˚È „‡‰ËÂÌÚ 1475" x1="351.36" y1="476.22" x2="351.36" y2="476.22" xlink:href="#_ÂÁ_Ï_ÌÌ_È_ËÂÌÚ_1475"/>
    <linearGradient id="_ÂÁ_Ï_ÌÌ_È_ËÂÌÚ_1475-3" data-name="¡ÂÁ˚ÏˇÌÌ˚È „‡‰ËÂÌÚ 1475" x1="362.95" y1="470.33" x2="362.96" y2="470.34" xlink:href="#_ÂÁ_Ï_ÌÌ_È_ËÂÌÚ_1475"/>
    <linearGradient id="_ÂÁ_Ï_ÌÌ_È_ËÂÌÚ_1475-4" data-name="¡ÂÁ˚ÏˇÌÌ˚È „‡‰ËÂÌÚ 1475" x1="368.74" y1="467.1" x2="368.74" y2="467.11" xlink:href="#_ÂÁ_Ï_ÌÌ_È_ËÂÌÚ_1475"/>
    <linearGradient id="_ÂÁ_Ï_ÌÌ_È_ËÂÌÚ_1475-5" data-name="¡ÂÁ˚ÏˇÌÌ˚È „‡‰ËÂÌÚ 1475" x1="357.21" y1="473.35" x2="357.21" y2="473.35" xlink:href="#_ÂÁ_Ï_ÌÌ_È_ËÂÌÚ_1475"/>
    <linearGradient id="_ÂÁ_Ï_ÌÌ_È_ËÂÌÚ_1475-6" data-name="¡ÂÁ˚ÏˇÌÌ˚È „‡‰ËÂÌÚ 1475" x1="307.22" y1="399.62" x2="358.74" y2="502.24" xlink:href="#_ÂÁ_Ï_ÌÌ_È_ËÂÌÚ_1475"/>
    <linearGradient id="_ÂÁ_Ï_ÌÌ_È_ËÂÌÚ_1471-4" data-name="¡ÂÁ˚ÏˇÌÌ˚È „‡‰ËÂÌÚ 1471" x1="210.92" y1="380.7" x2="206.47" y2="447.26" xlink:href="#_ÂÁ_Ï_ÌÌ_È_ËÂÌÚ_1471"/>
    <linearGradient id="_ÂÁ_Ï_ÌÌ_È_ËÂÌÚ_1178" data-name="¡ÂÁ˚ÏˇÌÌ˚È „‡‰ËÂÌÚ 1178" x1="164.02" y1="355.57" x2="183.07" y2="496.13" gradientUnits="userSpaceOnUse">
      <stop offset="0" stop-color="#2f354e"/>
      <stop offset=".11" stop-color="#2c3149"/>
      <stop offset=".46" stop-color="#262b40"/>
      <stop offset="1" stop-color="#252a3e"/>
    </linearGradient>
    <linearGradient id="_ÂÁ_Ï_ÌÌ_È_ËÂÌÚ_156-2" data-name="¡ÂÁ˚ÏˇÌÌ˚È „‡‰ËÂÌÚ 156" x1="183.26" y1="328.41" x2="184.18" y2="511.52" xlink:href="#_ÂÁ_Ï_ÌÌ_È_ËÂÌÚ_156"/>
    <linearGradient id="_ÂÁ_Ï_ÌÌ_È_ËÂÌÚ_1178-2" data-name="¡ÂÁ˚ÏˇÌÌ˚È „‡‰ËÂÌÚ 1178" x1="313.88" y1="356.39" x2="331.58" y2="487.03" xlink:href="#_ÂÁ_Ï_ÌÌ_È_ËÂÌÚ_1178"/>
    <linearGradient id="_ÂÁ_Ï_ÌÌ_È_ËÂÌÚ_156-3" data-name="¡ÂÁ˚ÏˇÌÌ˚È „‡‰ËÂÌÚ 156" x1="319.58" y1="328.24" x2="320.48" y2="508.89" xlink:href="#_ÂÁ_Ï_ÌÌ_È_ËÂÌÚ_156"/>
    <linearGradient id="_ÂÁ_Ï_ÌÌ_È_ËÂÌÚ_1178-3" data-name="¡ÂÁ˚ÏˇÌÌ˚È „‡‰ËÂÌÚ 1178" x1="120.76" y1="436.02" x2="120.55" y2="460.74" xlink:href="#_ÂÁ_Ï_ÌÌ_È_ËÂÌÚ_1178"/>
    <linearGradient id="_ÂÁ_Ï_ÌÌ_È_ËÂÌÚ_1178-4" data-name="¡ÂÁ˚ÏˇÌÌ˚È „‡‰ËÂÌÚ 1178" x1="374.39" y1="419.74" x2="374.06" y2="457.86" xlink:href="#_ÂÁ_Ï_ÌÌ_È_ËÂÌÚ_1178"/>
    <linearGradient id="_ÂÁ_Ï_ÌÌ_È_ËÂÌÚ_156-4" data-name="¡ÂÁ˚ÏˇÌÌ˚È „‡‰ËÂÌÚ 156" x1="410.34" y1="436.35" x2="410.36" y2="437.16" xlink:href="#_ÂÁ_Ï_ÌÌ_È_ËÂÌÚ_156"/>
    <linearGradient id="_ÂÁ_Ï_ÌÌ_È_ËÂÌÚ_156-5" data-name="¡ÂÁ˚ÏˇÌÌ˚È „‡‰ËÂÌÚ 156" x1="410.99" y1="359.76" x2="413.3" y2="435.06" xlink:href="#_ÂÁ_Ï_ÌÌ_È_ËÂÌÚ_156"/>
    <linearGradient id="_ÂÁ_Ï_ÌÌ_È_ËÂÌÚ_156-6" data-name="¡ÂÁ˚ÏˇÌÌ˚È „‡‰ËÂÌÚ 156" x1="84.37" y1="437.91" x2="84.37" y2="438.06" xlink:href="#_ÂÁ_Ï_ÌÌ_È_ËÂÌÚ_156"/>
    <linearGradient id="_ÂÁ_Ï_ÌÌ_È_ËÂÌÚ_156-7" data-name="¡ÂÁ˚ÏˇÌÌ˚È „‡‰ËÂÌÚ 156" x1="79.82" y1="433.86" x2="79.82" y2="433.86" xlink:href="#_ÂÁ_Ï_ÌÌ_È_ËÂÌÚ_156"/>
    <linearGradient id="_ÂÁ_Ï_ÌÌ_È_ËÂÌÚ_156-8" data-name="¡ÂÁ˚ÏˇÌÌ˚È „‡‰ËÂÌÚ 156" x1="89.02" y1="441.87" x2="89.03" y2="442.12" xlink:href="#_ÂÁ_Ï_ÌÌ_È_ËÂÌÚ_156"/>
    <linearGradient id="_ÂÁ_Ï_ÌÌ_È_ËÂÌÚ_156-9" data-name="¡ÂÁ˚ÏˇÌÌ˚È „‡‰ËÂÌÚ 156" x1="75.35" y1="429.58" x2="75.35" y2="429.6" xlink:href="#_ÂÁ_Ï_ÌÌ_È_ËÂÌÚ_156"/>
    <linearGradient id="_ÂÁ_Ï_ÌÌ_È_ËÂÌÚ_156-10" data-name="¡ÂÁ˚ÏˇÌÌ˚È „‡‰ËÂÌÚ 156" x1="86.98" y1="362.24" x2="89.6" y2="447.71" xlink:href="#_ÂÁ_Ï_ÌÌ_È_ËÂÌÚ_156"/>
    <linearGradient id="linear-gradient-7" x1="339.66" y1="444.94" x2="337.87" y2="336.17" gradientUnits="userSpaceOnUse">
      <stop offset="0" stop-color="#6b3329"/>
      <stop offset=".3" stop-color="#663026"/>
      <stop offset=".64" stop-color="#592a20"/>
      <stop offset=".98" stop-color="#431f16"/>
      <stop offset="1" stop-color="#421f16"/>
    </linearGradient>
    <linearGradient id="linear-gradient-8" x1="444.34" y1="460.47" x2="335.12" y2="255.92" xlink:href="#linear-gradient-7"/>
    <linearGradient id="_ÂÁ_Ï_ÌÌ_È_ËÂÌÚ_298" data-name="¡ÂÁ˚ÏˇÌÌ˚È „‡‰ËÂÌÚ 298" x1="349.85" y1="435.3" x2="337.31" y2="295.2" gradientUnits="userSpaceOnUse">
      <stop offset="0" stop-color="#70362b"/>
      <stop offset=".31" stop-color="#6b3328"/>
      <stop offset=".66" stop-color="#5e2b22"/>
      <stop offset="1" stop-color="#4a2019"/>
    </linearGradient>
    <linearGradient id="_ÂÁ_Ï_ÌÌ_È_ËÂÌÚ_298-2" data-name="¡ÂÁ˚ÏˇÌÌ˚È „‡‰ËÂÌÚ 298" x1="363.87" y1="421.41" x2="346.82" y2="249.08" xlink:href="#_ÂÁ_Ï_ÌÌ_È_ËÂÌÚ_298"/>
    <linearGradient id="linear-gradient-9" x1="167.99" y1="459.04" x2="170.16" y2="534.93" xlink:href="#linear-gradient-5"/>
    <linearGradient id="linear-gradient-10" x1="347.15" y1="455.52" x2="349.28" y2="530.29" xlink:href="#linear-gradient-5"/>
    <linearGradient id="_ÂÁ_Ï_ÌÌ_È_ËÂÌÚ_384" data-name="¡ÂÁ˚ÏˇÌÌ˚È „‡‰ËÂÌÚ 384" x1="251.36" y1="107.48" x2="251.03" y2="327.48" gradientUnits="userSpaceOnUse">
      <stop offset="0" stop-color="#ffd9b3"/>
      <stop offset=".32" stop-color="#f9d5ad"/>
      <stop offset="1" stop-color="#f7d4ab"/>
    </linearGradient>
    <linearGradient id="linear-gradient-11" x1="295.16" y1="239.92" x2="285.39" y2="185.78" gradientUnits="userSpaceOnUse">
      <stop offset="0" stop-color="#f7d4ab"/>
      <stop offset=".52" stop-color="#f5d1a8"/>
      <stop offset=".85" stop-color="#f2c99f"/>
      <stop offset="1" stop-color="#f0c499"/>
    </linearGradient>
    <linearGradient id="linear-gradient-12" x1="213.32" y1="249.1" x2="202.79" y2="183.87" xlink:href="#linear-gradient-11"/>
    <radialGradient id="_ÂÁ_Ï_ÌÌ_È_ËÂÌÚ_1001" data-name="¡ÂÁ˚ÏˇÌÌ˚È „‡‰ËÂÌÚ 1001" cx="200" cy="250.93" fx="200" fy="250.93" r="39.06" gradientUnits="userSpaceOnUse">
      <stop offset="0" stop-color="#f9b38e"/>
      <stop offset=".52" stop-color="#f7c59e"/>
      <stop offset=".86" stop-color="#f7d4ab"/>
    </radialGradient>
    <linearGradient id="linear-gradient-13" x1="252.94" y1="302.19" x2="253.91" y2="322.92" gradientUnits="userSpaceOnUse">
      <stop offset="0" stop-color="#ffd9b3"/>
      <stop offset=".68" stop-color="#fcd7b0"/>
      <stop offset="1" stop-color="#f7d4ab"/>
    </linearGradient>
    <radialGradient id="radial-gradient" cx="298.44" cy="250.93" fx="298.44" fy="250.93" r="34.54" gradientUnits="userSpaceOnUse">
      <stop offset="0" stop-color="#f9b38e"/>
      <stop offset=".61" stop-color="#f7c59e"/>
      <stop offset="1" stop-color="#f7d4ab"/>
    </radialGradient>
    <linearGradient id="linear-gradient-14" x1="168.39" y1="259.17" x2="216.57" y2="259.17" xlink:href="#linear-gradient-5"/>
    <linearGradient id="_ÂÁ_Ï_ÌÌ_È_ËÂÌÚ_154" data-name="¡ÂÁ˚ÏˇÌÌ˚È „‡‰ËÂÌÚ 154" x1="249.68" y1="103.18" x2="248.3" y2="236.74" gradientUnits="userSpaceOnUse">
      <stop offset="0" stop-color="#f7d4ab"/>
      <stop offset=".33" stop-color="#f4cda3"/>
      <stop offset="1" stop-color="#f0c499"/>
    </linearGradient>
    <linearGradient id="linear-gradient-15" x1="291.35" y1="197.1" x2="323.32" y2="197.1" xlink:href="#linear-gradient-13"/>
    <linearGradient id="linear-gradient-16" x1="251.48" y1="306.37" x2="248.24" y2="353.38" xlink:href="#linear-gradient-5"/>
    <linearGradient id="linear-gradient-17" x1="223.82" y1="128.2" x2="205.62" y2="392.58" xlink:href="#linear-gradient-5"/>
    <linearGradient id="linear-gradient-18" x1="252.33" y1="267.67" x2="249.42" y2="253.14" xlink:href="#linear-gradient-11"/>
    <linearGradient id="linear-gradient-19" x1="250.04" y1="251.98" x2="249.96" y2="263.4" xlink:href="#linear-gradient-5"/>
    <linearGradient id="_ÂÁ_Ï_ÌÌ_È_ËÂÌÚ_106" data-name="¡ÂÁ˚ÏˇÌÌ˚È „‡‰ËÂÌÚ 106" x1="249.34" y1="236.46" x2="249.5" y2="248.16" gradientUnits="userSpaceOnUse">
      <stop offset="0" stop-color="#f7d4ab"/>
      <stop offset="1" stop-color="#ffd9b3"/>
    </linearGradient>
    <linearGradient id="_ÂÁ_Ï_ÌÌ_È_ËÂÌÚ_1003" data-name="¡ÂÁ˚ÏˇÌÌ˚È „‡‰ËÂÌÚ 1003" x1="220.76" y1="257.89" x2="260.04" y2="292.18" gradientUnits="userSpaceOnUse">
      <stop offset="0" stop-color="#f0c499"/>
      <stop offset=".51" stop-color="#e3b086"/>
      <stop offset="1" stop-color="#dba379"/>
    </linearGradient>
    <linearGradient id="_ÂÁ_Ï_ÌÌ_È_ËÂÌÚ_1003-2" data-name="¡ÂÁ˚ÏˇÌÌ˚È „‡‰ËÂÌÚ 1003" x1="203.65" y1="261.35" x2="220.26" y2="275.86" xlink:href="#_ÂÁ_Ï_ÌÌ_È_ËÂÌÚ_1003"/>
    <linearGradient id="linear-gradient-20" x1="290.1" y1="264.76" x2="280.88" y2="276.14" xlink:href="#linear-gradient-5"/>
    <linearGradient id="linear-gradient-21" x1="228.6" y1="282.54" x2="272.12" y2="282.54" gradientUnits="userSpaceOnUse">
      <stop offset="0" stop-color="#e8d8d7"/>
      <stop offset=".04" stop-color="#ebdddc"/>
      <stop offset=".21" stop-color="#f6f0ef"/>
      <stop offset=".38" stop-color="#fcfbfb"/>
      <stop offset=".57" stop-color="#fff"/>
      <stop offset=".69" stop-color="#fbf7f7"/>
      <stop offset=".87" stop-color="#f1e3e3"/>
      <stop offset="1" stop-color="#e8d2d1"/>
    </linearGradient>
    <linearGradient id="linear-gradient-22" x1="218.88" y1="275.99" x2="280.68" y2="275.41" xlink:href="#linear-gradient-21"/>
    <linearGradient id="linear-gradient-23" x1="236.47" y1="290.26" x2="265.1" y2="289.97" gradientUnits="userSpaceOnUse">
      <stop offset="0" stop-color="#f96e7e"/>
      <stop offset=".03" stop-color="#f9707f"/>
      <stop offset=".25" stop-color="#fd7985"/>
      <stop offset=".53" stop-color="#ff7d88"/>
      <stop offset=".76" stop-color="#fd7985"/>
      <stop offset="1" stop-color="#f86d7d"/>
      <stop offset="1" stop-color="#f86d7d"/>
    </linearGradient>
    <linearGradient id="linear-gradient-24" x1="249.59" y1="270.07" x2="249.44" y2="260.15" gradientUnits="userSpaceOnUse">
      <stop offset="0" stop-color="#ffd9b3"/>
      <stop offset="1" stop-color="#f7d4ab"/>
    </linearGradient>
    <linearGradient id="linear-gradient-25" x1="218.84" y1="273.35" x2="280.65" y2="272.77" gradientUnits="userSpaceOnUse">
      <stop offset="0" stop-color="#e8d8d7"/>
      <stop offset=".05" stop-color="#eadcdb"/>
      <stop offset=".31" stop-color="#f6efee"/>
      <stop offset=".48" stop-color="#fbf6f6"/>
      <stop offset="1" stop-color="#e8d2d1"/>
    </linearGradient>
    <linearGradient id="linear-gradient-26" x1="226.28" y1="270.95" x2="280.08" y2="270.4" xlink:href="#linear-gradient-23"/>
    <linearGradient id="linear-gradient-27" x1="314.51" y1="211.98" x2="273.84" y2="212.27" xlink:href="#linear-gradient-5"/>
    <linearGradient id="linear-gradient-28" x1="269.19" y1="215.55" x2="311.79" y2="215.55" gradientUnits="userSpaceOnUse">
      <stop offset="0" stop-color="#fff"/>
      <stop offset=".47" stop-color="#fcfcfc"/>
      <stop offset=".77" stop-color="#f5f3f3"/>
      <stop offset="1" stop-color="#ece7e7"/>
    </linearGradient>
    <linearGradient id="linear-gradient-29" x1="299.35" y1="225.3" x2="282.69" y2="209.25" gradientUnits="userSpaceOnUse">
      <stop offset="0" stop-color="#b89c8c"/>
      <stop offset="1" stop-color="#715241"/>
    </linearGradient>
    <linearGradient id="linear-gradient-30" x1="285.07" y1="209.24" x2="322.01" y2="220.46" gradientUnits="userSpaceOnUse">
      <stop offset="0" stop-color="#715241"/>
      <stop offset="1" stop-color="#b89c8c"/>
    </linearGradient>
    <radialGradient id="radial-gradient-2" cx="286.66" cy="215.95" fx="286.66" fy="215.95" r="9.68" gradientUnits="userSpaceOnUse">
      <stop offset="0" stop-color="#2a3a3b"/>
      <stop offset="1" stop-color="#1c2727"/>
    </radialGradient>
    <linearGradient id="linear-gradient-31" x1="269.19" y1="209.69" x2="319.1" y2="209.69" gradientUnits="userSpaceOnUse">
      <stop offset="0" stop-color="#5a2a1f"/>
      <stop offset=".29" stop-color="#492219"/>
      <stop offset=".66" stop-color="#3d1c14"/>
      <stop offset="1" stop-color="#391b13"/>
    </linearGradient>
    <linearGradient id="linear-gradient-32" x1="293.27" y1="198.89" x2="254.46" y2="218.76" xlink:href="#linear-gradient-5"/>
    <linearGradient id="linear-gradient-33" x1="260.14" y1="212.37" x2="302.19" y2="212.37" xlink:href="#linear-gradient-31"/>
    <linearGradient id="linear-gradient-34" x1="291.35" y1="220.81" x2="318.36" y2="220.81" xlink:href="#linear-gradient-31"/>
    <linearGradient id="_ÂÁ_Ï_ÌÌ_È_ËÂÌÚ_1003-3" data-name="¡ÂÁ˚ÏˇÌÌ˚È „‡‰ËÂÌÚ 1003" x1="229.79" y1="211.98" x2="189.16" y2="212.27" xlink:href="#_ÂÁ_Ï_ÌÌ_È_ËÂÌÚ_1003"/>
    <linearGradient id="linear-gradient-35" x1="187.81" y1="215.54" x2="230.43" y2="215.54" xlink:href="#linear-gradient-28"/>
    <linearGradient id="linear-gradient-36" x1="202.72" y1="205.91" x2="217.95" y2="227.13" xlink:href="#linear-gradient-30"/>
    <linearGradient id="linear-gradient-37" x1="207.68" y1="209.83" x2="228.87" y2="234.51" xlink:href="#linear-gradient-30"/>
    <radialGradient id="radial-gradient-3" cx="208.12" cy="215.93" fx="208.12" fy="215.93" r="9.68" xlink:href="#radial-gradient-2"/>
    <linearGradient id="_ÂÁ_Ï_ÌÌ_È_ËÂÌÚ_1002" data-name="¡ÂÁ˚ÏˇÌÌ˚È „‡‰ËÂÌÚ 1002" x1="179.59" y1="209.62" x2="230.43" y2="209.62" gradientUnits="userSpaceOnUse">
      <stop offset="0" stop-color="#391b13"/>
      <stop offset=".34" stop-color="#3d1c14"/>
      <stop offset=".71" stop-color="#492219"/>
      <stop offset="1" stop-color="#5a2a1f"/>
    </linearGradient>
    <linearGradient id="linear-gradient-38" x1="216.04" y1="202.48" x2="188.21" y2="216.73" xlink:href="#linear-gradient-5"/>
    <linearGradient id="linear-gradient-39" x1="179.33" y1="212.3" x2="221.38" y2="212.3" xlink:href="#linear-gradient-31"/>
    <linearGradient id="linear-gradient-40" x1="181.39" y1="220.85" x2="208.41" y2="220.85" gradientUnits="userSpaceOnUse">
      <stop offset="0" stop-color="#391b13"/>
      <stop offset=".34" stop-color="#3d1c14"/>
      <stop offset=".71" stop-color="#492219"/>
      <stop offset="1" stop-color="#5a2a1f"/>
    </linearGradient>
    <linearGradient id="linear-gradient-41" x1="131.49" y1="455.52" x2="149.4" y2="385.25" xlink:href="#linear-gradient-7"/>
    <linearGradient id="_ÂÁ_Ï_ÌÌ_È_ËÂÌÚ_383" data-name="¡ÂÁ˚ÏˇÌÌ˚È „‡‰ËÂÌÚ 383" x1="230.2" y1="181.58" x2="177.33" y2="183.49" gradientUnits="userSpaceOnUse">
      <stop offset="0" stop-color="#421f16"/>
      <stop offset=".32" stop-color="#462017"/>
      <stop offset=".66" stop-color="#52261c"/>
      <stop offset="1" stop-color="#673024"/>
    </linearGradient>
    <linearGradient id="linear-gradient-42" x1="184.52" y1="463.99" x2="160.38" y2="365.62" xlink:href="#linear-gradient-7"/>
    <linearGradient id="_ÂÁ_Ï_ÌÌ_È_ËÂÌÚ_298-3" data-name="¡ÂÁ˚ÏˇÌÌ˚È „‡‰ËÂÌÚ 298" x1="187.93" y1="418.39" x2="214.4" y2="338.96" xlink:href="#_ÂÁ_Ï_ÌÌ_È_ËÂÌÚ_298"/>
    <linearGradient id="linear-gradient-43" x1="322.31" y1="182.37" x2="270.07" y2="184.26" gradientUnits="userSpaceOnUse">
      <stop offset="0" stop-color="#673024"/>
      <stop offset=".34" stop-color="#52261c"/>
      <stop offset=".68" stop-color="#462017"/>
      <stop offset="1" stop-color="#421f16"/>
    </linearGradient>
    <linearGradient id="linear-gradient-44" x1="216.24" y1="-33.29" x2="206.06" y2="265.81" xlink:href="#linear-gradient-7"/>
    <linearGradient id="_ÂÁ_Ï_ÌÌ_È_ËÂÌÚ_298-4" data-name="¡ÂÁ˚ÏˇÌÌ˚È „‡‰ËÂÌÚ 298" x1="167.08" y1="79.07" x2="99.49" y2="384.78" xlink:href="#_ÂÁ_Ï_ÌÌ_È_ËÂÌÚ_298"/>
    <linearGradient id="_ÂÁ_Ï_ÌÌ_È_ËÂÌÚ_298-5" data-name="¡ÂÁ˚ÏˇÌÌ˚È „‡‰ËÂÌÚ 298" x1="114.67" y1="458.61" x2="145.94" y2="319.24" xlink:href="#_ÂÁ_Ï_ÌÌ_È_ËÂÌÚ_298"/>
    <linearGradient id="linear-gradient-45" x1="329.2" y1="42.56" x2="320.75" y2="290.47" xlink:href="#linear-gradient-7"/>
    <linearGradient id="linear-gradient-46" x1="99.3" y1="445.59" x2="161.07" y2="327.42" xlink:href="#linear-gradient-7"/>
    <linearGradient id="linear-gradient-47" x1="206.11" y1="239.91" x2="254.92" y2="77.35" xlink:href="#linear-gradient-43"/>
    <linearGradient id="_ÂÁ_Ï_ÌÌ_È_ËÂÌÚ_383-2" data-name="¡ÂÁ˚ÏˇÌÌ˚È „‡‰ËÂÌÚ 383" x1="311.03" y1="136.12" x2="374.76" y2="268.49" xlink:href="#_ÂÁ_Ï_ÌÌ_È_ËÂÌÚ_383"/>
    <linearGradient id="_ÂÁ_Ï_ÌÌ_È_ËÂÌÚ_298-6" data-name="¡ÂÁ˚ÏˇÌÌ˚È „‡‰ËÂÌÚ 298" x1="146.58" y1="429.43" x2="192.68" y2="250.39" xlink:href="#_ÂÁ_Ï_ÌÌ_È_ËÂÌÚ_298"/>
    <linearGradient id="_ÂÁ_Ï_ÌÌ_È_ËÂÌÚ_298-7" data-name="¡ÂÁ˚ÏˇÌÌ˚È „‡‰ËÂÌÚ 298" x1="194.82" y1="461.5" x2="184.06" y2="293.25" xlink:href="#_ÂÁ_Ï_ÌÌ_È_ËÂÌÚ_298"/>
    <linearGradient id="_ÂÁ_Ï_ÌÌ_È_ËÂÌÚ_298-8" data-name="¡ÂÁ˚ÏˇÌÌ˚È „‡‰ËÂÌÚ 298" x1="233.08" y1="106.39" x2="216.33" y2="209.07" xlink:href="#_ÂÁ_Ï_ÌÌ_È_ËÂÌÚ_298"/>
    <linearGradient id="linear-gradient-48" x1="87.42" y1="333.88" x2="202" y2="186.18" xlink:href="#linear-gradient-7"/>
    <linearGradient id="linear-gradient-49" x1="93.17" y1="281.41" x2="181.1" y2="281.41" xlink:href="#linear-gradient-7"/>
    <linearGradient id="_ÂÁ_Ï_ÌÌ_È_ËÂÌÚ_298-9" data-name="¡ÂÁ˚ÏˇÌÌ˚È „‡‰ËÂÌÚ 298" x1="107.41" y1="334.78" x2="185.08" y2="334.78" xlink:href="#_ÂÁ_Ï_ÌÌ_È_ËÂÌÚ_298"/>
    <linearGradient id="_ÂÁ_Ï_ÌÌ_È_ËÂÌÚ_361" data-name="¡ÂÁ˚ÏˇÌÌ˚È „‡‰ËÂÌÚ 361" x1="304.27" y1="230.12" x2="318.5" y2="230.12" gradientUnits="userSpaceOnUse">
      <stop offset="0" stop-color="#f8c39c"/>
      <stop offset=".48" stop-color="#fccfa9"/>
      <stop offset="1" stop-color="#ffd9b3"/>
    </linearGradient>
    <linearGradient id="_ÂÁ_Ï_ÌÌ_È_ËÂÌÚ_126" data-name="¡ÂÁ˚ÏˇÌÌ˚È „‡‰ËÂÌÚ 126" x1="185.34" y1="230.12" x2="199.52" y2="230.12" gradientUnits="userSpaceOnUse">
      <stop offset="0" stop-color="#ffd9b3"/>
      <stop offset=".52" stop-color="#fccfa9"/>
      <stop offset="1" stop-color="#f8c39c"/>
    </linearGradient>
    <linearGradient id="_ÂÁ_Ï_ÌÌ_È_ËÂÌÚ_298-10" data-name="¡ÂÁ˚ÏˇÌÌ˚È „‡‰ËÂÌÚ 298" x1="92.15" y1="409.35" x2="203.23" y2="298.75" xlink:href="#_ÂÁ_Ï_ÌÌ_È_ËÂÌÚ_298"/>
    <linearGradient id="_ÂÁ_Ï_ÌÌ_È_ËÂÌÚ_298-11" data-name="¡ÂÁ˚ÏˇÌÌ˚È „‡‰ËÂÌÚ 298" x1="319.86" y1="124.99" x2="337.91" y2="208.54" xlink:href="#_ÂÁ_Ï_ÌÌ_È_ËÂÌÚ_298"/>
    <linearGradient id="_ÂÁ_Ï_ÌÌ_È_ËÂÌÚ_298-12" data-name="¡ÂÁ˚ÏˇÌÌ˚È „‡‰ËÂÌÚ 298" x1="404.84" y1="363.86" x2="355.16" y2="248.38" xlink:href="#_ÂÁ_Ï_ÌÌ_È_ËÂÌÚ_298"/>
  </defs>
  <g id="Layer_1-2" data-name="Layer 1">
    <g>
      <ellipse class="cls-103" cx="246.76" cy="249.87" rx="246.76" ry="249.87"/>
      <polygon class="cls-107" points="165.06 185.01 130.54 353.94 355.91 360.89 335.92 193.2 165.06 185.01"/>
      <path class="cls-108" d="m302.29,328.96c-55.54-14.71-100.95,0-100.95,0,0,0-17.98,18.86-14.44,31.94,2.1,7.76,66.31,30.49,66.31,30.49,0,0,66.07-12.53,62.72-33.66-3.35-21.13-13.64-28.76-13.64-28.76Z"/>
      <path class="cls-47" d="m252.29,322.42c-35.75.25-45.62,4.25-50.94,6.54-2.13,2.08-4.8,8.17-4.8,8.17,0,0,10.98-11.43,55.74-11.13,44.76.3,52.77,8.48,54.8,9.72,0,0-1.59-3.45-4.79-6.76-2.81-1.09-8.61-6.82-50.01-6.54Z"/>
      <g>
        <polygon class="cls-104" points="89.07 442.06 89.08 442.06 89.07 442.06 89.07 442.06"/>
        <path class="cls-104" d="m96.94,448.4c-.19-.15-.38-.3-.57-.44.19.15.38.3.57.44Z"/>
        <polygon class="cls-104" points="410.28 436.97 410.28 436.97 410.28 436.97 410.28 436.97"/>
        <polygon class="cls-104" points="120.74 464.72 120.74 464.72 120.74 464.72 120.74 464.72"/>
        <path class="cls-104" d="m414.92,432.7s-.01.01-.02.02c0,0,.01-.01.02-.02Z"/>
        <path class="cls-104" d="m414.92,432.7c1.52-1.44,3.03-2.89,4.52-4.37-1.52-12.57-3.28-19.22-13.53-40.59-6.37-13.27-36.95-21.59-40.7-21.96-13.14-1.27-66.29-5.42-71.78-22.96-6.82-21.82,1.32-49.8,1.32-49.8l-81.97-4.1c9.22,15.37,8.88,31.73,8.5,48.31-.42,18.21-55.56,31.04-74.5,33.13-10.36,1.14-46.88,13.18-51.92,31.01-4.79,16.95-6.09,26.26-5.77,40.7,0,0,0,0,0,0,2.39,2.01,4.82,3.98,7.29,5.9.19.15.38.3.57.44,7.6,5.89,15.55,11.34,23.8,16.32,0,0,0,0,0,0l289.53-27.75s0,0,0,0c1.56-1.4,3.09-2.81,4.61-4.24,0,0,.01-.01.02-.02Z"/>
        <path class="cls-1" d="m292.76,328.09c-.38-4.04-.98-14.17-1.11-19.46-1.12,1.37-70.98-1.18-73.68-5.16l-8.12.08s2.39,25.7-1.41,44.12c-.77,3.75-23.41,9.06-38.28,12.15,1.07.82,4.88,3.39,5.73,3.85,12.72,1.25,23.66,2.75,28.85,1.85,6.35-1.1,17.04-5.95,24.77-9.49,41.9-19.2,54.97-25.55,54.97-25.55,1.97,17.86,15.17,29.67,14.45,29.49,10.54,2.57,23.38,3.04,34.78,2.73,2.84-1.16,5.64-2.87,8.51-4.58-31.85-4.13-41.45-9.56-43.75-11.13-2.46-1.68-4.82-9.61-5.7-18.89Z"/>
        <path class="cls-81" d="m247.93,381.29s15.07,2.67,19.04,7.34c0,0-4.36-12.01-19.04-7.34Z"/>
        <path class="cls-82" d="m267.48,378.36c13.08-10.19,26.17-7.28,42.86-9.22,16.69-1.94,45.57-8.25,45.57-8.25-7.6,1.48-72.49,3.66-78.35,5.11-5.87,1.45-10.07,12.36-10.07,12.36Z"/>
        <path class="cls-80" d="m235.48,367.48c-7.22-2.42-62.37-5.84-72.29-4.87,0,0,69.58,6.98,83.57,15.66,0,0-4.06-8.36-11.28-10.79Z"/>
        <path class="cls-86" d="m210.06,335.8c48.11,15.29,81.94-19.04,81.94-19.04,0,0,.16-11.73,1.69-20.96-3.73-.33-85.88-3.29-85.88-3.29,2.64,11.26,2.25,43.28,2.25,43.28Z"/>
      </g>
      <path class="cls-87" d="m110.45,379.47c-4.28,1.52-10.14,4.7-10.14,4.7,7.29,26.6,13.09,54.22,17.56,78.8,1.69,1.05,3.4,2.08,5.12,3.09h0c1.72,1.01,3.45,2,5.2,2.97-8.33-42.11-17.73-89.57-17.73-89.57Z"/>
      <path class="cls-106" d="m96.61,448.15c-.14-.11-.27-.21-.41-.32.14.11.27.21.41.32Z"/>
      <path class="cls-106" d="m127.47,468.63c-.16-.09-.31-.18-.47-.26.16.09.31.18.47.26Z"/>
      <path class="cls-106" d="m82.32,436.15c-.06-.06-.12-.11-.19-.17.06.06.12.11.19.17Z"/>
      <path class="cls-106" d="m111.68,458.99c-.17-.11-.34-.23-.51-.34.17.11.34.23.51.34Z"/>
      <polygon class="cls-106" points="75.46 429.7 75.47 429.71 75.46 429.7 75.46 429.7"/>
      <path class="cls-106" d="m132.65,426.7c-.72-14.31-28.03-54.58-41.01-46.48-9.51,5.93-14.11,25.45-16.18,49.49,0,0,0,0,0,0,2.18,2.13,4.41,4.23,6.67,6.28.06.06.12.11.19.17,4.48,4.06,9.11,7.96,13.88,11.68.13.11.27.21.41.32,4.72,3.67,9.57,7.17,14.55,10.49.17.11.34.23.51.34,4.99,3.31,10.1,6.44,15.32,9.38.16.09.31.18.47.26,2.64,1.48,5.31,2.92,8.02,4.3-1.4-22.65-2.58-41.09-2.84-46.24Z"/>
      <path class="cls-110" d="m136.37,473.38c-.18-.09-.36-.18-.53-.27.18.09.36.18.53.27Z"/>
      <polygon class="cls-110" points="148.12 478.95 148.12 478.95 148.11 478.95 148.12 478.95"/>
      <polygon class="cls-110" points="375.67 462.95 375.67 462.95 375.67 462.95 375.67 462.95"/>
      <path class="cls-110" d="m368.38,467.31s-.08.05-.12.07c.04-.02.08-.05.12-.07Z"/>
      <path class="cls-110" d="m360.94,471.41c-.05.03-.1.05-.15.08.05-.03.1-.05.15-.08Z"/>
      <path class="cls-110" d="m142.15,476.22c-.07-.03-.14-.07-.22-.1.07.03.14.07.22.1Z"/>
      <path class="cls-110" d="m124.3,466.84s.01,0,.02,0c0,0-.01,0-.02-.01h0Z"/>
      <path class="cls-110" d="m130.66,470.39c-.24-.13-.48-.25-.72-.38.24.13.48.25.72.38Z"/>
      <path class="cls-110" d="m337.09,356.67c-88.07,90.27-162.24.89-162.24.89l-69.83,23.26c8.4,32.07,14.7,61.52,19.28,86.03,0,0,.01,0,.02.01,1.86,1.08,3.74,2.13,5.63,3.16.24.13.48.25.72.38,1.72.93,3.44,1.84,5.18,2.72.18.09.36.18.53.27,1.84.93,3.69,1.84,5.56,2.73.07.03.14.07.22.1,1.97.94,3.96,1.85,5.96,2.73h.01s197.28,0,197.28,0c5.23-2.31,10.36-4.8,15.39-7.46.05-.03.1-.05.15-.08,2.46-1.3,4.9-2.65,7.32-4.03.04-.02.08-.05.12-.07,2.46-1.41,4.89-2.87,7.3-4.36,0,0,0,0,0,0,8.07-40.49,25.68-83.78,25.68-83.78l-64.26-22.5Z"/>
      <path class="cls-51" d="m142.86,476.55c.13.8.26,1.6.4,2.4h4.86s0,0-.01,0c-1.75-.78-3.5-1.57-5.23-2.39,0,0-.01,0-.02,0Z"/>
      <path class="cls-68" d="m148.1,478.95c-1.75-.78-3.5-1.57-5.23-2.39,1.73.82,3.48,1.61,5.23,2.39Z"/>
      <path class="cls-67" d="m345.39,478.95h0c4.93-2.18,9.78-4.51,14.54-7h0c-4.76,2.49-9.61,4.82-14.54,7Z"/>
      <path class="cls-66" d="m356.85,412.62h-222.34s3.25,33,8.35,63.93c31.58,14.87,66.78,23.18,103.9,23.18,40.8,0,79.28-10.03,113.18-27.79,0,0,0,0,0,0-.86-29.75-3.08-59.33-3.08-59.33Z"/>
      <path class="cls-52" d="m318.33,379.17l-21.49,12.21s-3.7,63.24-6.87,104.53c5.52-.99,10.97-2.17,16.35-3.52l4.92-2.17,7.1-111.05Z"/>
      <path class="cls-89" d="m204.97,381.78l-21.34-12.15,7.91,123.82c7.48,1.73,15.08,3.11,22.8,4.14l.58.09c-3.5-44.45-9.95-115.9-9.95-115.9Z"/>
      <path class="cls-90" d="m254.14,397.01c-45.24-.77-79.29-39.45-79.29-39.45l-12.09,4.03s29.23,43.96,91.38,45.57c72.41,1.88,96.76-47.08,96.76-47.08l-13.81-3.4c-10.3,15.72-42.29,41.03-82.95,40.34Z"/>
      <path class="cls-106" d="m122.31,465.66c-.35-.21-.69-.41-1.04-.62.35.21.69.42,1.04.62Z"/>
      <polygon class="cls-106" points="148.12 478.95 148.12 478.95 148.11 478.95 148.12 478.95"/>
      <path class="cls-106" d="m130.58,470.35c-.09-.05-.17-.09-.26-.14.08.05.17.09.26.14Z"/>
      <path class="cls-106" d="m195.78,416.95c-9.28-61.65-3.3-74.24-3.3-74.24l-100.84,37.5,21.89,80c2.55,1.66,5.14,3.26,7.75,4.82.34.21.69.42,1.04.62,2.64,1.56,5.31,3.08,8.01,4.55.08.05.17.09.26.14,5.71,3.09,11.56,5.96,17.53,8.6,0,0,0,0,0,0h55.05c-1.91-21.03-4.36-41.86-7.4-62Z"/>
      <path class="cls-53" d="m134.51,412.62s-1.14,29.73-.62,59.5c21.28,11.1,44.35,19.16,68.67,23.61l-10.09-90.71-57.97,7.6Z"/>
      <path class="cls-106" d="m388.14,454.66c-.21.15-.43.3-.65.45.22-.15.43-.3.65-.45Z"/>
      <path class="cls-106" d="m382.53,458.52c-.24.16-.48.32-.72.48.24-.16.48-.32.72-.48Z"/>
      <path class="cls-106" d="m376.19,462.63c.11-.07.21-.14.32-.2-.11.07-.21.14-.32.2Z"/>
      <path class="cls-106" d="m381.81,459c.24-.16.48-.32.72-.48,1.67-1.12,3.33-2.25,4.97-3.41.22-.15.43-.3.65-.45,1.81-1.29,3.61-2.59,5.39-3.93l17.4-70.52-100.84-37.5s5.99,12.59-3.3,74.24c-3.03,20.14-5.49,40.97-7.4,62h45.99c10.68-4.72,20.96-10.18,30.79-16.33.11-.07.21-.14.32-.2,1.78-1.12,3.55-2.26,5.3-3.42Z"/>
      <path class="cls-95" d="m351.41,476.19s-.07.03-.11.05c.04-.02.07-.03.11-.05Z"/>
      <path class="cls-91" d="m363.16,470.23c-.14.07-.28.15-.41.22.14-.07.27-.15.41-.22Z"/>
      <path class="cls-93" d="m368.75,467.1h0s-.01,0-.02,0c0,0,.01,0,.02,0Z"/>
      <path class="cls-94" d="m357.37,473.27c-.11.05-.21.11-.32.16.11-.05.21-.11.32-.16Z"/>
      <path class="cls-92" d="m368.06,412.62l-57.97-7.6-9.88,88.81c15.67-3.51,30.78-8.52,45.17-14.88h0c1.98-.88,3.95-1.78,5.91-2.71.04-.02.07-.03.11-.05,1.89-.9,3.77-1.82,5.64-2.77.11-.05.21-.11.32-.16,1.81-.92,3.6-1.86,5.38-2.82.14-.07.27-.15.41-.22,1.87-1.02,3.73-2.05,5.57-3.12,0,0,.01,0,.02,0,.32-28-.69-54.48-.69-54.48Z"/>
      <path class="cls-88" d="m199.42,378.27l1.21,68.73s28.49-15.26,17.52-58.37c0,0-13.77-6.49-18.73-10.37Z"/>
      <path class="cls-56" d="m173.24,353.94l-21.95,58.69,27,4.58-21.3,11.95s10.4,33.25,18.49,59.98c9.1,2.78,18.42,5.05,27.94,6.76-2.79-24.6-10.14-63.34-13.64-79.24l-16.54-62.71Z"/>
      <path class="cls-106" d="m396.27,448.64c-.17.13-.34.26-.51.4.17-.13.34-.26.51-.4Z"/>
      <path class="cls-106" d="m402.54,443.64c-.06.05-.12.1-.19.15.06-.05.12-.1.19-.15Z"/>
      <polygon class="cls-106" points="375.39 463.13 375.39 463.13 375.39 463.13 375.39 463.13"/>
      <path class="cls-106" d="m415.1,432.53c-.09.08-.18.17-.27.25.09-.08.18-.17.27-.25Z"/>
      <path class="cls-106" d="m382.83,458.32c-.3.2-.6.4-.9.6.3-.2.6-.4.9-.6Z"/>
      <path class="cls-106" d="m382.83,458.32c4.41-2.96,8.72-6.05,12.93-9.29.17-.13.34-.26.51-.4,2.05-1.59,4.08-3.2,6.08-4.85.06-.05.12-.1.19-.15,4.21-3.48,8.31-7.1,12.29-10.85.09-.08.18-.17.27-.25,3.99-3.78,7.87-7.69,11.61-11.72-4.91-36.34-15.77-40.6-15.77-40.6-16.16-3.04-35.45,79.95-35.45,79.95,0,0-.04,1.06-.1,2.97,0,0,0,0,0,0,2.2-1.37,4.38-2.77,6.54-4.21.3-.2.6-.4.9-.6Z"/>
      <path class="cls-77" d="m193.3,363.05c-4.64-17.83,8.04-34.1,8.04-34.1,0,0-23,7.31-30.83,38.71-7.83,31.41-11.68,41.92-11.68,41.92l24.62,5.17-20.28,8.25s11.01,38.84,18.81,68.01c6.64,1.82,13.38,3.38,20.22,4.64l6.71,1.14c-4.37-54.79-13.56-125.79-15.64-133.76Z"/>
      <path class="cls-98" d="m324.28,417.21l27-4.58-21.95-58.69-16.54,62.71c-3.47,15.73-7.95,52.35-10.15,76.65,9.33-2.19,18.46-4.92,27.35-8.15,7.36-25.5,15.58-55.99,15.58-55.99l-21.3-11.95Z"/>
      <path class="cls-76" d="m319.11,414.76l24.62-5.17s-3.84-10.52-11.68-41.92c-7.83-31.41-29.76-38.71-29.76-38.71,0,0,11.61,16.26,6.98,34.1-2.03,7.8-8.07,77.27-12.6,131.57,9.37-1.95,18.53-4.45,27.48-7.44,7.42-28.77,15.24-64.17,15.24-64.17l-20.27-8.25Z"/>
      <path class="cls-96" d="m119.13,463.76c.92.56,1.84,1.11,2.77,1.66-1.3-9.19-2.27-15.84-2.37-16.59-.12-.82-.27,5.54-.39,14.94Z"/>
      <path class="cls-97" d="m375.28,439.46c-.1.72-1.32,10.98-3.02,25.56,1.18-.7,2.35-1.41,3.51-2.14-.13-13.79-.34-24.47-.49-23.43Z"/>
      <path class="cls-74" d="m409.97,437.25c.26-.23.51-.46.77-.69-.26.23-.51.46-.77.69Z"/>
      <path class="cls-75" d="m427.53,419.92c-3.63-34.24-16.59-39.7-16.59-39.7-18.2-.95-15.01,29.64-6.66,61.98,1.93-1.62,3.82-3.27,5.69-4.95.26-.23.51-.46.77-.69,5.85-5.28,11.45-10.83,16.79-16.64Z"/>
      <path class="cls-72" d="m84.43,438.05s-.08-.07-.12-.11c.04.04.08.07.12.11Z"/>
      <path class="cls-71" d="m79.82,433.86s0,0,0,0c0,0,0,0,0,0Z"/>
      <path class="cls-70" d="m89.13,442.11c-.07-.06-.15-.13-.22-.19.07.06.14.13.22.19Z"/>
      <path class="cls-73" d="m75.34,429.58s.01,0,.02.01c0,0-.01-.01-.02-.02h0Z"/>
      <path class="cls-101" d="m91.64,380.22s-14.11,4.98-16.3,49.37c0,0,.01.01.02.02,1.47,1.44,2.96,2.86,4.46,4.26,0,0,0,0,0,0,1.48,1.38,2.98,2.74,4.49,4.08.04.04.08.07.12.11,1.48,1.31,2.97,2.6,4.48,3.87.07.06.14.13.22.19,1.57,1.32,3.15,2.62,4.75,3.9,8.46-32.64,13.28-65.86-2.25-65.79Z"/>
      <path class="cls-85" d="m346.35,217.84l-14.24,39.67s-27.48,41.49-32.48,59.91c-5.01,18.43,5.22,46.11,20.24,53.79,15.02,7.68,52.8,24.57,29.64,60.53,0,0,44.05-12.19,23.16-53.53-9.55-18.91-26.32-160.37-26.32-160.37Z"/>
      <path class="cls-83" d="m350.31,142.04c-3.04,19.29-1.64,61.87-1.64,61.87,0,0-21.78,62.94-23.89,95.87-2.08,32.38,63.61,75.84,60.13,109.47-2.18,21.01-24.55,36.27-24.55,36.27,30.01-6.21,39.46-21.53,44.11-32.89,13.33-32.6-8-63.6-22.06-91.04-27.19-53.05-22.13-140.57-32.1-179.55Z"/>
      <path class="cls-43" d="m338.32,378.36c-9.77-15.35-10.97-24.43-10.28-46.86-5.45,23.41-3.98,42.04,9.64,58.57,5.89,7.15,14.19,10.87,15,20.34.6,7.04.31,13.91-3.17,21.33,9.21-7.27,22.25-16.75,12.09-33.23-4.27-6.93-18.84-13.15-23.28-20.14Z"/>
      <path class="cls-65" d="m330.25,304.13c-3.83-29.52,19.3-67.3,21-96.4,1.67-28.58-7.98-54.06-29.68-73.01,17.38,22.13,24.16,49.97,18.23,77.59-5.65,26.3-30.62,75.94-23.99,103.81,6.45,27.14,55.78,37.14,66.73,91.08,3.93,19.35-12.8,30.44-22.18,38.31,49.42-13.78,42.49-52.56,31.09-74.6-18.77-36.31-57.22-36.14-61.19-66.78Z"/>
      <g>
        <path class="cls-113" d="m162.03,202.86c-15.57.89-11.53,17.47-4.69,32.94,4.47,10.12,8.68,21.6,20.13,21.6,0,0-2.95-20.38-6.48-47.15,0,0-5.92-7.56-8.96-7.38Z"/>
        <path class="cls-84" d="m165.04,230.79c4.1-27.53-14.57-29.42-10.33-10.63,0,0,2.58-8.86,4.94-6.21,2.9,3.26-3.11,5.05-.04,19.26,1.6,7.38,9.29,15.18,9.29,15.18,0,0-5.61-5.93-3.87-17.6Z"/>
      </g>
      <g>
        <path class="cls-113" d="m340.22,202.86c-3.04-.17-8.96,7.38-8.96,7.38-3.52,26.78-6.48,47.15-6.48,47.15,11.45,0,15.65-11.48,20.13-21.6,6.84-15.47,10.88-32.05-4.69-32.94Z"/>
        <path class="cls-19" d="m337.2,230.79c1.74,11.67-3.87,17.6-3.87,17.6,0,0,7.69-7.79,9.29-15.18,3.07-14.21-2.94-16.01-.04-19.26,2.36-2.65,4.94,6.21,4.94,6.21,4.24-18.79-14.43-16.91-10.33,10.63Z"/>
      </g>
      <path class="cls-44" d="m255.97,75.15s-3.14-.2-4.7-.18c-1.56-.02-4.7.18-4.7.18-34.67,2.2-63.95,23.84-73.93,46.65-10.87,24.84-7.76,59.74-4.65,82.56,3.11,22.83,9.32,59.84,15.01,70.31,5.69,10.48,34.46,37.52,40.67,42.18,5.81,4.36,10.89,11.45,27.69,12.22,15.8.72,22.92-7.78,28.58-12.22,6.11-4.79,33.91-31.7,39.6-42.18,5.69-10.48,11.9-47.49,15.01-70.31,3.1-22.83,6.22-57.72-4.65-82.56-9.98-22.81-39.27-44.45-73.93-46.65Z"/>
      <path class="cls-16" d="m295.72,176.48c-36.37,3.7-35.81,39.97-39.21,60.6,44.63,17.7,70.6-14.53,70.6-14.53,0,0,3.72-24.57-9.01-37.83-5.09-5.31-11.04-9.39-22.38-8.23Z"/>
      <path class="cls-17" d="m203.55,178.05c-11.36-.76-15.18-.52-20.94,4.19-13.41,10.95-7.3,44.39-7.3,44.39,0,0,26.2,31.11,70.7,11.99-3.55-20.36-6.09-58.15-42.47-60.57Z"/>
      <path class="cls-54" d="m218.38,214.37c-10.21-3.06-49.77-11.37-47.88,1.77,4.17,29.05,7.97,49.02,13.02,58.07,5.29,9.47,20.85,24.39,27.56,25.52,10.39,1.77,21.41-36.49,21.66-49.6.35-18.35-4.15-32.7-14.36-35.75Z"/>
      <path class="cls-18" d="m253.16,302.84c-7.29.35-13.15,2.97-13.11,5.85.04,2.9,5.96,4.98,13.23,4.63,7.27-.35,13.13-2.96,13.1-5.86-.04-2.89-5.98-4.97-13.23-4.62Z"/>
      <path class="cls-2" d="m284.23,214.37c-10.21,3.05-16.58,17.59-16.24,35.94.25,13.11,13.14,51.18,23.54,49.42,6.71-1.13,22.27-16.05,27.56-25.52,5.05-9.04,8.85-29.02,13.02-58.07,1.89-13.14-37.68-4.82-47.88-1.77Z"/>
      <path class="cls-27" d="m168.39,207.25s7.29,52.85,14.06,67.55c2.2,4.78,21.74,24.79,34.12,36.3,0,0-24.84-24.72-31.41-41.57-5.64-14.47-16.77-62.27-16.77-62.27Z"/>
      <path class="cls-48" d="m259.54,92.56c-52.28-14.57-94.48,108.14-94.48,108.14l31.87,15.15s3.7-29.29,24.77-71.12c23.48-46.6,73.58-23.15,73.58-23.15,6.96,5.9,23.07,56.14,23.81,92.2l10.63,21.73,2.39-19.38c.31-32.82-5.42-90.06-8.12-95.58-3.93-8.06-12.18-13.43-64.46-27.99Z"/>
      <path class="cls-113" d="m286.16,311.25c12.38-11.5,31.81-31.67,34.01-36.45,6.77-14.69,14.06-67.55,14.06-67.55,0,0-11.13,47.8-16.77,62.27-6.57,16.85-31.3,41.73-31.3,41.73Z"/>
      <path class="cls-23" d="m318.36,186.63c-16.12-10.24-27.01-2.61-27.01-2.61,33.06-2.32,30.42,28.9,30.42,28.9,0,0,5.19-20.83-3.4-26.29Z"/>
      <path class="cls-21" d="m251.08,328.7c-11.02-.37-15.37-3.5-19.62-5.9-2.13-1.2-21.89-18.38-21.89-18.38,0,0,14.98,18.16,21.89,22.06,6.35,3.58,12.41,8.12,19.81,8.12,5.88,0,15.28-3.49,23.26-10.07,4.89-4.04,19.15-20.4,19.15-20.4-1.54,1.47-19.21,16.69-22.39,18.82-3.02,2.02-9.48,6.11-20.22,5.76Z"/>
      <path class="cls-20" d="m210.56,120.25c-24.52,31.63-50.17,97.37-48.38,111.35,1.79,13.98,27.84,53.39,27.84,53.39,0,0-14.65-59.83,2.21-101.77,16.86-41.94,30.5-84.8,87.86-76.85,0,0-45-17.74-69.53,13.89Z"/>
      <g>
        <g>
          <polygon class="cls-26" points="249.59 253.83 236.31 253.83 234.81 255.72 250.38 266.42 265 255.41 262.91 253.66 249.59 253.83"/>
          <path class="cls-22" d="m249.59,254.2l-9.71-2.68-5.06.59.47,3.33s5.9-1.83,11.07.36h6.33s6.28-2.42,12.31-.39l.26-2.87-5.04-1.02-10.63,2.68Z"/>
          <path class="cls-113" d="m264.8,243.11s2.33,3.89,1.35,6.38c-.98,2.49-7.62.34-10.34,2.04-5,3.13-8.03,2.36-13.01,0-3.27-1.55-7.86.4-9.69-2.3-.64-.93-.8-4.26.13-6.12,0,0-2.74,1.53-3.15,5.7-.47,4.78,4.47,7.38,5.23,6.88.76-.49-.63-4.1,3.93-3.46,4.56.64,4.32,2.94,5.06,3.72.74.78,8.76.97,10.11.12,1.35-.85.99-3.98,5.3-3.84,4.31.14,4.43,3.08,5.05,3.46.62.38,3.17-1.92,3.91-6.29.74-4.38-3.87-6.29-3.87-6.29Z"/>
          <path class="cls-49" d="m239.31,240.95c-.08,3.05.28,4.34,1.57,6.32,1.98,3.03,15.89,5.51,18.27-1.45.47-1.38.46-3.55.21-6.29-.28-3.12-19.97-1.63-20.06,1.41Z"/>
        </g>
        <g>
          <path class="cls-57" d="m236.47,295.02c7.27,4.43,25.1,3.32,28.63.47,5.19-4.19,10.36-13.34,10.36-13.34h-49.6s7.84,11.18,10.61,12.87Z"/>
          <path class="cls-99" d="m210.26,266.54c-.69,1.57-.32,4.47,1.7,4.96,2.02.49,7.14,1.71,11.72,4.53-3.56-4.31-12.8-10.89-13.41-9.48Z"/>
          <path class="cls-29" d="m276.62,276.4c4.5-2.93,8.61-3.63,10.62-4.17,2.91-1.3,3.31-3.62,2.58-5.18-.64-1.39-9.75,4.95-13.2,9.35Z"/>
          <path class="cls-105" d="m215.05,269.28s11.13,11.52,13.55,13.26c2.42,1.74,16.97,7.76,19.73,8.28s19.78-3.59,21.46-5.47c1.68-1.88,16.02-16.07,16.02-16.07,0,0-35.51.64-37.09.74-1.58.1-33.68-.74-33.68-.74Z"/>
          <path class="cls-25" d="m230.46,275.54l-1.86,5.68s14.13,8.33,21.84,8.33,21.69-7,21.69-7l-2.85-7h-38.81Z"/>
          <path class="cls-102" d="m238.4,285.26c-4.28-.57-23.35-15.98-23.35-15.98,0,0,13.7,17.12,19.69,21.97,5.99,4.85,25.46,5.18,32.25,0,4.46-3.41,18.83-21.97,18.83-21.97,0,0-17.2,14.93-21.76,16.07-4.57,1.14-21.38.48-25.66-.09Z"/>
          <path class="cls-28" d="m228.2,271.19s-1.19,6.65,5.76,8.37c6.95,1.71,30.06.73,33.17.34,7.59-.95,7-9.25,7-9.25l-45.94.55Z"/>
          <path class="cls-24" d="m251.37,286.54c-4.77-.3-13.53.51-14.42,1.68-2.19,2.88,2.97,5.44,14.42,5.54,11.44.1,15.26-3.96,13.18-5.54-2.08-1.58-8.41-1.39-13.18-1.68Z"/>
          <path class="cls-112" d="m253.92,288.52c-1.99.69,8.85,1.68,11.17.59,2.32-1.09,5.2-5.35,5.2-5.35,0,0-2.52,1.1-4.65,2.29-2.13,1.19-9.73,1.79-11.72,2.47Z"/>
          <path class="cls-31" d="m251.37,264.98c-11.25.2-33.69,4.14-33.69,4.14,0,0,25.17-1.43,33.89-1.26,8.72.17,29.89,1.17,29.89,1.17,0,0-18.84-4.24-30.1-4.04Z"/>
          <path class="cls-15" d="m228.2,273.46s3.55,1.21,22.93,1.56c19.39.35,22.73-1.42,22.73-1.42,0,0,.29-2.05.28-2.5l-45.95.09s-.21,1.23,0,2.27Z"/>
          <path class="cls-102" d="m215.05,269.28s11.62,3.82,35.39,4.28c26.78.52,35.39-4.28,35.39-4.28,0,0-22.85-1.43-34.25-1.43-15.31,0-36.53,1.43-36.53,1.43Z"/>
          <path class="cls-32" d="m226.27,270.12s11.67,2.18,26.02,2.65c14.34.47,27.79-2.13,27.79-2.13,0,0-16.12-2-29.18-2.1-13.06-.1-24.63,1.58-24.63,1.58Z"/>
          <path class="cls-105" d="m213.3,269.86c1.1.5,1.94-.33,6.27,1.24,0,0-7.39-3.84-7.87-3.62-.34.15-.01,1.65,1.6,2.39Z"/>
          <path class="cls-105" d="m280.87,271.73c3.78-1.7,4.99-.9,6.08-1.43,1.6-.77,1.86-2.21,1.55-2.42-.6-.41-7.63,3.85-7.63,3.85Z"/>
        </g>
        <g>
          <g>
            <path class="cls-30" d="m310.38,201.81c-5.52-3.96-20.66-9.94-32.15-.81-8.33,6.62-10.24,17.91-10.24,17.91,7.52,6,13.86,8.1,20.44,8.99,6.23.84,14.68-1.32,19.49-4.2,8.98-5.38,8.35-12.45,8.35-12.45,0,0,.31-4.98-5.9-9.44Z"/>
            <path class="cls-14" d="m293.32,205.49c-13.48-1.42-21.15,7.96-24.14,13.21,4.82,3.18,14.27,9.6,30.89,5.95,5.74-1.26,11.71-7.64,11.71-7.64,0,0-4.99-10.1-18.47-11.53Z"/>
            <path class="cls-109" d="m288.79,205.18c-5.85-.27-16.34,7.59-19.61,13.52,0,0,10.7-8.36,21.97-7.47,11.48.91,15.57,4.62,19.12,7.53,0,0,.51-.55,1.52-1.75,0,0-4.73-11-23-11.84Z"/>
            <path class="cls-5" d="m289.15,203.67c-7.25.22-12.96,6-12.75,12.91.11,3.48,1.98,6.65,4.04,7.73,6.11,1.91,11.52,2.54,17.19,1.14,3.55-2.34,5.16-5.26,5.02-9.67-.21-6.91-6.26-12.33-13.51-12.11Z"/>
            <path class="cls-7" d="m297.06,205.18h-14.96s-4.87,3.33-5.56,9.17c0,0,11.88-8.02,25.87-.67,0,0-.67-5.45-5.35-8.5Z"/>
            <path class="cls-78" d="m289.91,207.41c-4.74-.43-8.96,2.64-9.41,6.86-.48,4.22,2.99,7.98,7.72,8.42,4.74.43,8.96-2.65,9.42-6.87.47-4.22-3-7.99-7.73-8.41Z"/>
            <path class="cls-8" d="m292.7,200.68c-13.89-.13-22.65,8.5-23.52,18.02,0,0,5.11-11.67,22.47-11.49,13.51.14,19.63,10.2,21.11,9.98,5.98-.88,6.35-8.44,6.34-9.19-6.34,2.81-15.03-7.23-26.4-7.33Z"/>
            <path class="cls-6" d="m280.09,199.18c-7.02,4.57-9.29,11.44-9.32,11.5,0,0,3.96-6.71,11.89-11.27,8.97-5.17,22.92-.28,22.92-.28-10.45-5.26-20.61-3.13-25.5.05Z"/>
            <path class="cls-4" d="m291.03,206.05c-8.89-.18-17.21,2.21-21.84,12.65,0,0,5.93-11.26,21.2-11.11,12.56.13,20.84,8.83,20.84,8.83,0,0-5.75-10.08-20.2-10.38Z"/>
            <path class="cls-111" d="m288.96,212.5c-1.02-.48-2.22,0-2.69,1.05-.47,1.06-.05,2.31.97,2.79,1.01.47,2.22,0,2.69-1.05.47-1.06.03-2.3-.97-2.78Z"/>
            <path class="cls-111" d="m296.33,214.03c-1.4-.64-3.06-.04-3.7,1.34-.64,1.38-.02,3.01,1.38,3.66,1.4.64,3.06.03,3.7-1.34.64-1.38.04-3.02-1.38-3.66Z"/>
            <path class="cls-11" d="m312.76,217.2c.82-.8-2.32-1.36-1.92-1.8-4.7,7.06-12.64,9.79-19.5,10.81,6.23.16,11.51-1.46,16.49-4.92h0c5.98.85,10.53-5.31,10.53-5.31-4,2.91-5.6,1.22-5.6,1.22Z"/>
          </g>
          <g>
            <path class="cls-100" d="m221.27,200.92c-11.54-9.07-26.65-3-32.14.99-6.19,4.49-5.85,9.47-5.85,9.47,0,0-.58,7.08,8.43,12.4,4.83,2.85,13.28,4.97,19.51,4.09,6.57-.93,12.91-3.07,20.39-9.11,0,0-1.98-11.28-10.34-17.85Z"/>
            <path class="cls-13" d="m206.21,205.5c-13.48,1.5-18.4,11.63-18.4,11.63,0,0,6.01,6.34,11.76,7.57,16.64,3.55,26.06-2.92,30.86-6.13-3.01-5.23-10.74-14.57-24.21-13.07Z"/>
            <path class="cls-109" d="m210.74,205.16c-18.26.95-22.93,11.97-22.93,11.97,1.02,1.19,1.53,1.74,1.53,1.74,3.53-2.93,7.6-6.67,19.07-7.64,11.26-.96,22.01,7.34,22.01,7.34-3.29-5.92-13.83-13.71-19.68-13.41Z"/>
            <path class="cls-9" d="m210.37,203.65c-7.25-.18-13.27,5.28-13.44,12.19-.11,4.41,1.51,7.32,5.08,9.64,6.1,1.26,10.84.79,16.93-1.16,2.38-1.32,4.16-4.35,4.25-7.83.17-6.91-5.57-12.66-12.82-12.84Z"/>
            <path class="cls-12" d="m215.71,205.88l-13.24-.67c-4.72,3.76-5.3,8.54-5.3,8.54,13.94-7.43,25.87.52,25.87.52-.82-7.12-7.33-8.38-7.33-8.38Z"/>
            <path class="cls-79" d="m209.64,207.4c-4.73.45-8.18,4.24-7.68,8.46.49,4.21,4.73,7.27,9.46,6.81,4.73-.46,8.18-4.25,7.67-8.46-.48-4.22-4.72-7.27-9.45-6.81Z"/>
            <path class="cls-55" d="m206.8,200.68c-11.37.17-20.39,10.87-27.21,6.88-.01.74,1.27,8.91,7.25,9.76,1.48.21,7.41-9.92,20.92-10.14,17.36-.29,22.67,11.39,22.67,11.39-.92-9.52-9.73-18.1-23.62-17.89Z"/>
            <path class="cls-3" d="m219.4,199.11c-4.9-3.16-15.07-5.23-25.5.1,0,0,13.93-4.97,22.93.15,7.96,4.52,11.95,11.2,11.95,11.2-.03-.06-2.34-6.92-9.38-11.45Z"/>
            <path class="cls-10" d="m208.51,206.05c-14.45.38-20.14,10.49-20.14,10.49,0,0,8.23-8.75,20.79-8.95,15.27-.25,21.27,10.98,21.27,10.98-4.69-10.41-13.02-12.75-21.92-12.52Z"/>
            <path class="cls-111" d="m211.44,212.46c-1.02-.53-2.26-.11-2.79.95-.52,1.06-.14,2.34.88,2.87,1.01.52,2.26.1,2.78-.96.52-1.06.14-2.34-.87-2.87Z"/>
            <path class="cls-111" d="m218.86,214.29c-1.39-.71-3.11-.17-3.83,1.21-.71,1.38-.15,3.06,1.25,3.78,1.4.71,3.11.17,3.83-1.21.7-1.38.15-3.07-1.25-3.78Z"/>
            <path class="cls-41" d="m188.75,215.51c.41.44-2.74,1.02-1.91,1.81.02.02.05.05.08.07-.36.29-2.02,1.27-5.53-1.26,0,0,4.51,6.03,10.42,5.27,5,3.41,10.38,4.97,16.6,4.78-6.86-.98-14.93-3.64-19.66-10.67Z"/>
          </g>
        </g>
      </g>
      <path class="cls-42" d="m141.9,370.28c-41.09,16.41-39.39,34.86-39.41,52.25-.02,30.69,35.9,40.5,35.9,40.5-17.89-39.87,55.66-92.75,55.66-92.75,0,0-11.05-16.41-52.14,0Z"/>
      <path class="cls-45" d="m228.97,180.46c-.5,1.63-2.17,4.08-2.62,4.59,1.89-2.68,1.35-5.14,1.35-5.14-5.64-2.29-23.58-5.74-31.73-4.13-10.48,2.07-18.4,14.44-18.4,14.44,0,0,8.84-7.5,19.29-7.58s30.44,6.31,30.44,6.31c0,0,2.61-.36,2.89-7.57,0-.08-.63,3.5-2.63,5.58.71-1.36,1.68-5.04,1.4-6.51Z"/>
      <path class="cls-39" d="m151.88,367.07c32.54,40.45-12.51,98.5-12.51,98.5,0,0,54.23-16.89,70.08-39.15,15.85-22.26-14.65-85.06-14.65-85.06l-42.92,25.71Z"/>
      <path class="cls-58" d="m196.55,357.73c10.69,19.17,10.37,42.57,4.08,64.28-5.34,18.46-32.24,30.21-54.38,41.23,22.77-5.86,59.57-18.64,67.27-41.46,7.57-22.44.74-52.39-16.98-64.06Z"/>
      <path class="cls-40" d="m304.2,175.79c-8.16-1.61-26.09,1.83-31.73,4.13,0,0-.54,2.46,1.35,5.14-.44-.51-2.12-2.96-2.62-4.59-.27,1.47.69,5.15,1.4,6.51-2-2.08-2.63-5.66-2.63-5.58.28,7.22,2.89,7.57,2.89,7.57,0,0,19.99-6.39,30.44-6.31,10.46.08,19.29,7.58,19.29,7.58,0,0-7.92-12.37-18.4-14.44Z"/>
      <path class="cls-35" d="m192.48,84.13c-44.19,27.85-59.2,73.4-67.91,133.7-3.15,21.8,5.97,80.15-19.55,152.52,18.55-13.23,43.79-19.67,59.39-35.83,15.82-16.37,11.98-33.15,15.65-54.45,4.65-26.96-2.86-48.19-1.49-75.57,2.94-24.41,24.43-84.73,54.26-95.25,43.17-15.22,62.75,6.01,62.75,6.01,0,0,18.89-14.46,12.34-23.29,0,0-43.24-53.35-115.45-7.85Z"/>
      <path class="cls-59" d="m120.71,263.64c2.41,43.62-9.79,83.69-23.68,124.62,16.47-25.68,29.64-53.97,35.33-84.09,4.59-24.3-1.26-49.7-1.82-74.05-.8-34.58,13.09-80.21,33.83-121.74-33.83,38.57-46.16,110.12-43.66,155.25Z"/>
      <path class="cls-60" d="m118.7,393.36c5.04-8.72-7.41,3-11.28,0-16.31,23.09-2.39,64.23,30.97,69.67-16.89-6.64-38.08-37.89-19.69-69.67Z"/>
      <path class="cls-33" d="m333.34,102.18c-12.38-9.39-25.41-10.2-25.41-10.2l-12.34,23.29c32.54,21.88,36.6,88.49,36.6,88.49,15.59-1.89,18.02,2.36,18.75,9.16,1.43-10.52,5.1-22.11,4.65-35.2-.4-11.78-3.17-61.08-22.24-75.54Z"/>
      <path class="cls-34" d="m132.81,342.82c-24.2,23.8-39.32,30-46.39,39.27-19.16,25.12-15.85,46.23,9.18,60.2,0,0-25.86-27.48,17.52-42.84,43.38-15.35,80.59-34.04,85.66-54.97,8.78-36.2-16.38-57.81-19.45-111.29-2.13,66.89-22.33,85.83-46.52,109.63Z"/>
      <path class="cls-38" d="m232.76,87.15c-9.09,2.75-30.02,10.59-46.54,46.4-7.65,16.59-7.64,70.96-7.64,70.96,0,0,10.03-34.18,17.97-51.13,7.93-16.95,18.51-40.43,47.97-47.3,25.8-6.01,44.81,2.28,51.07,9.19,0,0,5.05-11.36-4.88-20.38-6.52-5.92-37.71-13.87-57.95-7.74Z"/>
      <path class="cls-69" d="m295.59,115.27s17.28,11.1,22.93,34.82c12.8,53.68,10.63,85.42,10.63,85.42l5.08-24.24c2.63-4.95,6.96-10.11,14.18-5.15-3.91-15.44.24-47.49-7.31-68.65-12.36-34.64-45.5-22.2-45.5-22.2Z"/>
      <path class="cls-114" d="m307.16,330.01c1.57-16.95,15.14-28.88,18.41-45.02-16.21,15.34-31.79,31.05-28.83,54.16,2.31,18.02,16.66,35.5,36.8,38.81-17.9-10.17-28.17-28.66-26.39-47.94Z"/>
      <path class="cls-114" d="m139.36,240.69c3.68-25.21,9.63-43.81,19.48-66.89,6.39-14.98,29.67-50.57,45.47-69.3-64.85,53.2-68.76,95.88-64.95,136.19Z"/>
      <path class="cls-64" d="m163.18,393.74c-10.78,16.32-27.09,33.47-44.49,45.23,39.21-12.71,88.21-55.56,64.18-119.61,1.92,28.11-6.45,54.32-19.7,74.37Z"/>
      <path class="cls-62" d="m204.93,377.96c3.71-23.23.04-46.48-9.97-78.18,9.34,57.12-1.44,65.81-13.74,98.21-9.73,25.62-14.56,62.34,27.33,55.23-46.27-12.78-8.28-46.14-3.63-75.27Z"/>
      <path class="cls-61" d="m211.92,72c-23.2,12.25-29.45,41.18-54.01,50.75,15.76-1.94,26.01-14.38,35.75-24.59,10.06-10.54,20.57-17.62,34.94-22.61,30.47-10.57,50.82,9.67,79.32,16.43-25.15-26.22-61.6-38.15-96.01-19.98Z"/>
      <path class="cls-36" d="m167.67,220s-39.92,34.8-48.97,48.53c-9.05,13.73-45.9,26.4-10.36,59.33,0,0-13.42-26.68,10.36-32.84,23.78-6.17,43.92-18,51.46-43.49,7.54-25.49,6.19-54.64,6.19-54.64l-8.68,23.12Z"/>
      <path class="cls-37" d="m93.17,342.71s42.53,3.48,71.91-28.78c29.37-32.26,9.36-93.93,9.36-93.93,0,0-13.6,96.01-81.27,122.71Z"/>
      <path class="cls-114" d="m131.16,253.59c-13.31,10.56-34.22,26.57-37.99,44.4-2.92,13.8,5.7,25.66,15.16,29.87-25.24-36.22,10.18-51.69,31.12-67.82,34.98-26.94,39.9-70.28,42.94-110.13-5.96,22.77-8.5,40.39-17.34,59.39-8.3,17.84-18.43,32.01-33.9,44.29Z"/>
      <path class="cls-114" d="m209.57,96.83c-10.81,8.06-26.11,26.56-30.99,37.89-11.43,26.57-10.5,52.93-14.21,81.25-3.47,26.47-7.6,53.12-20.88,77.23-10.91,19.81-28.7,35.52-49.08,49.02,28.44-9.86,51.39-31.23,64.43-59.67,11.59-25.28,13.82-54.93,18.44-81.75,4.58-26.62,6.44-50.25,17.85-75.16,8.68-18.94,36.08-40.66,62.07-40.38-21.37-3.24-36.82,3.52-47.63,11.58Z"/>
      <path class="cls-63" d="m165.08,313.93c-7.51,15.29-19.48,29.34-30.06,42.89-16.94,21.68-48.14,54.15-7.98,72.04-18.75-13.7-17.76-29.92-3.24-45.88,14.38-15.8,40.38-30.75,52.25-48.37,14.56-21.62,8.03-47.93,4.34-93.91-1.53,30.4-6.54,55.39-15.31,73.24Z"/>
      <path class="cls-46" d="m310.48,225.87c-3.91,1.05-6.64,3.79-6.13,6.13.51,2.34,4.09,3.41,7.98,2.37,3.89-1.04,6.64-3.78,6.13-6.13-.51-2.34-4.09-3.4-7.98-2.37Z"/>
      <path class="cls-50" d="m192.97,225.88c-3.89-.86-7.39.34-7.82,2.68-.43,2.35,2.38,4.94,6.26,5.82,3.9.86,7.4-.33,7.83-2.67.42-2.35-2.38-4.95-6.28-5.82Z"/>
      <path class="cls-115" d="m75.49,394.03c-9.17,20.03-1.38,34.83,20.11,48.26-34.48-35.89,11.82-74.22,37.22-99.47-17.71,14.91-47.42,29.59-57.33,51.21Z"/>
      <path class="cls-116" d="m341.32,129.75c-6.83-12.41-32.64-24.93-45.73-14.48,36.71-3.01,38.77,68.79,53.09,88.64-5.58-29.33,3.6-54.27-7.36-74.16Z"/>
      <path class="cls-117" d="m360.27,209.85c-11.6,34.97-31.17,82.67,22.13,111.73-9.73-26.57-24.24-61.72-22.13-111.73Z"/>
      <path class="cls-114" d="m397.49,323.07c-9.79-9.27-36.94-22.74-43.83-34.16-6.62-10.97-2.8-19.78-1.09-31.41-8.44,11.75-13.15,22.87-5.95,36.17,6,11.07,34.19,25.43,41.01,36.09,13.96,21.82,13.21,33.2,8.76,58.86,12.57-24.62,21.94-45.81,1.09-65.56Z"/>
      <path class="cls-114" d="m361.61,174.58c-4.62-50-16.41-79.09-53.68-82.59,29.56,9.42,49.87,46.24,45.42,93.02-2.63,27.71-15.03,75.04,27.4,91.4-32.35-34.02-16.05-68.4-19.14-101.83Z"/>
    </g>
  </g>
</svg>